<?xml version="1.0" encoding="iso-8859-1"?>
<!-- Generator: Adobe Illustrator 21.0.0, SVG Export Plug-In . SVG Version: 6.00 Build 0)  -->
<svg xmlns="http://www.w3.org/2000/svg" xmlns:xlink="http://www.w3.org/1999/xlink" version="1.1" id="Capa_1" x="0px" y="0px" viewBox="0 0 512 512" style="enable-background:new 0 0 512 512;" xml:space="preserve" width="512" height="512">
<g>
	<path style="fill:#FFBBCC;" d="M423.024,167.024c0-91.909-74.236-166.48-166.018-167.021   C164.852-0.541,88.975,74.87,88.976,167.026c0.001,83.756,61.652,153.107,142.049,165.163v84.071h-35.484   c-5.691,0-10.305,4.614-10.305,10.305v29.341c0,5.691,4.614,10.305,10.305,10.305h35.484v35.484   c0,5.691,4.614,10.305,10.305,10.305h29.341c5.691,0,10.305-4.614,10.305-10.305v-35.484h35.484   c5.691,0,10.305-4.614,10.305-10.305v-29.341c0-5.691-4.614-10.305-10.305-10.305h-35.484v-84.071   C361.373,320.133,423.024,250.781,423.024,167.024z M138.927,167.024c0-64.658,52.415-117.073,117.073-117.073   s117.073,52.415,117.073,117.073S320.658,284.098,256,284.098S138.927,231.682,138.927,167.024z"/>
	<path style="fill:#FF99AA;" d="M355.1,32.574c28.851,30.019,46.591,70.795,46.591,115.719c0,83.756-61.652,153.109-142.049,165.164   v92.377c0,5.747,4.659,10.406,10.406,10.406h10.927v-84.052c80.397-12.055,142.049-81.408,142.049-165.164   C423.024,111.884,396.299,62.991,355.1,32.574z"/>
	<path style="fill:#FF99AA;" d="M295.024,447.48h-24.976c-5.747,0-10.406,4.659-10.406,10.406v24.976   c0,5.747-4.659,10.406-10.406,10.406h-18.211v8.427c0,5.691,4.614,10.305,10.305,10.305h29.341c5.691,0,10.305-4.614,10.305-10.305   v-35.484h35.484c5.691,0,10.305-4.614,10.305-10.305v-29.341c0-5.691-4.614-10.305-10.305-10.305h-11.028v20.813   C305.431,442.821,300.772,447.48,295.024,447.48z"/>
</g>















</svg>
