<svg id="Layer_1" enable-background="new 0 0 512 512" height="512" viewBox="0 0 512 512" width="512" xmlns="http://www.w3.org/2000/svg"><g><g><path d="m316.54 10.42s-12.16-1.59-32.97-2.42c-7.98-.33-17.24-.54-27.57-.5-37.27-.13-60.54 2.92-60.54 2.92s-66.67 210.59-187.96 461.78c0 0 50.73 23.05 143.88 32.3 0 0 25.13-56.31 53.94-124.55 0 0 28.8 4.12 50.68 4.12s50.68-4.12 50.68-4.12c28.81 68.24 53.94 124.55 53.94 124.55 53.09-5.27 92.41-15.03 116.4-22.45h.02c18.09-5.59 27.46-9.85 27.46-9.85-121.29-251.19-187.96-461.78-187.96-461.78z" fill="#eff4f4"/><path d="m504.5 472.2s-9.37 4.26-27.46 9.85c-.01 0-.02 0-.02 0-115.38-238.94-186.77-453.68-193.45-474.05 20.81.83 32.97 2.42 32.97 2.42s66.67 210.59 187.96 461.78z" fill="#daeaef"/><path d="m294.24 38.58c-7.65-.48-17.45-.91-29-1.04-2.94-.04-5.98-.05-9.13-.04h-.22c-15.55-.05-28.54.48-38.13 1.08-18.5 55-77.12 222.08-168.77 416.33 19.13 5.62 47.39 12.45 83.89 17.26 9.81-22.3 47.03-107.85 55.27-131.45 0 0 24.78 7.95 67.85 7.95 21.54 0 38.5-1.99 50.08-3.97 11.58-1.99 17.77-3.98 17.77-3.98 8.24 23.6 45.46 109.15 55.28 131.45 21.04-2.77 39.34-6.22 54.73-9.71 11.31-2.57 21.04-5.17 29.15-7.55-91.65-194.25-150.27-361.33-168.77-416.33zm-75.44 236.92c21.24-58.53 37.2-117.07 37.2-117.07s15.96 58.54 37.2 117.07c-41.88 8.04-74.4 0-74.4 0z" fill="#ff6b81"/><g><path d="m463.01 454.91c-8.11 2.38-17.84 4.98-29.15 7.55-89.43-189.97-149.1-366.88-168.62-424.92 11.55.13 21.35.56 29 1.04 18.5 55 77.12 222.08 168.77 416.33z" fill="#ed2061"/></g></g><g><path d="m176.824 65.452c3.912 1.365 8.188-.701 9.551-4.612 7.444-21.344 12.415-36.381 14.732-43.499 8.495-.847 28.11-2.437 54.92-2.337 26.799-.096 46.378 1.49 54.868 2.337 5.466 16.769 25.7 77.578 58.929 163.204 1.153 2.97 3.989 4.789 6.994 4.789.902 0 1.82-.164 2.711-.51 3.862-1.499 5.777-5.844 4.279-9.706-38.929-100.311-59.91-166.308-60.117-166.964-.88-2.777-3.288-4.794-6.176-5.172-.97-.127-24.211-3.114-61.487-2.978-37.334-.125-60.571 2.851-61.541 2.978-2.889.378-5.297 2.396-6.176 5.173-.054.172-5.582 17.593-16.098 47.746-1.365 3.911.7 8.187 4.611 9.551z"/><path d="m511.254 468.936c-40.413-83.696-79.052-171.759-114.842-261.74-1.53-3.848-5.889-5.728-9.741-4.197-3.849 1.531-5.728 5.892-4.197 9.741 34.896 87.731 72.49 173.648 111.798 255.505-6.057 2.3-15.902 5.756-29.272 9.544-20.994 5.949-55.055 13.909-99.738 18.692-2.556-5.765-7.201-16.273-13.23-30.056-1.66-3.795-6.083-5.526-9.877-3.865-3.795 1.66-5.525 6.082-3.866 9.877 9.378 21.438 15.42 34.985 15.48 35.12 1.214 2.722 3.911 4.444 6.846 4.444.247 0 .495-.012.744-.037 93.309-9.269 144.125-31.976 146.242-32.938 1.838-.835 3.263-2.377 3.95-4.276.689-1.9.581-3.995-.297-5.814z"/><path d="m339.027 436.529c-8.812-20.369-17.372-40.387-25.442-59.498-1.325-3.139-4.599-4.991-7.973-4.507-.283.041-28.51 4.051-49.612 4.051-21.078 0-49.33-4.01-49.613-4.051-3.367-.484-6.647 1.367-7.973 4.507-23.593 55.87-44.931 104.231-51.678 119.45-68.091-7.287-112.559-22.032-129.004-28.248 72.53-151.032 125.286-286.67 156.938-374.41 1.405-3.896-.614-8.194-4.51-9.6-3.896-1.405-8.194.614-9.6 4.51-32.036 88.804-85.768 226.852-159.814 380.203-.878 1.819-.986 3.915-.298 5.813.687 1.899 2.111 3.44 3.95 4.276 2.118.962 52.934 23.67 146.242 32.938.25.025.498.037.744.037 2.935 0 5.632-1.722 6.846-4.444.245-.549 24.184-54.239 51.775-119.42 9.633 1.214 29.531 3.439 45.995 3.439 16.463 0 36.362-2.225 45.995-3.439 7.428 17.549 15.243 35.803 23.266 54.349 1.644 3.802 6.06 5.551 9.861 3.905 3.801-1.644 5.55-6.059 3.905-9.861z"/><path d="m217.004 282.786c.922.228 15.79 3.805 38.209 3.805 11.448 0 24.865-.933 39.398-3.721 2.157-.414 4.023-1.752 5.108-3.661 1.084-1.91 1.278-4.198.529-6.263-20.884-57.556-36.854-115.903-37.013-116.486-.89-3.263-3.854-5.527-7.236-5.527s-6.346 2.264-7.236 5.527c-.159.582-16.12 58.905-37.012 116.486-.726 2-.568 4.213.434 6.09 1.003 1.877 2.754 3.24 4.819 3.75zm38.996-97.174c6.165 20.842 15.809 52.096 27.11 83.979-23.76 3.41-43.66 1.656-54.261.115 11.32-31.924 20.979-63.226 27.151-84.094z"/><path d="m81.069 385.151c-3.779-1.702-8.218-.017-9.918 3.76-9.505 21.114-19.243 42.243-28.942 62.8-.935 1.981-.957 4.273-.059 6.272s2.625 3.505 4.727 4.124c17.715 5.209 46.845 12.473 85.02 17.5 3.302.432 6.501-1.364 7.844-4.416 10.888-24.747 41.926-96.209 53.085-125.475 10.426 2.453 32.182 6.452 63.175 6.452s52.749-4 63.175-6.452c11.16 29.266 42.197 100.729 53.085 125.475 1.209 2.748 3.92 4.48 6.861 4.48.325 0 .653-.021.982-.064 38.174-5.027 67.304-12.292 85.02-17.5 2.102-.618 3.829-2.125 4.727-4.124.897-1.999.875-4.291-.059-6.272-90.183-191.146-147.839-354.262-168.442-415.519-.972-2.89-3.596-4.903-6.639-5.095-12.264-.771-25.254-1.137-38.604-1.092h-.19c-13.372-.045-26.366.322-38.629 1.092-3.042.191-5.667 2.205-6.639 5.094-15.528 46.168-58.892 170.01-126.026 322.462-1.669 3.791.05 8.217 3.841 9.886.983.433 2.009.638 3.019.638 2.882 0 5.631-1.672 6.868-4.479 65.173-147.997 108.045-269.185 124.895-318.92 10.445-.551 21.4-.808 32.646-.773h.241c11.234-.037 22.177.222 32.621.773 21.667 63.982 77.592 220.714 163.703 404.322-16.384 4.452-39.675 9.788-68.737 13.876-12.162-27.776-45.24-104.111-52.784-125.728-1.336-3.833-5.493-5.902-9.361-4.674-.239.076-24.405 7.594-65.575 7.594s-65.335-7.518-65.563-7.59c-3.872-1.243-8.032.83-9.372 4.67-7.543 21.617-40.622 97.952-52.784 125.728-29.063-4.088-52.354-9.424-68.737-13.876 8.486-18.096 16.974-36.57 25.286-55.031 1.7-3.778.016-8.218-3.761-9.918z"/></g></g></svg>