<svg id="Capa_1" enable-background="new 0 0 512 512" height="512" viewBox="0 0 512 512" width="512" xmlns="http://www.w3.org/2000/svg"><g><path d="m91.693 331.17c-14.223 0-25.753-11.53-25.753-25.753v-51.863c0-14.223 11.53-25.753 25.753-25.753h328.614c14.223 0 25.753 11.53 25.753 25.753v51.863c0 14.223-11.53 25.753-25.753 25.753z" fill="#8ac9fe"/><path d="m445.543 248.408h-302.338c-14.227 0-25.755 11.528-25.755 25.755v51.859c0 1.762.175 3.492.515 5.151h-26.27c-14.227 0-25.755-11.528-25.755-25.755v-51.859c0-14.227 11.528-25.755 25.755-25.755h328.607c12.467 0 22.851 8.849 25.241 20.604z" fill="#60b7ff"/><path d="m127.302 331.17v-106.3c0-3.983 3.228-7.211 7.211-7.211h15.795c3.983 0 7.211 3.229 7.211 7.211v106.3z" fill="#d8ecfe"/><path d="m384.65 331.172v-106.302c0-3.983-3.229-7.211-7.211-7.211h-15.795c-3.983 0-7.211 3.229-7.211 7.211v106.302z" fill="#d8ecfe"/><path d="m420.438 370.299v141.701h-328.875v-141.701c0-44.967 36.448-81.415 81.415-81.415h166.045c1.731 0 3.451.052 5.151.165 2.905.175 5.769.505 8.581.989 7.881 1.339 15.381 3.801 22.314 7.242 2.967 1.463 5.831 3.111 8.592 4.924 22.148 14.546 36.777 39.61 36.777 68.095z" fill="#b0ef9a"/><path d="m420.438 474.852v37.148h-3.616l-47.213-39.137c-16.174-13.413-25.435-33.141-25.435-54.157v-129.658c2.905.175 5.769.505 8.581.989 7.881 1.339 15.381 3.801 22.314 7.242v121.427c0 11.785 5.202 22.839 14.268 30.359z" fill="#9be27d"/><path d="m393.2 309.538c-.886-.041-1.772-.052-2.668-.052h-166.045c-44.967 0-81.415 36.448-81.415 81.415v121.099h-51.509v-141.701c0-44.967 36.448-81.415 81.415-81.415h166.045c4.677 0 9.272.392 13.732 1.154 11.26 1.906 21.727 6.13 30.905 12.166 3.358 2.204 6.552 4.656 9.54 7.334z" fill="#9be27d"/><path d="m291.902 235.87v53.58c0 9.921-4.018 18.894-10.518 25.384-6.49 6.5-15.473 10.518-25.384 10.518-19.831 0-35.902-16.071-35.902-35.902v-53.58z" fill="#fed2a4"/><path d="m256.454 287.311c9.05-4.627 22.039-3.218 31.97-7.009.358-.137 3.478-1.149 3.478-1.411 0-.003 0-43.02 0-43.02h-40.898-30.905v43.02 10.559c0 19.831 16.071 35.902 35.902 35.902 5.532 0 10.776-1.247 15.453-3.492-4.214-2.01-8.022-4.85-11.158-8.309-4.037-4.453-14.195-20.946-3.842-26.24z" fill="#ffbd86"/><path d="m366.61 128.508-107.61-16.862-94.038 16.862v46.096c0 50.279 40.759 91.038 91.038 91.038 48.39 0 87.955-37.756 90.86-85.416h19.75c7.468 0 13.521-6.054 13.521-13.521v-24.675c.001-7.468-6.053-13.522-13.521-13.522z" fill="#fed2a4"/><path d="m389.223 94.787h-22.159l-28.67-60.729c-9.22-19.532-27.094-32.286-47.038-33.883-1.412-.113-2.823-.175-4.255-.175h-58.71c-21.624 0-41.434 13.145-51.303 34.058l-28.66 60.729h-25.652c-9.045 0-16.38 7.325-16.38 16.37v.979c0 9.045 7.335 16.37 16.38 16.37h266.446c9.045 0 16.38-7.325 16.38-16.37v-.979c.001-9.045-7.334-16.37-16.379-16.37z" fill="#e19974"/><path d="m174.286 128.505h-51.509c-9.045 0-16.38-7.325-16.38-16.37v-.979c0-9.045 7.335-16.37 16.38-16.37h51.509c-9.045 0-16.38 7.325-16.38 16.37v.979c0 9.045 7.335 16.37 16.38 16.37z" fill="#dc8758"/><path d="m357.413 74.345h-103.28c-20.711 0-34.374-21.557-25.535-40.287 9.868-20.913 29.679-34.058 51.302-34.058h-51.509c-21.623 0-41.434 13.145-51.303 34.058l-28.66 60.729h51.509 167.126z" fill="#dc8758"/><path d="m164.963 128.505v.014l-.001-.01h-19.572c-7.468 0-13.521 6.054-13.521 13.521v24.676c0 7.468 6.054 13.521 13.521 13.521h19.765c2.776 45.521 38.979 82.012 84.397 85.189-20.202-16.699-33.079-41.949-33.079-70.207 0-25.461 20.64-46.101 46.101-46.101h84.465v-20.604h-182.076z" fill="#ffbd86"/><g fill="#fedba6"><path d="m368.736 449.068c-9.065-7.52-14.267-18.573-14.267-30.358v-143.793c0-3.983-3.229-7.211-7.211-7.211h-16.482c-3.983 0-7.211 3.229-7.211 7.211v143.793c0 21.015 9.271 40.742 25.444 54.154l47.211 39.135h24.217l.002-20.067z"/><path d="m143.216 449.068c9.065-7.52 14.267-18.573 14.267-30.358v-143.793c0-3.983 3.229-7.211 7.211-7.211h16.482c3.983 0 7.211 3.229 7.211 7.211v143.793c0 21.015-9.271 40.742-25.444 54.154l-47.211 39.135h-24.217l-.002-20.067z"/></g></g></svg>