<?xml version="1.0" encoding="utf-8"?>
<!-- Svg Vector Icons : http://www.onlinewebfonts.com/icon -->
<!DOCTYPE svg PUBLIC "-//W3C//DTD SVG 1.1//EN" "http://www.w3.org/Graphics/SVG/1.1/DTD/svg11.dtd">
<svg version="1.1" xmlns="http://www.w3.org/2000/svg" xmlns:xlink="http://www.w3.org/1999/xlink" x="0px" y="0px" viewBox="0 0 1000 1000" enable-background="new 0 0 1000 1000" xml:space="preserve">
<metadata> Svg Vector Icons : http://www.onlinewebfonts.com/icon </metadata>
<g><path d="M974.8,254c15.7,22.4,19.2,47.7,10.6,75.9L823.6,863.1c-7.5,25.1-22.5,46.2-45,63.3C756,943.4,732,952,706.5,952H163.3c-30.2,0-59.3-10.5-87.4-31.5c-28-21-47.6-46.8-58.6-77.4c-9.4-26.3-9.8-51.2-1.2-74.7c0-1.6,0.6-6.9,1.8-15.9s2-16.3,2.4-21.8c0.4-3.1-0.2-7.4-1.8-12.7c-1.6-5.3-2.2-9.1-1.8-11.5c0.8-4.3,2.3-8.4,4.7-12.4c2.4-3.9,5.6-8.5,9.7-13.8c4.1-5.3,7.4-9.9,9.7-13.8c9-14.9,17.8-32.9,26.5-53.9c8.6-21,14.5-38.9,17.7-53.9c1.2-3.9,1.3-9.8,0.3-17.7c-1-7.9-1.1-13.4-0.3-16.5c1.2-4.3,4.5-9.8,10-16.5c5.5-6.7,8.8-11.2,10-13.5c8.2-14.1,16.5-32.2,24.7-54.1c8.2-22,13.1-39.6,14.7-53c0.4-3.5-0.1-9.8-1.5-18.8c-1.4-9-1.3-14.5,0.3-16.5c1.6-5.1,5.9-11.1,13-18c7.1-6.9,11.4-11.3,13-13.3c7.5-10.2,15.8-26.8,25-49.7c9.2-22.9,14.6-41.9,16.2-56.8c0.4-3.1-0.2-8.1-1.8-15s-2-12.1-1.2-15.6c0.8-3.1,2.5-6.7,5.3-10.6c2.8-3.9,6.3-8.4,10.6-13.5c4.3-5.1,7.6-9.2,10-12.4c3.1-4.7,6.4-10.7,9.7-18c3.3-7.3,6.3-14.1,8.8-20.6c2.5-6.5,5.7-13.5,9.4-21.2c3.7-7.7,7.6-13.9,11.5-18.8c3.9-4.9,9.1-9.5,15.6-13.8c6.5-4.3,13.5-6.6,21.2-6.8c7.6-0.2,16.9,0.9,27.9,3.2l-0.6,1.8c14.9-3.5,24.9-5.3,30-5.3h447.8c29,0,51.4,11,67.1,33c15.7,22,19.2,47.5,10.6,76.5L731.3,690.6c-14.1,46.7-28.1,76.8-42.1,90.3c-13.9,13.5-39.1,20.3-75.6,20.3H102.2c-10.6,0-18.1,2.9-22.4,8.8c-4.3,6.3-4.5,14.7-0.6,25.3c9.4,27.5,37.7,41.2,84.7,41.2h543.2c11.4,0,22.4-3,33-9.1c10.6-6.1,17.5-14.2,20.6-24.4l176.6-580.8c2.7-8.6,3.7-19.8,2.9-33.6c14.9,5.9,26.5,14.3,34.7,25.3L974.8,254z M348.7,255.2c-1.6,5.1-1.2,9.5,1.2,13.3c2.4,3.7,6.3,5.6,11.8,5.6h357.8c5.1,0,10.1-1.9,15-5.6c4.9-3.7,8.1-8.1,9.7-13.3l12.4-37.7c1.6-5.1,1.2-9.5-1.2-13.3c-2.4-3.7-6.3-5.6-11.8-5.6H385.7c-5.1,0-10.1,1.9-15,5.6c-4.9,3.7-8.1,8.1-9.7,13.3L348.7,255.2z M299.9,405.8c-1.6,5.1-1.2,9.5,1.2,13.3s6.3,5.6,11.8,5.6h357.8c5.1,0,10.1-1.9,15-5.6s8.1-8.1,9.7-13.3l12.4-37.7c1.6-5.1,1.2-9.5-1.2-13.3s-6.3-5.6-11.8-5.6H336.9c-5.1,0-10.1,1.9-15,5.6c-4.9,3.7-8.1,8.1-9.7,13.3L299.9,405.8z"/></g>
</svg>