<?xml version="1.0" encoding="iso-8859-1"?>
<!-- Generator: Adobe Illustrator 19.0.0, SVG Export Plug-In . SVG Version: 6.00 Build 0)  -->
<svg version="1.1" id="Capa_1" xmlns="http://www.w3.org/2000/svg" xmlns:xlink="http://www.w3.org/1999/xlink" x="0px" y="0px"
	 viewBox="0 0 511.999 511.999" style="enable-background:new 0 0 511.999 511.999;" xml:space="preserve">
<path style="fill:#A86D38;" d="M46.778,317.381h63.435c0,7.561,0,171.376,0,178.876H46.778c-3.402,0-6.16-2.758-6.16-6.16
	c0-6.127,0-159.98,0-166.555C40.618,320.139,43.377,317.381,46.778,317.381z"/>
<g>
	<path style="fill:#995F30;" d="M60.959,490.097c0-6.127,0-159.98,0-166.555c0-3.402,2.759-6.16,6.16-6.16h-20.34
		c-3.402,0-6.16,2.758-6.16,6.16c0,6.575,0,160.428,0,166.555c0,3.402,2.759,6.16,6.16,6.16H67.12
		C63.718,496.257,60.959,493.499,60.959,490.097z"/>
	<path style="fill:#995F30;" d="M30.58,459.182V442.07c0-2.583,2.094-4.678,4.677-4.678h74.957v26.467H35.257
		C32.674,463.859,30.58,461.765,30.58,459.182z"/>
	<path style="fill:#995F30;" d="M35.257,350.692h74.957v26.467H35.257c-2.583,0-4.677-2.094-4.677-4.677V355.37
		C30.58,352.786,32.674,350.692,35.257,350.692z"/>
</g>
<g>
	<path style="fill:#8E552B;" d="M50.921,459.182V442.07c0-2.584,2.094-4.678,4.677-4.678H35.257c-2.583,0-4.677,2.094-4.677,4.678
		v17.112c0,2.583,2.094,4.677,4.677,4.677h20.341C53.015,463.859,50.921,461.765,50.921,459.182z"/>
	<path style="fill:#8E552B;" d="M50.921,372.481v-17.112c0-2.583,2.094-4.678,4.677-4.678H35.257c-2.583,0-4.677,2.094-4.677,4.678
		v17.112c0,2.583,2.094,4.677,4.677,4.677h20.341C53.015,377.158,50.921,375.064,50.921,372.481z"/>
</g>
<path style="fill:#A86D38;" d="M465.222,317.381h-63.435c0,7.561,0,171.376,0,178.876h63.435c3.402,0,6.16-2.758,6.16-6.16
	c0-6.127,0-159.98,0-166.555C471.382,320.139,468.623,317.381,465.222,317.381z"/>
<g>
	<path style="fill:#995F30;" d="M424.452,317.381h-22.665c0,7.561,0,171.376,0,178.876h22.665
		C424.452,464.135,424.452,349.511,424.452,317.381z"/>
	<path style="fill:#995F30;" d="M481.42,459.182V442.07c0-2.583-2.094-4.678-4.677-4.678h-74.957v26.467h74.957
		C479.326,463.859,481.42,461.765,481.42,459.182z"/>
</g>
<path style="fill:#8E552B;" d="M424.452,437.392h-22.665v26.467h22.665C424.452,455.713,424.452,446.764,424.452,437.392z"/>
<path style="fill:#995F30;" d="M476.743,350.692h-74.957v26.467h74.957c2.583,0,4.677-2.094,4.677-4.677V355.37
	C481.42,352.786,479.326,350.692,476.743,350.692z"/>
<path style="fill:#8E552B;" d="M424.452,350.692h-22.665v26.467h22.665C424.452,367.806,424.452,358.857,424.452,350.692z"/>
<path style="fill:#B78046;" d="M368.642,108.257l12.393-92.918c0.643-4.818-2.664-9.255-7.388-9.911l-38.512-5.347
	c-4.722-0.655-9.072,2.719-9.714,7.537l-13.423,100.639H368.642z"/>
<path style="fill:#A86D38;" d="M349.093,2.019l-13.958-1.938c-4.722-0.655-9.072,2.719-9.714,7.537l-13.423,100.639h20.605
	L346.025,7.618C346.33,5.332,347.475,3.379,349.093,2.019z"/>
<path style="fill:#B78046;" d="M143.359,108.257h56.644L186.581,7.618c-0.643-4.818-4.992-8.192-9.715-7.537l-38.512,5.347
	c-4.723,0.656-8.031,5.093-7.388,9.911L143.359,108.257z"/>
<path style="fill:#A86D38;" d="M151.571,27.359c-0.643-4.818,2.664-9.255,7.388-9.911l28.407-3.944l-0.785-5.886
	c-0.643-4.818-4.992-8.192-9.715-7.537l-38.512,5.347c-4.723,0.656-8.03,5.093-7.388,9.911l12.393,92.918h19.002L151.571,27.359z"/>
<path style="fill:#B78046;" d="M387.419,106.106H124.581c-9.035,0-16.427,7.392-16.427,16.427v373.039
	c0,9.035,7.392,16.427,16.427,16.427H387.42c9.035,0,16.427-7.392,16.427-16.427V122.533
	C403.847,113.498,396.455,106.106,387.419,106.106z"/>
<path style="fill:#A86D38;" d="M128.758,495.573v-373.04c0-9.035,7.392-16.427,16.427-16.427H124.58
	c-9.035,0-16.427,7.392-16.427,16.427v373.039c0,9.035,7.392,16.427,16.427,16.427h20.605
	C136.151,512,128.758,504.608,128.758,495.573z"/>
<path style="fill:#B78046;" d="M292.277,113.833c-4.267,0-7.727-3.459-7.727-7.727c0-15.742-12.808-28.55-28.55-28.55
	c-15.743,0-28.551,12.808-28.551,28.55c0,4.267-3.459,7.727-7.727,7.727c-4.267,0-7.727-3.459-7.727-7.727
	c0-24.264,19.74-44.004,44.004-44.004s44.004,19.74,44.004,44.004C300.004,110.373,296.544,113.833,292.277,113.833z"/>
<path style="fill:#A86D38;" d="M387.419,106.106H124.581c-9.035,0-16.427,7.392-16.427,16.427v98.222
	c0,27.293,22.331,49.624,49.624,49.624c10.319,0,190.292,0,196.445,0c27.293,0,49.624-22.331,49.624-49.624v-98.222
	C403.847,113.498,396.455,106.106,387.419,106.106z"/>
<path style="fill:#995F30;" d="M128.758,220.756v-98.222c0-9.035,7.392-16.427,16.427-16.427H124.58
	c-9.035,0-16.427,7.392-16.427,16.427v98.222c0,27.293,22.331,49.624,49.624,49.624c1.888,0,9.461,0,20.605,0
	C151.089,270.38,128.758,248.049,128.758,220.756z"/>
<path style="fill:#A86D38;" d="M348.404,377.158H163.596c-6.964,0-12.663,5.698-12.663,12.663v61.375
	c0,6.964,5.698,12.663,12.663,12.663h184.808c6.964,0,12.663-5.698,12.663-12.663v-61.375
	C361.067,382.857,355.369,377.158,348.404,377.158z"/>
<path style="fill:#995F30;" d="M171.538,451.196v-61.375c0-6.964,5.698-12.663,12.663-12.663h-20.605
	c-6.964,0-12.663,5.698-12.663,12.663v61.375c0,6.964,5.698,12.663,12.663,12.663h20.605
	C177.236,463.859,171.538,458.16,171.538,451.196z"/>
<path style="fill:#E1F1FB;" d="M330.608,428.236c-4.267,0-7.727-3.459-7.727-7.727v-20.692c0-4.267,3.459-7.727,7.727-7.727
	c4.267,0,7.727,3.459,7.727,7.727v20.692C338.335,424.776,334.875,428.236,330.608,428.236z"/>
<path style="fill:#995F30;" d="M170.047,106.106v30.648c0,7.05,5.716,12.765,12.766,12.765h145.109
	c7.05,0,12.765-5.715,12.765-12.765v-30.648C340.687,106.106,170.047,106.106,170.047,106.106z"/>
<path style="fill:#8E552B;" d="M190.652,136.754v-30.648h-20.605v30.648c0,7.05,5.716,12.765,12.766,12.765h20.605
	C196.368,149.519,190.652,143.804,190.652,136.754z"/>
<path style="fill:#995F30;" d="M236.835,237.746v66.435c0,1.436,0.584,2.811,1.618,3.808l12.987,12.523
	c2.545,2.454,6.575,2.454,9.12,0l13.113-12.644c0.954-0.92,1.493-2.188,1.493-3.513v-66.61L236.835,237.746L236.835,237.746z"/>
<path style="fill:#8E552B;" d="M259.058,307.99c-1.034-0.997-1.618-2.372-1.618-3.808v-66.435h-20.605v66.435
	c0,1.436,0.584,2.811,1.618,3.808l12.987,12.523c2.545,2.454,6.575,2.454,9.12,0l5.743-5.537L259.058,307.99z"/>
<path style="fill:#B78046;" d="M278.816,211.515h-45.632c-5.772,0-10.495,4.723-10.495,10.495v7.301
	c0,5.773,4.723,10.495,10.495,10.495h45.632c5.773,0,10.495-4.722,10.495-10.495v-7.301
	C289.311,216.238,284.589,211.515,278.816,211.515z"/>
<g>
	<path style="fill:#995F30;" d="M278.816,222.164h-45.632c-3.894,0-7.303-2.153-9.115-5.324c-0.874,1.53-1.381,3.292-1.381,5.171
		v7.301c0,5.773,4.723,10.495,10.495,10.495h45.632c5.772,0,10.495-4.723,10.495-10.495v-7.301c0-1.878-0.507-3.641-1.38-5.171
		C286.12,220.01,282.71,222.164,278.816,222.164z"/>
	<path style="fill:#995F30;" d="M348.404,377.158H163.596c-6.964,0-12.663,5.698-12.663,12.663v17.454h210.134v-17.454
		C361.067,382.857,355.369,377.158,348.404,377.158z"/>
</g>
<path style="fill:#8E552B;" d="M150.933,389.821v17.454h20.605v-17.454c0-6.964,5.698-12.663,12.663-12.663h-20.605
	C156.631,377.158,150.933,382.857,150.933,389.821z"/>
<g>
</g>
<g>
</g>
<g>
</g>
<g>
</g>
<g>
</g>
<g>
</g>
<g>
</g>
<g>
</g>
<g>
</g>
<g>
</g>
<g>
</g>
<g>
</g>
<g>
</g>
<g>
</g>
<g>
</g>
</svg>
