<svg height="512" viewBox="0 0 64 64" width="512" xmlns="http://www.w3.org/2000/svg"><g id="flat"><path d="m37 43h-10l-1.831-2h8.531l-9.252-6.168a1 1 0 0 1 .552-1.832h9.764l-9.364-4.684.051-2.211 14 7a1 1 0 0 1 -.451 1.895h-10.7l9.252 6.168a1 1 0 0 1 -.552 1.832z" fill="#66342e"/><path d="m24.887 40.809-1.875-.961 2-13 2.105-.535z" fill="#ad6327"/><path d="m39.113 40.809-2.2-14.3 2.075.339 2 13z" fill="#ad6327"/><path d="m29 47v14h-26v-14c0-4 4.77-8.95 11-9.86a29.663 29.663 0 0 1 4 0c6.23.91 11 5.86 11 9.86z" fill="#55b56a"/><path d="m61 47v14h-26v-14c0-4 4.77-8.95 11-9.86a29.663 29.663 0 0 1 4 0c6.23.91 11 5.86 11 9.86z" fill="#55b56a"/><path d="m32 3h8v4h-8z" fill="#55b56a"/><path d="m31 3h2v9h-2z" fill="#f9bb4b"/><path d="m40 15h-16v-3l2-1h12l2 1z" fill="#66342e"/><path d="m26 15h12v8h-12z" fill="#d3843d"/><path d="m11 53h10v8h-10z" fill="#66342e"/><g fill="#3e8051"><path d="m19 45h6v4h-6z"/><path d="m7 45h6v4h-6z"/><path d="m6 56h2v2h-2z"/><path d="m24 56h2v2h-2z"/><path d="m18 37.14v3.86h-4v-3.86a14.356 14.356 0 0 1 4 0z"/><path d="m6 52h2v2h-2z"/></g><path d="m43 53h10v8h-10z" fill="#66342e" transform="matrix(-1 0 0 -1 96 114)"/><path d="m39 45h6v4h-6z" fill="#3e8051" transform="matrix(-1 0 0 -1 84 94)"/><path d="m51 45h6v4h-6z" fill="#3e8051" transform="matrix(-1 0 0 -1 108 94)"/><path d="m56 56h2v2h-2z" fill="#3e8051"/><path d="m38 56h2v2h-2z" fill="#3e8051"/><path d="m50 37.14v3.86h-4v-3.86a14.356 14.356 0 0 1 4 0z" fill="#3e8051"/><path d="m56 52h2v2h-2z" fill="#3e8051"/><path d="m11 40h10v2h-10z" fill="#8ec13f"/><path d="m43 40h10v2h-10z" fill="#8ec13f"/><path d="m24 23h16v4h-16z" fill="#66342e"/></g></svg>