<?xml version="1.0" encoding="UTF-8" standalone="no" ?>
<!DOCTYPE svg PUBLIC "-//W3C//DTD SVG 1.1//EN" "http://www.w3.org/Graphics/SVG/1.1/DTD/svg11.dtd">
<svg xmlns="http://www.w3.org/2000/svg" xmlns:xlink="http://www.w3.org/1999/xlink" version="1.1" width="720" height="720" viewBox="0 0 720 720" xml:space="preserve">
<desc>Created with Fabric.js 4.2.0</desc>
<defs>
</defs>
<rect x="0" y="0" width="100%" height="100%" fill="transparent"></rect>
<g transform="matrix(1 0 0 1 360 360)" id="088ff5e9-cec8-4b99-9d85-4d7f1d684ffe"  >
<rect style="stroke: none; stroke-width: 1; stroke-dasharray: none; stroke-linecap: butt; stroke-dashoffset: 0; stroke-linejoin: miter; stroke-miterlimit: 4; fill: rgb(255,255,255); fill-opacity: 0; fill-rule: nonzero; opacity: 1;" vector-effect="non-scaling-stroke"  x="-360" y="-360" rx="0" ry="0" width="720" height="720" />
</g>
<g transform="matrix(Infinity NaN NaN Infinity 0 0)" id="10e72e25-f349-42f5-adff-9246252ebd1e"  >
</g>
<g transform="matrix(1.35 0 0 1.35 360.3 361.43)"  >
<g style="" vector-effect="non-scaling-stroke"   >
		<g transform="matrix(1 0 0 1 199.84 -196.06)"  >
<path style="stroke: none; stroke-width: 1; stroke-dasharray: none; stroke-linecap: butt; stroke-dashoffset: 0; stroke-linejoin: miter; stroke-miterlimit: 4; fill: rgb(152,158,236); fill-rule: nonzero; opacity: 1;" vector-effect="non-scaling-stroke"  transform=" translate(-453.92, -59.95)" d="M 509.16 0.59 L 474.88 119.3 L 398.67 111.08 L 445.012 52.614999999999995 z" stroke-linecap="round" />
</g>
		<g transform="matrix(1 0 0 1 23.17 119.99)"  >
<path style="stroke: none; stroke-width: 1; stroke-dasharray: none; stroke-linecap: butt; stroke-dashoffset: 0; stroke-linejoin: miter; stroke-miterlimit: 4; fill: rgb(4,48,62); fill-rule: nonzero; opacity: 1;" vector-effect="non-scaling-stroke"  transform=" translate(-278.24, -374.56)" d="M 362.93 443.38 L 331.14 453.96 L 193.54 316.36 L 214.72 295.17 z" stroke-linecap="round" />
</g>
		<g transform="matrix(1 0 0 1 121.79 88.57)"  >
<path style="stroke: none; stroke-width: 1; stroke-dasharray: none; stroke-linecap: butt; stroke-dashoffset: 0; stroke-linejoin: miter; stroke-miterlimit: 4; fill: rgb(203,116,0); fill-rule: nonzero; opacity: 1;" vector-effect="non-scaling-stroke"  transform=" translate(-376.22, -343.71)" d="M 426.12 465.13 L 383.69 507.56 L 331.14 453.96 L 351.27 326.52 C 355.349 300.68399999999997 352.43 274.631 343.32599999999996 250.86399999999998 C 343.32599999999996 250.86399999999998 341.022 214.42499999999998 326.31899999999996 199.64999999999998 L 347.705 179.85499999999996 C 362.06899999999996 194.44099999999997 388.279 205.90499999999997 388.279 205.90499999999997 C 404.165 235.88199999999998 412.58 269.43699999999995 412.58 303.65 C 412.58 314.46 411.74 325.34 410.03 336.2 L 394.78 432.75 z" stroke-linecap="round" />
</g>
		<g transform="matrix(1 0 0 1 104.21 -39.77)"  >
<path style="stroke: none; stroke-width: 1; stroke-dasharray: none; stroke-linecap: butt; stroke-dashoffset: 0; stroke-linejoin: miter; stroke-miterlimit: 4; fill: rgb(255,181,85); fill-rule: nonzero; opacity: 1;" vector-effect="non-scaling-stroke"  transform=" translate(-358.62, -215.36)" d="M 371.901 179.855 L 328.957 222.79899999999998 C 334.759 231.64899999999997 339.55899999999997 241.06499999999997 343.313 250.86799999999997 L 388.274 205.90699999999998 C 383.487 196.87199999999999 378.021 188.16099999999997 371.901 179.855 z" stroke-linecap="round" />
</g>
		<g transform="matrix(1 0 0 1 86.54 -65.23)"  >
<path style="stroke: none; stroke-width: 1; stroke-dasharray: none; stroke-linecap: butt; stroke-dashoffset: 0; stroke-linejoin: miter; stroke-miterlimit: 4; fill: rgb(4,48,62); fill-rule: nonzero; opacity: 1;" vector-effect="non-scaling-stroke"  transform=" translate(-341.04, -190.02)" d="M 371.9 179.86 L 328.96 222.8 C 326.21999999999997 218.62 323.26 214.58 320.09 210.67000000000002 C 316.98999999999995 206.85000000000002 313.69 203.17000000000002 310.17999999999995 199.65 L 352.5799999999999 157.23000000000002 C 359.61999999999995 164.35000000000002 366.05999999999995 171.92000000000002 371.8999999999999 179.86 z" stroke-linecap="round" />
</g>
		<g transform="matrix(1 0 0 1 -120.69 -20.35)"  >
<path style="stroke: none; stroke-width: 1; stroke-dasharray: none; stroke-linecap: butt; stroke-dashoffset: 0; stroke-linejoin: miter; stroke-miterlimit: 4; fill: rgb(0,84,87); fill-rule: nonzero; opacity: 1;" vector-effect="non-scaling-stroke"  transform=" translate(-135.05, -234.92)" d="M 214.72 295.17 L 193.54 316.36 L 55.370000000000005 178.19000000000003 L 73.02000000000001 153.47000000000003 z" stroke-linecap="round" />
</g>
		<g transform="matrix(1 0 0 1 -90.18 -122.98)"  >
<path style="stroke: none; stroke-width: 1; stroke-dasharray: none; stroke-linecap: butt; stroke-dashoffset: 0; stroke-linejoin: miter; stroke-miterlimit: 4; fill: rgb(233,155,98); fill-rule: nonzero; opacity: 1;" vector-effect="non-scaling-stroke"  transform=" translate(-165.81, -132.62)" d="M 328.958 159.162 L 310.18 182.833 L 306.71500000000003 177.843 C 291.886 163.01399999999998 258.466 166.004 258.466 166.004 C 241.74900000000002 159.602 223.9 156.26 205.79000000000002 156.26 C 198.15000000000003 156.26 190.47000000000003 156.85 182.81000000000003 158.06 L 55.37000000000003 178.19 L 2.660000000000032 124.83 L 45.09000000000003 82.4 L 73.05000000000004 111.01 L 175.36000000000004 96.9 C 219.85500000000005 90.76100000000001 264.56300000000005 99.19300000000001 303.17300000000006 120.07600000000001 C 303.17300000000006 120.07600000000001 311.88200000000006 131.683 326.3190000000001 146.12 C 326.69900000000007 146.5 328.5780000000001 158.772 328.9580000000001 159.162 z" stroke-linecap="round" />
</g>
		<g transform="matrix(1 0 0 1 39.34 -104.97)"  >
<path style="stroke: none; stroke-width: 1; stroke-dasharray: none; stroke-linecap: butt; stroke-dashoffset: 0; stroke-linejoin: miter; stroke-miterlimit: 4; fill: rgb(255,222,85); fill-rule: nonzero; opacity: 1;" vector-effect="non-scaling-stroke"  transform=" translate(-294.1, -150.44)" d="M 258.462 166.016 C 268.265 169.76999999999998 277.681 174.571 286.531 180.37199999999999 L 329.728 137.17499999999998 C 321.522 130.96999999999997 312.909 125.40599999999998 303.961 120.51599999999999 z" stroke-linecap="round" />
</g>
		<g transform="matrix(1 0 0 1 64.94 -86.92)"  >
<path style="stroke: none; stroke-width: 1; stroke-dasharray: none; stroke-linecap: butt; stroke-dashoffset: 0; stroke-linejoin: miter; stroke-miterlimit: 4; fill: rgb(0,84,87); fill-rule: nonzero; opacity: 1;" vector-effect="non-scaling-stroke"  transform=" translate(-319.56, -168.41)" d="M 352.58 157.23 L 310.18 199.64999999999998 L 309.93 199.39999999999998 C 302.73 192.2 294.88 185.84999999999997 286.53000000000003 180.36999999999998 L 329.73 137.17999999999998 C 337.34000000000003 142.92999999999998 344.61 149.23 351.45000000000005 156.07 C 351.84000000000003 156.45999999999998 352.22 156.84 352.58000000000004 157.23 z" stroke-linecap="round" />
</g>
		<g transform="matrix(1 0 0 1 195.56 -200.46)"  >
<path style="stroke: none; stroke-width: 1; stroke-dasharray: none; stroke-linecap: butt; stroke-dashoffset: 0; stroke-linejoin: miter; stroke-miterlimit: 4; fill: rgb(173,207,255); fill-rule: nonzero; opacity: 1;" vector-effect="non-scaling-stroke"  transform=" translate(-449.68, -55.54)" d="M 509.33 0 L 509.15999999999997 0.59 L 398.66999999999996 111.08 L 398.28999999999996 111.03999999999999 L 390.03 34.44999999999999 z" stroke-linecap="round" />
</g>
		<g transform="matrix(1 0 0 1 24.42 -15.39)"  >
<path style="stroke: none; stroke-width: 1; stroke-dasharray: none; stroke-linecap: butt; stroke-dashoffset: 0; stroke-linejoin: miter; stroke-miterlimit: 4; fill: rgb(230,200,147); fill-rule: nonzero; opacity: 1;" vector-effect="non-scaling-stroke"  transform=" translate(-279.88, -240.26)" d="M 447.78 82.76 L 122.38 408.15999999999997 L 111.99 397.77 L 258.462 242.71399999999997 L 437.39 72.36999999999998 z" stroke-linecap="round" />
</g>
		<g transform="matrix(0.71 -0.71 0.71 0.71 13.74 -24.49)"  >
<path style="stroke: none; stroke-width: 1; stroke-dasharray: none; stroke-linecap: butt; stroke-dashoffset: 0; stroke-linejoin: miter; stroke-miterlimit: 4; fill: rgb(236,214,175); fill-rule: nonzero; opacity: 1;" vector-effect="non-scaling-stroke"  transform=" translate(-269.28, -229.66)" d="M 39.187 222.009 L 499.372 222.009 L 499.372 237.31099999999998 L 39.18700000000001 237.31099999999998 z" stroke-linecap="round" />
</g>
		<g transform="matrix(1 0 0 1 -158.78 191.24)"  >
<path style="stroke: none; stroke-width: 1; stroke-dasharray: none; stroke-linecap: butt; stroke-dashoffset: 0; stroke-linejoin: miter; stroke-miterlimit: 4; fill: rgb(255,181,85); fill-rule: nonzero; opacity: 1;" vector-effect="non-scaling-stroke"  transform=" translate(-96.98, -445.4)" d="M 143.85 434.99 L 69.3 509.54 L 50.11 459.64000000000004 L 78.596 419.98100000000005 L 128.5 381.26000000000005 z" stroke-linecap="round" />
</g>
		<g transform="matrix(1 0 0 1 -191.65 158.54)"  >
<path style="stroke: none; stroke-width: 1; stroke-dasharray: none; stroke-linecap: butt; stroke-dashoffset: 0; stroke-linejoin: miter; stroke-miterlimit: 4; fill: rgb(255,222,85); fill-rule: nonzero; opacity: 1;" vector-effect="non-scaling-stroke"  transform=" translate(-64.35, -412.77)" d="M 128.5 381.25 L 128.5 381.26 L 50.11 459.64 L 0.21000000000000085 440.45 L 74.75999999999999 365.9 z" stroke-linecap="round" />
</g>
</g>
</g>
<g transform="matrix(3.61 0 0 3.61 624 600.86)" style="filter: url(#SVGID_1015);" id="f42727bd-bc40-4e3b-832d-5e77afda711c"  >
<filter id="SVGID_1015" y="-30%" height="160%" x="-33%" width="166%" >
	<feGaussianBlur in="SourceAlpha" stdDeviation="3"></feGaussianBlur>
	<feOffset dx="0" dy="0" result="oBlur" ></feOffset>
	<feFlood flood-color="rgb(0,0,0)" flood-opacity="1"/>
	<feComposite in2="oBlur" operator="in" />
	<feMerge>
		<feMergeNode></feMergeNode>
		<feMergeNode in="SourceGraphic"></feMergeNode>
	</feMerge>
</filter>
		<text xml:space="preserve" font-family="Lato" font-size="51" font-style="normal" font-weight="400" style="stroke: none; stroke-width: 1; stroke-dasharray: none; stroke-linecap: butt; stroke-dashoffset: 0; stroke-linejoin: miter; stroke-miterlimit: 4; fill: rgb(0,204,0); fill-rule: nonzero; opacity: 1; white-space: pre;" ><tspan x="-19.28" y="16.02" >H</tspan></text>
</g>
</svg>