<svg id="Layer_1" enable-background="new 0 0 512 512" height="512" viewBox="0 0 512 512" width="512" xmlns="http://www.w3.org/2000/svg"><g><g><path d="m460.47 440.942c-6.34 7.919-14.69 15.409-24.64 22.279-.01.01-.01.01-.02.02-104.18 71.916-384.28 76.105-384.28-207.259 0-281.044 275.53-279.224 381.68-209.018 11.11 7.359 20.37 15.459 27.26 24.059 0 0-62.96 51.677-94.38 97.974-9-6.33-19.39-11.479-30.55-15.219-61.49-20.669-146.04 1.14-146.04 102.204 0 102.564 87.09 123.503 148.77 101.254 10.12-3.65 19.56-8.459 27.82-14.269 31.42 46.298 94.38 97.975 94.38 97.975z" fill="#eff4f4"/><path d="m460.47 440.942c-6.34 7.919-14.69 15.409-24.64 22.279 0 0-65.86-59.827-97.56-105.984 10.12-3.65 19.56-8.459 27.82-14.269 31.42 46.297 94.38 97.974 94.38 97.974z" fill="#daeaef"/><path d="m460.47 71.023s-62.96 51.677-94.38 97.974c-9-6.33-19.39-11.479-30.55-15.219 42.15-55.077 85.63-95.875 97.67-106.814 11.11 7.36 20.37 15.46 27.26 24.059z" fill="#daeaef"/><path d="m357.82 381.765c-8.69 3.77-17.86 6.81-27.31 9.049h-.01c-7.22 1.71-14.61 2.96-22.06 3.69-29.56 2.92-57.8-2.1-81.66-14.509-43.39-22.569-67.28-66.616-67.28-124.013s23.89-101.444 67.28-124.013c23.86-12.409 52.1-17.429 81.66-14.519 7.75.77 15.43 2.08 22.94 3.91 9.14 2.22 18.02 5.19 26.44 8.84 18.43-22.379 40.37-43.828 57.17-59.237-7.34-4.72-16.13-9.39-26.35-13.669-.01 0-.01 0-.01 0-12.64-5.33-27.48-10.079-44.53-13.669-19.48-4.11-39.17-6.15-58.46-6.15-28.35 0-55.85 4.4-80.59 13.109-36.79 12.939-65.91 34.758-86.56 64.846-24.52 35.728-36.96 83.015-36.96 140.552s12.44 104.824 36.96 140.552c20.65 30.088 49.77 51.907 86.56 64.846 41.58 14.629 90.96 17.099 139.05 6.96 16.47-3.47 30.88-8.02 43.24-13.119 10.78-4.44 20-9.299 27.65-14.219-16.8-15.409-38.74-36.858-57.17-59.237z" fill="#ff83dc"/><g fill="#ff60cf"><path d="m414.99 441.002c-7.65 4.92-16.87 9.779-27.65 14.219-28.6-23.129-47.76-50.057-56.83-64.406 9.45-2.24 18.62-5.28 27.31-9.049 18.43 22.378 40.37 43.827 57.17 59.236z"/><path d="m414.99 70.963c-16.8 15.409-38.74 36.858-57.17 59.237-8.42-3.65-17.3-6.62-26.44-8.84 9.54-14.859 28.83-41.418 57.25-64.066h.01c10.22 4.279 19.01 8.949 26.35 13.669z"/></g></g><g><path d="m86.074 110.245c1.251.8 2.65 1.182 4.033 1.182 2.473 0 4.895-1.223 6.326-3.461 47.992-75.053 129.315-90.204 173.52-92.555 37.342-1.985 76.838 3.341 111.201 14.999 29.537 10.021 53.572 24.001 68.637 39.799-3.979 3.403-9.737 8.417-16.598 14.645-3.066 2.785-3.295 7.527-.511 10.594 2.785 3.067 7.528 3.295 10.595.511 12.76-11.586 21.856-19.066 21.947-19.141 3.174-2.605 3.662-7.279 1.096-10.484-33.996-42.453-116.92-70.173-197.164-65.901-81.287 4.323-147.115 39.643-185.36 99.453-2.232 3.49-1.211 8.128 2.278 10.359z"/><path d="m407.953 108.833c-18.229 18.175-32.937 34.931-43.822 49.916-33.722-20.636-79.07-25.549-115.266-11.988-22.576 8.46-51.779 27.873-62.689 72.315-.988 4.023 1.473 8.084 5.496 9.071.601.147 1.202.218 1.794.218 3.373 0 6.438-2.292 7.278-5.714 9.35-38.086 34.192-54.654 53.385-61.846 33.525-12.562 77.791-6.67 107.647 14.329 1.644 1.157 3.686 1.603 5.663 1.243 1.979-.362 3.729-1.503 4.857-3.167 10.644-15.686 26.203-33.773 46.248-53.758 2.933-2.925 2.939-7.673.015-10.606-2.924-2.932-7.673-2.937-10.606-.013z"/><path d="m465.224 435.146c-.621-.51-62.47-51.504-92.928-96.393-1.129-1.664-2.879-2.805-4.857-3.167-1.978-.359-4.02.087-5.663 1.243-15.666 11.018-35.903 18.236-56.982 20.323-22.289 2.205-43.265-1.401-60.659-10.432-30.837-16.011-47.137-47.387-47.137-90.738 0-4.142-3.358-7.5-7.5-7.5s-7.5 3.358-7.5 7.5c0 25.593 5.225 47.76 15.528 65.884 9.396 16.527 22.751 29.367 39.697 38.165 37.107 19.265 89.248 16.186 126.906-6.818 26.859 36.99 69.92 75.115 85.655 88.547-20.535 21.524-57.556 39.448-100.977 48.617-52.018 10.983-105.666 8.255-151.063-7.679-41.421-14.539-74.308-39.209-97.748-73.326-27.18-39.56-40.962-91.168-40.962-153.39 0-45.129 7.31-84.957 21.725-118.379 1.641-3.803-.113-8.216-3.917-9.856-3.8-1.639-8.216.113-9.857 3.916-15.229 35.309-22.952 77.136-22.952 124.319 0 65.311 14.668 119.777 43.598 161.884 25.28 36.795 60.656 63.369 105.144 78.985 28.666 10.061 60.386 15.149 92.945 15.149 21.908 0 44.199-2.304 66.186-6.947 50.362-10.634 93.134-32.848 114.414-59.423 2.566-3.205 2.078-7.878-1.096-10.484z"/><path d="m422.461 70.323c-.199-2.317-1.462-4.411-3.418-5.668-13.624-8.753-37.417-20.781-73.397-28.369-19.844-4.185-40.032-6.307-60.006-6.307-29.609 0-57.562 4.552-83.08 13.528-38.317 13.48-68.683 36.25-90.256 67.68-25.394 36.996-38.27 85.712-38.27 144.795 0 59.082 12.875 107.798 38.27 144.794 5.115 7.454 10.813 14.521 16.934 21.006 2.843 3.013 7.589 3.149 10.602.306 3.012-2.843 3.149-7.589.306-10.601-5.59-5.923-10.796-12.381-15.475-19.198-23.647-34.452-35.637-80.312-35.637-136.307s11.99-101.856 35.637-136.307c19.734-28.751 47.615-49.617 82.867-62.018 23.915-8.413 50.192-12.678 78.102-12.678 18.936 0 38.082 2.013 56.91 5.984 27.214 5.739 46.83 14.079 59.995 21.327-14.001 13.179-31.444 30.568-46.954 48.88-14.666-5.772-30.596-9.616-46.417-11.177-31.008-3.059-60.7 2.24-85.856 15.327-45.991 23.926-71.319 70.33-71.319 130.664s25.328 106.738 71.319 130.664c25.158 13.088 54.848 18.389 85.857 15.327 15.819-1.561 31.75-5.405 46.417-11.178 15.511 18.313 32.953 35.702 46.954 48.88-13.166 7.248-32.782 15.588-59.995 21.327-46.76 9.86-94.708 7.483-135.012-6.694-15.406-5.42-29.566-12.54-42.089-21.162-3.412-2.349-8.082-1.488-10.431 1.923s-1.488 8.082 1.924 10.431c13.614 9.374 28.962 17.098 45.618 22.957 25.537 8.983 53.891 13.525 83.097 13.524 19.812 0 40.018-2.091 59.988-6.303 35.979-7.587 59.772-19.615 73.397-28.368 1.956-1.257 3.219-3.351 3.418-5.668s-.688-4.595-2.402-6.168c-15.482-14.204-37.845-35.88-56.453-58.481-2.126-2.582-5.705-3.446-8.777-2.112-14.65 6.361-30.946 10.568-47.127 12.164-28.109 2.775-54.893-1.965-77.461-13.706-40.782-21.216-63.242-62.894-63.242-117.358s22.46-96.142 63.242-117.358c22.566-11.741 49.35-16.478 77.461-13.706 16.182 1.597 32.479 5.803 47.127 12.164 3.07 1.333 6.65.471 8.777-2.112 18.606-22.598 40.97-44.275 56.453-58.481 1.713-1.572 2.601-3.85 2.402-6.167z"/></g></g></svg>