<svg id="Capa_1" enable-background="new 0 0 512 512" height="512" viewBox="0 0 512 512" width="512" xmlns="http://www.w3.org/2000/svg"><g><g><path d="m504.5 259.616c-4.143 0-7.5 3.358-7.5 7.5v217.181c0 7.004-5.698 12.703-12.703 12.703h-456.594c-7.005 0-12.703-5.699-12.703-12.703v-91.52c0-4.142-3.357-7.5-7.5-7.5s-7.5 3.358-7.5 7.5v91.52c0 15.275 12.428 27.703 27.703 27.703h456.594c15.275 0 27.703-12.428 27.703-27.703v-217.181c0-4.142-3.357-7.5-7.5-7.5z"/><path d="m484.3 42.43h-34.93v-14.727c0-15.275-12.428-27.703-27.703-27.703s-27.703 12.428-27.703 27.703v14.727h-27.428v-14.727c0-15.275-12.428-27.703-27.703-27.703s-27.703 12.428-27.703 27.703v14.727h-27.427v-14.727c0-15.275-12.428-27.703-27.703-27.703s-27.703 12.428-27.703 27.703v14.727h-27.427v-14.727c0-15.275-12.428-27.703-27.703-27.703s-27.703 12.428-27.703 27.703v14.727h-27.428v-14.727c0-15.275-12.428-27.703-27.703-27.703s-27.703 12.428-27.703 27.703v14.727h-34.93c-15.274 0-27.7 12.426-27.7 27.7v287.513c0 4.142 3.357 7.5 7.5 7.5s7.5-3.358 7.5-7.5v-219.403h96.259c4.143 0 7.5-3.358 7.5-7.5s-3.357-7.5-7.5-7.5h-96.259v-53.11c0-7.002 5.697-12.7 12.7-12.7h34.93v14.72c0 15.275 12.428 27.703 27.703 27.703s27.703-12.428 27.703-27.703v-14.72h27.428v14.72c0 15.275 12.428 27.703 27.703 27.703s27.703-12.427 27.703-27.703v-14.72h27.427v14.72c0 15.275 12.428 27.703 27.703 27.703s27.703-12.428 27.703-27.703v-14.72h27.427v14.72c0 15.275 12.428 27.703 27.703 27.703s27.703-12.428 27.703-27.703v-14.72h27.428v14.72c0 15.275 12.428 27.703 27.703 27.703s27.703-12.427 27.703-27.703v-14.72h34.93c7.003 0 12.7 5.697 12.7 12.7v53.11h-350.674c-4.143 0-7.5 3.358-7.5 7.5s3.357 7.5 7.5 7.5h350.674v93.831c0 4.142 3.357 7.5 7.5 7.5s7.5-3.358 7.5-7.5v-161.941c0-15.274-12.426-27.7-27.7-27.7zm-381.264 29.72c0 7.004-5.698 12.703-12.703 12.703s-12.703-5.698-12.703-12.703v-44.447c0-7.004 5.698-12.703 12.703-12.703s12.703 5.699 12.703 12.703zm82.834 0c0 7.004-5.698 12.703-12.703 12.703s-12.703-5.699-12.703-12.703v-44.447c0-7.004 5.698-12.703 12.703-12.703s12.703 5.699 12.703 12.703zm70.13 12.704c-7.005 0-12.703-5.699-12.703-12.703v-22.163c0-.02.003-.039.003-.058s-.003-.038-.003-.058v-22.169c0-7.004 5.698-12.703 12.703-12.703s12.703 5.699 12.703 12.703v22.169c0 .02-.003.039-.003.058s.003.038.003.058v22.162c0 7.005-5.698 12.704-12.703 12.704zm95.536-12.704c0 7.004-5.698 12.703-12.703 12.703s-12.703-5.698-12.703-12.703v-44.447c0-7.004 5.698-12.703 12.703-12.703s12.703 5.699 12.703 12.703zm82.834 0c0 7.004-5.698 12.703-12.703 12.703s-12.703-5.699-12.703-12.703v-44.447c0-7.004 5.698-12.703 12.703-12.703s12.703 5.699 12.703 12.703z"/><path d="m472.175 161.626h-432.35c-4.143 0-7.5 3.358-7.5 7.5s3.357 7.5 7.5 7.5h432.35c4.143 0 7.5-3.358 7.5-7.5s-3.358-7.5-7.5-7.5z"/><path d="m293.805 207.512c0-4.142-3.357-7.5-7.5-7.5h-60.609c-4.143 0-7.5 3.358-7.5 7.5v40.406c0 4.142 3.357 7.5 7.5 7.5h60.609c4.143 0 7.5-3.358 7.5-7.5zm-15 32.906h-45.609v-25.406h45.609z"/><path d="m386.74 207.512c0-4.142-3.357-7.5-7.5-7.5h-60.61c-4.143 0-7.5 3.358-7.5 7.5v40.406c0 4.142 3.357 7.5 7.5 7.5h60.61c4.143 0 7.5-3.358 7.5-7.5zm-15 32.906h-45.61v-25.406h45.61z"/><path d="m479.675 207.512c0-4.142-3.357-7.5-7.5-7.5h-60.609c-4.143 0-7.5 3.358-7.5 7.5v40.406c0 4.142 3.357 7.5 7.5 7.5h60.609c4.143 0 7.5-3.358 7.5-7.5zm-15 32.906h-45.609v-25.406h45.609z"/><path d="m32.325 320.65c0 4.142 3.357 7.5 7.5 7.5h60.609c4.143 0 7.5-3.358 7.5-7.5v-40.406c0-4.142-3.357-7.5-7.5-7.5h-60.609c-4.143 0-7.5 3.358-7.5 7.5zm15-32.906h45.609v25.406h-45.609z"/><path d="m200.87 280.244c0-4.142-3.357-7.5-7.5-7.5h-60.61c-4.143 0-7.5 3.358-7.5 7.5v40.406c0 4.142 3.357 7.5 7.5 7.5h60.61c4.143 0 7.5-3.358 7.5-7.5zm-15 32.906h-45.61v-25.406h45.61z"/><path d="m293.805 280.244c0-4.142-3.357-7.5-7.5-7.5h-60.609c-4.143 0-7.5 3.358-7.5 7.5v40.406c0 4.142 3.357 7.5 7.5 7.5h60.609c4.143 0 7.5-3.358 7.5-7.5zm-15 32.906h-45.609v-25.406h45.609z"/><path d="m386.74 280.244c0-4.142-3.357-7.5-7.5-7.5h-60.61c-4.143 0-7.5 3.358-7.5 7.5v40.406c0 4.142 3.357 7.5 7.5 7.5h60.61c4.143 0 7.5-3.358 7.5-7.5zm-15 32.906h-45.61v-25.406h45.61z"/><path d="m479.675 280.244c0-4.142-3.357-7.5-7.5-7.5h-60.609c-4.143 0-7.5 3.358-7.5 7.5v40.406c0 4.142 3.357 7.5 7.5 7.5h60.609c4.143 0 7.5-3.358 7.5-7.5zm-15 32.906h-45.609v-25.406h45.609z"/><path d="m32.325 393.382c0 4.142 3.357 7.5 7.5 7.5h60.609c4.143 0 7.5-3.358 7.5-7.5v-40.407c0-4.142-3.357-7.5-7.5-7.5h-60.609c-4.143 0-7.5 3.358-7.5 7.5zm15-32.906h45.609v25.407h-45.609z"/><path d="m200.87 352.976c0-4.142-3.357-7.5-7.5-7.5h-60.61c-4.143 0-7.5 3.358-7.5 7.5v40.407c0 4.142 3.357 7.5 7.5 7.5h60.61c4.143 0 7.5-3.358 7.5-7.5zm-15 32.906h-45.61v-25.407h45.61z"/><path d="m293.805 352.976c0-4.142-3.357-7.5-7.5-7.5h-60.609c-4.143 0-7.5 3.358-7.5 7.5v40.407c0 4.142 3.357 7.5 7.5 7.5h60.609c4.143 0 7.5-3.358 7.5-7.5zm-15 32.906h-45.609v-25.407h45.609z"/><path d="m386.74 352.976c0-4.142-3.357-7.5-7.5-7.5h-60.61c-4.143 0-7.5 3.358-7.5 7.5v40.407c0 4.142 3.357 7.5 7.5 7.5h60.61c4.143 0 7.5-3.358 7.5-7.5zm-15 32.906h-45.61v-25.407h45.61z"/><path d="m479.675 352.976c0-4.142-3.357-7.5-7.5-7.5h-60.609c-4.143 0-7.5 3.358-7.5 7.5v40.407c0 4.142 3.357 7.5 7.5 7.5h60.609c4.143 0 7.5-3.358 7.5-7.5zm-15 32.906h-45.609v-25.407h45.609z"/><path d="m32.325 466.114c0 4.142 3.357 7.5 7.5 7.5h60.609c4.143 0 7.5-3.358 7.5-7.5v-40.406c0-4.142-3.357-7.5-7.5-7.5h-60.609c-4.143 0-7.5 3.358-7.5 7.5zm15-32.906h45.609v25.406h-45.609z"/><path d="m193.37 418.208h-60.61c-4.143 0-7.5 3.358-7.5 7.5v40.406c0 4.142 3.357 7.5 7.5 7.5h60.61c4.143 0 7.5-3.358 7.5-7.5v-40.406c0-4.143-3.357-7.5-7.5-7.5zm-7.5 40.406h-45.61v-25.406h45.61z"/><path d="m286.305 418.208h-60.609c-4.143 0-7.5 3.358-7.5 7.5v40.406c0 4.142 3.357 7.5 7.5 7.5h60.609c4.143 0 7.5-3.358 7.5-7.5v-40.406c0-4.143-3.358-7.5-7.5-7.5zm-7.5 40.406h-45.609v-25.406h45.609z"/><path d="m379.24 418.208h-60.61c-4.143 0-7.5 3.358-7.5 7.5v40.406c0 4.142 3.357 7.5 7.5 7.5h60.61c4.143 0 7.5-3.358 7.5-7.5v-40.406c0-4.143-3.357-7.5-7.5-7.5zm-7.5 40.406h-45.61v-25.406h45.61z"/><path d="m472.175 418.208h-60.609c-4.143 0-7.5 3.358-7.5 7.5v40.406c0 4.142 3.357 7.5 7.5 7.5h60.609c4.143 0 7.5-3.358 7.5-7.5v-40.406c0-4.143-3.358-7.5-7.5-7.5zm-7.5 40.406h-45.609v-25.406h45.609z"/></g></g></svg>