<svg id="Capa_1" enable-background="new 0 0 512 512" height="512" viewBox="0 0 512 512" width="512" xmlns="http://www.w3.org/2000/svg"><g><g><g><g><path d="m420.671 512h-329.342c-14.092 0-24.699-12.832-22.048-26.673l19.759-103.129c5.577-29.111 26.587-52.862 54.799-61.95l112.161-36.132 112.161 36.132c28.212 9.088 49.222 32.84 54.799 61.95l19.759 103.129c2.651 13.841-7.956 26.673-22.048 26.673z" fill="#fff7c7"/><path d="m420.672 512h-329.344c-14.087 0-24.693-12.829-22.045-26.669l13.795-72.026c27.219 52.126 81.78 87.707 144.647 87.707 90.064 0 163.078-73.014 163.078-163.078 0-2.11-.045-4.209-.123-6.297 16.578 11.92 28.319 29.89 32.281 50.565l19.755 103.129c2.649 13.84-7.958 26.669-22.044 26.669z" fill="#fff370"/><path d="m223.893 246.121h64.214v60.498h-64.214z" fill="#fff7c7"/><path d="m288.107 246.121v48.582c-9.91 4.03-20.751 6.247-32.107 6.247s-22.197-2.218-32.107-6.247v-48.582z" fill="#fff370"/><g><path d="m196.301 19.438c-29.922 0-54.517 24.052-54.669 53.973-.001.197-.002.395-.002.592v91.24h228.74v-91.24c0-.198 0-.395-.001-.592-.152-29.921-24.748-53.973-54.669-53.973z" fill="#db765a"/><path d="m370.369 73.414v91.829h-72.918c36.944-17.252 62.532-54.726 62.532-98.187 0-10.535-1.499-20.721-4.308-30.347 9.047 9.617 14.615 22.501 14.694 36.705z" fill="#b55434"/><path d="m125.846 165.274c0 14.417 11.687 26.104 26.104 26.104 3.058 0 5.991-.531 8.718-1.497 3.831 49.319 45.029 88.149 95.332 88.149s91.501-38.83 95.332-88.149c2.727.966 5.66 1.497 8.718 1.497 14.417 0 26.104-11.687 26.104-26.104 0-14.417-11.687-26.104-26.104-26.104-3.058 0-5.991.531-8.718 1.497-3.831-49.32-45.029-88.15-95.332-88.15s-91.501 38.83-95.332 88.149c-2.727-.966-5.66-1.497-8.718-1.497-14.417.001-26.104 11.688-26.104 26.105z" fill="#ffccb7"/><path d="m247.349 205.683c1.441-2.401 3.215-4.813 4.781-6.794 1.972-2.495 5.77-2.495 7.742 0 1.566 1.981 3.34 4.393 4.781 6.794 1.971 3.284-.439 7.463-4.269 7.463h-8.765c-3.832 0-6.241-4.179-4.27-7.463z" fill="#fc708a"/><g fill="#7f392c"><ellipse cx="214.122" cy="175.375" rx="10.525" ry="12.678"/><ellipse cx="297.878" cy="175.375" rx="10.525" ry="12.678"/></g><path d="m239.878 225.574c-3.506 0-5.96 3.569-4.597 6.799 3.408 8.079 11.4 13.749 20.719 13.749s17.311-5.671 20.719-13.749c1.363-3.23-1.092-6.799-4.597-6.799z" fill="#eefdff"/></g></g></g><g><path d="m223.893 272.176-67.739 35.526c-3.291 1.726-5.353 5.136-5.353 8.852v195.446h73.092z" fill="#ffaf40"/><path d="m288.107 272.176 67.739 35.526c3.291 1.726 5.353 5.136 5.353 8.852v195.446h-73.092z" fill="#ffaf40"/><g fill="#ff993a"><path d="m361.203 428.627v83.373h-73.098v-12.155c34.945-9.565 62.663-36.643 73.098-71.218z"/><path d="m223.804 428.627v83.373h-73.098v-12.155c34.945-9.565 62.663-36.643 73.098-71.218z"/></g></g><g fill="#fff7c7"><path d="m346.865 388.578-10.471 1.633c-3.987.622-7.426-2.817-6.804-6.804l1.633-10.471c.284-1.818-1.123-3.461-2.963-3.461h-7.032c-1.84 0-3.246 1.642-2.963 3.461l1.633 10.471c.622 3.987-2.817 7.426-6.804 6.804l-10.471-1.633c-1.818-.284-3.461 1.123-3.461 2.963v7.032c0 1.84 1.642 3.246 3.461 2.963l10.471-1.633c3.987-.622 7.426 2.817 6.804 6.804l-1.633 10.471c-.284 1.818 1.123 3.461 2.963 3.461h7.032c1.84 0 3.246-1.642 2.963-3.461l-1.633-10.471c-.622-3.987 2.817-7.426 6.804-6.804l10.471 1.633c1.818.284 3.461-1.123 3.461-2.963v-7.032c0-1.84-1.642-3.246-3.461-2.963z"/><path d="m209.376 388.578-10.471 1.633c-3.987.622-7.426-2.817-6.804-6.804l1.633-10.471c.284-1.818-1.123-3.461-2.963-3.461h-7.032c-1.84 0-3.246 1.642-2.963 3.461l1.633 10.471c.622 3.987-2.817 7.426-6.804 6.804l-10.471-1.633c-1.818-.284-3.461 1.123-3.461 2.963v7.032c0 1.84 1.642 3.246 3.461 2.963l10.471-1.633c3.987-.622 7.426 2.817 6.804 6.804l-1.633 10.471c-.284 1.818 1.123 3.461 2.963 3.461h7.032c1.84 0 3.246-1.642 2.963-3.461l-1.633-10.471c-.622-3.987 2.817-7.426 6.804-6.804l10.471 1.633c1.818.284 3.461-1.123 3.461-2.963v-7.032c0-1.84-1.643-3.246-3.461-2.963z"/></g><g fill="#fff370"><g><circle cx="169.435" cy="350.529" r="6.596"/><circle cx="169.435" cy="325.937" r="6.596"/></g><g><circle cx="342.565" cy="350.529" r="6.596"/><circle cx="342.565" cy="325.937" r="6.596"/></g></g><g fill="#fff370"><g><circle cx="169.435" cy="464.177" r="6.596"/><circle cx="169.435" cy="439.585" r="6.596"/></g><g><circle cx="342.565" cy="464.177" r="6.596"/><circle cx="342.565" cy="439.585" r="6.596"/></g></g><ellipse cx="255.999" cy="38.576" fill="#db765a" rx="75.832" ry="38.576"/><path d="m209.268 36.079c5.959-3.988 17.534-8.77 34.094-10.459 6.391-.652 11.286-5.97 11.286-12.394v-.063c0-7.37-6.373-13.146-13.705-12.394-18.475 1.893-34.517 7.202-45.471 14.576-10.17 6.847-5.252 22.749 7.007 22.749 2.411-.001 4.785-.674 6.789-2.015z" fill="#f4a698"/><circle cx="171.228" cy="41.112" fill="#f4a698" r="13.277"/><g><path d="m205.772 439.152v72.848h-9.666v-72.848c0-2.669 2.159-4.828 4.828-4.828 1.329 0 2.549.54 3.419 1.409.879.88 1.419 2.08 1.419 3.419z" fill="#fff7c7"/><path d="m205.772 463.232v48.768h-9.666v-38.053c3.459-3.349 6.698-6.927 9.666-10.715z" fill="#fff370"/><path d="m315.893 439.152v72.848h-9.666v-72.848c0-2.669 2.169-4.828 4.838-4.828 1.329 0 2.539.54 3.418 1.409.871.88 1.41 2.08 1.41 3.419z" fill="#fff7c7"/><path d="m315.893 487.691v24.309h-9.666v-18.972c3.319-1.609 6.548-3.398 9.666-5.337z" fill="#fff370"/></g></g><path d="m300.84 350.192c7.032 0 12.733-5.701 12.733-12.733v-51.881l-25.466-13.402v65.283c0 7.032 5.701 12.733 12.733 12.733z" fill="#ffc751"/></g></svg>