<?xml version="1.0" encoding="iso-8859-1"?>
<!-- Generator: Adobe Illustrator 19.0.0, SVG Export Plug-In . SVG Version: 6.00 Build 0)  -->
<svg version="1.1" id="Capa_1" xmlns="http://www.w3.org/2000/svg" xmlns:xlink="http://www.w3.org/1999/xlink" x="0px" y="0px"
	 viewBox="0 0 491.363 491.363" style="enable-background:new 0 0 491.363 491.363;" xml:space="preserve">
<path style="fill:#F4B844;" d="M376.424,114.808v54.857h-1.567c0,19.331-51.722,34.482-113.371,34.482
	c-23.51,0.522-47.543-2.09-70.531-7.837v1.567c-11.494-9.926-24.555-17.241-38.661-21.943v-1.045l-1.567-57.992
	c4.18,17.763,52.245,31.869,111.282,31.869s112.849-15.151,112.849-33.959L376.424,114.808L376.424,114.808z"/>
<path style="fill:#FEDB41;" d="M263.053,80.849c62.171,0,113.894,15.673,113.894,34.482s-52.245,33.959-113.894,33.959
	s-107.625-14.106-111.804-31.869v-2.09C150.726,96.522,200.882,80.849,263.053,80.849z"/>
<path style="fill:#E2A63B;" d="M272.457,326.4v43.886h-10.449c-22.988,0.522-45.976-2.09-68.441-7.314L192,361.404
	c14.629-13.061,25.078-29.78,31.347-48.065h2.612c10.971,1.045,22.988,1.567,35.004,1.567h10.971L272.457,326.4z"/>
<path style="fill:#F4B844;" d="M262.53,257.437l5.224,2.612c-0.522,1.045-0.522,2.09-0.522,3.135c0,1.567,0.522,3.135,1.045,4.702
	v49.11h-5.747c-13.061,0-26.122-0.522-37.616-1.567h-2.612c3.657-11.494,5.224-23.51,5.224-35.526c0-7.837-1.045-15.673-2.09-23.51
	h2.612C239.543,257.437,251.037,257.437,262.53,257.437z"/>
<g>
	<path style="fill:#E2A63B;" d="M190.955,196.31c22.988,5.747,47.02,8.359,70.531,7.837c61.649,0,113.371-15.151,113.371-34.482
		h1.567v61.649c-57.469,0-104.49,13.584-110.237,30.824l-4.702-2.612c-10.971,0-21.42-0.522-32.392-1.567h-2.612
		c-5.224-23.51-17.763-44.931-36.049-60.604L190.955,196.31z"/>
	<path style="fill:#E2A63B;" d="M491.363,320.653v55.38c0,18.808-50.678,34.482-112.327,34.482s-110.759-15.151-110.759-33.959
		V326.4c8.359,16.196,53.812,28.735,108.669,28.735s112.849-15.673,112.849-34.482H491.363z"/>
</g>
<path style="fill:#F4B844;" d="M491.363,266.318v54.335h-1.567c0,18.808-51.2,34.482-112.849,34.482s-100.31-12.539-109.714-28.735
	v-56.947c6.792,17.241,53.812,30.302,110.237,30.302s111.282-15.151,112.849-33.437H491.363z"/>
<g>
	<path style="fill:#FEDB41;" d="M265.665,269.453c-0.522-1.567-1.045-2.612-1.045-4.18c0-1.045,0-2.09,0.522-3.135
		c5.747-17.241,53.29-31.347,111.282-31.347h0.522c62.171,0,114.416,15.151,114.416,34.482v1.045
		c-1.567,18.286-53.29,33.959-114.416,33.959S272.457,286.694,265.665,269.453z"/>
	<path style="fill:#FEDB41;" d="M229.094,257.959c1.045,7.314,2.09,15.151,2.09,22.465c0,11.494-1.567,22.988-4.702,33.437
		c-6.269,18.808-17.241,36.049-31.869,49.11c-20.375,18.808-47.02,29.257-74.71,29.257C58.253,396.408,4.441,349.91,0.261,287.739
		c-4.18-61.649,42.318-115.461,104.49-119.641c5.224-0.522,10.449-0.522,15.673,0c10.971,0,22.465,1.567,32.914,4.702
		c14.629,4.702,28.212,12.539,39.706,22.465C210.808,211.984,223.869,233.926,229.094,257.959z"/>
</g>
<circle style="fill:#F4B844;" cx="115.2" cy="280.424" r="55.902"/>
<g>
</g>
<g>
</g>
<g>
</g>
<g>
</g>
<g>
</g>
<g>
</g>
<g>
</g>
<g>
</g>
<g>
</g>
<g>
</g>
<g>
</g>
<g>
</g>
<g>
</g>
<g>
</g>
<g>
</g>
</svg>
