<?xml version="1.0" encoding="iso-8859-1"?>
<!-- Generator: Adobe Illustrator 19.0.0, SVG Export Plug-In . SVG Version: 6.00 Build 0)  -->
<svg version="1.1" id="Layer_1" xmlns="http://www.w3.org/2000/svg" xmlns:xlink="http://www.w3.org/1999/xlink" x="0px" y="0px"
	 viewBox="0 0 437.959 437.959" style="enable-background:new 0 0 437.959 437.959;" xml:space="preserve">
<g>
	<path style="fill:#1EA6C6;" d="M140.935,139.566c-9.729-11.558-15.087-26.252-15.087-41.376c0-35.444,28.836-64.28,64.279-64.28
		c35.444,0,64.28,28.836,64.28,64.28c0,14.705-5.099,29.086-14.357,40.494l-10.094-8.192c7.491-9.231,11.451-20.402,11.451-32.302
		c0-28.276-23.004-51.28-51.28-51.28c-28.275,0-51.279,23.004-51.279,51.28c0,12.065,4.273,23.786,12.032,33.004L140.935,139.566z"
		/>
	<path style="fill:#1EA6C6;" d="M142.767,184.201c-31.347-17.297-50.819-50.254-50.819-86.011c0-54.142,44.043-98.19,98.18-98.19
		c54.143,0,98.19,44.048,98.19,98.19c0,26.188-10.192,50.821-28.699,69.362l-9.201-9.184c16.058-16.087,24.9-37.458,24.9-60.178
		c0-46.974-38.216-85.19-85.19-85.19c-46.968,0-85.18,38.216-85.18,85.19c0,31.023,16.898,59.619,44.101,74.629L142.767,184.201z"/>
	<g>
		<path style="fill:#FCD09F;" d="M346.012,230.589v131.22c0,5.32-0.38,10.64-1.13,15.89c-0.76,5.26-1.88,10.46-3.37,15.57
			c-2.13,7.26-3.73,14.65-4.79,22.12c-1.07,7.46-1.61,15-1.61,22.57h-154.45v-23.76c0-3.84-1.1-7.5-3.09-10.61
			c-1.97-3.11-4.82-5.68-8.29-7.31c-3.35-1.58-7.71-4.28-11.78-6.98c-7.57-5.03-13.61-12.06-17.47-20.29l-25.94-55.34
			c-4.44-9.46-2.93-20.65,3.86-28.6l8.85-10.37c5.14-6.01,7.46-13.94,6.4-21.77c-0.13-0.93-0.2-1.86-0.2-2.77
			c0-10.99,8.93-20.2,20.25-20.2c1.01,0,2.01,0.04,3,0.14c3.78,0.32,7.39,1.28,10.71,2.76V98.419c0-6.4,2.59-12.18,6.79-16.38
			c4.19-4.18,9.98-6.77,16.38-6.77c12.78,0,23.15,10.36,23.15,23.15v105.77c0-6.4,2.59-12.18,6.78-16.38
			c4.2-4.19,9.98-6.78,16.38-6.78c12.79,0,23.15,10.37,23.15,23.16v15.97c0-6.39,2.59-12.18,6.78-16.37s9.99-6.78,16.38-6.78
			c12.79,0,23.16,10.36,23.16,23.15v10.88c0-11.02,8.71-20.32,19.73-20.5c5.67-0.09,10.8,2.18,14.5,5.87
			C343.762,220.039,346.012,225.059,346.012,230.589z"/>
		<path style="fill:#E2B991;" d="M166.962,232.859v72.41c-2.96,0-5.64-1.2-7.57-3.13c-1.94-1.94-3.14-4.62-3.14-7.58v-64.46
			C160.032,230.419,163.642,231.379,166.962,232.859z"/>
	</g>
</g>
<g>
</g>
<g>
</g>
<g>
</g>
<g>
</g>
<g>
</g>
<g>
</g>
<g>
</g>
<g>
</g>
<g>
</g>
<g>
</g>
<g>
</g>
<g>
</g>
<g>
</g>
<g>
</g>
<g>
</g>
</svg>
