<svg id="Capa_1" enable-background="new 0 0 512 512" height="512" viewBox="0 0 512 512" width="512" xmlns="http://www.w3.org/2000/svg"><g><path d="m464.527 428.953 14.656-47.472-40.423-40.424-62.129 62.129 40.423 40.423z" fill="#e7889d"/><path d="m417.054 443.609 21.536 21.536c15.041 15.041 39.428 15.041 54.469 0l7.659-7.659c15.041-15.041 15.041-39.428 0-54.469l-21.536-21.536z" fill="#e7c7af"/><g fill="#a3defe"><path d="m58.391 326.208 91.827 91.827c7.659 7.659 20.076 7.659 27.734 0l14.373-14.373c7.659-7.659 7.659-20.076 0-27.734l-91.827-91.827c-7.659-7.659-20.076-7.659-27.734 0l-14.373 14.373c-7.658 7.659-7.658 20.076 0 27.734z"/><path d="m73.241 341.057 62.128 62.128-61.959 61.96c-15.041 15.041-39.428 15.041-54.469 0l-7.659-7.659c-15.041-15.041-15.041-39.428 0-54.469z"/><path d="m94.946 443.609-21.536 21.536c-15.041 15.041-39.428 15.041-54.469 0l-7.659-7.659c-15.041-15.041-15.041-39.428 0-54.469l21.536-21.536z"/><path d="m254.3 132.381 62.583-6.101c19.089-1.861 35.124 14.175 33.264 33.264l-6.101 62.583c-2.665 27.342-18.539 51.65-42.502 65.085l-126.83 71.106-56.603-56.603 71.105-126.83c13.434-23.965 37.742-39.839 65.084-42.504z"/></g><path d="m150.218 418.035-91.827-91.827c-7.659-7.659-7.659-20.076 0-27.734l14.373-14.373c7.659-7.659 20.076-7.659 27.734 0l91.827 91.827c7.659 7.659 7.659 20.076 0 27.734l-14.373 14.373c-7.658 7.659-20.075 7.659-27.734 0z" fill="#f2d98d"/><path d="m32.817 381.481 14.656 47.472 47.473 14.656 40.423-40.423-62.128-62.129z" fill="#e7889d"/><path d="m32.817 381.481-21.536 21.536c-15.041 15.041-15.041 39.428 0 54.469l7.659 7.659c15.041 15.041 39.428 15.041 54.469 0l21.536-21.536z" fill="#e7c7af"/><path d="m344.046 222.126 6.101-62.583c1.861-19.089-14.175-35.124-33.264-33.264l-62.583 6.101c-27.342 2.665-51.65 18.54-65.085 42.502l-71.105 126.83 56.603 56.603 126.83-71.106c23.963-13.433 39.837-37.741 42.503-65.083z" fill="#a3defe"/><path d="m350.147 159.543c1.861-19.089-14.175-35.125-33.264-33.264l-62.583 6.101c-27.342 2.665-51.65 18.539-65.085 42.502l-44.954 80.184c9.495 24.767 27.407 45.83 51.081 59.102l29.058 16.291 77.142-43.249c23.963-13.434 39.837-37.743 42.502-65.085z" fill="#7acefa"/><g><path d="m115.156 196.532c-1.92 0-3.839-.732-5.303-2.197l-34.674-34.674c-2.929-2.929-2.929-7.678 0-10.606 2.929-2.929 7.678-2.929 10.606 0l34.674 34.674c2.929 2.929 2.929 7.678 0 10.606-1.464 1.465-3.384 2.197-5.303 2.197z" fill="#b2ecde"/><path d="m396.844 196.532c-1.919 0-3.839-.732-5.303-2.197-2.929-2.929-2.929-7.678 0-10.606l34.674-34.674c2.929-2.929 7.678-2.929 10.607 0s2.929 7.678 0 10.606l-34.674 34.674c-1.465 1.465-3.384 2.197-5.304 2.197z" fill="#b0ade2"/><path d="m256 96.984c-4.142 0-7.5-3.358-7.5-7.5v-46.41c0-4.142 3.358-7.5 7.5-7.5s7.5 3.358 7.5 7.5v46.411c0 4.142-3.358 7.499-7.5 7.499z" fill="#e7889d"/></g><path d="m257.7 132.381-62.583-6.101c-19.089-1.861-35.124 14.175-33.264 33.264l6.101 62.583c2.665 27.342 18.54 51.65 42.502 65.085l126.831 71.106 56.603-56.603-71.105-126.83c-13.435-23.965-37.743-39.839-65.085-42.504z" fill="#a3defe"/><path d="m308.169 280.095c-1.919 0-3.839-.732-5.303-2.197l-78.053-78.053c-2.929-2.929-2.929-7.678 0-10.606 2.929-2.929 7.678-2.929 10.606 0l78.053 78.053c2.929 2.929 2.929 7.678 0 10.606-1.464 1.465-3.384 2.197-5.303 2.197z" fill="#7acefa"/><path d="m309.281 342.615 28.006 15.701 56.603-56.603-15.701-28.006z" fill="#7acefa"/><path d="m453.609 326.208-91.827 91.827c-7.659 7.659-20.076 7.659-27.734 0l-14.373-14.373c-7.659-7.659-7.659-20.076 0-27.734l91.827-91.827c7.659-7.659 20.076-7.659 27.734 0l14.373 14.373c7.658 7.659 7.658 20.076 0 27.734z" fill="#f2d98d"/><path d="m369.99 325.613-50.315 50.315c-7.659 7.659-7.659 20.076 0 27.734l14.373 14.372c7.659 7.659 20.076 7.659 27.734 0l30.206-30.206c-11.473-10.717-23.617-38.617-21.998-62.215z" fill="#eec076"/><path d="m130.633 314.236-30.135-30.135c-7.659-7.659-20.076-7.659-27.734 0l-14.373 14.373c-7.659 7.659-7.659 20.076 0 27.734l66.794 66.794c-13.819-24.506-7.584-63.263 5.448-78.766z" fill="#eec076"/></g></svg>