<?xml version="1.0" encoding="UTF-8" standalone="no" ?>
<!DOCTYPE svg PUBLIC "-//W3C//DTD SVG 1.1//EN" "http://www.w3.org/Graphics/SVG/1.1/DTD/svg11.dtd">
<svg xmlns="http://www.w3.org/2000/svg" xmlns:xlink="http://www.w3.org/1999/xlink" version="1.1" width="720" height="720" viewBox="0 0 720 720" xml:space="preserve">
<desc>Created with Fabric.js 4.2.0</desc>
<defs>
</defs>
<rect x="0" y="0" width="100%" height="100%" fill="transparent"></rect>
<g transform="matrix(1 0 0 1 360 360)" id="088ff5e9-cec8-4b99-9d85-4d7f1d684ffe"  >
<rect style="stroke: none; stroke-width: 1; stroke-dasharray: none; stroke-linecap: butt; stroke-dashoffset: 0; stroke-linejoin: miter; stroke-miterlimit: 4; fill: rgb(255,255,255); fill-opacity: 0; fill-rule: nonzero; opacity: 1;" vector-effect="non-scaling-stroke"  x="-360" y="-360" rx="0" ry="0" width="720" height="720" />
</g>
<g transform="matrix(0 0 0 0 0 0)" id="10e72e25-f349-42f5-adff-9246252ebd1e"  >
</g>
<g transform="matrix(1.36 0 0 1.36 359.34 363.52)"  >
<g style="" vector-effect="non-scaling-stroke"   >
		<g transform="matrix(1.03 0 0 1.03 -145.29 -79.26)"  >
<path style="stroke: none; stroke-width: 1; stroke-dasharray: none; stroke-linecap: butt; stroke-dashoffset: 0; stroke-linejoin: miter; stroke-miterlimit: 4; fill: rgb(170,221,182); fill-rule: nonzero; opacity: 1;" vector-effect="non-scaling-stroke"  transform=" translate(-107.46, -171.56)" d="M 179.401 181.561 C 179.401 181.561 191.51500000000001 128.851 139.28300000000002 123.66300000000001 C 98.10000000000002 119.57200000000002 55.28500000000001 141.839 35.762000000000015 172.508 C 33.03800000000001 176.788 34.246000000000016 182.47 38.51000000000001 185.221 C 65.14200000000001 202.404 158.012 255.89800000000002 179.401 181.561 z" stroke-linecap="round" />
</g>
		<g transform="matrix(1.03 0 0 1.03 -104.21 -79.26)"  >
<path style="stroke: none; stroke-width: 1; stroke-dasharray: none; stroke-linecap: butt; stroke-dashoffset: 0; stroke-linejoin: miter; stroke-miterlimit: 4; fill: rgb(148,212,162); fill-rule: nonzero; opacity: 1;" vector-effect="non-scaling-stroke"  transform=" translate(-147.35, -171.56)" d="M 139.283 123.662 C 130.878 122.82700000000001 122.40599999999999 123.09200000000001 114.07699999999998 124.30000000000001 C 160.754 132.15400000000002 149.40099999999998 181.56 149.40099999999998 181.56 C 142.969 203.913 130.07299999999998 214.70600000000002 114.45899999999997 218.405 C 142.41999999999996 223.463 169.13799999999998 217.227 179.40099999999995 181.56 C 179.40099999999995 181.561 191.51499999999996 128.85 139.28299999999996 123.662 z" stroke-linecap="round" />
</g>
		<g transform="matrix(1.03 0 0 1.03 146 -136.76)"  >
<path style="stroke: none; stroke-width: 1; stroke-dasharray: none; stroke-linecap: butt; stroke-dashoffset: 0; stroke-linejoin: miter; stroke-miterlimit: 4; fill: rgb(170,221,182); fill-rule: nonzero; opacity: 1;" vector-effect="non-scaling-stroke"  transform=" translate(-390.22, -115.74)" d="M 317.939 121.994 C 317.939 121.994 309.862 68.51599999999999 362.33700000000005 67.30799999999999 C 403.71200000000005 66.356 444.7130000000001 91.809 461.85 123.87199999999999 C 464.242 128.34699999999998 462.605 133.921 458.14500000000004 136.33999999999997 C 430.28600000000006 151.45199999999997 333.62200000000007 197.74099999999999 317.9390000000001 121.99399999999997 z" stroke-linecap="round" />
</g>
		<g transform="matrix(1.03 0 0 1.03 50.07 -46.93)"  >
<path style="stroke: none; stroke-width: 1; stroke-dasharray: none; stroke-linecap: butt; stroke-dashoffset: 0; stroke-linejoin: miter; stroke-miterlimit: 4; fill: rgb(104,183,106); fill-rule: nonzero; opacity: 1;" vector-effect="non-scaling-stroke"  transform=" translate(-297.11, -202.94)" d="M 367.443 105.18 C 368.99699999999996 105.42 369.197 107.58200000000001 367.71299999999997 108.10100000000001 C 352.80899999999997 113.31700000000001 312.42999999999995 131.21800000000002 287.05699999999996 178.411 C 259.36299999999994 229.921 256.58599999999996 288.497 256.30899999999997 300.394 C 256.284 301.447 255.21799999999996 302.145 254.23999999999998 301.755 L 226.439 290.668 C 225.85899999999998 290.437 225.481 289.88 225.488 289.25600000000003 C 225.593 280.17100000000005 227.358 212.91500000000002 256.322 163.73000000000002 C 285.799 113.67800000000003 330.874 99.53600000000002 367.443 105.18000000000002 z" stroke-linecap="round" />
</g>
		<g transform="matrix(1.03 0 0 1.03 -55.49 10.31)"  >
<path style="stroke: none; stroke-width: 1; stroke-dasharray: none; stroke-linecap: butt; stroke-dashoffset: 0; stroke-linejoin: miter; stroke-miterlimit: 4; fill: rgb(109,193,125); fill-rule: nonzero; opacity: 1;" vector-effect="non-scaling-stroke"  transform=" translate(-194.64, -258.51)" d="M 131.316 161.036 C 129.749 161.157 129.385 163.298 130.825 163.928 C 145.289 170.261 184.19299999999998 191.175 205.90999999999997 240.159 C 229.88199999999998 294.231 228.61799999999997 343.572 228.15199999999996 352.581 C 228.10999999999996 353.399 228.72899999999996 354.095 229.54599999999996 354.15700000000004 L 257.29499999999996 356.27000000000004 C 258.13499999999993 356.33400000000006 258.86499999999995 355.70400000000006 258.91599999999994 354.86300000000006 C 259.57199999999995 344.08200000000005 262.40299999999996 278.2510000000001 237.66999999999993 227.85400000000004 C 212.07999999999993 175.70900000000003 168.2079999999999 158.18600000000004 131.31599999999992 161.03600000000006 z" stroke-linecap="round" />
</g>
		<g transform="matrix(1.03 0 0 1.03 0 115.52)"  >
<path style="stroke: none; stroke-width: 1; stroke-dasharray: none; stroke-linecap: butt; stroke-dashoffset: 0; stroke-linejoin: miter; stroke-miterlimit: 4; fill: rgb(207,152,117); fill-rule: nonzero; opacity: 1;" vector-effect="non-scaling-stroke"  transform=" translate(-248.5, -360.63)" d="M 487.525 429.717 C 494.138 429.717 498.678 423.13 496.409 416.918 C 489.803 398.83500000000004 472.457 385.926 452.087 385.926 C 442.69 385.926 433.942 388.68399999999997 426.587 393.419 C 417.109 370.868 394.816 355.031 368.82099999999997 355.031 C 358.936 355.031 349.59099999999995 357.329 341.277 361.406 C 330.481 321.171 293.764 291.547 250.12199999999999 291.547 C 204.611 291.547 166.62599999999998 323.76200000000006 157.721 366.63300000000004 C 147.48000000000002 359.33700000000005 134.96 355.03100000000006 121.428 355.03100000000006 C 96.602 355.03100000000006 75.15 369.47600000000006 65.01599999999999 390.41900000000004 C 58.91599999999999 387.54200000000003 52.10399999999999 385.92600000000004 44.91299999999999 385.92600000000004 C 24.54299999999999 385.92600000000004 7.1969999999999885 398.83500000000004 0.5919999999999916 416.91800000000006 C -1.6770000000000085 423.13000000000005 2.8629999999999916 429.71700000000004 9.475999999999992 429.71700000000004 z" stroke-linecap="round" />
</g>
		<g transform="matrix(1.03 0 0 1.03 92.54 115.52)"  >
<path style="stroke: none; stroke-width: 1; stroke-dasharray: none; stroke-linecap: butt; stroke-dashoffset: 0; stroke-linejoin: miter; stroke-miterlimit: 4; fill: rgb(199,134,91); fill-rule: nonzero; opacity: 1;" vector-effect="non-scaling-stroke"  transform=" translate(-338.33, -360.63)" d="M 496.409 416.918 C 489.803 398.836 472.457 385.926 452.087 385.926 C 442.69 385.926 433.942 388.68399999999997 426.587 393.419 C 417.109 370.868 394.816 355.031 368.82099999999997 355.031 C 358.936 355.031 349.59099999999995 357.329 341.277 361.406 C 330.481 321.171 293.764 291.547 250.123 291.547 C 222.10399999999998 291.547 196.951 303.769 179.66699999999997 323.158 C 194.26099999999997 313.90700000000004 211.56499999999997 308.547 230.123 308.547 C 267.98 308.547 300.627 330.83900000000006 315.663 363.011 C 319.333 370.86400000000003 327.949 374.963 336.44800000000004 373.25600000000003 C 340.44700000000006 372.45300000000003 344.58500000000004 372.031 348.821 372.031 C 369.59900000000005 372.031 388.01300000000003 382.15 399.40700000000004 397.72700000000003 C 404.00600000000003 404.01500000000004 412.06500000000005 406.67400000000004 419.576 404.60800000000006 C 423.56 403.51200000000006 427.755 402.92600000000004 432.08700000000005 402.92600000000004 C 450.84000000000003 402.92600000000004 467.02200000000005 413.87100000000004 474.629 429.71700000000004 L 487.52500000000003 429.71700000000004 C 494.13800000000003 429.71700000000004 498.67800000000005 423.129 496.40900000000005 416.91800000000006 z" stroke-linecap="round" />
</g>
		<g transform="matrix(1.03 0 0 1.03 161.07 -147.17)"  >
<path style="stroke: none; stroke-width: 1; stroke-dasharray: none; stroke-linecap: butt; stroke-dashoffset: 0; stroke-linejoin: miter; stroke-miterlimit: 4; fill: rgb(148,212,162); fill-rule: nonzero; opacity: 1;" vector-effect="non-scaling-stroke"  transform=" translate(-404.85, -105.64)" d="M 443.037 143.992 C 449.11499999999995 141.12 454.27599999999995 138.438 458.12699999999995 136.35 C 462.597 133.926 464.24799999999993 128.356 461.85099999999994 123.872 C 444.71299999999997 91.809 403.71199999999993 66.357 362.33799999999997 67.309 C 356.39799999999997 67.446 351.241 68.25699999999999 346.75399999999996 69.58 C 388.04999999999995 76.652 427.80499999999995 108.384 443.037 143.99200000000002 z" stroke-linecap="round" />
</g>
		<g transform="matrix(1.03 0 0 1.03 -139.36 150.95)"  >
<circle style="stroke: none; stroke-width: 1; stroke-dasharray: none; stroke-linecap: butt; stroke-dashoffset: 0; stroke-linejoin: miter; stroke-miterlimit: 4; fill: rgb(194,126,78); fill-rule: nonzero; opacity: 1;" vector-effect="non-scaling-stroke"  cx="0" cy="0" r="7.5" />
</g>
		<g transform="matrix(1.03 0 0 1.03 29.2 105.99)"  >
<circle style="stroke: none; stroke-width: 1; stroke-dasharray: none; stroke-linecap: butt; stroke-dashoffset: 0; stroke-linejoin: miter; stroke-miterlimit: 4; fill: rgb(194,126,78); fill-rule: nonzero; opacity: 1;" vector-effect="non-scaling-stroke"  cx="0" cy="0" r="7.5" />
</g>
		<g transform="matrix(1.03 0 0 1.03 121.03 150.95)"  >
<circle style="stroke: none; stroke-width: 1; stroke-dasharray: none; stroke-linecap: butt; stroke-dashoffset: 0; stroke-linejoin: miter; stroke-miterlimit: 4; fill: rgb(194,126,78); fill-rule: nonzero; opacity: 1;" vector-effect="non-scaling-stroke"  cx="0" cy="0" r="7.5" />
</g>
		<g transform="matrix(1.03 0 0 1.03 -35.03 143.22)"  >
<circle style="stroke: none; stroke-width: 1; stroke-dasharray: none; stroke-linecap: butt; stroke-dashoffset: 0; stroke-linejoin: miter; stroke-miterlimit: 4; fill: rgb(194,126,78); fill-rule: nonzero; opacity: 1;" vector-effect="non-scaling-stroke"  cx="0" cy="0" r="7.5" />
</g>
</g>
</g>
<g transform="matrix(3.61 0 0 3.61 624 600.86)" style="filter: url(#SVGID_1503);" id="f42727bd-bc40-4e3b-832d-5e77afda711c"  >
<filter id="SVGID_1503" y="-46%" height="192%" x="-54%" width="208%" >
	<feGaussianBlur in="SourceAlpha" stdDeviation="7.5"></feGaussianBlur>
	<feOffset dx="0" dy="0" result="oBlur" ></feOffset>
	<feFlood flood-color="rgb(255,255,0)" flood-opacity="1"/>
	<feComposite in2="oBlur" operator="in" />
	<feMerge>
		<feMergeNode></feMergeNode>
		<feMergeNode in="SourceGraphic"></feMergeNode>
	</feMerge>
</filter>
		<rect opacity="0" fill="rgb(0,0,0)" x="-22.39" y="-28.81" width="44.77" height="57.63"></rect>
		<text xml:space="preserve" font-family="Lato" font-size="51" font-style="normal" font-weight="400" style="stroke: none; stroke-width: 1; stroke-dasharray: none; stroke-linecap: butt; stroke-dashoffset: 0; stroke-linejoin: miter; stroke-miterlimit: 4; fill: rgb(85,85,255); fill-rule: nonzero; opacity: 1; white-space: pre;" ><tspan x="-17.47" y="16.02" >C</tspan></text>
</g>
</svg>