<svg id="Layer_1" enable-background="new 0 0 512 512" height="512" viewBox="0 0 512 512" width="512" xmlns="http://www.w3.org/2000/svg"><g><g><path d="m102.447 512c-17.069 0-30.905-13.837-30.905-30.905v-450.19c0-17.068 13.837-30.905 30.905-30.905h307.105c17.069 0 30.905 13.837 30.905 30.905v450.189c0 17.069-13.837 30.906-30.905 30.906z" fill="#65b9d7"/><path d="m390.08 470.315h-268.16c-5.69 0-10.302-4.612-10.302-10.302v-257.314c0-5.69 4.612-10.302 10.302-10.302h268.16c5.69 0 10.302 4.612 10.302 10.302v257.314c0 5.689-4.612 10.302-10.302 10.302z" fill="#ffe2ce"/><path d="m390.08 192.397h-41.207c5.69 0 10.302 4.612 10.302 10.302v257.314c0 5.689-4.612 10.302-10.302 10.302h41.207c5.69 0 10.302-4.612 10.302-10.302v-257.314c0-5.69-4.612-10.302-10.302-10.302z" fill="#ffd9bf"/><g><path d="m390.054 470.315h-61.883v-138.959h72.185v128.657c0 5.689-4.612 10.302-10.302 10.302z" fill="#ff5781"/><path d="m359.149 331.356v128.657c0 5.689-4.612 10.302-10.302 10.302h41.207c5.69 0 10.302-4.612 10.302-10.302v-128.657z" fill="#ff4170"/><g><g><path d="m400.382 202.699c0-5.69-4.612-10.302-10.302-10.302h-268.16c-5.69 0-10.302 4.612-10.302 10.302v56.472h288.765v-56.472z" fill="#ffe563"/></g></g><path d="m390.08 192.397h-41.207c5.69 0 10.302 4.612 10.302 10.302v56.472h41.207v-56.472c0-5.69-4.612-10.302-10.302-10.302z" fill="#ffdc2e"/><g fill="#65b9d7"><path d="m183.803 481.132c-4.268 0-7.726-3.459-7.726-7.726v-283.069c0-4.268 3.459-7.726 7.726-7.726 4.268 0 7.726 3.459 7.726 7.726v283.068c0 4.268-3.459 7.727-7.726 7.727z"/><path d="m255.987 481.132c-4.268 0-7.726-3.459-7.726-7.726v-283.069c0-4.268 3.459-7.726 7.726-7.726 4.268 0 7.726 3.459 7.726 7.726v283.068c0 4.268-3.458 7.727-7.726 7.727z"/><path d="m328.171 481.132c-4.268 0-7.726-3.459-7.726-7.726v-283.069c0-4.268 3.459-7.726 7.726-7.726s7.726 3.459 7.726 7.726v283.068c0 4.268-3.458 7.727-7.726 7.727z"/><path d="m405.247 339.082h-294.4c-4.268 0-7.726-3.459-7.726-7.726s3.459-7.726 7.726-7.726h294.4c4.268 0 7.726 3.459 7.726 7.726s-3.458 7.726-7.726 7.726z"/><path d="m405.247 266.897h-294.4c-4.268 0-7.726-3.459-7.726-7.726 0-4.268 3.459-7.726 7.726-7.726h294.4c4.268 0 7.726 3.459 7.726 7.726.001 4.268-3.458 7.726-7.726 7.726z"/><path d="m328.171 411.267h-217.324c-4.268 0-7.726-3.459-7.726-7.726s3.459-7.726 7.726-7.726h217.324c4.268 0 7.726 3.459 7.726 7.726s-3.458 7.726-7.726 7.726z"/></g><path d="m390.08 153.325h-268.16c-5.69 0-10.302-4.612-10.302-10.302v-91.036c0-5.69 4.612-10.302 10.302-10.302h268.16c5.69 0 10.302 4.612 10.302 10.302v91.036c0 5.69-4.612 10.302-10.302 10.302z" fill="#cce7f0"/><path d="m390.08 41.685h-41.207c5.69 0 10.302 4.612 10.302 10.302v91.036c0 5.689-4.612 10.302-10.302 10.302h41.207c5.69 0 10.302-4.612 10.302-10.302v-91.036c0-5.689-4.612-10.302-10.302-10.302z" fill="#b6e2f0"/></g></g><g fill="#fff"><path d="m192.604 89.51h-21.629c-4.268 0-7.726 3.459-7.726 7.726 0 4.268 3.459 7.726 7.726 7.726h21.629c4.268 0 7.726-3.459 7.726-7.726s-3.459-7.726-7.726-7.726z"/><path d="m233.975 84.618c-.827 0-1.61.018-2.355.053l1.269-7.658h14.907c4.268 0 7.726-3.459 7.726-7.726s-3.459-7.726-7.726-7.726h-21.459c-3.78 0-7.005 2.734-7.623 6.464l-4.251 25.658c-.475 2.868.718 5.751 3.059 7.475 2.34 1.724 5.47 1.98 8.068.673.05-.025.192-.094.406-.19 2.17-.977 3.79-1.569 7.978-1.569 2.695 0 5.204 1.079 7.065 3.038 1.858 1.958 2.804 4.526 2.663 7.232-.263 5.063-4.446 9.11-9.522 9.212-3.282.041-6.376-1.517-8.244-4.235-2.417-3.516-7.225-4.41-10.744-1.99-3.516 2.418-4.407 7.227-1.99 10.744 4.725 6.873 12.462 10.936 20.778 10.936.17 0 .341-.002.512-.006 13.138-.265 23.963-10.745 24.644-23.86.362-6.98-2.085-13.612-6.889-18.673-4.738-4.99-11.398-7.852-18.272-7.852z"/><path d="m293.157 60.003c-13.367 0-24.242 10.875-24.242 24.242v26.413c0 13.367 10.875 24.241 24.242 24.241s24.242-10.874 24.242-24.241v-26.413c0-13.367-10.875-24.242-24.242-24.242zm8.79 50.656c0 4.846-3.943 8.789-8.79 8.789s-8.79-3.943-8.79-8.789v-26.414c0-4.847 3.943-8.79 8.79-8.79s8.79 3.943 8.79 8.79z"/><path d="m353.867 60.003c-13.367 0-24.242 10.875-24.242 24.242v26.413c0 13.367 10.875 24.241 24.242 24.241s24.242-10.874 24.242-24.241v-26.413c.001-13.367-10.875-24.242-24.242-24.242zm8.79 50.656c0 4.846-3.943 8.789-8.79 8.789s-8.79-3.943-8.79-8.789v-26.414c0-4.847 3.943-8.79 8.79-8.79s8.79 3.943 8.79 8.79z"/></g></g></svg>