<?xml version="1.0" encoding="iso-8859-1"?>
<!-- Generator: Adobe Illustrator 19.0.0, SVG Export Plug-In . SVG Version: 6.00 Build 0)  -->
<svg version="1.1" id="Capa_1" xmlns="http://www.w3.org/2000/svg" xmlns:xlink="http://www.w3.org/1999/xlink" x="0px" y="0px"
	 viewBox="0 0 512.001 512.001" style="enable-background:new 0 0 512.001 512.001;" xml:space="preserve">
<path style="fill:#8CAEBA;" d="M235.819,316.152c5.834,0,11.661-1.565,16.787-4.677l3.037-1.844c3.54-2.149,4.667-6.76,2.519-10.299
	c-2.149-3.541-6.761-4.667-10.299-2.519l-3.037,1.844c-5.001,3.035-11.241,3.319-16.488,0.808l-11.461-7.343l-12.625,11
	l11.935,6.852l4.263,2.304C225.233,314.865,230.529,316.152,235.819,316.152z"/>
<path style="fill:#CCDFED;" d="M392.261,0.859l-13.845,8.604c-0.588,0.365-1.104,0.834-1.524,1.384l-42.441,55.639l7.145,11.498
	l75.967-47.208L400.111,2.692C398.449,0.018,394.935-0.802,392.261,0.859z"/>
<path style="fill:#9EBECC;" d="M417.25,81.388l18.248-11.34c2.578-1.602,3.369-4.99,1.767-7.568l-26.852-43.21l-151.934,94.415
	l40.644,65.404l111.493-69.285c4.84-3.007,6.325-9.369,3.317-14.208l0,0C410.925,90.757,412.411,84.396,417.25,81.388z"/>
<path style="fill:#8CAEBA;" d="M428.971,49.134L277.037,143.55l22.085,35.539l111.493-69.285c4.84-3.007,6.325-9.369,3.317-14.208
	c-3.007-4.84-1.522-11.201,3.317-14.208l18.248-11.34c2.578-1.602,3.369-4.99,1.767-7.568L428.971,49.134z"/>
<path style="fill:#9EBECC;" d="M76.024,247.998l9.152-5.687c3.654-2.271,8.061-2.997,12.25-2.019l6.883,1.607
	c4.267,0.996,8.756,0.257,12.478-2.056l30.495-18.95l26.34,42.387l-40.147,14.778l-56.711-22.073
	C73.321,254.645,72.886,249.949,76.024,247.998z"/>
<path style="fill:#CCDFED;" d="M267.428,108.124l-132.537,82.361c-4.94,3.07-6.805,9.314-4.427,14.622
	c14.947,33.375,3.305,73.491-28.619,93.33l-0.06,0.037c-5.699,3.534-7.472,11.004-3.965,16.719c1.234,2.011,2.561,4.186,4.064,6.471
	c8.31,12.637,12.429,27.568,11.455,42.661l-3.155,48.913c-0.957,14.841,1.407,29.708,6.919,43.52l17.73,44.422
	c3.965,9.933,15.944,13.87,25.028,8.225l58.915-36.611c13.649-8.482,17.734-26.483,9.082-40.025l-6.613-10.351
	c-8.567-13.41-14.247-28.456-16.678-44.182l-3.929-25.412c6.263,5.191,13.834,8.731,22.012,10.135
	c11.373,1.952,23.018-0.372,32.717-6.398c1.568-0.974,3.086-2.046,4.542-3.211l39.442-31.557
	c18.559-14.849,23.087-41.228,10.542-61.416l-8.918-14.35l18.325-11.388c10.656-6.622,13.927-20.629,7.305-31.286L267.428,108.124z
	 M290.629,271.555c6.816,10.969,4.353,25.325-5.732,33.393l-37.872,30.301c-5.688,4.551-13.075,6.458-20.258,5.225
	s-13.51-5.49-17.357-11.681l0,0c-6.404-10.306-3.242-23.853,7.065-30.257l51.813-32.198
	C275.897,261.61,285.9,263.945,290.629,271.555L290.629,271.555z"/>
<path style="fill:#BFD4E0;" d="M326.605,203.352l-59.177-95.228l-35.212,21.881l45.579,73.347
	c6.622,10.656,3.352,24.664-7.305,31.286l-18.326,11.388c0,0-81.894,50.219-86.085,53.61c-0.847,0.635-1.63,1.325-2.36,2.056
	c-8.491,7.95-18.403,23.624-11.891,51.131l3.929,25.41c10.484,57.684,35.698,89.045,49.924,102.698l13.095-8.137
	c13.649-8.482,17.734-26.483,9.082-40.025l-6.613-10.351c-8.567-13.41-14.247-28.456-16.678-44.182l-3.929-25.412
	c6.263,5.191,13.833,8.731,22.012,10.135c11.373,1.952,23.019-0.372,32.717-6.398c1.568-0.974,3.086-2.046,4.542-3.211
	l39.442-31.557c18.559-14.849,23.087-41.228,10.542-61.415l-8.918-14.35l18.326-11.388
	C329.956,228.016,333.227,214.009,326.605,203.352z M284.897,304.948l-37.872,30.301c-5.688,4.551-13.075,6.458-20.258,5.225
	s-13.51-5.49-17.357-11.681c-6.404-10.306-3.242-23.853,7.065-30.257l51.813-32.198c7.61-4.729,17.613-2.394,22.342,5.217
	C297.446,282.524,294.982,296.88,284.897,304.948z"/>
<path style="fill:#BF6325;" d="M124.77,310.905L96.096,307.6c-0.262,2.563,0.272,5.228,1.724,7.594
	c1.293,2.107,2.688,4.394,4.281,6.8c8.274,12.497,12.203,27.376,11.238,42.332l-3.155,48.913
	c-0.957,14.841,1.407,29.708,6.919,43.52l17.73,44.422c3.965,9.933,15.944,13.87,25.028,8.225l58.915-36.611
	c13.649-8.482,17.734-26.483,9.082-40.025l-6.613-10.351c-8.567-13.41-14.247-28.457-16.678-44.182l-3.929-25.412L180,348.009
	c-10.514-2.453-19.623-8.983-25.321-18.154l0,0C148.123,319.306,137.109,312.327,124.77,310.905z"/>
<path style="fill:#9E5015;" d="M227.858,432.769l-6.613-10.351c-3.863-6.047-7.133-12.43-9.789-19.055
	c-0.78-1.945-1.504-3.912-2.176-5.897c-0.758-2.239-1.447-4.501-2.066-6.785c-0.331-1.221-0.649-2.445-0.939-3.677
	c-0.682-2.895-1.252-5.819-1.708-8.768l-1.964-12.706l-1.964-12.706L180,348.009c-10.514-2.453-19.623-8.983-25.321-18.154l0,0
	c-1.138-1.832-2.419-3.548-3.81-5.154c-1.617,7.578-1.707,16.857,0.96,28.123l3.929,25.41
	c10.484,57.684,35.698,89.045,49.924,102.698l13.095-8.137c1.201-0.746,2.323-1.569,3.373-2.453
	c0.443-0.373,0.877-0.753,1.292-1.148c3.852-3.658,6.528-8.235,7.898-13.162c0.145-0.523,0.272-1.051,0.387-1.582
	c0.271-1.239,0.462-2.496,0.568-3.762c0.082-0.976,0.118-1.957,0.1-2.94c-0.009-0.467-0.028-0.935-0.06-1.403
	C232.022,441.668,230.562,437.001,227.858,432.769z"/>
<path style="fill:#9EBECC;" d="M300.75,215.935l-90.102,55.991c-2.208,1.372-5.11,0.694-6.482-1.513l-38.168-61.419
	c-1.372-2.208-0.694-5.11,1.513-6.482l90.102-55.991c2.208-1.372,5.11-0.694,6.482,1.513l38.168,61.419
	C303.635,211.661,302.958,214.563,300.75,215.935z"/>
<g>
	<path style="fill:#8CAEBA;" d="M257.614,146.521l-50.477,31.368c-5.709,3.548-7.462,11.052-3.914,16.762
		c3.548,5.709,11.052,7.461,16.762,3.914l54.475-33.852l-10.364-16.678C262.724,145.826,259.822,145.149,257.614,146.521z"/>
	<path style="fill:#8CAEBA;" d="M233.511,243.389L233.511,243.389c3.548,5.709,11.052,7.462,16.762,3.914l50.477-31.368
		c2.208-1.372,2.885-4.274,1.513-6.482l-10.364-16.678l-54.475,33.852C231.715,230.175,229.963,237.68,233.511,243.389z"/>
</g>
<g>
</g>
<g>
</g>
<g>
</g>
<g>
</g>
<g>
</g>
<g>
</g>
<g>
</g>
<g>
</g>
<g>
</g>
<g>
</g>
<g>
</g>
<g>
</g>
<g>
</g>
<g>
</g>
<g>
</g>
</svg>
