<?xml version="1.0" encoding="UTF-8" standalone="no" ?>
<!DOCTYPE svg PUBLIC "-//W3C//DTD SVG 1.1//EN" "http://www.w3.org/Graphics/SVG/1.1/DTD/svg11.dtd">
<svg xmlns="http://www.w3.org/2000/svg" xmlns:xlink="http://www.w3.org/1999/xlink" version="1.1" width="720" height="720" viewBox="0 0 720 720" xml:space="preserve">
<desc>Created with Fabric.js 4.2.0</desc>
<defs>
</defs>
<rect x="0" y="0" width="100%" height="100%" fill="transparent"></rect>
<g transform="matrix(1 0 0 1 360 360)" id="088ff5e9-cec8-4b99-9d85-4d7f1d684ffe"  >
<rect style="stroke: none; stroke-width: 1; stroke-dasharray: none; stroke-linecap: butt; stroke-dashoffset: 0; stroke-linejoin: miter; stroke-miterlimit: 4; fill: rgb(255,255,255); fill-opacity: 0; fill-rule: nonzero; opacity: 1;" vector-effect="non-scaling-stroke"  x="-360" y="-360" rx="0" ry="0" width="720" height="720" />
</g>
<g transform="matrix(0 0 0 0 0 0)" id="10e72e25-f349-42f5-adff-9246252ebd1e"  >
</g>
<g transform="matrix(1.36 0 0 1.36 357.7 357.7)"  >
<g style="" vector-effect="non-scaling-stroke"   >
		<g transform="matrix(1 0 0 1 -97.58 -40.53)"  >
<path style="stroke: none; stroke-width: 1; stroke-dasharray: none; stroke-linecap: butt; stroke-dashoffset: 0; stroke-linejoin: miter; stroke-miterlimit: 4; fill: rgb(219,200,177); fill-rule: nonzero; opacity: 1;" vector-effect="non-scaling-stroke"  transform=" translate(-158.42, -215.47)" d="M 275.177 392.997 C 275.177 392.997 275.199 392.909 275.264 392.748 C 275.18 392.954 266.219 413.339 207.854 415.882 C 191.222 416.618 176.45800000000003 409.531 163.984 394.85 C 137.066 363.166 125.17500000000001 298.99600000000004 136.32500000000002 245.58200000000002 C 137.54700000000003 239.73100000000002 138.92900000000003 233.38500000000002 140.39100000000002 226.66600000000003 C 154.25600000000003 162.99600000000004 175.21000000000004 66.77700000000002 139.96400000000003 23.029000000000025 C 127.65400000000002 7.748000000000024 109.64400000000003 2.4868995751603507e-14 86.43600000000004 2.4868995751603507e-14 C 65.42700000000004 2.4868995751603507e-14 49.555000000000035 5.760000000000025 39.263000000000034 17.120000000000026 C 25.727000000000032 32.060000000000024 27.426000000000034 50.99100000000003 27.505000000000035 51.79000000000003 C 27.912000000000035 55.91200000000003 31.586000000000034 58.922000000000025 35.70600000000003 58.51600000000003 C 39.82800000000003 58.10900000000003 42.839000000000034 54.43600000000003 42.43200000000003 50.31400000000003 C 42.41900000000003 50.18500000000003 41.40400000000003 37.09800000000003 50.37900000000003 27.19300000000003 C 57.708000000000034 19.102000000000032 69.84000000000003 15.00000000000003 86.43600000000004 15.00000000000003 C 105.14100000000003 15.00000000000003 118.83000000000004 20.70500000000003 128.28500000000003 32.44000000000003 C 159.02800000000002 70.59800000000004 138.99300000000002 162.59600000000003 125.73700000000002 223.47400000000002 C 124.26700000000002 230.22500000000002 122.87800000000003 236.60200000000003 121.64300000000003 242.51700000000002 C 109.44100000000003 300.968 122.44100000000003 369.11800000000005 152.55400000000003 404.56100000000004 C 167.24900000000002 421.85800000000006 185.52900000000002 430.93100000000004 205.58200000000002 430.93100000000004 C 206.55200000000002 430.93100000000004 207.52900000000002 430.91 208.508 430.86800000000005 C 277.687 427.85300000000007 288.448 400.70400000000006 289.448 397.61800000000005 z" stroke-linecap="round" />
</g>
		<g transform="matrix(1 0 0 1 51.59 113.39)"  >
<path style="stroke: none; stroke-width: 1; stroke-dasharray: none; stroke-linecap: butt; stroke-dashoffset: 0; stroke-linejoin: miter; stroke-miterlimit: 4; fill: rgb(97,146,171); fill-rule: nonzero; opacity: 1;" vector-effect="non-scaling-stroke"  transform=" translate(-307.59, -369.39)" d="M 281.238 407.803 L 269.184 395.749 C 265.107 391.672 264.612 385.231 268.01700000000005 380.579 L 306.83000000000004 327.558 L 349.42800000000005 370.156 L 296.40700000000004 408.969 C 291.75600000000003 412.376 285.31500000000005 411.88 281.23800000000006 407.803 z" stroke-linecap="round" />
</g>
		<g transform="matrix(1 0 0 1 -219.94 21.41)"  >
<path style="stroke: none; stroke-width: 1; stroke-dasharray: none; stroke-linecap: butt; stroke-dashoffset: 0; stroke-linejoin: miter; stroke-miterlimit: 4; fill: rgb(204,129,74); fill-rule: nonzero; opacity: 1;" vector-effect="non-scaling-stroke"  transform=" translate(-36.06, -277.41)" d="M 41.899 486.713 L 30.214 486.713 C 16.372 486.713 5.151 475.492 5.151 461.65000000000003 L 5.151 93.17400000000004 C 5.151 79.33200000000004 16.372 68.11100000000003 30.214 68.11100000000003 L 41.899 68.11100000000003 C 55.741 68.11100000000003 66.962 79.33200000000004 66.962 93.17400000000004 L 66.962 461.65000000000003 C 66.962 475.492 55.741 486.713 41.899 486.713 z" stroke-linecap="round" />
</g>
		<g transform="matrix(1 0 0 1 -212.22 21.41)"  >
<path style="stroke: none; stroke-width: 1; stroke-dasharray: none; stroke-linecap: butt; stroke-dashoffset: 0; stroke-linejoin: miter; stroke-miterlimit: 4; fill: rgb(181,103,45); fill-rule: nonzero; opacity: 1;" vector-effect="non-scaling-stroke"  transform=" translate(-43.78, -277.41)" d="M 42.237 68.111 L 29.875 68.111 C 26.595 68.111 23.467 68.77300000000001 20.603 69.965 C 29.662 73.735 36.056 82.85600000000001 36.056 93.517 L 36.056 461.307 C 36.056 471.968 29.662999999999997 481.09000000000003 20.602999999999998 484.86 C 23.467 486.052 26.595 486.714 29.875 486.714 L 42.237 486.714 C 55.892 486.714 66.961 475.339 66.961 461.308 L 66.961 93.517 C 66.962 79.485 55.891999999999996 68.11099999999999 42.236999999999995 68.11099999999999 z" stroke-linecap="round" />
</g>
		<g transform="matrix(1 0 0 1 -219.94 240.55)"  >
<path style="stroke: none; stroke-width: 1; stroke-dasharray: none; stroke-linecap: butt; stroke-dashoffset: 0; stroke-linejoin: miter; stroke-miterlimit: 4; fill: rgb(122,157,174); fill-rule: nonzero; opacity: 1;" vector-effect="non-scaling-stroke"  transform=" translate(-36.06, -496.55)" d="M 56.66 512 L 15.452999999999996 512 C 6.917999999999996 512 -3.552713678800501e-15 505.082 -3.552713678800501e-15 496.547 C -3.552713678800501e-15 488.01300000000003 6.917999999999997 481.09400000000005 15.452999999999996 481.09400000000005 L 56.66 481.09400000000005 C 65.194 481.09400000000005 72.113 488.01200000000006 72.113 496.547 C 72.113 505.08200000000005 65.194 512 56.66 512 z" stroke-linecap="round" />
</g>
		<g transform="matrix(1 0 0 1 -207.07 240.55)"  >
<path style="stroke: none; stroke-width: 1; stroke-dasharray: none; stroke-linecap: butt; stroke-dashoffset: 0; stroke-linejoin: miter; stroke-miterlimit: 4; fill: rgb(97,146,171); fill-rule: nonzero; opacity: 1;" vector-effect="non-scaling-stroke"  transform=" translate(-48.93, -496.55)" d="M 56.66 481.095 L 25.754999999999995 481.095 C 34.288999999999994 481.095 41.208 488.01300000000003 41.208 496.548 C 41.208 505.082 34.29 512.001 25.755 512.001 L 56.66 512.001 C 65.194 512.001 72.113 505.08299999999997 72.113 496.548 C 72.113 488.01300000000003 65.194 481.095 56.66 481.095 z" stroke-linecap="round" />
</g>
		<g transform="matrix(1 0 0 1 -219.94 -197.72)"  >
<path style="stroke: none; stroke-width: 1; stroke-dasharray: none; stroke-linecap: butt; stroke-dashoffset: 0; stroke-linejoin: miter; stroke-miterlimit: 4; fill: rgb(122,157,174); fill-rule: nonzero; opacity: 1;" vector-effect="non-scaling-stroke"  transform=" translate(-36.06, -58.28)" d="M 56.66 73.729 L 15.452999999999996 73.729 C 6.917999999999996 73.729 -3.552713678800501e-15 66.81 -3.552713678800501e-15 58.275999999999996 C -3.552713678800501e-15 49.742 6.917999999999997 42.82299999999999 15.452999999999996 42.82299999999999 L 56.66 42.82299999999999 C 65.194 42.82299999999999 72.113 49.74099999999999 72.113 58.275999999999996 C 72.113 66.81 65.194 73.729 56.66 73.729 z" stroke-linecap="round" />
</g>
		<g transform="matrix(1 0 0 1 -207.07 -197.72)"  >
<path style="stroke: none; stroke-width: 1; stroke-dasharray: none; stroke-linecap: butt; stroke-dashoffset: 0; stroke-linejoin: miter; stroke-miterlimit: 4; fill: rgb(97,146,171); fill-rule: nonzero; opacity: 1;" vector-effect="non-scaling-stroke"  transform=" translate(-48.93, -58.28)" d="M 56.66 42.823 L 25.754999999999995 42.823 C 34.288999999999994 42.823 41.208 49.741 41.208 58.275999999999996 C 41.208 66.81 34.29 73.729 25.755 73.729 L 56.66 73.729 C 65.194 73.729 72.113 66.81099999999999 72.113 58.275999999999996 C 72.113 49.742 65.194 42.82299999999999 56.66 42.82299999999999 z" stroke-linecap="round" />
</g>
		<g transform="matrix(1 0 0 1 1.05 42.78)"  >
<path style="stroke: none; stroke-width: 1; stroke-dasharray: none; stroke-linecap: butt; stroke-dashoffset: 0; stroke-linejoin: miter; stroke-miterlimit: 4; fill: rgb(78,130,156); fill-rule: nonzero; opacity: 1;" vector-effect="non-scaling-stroke"  transform=" translate(-257.05, -298.78)" d="M 282.312 277.143 L 234.442 295.015 C 230.906 296.335 230.906 301.21799999999996 234.442 302.538 L 282.312 320.41 z" stroke-linecap="round" />
</g>
		<g transform="matrix(1 0 0 1 230.74 42.78)"  >
<path style="stroke: none; stroke-width: 1; stroke-dasharray: none; stroke-linecap: butt; stroke-dashoffset: 0; stroke-linejoin: miter; stroke-miterlimit: 4; fill: rgb(78,130,156); fill-rule: nonzero; opacity: 1;" vector-effect="non-scaling-stroke"  transform=" translate(-486.74, -298.78)" d="M 461.478 277.143 L 509.348 295.015 C 512.884 296.335 512.884 301.21799999999996 509.348 302.538 L 461.478 320.41 z" stroke-linecap="round" />
</g>
		<g transform="matrix(1 0 0 1 115.9 157.62)"  >
<path style="stroke: none; stroke-width: 1; stroke-dasharray: none; stroke-linecap: butt; stroke-dashoffset: 0; stroke-linejoin: miter; stroke-miterlimit: 4; fill: rgb(78,130,156); fill-rule: nonzero; opacity: 1;" vector-effect="non-scaling-stroke"  transform=" translate(-371.9, -413.62)" d="M 350.262 388.36 L 368.134 436.23 C 369.454 439.766 374.337 439.766 375.65700000000004 436.23 L 393.52900000000005 388.36 z" stroke-linecap="round" />
</g>
		<g transform="matrix(1 0 0 1 115.9 -72.07)"  >
<path style="stroke: none; stroke-width: 1; stroke-dasharray: none; stroke-linecap: butt; stroke-dashoffset: 0; stroke-linejoin: miter; stroke-miterlimit: 4; fill: rgb(78,130,156); fill-rule: nonzero; opacity: 1;" vector-effect="non-scaling-stroke"  transform=" translate(-371.9, -183.93)" d="M 350.262 209.194 L 368.134 161.32399999999998 C 369.454 157.78799999999998 374.337 157.78799999999998 375.65700000000004 161.32399999999998 L 393.52900000000005 209.194 z" stroke-linecap="round" />
</g>
		<g transform="matrix(1 0 0 1 115.89 42.78)"  >
<circle style="stroke: none; stroke-width: 1; stroke-dasharray: none; stroke-linecap: butt; stroke-dashoffset: 0; stroke-linejoin: miter; stroke-miterlimit: 4; fill: rgb(122,157,174); fill-rule: nonzero; opacity: 1;" vector-effect="non-scaling-stroke"  cx="0" cy="0" r="97.867" />
</g>
		<g transform="matrix(1 0 0 1 157.1 42.78)"  >
<path style="stroke: none; stroke-width: 1; stroke-dasharray: none; stroke-linecap: butt; stroke-dashoffset: 0; stroke-linejoin: miter; stroke-miterlimit: 4; fill: rgb(97,146,171); fill-rule: nonzero; opacity: 1;" vector-effect="non-scaling-stroke"  transform=" translate(-413.1, -298.78)" d="M 371.895 200.909 C 366.63599999999997 200.909 361.476 201.32899999999998 356.442 202.128 C 403.149 209.53699999999998 438.856 249.98499999999999 438.856 298.777 C 438.856 347.56899999999996 403.149 388.01599999999996 356.442 395.426 C 361.476 396.22499999999997 366.636 396.645 371.895 396.645 C 425.94599999999997 396.645 469.762 352.828 469.762 298.77799999999996 C 469.762 244.72799999999995 425.946 200.90899999999996 371.895 200.90899999999996 z" stroke-linecap="round" />
</g>
		<g transform="matrix(1 0 0 1 115.89 42.78)"  >
<circle style="stroke: none; stroke-width: 1; stroke-dasharray: none; stroke-linecap: butt; stroke-dashoffset: 0; stroke-linejoin: miter; stroke-miterlimit: 4; fill: rgb(78,130,156); fill-rule: nonzero; opacity: 1;" vector-effect="non-scaling-stroke"  cx="0" cy="0" r="26.785" />
</g>
</g>
</g>
<g transform="matrix(3.61 0 0 3.61 624 600.86)" style="filter: url(#SVGID_1524);" id="f42727bd-bc40-4e3b-832d-5e77afda711c"  >
<filter id="SVGID_1524" y="-46%" height="192%" x="-54%" width="208%" >
	<feGaussianBlur in="SourceAlpha" stdDeviation="7.5"></feGaussianBlur>
	<feOffset dx="0" dy="0" result="oBlur" ></feOffset>
	<feFlood flood-color="rgb(0,0,0)" flood-opacity="1"/>
	<feComposite in2="oBlur" operator="in" />
	<feMerge>
		<feMergeNode></feMergeNode>
		<feMergeNode in="SourceGraphic"></feMergeNode>
	</feMerge>
</filter>
		<rect opacity="0" fill="rgb(0,0,0)" x="-22.39" y="-28.81" width="44.77" height="57.63"></rect>
		<text xml:space="preserve" font-family="Lato" font-size="51" font-style="normal" font-weight="400" style="stroke: none; stroke-width: 1; stroke-dasharray: none; stroke-linecap: butt; stroke-dashoffset: 0; stroke-linejoin: miter; stroke-miterlimit: 4; fill: rgb(0,0,255); fill-rule: nonzero; opacity: 1; white-space: pre;" ><tspan x="-16.5" y="16.02" >B</tspan></text>
</g>
</svg>