<?xml version="1.0" encoding="UTF-8" standalone="no" ?>
<!DOCTYPE svg PUBLIC "-//W3C//DTD SVG 1.1//EN" "http://www.w3.org/Graphics/SVG/1.1/DTD/svg11.dtd">
<svg xmlns="http://www.w3.org/2000/svg" xmlns:xlink="http://www.w3.org/1999/xlink" version="1.1" width="720" height="720" viewBox="0 0 720 720" xml:space="preserve">
<desc>Created with Fabric.js 4.2.0</desc>
<defs>
</defs>
<rect x="0" y="0" width="100%" height="100%" fill="transparent"></rect>
<g transform="matrix(1 0 0 1 360 360)" id="088ff5e9-cec8-4b99-9d85-4d7f1d684ffe"  >
<rect style="stroke: none; stroke-width: 1; stroke-dasharray: none; stroke-linecap: butt; stroke-dashoffset: 0; stroke-linejoin: miter; stroke-miterlimit: 4; fill: rgb(255,255,255); fill-opacity: 0; fill-rule: nonzero; opacity: 1;" vector-effect="non-scaling-stroke"  x="-360" y="-360" rx="0" ry="0" width="720" height="720" />
</g>
<g transform="matrix(0 0 0 0 0 0)" id="10e72e25-f349-42f5-adff-9246252ebd1e"  >
</g>
<g transform="matrix(1.36 0 0 1.36 359.35 359.35)"  >
<g style="" vector-effect="non-scaling-stroke"   >
		<g transform="matrix(1 0 0 1 -180.45 180.46)"  >
<path style="stroke: none; stroke-width: 1; stroke-dasharray: none; stroke-linecap: butt; stroke-dashoffset: 0; stroke-linejoin: miter; stroke-miterlimit: 4; fill: rgb(144,227,106); fill-rule: nonzero; opacity: 1;" vector-effect="non-scaling-stroke"  transform=" translate(-75.55, -436.45)" d="M 129.878 360.909 L 151.09099999999998 382.122 L 151.09099999999998 424.548 L 76.84499999999998 498.794 C 59.237999999999985 516.401 30.810999999999986 516.4 13.204999999999984 498.794 C -4.402000000000015 481.187 -4.402000000000015 452.762 13.204999999999984 435.154 L 87.45099999999998 360.908 L 129.878 360.908 L 129.878 360.909 z" stroke-linecap="round" />
</g>
		<g transform="matrix(1 0 0 1 -173.86 185.76)"  >
<path style="stroke: none; stroke-width: 1; stroke-dasharray: none; stroke-linecap: butt; stroke-dashoffset: 0; stroke-linejoin: miter; stroke-miterlimit: 4; fill: rgb(112,218,64); fill-rule: nonzero; opacity: 1;" vector-effect="non-scaling-stroke"  transform=" translate(-82.15, -441.76)" d="M 13.205 498.795 L 140.484 371.516 L 151.091 382.12300000000005 L 151.091 424.54900000000004 L 76.84500000000001 498.795 C 59.238 516.402 30.812 516.401 13.205 498.795 z" stroke-linecap="round" />
</g>
		<g transform="matrix(0.71 -0.71 0.71 0.71 -67.79 67.79)"  >
<rect style="stroke: none; stroke-width: 1; stroke-dasharray: none; stroke-linecap: butt; stroke-dashoffset: 0; stroke-linejoin: miter; stroke-miterlimit: 4; fill: rgb(165,232,135); fill-rule: nonzero; opacity: 1;" vector-effect="non-scaling-stroke"  x="-97.5" y="-45" rx="0" ry="0" width="195" height="90" />
</g>
		<g transform="matrix(0.71 -0.71 0.71 0.71 -51.88 83.7)"  >
<rect style="stroke: none; stroke-width: 1; stroke-dasharray: none; stroke-linecap: butt; stroke-dashoffset: 0; stroke-linejoin: miter; stroke-miterlimit: 4; fill: rgb(144,227,106); fill-rule: nonzero; opacity: 1;" vector-effect="non-scaling-stroke"  x="-97.5" y="-22.5" rx="0" ry="0" width="195" height="45" />
</g>
		<g transform="matrix(1 0 0 1 75.4 -160.26)"  >
<path style="stroke: none; stroke-width: 1; stroke-dasharray: none; stroke-linecap: butt; stroke-dashoffset: 0; stroke-linejoin: miter; stroke-miterlimit: 4; fill: rgb(217,231,236); fill-rule: nonzero; opacity: 1;" vector-effect="non-scaling-stroke"  transform=" translate(-331.4, -95.74)" d="M 352.617 95.744 L 331.404 116.957 C 325.541 122.82 316.053 122.82 310.191 116.957 C 304.328 111.094 304.328 101.606 310.191 95.744 L 331.404 74.531 C 337.267 68.668 346.755 68.668 352.617 74.531 C 358.479 80.394 358.479 89.881 352.617 95.744 z" stroke-linecap="round" />
</g>
		<g transform="matrix(1 0 0 1 160.26 -75.4)"  >
<path style="stroke: none; stroke-width: 1; stroke-dasharray: none; stroke-linecap: butt; stroke-dashoffset: 0; stroke-linejoin: miter; stroke-miterlimit: 4; fill: rgb(197,211,221); fill-rule: nonzero; opacity: 1;" vector-effect="non-scaling-stroke"  transform=" translate(-416.26, -180.6)" d="M 437.47 180.597 L 416.257 201.81 C 410.394 207.673 400.906 207.673 395.044 201.81 C 389.181 195.947 389.181 186.459 395.044 180.597 L 416.257 159.38400000000001 C 422.12 153.52100000000002 431.608 153.52100000000002 437.47 159.38400000000001 C 443.332 165.246 443.332 174.734 437.47 180.597 z" stroke-linecap="round" />
</g>
		<g transform="matrix(1 0 0 1 75.41 -75.4)"  >
<path style="stroke: none; stroke-width: 1; stroke-dasharray: none; stroke-linecap: butt; stroke-dashoffset: 0; stroke-linejoin: miter; stroke-miterlimit: 4; fill: rgb(217,231,236); fill-rule: nonzero; opacity: 1;" vector-effect="non-scaling-stroke"  transform=" translate(-331.4, -180.6)" d="M 352.617 159.384 C 358.55600000000004 165.32299999999998 358.557 174.65699999999998 352.617 180.59699999999998 L 331.404 201.80999999999997 C 325.464 207.74999999999997 316.13 207.74899999999997 310.191 201.80999999999997 C 304.251 195.86999999999998 304.251 186.53699999999998 310.191 180.59699999999998 L 331.404 159.384 C 337.344 153.443 346.676 153.443 352.617 159.384 z" stroke-linecap="round" />
</g>
		<g transform="matrix(1 0 0 1 195.49 -195.54)"  >
<path style="stroke: none; stroke-width: 1; stroke-dasharray: none; stroke-linecap: butt; stroke-dashoffset: 0; stroke-linejoin: miter; stroke-miterlimit: 4; fill: rgb(217,231,236); fill-rule: nonzero; opacity: 1;" vector-effect="non-scaling-stroke"  transform=" translate(-451.49, -60.46)" d="M 490.396 1.663 L 399.072 50.56 C 393.769 52.893 390.789 58.196000000000005 391 63.923 L 391 106.349 C 390.788 110.381 392.285 114.199 395.043 116.95700000000001 C 397.801 119.71500000000002 401.619 121.11300000000001 405.65 120.9 L 448.07599999999996 120.9 C 452.10699999999997 121.114 455.92499999999995 119.715 458.683 116.95700000000001 C 459.743 115.897 460.804 114.412 461.44 112.926 L 510.337 21.60300000000001 C 513.307 16.08700000000001 512.247 9.087000000000009 507.58 4.420000000000009 C 502.912 -0.246 495.912 -1.307 490.396 1.663 z" stroke-linecap="round" />
</g>
		<g transform="matrix(1 0 0 1 1.16 -1.15)"  >
<path style="stroke: none; stroke-width: 1; stroke-dasharray: none; stroke-linecap: butt; stroke-dashoffset: 0; stroke-linejoin: miter; stroke-miterlimit: 4; fill: rgb(112,218,64); fill-rule: nonzero; opacity: 1;" vector-effect="non-scaling-stroke"  transform=" translate(-257.16, -254.84)" d="M 225.338 223.023 C 207.731 240.63 207.731 269.055 225.338 286.663 C 242.944 304.269 271.37 304.27 288.978 286.663 C 306.58500000000004 269.05600000000004 306.584 240.62900000000002 288.978 223.02300000000002 C 271.37 205.416 242.945 205.416 225.338 223.023 z" stroke-linecap="round" />
</g>
		<g transform="matrix(1 0 0 1 7.76 5.44)"  >
<path style="stroke: none; stroke-width: 1; stroke-dasharray: none; stroke-linecap: butt; stroke-dashoffset: 0; stroke-linejoin: miter; stroke-miterlimit: 4; fill: rgb(86,194,37); fill-rule: nonzero; opacity: 1;" vector-effect="non-scaling-stroke"  transform=" translate(-263.76, -261.45)" d="M 225.338 286.663 L 288.978 223.02300000000002 C 306.584 240.62900000000002 306.58500000000004 269.055 288.978 286.663 C 271.37 304.27 242.944 304.269 225.338 286.663 z" stroke-linecap="round" />
</g>
		<g transform="matrix(1 0 0 1 77.63 -73.18)"  >
<path style="stroke: none; stroke-width: 1; stroke-dasharray: none; stroke-linecap: butt; stroke-dashoffset: 0; stroke-linejoin: miter; stroke-miterlimit: 4; fill: rgb(197,211,221); fill-rule: nonzero; opacity: 1;" vector-effect="non-scaling-stroke"  transform=" translate(-333.63, -182.82)" d="M 310.19 201.81 L 352.616 159.38400000000001 C 358.555 165.323 358.556 174.657 352.616 180.597 L 331.40299999999996 201.81 C 325.463 207.75 316.129 207.749 310.19 201.81 z" stroke-linecap="round" />
</g>
		<g transform="matrix(1 0 0 1 197.52 -193.33)"  >
<path style="stroke: none; stroke-width: 1; stroke-dasharray: none; stroke-linecap: butt; stroke-dashoffset: 0; stroke-linejoin: miter; stroke-miterlimit: 4; fill: rgb(182,196,207); fill-rule: nonzero; opacity: 1;" vector-effect="non-scaling-stroke"  transform=" translate(-453.52, -62.67)" d="M 507.58 4.421 C 512.246 9.087 513.307 16.088 510.337 21.604 L 461.44 112.92699999999999 C 460.804 114.41199999999999 459.74399999999997 115.89699999999999 458.683 116.958 C 455.925 119.716 452.10699999999997 121.114 448.076 120.901 L 405.65 120.901 C 401.61899999999997 121.115 397.801 119.716 395.043 116.958 L 507.58 4.421 z" stroke-linecap="round" />
</g>
</g>
</g>
<g transform="matrix(3.61 0 0 3.61 624 600.86)" style="filter: url(#SVGID_1451);" id="f42727bd-bc40-4e3b-832d-5e77afda711c"  >
<filter id="SVGID_1451" y="-46%" height="192%" x="-54%" width="208%" >
	<feGaussianBlur in="SourceAlpha" stdDeviation="7.5"></feGaussianBlur>
	<feOffset dx="0" dy="0" result="oBlur" ></feOffset>
	<feFlood flood-color="rgb(255,255,0)" flood-opacity="1"/>
	<feComposite in2="oBlur" operator="in" />
	<feMerge>
		<feMergeNode></feMergeNode>
		<feMergeNode in="SourceGraphic"></feMergeNode>
	</feMerge>
</filter>
		<rect opacity="0" fill="rgb(0,0,0)" x="-22.39" y="-28.81" width="44.77" height="57.63"></rect>
		<text xml:space="preserve" font-family="Lato" font-size="51" font-style="normal" font-weight="400" style="stroke: none; stroke-width: 1; stroke-dasharray: none; stroke-linecap: butt; stroke-dashoffset: 0; stroke-linejoin: miter; stroke-miterlimit: 4; fill: rgb(153,204,255); fill-rule: nonzero; opacity: 1; white-space: pre;" ><tspan x="-14.82" y="16.02" >E</tspan></text>
</g>
</svg>