<svg height="512pt" viewBox="0 -7 512.00119 512" width="512pt" xmlns="http://www.w3.org/2000/svg"><path d="m294.144531 214.933594c-.019531-6.902344-5.632812-12.484375-12.539062-12.464844-6.90625.023438-12.484375 5.636719-12.464844 12.539062.019531 6.90625 5.636719 12.488282 12.539063 12.464844 6.90625-.019531 12.484374-5.632812 12.464843-12.539062zm0 0"/><path d="m382.457031 214.667969c-.019531-6.90625-5.636719-12.484375-12.539062-12.464844-6.90625.019531-12.484375 5.636719-12.464844 12.539063.019531 6.90625 5.632813 12.484374 12.539063 12.464843s12.484374-5.632812 12.464843-12.539062zm0 0"/><path d="m511.933594 467.679688c-.074219-24.917969-5.714844-48.800782-16.734375-71.039063 2.539062-3.355469 4.875-7.097656 6.921875-11.292969 8.394531-17.222656 3.296875-37.765625-11.113282-50.679687 9.792969-13.015625 15.171876-29.027344 15.171876-45.375 0-18.398438-6.554688-35.78125-18.53125-49.519531.011718-.007813.023437-.019532.03125-.027344 9.480468-9.535156 14.679687-22.195313 14.636718-35.640625-.066406-22.996094-15.632812-42.378907-36.75-48.308594 8.296875-5.804687 15.488282-15.535156 19.828125-27.320313 8.390625-22.808593-8.734375-48.914062-9.46875-50.011718-1.808593-2.71875-5.171875-3.953125-8.308593-3.058594-.546876.15625-6.441407 1.882812-13.632813 5.625-23.308594-49.453125-72.714844-81.03125-127.859375-81.03125-54.679688 0-104.363281 31.566406-127.730469 80.753906-6.945312-3.546875-12.558593-5.195312-13.09375-5.347656-3.140625-.894531-6.5.339844-8.308593 3.054688-.734376 1.101562-17.859376 27.203124-9.46875 50.011718 4.453124 12.101563 11.789062 21.914063 20.269531 27.644532-22.234375 5.269531-38.804688 25.308593-38.730469 49.125.074219 25.734374 19.558594 46.953124 44.519531 49.839843.679688 6.867188 1.890625 13.664063 3.632813 20.320313 1.050781 4.011718 5.152344 6.414062 9.167968 5.363281 4.011719-1.050781 6.414063-5.15625 5.363282-9.167969-2.480469-9.488281-3.757813-19.308594-3.785156-29.179687l-.1875-73.84375h234.722656l.183594 73.136719c.195312 64.710937-52.296876 117.515624-117.007813 117.710937-.121094 0-.234375 0-.355469 0-32.769531 0-63.417968-13.648437-85.324218-36.941406-.3125-.421875-.667969-.804688-1.050782-1.144531-6.679687-7.292969-12.527344-15.488282-17.320312-24.492188-1.949219-3.664062-6.5-5.046875-10.160156-3.101562-3.660157 1.949218-5.050782 6.496093-3.101563 10.160156 3.914063 7.347656 8.453125 14.214844 13.511719 20.570312-16.664063 8.707032-31.609375 20.175782-44.246094 33.839844l-27.730469-43.273438c1.640625-.726562 3.222657-1.613281 4.710938-2.691406 6.195312-4.488281 10.085937-11.40625 10.671875-18.984375.171875-2.210937.027344-4.371093-.421875-6.414062-1.878907-8.503907-6.898438-16.476563-12.214844-24.917969-2.53125-4.019531-5.152344-8.179688-7.359375-12.335938-1.890625-3.566406-6.265625-5.089843-9.941406-3.46875-2.640625 1.152344-5.398438 2.300782-8.0625 3.410157-5.246094 2.183593-10.371094 4.320312-15.042969 6.644531l-19.875-31.015625-36.390625-56.777344c-1.085938-1.699219-2.8125-2.886719-4.785156-3.296875-1.972656-.414062-4.03125-.015625-5.707032 1.105469l-23.335937 15.578125c-3.402344 2.273438-4.359375 6.855469-2.152344 10.300781l16.863281 26.3125-13.449218 8.980469c-23.863282 15.933594-30.589844 48.683594-15 73.007812l25.265625 39.417969c-13.082031 7.714844-21.882813 21.941407-21.882813 38.195313 0 20.816406 14.433594 38.316406 33.820313 43.042968l22.09375 22.097657-29.222657 27.125c-1.550781 1.4375-2.402343 3.441406-2.402343 5.507812 0 .554688.0625 1.117188.191406 1.667969.597656 2.617188 2.542969 4.714844 5.109375 5.507812l47.996094 14.792969c.726562.222657 1.472656.332031 2.210937.332031 1.871094 0 3.703125-.699218 5.113281-2.003906 1.546876-1.441406 2.398438-3.445312 2.398438-5.507812 0-.558594-.0625-1.117188-.1875-1.671875l-4.308594-18.851563 24.175782 24.175782c1.40625 1.410156 3.316406 2.199218 5.308593 2.199218h282.703125c.007813 0 .015625.003906.027344.003906.007812 0 .015625-.003906.023438-.003906h97.65625c1.992187 0 3.90625-.792968 5.316406-2.207031s2.199218-3.332031 2.191406-5.328125zm-453.703125 4.835937 17.738281-16.46875 5.394531 23.597656zm430.390625-93.753906c-13.117188 26.910156-39.183594 28.941406-47.773438 28.847656-5.390625-6.734375-19.816406-28.511719-6.707031-55.402344 6.640625-13.625 24.261719-18.75 39.28125-11.429687 15.019531 7.324218 21.839844 24.363281 15.199219 37.984375zm-1.324219-174.613281c.050781 17.566406-12.792969 32.207031-29.601563 34.957031l-.171874-69.730469c16.777343 2.652344 29.71875 17.226562 29.773437 34.773438zm-76.628906-99.496094h-22.082031c.550781-8.054688 5.777343-15.515625 10.152343-20.417969 2.179688-2.4375 4.375-4.507813 6.203125-6.101563 1.730469 1.703126 3.792969 3.902344 5.816406 6.476563 4.050782 5.140625 8.789063 12.871094 8.875 20.917969-2.90625-.570313-5.902343-.875-8.964843-.875zm-73.828125 0c.550781-8.054688 5.777344-15.515625 10.152344-20.417969 2.175781-2.433594 4.363281-4.496094 6.191406-6.089844 5.429687 5.367188 14.132812 15.613281 14.683594 26.507813zm-51.792969 0c.402344-7.726563 4.953125-15.089844 8.855469-20.046875 2.019531-2.5625 4.078125-4.757813 5.800781-6.460938 5.921875 5.171875 15.601563 15.285157 16.363281 26.507813zm-45.527344 0c-2.101562 0-4.183593.148437-6.234375.421875.253906-7.882813 4.898438-15.421875 8.871094-20.46875 2.019531-2.5625 4.074219-4.757813 5.800781-6.460938 5.921875 5.171875 15.601563 15.285157 16.363281 26.507813zm226.746094-12.800782c3.636719 7.167969 9.011719 20.609376 5.027344 31.433594-3.625 9.859375-9.277344 16.703125-14.492188 20.304688-.09375-.550782-.183593-1.101563-.296875-1.644532-2.152344-10.351562-7.746094-19.457031-15.511718-26.085937.328124-1.113281.691406-2.222656 1.097656-3.320313 2.882812-7.839843 10.496094-13.496093 16.378906-16.867187 2.832031-1.621094 5.558594-2.886719 7.796875-3.820313zm-140.140625-76.828124c50 0 94.734375 29.035156 115.175781 74.339843-2.753906 2.296875-5.367187 4.90625-7.636719 7.859375-4.515624-19.597656-22.90625-34.132812-23.804687-34.835937-2.578125-2.003907-6.15625-2.113281-8.851563-.273438-.804687.550781-14.9375 10.367188-22.621093 25.214844-6.953125-14.421875-19.535157-24.363281-20.273438-24.941406-2.578125-2.003907-6.15625-2.113281-8.851562-.273438-.8125.554688-15.164063 10.523438-22.804688 25.566407-7.640625-15.042969-21.996093-25.011719-22.804687-25.566407-2.699219-1.84375-6.273438-1.730469-8.851563.273438-.738281.578125-13.320312 10.519531-20.273437 24.9375-7.6875-14.84375-21.816406-24.660157-22.621094-25.210938-2.699219-1.84375-6.273438-1.730469-8.851562.273438-.902344.703125-19.289063 15.238281-23.804688 34.835937-2.402344-3.121094-5.183594-5.863281-8.109375-8.25 20.523437-44.976562 65.457031-73.949218 114.984375-73.949218zm-144.503906 108.261718c-2.882813-7.835937-.753906-17.082031 1.542968-23.460937 1.105469-3.070313 2.359376-5.800781 3.460938-7.960938 7.414062 3.101563 20.21875 9.851563 24.203125 20.675781.1875.507813.351563 1.023438.523437 1.535157-1.738281 1.316406-3.402343 2.757812-4.972656 4.328125-6.484375 6.503906-10.816406 14.578125-12.65625 23.359375-4.488281-3.863281-8.996094-10.039063-12.101562-18.476563zm-17.535156 81.910156c-.050782-17.238281 12.324218-31.660156 28.671874-34.785156l.175782 69.394532c-16.351563-3.039063-28.796875-17.382813-28.847656-34.609376zm278.375-51.640624h-234.722657l-.003906-2.011719c-.003906-1.0625.042969-2.117188.144531-3.164063.699219-7.3125 3.878906-14.097656 9.136719-19.367187.375-.375.757813-.738281 1.148437-1.097657 3.117188-2.835937 6.710938-4.984374 10.589844-6.378906.15625-.046875.3125-.09375.460938-.152344 3.273437-1.121093 6.742187-1.707031 10.304687-1.707031h32.320313.015625 51.589843.019532.011718 87.1875c17.484376 0 31.746094 14.222657 31.789063 31.707031v.035157zm14.675781 100.78125c6.503906-.65625 12.734375-2.5625 18.421875-5.582032 10.078125 11.132813 15.597656 25.410156 15.597656 40.539063 0 13.664062-4.4375 26.507812-12.820312 37.21875-15.066407-6.65625-31.75-4.90625-44.019532 3.398437-2.226562-1.367187-4.496094-2.671875-6.785156-3.933594 16.9375-20.519531 27.175781-45.292968 29.605469-71.640624zm-307.707031 214.429687c-.003907-1.605469-.027344-2.75-.050782-3.699219-.035156-1.488281-.050781-2.324218.054688-3.828125 6.753906-1.242187 13.246094-3.851562 19.136718-7.785156l13.214844-8.828125 23.492188 36.65625c.042968.066406.097656.128906.144531.199219h-55.953125zm40.875-38.6875c-1.089844-1.695313-2.8125-2.886719-4.789063-3.296875-1.972656-.414062-4.03125-.015625-5.707031 1.105469l-19.582032 13.074219c-8.128906 5.429687-17.886718 7.316406-27.476562 5.3125-9.730469-2.035157-18.0625-7.796876-23.464844-16.230469l-6.070312-9.46875c9.789062-2.902344 18.171875-9.097657 23.863281-17.304688 6.183594 5.882813 13.871094 9.945313 22.417969 11.734375 12.167968 2.542969 24.554687.144532 34.878906-6.746094l5.195312-3.472656 35.0625 54.707032-10.839843 7.238281zm-114.265626.246094-7.925781-7.921875h10.367188zm99.996094-34.5625c-3.011718 2.011719-6.289062 3.453125-9.699218 4.300781 2.957031-5.605469 6.25-10.992188 9.867187-16.136719l5.261719 8.210938zm-26.242187 3.820312c-6.425781-1.960937-11.988281-5.902343-16.023438-11.351562.765625-3.261719 1.1875-6.652344 1.1875-10.140625 0-13.898438-6.4375-26.316406-16.480469-34.449219l9.070313-29.433594c1.722656.917969 3.558594 1.644531 5.496094 2.164063.164062.390625.359375.773437.59375 1.140625l33.878906 52.863281c-6.867187 9.03125-12.820313 18.808594-17.722656 29.207031zm-16.738281-136.074219c.746093-.3125 1.5-.625 2.257812-.941406 1.519531 2.550782 3.085938 5.035156 4.617188 7.472656 4.601562 7.300782 8.945312 14.203126 10.261718 20.148438.132813.601562.167969 1.285156.113282 2.023438-.246094 3.171874-1.886719 6.074218-4.507813 7.972656-2.574219 1.863281-5.640625 2.484375-8.628906 1.753906-2.886719-.707031-5.277344-2.511719-6.734375-5.085938-.023438-.046874-.054688-.082031-.082032-.128906-.125-.207031-.257812-.410156-.398437-.605468-.046875-.0625-.09375-.128907-.140625-.191407-.183594-.234375-.375-.457031-.585938-.667969-.042968-.042968-.085937-.078124-.128906-.121093-.175781-.164063-.355468-.328125-.546875-.476563-.070312-.054687-.140625-.109375-.210937-.160156-.1875-.136719-.382813-.265625-.585938-.386719-.054687-.035156-.113281-.074219-.167968-.105469-.257813-.144531-.523438-.277343-.800782-.390624-.058594-.023438-.117187-.042969-.175781-.066407-.164063-.0625-.328125-.128906-.5-.179687-.054687-.019532-.109375-.027344-.164063-.042969-.097656-.027344-.191406-.050781-.289062-.074219-.207031-.046875-.414062-.089844-.621094-.121094-.089844-.015624-.175781-.027343-.261718-.039062-.289063-.035156-.582032-.058594-.871094-.058594-.003906 0-.007813 0-.011719 0-.269531 0-.535156.015625-.800781.042969-.070313.011719-.140625.023437-.210938.035156-.191406.023438-.382812.054688-.574218.097657-.089844.019531-.183594.046874-.273438.070312-.171875.042969-.339844.089844-.507812.144531-.089844.03125-.179688.066407-.273438.097657-.175781.066406-.34375.140624-.515625.21875-.050781.023437-.105469.042968-.160156.066406-2.4375 1.207031-5.210938 1.425781-7.804688.628906-2.710937-.835938-4.929687-2.675781-6.253906-5.179688-1.324219-2.503906-1.59375-5.375-.761719-8.082031.300782-.976562.816406-2.011719 1.578125-3.160156 3.476563-5.25 15.292969-10.167969 25.722657-14.507813zm-39.816407 32.773438c3.199219 6.050781 8.5625 10.496094 15.105469 12.511719 1.59375.492187 3.214844.820312 4.84375.996093l-8.136719 26.40625c-1.859375-.640624-3.769531-1.167968-5.726562-1.558593l-29.816407-46.523438c-9.585937-14.953125-5.488281-35.0625 9.136719-44.828125l5.195313-3.46875 15.734375 24.550782c-1.859375 1.644531-3.480469 3.414062-4.769531 5.359374-1.5625 2.363282-2.679688 4.660157-3.40625 7.023438-2.011719 6.542969-1.363282 13.480469 1.839843 19.53125zm-72.1875-3.910156c-11.207031-17.480469-6.410156-40.992188 10.691407-52.410156l19.578124-13.074219c3.40625-2.273438 4.363282-6.851563 2.15625-10.296875l-16.867187-26.3125 10.839844-7.238282 28.285156 44.128907-5.429687 3.625c-21.382813 14.277343-27.414063 43.625-13.445313 65.421875l24.074219 37.5625h-24.835938c-2.746094 0-5.425781.261718-8.035156.742187zm5.753907 85.71875c0-16.152344 13.140624-29.292969 29.292968-29.292969h34.546875c16.152344 0 29.289063 13.140625 29.289063 29.292969 0 16.148437-13.136719 29.289062-29.289063 29.289062h-1.972656c-.023437 0-.046875 0-.070313 0h-32.503906c-16.152344 0-29.292968-13.140625-29.292968-29.289062zm61.5 64.503906-.136719-.613281 3.546875-11.511719 4.921875 7.679688c7.597656 11.855468 19.332031 19.960937 33.039062 22.828124 1.558594.324219 3.125.570313 4.6875.75-.050781 1.269532-.035156 2.3125-.003906 3.679688.019531.875.046875 1.929688.050781 3.402344l.035156 12.671875h-7.253906zm319.644531 38.886719c-24.035157-7.226563-48.089844-22.835938-67.839844-44.074219-2.824219-3.035156-7.574219-3.207031-10.613281-.382812-3.039063 2.824218-3.210938 7.574218-.386719 10.613281 12.625 13.574219 26.929687 25.046875 41.949219 33.84375h-152.300782l20.347657-13.585938c3.402343-2.273437 4.363281-6.855469 2.152343-10.300781l-33.222656-51.835938-22-34.328124c12.839844-14.640626 28.515625-26.695313 46.210938-35.367188 15.636718 15.519531 34.859375 26.878906 55.953125 33.054688 2.523437 16.695312 9.273437 34.195312 19.722656 50.953124 1.425781 2.285157 3.875 3.539063 6.382813 3.539063 1.355468 0 2.730468-.367187 3.964843-1.136719 3.519531-2.195312 4.59375-6.828125 2.398438-10.347656-8.136719-13.050781-13.753907-26.488281-16.542969-39.398438 6.9375 1.125 14.019531 1.71875 21.191406 1.71875h.398438c34.238281-.101562 66.527344-13.25 91.265625-37.078124 2.15625 1.117187 4.292969 2.289062 6.398437 3.515624-1.007812 1.5-1.929687 3.078126-2.742187 4.742188-16.171875 33.171875.285156 63.273438 11.242187 74.554688 1.222656 1.257812 2.84375 2.046874 4.585938 2.234374 1.585937.171876 3.359375.269532 5.285156.269532 11.417969 0 28.113281-3.394532 42.257812-14.589844 8.496094 18.789062 12.84375 38.8125 12.90625 59.632812l.039063 13.753907zm0 0"/><path d="m325.207031 297.441406c9.730469-.027344 19.015625-3.683594 26.152344-10.289062 3.042969-2.820313 3.226563-7.574219.40625-10.617188-2.820313-3.042968-7.570313-3.226562-10.613281-.40625-4.363282 4.039063-10.042969 6.273438-15.992188 6.292969-.023437 0-.046875 0-.070312 0-5.925782 0-11.589844-2.199219-15.960938-6.199219-3.058594-2.800781-7.808594-2.589844-10.609375.46875s-2.59375 7.8125.46875 10.613282c7.144531 6.539062 16.410157 10.136718 26.101563 10.136718zm0 0"/></svg>