<?xml version="1.0" encoding="iso-8859-1"?>
<!-- Generator: Adobe Illustrator 21.0.0, SVG Export Plug-In . SVG Version: 6.00 Build 0)  -->
<svg xmlns="http://www.w3.org/2000/svg" xmlns:xlink="http://www.w3.org/1999/xlink" version="1.1" id="Capa_1" x="0px" y="0px" viewBox="0 0 512 512" style="enable-background:new 0 0 512 512;" xml:space="preserve" width="512" height="512">
<g>
	<g>
		<path style="fill:#BBDCFF;" d="M127.226,162.466l-36.006,241c-0.747,4.351,0.469,8.818,3.311,12.202    C97.387,419.052,101.576,421,106,421h120l-12.202-271L127.226,162.466z"/>
		<path style="fill:#BBDCFF;" d="M384.774,162.466L298.202,150L286,421h120c4.424,0,8.613-1.948,11.47-5.332    c2.842-3.384,4.058-7.852,3.311-12.202L384.774,162.466z"/>
	</g>
	<path style="fill:#FDBF00;" d="M435.099,225c-0.899,12.9-7.2,24.899-17.699,32.699c0,0-98.401,72.301-101.4,72.301H196   c-2.999,0-101.4-72.301-101.4-72.301C84.101,249.899,77.8,237.9,76.901,225c-0.901-13.2,3.6-25.8,12.9-35.101l65.7-65.4   c1.199-1.5,2.999-2.699,4.799-3.3c1.8-0.899,3.6-1.199,5.7-1.199h23.699l55.801,25.499h20.999L322.301,120H346   c2.1,0,3.9,0.3,5.7,1.199c1.8,0.601,3.6,1.8,4.799,3.3l65.7,65.4C431.499,199.2,436,211.8,435.099,225z"/>
	<path style="fill:#FF9100;" d="M435.099,225c-0.899,12.9-7.2,24.899-17.699,32.699c0,0-98.401,72.301-101.4,72.301h-60V145.499   h10.499L322.301,120H346c2.1,0,3.9,0.3,5.7,1.199c1.8,0.601,3.6,1.8,4.799,3.3l65.7,65.4C431.499,199.2,436,211.8,435.099,225z"/>
	<path style="fill:#7C8388;" d="M322.301,120l-55.801,55.499C263.8,178.5,259.9,180,256,180s-7.8-1.5-10.499-4.501L189.699,120   H322.301z"/>
	<path style="fill:#FFCEBF;" d="M256,0c-32.999,0-60,26.999-60,60c0,32.999,27.001,60,60,60s60-27.001,60-60   C316,26.999,288.999,0,256,0z"/>
	<path style="fill:#FFB99C;" d="M256,120V0c32.999,0,60,26.999,60,60C316,92.999,288.999,120,256,120z"/>
	<path style="fill:#575F64;" d="M316,482v-30l-30-31l-30,31l-30,17.812L256,482c0,16.567,13.431,30,30,30S316,498.567,316,482z"/>
	<path style="fill:#7C8388;" d="M256,482v-30l-25.313-31L196,452v30c0,16.567,13.431,30,30,30S256,498.567,256,482z"/>
	<polygon style="fill:#FDBF00;" points="316,330 316,452 196,452 196,330 256,300  "/>
	<polygon style="fill:#FF9100;" points="256,300 316,330 316,452 256,452  "/>
	<path style="fill:#575F64;" d="M322.301,120l-55.801,55.499C263.8,178.5,259.9,180,256,180v-60H322.301z"/>
	<path style="fill:#FF9100;" d="M210.985,276c-3.135,0-6.284-0.981-8.979-3.003l-28.652-21.489   c-6.636-4.966-7.983-14.37-3.003-20.991c4.966-6.636,14.385-7.954,20.991-3.003l28.652,21.489   c6.636,4.966,7.983,14.37,3.003,20.991C220.053,273.935,215.556,276,210.985,276z"/>
	<path style="fill:#FF641A;" d="M301.015,276c-4.57,0-9.067-2.065-12.012-6.006c-4.98-6.621-3.633-16.025,3.003-20.991   l28.652-21.489c6.606-4.98,16.025-3.662,20.991,3.003c4.98,6.621,3.633,16.025-3.003,20.991l-28.652,21.489   C307.299,275.019,304.149,276,301.015,276z"/>
	<path style="fill:#FF9100;" d="M226,270v-75c0-8.286-6.716-15-15-15s-15,6.714-15,15v75l18.281,30L226,270z"/>
	<path style="fill:#FF641A;" d="M316,270v-75c0-8.286-6.716-15-15-15s-15,6.714-15,15v75l18.281,30L316,270z"/>
	<rect x="196" y="270" style="fill:#7C8388;" width="120" height="60"/>
	<rect x="256" y="270" style="fill:#575F64;" width="60" height="60"/>
</g>















</svg>
