<svg height="511pt" viewBox="-90 1 511 511.9995" width="511pt" xmlns="http://www.w3.org/2000/svg"><path d="m332.484375 191.097656c-19.054687 4.636719-41.894531-35.023437-41.894531-67.992187h-247.90625c0 32.96875-22.835938 72.628906-41.894532 67.992187-3.09375 20.605469 19.257813 29.355469 39.761719 28.070313 4.816407 16.3125-.101562 50.398437-11.949219 61.128906 16.765626 5.0625 57.691407 7.441406 79.839844-26.972656h116.390625c22.148438 34.414062 63.074219 32.035156 79.839844 26.972656-11.847656-10.730469-16.765625-44.8125-11.949219-61.128906 20.503906 1.285156 42.851563-7.464844 39.761719-28.070313zm0 0" fill="#52668e"/><path d="m324.636719 396.914062v69.582032c0 5.523437-3.167969 10.539062-8.136719 12.957031-42.0625 20.46875-93.859375 32.546875-149.875 32.546875-56.011719 0-107.808594-12.078125-149.871094-32.546875-4.96875-2.414063-8.136718-7.433594-8.136718-12.957031v-69.582032c0-9.167968 5.417968-17.46875 13.808593-21.171874l70.378907-31.019532c8.234374-3.625 13.554687-11.792968 13.554687-20.792968v-75.839844h120.539063v75.839844c0 9 5.320312 17.167968 13.554687 20.792968l70.375 31.019532c8.390625 3.703124 13.808594 12.003906 13.808594 21.171874zm0 0" fill="#c98c4f"/><path d="m310.828125 375.746094-70.378906-31.023438c-8.234375-3.625-13.554688-11.792968-13.554688-20.792968v-75.839844h-120.539062v18.570312h98.933593v75.839844c0 9 5.320313 17.167969 13.554688 20.792969l70.378906 31.019531c8.390625 3.703125 13.808594 12.003906 13.808594 21.171875v69.582031c0 .171875-.011719.34375-.019531.515625 4.597656-1.949219 9.097656-3.988281 13.488281-6.125 4.96875-2.417969 8.136719-7.433593 8.136719-12.960937v-69.582032c0-9.167968-5.417969-17.46875-13.808594-21.167968zm0 0" fill="#af6a3a"/><path d="m227.726562 329.96875c-.535156-1.941406-.828124-3.964844-.828124-6.039062v-75.839844h-120.542969v61.347656c18.183593 21.050781 40.976562 36.632812 58.050781 36.632812h26.722656c10.785156 0 23.851563-6.21875 36.597656-16.101562zm0 0" fill="#af6a3a"/><path d="m324.636719 396.917969v69.578125c0 5.523437-3.175781 10.539062-8.140625 12.960937-42.0625 20.46875-93.859375 32.542969-149.871094 32.542969-56.007812 0-107.804688-12.074219-149.871094-32.542969-4.964844-2.421875-8.136718-7.4375-8.136718-12.960937v-69.578125c0-9.167969 5.417968-17.472657 13.804687-21.167969l70.382813-31.03125c3.398437-1.492188 6.292968-3.761719 8.527343-6.542969 7.636719 22.398438 33.976563 38.910157 65.292969 38.910157 31.320312 0 57.660156-16.511719 65.292969-38.910157 2.238281 2.78125 5.132812 5.050781 8.53125 6.542969l70.382812 31.03125c8.386719 3.695312 13.804688 12 13.804688 21.167969zm0 0" fill="#f46a58"/><path d="m89.804688 504.117188 90.433593-19.070313c4.175781-.878906 6.847657-4.976563 5.96875-9.152344-.882812-4.175781-4.984375-6.84375-9.15625-5.96875l-120.488281 25.410157c10.6875 3.425781 21.789062 6.367187 33.242188 8.78125zm0 0" fill="#233b5e"/><path d="m310.832031 375.75-30.148437-13.292969c-42.984375-18.960937-43.96875-18.582031-48.445313-23.90625-.105469-.125-.214843-.246093-.320312-.375-2.996094 8.792969-8.882813 16.671875-16.816407 23.007813 1.167969.808594 2.414063 1.523437 3.742188 2.109375l70.378906 31.019531c8.390625 3.703125 13.808594 12.003906 13.808594 21.171875-.003906 23.054687.007812 69.292969-.019531 70.097656 3.847656-1.632812 11.894531-5.234375 14.144531-6.472656 4.582031-2.53125 7.480469-7.339844 7.480469-12.609375v-69.578125c0-9.171875-5.417969-17.476563-13.804688-21.171875zm0 0" fill="#bc4242"/><path d="m277.652344 464.417969v30.609375c13.671875-4.429688 26.667968-9.644532 38.84375-15.570313 4.976562-2.421875 8.144531-7.4375 8.144531-12.957031v-23.53125zm0 0" fill="#c98c4f"/><path d="m319.929688 477.125c2.898437-2.640625 4.707031-6.484375 4.707031-10.628906v-23.527344l-21.605469 9.863281c0 17.191407 0 32.292969-.019531 32.746094 3.726562-1.578125 14.136719-5.921875 16.917969-8.453125zm0 0" fill="#af6a3a"/><g fill="#c98c4f"><path d="m55.601562 464.417969-46.988281-21.449219v23.53125c0 5.519531 3.167969 10.535156 8.140625 12.953125 12.175782 5.925781 25.175782 11.144531 38.847656 15.574219zm0 0"/><path d="m275.730469 184.949219h-29.15625v60.269531h29.15625c12.765625 0 23.117187-10.347656 23.117187-23.117188v-14.039062c0-12.765625-10.351562-23.113281-23.117187-23.113281zm0 0"/><path d="m57.519531 184.949219h29.15625v60.269531h-29.15625c-12.765625 0-23.113281-10.347656-23.113281-23.117188v-14.039062c0-12.765625 10.347656-23.113281 23.113281-23.113281zm0 0"/><path d="m268.5 222.839844c0 43.550781-55.164062 102.972656-88.511719 102.972656h-26.722656c-33.347656 0-88.511719-59.421875-88.511719-102.972656l.09375-118.878906h203.558594zm0 0"/></g><path d="m268.40625 103.964844h-23.460938l.09375 118.875c0 43.550781-55.164062 102.972656-88.511718 102.972656h23.460937c33.347657 0 88.511719-59.417969 88.511719-102.972656zm0 0" fill="#af6a3a"/><path d="m122.191406 210.953125c-4.265625 0-7.722656-3.460937-7.722656-7.726563v-3.199218c0-4.269532 3.457031-7.726563 7.722656-7.726563 4.269532 0 7.726563 3.457031 7.726563 7.726563v3.199218c0 4.265626-3.457031 7.726563-7.726563 7.726563zm0 0" fill="#233b5e"/><path d="m211.0625 210.953125c-4.269531 0-7.726562-3.460937-7.726562-7.726563v-3.199218c0-4.269532 3.457031-7.726563 7.726562-7.726563 4.265625 0 7.722656 3.457031 7.722656 7.726563v3.199218c0 4.265626-3.457031 7.726563-7.722656 7.726563zm0 0" fill="#233b5e"/><path d="m227.347656 181.449219c-1.144531 0-2.304687-.253907-3.402344-.792969-9.191406-4.511719-18.125-4.511719-27.316406 0-3.828125 1.882812-8.457031.300781-10.339844-3.53125-1.878906-3.832031-.296874-8.460938 3.53125-10.339844 13.582032-6.664062 27.355469-6.664062 40.933594 0 3.832032 1.878906 5.414063 6.507813 3.535156 10.339844-1.34375 2.734375-4.089843 4.324219-6.941406 4.324219zm0 0" fill="#233b5e"/><path d="m140.019531 181.449219c-1.140625 0-2.300781-.253907-3.398437-.792969-9.1875-4.511719-18.125-4.511719-27.316406 0-3.828126 1.882812-8.457032.300781-10.339844-3.53125-1.878906-3.828125-.296875-8.460938 3.53125-10.339844 13.582031-6.664062 27.355468-6.664062 40.933594 0 3.832031 1.878906 5.414062 6.511719 3.53125 10.339844-1.339844 2.734375-4.085938 4.324219-6.941407 4.324219zm0 0" fill="#233b5e"/><path d="m166.625 256.496094c-9.566406 0-18.851562-2.933594-26.847656-8.476563-3.507813-2.433593-4.378906-7.246093-1.949219-10.753906s7.242187-4.378906 10.75-1.945313c5.402344 3.742188 11.640625 5.71875 18.046875 5.71875s12.648438-1.976562 18.046875-5.71875c3.507813-2.433593 8.320313-1.558593 10.753906 1.945313 2.429688 3.507813 1.554688 8.320313-1.949219 10.753906-8 5.542969-17.285156 8.476563-26.851562 8.476563zm0 0" fill="#874d26"/><path d="m282.953125 132.835938c-8.832031 16.75-22.0625 30.78125-45.828125 22.894531-25.386719-8.429688-38.539062-19.765625-70.5-19.765625-31.957031 0-45.109375 11.335937-70.496094 19.765625-23.765625 7.886719-36.996094-6.144531-45.828125-22.894531 74.179688-32.207032 158.472657-32.207032 232.652344 0zm0 0" fill="#bdc3c6"/><path d="m235.359375 116.898438c3.765625 2.265624 7.507813 4.675781 11.214844 7.242187-4.019531 12.160156-9.125 23.246094-16.117188 29.21875 2.136719.808594 4.347657 1.601563 6.664063 2.371094 23.769531 7.886719 37-6.144531 45.832031-22.894531-15.484375-6.722657-31.410156-12.019532-47.59375-15.9375zm0 0" fill="#959c9e"/><path d="m33.960938 119.800781c-1.238282-16.871093-.84375-52.636719 6.917968-67.667969 9.457032-18.320312 51.0625-43.050781 72.183594-47.761718 26.140625-5.828125 80.988281-5.828125 107.128906 0 21.121094 4.710937 62.722656 29.441406 72.183594 47.761718 7.757812 15.03125 8.152344 50.796876 6.914062 67.667969-.269531 3.675781-.15625 12.613281-.066406 17.460938.027344 1.484375-1.527344 2.453125-2.855468 1.796875-4.433594-2.195313-8.902344-4.269532-13.414063-6.222656-74.179687-32.207032-158.472656-32.207032-232.652344 0-4.511719 1.949218-8.984375 4.027343-13.414062 6.222656-1.328125.65625-2.882813-.3125-2.855469-1.796875.085938-4.851563.199219-13.785157-.070312-17.460938zm0 0" fill="#e6eff5"/><path d="m292.375 52.132812c-9.460938-18.320312-51.0625-43.050781-72.183594-47.761718-14.542968-3.242188-37.96875-4.679688-60.398437-4.3125002 16.144531.2890622 31.714843 1.7265622 42.179687 4.3125002 19.058594 4.710937 56.605469 29.441406 65.140625 47.761718 7.003907 15.03125 7.363281 50.792969 6.242188 67.664063-.128907 1.976563-.160157 5.472656-.148438 9.039063 3.265625 1.277343 6.519531 2.597656 9.746094 3.996093 4.511719 1.953125 8.984375 4.03125 13.414063 6.222657 1.328124.660156 2.882812-.308594 2.855468-1.792969-.089844-4.851563-.203125-13.789063.066406-17.464844 1.238282-16.867187.84375-52.632813-6.914062-67.664063zm0 0" fill="#b4cbdb"/><path d="m277.652344 361.121094-37.203125-16.402344c-.308594-.136719-.613281-.285156-.914063-.4375-15.933594 36.070312-45.414062 94.082031-83.007812 128.917969-15.371094 14.242187-8.851563 28.574219 5.175781 38.765625 1.640625.023437 3.277344.035156 4.921875.035156 39.800781 0 77.464844-6.101562 111.027344-16.972656zm0 0" fill="#52668e"/><path d="m277.652344 389.210938v-28.089844c-10.835938-4.769532-34.441406-15.019532-38.117188-16.839844-3.113281 7.050781-6.753906 14.949219-10.863281 23.339844zm0 0" fill="#233b5e"/><path d="m173.4375 455.457031c-5.425781 6.359375-11.070312 12.332031-16.910156 17.742188-15.371094 14.242187-8.851563 28.574219 5.175781 38.765625 1.636719.023437 3.277344.035156 4.921875.035156 15.136719 0 29.960938-.886719 44.371094-2.582031-1.011719-24.34375-16.210938-45.019531-37.558594-53.960938zm0 0" fill="#e6eff5"/><path d="m55.601562 495.027344v-48.960938c0-4.265625-3.457031-7.726562-7.726562-7.726562-4.265625 0-7.726562 3.460937-7.726562 7.726562v43.507813c5.046874 1.933593 10.199218 3.75 15.453124 5.453125zm0 0" fill="#bc4242"/><path d="m293.101562 489.574219v-43.507813c0-4.265625-3.457031-7.726562-7.726562-7.726562-4.265625 0-7.722656 3.460937-7.722656 7.726562v48.960938c5.253906-1.703125 10.40625-3.519532 15.449218-5.453125zm0 0" fill="#bc4242"/></svg>