<?xml version="1.0" encoding="utf-8"?>
<!-- Svg Vector Icons : http://www.onlinewebfonts.com/icon -->
<!DOCTYPE svg PUBLIC "-//W3C//DTD SVG 1.1//EN" "http://www.w3.org/Graphics/SVG/1.1/DTD/svg11.dtd">
<svg version="1.1" xmlns="http://www.w3.org/2000/svg" xmlns:xlink="http://www.w3.org/1999/xlink" x="0px" y="0px" viewBox="0 0 1000 1000" enable-background="new 0 0 1000 1000" xml:space="preserve">
<metadata> Svg Vector Icons : http://www.onlinewebfonts.com/icon </metadata>
<g><path d="M500,10C229.8,10,10,229.8,10,500c0,270.2,219.8,490,490,490c270.2,0,490-219.8,490-490C990,229.8,770.2,10,500,10z M938.5,500c0,241.8-196.7,438.4-438.5,438.4C258.2,938.5,61.5,741.8,61.5,500C61.5,258.2,258.2,61.5,500,61.5S938.5,258.2,938.5,500z"/><path d="M485.6,313.5c15.1,0,27.9-5.4,38.5-16.2c10.6-10.8,15.9-23.7,15.9-38.8c0-15.1-5.3-27.9-15.9-38.5c-10.6-10.6-23.4-15.9-38.5-15.9c-15.4,0-28.4,5.3-39,15.9c-10.6,10.6-15.9,23.4-15.9,38.5c0,15.1,5.4,28,16.1,38.8C457.6,308.1,470.5,313.5,485.6,313.5z"/><path d="M535.6,380.9H395v23.5h60.2v360.9H395v22.3h200.8v-22.3h-60.1V380.9z"/></g>
</svg>