<?xml version="1.0" encoding="UTF-8" standalone="no" ?>
<!DOCTYPE svg PUBLIC "-//W3C//DTD SVG 1.1//EN" "http://www.w3.org/Graphics/SVG/1.1/DTD/svg11.dtd">
<svg xmlns="http://www.w3.org/2000/svg" xmlns:xlink="http://www.w3.org/1999/xlink" version="1.1" width="1080" height="1080" viewBox="0 0 1080 1080" xml:space="preserve">
<desc>Created with Fabric.js 4.2.0</desc>
<defs>
</defs>
<rect x="0" y="0" width="100%" height="100%" fill="transparent"></rect>
<g transform="matrix(1 0 0 1 540 540)" id="088ff5e9-cec8-4b99-9d85-4d7f1d684ffe"  >
<rect style="stroke: none; stroke-width: 1; stroke-dasharray: none; stroke-linecap: butt; stroke-dashoffset: 0; stroke-linejoin: miter; stroke-miterlimit: 4; fill: rgb(255,255,255); fill-opacity: 0; fill-rule: nonzero; opacity: 1;" vector-effect="non-scaling-stroke"  x="-540" y="-540" rx="0" ry="0" width="1080" height="1080" />
</g>
<g transform="matrix(1 0 0 1 540 540)" id="10e72e25-f349-42f5-adff-9246252ebd1e"  >
</g>
<g transform="matrix(2.03 0 0 2.03 540.24 540.24)"  >
<g style="opacity: 1;" vector-effect="non-scaling-stroke"   >
		<g transform="matrix(1 0 0 1 -82.72 82.73)"  >
<path style="stroke: none; stroke-width: 1; stroke-dasharray: none; stroke-linecap: butt; stroke-dashoffset: 0; stroke-linejoin: miter; stroke-miterlimit: 4; fill: rgb(214,214,214); fill-rule: nonzero; opacity: 1;" vector-effect="non-scaling-stroke"  transform=" translate(-173.28, -338.72)" d="M 346.553 201.001 L 268.277 356.956 C 268.082 357.336 267.788 357.64000000000004 267.43 357.858 L 22.152 500.704 L 3.2020000000000017 511.737 C 2.257000000000002 512.236 1.2690000000000017 511.976 0.6500000000000017 511.346 C 0.009000000000001673 510.705 -0.25199999999999834 509.685 0.3020000000000017 508.718 L 154.14 244.57 C 154.357 244.212 154.66099999999997 243.918 155.04199999999997 243.72299999999998 L 310.99799999999993 165.447 L 331.4789999999999 180.52 L 346.553 201.001 z" stroke-linecap="round" />
</g>
		<g transform="matrix(1 0 0 1 -100.5 82.73)"  >
<path style="stroke: none; stroke-width: 1; stroke-dasharray: none; stroke-linecap: butt; stroke-dashoffset: 0; stroke-linejoin: miter; stroke-miterlimit: 4; fill: rgb(179,179,179); fill-rule: nonzero; opacity: 1;" vector-effect="non-scaling-stroke"  transform=" translate(-155.5, -338.72)" d="M 310.998 165.446 L 169.015 257.91499999999996 L 30.447 495.87 L 3.202 511.738 C 2.257 512.237 1.269 511.977 0.6499999999999999 511.347 C 0.008999999999999897 510.70599999999996 -0.2520000000000001 509.686 0.30199999999999994 508.719 L 154.14 244.57 C 154.357 244.212 154.66099999999997 243.918 155.04199999999997 243.72299999999998 L 310.998 165.446 z" stroke-linecap="round" />
</g>
		<g transform="matrix(1 0 0 1 -82.4 90.26)"  >
<path style="stroke: none; stroke-width: 1; stroke-dasharray: none; stroke-linecap: butt; stroke-dashoffset: 0; stroke-linejoin: miter; stroke-miterlimit: 4; fill: rgb(201,201,201); fill-rule: nonzero; opacity: 1;" vector-effect="non-scaling-stroke"  transform=" translate(-173.6, -346.26)" d="M 346.553 201.001 L 268.277 356.956 C 268.082 357.336 267.788 357.64000000000004 267.43 357.858 L 138.62300000000002 432.876 L 3.647 511.477 L 3.202 511.73699999999997 C 2.257 512.236 1.269 511.97599999999994 0.6499999999999999 511.34599999999995 L 331.479 180.52 L 346.553 201.001 z" stroke-linecap="round" />
</g>
		<g transform="matrix(1 0 0 1 121.69 -121.7)"  >
<polygon style="stroke: none; stroke-width: 1; stroke-dasharray: none; stroke-linecap: butt; stroke-dashoffset: 0; stroke-linejoin: miter; stroke-miterlimit: 4; fill: rgb(247,85,52); fill-rule: nonzero; opacity: 1;" vector-effect="non-scaling-stroke"  points="66.69,-31.14 32.13,3.42 18.15,17.39 -3.24,38.79 -17.38,52.93 -31.14,66.69 -66.69,31.14 31.14,-66.69 " />
</g>
		<g transform="matrix(-0.71 0.71 -0.71 -0.71 110.83 -132.57)"  >
<rect style="stroke: none; stroke-width: 1; stroke-dasharray: none; stroke-linecap: butt; stroke-dashoffset: 0; stroke-linejoin: miter; stroke-miterlimit: 4; fill: rgb(189,57,30); fill-rule: nonzero; opacity: 1;" vector-effect="non-scaling-stroke"  x="-69.175" y="-9.775" rx="0" ry="0" width="138.35" height="19.55" />
</g>
		<g transform="matrix(1 0 0 1 202.28 -202.28)"  >
<path style="stroke: none; stroke-width: 1; stroke-dasharray: none; stroke-linecap: butt; stroke-dashoffset: 0; stroke-linejoin: miter; stroke-miterlimit: 4; fill: rgb(214,214,214); fill-rule: nonzero; opacity: 1;" vector-effect="non-scaling-stroke"  transform=" translate(-458.28, -53.72)" d="M 496.266 15.734 C 475.288 -5.2440000000000015 441.27500000000003 -5.2440000000000015 420.297 15.734 C 399.319 36.712 399.319 70.724 420.297 91.702 C 441.27500000000003 112.68 475.288 112.68 496.266 91.702 C 517.245 70.724 517.245 36.711 496.266 15.734 z M 476.411 71.847 C 466.399 81.859 450.165 81.859 440.153 71.847 C 430.141 61.834999999999994 430.141 45.601 440.153 35.58899999999999 C 450.165 25.576999999999984 466.399 25.57699999999999 476.411 35.58899999999999 C 486.423 45.601 486.423 61.835 476.411 71.847 z" stroke-linecap="round" />
</g>
		<g transform="matrix(1 0 0 1 -186.36 216.17)"  >
<path style="stroke: none; stroke-width: 1; stroke-dasharray: none; stroke-linecap: butt; stroke-dashoffset: 0; stroke-linejoin: miter; stroke-miterlimit: 4; fill: rgb(189,189,189); fill-rule: nonzero; opacity: 1;" vector-effect="non-scaling-stroke"  transform=" translate(-69.64, -472.18)" d="M 138.623 432.875 L 3.647 511.477 C 1.7239999999999998 511.39 0.6499999999999999 511.346 0.6499999999999999 511.346 L 50.409 461.587 L 138.623 432.875 z" stroke-linecap="round" />
</g>
</g>
</g>
<g transform="matrix(2.53 0 0 2.53 -566.36 810.67)" style="" id="b2afa9d8-36c5-4db4-8d49-c4d1a799d296"  >
		<text xml:space="preserve" font-family="Lato" font-size="40" font-style="normal" font-weight="400" style="stroke: none; stroke-width: 1; stroke-dasharray: none; stroke-linecap: butt; stroke-dashoffset: 0; stroke-linejoin: miter; stroke-miterlimit: 4; fill: rgb(0,0,0); fill-rule: nonzero; opacity: 1; white-space: pre;" ><tspan x="-14.68" y="12.57" >G</tspan></text>
</g>
<g transform="matrix(5.41 0 0 5.41 942.46 951.24)" style="filter: url(#SVGID_746);" id="f42727bd-bc40-4e3b-832d-5e77afda711c"  >
<filter id="SVGID_746" y="-27%" height="154%" x="-29%" width="158%" >
	<feGaussianBlur in="SourceAlpha" stdDeviation="2"></feGaussianBlur>
	<feOffset dx="0" dy="0" result="oBlur" ></feOffset>
	<feFlood flood-color="rgb(0,0,0)" flood-opacity="1"/>
	<feComposite in2="oBlur" operator="in" />
	<feMerge>
		<feMergeNode></feMergeNode>
		<feMergeNode in="SourceGraphic"></feMergeNode>
	</feMerge>
</filter>
		<text xml:space="preserve" font-family="Lato" font-size="51" font-style="normal" font-weight="400" style="stroke: none; stroke-width: 1; stroke-dasharray: none; stroke-linecap: butt; stroke-dashoffset: 0; stroke-linejoin: miter; stroke-miterlimit: 4; fill: rgb(0,255,0); fill-rule: nonzero; opacity: 1; white-space: pre;" ><tspan x="-18.72" y="16.02" >G</tspan></text>
</g>
</svg>