<svg id="icons" enable-background="new 0 0 64 64" height="512" viewBox="0 0 64 64" width="512" xmlns="http://www.w3.org/2000/svg"><path d="m24.5 3c-8.28 0-15 6.71-15 15v8.811l15-2.811 15 2.811v-8.811c0-8.29-6.72-15-15-15z" fill="#ccd1d9"/><path d="m29.5 62h-10c0-2.76 2.24-5 5-5s5 2.24 5 5z" fill="#ed5565"/><path d="m58.5 25v9h-10v-9h-4l9-11.01 9 11.01z" fill="#a0d468"/><path d="m13.5 17h7v3h-7z" fill="#656d78"/><path d="m28.5 17h7v3h-7z" fill="#656d78"/><path d="m9.5 26.811 15-2.811 15 2.811 1 .189v9l-8 4.5-8 4.5-8-4.5-8-4.5v-9z" fill="#e6e9ed"/><path d="m32.5 40.5v5.5l-8 4-8-4v-5.5l8 4.5z" fill="#ccd1d9"/><path d="m48.5 54v7c0 .55-.45 1-1 1h-4c-7-6-7-16-7-16h4c4.42 0 8 3.58 8 8z" fill="#e6e9ed"/><path d="m24.5 50 8-4h4s0 10 7 16h-14c0-2.76-2.24-5-5-5s-5 2.24-5 5h-14c7-6 7-16 7-16h4z" fill="#656d78"/><path d="m8.5 46h4s0 10-7 16h-4c-.55 0-1-.45-1-1v-7c0-4.42 3.58-8 8-8z" fill="#e6e9ed"/><path d="m39.5 19c-.553 0-1-.447-1-1 0-7.72-6.28-14-14-14s-14 6.28-14 14c0 .553-.447 1-1 1s-1-.447-1-1c0-8.822 7.178-16 16-16s16 7.178 16 16c0 .553-.447 1-1 1z" fill="#ccd1d9"/><path d="m9.5 27.813c-.553 0-1-.447-1-1v-8.813c0-.553.447-1 1-1s1 .447 1 1v8.813c0 .552-.447 1-1 1z" fill="#ccd1d9"/><path d="m39.5 27.813c-.553 0-1-.447-1-1v-8.813c0-.553.447-1 1-1s1 .447 1 1v8.813c0 .552-.447 1-1 1z" fill="#ccd1d9"/><path d="m24.5 21c-.553 0-1-.447-1-1v-13c0-.553.447-1 1-1s1 .447 1 1v13c0 .553-.447 1-1 1z" fill="#e6e9ed"/><path d="m24.5 41c-.553 0-1-.447-1-1v-11c0-.553.447-1 1-1s1 .447 1 1v11c0 .553-.447 1-1 1z" fill="#ccd1d9"/><path d="m29.5 38.188c-.553 0-1-.447-1-1v-7.188c0-.553.447-1 1-1s1 .447 1 1v7.188c0 .552-.447 1-1 1z" fill="#ccd1d9"/><path d="m34.5 35.375c-.553 0-1-.447-1-1v-3.5c0-.553.447-1 1-1s1 .447 1 1v3.5c0 .553-.447 1-1 1z" fill="#ccd1d9"/><path d="m19.5 38.188c-.553 0-1-.447-1-1v-7.188c0-.553.447-1 1-1s1 .447 1 1v7.188c0 .552-.447 1-1 1z" fill="#ccd1d9"/><path d="m14.5 35.375c-.553 0-1-.447-1-1v-3.5c0-.553.447-1 1-1s1 .447 1 1v3.5c0 .553-.447 1-1 1z" fill="#ccd1d9"/><path d="m40.5 37c-.553 0-1-.447-1-1v-9c0-.553.447-1 1-1s1 .447 1 1v9c0 .553-.447 1-1 1z" fill="#e6e9ed"/><path d="m20.5 21h-7c-.553 0-1-.447-1-1v-3c0-.553.447-1 1-1h7c.553 0 1 .447 1 1v3c0 .553-.447 1-1 1zm-6-2h5v-1h-5z" fill="#656d78"/><path d="m35.5 21h-7c-.553 0-1-.447-1-1v-3c0-.553.447-1 1-1h7c.553 0 1 .447 1 1v3c0 .553-.447 1-1 1zm-6-2h5v-1h-5z" fill="#656d78"/><path d="m24.5 50-1-.5v3.5c0 .553.447 1 1 1s1-.447 1-1v-3.5z" fill="#545c66"/><g fill="#a0d468"><path d="m62.501 26c-.29 0-.577-.125-.775-.367l-8.228-10.057-8.227 10.057c-.351.429-.979.49-1.407.142-.428-.351-.491-.98-.142-1.407l9.001-11.003c.381-.465 1.168-.465 1.549 0l9.002 11.003c.35.427.286 1.057-.142 1.407-.185.151-.408.225-.631.225z"/><path d="m48.498 35c-.553 0-1-.447-1-1v-9c0-.553.447-1 1-1s1 .447 1 1v9c0 .553-.447 1-1 1z"/><path d="m58.498 35h-10c-.553 0-1-.447-1-1s.447-1 1-1h10c.553 0 1 .447 1 1s-.447 1-1 1z"/><path d="m58.498 35c-.553 0-1-.447-1-1v-9c0-.553.447-1 1-1s1 .447 1 1v9c0 .553-.447 1-1 1z"/><path d="m58.499 38h-10.001c-.553 0-1-.447-1-1s.447-1 1-1h10.001c.553 0 1 .447 1 1s-.447 1-1 1z"/><path d="m58.499 41h-10.001c-.553 0-1-.447-1-1s.447-1 1-1h10.001c.553 0 1 .447 1 1s-.447 1-1 1z"/><path d="m58.499 44h-10.001c-.553 0-1-.447-1-1s.447-1 1-1h10.001c.553 0 1 .447 1 1s-.447 1-1 1z"/><path d="m48.498 26h-4.001c-.553 0-1-.447-1-1s.447-1 1-1h4.001c.553 0 1 .447 1 1s-.447 1-1 1z"/><path d="m62.5 26h-4.002c-.553 0-1-.447-1-1s.447-1 1-1h4.002c.553 0 1 .447 1 1s-.447 1-1 1z"/></g><path d="m55.5 28h-4c-.553 0-1-.447-1-1s.447-1 1-1h4c.553 0 1 .447 1 1s-.447 1-1 1z" fill="#8cc152"/><path d="m53.5 29.999c-.553 0-1-.447-1-1v-3.998c0-.553.447-1 1-1s1 .447 1 1v3.998c0 .553-.447 1-1 1z" fill="#8cc152"/><path d="m49.5 10.999c-.553 0-1-.447-1-1v-5c0-.553.447-1 1-1s1 .447 1 1v5c0 .553-.447 1-1 1z" fill="#656d78"/><path d="m53.501 10.999c-.367 0-.72-.202-.896-.553l-1.501-3.001c-.247-.494-.047-1.095.447-1.342.494-.245 1.095-.047 1.342.447l1.501 3.001c.247.494.047 1.095-.447 1.342-.143.072-.296.106-.446.106z" fill="#656d78"/><path d="m53.499 10.999c-.15 0-.303-.034-.446-.105-.494-.247-.694-.848-.447-1.342l1.5-3.001c.246-.494.847-.692 1.342-.447.494.247.694.848.447 1.342l-1.5 3.001c-.175.35-.529.552-.896.552z" fill="#656d78"/><path d="m57.501 10.999c-.553 0-1-.447-1-1v-5c0-.553.447-1 1-1s1 .447 1 1v5c0 .553-.447 1-1 1z" fill="#656d78"/><path d="m8.499 28c-.472 0-.892-.335-.981-.815-.103-.543.255-1.065.798-1.167l16-3c.549-.1 1.065.256 1.167.798.103.543-.255 1.065-.798 1.167l-16 3c-.063.011-.125.017-.186.017z" fill="#e6e9ed"/><path d="m40.501 28c-.061 0-.123-.006-.186-.018l-16-3c-.543-.102-.9-.624-.798-1.167.102-.542.617-.897 1.167-.798l16 3c.543.102.9.624.798 1.167-.089.481-.509.816-.981.816z" fill="#e6e9ed"/><path d="m8.5 37c-.553 0-1-.447-1-1v-9c0-.553.447-1 1-1s1 .447 1 1v9c0 .553-.447 1-1 1z" fill="#e6e9ed"/><path d="m24.499 46c-.166 0-.334-.041-.489-.129l-16-9c-.481-.271-.652-.88-.381-1.361.269-.481.879-.654 1.361-.381l16 9c.481.271.652.88.381 1.361-.183.326-.522.51-.872.51z" fill="#e6e9ed"/><path d="m24.501 46c-.35 0-.688-.184-.872-.51-.271-.481-.101-1.091.381-1.361l16-9c.482-.272 1.091-.101 1.361.381.271.481.101 1.091-.381 1.361l-16 9c-.155.088-.323.129-.489.129z" fill="#e6e9ed"/></svg>