<?xml version="1.0" encoding="UTF-8" standalone="no" ?>
<!DOCTYPE svg PUBLIC "-//W3C//DTD SVG 1.1//EN" "http://www.w3.org/Graphics/SVG/1.1/DTD/svg11.dtd">
<svg xmlns="http://www.w3.org/2000/svg" xmlns:xlink="http://www.w3.org/1999/xlink" version="1.1" width="720" height="720" viewBox="0 0 720 720" xml:space="preserve">
<desc>Created with Fabric.js 4.2.0</desc>
<defs>
</defs>
<rect x="0" y="0" width="100%" height="100%" fill="transparent"></rect>
<g transform="matrix(1 0 0 1 360 360)" id="1b611884-6b14-41d1-85aa-cb9b3af04acb"  >
<rect style="stroke: none; stroke-width: 1; stroke-dasharray: none; stroke-linecap: butt; stroke-dashoffset: 0; stroke-linejoin: miter; stroke-miterlimit: 4; fill: rgb(255,255,255); fill-opacity: 0; fill-rule: nonzero; opacity: 1;" vector-effect="non-scaling-stroke"  x="-360" y="-360" rx="0" ry="0" width="720" height="720" />
</g>
<g transform="matrix(0 0 0 0 0 0)" id="099a0cde-e345-4787-9a8d-dbca54d07a07"  >
</g>
<g transform="matrix(1.09 0 0 1.09 360.59 360.56)"  >
<g style="" vector-effect="non-scaling-stroke"   >
		<g transform="matrix(1.33 0 0 1.33 -90.06 -46.71)"  >
<path style="stroke: none; stroke-width: 1; stroke-dasharray: none; stroke-linecap: butt; stroke-dashoffset: 0; stroke-linejoin: miter; stroke-miterlimit: 4; fill: rgb(255,98,67); fill-rule: nonzero; opacity: 1;" vector-effect="non-scaling-stroke"  transform=" translate(-167.74, -189.31)" d="M 138.578125 174.476562 C 147.027344 126.632812 192.648438 94.691406 240.496094 103.117188 C 275.53515600000003 109.277344 301.13671899999997 139.835938 309.53515600000003 172.15625 C 316.042969 162.78125 324.074219 154.558594 333.296875 147.835938 C 335.398438 136.875 335.992188 125.675781 335.058594 114.554688 C 330.796875 66.140625 288.11718800000006 30.332031 239.69531200000003 34.554688 C 204.25781200000003 37.675781 176.09765600000003 65.914062 164.89843800000003 97.355469 C 148.41796900000003 68.316406 115.69531200000003 45.4375 80.33593800000003 48.554688 C 57.08593800000003 50.570312 35.59375000000003 61.742188 20.585938000000027 79.613281 C 5.582031000000027 97.484375 -1.7031249999999716 120.589844 0.33593800000002716 143.835938 C 10.097656000000027 255.4375 186.49609400000003 344.39453100000003 186.49609400000003 344.39453100000003 C 186.49609400000003 344.39453100000003 189.85546900000003 341.83593800000006 195.61718800000003 337.277344 C 195.53515600000003 337.195312 195.61718800000003 337.195312 195.61718800000003 337.195312 C 160.97656200000003 290.476562 128.81640600000003 229.753906 138.57812500000003 174.476562 z M 138.578125 174.476562" stroke-linecap="round" />
</g>
		<g transform="matrix(1.33 0 0 1.33 -183.15 -37.35)"  >
<path style="stroke: none; stroke-width: 1; stroke-dasharray: none; stroke-linecap: butt; stroke-dashoffset: 0; stroke-linejoin: miter; stroke-miterlimit: 4; fill: rgb(255,80,35); fill-rule: nonzero; opacity: 1;" vector-effect="non-scaling-stroke"  transform=" translate(-97.81, -196.34)" d="M 24.335938 143.835938 C 20.292969 97.539062 53.011719 56.101562 98.984375 49.300781 C 92.824219 48.269531 86.558594 48.019531 80.335938 48.554688 C 57.085938 50.570312 35.59375 61.742188 20.585938 79.613281 C 5.582030999999999 97.484375 -1.703125 120.589844 0.33593799999999874 143.835938 C 10.097655999999999 255.4375 186.496094 344.39453100000003 186.496094 344.39453100000003 C 186.496094 344.39453100000003 189.855469 341.83593800000006 195.617188 337.277344 C 195.535156 337.195312 195.617188 337.195312 195.617188 337.195312 C 195.242188 336.683594 194.871094 336.15625 194.496094 335.64453100000003 C 150.832031 310.64453100000003 32.289062 234.79687500000003 24.335938 143.83593800000003 z M 24.335938 143.835938" stroke-linecap="round" />
</g>
		<g transform="matrix(1.33 0 0 1.33 -24.58 -211.11)"  >
<path style="stroke: none; stroke-width: 1; stroke-dasharray: none; stroke-linecap: butt; stroke-dashoffset: 0; stroke-linejoin: miter; stroke-miterlimit: 4; fill: rgb(255,80,35); fill-rule: nonzero; opacity: 1;" vector-effect="non-scaling-stroke"  transform=" translate(-216.94, -65.8)" d="M 188.898438 97.355469 C 199.648438 67.179688 226.039062 40.011719 259.48046899999997 35.117188 C 252.92968799999997 34.1875 246.29296899999997 33.996094 239.69531199999997 34.554688 C 212.35546899999997 37.945312 188.18359399999997 53.953125 174.39453099999997 77.804688 C 179.98828099999997 83.71875 184.85937499999997 90.28125 188.89843799999997 97.355469 z M 188.898438 97.355469" stroke-linecap="round" />
</g>
		<g transform="matrix(1.33 0 0 1.33 61.66 -116.36)"  >
<path style="stroke: none; stroke-width: 1; stroke-dasharray: none; stroke-linecap: butt; stroke-dashoffset: 0; stroke-linejoin: miter; stroke-miterlimit: 4; fill: rgb(255,80,35); fill-rule: nonzero; opacity: 1;" vector-effect="non-scaling-stroke"  transform=" translate(-281.73, -136.98)" d="M 264.496094 103.117188 C 255.39843800000003 101.523438 246.10546900000003 101.375 236.96093800000003 102.675781 C 238.13671900000003 102.835938 239.31250000000003 102.90625 240.49609400000003 103.117188 C 275.53515600000003 109.277344 301.136719 139.835938 309.53515600000003 172.15625 C 314.371094 165.164062 320.07031200000006 158.8125 326.496094 153.25 C 315 127.617188 291.97265600000003 108.996094 264.496094 103.117188 z M 264.496094 103.117188" stroke-linecap="round" />
</g>
		<g transform="matrix(1.33 0 0 1.33 91.05 46.17)"  >
<path style="stroke: none; stroke-width: 1; stroke-dasharray: none; stroke-linecap: butt; stroke-dashoffset: 0; stroke-linejoin: miter; stroke-miterlimit: 4; fill: rgb(255,121,86); fill-rule: nonzero; opacity: 1;" vector-effect="non-scaling-stroke"  transform=" translate(-303.81, -259.08)" d="M 398.097656 130.875 C 375.085938 127.417969 351.66406199999994 133.550781 333.296875 147.835938 C 324.07421899999997 154.558594 316.04296899999997 162.78125 309.53515600000003 172.15625 C 301.136719 139.835938 275.53515600000003 109.277344 240.49609400000003 103.117188 C 192.64843800000003 94.691406 147.02734400000003 126.632812 138.57812500000003 174.476562 C 128.81640600000003 229.753906 160.97656200000003 290.476562 195.61718800000003 337.195312 C 195.61718800000003 337.195312 195.53515600000003 337.195312 195.61718800000003 337.277344 C 216.78906200000003 365.75 240.51171900000003 392.230469 266.496094 416.39453100000003 C 266.496094 416.39453100000003 450.015625 343.11718800000006 469.45703100000003 232.87500000000003 C 477.886719 185.01171900000003 445.949219 139.36328100000003 398.09765600000003 130.87500000000003 z M 398.097656 130.875" stroke-linecap="round" />
</g>
		<g transform="matrix(1.33 0 0 1.33 -224.83 127.81)"  >
<path style="stroke: none; stroke-width: 1; stroke-dasharray: none; stroke-linecap: butt; stroke-dashoffset: 0; stroke-linejoin: miter; stroke-miterlimit: 4; fill: rgb(255,152,17); fill-rule: nonzero; opacity: 1;" vector-effect="non-scaling-stroke"  transform=" translate(-66.5, -320.41)" d="M 66.496094 328.394531 C 63.820312 328.421875 61.3125 327.097656 59.828125 324.87109399999997 C 58.339844 322.64062499999994 58.082031 319.816406 59.136719 317.35546899999997 C 59.863281 315.347656 61.445312 313.76171899999997 63.457031 313.035156 C 65.402344 312.22656199999994 67.589844 312.22656199999994 69.535156 313.035156 C 70.515625 313.425781 71.410156 313.992188 72.175781 314.71484399999997 C 72.898438 315.48046899999997 73.46875 316.37499999999994 73.855469 317.35546899999997 C 75.132812 320.332031 74.46875 323.785156 72.175781 326.07421899999997 C 71.398438 326.78124999999994 70.503906 327.347656 69.535156 327.753906 C 68.574219 328.16406199999994 67.542969 328.38281199999994 66.496094 328.394531 z M 66.496094 328.394531" stroke-linecap="round" />
</g>
		<g transform="matrix(1.33 0 0 1.33 275.66 -234.28)"  >
<path style="stroke: none; stroke-width: 1; stroke-dasharray: none; stroke-linecap: butt; stroke-dashoffset: 0; stroke-linejoin: miter; stroke-miterlimit: 4; fill: rgb(255,152,17); fill-rule: nonzero; opacity: 1;" vector-effect="non-scaling-stroke"  transform=" translate(-442.5, -48.39)" d="M 442.496094 56.394531 C 440.36718800000006 56.417969 438.320312 55.582031 436.81640600000003 54.078125 C 435.31250000000006 52.570312 434.476562 50.523438 434.496094 48.394531 C 434.52343800000006 46.277344 435.351562 44.246094 436.81640600000003 42.714844 C 437.195312 42.375 437.59375000000006 42.054688 438.007812 41.753906 C 438.45703100000003 41.453125 438.945312 41.210938 439.45703100000003 41.035156 C 439.91015600000003 40.804688 440.39453100000003 40.644531 440.89843800000006 40.554688 C 441.92187500000006 40.316406 442.98437500000006 40.316406 444.00781200000006 40.554688 C 444.5429690000001 40.628906 445.0585940000001 40.792969 445.5351560000001 41.035156 C 446.0273440000001 41.195312 446.4882810000001 41.441406 446.8984380000001 41.753906 C 447.3554690000001 42.03125 447.7851560000001 42.355469 448.1757810000001 42.714844 C 449.6367190000001 44.25 450.4687500000001 46.277344 450.4960940000001 48.394531 C 450.5195310000001 50.523438 449.6835940000001 52.570312 448.1757810000001 54.078125 C 446.6718750000001 55.582031 444.6250000000001 56.417969 442.4960940000001 56.394531 z M 442.496094 56.394531" stroke-linecap="round" />
</g>
		<g transform="matrix(1.33 0 0 1.33 233.07 -170.38)"  >
<path style="stroke: none; stroke-width: 1; stroke-dasharray: none; stroke-linecap: butt; stroke-dashoffset: 0; stroke-linejoin: miter; stroke-miterlimit: 4; fill: rgb(255,152,17); fill-rule: nonzero; opacity: 1;" vector-effect="non-scaling-stroke"  transform=" translate(-410.5, -96.39)" d="M 410.496094 104.394531 C 408.36718800000006 104.417969 406.320312 103.582031 404.81640600000003 102.078125 C 403.31250000000006 100.570312 402.476562 98.523438 402.496094 96.394531 C 402.52343800000006 94.277344 403.351562 92.246094 404.81640600000003 90.714844 C 405.58203100000003 89.992188 406.476562 89.421875 407.45703100000003 89.035156 C 408.886719 88.398438 410.480469 88.230469 412.007812 88.554688 C 412.542969 88.628906 413.058594 88.792969 413.53515600000003 89.035156 C 414.027344 89.195312 414.48828100000003 89.441406 414.89843800000006 89.753906 C 415.36718800000006 90.074219 415.777344 90.394531 416.17578100000003 90.714844 C 417.636719 92.25 418.46875000000006 94.277344 418.496094 96.394531 C 418.51953100000003 98.523438 417.683594 100.570312 416.17578100000003 102.078125 C 414.67187500000006 103.582031 412.62500000000006 104.417969 410.496094 104.394531 z M 410.496094 104.394531" stroke-linecap="round" />
</g>
		<g transform="matrix(1.33 0 0 1.33 -139.64 287.53)"  >
<path style="stroke: none; stroke-width: 1; stroke-dasharray: none; stroke-linecap: butt; stroke-dashoffset: 0; stroke-linejoin: miter; stroke-miterlimit: 4; fill: rgb(255,152,17); fill-rule: nonzero; opacity: 1;" vector-effect="non-scaling-stroke"  transform=" translate(-130.5, -440.4)" d="M 130.496094 448.394531 C 128.367188 448.41406199999994 126.320312 447.578125 124.816406 446.07421899999997 C 124.113281 445.29687499999994 123.542969 444.40234399999997 123.136719 443.43749999999994 C 122.6875 442.4882809999999 122.46875 441.44531199999994 122.496094 440.3945309999999 C 122.507812 439.3515619999999 122.726562 438.3164059999999 123.136719 437.3554689999999 C 123.542969 436.3867189999999 124.109375 435.49218799999994 124.816406 434.7148439999999 C 127.117188 432.4453119999999 130.558594 431.7812499999999 133.535156 433.0351559999999 C 134.515625 433.4257809999999 135.410156 433.99218799999994 136.175781 434.7148439999999 C 136.882812 435.49218799999994 137.449219 436.3867189999999 137.855469 437.3554689999999 C 138.710938 439.2929689999999 138.710938 441.4999999999999 137.855469 443.4374999999999 C 137.449219 444.4023439999999 136.882812 445.2968749999999 136.175781 446.0742189999999 C 134.671875 447.5781249999999 132.625 448.4140619999999 130.496094 448.3945309999999 z M 130.496094 448.394531" stroke-linecap="round" />
</g>
		<g transform="matrix(1.33 0 0 1.33 -246.13 202.33)"  >
<path style="stroke: none; stroke-width: 1; stroke-dasharray: none; stroke-linecap: butt; stroke-dashoffset: 0; stroke-linejoin: miter; stroke-miterlimit: 4; fill: rgb(255,152,17); fill-rule: nonzero; opacity: 1;" vector-effect="non-scaling-stroke"  transform=" translate(-50.5, -376.39)" d="M 66.496094 368.394531 L 58.496094 368.394531 L 58.496094 360.394531 C 58.496094 355.97656199999994 54.914062 352.394531 50.496094 352.394531 C 46.078125 352.394531 42.496094 355.97656199999994 42.496094 360.394531 L 42.496094 368.394531 L 34.496094 368.394531 C 30.078125 368.394531 26.496094 371.97656199999994 26.496094 376.394531 C 26.496094 380.8125 30.078125 384.394531 34.496094 384.394531 L 42.496094 384.394531 L 42.496094 392.394531 C 42.496094 396.8125 46.078125 400.394531 50.496094 400.394531 C 54.914062 400.394531 58.496094 396.8125 58.496094 392.394531 L 58.496094 384.394531 L 66.496094 384.394531 C 70.914062 384.394531 74.496094 380.8125 74.496094 376.394531 C 74.496094 371.97656199999994 70.914062 368.394531 66.496094 368.394531 z M 66.496094 368.394531" stroke-linecap="round" />
</g>
		<g transform="matrix(1.33 0 0 1.33 190.47 -266.22)"  >
<path style="stroke: none; stroke-width: 1; stroke-dasharray: none; stroke-linecap: butt; stroke-dashoffset: 0; stroke-linejoin: miter; stroke-miterlimit: 4; fill: rgb(255,152,17); fill-rule: nonzero; opacity: 1;" vector-effect="non-scaling-stroke"  transform=" translate(-378.5, -24.39)" d="M 394.496094 16.394531 L 386.496094 16.394531 L 386.496094 8.394531 C 386.496094 3.9765620000000004 382.914062 0.39453100000000063 378.496094 0.39453100000000063 C 374.078125 0.39453100000000063 370.496094 3.976562000000001 370.496094 8.394531 L 370.496094 16.394531 L 362.496094 16.394531 C 358.078125 16.394531 354.496094 19.976562 354.496094 24.394531 C 354.496094 28.8125 358.078125 32.394531 362.496094 32.394531 L 370.496094 32.394531 L 370.496094 40.394531 C 370.496094 44.8125 374.078125 48.394531 378.496094 48.394531 C 382.914062 48.394531 386.496094 44.8125 386.496094 40.394531 L 386.496094 32.394531 L 394.496094 32.394531 C 398.914062 32.394531 402.496094 28.8125 402.496094 24.394531 C 402.496094 19.976562 398.914062 16.394531 394.496094 16.394531 z M 394.496094 16.394531" stroke-linecap="round" />
</g>
</g>
</g>
<g transform="matrix(1 0 0 1 538.44 583.64)" style="filter: url(#SVGID_1647);" id="849eb907-2d71-462c-903c-5d20216c3171"  >
<filter id="SVGID_1647" y="-32%" height="164%" x="-28%" width="156%" >
	<feGaussianBlur in="SourceAlpha" stdDeviation="7"></feGaussianBlur>
	<feOffset dx="11" dy="11" result="oBlur" ></feOffset>
	<feFlood flood-color="rgb(255,128,0)" flood-opacity="1"/>
	<feComposite in2="oBlur" operator="in" />
	<feMerge>
		<feMergeNode></feMergeNode>
		<feMergeNode in="SourceGraphic"></feMergeNode>
	</feMerge>
</filter>
		<text xml:space="preserve" font-family="Lato" font-size="186" font-style="normal" font-weight="400" style="stroke: none; stroke-width: 1; stroke-dasharray: none; stroke-linecap: butt; stroke-dashoffset: 0; stroke-linejoin: miter; stroke-miterlimit: 4; fill: rgb(255,224,204); fill-rule: nonzero; opacity: 1; white-space: pre;" ><tspan x="-147.87" y="58.43" >SSS</tspan></text>
</g>
</svg>