<?xml version="1.0" encoding="UTF-8" standalone="no" ?>
<!DOCTYPE svg PUBLIC "-//W3C//DTD SVG 1.1//EN" "http://www.w3.org/Graphics/SVG/1.1/DTD/svg11.dtd">
<svg xmlns="http://www.w3.org/2000/svg" xmlns:xlink="http://www.w3.org/1999/xlink" version="1.1" width="720" height="720" viewBox="0 0 720 720" xml:space="preserve">
<desc>Created with Fabric.js 4.2.0</desc>
<defs>
</defs>
<rect x="0" y="0" width="100%" height="100%" fill="transparent"></rect>
<g transform="matrix(1 0 0 1 360 360)" id="1b611884-6b14-41d1-85aa-cb9b3af04acb"  >
<rect style="stroke: none; stroke-width: 1; stroke-dasharray: none; stroke-linecap: butt; stroke-dashoffset: 0; stroke-linejoin: miter; stroke-miterlimit: 4; fill: rgb(255,255,255); fill-opacity: 0; fill-rule: nonzero; opacity: 1;" vector-effect="non-scaling-stroke"  x="-360" y="-360" rx="0" ry="0" width="720" height="720" />
</g>
<g transform="matrix(0 0 0 0 0 0)" id="099a0cde-e345-4787-9a8d-dbca54d07a07"  >
</g>
<g transform="matrix(1.69 0 0 1.69 359.76 359.76)"  >
<g style="" vector-effect="non-scaling-stroke"   >
		<g transform="matrix(1 0 0 1 0 0)"  >
<path style="stroke: none; stroke-width: 1; stroke-dasharray: none; stroke-linecap: butt; stroke-dashoffset: 0; stroke-linejoin: miter; stroke-miterlimit: 4; fill: rgb(252,241,206); fill-rule: nonzero; opacity: 1;" vector-effect="non-scaling-stroke"  transform=" translate(-204.41, -204.41)" d="M 382.864 222.13 L 406.96099999999996 207.672 C 409.42699999999996 206.192 409.42699999999996 202.618 406.96099999999996 201.138 L 382.86699999999996 186.68 C 370.94499999999994 179.526 367.789 163.654 376.066 152.482 L 392.794 129.907 C 394.506 127.596 393.139 124.29400000000001 390.294 123.87100000000001 L 362.5 119.73500000000001 C 348.748 117.68900000000001 339.757 104.23300000000002 343.13 90.74500000000002 L 349.945 63.48700000000002 C 350.643 60.697000000000024 348.115 58.169000000000025 345.325 58.867000000000026 L 318.063 65.68200000000003 C 304.57599999999996 69.05300000000003 291.121 60.06300000000003 289.075 46.312000000000026 L 284.93899999999996 18.518000000000026 C 284.51599999999996 15.673000000000025 281.21299999999997 14.305000000000025 278.90299999999996 16.018000000000026 L 256.325 32.74700000000003 C 245.155 41.02400000000003 229.283 37.86600000000003 222.13 25.94500000000003 L 207.673 1.851 C 206.193 -0.6150000000000002 202.619 -0.6150000000000002 201.139 1.851 L 186.68300000000002 25.945 C 179.53000000000003 37.867000000000004 163.65800000000002 41.022999999999996 152.48800000000003 32.747 L 129.90900000000002 16.017 C 127.59800000000001 14.305 124.29600000000002 15.673 123.87300000000002 18.517 L 119.73700000000002 46.311 C 117.69100000000002 60.061 104.23500000000003 69.05199999999999 90.74900000000002 65.681 L 63.48700000000002 58.866 C 60.697000000000024 58.168 58.169000000000025 60.696 58.867000000000026 63.486 L 65.68200000000003 90.746 C 69.05400000000003 104.23299999999999 60.06400000000003 117.689 46.312000000000026 119.735 L 18.517000000000024 123.871 C 15.672000000000024 124.294 14.304000000000023 127.597 16.017000000000024 129.90699999999998 L 32.745000000000026 152.48199999999997 C 41.023000000000025 163.65199999999996 37.86600000000003 179.52599999999998 25.944000000000024 186.67999999999998 L 1.85 201.137 C -0.6160000000000001 202.617 -0.6160000000000001 206.191 1.85 207.671 L 25.947000000000003 222.129 C 37.868 229.28199999999998 41.025000000000006 245.154 32.748000000000005 256.323 L 16.018 278.9 C 14.306000000000001 281.21 15.673 284.513 18.518 284.936 L 46.313 289.072 C 60.064 291.118 69.055 304.574 65.683 318.061 L 58.86800000000001 345.322 C 58.17000000000001 348.112 60.69800000000001 350.64 63.48800000000001 349.942 L 90.748 343.127 C 104.236 339.755 117.69200000000001 348.746 119.738 362.497 L 123.874 390.291 C 124.297 393.136 127.6 394.504 129.91 392.791 L 152.487 376.062 C 163.65699999999998 367.785 179.529 370.942 186.68099999999998 382.86400000000003 L 201.13899999999998 406.961 C 202.61899999999997 409.427 206.19299999999998 409.427 207.67299999999997 406.961 L 222.13099999999997 382.865 C 229.28399999999996 370.943 245.15699999999998 367.78700000000003 256.327 376.063 L 278.903 392.792 C 281.213 394.50399999999996 284.516 393.137 284.939 390.292 L 289.07500000000005 362.498 C 291.12100000000004 348.747 304.57700000000006 339.756 318.06500000000005 343.128 L 345.32500000000005 349.943 C 348.11500000000007 350.64099999999996 350.64300000000003 348.113 349.94500000000005 345.323 L 343.13000000000005 318.06199999999995 C 339.75800000000004 304.57499999999993 348.749 291.11899999999997 362.50000000000006 289.073 L 390.2950000000001 284.93699999999995 C 393.1400000000001 284.51399999999995 394.5080000000001 281.21099999999996 392.7950000000001 278.90099999999995 L 376.06500000000005 256.32399999999996 C 367.787 245.154 370.943 229.282 382.864 222.13 z" stroke-linecap="round" />
</g>
		<g transform="matrix(1 0 0 1 0 0.03)"  >
<circle style="stroke: none; stroke-width: 1; stroke-dasharray: none; stroke-linecap: butt; stroke-dashoffset: 0; stroke-linejoin: miter; stroke-miterlimit: 4; fill: rgb(249,219,123); fill-rule: nonzero; opacity: 1;" vector-effect="non-scaling-stroke"  cx="0" cy="0" r="128" />
</g>
</g>
</g>
<g transform="matrix(1 0 0 1 625.57 583.64)" style="filter: url(#SVGID_839);" id="849eb907-2d71-462c-903c-5d20216c3171"  >
<filter id="SVGID_839" y="-26%" height="152%" x="-30%" width="160%" >
	<feGaussianBlur in="SourceAlpha" stdDeviation="6.5"></feGaussianBlur>
	<feOffset dx="0" dy="0" result="oBlur" ></feOffset>
	<feFlood flood-color="rgb(255,178,102)" flood-opacity="1"/>
	<feComposite in2="oBlur" operator="in" />
	<feMerge>
		<feMergeNode></feMergeNode>
		<feMergeNode in="SourceGraphic"></feMergeNode>
	</feMerge>
</filter>
		<text xml:space="preserve" font-family="Lato" font-size="186" font-style="normal" font-weight="400" style="stroke: none; stroke-width: 1; stroke-dasharray: none; stroke-linecap: butt; stroke-dashoffset: 0; stroke-linejoin: miter; stroke-miterlimit: 4; fill: rgb(255,255,153); fill-rule: nonzero; opacity: 1; white-space: pre;" ><tspan x="-49.29" y="58.43" >S</tspan></text>
</g>
</svg>