<?xml version="1.0" encoding="iso-8859-1"?>
<!-- Generator: Adobe Illustrator 19.0.0, SVG Export Plug-In . SVG Version: 6.00 Build 0)  -->
<svg version="1.1" id="Layer_1" xmlns="http://www.w3.org/2000/svg" xmlns:xlink="http://www.w3.org/1999/xlink" x="0px" y="0px"
	 viewBox="0 0 512 512" style="enable-background:new 0 0 512 512;" xml:space="preserve">
<path style="fill:#C0E7F9;" d="M329.464,166.648c1.52,0,3.012,0.114,4.476,0.319c5.308-13.011,16.367-23.06,30.016-26.994
	l-0.001-0.009c0.067-0.02,0.136-0.032,0.202-0.05c0.873-0.247,1.758-0.468,2.651-0.665c0.165-0.036,0.331-0.071,0.497-0.106
	c0.906-0.188,1.82-0.352,2.744-0.488c0.148-0.022,0.297-0.039,0.444-0.06c0.953-0.13,1.914-0.235,2.884-0.306
	c0.103-0.008,0.206-0.011,0.309-0.018c1.026-0.068,2.058-0.109,3.1-0.109c19.373,0,35.955,11.912,42.848,28.806
	c1.463-0.205,2.956-0.319,4.476-0.319c17.687,0,32.024,14.337,32.024,32.024c0,4.016-0.746,7.857-2.096,11.398h-68.056h-9.195
	h-77.251c-1.35-3.542-2.096-7.383-2.096-11.398C297.44,180.985,311.777,166.648,329.464,166.648z"/>
<circle style="fill:#FCEA81;" cx="129.013" cy="94.48" r="52.111"/>
<path style="fill:#E2AF66;" d="M455.044,260.207l-5.538,10.847l-26.597,52.045l-61.173,119.687l-5.56,10.891l-6.326-55.679
	l45.478-88.996l26.597-52.045l5.538-10.847c2.266-4.433,7.695-6.184,12.127-3.918l11.536,5.889c1.007,0.514,1.872,1.182,2.572,1.97
	C456.15,252.743,456.795,256.782,455.044,260.207z"/>
<path style="fill:#F9C573;" d="M455.044,260.207l-5.538,10.847l-26.597,52.045l-61.173,119.687l-4.586-40.41l45.467-88.996
	l26.597-52.045l5.549-10.847c2.266-4.433,7.695-6.184,12.127-3.918l6.808,3.481C456.15,252.743,456.795,256.782,455.044,260.207z"/>
<path style="fill:#CCCCCC;" d="M409.475,259.654c2.347-4.592,8.248-5.865,12.364-2.758c0.027,0.021,0.055,0.04,0.081,0.061
	c4.078,3.071,8.479,5.832,13.184,8.236c4.704,2.404,9.52,4.353,14.399,5.859c3.251,1.004,6.53,1.813,9.825,2.433
	c17.013,3.205,34.377,1.319,50.026-4.983c5.016,20.221,3.037,42.275-7.186,62.28c-10.225,20.009-26.936,34.529-46.263,42.311
	c-4.063-16.37-12.707-31.546-25.272-43.455c-2.433-2.306-5.011-4.49-7.728-6.535c-4.078-3.071-8.479-5.832-13.184-8.236
	c-4.704-2.404-9.52-4.353-14.399-5.859c-0.033-0.01-0.065-0.02-0.097-0.03c-4.929-1.515-7.355-7.044-5.009-11.636L409.475,259.654z"
	/>
<path style="fill:#E2AF66;" d="M162.158,397.998l-4.137,36.317l-2.2,19.362L89.098,323.099l-26.597-52.045l-5.549-10.847
	c-2.266-4.433-0.503-9.862,3.929-12.127l7.76-3.962l3.765-1.926c4.433-2.266,9.862-0.514,12.127,3.918l5.549,10.847l26.597,52.045
	L162.158,397.998z"/>
<path style="fill:#F9C573;" d="M162.158,397.998l-4.137,36.317L98.577,317.999L71.98,265.943l-5.538-10.847
	c-1.948-3.809-0.93-8.34,2.2-10.978l3.765-1.926c4.433-2.266,9.862-0.514,12.127,3.918l5.549,10.847l26.597,52.045L162.158,397.998z
	"/>
<path style="fill:#CCCCCC;" d="M121.784,297.342c2.347,4.592-0.08,10.12-5.009,11.636c-0.033,0.01-0.065,0.02-0.097,0.03
	c-4.878,1.506-9.694,3.455-14.399,5.859s-9.105,5.165-13.184,8.236c-2.718,2.047-5.295,4.23-7.728,6.535
	c-12.564,11.911-21.209,27.086-25.272,43.455c-19.326-7.782-36.037-22.302-46.263-42.311c-10.223-20.005-12.202-42.058-7.186-62.28
	c15.649,6.303,33.012,8.188,50.026,4.983c3.295-0.621,6.574-1.431,9.825-2.433c4.878-1.506,9.694-3.455,14.399-5.859
	s9.105-5.165,13.184-8.236c0.027-0.021,0.055-0.041,0.081-0.061c4.115-3.106,10.018-1.833,12.364,2.758L121.784,297.342z"/>
<g>
	<path style="fill:#E6E6E6;" d="M60.811,359.12c-1.948,4.52-3.524,9.194-4.717,13.977c-19.329-7.782-36.043-22.307-46.266-42.315
		c-10.223-20.008-12.204-42.063-7.18-62.279c4.728,1.905,9.621,3.415,14.612,4.477c-1.707,16.582,1.193,33.832,9.347,49.779
		C34.641,338.466,46.659,350.791,60.811,359.12z"/>
	<path style="fill:#E6E6E6;" d="M451.189,359.12c1.948,4.52,3.524,9.194,4.717,13.977c19.329-7.782,36.043-22.307,46.266-42.315
		c10.223-20.008,12.204-42.063,7.18-62.279c-4.728,1.905-9.621,3.415-14.612,4.477c1.707,16.582-1.193,33.832-9.347,49.779
		C477.359,338.466,465.341,350.791,451.189,359.12z"/>
</g>
<g>
	<path style="fill:#E0B394;" d="M141.711,239.487c-13.572-0.602-24.375-11.799-24.375-25.514c0-14.098,11.427-25.535,25.535-25.535
		c1.27,0,2.517,0.088,3.743,0.274L141.711,239.487z"/>
	<path style="fill:#E0B394;" d="M370.271,239.487c13.572-0.602,24.386-11.799,24.386-25.514c0-14.098-11.438-25.535-25.546-25.535
		c-1.27,0-2.528,0.098-3.743,0.274L370.271,239.487z"/>
</g>
<path style="fill:#F76B4F;" d="M307.613,332.008H204.389c-37.385,0-67.692,30.306-67.692,67.692v99.363h238.608V399.7
	C375.304,362.314,344.998,332.008,307.613,332.008z"/>
<path style="fill:#E5624C;" d="M246.097,332.008h-41.708c-37.385,0-67.692,30.306-67.692,67.692v99.363h41.708V399.7
	C178.404,362.314,208.711,332.008,246.097,332.008z"/>
<path style="fill:#F7CBA4;" d="M219.055,349.864l-44.929-32.643c-23.743-17.25-36.587-45.775-33.764-74.987l7.793-80.643
	c5.368-55.542,52.042-97.923,107.842-97.923l0,0c55.8,0,102.474,42.381,107.842,97.923l7.793,80.643
	c2.823,29.212-10.02,57.737-33.764,74.987l-44.929,32.643C270.911,365.868,241.083,365.868,219.055,349.864z"/>
<path style="fill:#E8BA97;" d="M168.322,258.127c-0.755,12.773,3.404,25.338,11.635,35.134l46.959,57.704
	c2.452,2.922,5.232,5.374,8.242,7.333c-5.648-1.97-11.077-4.794-16.101-8.439l-44.931-32.639
	c-23.74-17.25-36.579-45.773-33.755-74.986l7.782-80.645c5.319-55,51.137-97.096,106.224-97.895
	c-33.93,0.821-72.352,32.803-74.355,66.865L168.322,258.127z"/>
<path style="fill:#E0B394;" d="M268.584,209.243v38.856c0,6.951-5.636,12.587-12.587,12.587l0,0
	c-6.951,0-12.587-5.636-12.587-12.587v-38.856"/>
<polyline style="fill:#666666;" points="239.404,141.024 236.849,138.156 295.133,138.156 283.093,148.144 "/>
<path style="fill:#EA8249;" d="M360.4,89.493l-155.785-0.624l-50.567-0.197c0.306-0.876,0.613-1.74,0.941-2.605
	c3.634-9.719,5.659-19.964,6.447-30.308l1.697-22.482c0.525-6.983,7.005-11.952,13.879-10.661l13.375,2.528
	c9.15,1.729,18.585,0.843,27.265-2.528c0.865-0.339,1.74-0.668,2.616-0.974c11.504-4.137,23.894-6.381,36.82-6.381h0.011
	c13.901,0,27.199,2.605,39.425,7.355c8.68,3.371,18.114,4.247,27.265,2.528l13.364-2.528c6.885-1.292,13.364,3.678,13.89,10.661
	l1.697,22.471c0.777,10.354,2.802,20.599,6.436,30.308C359.601,87.195,360.006,88.344,360.4,89.493z"/>
<path style="fill:#D36F3D;" d="M204.615,88.869l-50.567-0.197c0.306-0.876,0.613-1.74,0.941-2.605
	c3.634-9.719,5.659-19.964,6.447-30.308l1.697-22.482c0.525-6.983,7.005-11.952,13.879-10.661l13.375,2.528
	c9.15,1.729,18.585,0.843,27.265-2.528c0.865-0.339,1.74-0.668,2.616-0.974C210.876,38.16,200.806,62.918,204.615,88.869z"/>
<polygon style="fill:#F9C573;" points="312.916,371.565 312.916,421.64 199.085,421.64 199.085,371.565 175.005,326.416 
	175.005,499.064 184.494,499.064 199.085,499.064 312.916,499.064 326.784,499.064 336.996,499.064 336.996,326.416 "/>
<path style="fill:#EA8249;" d="M374.213,142.238c0.755,9.613-8.519,16.811-17.69,13.834
	c-51.946-16.866-107.091-20.324-160.358-10.362c-13.714,2.563-27.305,6.013-40.683,10.354c-9.182,2.979-18.459-4.239-17.701-13.862
	c1.064-13.496,2.127-26.989,3.191-40.476c0.42-5.329,3.938-9.935,8.992-11.676c15.58-5.37,31.466-9.517,47.526-12.443
	c54.729-10.005,111.415-5.848,164.534,12.443c5.058,1.741,8.579,6.348,8.999,11.681
	C372.088,115.228,373.152,128.731,374.213,142.238z"/>
<path style="fill:#D36F3D;" d="M197.49,77.607l-1.324,68.102c-13.714,2.563-27.305,6.013-40.683,10.354
	c-9.182,2.979-18.459-4.239-17.701-13.862c1.064-13.496,2.127-26.989,3.191-40.476c0.42-5.329,3.938-9.935,8.992-11.676
	C165.544,84.681,181.431,80.532,197.49,77.607z"/>
<path style="fill:#4D4D4D;" d="M360.816,305.379c-5.341,4.039-11.963,7.946-19.286,11.241
	c-29.684,13.331-70.937,16.615-85.538-21.409c-14.59,38.024-55.843,34.74-85.527,21.409c-7.322-3.295-13.944-7.202-19.286-11.241
	c25.787,0,34.073-31.315,65.387-44.208c14.349-5.91,24.824-3.689,31.971,0.449c3.13,1.806,5.659,4.312,7.487,7.246
	c1.97-3.13,4.728-5.801,8.143-7.651c7.114-3.875,17.381-5.757,31.26-0.044C326.743,274.064,335.029,305.379,360.816,305.379z"/>
<path style="fill:#666666;" d="M341.53,316.62c0,0-0.153,47.798-45.029,63.122l-5.473-17.513l-35.025,41.592l-35.025-41.592
	l-5.473,17.513c-44.876-15.323-45.04-63.122-45.04-63.122c29.684,13.331,70.937,16.615,85.527-21.409
	C270.594,333.235,311.846,329.951,341.53,316.62z"/>
<g>
	<path style="fill:#FCEA81;" d="M47.35,102.688H17.797c-4.534,0-8.209-3.675-8.209-8.209c0-4.534,3.675-8.209,8.209-8.209H47.35
		c4.534,0,8.209,3.675,8.209,8.209C55.559,99.012,51.883,102.688,47.35,102.688z"/>
	<path style="fill:#FCEA81;" d="M56.106,173.832c-2.1,0-4.202-0.801-5.804-2.405c-3.206-3.206-3.206-8.404,0-11.609l17.513-17.513
		c3.206-3.206,8.404-3.206,11.609,0c3.206,3.206,3.206,8.404,0,11.609L61.91,171.428C60.308,173.03,58.207,173.832,56.106,173.832z"
		/>
	<path style="fill:#FCEA81;" d="M70.335,40.3c-2.1,0-4.202-0.801-5.804-2.405L53.585,26.95c-3.206-3.206-3.206-8.404,0-11.609
		c3.206-3.206,8.404-3.206,11.609,0l10.945,10.945c3.206,3.206,3.206,8.404,0,11.609C74.537,39.497,72.436,40.3,70.335,40.3z"/>
</g>
<path style="fill:#4D4D4D;" d="M207.272,242.314c-4.534,0-8.209-3.675-8.209-8.209v-13.13c0-4.534,3.675-8.209,8.209-8.209
	c4.534,0,8.209,3.675,8.209,8.209v13.13C215.481,238.639,211.805,242.314,207.272,242.314z"/>
<g>
	<path style="fill:#666666;" d="M285.954,189.234c0,0,0.022-0.218,0.095-0.592c0.084-0.362,0.17-0.935,0.354-1.583
		c0.082-0.335,0.188-0.684,0.31-1.068c0.159-0.39,0.372-0.781,0.599-1.226c0.224-0.447,0.508-0.888,0.806-1.383
		c0.3-0.503,0.658-0.885,1.024-1.371c0.372-0.467,0.791-0.919,1.229-1.405c0.463-0.439,0.965-0.871,1.5-1.306
		c1.045-0.921,2.323-1.586,3.654-2.326c1.377-0.582,2.838-1.214,4.403-1.506c1.55-0.403,3.175-0.498,4.796-0.574
		c1.621,0.074,3.247,0.161,4.798,0.561c1.566,0.289,3.029,0.924,4.407,1.502c1.332,0.739,2.61,1.403,3.657,2.325
		c0.533,0.436,1.037,0.869,1.501,1.306c0.438,0.487,0.855,0.943,1.229,1.408c0.361,0.484,0.737,0.881,1.011,1.365
		c0.276,0.482,0.543,0.913,0.76,1.35c0.216,0.438,0.425,0.823,0.582,1.212c0.143,0.405,0.27,0.772,0.364,1.119
		c0.208,0.671,0.294,1.248,0.374,1.609c0.07,0.373,0.085,0.586,0.085,0.586s-0.227-0.005-0.61-0.043
		c-0.372-0.048-0.95-0.072-1.588-0.165c-0.331-0.034-0.668-0.095-1.039-0.144c-0.395-0.019-0.785-0.073-1.208-0.106
		c-0.831-0.088-1.698-0.218-2.651-0.255c-0.468-0.031-0.923-0.098-1.398-0.138c-0.491-0.007-0.976-0.032-1.458-0.068
		c-0.944-0.123-1.969-0.05-2.921-0.17c-1.001,0.036-1.96-0.086-2.953-0.056c-0.976-0.073-1.964,0.004-2.943-0.065
		c-0.98,0.067-1.967-0.019-2.945,0.053c-0.994-0.035-1.953,0.092-2.956,0.051c-0.953,0.118-1.981,0.045-2.925,0.169
		c-0.482,0.036-0.966,0.062-1.459,0.068c-0.475,0.039-0.927,0.112-1.398,0.14c-0.972,0.053-1.78,0.144-2.591,0.215
		c-0.426,0.033-0.824,0.063-1.193,0.091c-0.393,0.071-0.752,0.15-1.093,0.195c-0.662,0.117-1.241,0.144-1.609,0.192
		C286.173,189.234,285.954,189.234,285.954,189.234z"/>
	<path style="fill:#666666;" d="M188.504,189.234c0,0,0.022-0.218,0.095-0.592c0.084-0.362,0.17-0.935,0.354-1.583
		c0.082-0.335,0.188-0.684,0.31-1.068c0.159-0.39,0.372-0.781,0.599-1.226c0.224-0.447,0.508-0.888,0.806-1.383
		c0.3-0.503,0.658-0.885,1.024-1.371c0.372-0.467,0.791-0.919,1.229-1.405c0.463-0.439,0.965-0.871,1.499-1.306
		c1.045-0.921,2.323-1.586,3.654-2.326c1.377-0.582,2.838-1.214,4.403-1.506c1.55-0.403,3.175-0.498,4.796-0.574
		c1.621,0.074,3.247,0.161,4.798,0.561c1.566,0.289,3.029,0.924,4.407,1.502c1.332,0.739,2.61,1.403,3.657,2.325
		c0.533,0.436,1.037,0.869,1.501,1.306c0.438,0.487,0.855,0.943,1.229,1.408c0.361,0.484,0.737,0.881,1.011,1.365
		c0.276,0.482,0.543,0.913,0.76,1.35c0.216,0.438,0.425,0.823,0.582,1.212c0.143,0.405,0.27,0.772,0.364,1.119
		c0.208,0.671,0.294,1.248,0.374,1.609c0.07,0.373,0.085,0.586,0.085,0.586s-0.227-0.005-0.61-0.043
		c-0.372-0.048-0.95-0.072-1.588-0.165c-0.331-0.034-0.668-0.095-1.039-0.144c-0.395-0.019-0.785-0.073-1.208-0.106
		c-0.831-0.088-1.698-0.218-2.651-0.255c-0.468-0.031-0.923-0.098-1.398-0.138c-0.491-0.007-0.976-0.032-1.458-0.068
		c-0.943-0.123-1.969-0.05-2.921-0.17c-1.001,0.036-1.96-0.086-2.953-0.056c-0.976-0.073-1.964,0.004-2.943-0.065
		c-0.98,0.067-1.967-0.019-2.945,0.053c-0.994-0.035-1.953,0.092-2.956,0.051c-0.953,0.118-1.981,0.045-2.925,0.169
		c-0.482,0.036-0.966,0.062-1.459,0.068c-0.475,0.039-0.927,0.112-1.398,0.14c-0.972,0.053-1.78,0.144-2.591,0.215
		c-0.426,0.033-0.824,0.063-1.193,0.091c-0.393,0.071-0.752,0.15-1.093,0.195c-0.662,0.117-1.241,0.144-1.609,0.192
		C188.723,189.234,188.504,189.234,188.504,189.234z"/>
</g>
<path style="fill:#4D4D4D;" d="M304.722,242.314c-4.534,0-8.209-3.675-8.209-8.209v-13.13c0-4.534,3.675-8.209,8.209-8.209
	s8.209,3.675,8.209,8.209v13.13C312.931,238.639,309.256,242.314,304.722,242.314z"/>
<path style="fill:#666666;" d="M311.643,92.722c17.786,10.256,23.598,32.059,16.112,48.302c-4.488,9.752-13.78,17.502-28.151,19.559
	c-38.309,5.473-60.199-19.559-60.199-19.559h27.363C306.17,141.024,311.643,92.722,311.643,92.722z"/>
<g>
</g>
<g>
</g>
<g>
</g>
<g>
</g>
<g>
</g>
<g>
</g>
<g>
</g>
<g>
</g>
<g>
</g>
<g>
</g>
<g>
</g>
<g>
</g>
<g>
</g>
<g>
</g>
<g>
</g>
</svg>
