<?xml version="1.0" encoding="UTF-8" standalone="no" ?>
<!DOCTYPE svg PUBLIC "-//W3C//DTD SVG 1.1//EN" "http://www.w3.org/Graphics/SVG/1.1/DTD/svg11.dtd">
<svg xmlns="http://www.w3.org/2000/svg" xmlns:xlink="http://www.w3.org/1999/xlink" version="1.1" width="720" height="720" viewBox="0 0 720 720" xml:space="preserve">
<desc>Created with Fabric.js 4.2.0</desc>
<defs>
</defs>
<rect x="0" y="0" width="100%" height="100%" fill="transparent"></rect>
<g transform="matrix(1 0 0 1 360 360)" id="088ff5e9-cec8-4b99-9d85-4d7f1d684ffe"  >
<rect style="stroke: none; stroke-width: 1; stroke-dasharray: none; stroke-linecap: butt; stroke-dashoffset: 0; stroke-linejoin: miter; stroke-miterlimit: 4; fill: rgb(255,255,255); fill-opacity: 0; fill-rule: nonzero; opacity: 1;" vector-effect="non-scaling-stroke"  x="-360" y="-360" rx="0" ry="0" width="720" height="720" />
</g>
<g transform="matrix(0 0 0 0 0 0)" id="10e72e25-f349-42f5-adff-9246252ebd1e"  >
</g>
<g transform="matrix(1.36 0 0 1.36 358.14 358.57)"  >
<g style="" vector-effect="non-scaling-stroke"   >
		<g transform="matrix(1 0 0 1 -200.53 -4.27)"  >
<path style="stroke: none; stroke-width: 1; stroke-dasharray: none; stroke-linecap: butt; stroke-dashoffset: 0; stroke-linejoin: miter; stroke-miterlimit: 4; fill: rgb(165,165,164); fill-rule: nonzero; opacity: 1;" vector-effect="non-scaling-stroke"  transform=" translate(-55.47, -251.73)" d="M 25.6 196.267 C 16.174 196.267 8.533000000000001 203.908 8.533000000000001 213.334 L 8.533000000000001 298.66700000000003 C 8.533000000000001 303.38000000000005 12.354000000000001 307.20000000000005 17.066000000000003 307.20000000000005 L 26.495000000000005 307.20000000000005 C 30.843000000000004 307.20000000000005 34.496 303.93000000000006 34.976000000000006 299.60900000000004 L 42.666000000000004 230.40000000000003 L 102.4 230.40000000000003 L 102.4 196.26700000000002 L 25.6 196.26700000000002 z" stroke-linecap="round" />
</g>
		<g transform="matrix(1 0 0 1 -230.4 12.8)"  >
<path style="stroke: none; stroke-width: 1; stroke-dasharray: none; stroke-linecap: butt; stroke-dashoffset: 0; stroke-linejoin: miter; stroke-miterlimit: 4; fill: rgb(94,95,98); fill-rule: nonzero; opacity: 1;" vector-effect="non-scaling-stroke"  transform=" translate(-25.6, -268.8)" d="M 17.067 307.2 L 26.496000000000002 307.2 C 30.844 307.2 34.497 303.931 34.977000000000004 299.609 L 42.667 230.39999999999998 L 8.533 230.39999999999998 L 8.533 298.667 C 8.533 303.38 12.354 307.2 17.067 307.2 z" stroke-linecap="round" />
</g>
		<g transform="matrix(1 0 0 1 -162.92 102.56)"  >
<path style="stroke: none; stroke-width: 1; stroke-dasharray: none; stroke-linecap: butt; stroke-dashoffset: 0; stroke-linejoin: miter; stroke-miterlimit: 4; fill: rgb(84,117,128); fill-rule: nonzero; opacity: 1;" vector-effect="non-scaling-stroke"  transform=" translate(-93.08, -358.56)" d="M 160.566 316.843 L 55.521 438.101 C 52.848 441.252 49.115 443.315 45.025 443.904 C 40.138999999999996 444.537 35.213 443.081 31.457 439.893 C 24.374000000000002 433.702 23.612000000000002 422.957 29.75 415.82899999999995 L 153.6 273.067 L 160.566 316.843 z" stroke-linecap="round" />
</g>
		<g transform="matrix(1 0 0 1 25.67 102.56)"  >
<path style="stroke: none; stroke-width: 1; stroke-dasharray: none; stroke-linecap: butt; stroke-dashoffset: 0; stroke-linejoin: miter; stroke-miterlimit: 4; fill: rgb(84,117,128); fill-rule: nonzero; opacity: 1;" vector-effect="non-scaling-stroke"  transform=" translate(-281.67, -358.56)" d="M 221.867 273.067 L 345.003 415.83000000000004 C 351.14099999999996 422.958 350.37899999999996 433.70300000000003 343.296 439.89400000000006 C 339.54 443.0810000000001 334.614 444.53700000000003 329.728 443.9050000000001 C 325.63800000000003 443.31700000000006 321.90500000000003 441.2530000000001 319.232 438.1020000000001 L 214.187 316.843 L 221.867 273.067 z" stroke-linecap="round" />
</g>
		<g transform="matrix(1 0 0 1 -68.98 119.47)"  >
<path style="stroke: none; stroke-width: 1; stroke-dasharray: none; stroke-linecap: butt; stroke-dashoffset: 0; stroke-linejoin: miter; stroke-miterlimit: 4; fill: rgb(84,117,128); fill-rule: nonzero; opacity: 1;" vector-effect="non-scaling-stroke"  transform=" translate(-187.02, -375.47)" d="M 204.086 307.2 L 204.086 426.667 C 204.086 436.09299999999996 196.44500000000002 443.734 187.019 443.734 C 177.59300000000002 443.734 169.952 436.09299999999996 169.952 426.667 L 169.952 307.2 L 204.086 307.2 z" stroke-linecap="round" />
</g>
		<g transform="matrix(1 0 0 1 213.33 187.73)"  >
<path style="stroke: none; stroke-width: 1; stroke-dasharray: none; stroke-linecap: butt; stroke-dashoffset: 0; stroke-linejoin: miter; stroke-miterlimit: 4; fill: rgb(127,91,83); fill-rule: nonzero; opacity: 1;" vector-effect="non-scaling-stroke"  transform=" translate(-469.33, -443.73)" d="M 503.467 435.2 L 435.2 435.2 C 430.48699999999997 435.2 426.667 439.021 426.667 443.733 C 426.667 448.446 430.48699999999997 452.266 435.2 452.266 L 503.467 452.266 C 508.18 452.266 512 448.445 512 443.733 C 512 439.021 508.18 435.2 503.467 435.2 z" stroke-linecap="round" />
</g>
		<g transform="matrix(1 0 0 1 -51.2 187.73)"  >
<path style="stroke: none; stroke-width: 1; stroke-dasharray: none; stroke-linecap: butt; stroke-dashoffset: 0; stroke-linejoin: miter; stroke-miterlimit: 4; fill: rgb(127,91,83); fill-rule: nonzero; opacity: 1;" vector-effect="non-scaling-stroke"  transform=" translate(-204.8, -443.73)" d="M 401.067 435.2 L 8.533 435.2 C 3.821 435.2 0 439.021 0 443.733 C 0 448.446 3.821 452.266 8.533 452.266 L 401.06600000000003 452.266 C 405.77900000000005 452.266 409.59900000000005 448.445 409.59900000000005 443.733 C 409.6 439.021 405.78 435.2 401.067 435.2 z" stroke-linecap="round" />
</g>
		<g transform="matrix(1 0 0 1 -68.62 34.13)"  >
<path style="stroke: none; stroke-width: 1; stroke-dasharray: none; stroke-linecap: butt; stroke-dashoffset: 0; stroke-linejoin: miter; stroke-miterlimit: 4; fill: rgb(165,165,164); fill-rule: nonzero; opacity: 1;" vector-effect="non-scaling-stroke"  transform=" translate(-187.38, -290.13)" d="M 238.219 273.067 C 238.219 301.344 215.296 324.267 187.019 324.267 C 158.74200000000002 324.267 135.81900000000002 301.344 135.81900000000002 273.067 L 136.533 256 L 238.933 256 L 238.219 273.067 z" stroke-linecap="round" />
</g>
		<g transform="matrix(1 0 0 1 -162.13 -162.13)"  >
<path style="stroke: none; stroke-width: 1; stroke-dasharray: none; stroke-linecap: butt; stroke-dashoffset: 0; stroke-linejoin: miter; stroke-miterlimit: 4; fill: rgb(94,95,98); fill-rule: nonzero; opacity: 1;" vector-effect="non-scaling-stroke"  transform=" translate(-93.87, -93.87)" d="M 93.867 128 C 91.604 128.001 89.433 127.102 87.83200000000001 125.501 C 86.23200000000001 123.90100000000001 85.33300000000001 121.73 85.33300000000001 119.46600000000001 L 85.33300000000001 68.266 C 85.33300000000001 63.553000000000004 89.15400000000001 59.733000000000004 93.86600000000001 59.733000000000004 C 98.57800000000002 59.733000000000004 102.39900000000002 63.554 102.39900000000002 68.266 L 102.39900000000002 119.46600000000001 C 102.40000000000002 121.72900000000001 101.50100000000002 123.9 99.90000000000002 125.501 C 98.301 127.102 96.13 128.001 93.867 128 z" stroke-linecap="round" />
</g>
		<g transform="matrix(1 0 0 1 -140.8 -115.2)"  >
<path style="stroke: none; stroke-width: 1; stroke-dasharray: none; stroke-linecap: butt; stroke-dashoffset: 0; stroke-linejoin: miter; stroke-miterlimit: 4; fill: rgb(165,165,164); fill-rule: nonzero; opacity: 1;" vector-effect="non-scaling-stroke"  transform=" translate(-115.2, -140.8)" d="M 85.333 110.933 L 119.46600000000001 110.933 C 133.604 110.933 145.066 122.39500000000001 145.066 136.53300000000002 L 145.066 170.66600000000003 L 85.333 170.66600000000003 L 85.333 110.933 z" stroke-linecap="round" />
</g>
		<g transform="matrix(1 0 0 1 0 -128)"  >
<path style="stroke: none; stroke-width: 1; stroke-dasharray: none; stroke-linecap: butt; stroke-dashoffset: 0; stroke-linejoin: miter; stroke-miterlimit: 4; fill: rgb(165,165,164); fill-rule: nonzero; opacity: 1;" vector-effect="non-scaling-stroke"  transform=" translate(-256, -128)" d="M 256 162.133 C 253.737 162.13400000000001 251.566 161.235 249.965 159.63400000000001 C 248.365 158.03400000000002 247.466 155.86300000000003 247.466 153.59900000000002 L 247.466 102.39900000000002 C 247.466 97.68600000000002 251.287 93.86600000000001 255.999 93.86600000000001 C 260.712 93.86600000000001 264.532 97.68700000000001 264.532 102.39900000000002 L 264.532 153.59900000000002 C 264.53299999999996 155.86200000000002 263.63399999999996 158.03300000000002 262.03299999999996 159.63400000000001 C 260.434 161.235 258.263 162.134 256 162.133 z" stroke-linecap="round" />
</g>
		<g transform="matrix(1 0 0 1 119.47 -42.67)"  >
<path style="stroke: none; stroke-width: 1; stroke-dasharray: none; stroke-linecap: butt; stroke-dashoffset: 0; stroke-linejoin: miter; stroke-miterlimit: 4; fill: rgb(165,165,164); fill-rule: nonzero; opacity: 1;" vector-effect="non-scaling-stroke"  transform=" translate(-375.47, -213.33)" d="M 503.467 196.267 L 503.467 230.4 C 503.453 235.107 499.64099999999996 238.919 494.93399999999997 238.933 L 247.467 238.933 L 247.467 187.733 L 494.934 187.733 C 499.64 187.747 503.453 191.56 503.467 196.267 z" stroke-linecap="round" />
</g>
		<g transform="matrix(1 0 0 1 42.67 -59.73)"  >
<path style="stroke: none; stroke-width: 1; stroke-dasharray: none; stroke-linecap: butt; stroke-dashoffset: 0; stroke-linejoin: miter; stroke-miterlimit: 4; fill: rgb(94,95,98); fill-rule: nonzero; opacity: 1;" vector-effect="non-scaling-stroke"  transform=" translate(-298.67, -196.27)" d="M 307.2 187.733 L 307.2 196.266 C 307.2 200.97899999999998 303.38 204.79899999999998 298.667 204.79899999999998 C 293.95399999999995 204.79899999999998 290.13399999999996 200.97799999999998 290.13399999999996 196.266 L 290.13399999999996 187.733 L 307.2 187.733 z" stroke-linecap="round" />
</g>
		<g transform="matrix(1 0 0 1 76.8 -59.73)"  >
<path style="stroke: none; stroke-width: 1; stroke-dasharray: none; stroke-linecap: butt; stroke-dashoffset: 0; stroke-linejoin: miter; stroke-miterlimit: 4; fill: rgb(94,95,98); fill-rule: nonzero; opacity: 1;" vector-effect="non-scaling-stroke"  transform=" translate(-332.8, -196.27)" d="M 341.333 187.733 L 341.333 196.266 C 341.333 200.97899999999998 337.51300000000003 204.79899999999998 332.8 204.79899999999998 C 328.087 204.79899999999998 324.267 200.97799999999998 324.267 196.266 L 324.267 187.733 L 341.333 187.733 z" stroke-linecap="round" />
</g>
		<g transform="matrix(1 0 0 1 110.93 -59.73)"  >
<path style="stroke: none; stroke-width: 1; stroke-dasharray: none; stroke-linecap: butt; stroke-dashoffset: 0; stroke-linejoin: miter; stroke-miterlimit: 4; fill: rgb(94,95,98); fill-rule: nonzero; opacity: 1;" vector-effect="non-scaling-stroke"  transform=" translate(-366.93, -196.27)" d="M 375.467 187.733 L 375.467 196.266 C 375.467 200.97899999999998 371.647 204.79899999999998 366.93399999999997 204.79899999999998 C 362.22099999999995 204.79899999999998 358.40099999999995 200.97799999999998 358.40099999999995 196.266 L 358.40099999999995 187.733 L 375.467 187.733 z" stroke-linecap="round" />
</g>
		<g transform="matrix(1 0 0 1 145.07 -59.73)"  >
<path style="stroke: none; stroke-width: 1; stroke-dasharray: none; stroke-linecap: butt; stroke-dashoffset: 0; stroke-linejoin: miter; stroke-miterlimit: 4; fill: rgb(94,95,98); fill-rule: nonzero; opacity: 1;" vector-effect="non-scaling-stroke"  transform=" translate(-401.07, -196.27)" d="M 409.6 187.733 L 409.6 196.266 C 409.6 200.97899999999998 405.779 204.79899999999998 401.067 204.79899999999998 C 396.355 204.79899999999998 392.534 200.97799999999998 392.534 196.266 L 392.534 187.733 L 409.6 187.733 z" stroke-linecap="round" />
</g>
		<g transform="matrix(1 0 0 1 179.2 -59.73)"  >
<path style="stroke: none; stroke-width: 1; stroke-dasharray: none; stroke-linecap: butt; stroke-dashoffset: 0; stroke-linejoin: miter; stroke-miterlimit: 4; fill: rgb(94,95,98); fill-rule: nonzero; opacity: 1;" vector-effect="non-scaling-stroke"  transform=" translate(-435.2, -196.27)" d="M 443.733 187.733 L 443.733 196.266 C 443.733 200.97899999999998 439.912 204.79899999999998 435.2 204.79899999999998 C 430.488 204.79899999999998 426.667 200.97799999999998 426.667 196.266 L 426.667 187.733 L 443.733 187.733 z" stroke-linecap="round" />
</g>
		<g transform="matrix(1 0 0 1 213.33 -59.73)"  >
<path style="stroke: none; stroke-width: 1; stroke-dasharray: none; stroke-linecap: butt; stroke-dashoffset: 0; stroke-linejoin: miter; stroke-miterlimit: 4; fill: rgb(94,95,98); fill-rule: nonzero; opacity: 1;" vector-effect="non-scaling-stroke"  transform=" translate(-469.33, -196.27)" d="M 477.867 187.733 L 477.867 196.266 C 477.867 200.97899999999998 474.046 204.79899999999998 469.334 204.79899999999998 C 464.621 204.79899999999998 460.801 200.97799999999998 460.801 196.266 L 460.801 187.733 L 477.867 187.733 z" stroke-linecap="round" />
</g>
		<g transform="matrix(1 0 0 1 76.8 -25.6)"  >
<path style="stroke: none; stroke-width: 1; stroke-dasharray: none; stroke-linecap: butt; stroke-dashoffset: 0; stroke-linejoin: miter; stroke-miterlimit: 4; fill: rgb(94,95,98); fill-rule: nonzero; opacity: 1;" vector-effect="non-scaling-stroke"  transform=" translate(-332.8, -230.4)" d="M 341.333 230.4 L 341.333 238.933 L 324.266 238.933 L 324.266 230.4 C 324.266 225.687 328.086 221.86700000000002 332.79900000000004 221.86700000000002 C 337.51200000000006 221.86700000000002 341.333 225.687 341.333 230.4 z" stroke-linecap="round" />
</g>
		<g transform="matrix(1 0 0 1 110.93 -25.6)"  >
<path style="stroke: none; stroke-width: 1; stroke-dasharray: none; stroke-linecap: butt; stroke-dashoffset: 0; stroke-linejoin: miter; stroke-miterlimit: 4; fill: rgb(94,95,98); fill-rule: nonzero; opacity: 1;" vector-effect="non-scaling-stroke"  transform=" translate(-366.93, -230.4)" d="M 375.467 230.4 L 375.467 238.933 L 358.4 238.933 L 358.4 230.4 C 358.4 225.687 362.21999999999997 221.86700000000002 366.933 221.86700000000002 C 371.646 221.86700000000002 375.467 225.687 375.467 230.4 z" stroke-linecap="round" />
</g>
		<g transform="matrix(1 0 0 1 145.07 -25.6)"  >
<path style="stroke: none; stroke-width: 1; stroke-dasharray: none; stroke-linecap: butt; stroke-dashoffset: 0; stroke-linejoin: miter; stroke-miterlimit: 4; fill: rgb(94,95,98); fill-rule: nonzero; opacity: 1;" vector-effect="non-scaling-stroke"  transform=" translate(-401.07, -230.4)" d="M 409.6 230.4 L 409.6 238.933 L 392.533 238.933 L 392.533 230.4 C 392.533 225.687 396.353 221.86700000000002 401.06600000000003 221.86700000000002 C 405.77900000000005 221.86700000000002 409.6 225.687 409.6 230.4 z" stroke-linecap="round" />
</g>
		<g transform="matrix(1 0 0 1 179.2 -25.6)"  >
<path style="stroke: none; stroke-width: 1; stroke-dasharray: none; stroke-linecap: butt; stroke-dashoffset: 0; stroke-linejoin: miter; stroke-miterlimit: 4; fill: rgb(94,95,98); fill-rule: nonzero; opacity: 1;" vector-effect="non-scaling-stroke"  transform=" translate(-435.2, -230.4)" d="M 443.733 230.4 L 443.733 238.933 L 426.666 238.933 L 426.666 230.4 C 426.666 225.687 430.486 221.86700000000002 435.199 221.86700000000002 C 439.91200000000003 221.86700000000002 443.733 225.687 443.733 230.4 z" stroke-linecap="round" />
</g>
		<g transform="matrix(1 0 0 1 213.33 -25.6)"  >
<path style="stroke: none; stroke-width: 1; stroke-dasharray: none; stroke-linecap: butt; stroke-dashoffset: 0; stroke-linejoin: miter; stroke-miterlimit: 4; fill: rgb(94,95,98); fill-rule: nonzero; opacity: 1;" vector-effect="non-scaling-stroke"  transform=" translate(-469.33, -230.4)" d="M 477.867 230.4 L 477.867 238.933 L 460.8 238.933 L 460.8 230.4 C 460.8 225.687 464.62100000000004 221.86700000000002 469.333 221.86700000000002 C 474.046 221.867 477.867 225.687 477.867 230.4 z" stroke-linecap="round" />
</g>
		<g transform="matrix(1 0 0 1 42.67 -25.6)"  >
<path style="stroke: none; stroke-width: 1; stroke-dasharray: none; stroke-linecap: butt; stroke-dashoffset: 0; stroke-linejoin: miter; stroke-miterlimit: 4; fill: rgb(94,95,98); fill-rule: nonzero; opacity: 1;" vector-effect="non-scaling-stroke"  transform=" translate(-298.67, -230.4)" d="M 307.2 230.4 L 307.2 238.933 L 290.133 238.933 L 290.133 230.4 C 290.133 225.687 293.953 221.86700000000002 298.666 221.86700000000002 C 303.379 221.86700000000002 307.2 225.687 307.2 230.4 z" stroke-linecap="round" />
</g>
		<g transform="matrix(1 0 0 1 -81.07 -42.67)"  >
<path style="stroke: none; stroke-width: 1; stroke-dasharray: none; stroke-linecap: butt; stroke-dashoffset: 0; stroke-linejoin: miter; stroke-miterlimit: 4; fill: rgb(94,95,98); fill-rule: nonzero; opacity: 1;" vector-effect="non-scaling-stroke"  transform=" translate(-174.93, -213.33)" d="M 85.333 153.6 L 264.533 153.6 L 264.533 264.533 C 264.533 269.24600000000004 260.712 273.06600000000003 256 273.06600000000003 L 93.867 273.06600000000003 C 89.15400000000001 273.06600000000003 85.334 269.24600000000004 85.334 264.533 L 85.334 153.6 z" stroke-linecap="round" />
</g>
		<g transform="matrix(1 0 0 1 -55.47 -46.93)"  >
<circle style="stroke: none; stroke-width: 1; stroke-dasharray: none; stroke-linecap: butt; stroke-dashoffset: 0; stroke-linejoin: miter; stroke-miterlimit: 4; fill: rgb(165,165,164); fill-rule: nonzero; opacity: 1;" vector-effect="non-scaling-stroke"  cx="0" cy="0" r="21.333" />
</g>
</g>
</g>
<g transform="matrix(3.61 0 0 3.61 624 600.86)" style="filter: url(#SVGID_1524);" id="f42727bd-bc40-4e3b-832d-5e77afda711c"  >
<filter id="SVGID_1524" y="-46%" height="192%" x="-54%" width="208%" >
	<feGaussianBlur in="SourceAlpha" stdDeviation="7.5"></feGaussianBlur>
	<feOffset dx="0" dy="0" result="oBlur" ></feOffset>
	<feFlood flood-color="rgb(0,0,0)" flood-opacity="1"/>
	<feComposite in2="oBlur" operator="in" />
	<feMerge>
		<feMergeNode></feMergeNode>
		<feMergeNode in="SourceGraphic"></feMergeNode>
	</feMerge>
</filter>
		<rect opacity="0" fill="rgb(0,0,0)" x="-22.39" y="-28.81" width="44.77" height="57.63"></rect>
		<text xml:space="preserve" font-family="Lato" font-size="51" font-style="normal" font-weight="400" style="stroke: none; stroke-width: 1; stroke-dasharray: none; stroke-linecap: butt; stroke-dashoffset: 0; stroke-linejoin: miter; stroke-miterlimit: 4; fill: rgb(0,0,255); fill-rule: nonzero; opacity: 1; white-space: pre;" ><tspan x="-16.5" y="16.02" >B</tspan></text>
</g>
</svg>