<svg id="Capa_1" enable-background="new 0 0 493.74 493.74" height="512" viewBox="0 0 493.74 493.74" width="512" xmlns="http://www.w3.org/2000/svg"><g><path d="m380.654 493.74h-267.568c-9.023 0-16.338-7.315-16.338-16.338v-42.162c0-41.892 33.961-75.853 75.853-75.853h148.538c41.893 0 75.853 33.961 75.853 75.853v42.161c0 9.024-7.315 16.339-16.338 16.339z" fill="#6c7fd8"/><path d="m321.139 359.387h-30c41.892 0 75.853 33.961 75.853 75.853v42.161c0 9.023-7.315 16.338-16.338 16.338h30c9.023 0 16.338-7.315 16.338-16.338v-42.161c0-41.892-33.96-75.853-75.853-75.853z" fill="#4f66d0"/><g fill="#ffcdbe"><circle cx="343.258" cy="251.756" r="27.819"/><circle cx="150.728" cy="251.756" r="27.819"/><path d="m327.07 206.072h-163.62c-1.499 5.989-2.353 12.227-2.483 18.634h-.022v38.587h.022c.926 45.588 38.496 82.595 84.295 82.595 45.799 0 83.369-37.008 84.295-82.595h.022v-38.587h-.022c-.129-6.408-.988-12.645-2.487-18.634z"/></g><path d="m340.607 276.915-.411-79.592h-27.353v55.433c0 24.388-19.771 44.159-44.159 44.159h-46.703c-24.388 0-44.159-19.771-44.159-44.159v-55.433h-27.352v97.505h.259v37.308c0 52.512 95.082 145.082 95.082 145.082s95.082-92.569 95.082-145.082v-55.221z" fill="#fff9f0"/><g><path d="m340.607 276.915-.411-79.592h-27.353v55.433c0 4.906-.812 9.619-2.289 14.028l.052 10.131h.285v55.221c0 39.315-53.294 101.08-80.082 129.644 8.992 9.588 15 15.438 15 15.438s95.082-92.569 95.082-145.082v-55.221z" fill="#ffefe1"/></g><path d="m276.454 282.756c-12.298-12.366-24.45-11.786-30.851-5.421-.377.375-.718.763-1.043 1.159-.378-.423-.776-.838-1.217-1.232-6.729-6.016-18.896-5.949-30.519 7.053s-18.74 39.412-27.75 39.917c0 0 21.817 5.016 41.657-7.371 8.604-5.372 14.829-8.776 18.273-15.069 3.761 6.145 10.351 9.261 19.292 14.203 20.47 11.314 41.99 5.146 41.99 5.146-9.023-.025-17.534-26.019-29.832-38.385z" fill="#ffefe1"/><path d="m285.966 123.974-31.202-119.63c-2.148-5.792-10.341-5.792-12.489 0l-31.202 119.63c-12.208 32.911-38.411 58.873-71.655 70.143-13.705 4.646-24.437 10.17-31.247 16.273-5.214 4.672-1.992 13.291 5.009 13.291h270.68c7.001 0 10.222-8.619 5.009-13.291-6.81-6.103-17.542-11.626-31.247-16.273-33.245-11.271-59.449-37.232-71.656-70.143z" fill="#6c7fd8"/><path d="m388.868 210.39c-6.81-6.103-17.542-11.626-31.247-16.273-33.244-11.271-59.447-37.232-71.655-70.143l-31.202-119.63c-2.148-5.792-10.341-5.792-12.489 0l-8.974 34.406 22.228 85.223c12.208 32.911 38.411 58.873 71.655 70.143 13.705 4.646 24.437 10.17 31.247 16.273 5.214 4.672 1.992 13.291-5.009 13.291h30.437c7.001.001 10.223-8.618 5.009-13.29z" fill="#4f66d0"/><path d="m216.37 261.156c-4.143 0-7.5-3.358-7.5-7.5v-6.5c0-4.142 3.357-7.5 7.5-7.5s7.5 3.358 7.5 7.5v6.5c0 4.142-3.358 7.5-7.5 7.5z" fill="#ebae9d"/><path d="m273.312 261.156c-4.143 0-7.5-3.358-7.5-7.5v-6.5c0-4.142 3.357-7.5 7.5-7.5s7.5 3.358 7.5 7.5v6.5c0 4.142-3.357 7.5-7.5 7.5z" fill="#ebae9d"/></g></svg>