<?xml version="1.0" encoding="UTF-8" standalone="no" ?>
<!DOCTYPE svg PUBLIC "-//W3C//DTD SVG 1.1//EN" "http://www.w3.org/Graphics/SVG/1.1/DTD/svg11.dtd">
<svg xmlns="http://www.w3.org/2000/svg" xmlns:xlink="http://www.w3.org/1999/xlink" version="1.1" width="720" height="720" viewBox="0 0 720 720" xml:space="preserve">
<desc>Created with Fabric.js 4.2.0</desc>
<defs>
</defs>
<rect x="0" y="0" width="100%" height="100%" fill="transparent"></rect>
<g transform="matrix(1 0 0 1 360 360)" id="088ff5e9-cec8-4b99-9d85-4d7f1d684ffe"  >
<rect style="stroke: none; stroke-width: 1; stroke-dasharray: none; stroke-linecap: butt; stroke-dashoffset: 0; stroke-linejoin: miter; stroke-miterlimit: 4; fill: rgb(255,255,255); fill-opacity: 0; fill-rule: nonzero; opacity: 1;" vector-effect="non-scaling-stroke"  x="-360" y="-360" rx="0" ry="0" width="720" height="720" />
</g>
<g transform="matrix(0 0 0 0 0 0)" id="10e72e25-f349-42f5-adff-9246252ebd1e"  >
</g>
<g transform="matrix(3.61 0 0 3.61 624 600.86)" style="filter: url(#SVGID_1503);" id="f42727bd-bc40-4e3b-832d-5e77afda711c"  >
<filter id="SVGID_1503" y="-46%" height="192%" x="-54%" width="208%" >
	<feGaussianBlur in="SourceAlpha" stdDeviation="7.5"></feGaussianBlur>
	<feOffset dx="0" dy="0" result="oBlur" ></feOffset>
	<feFlood flood-color="rgb(255,255,0)" flood-opacity="1"/>
	<feComposite in2="oBlur" operator="in" />
	<feMerge>
		<feMergeNode></feMergeNode>
		<feMergeNode in="SourceGraphic"></feMergeNode>
	</feMerge>
</filter>
		<rect opacity="0" fill="rgb(0,0,0)" x="-22.39" y="-28.81" width="44.77" height="57.63"></rect>
		<text xml:space="preserve" font-family="Lato" font-size="51" font-style="normal" font-weight="400" style="stroke: none; stroke-width: 1; stroke-dasharray: none; stroke-linecap: butt; stroke-dashoffset: 0; stroke-linejoin: miter; stroke-miterlimit: 4; fill: rgb(85,85,255); fill-rule: nonzero; opacity: 1; white-space: pre;" ><tspan x="-17.47" y="16.02" >C</tspan></text>
</g>
<g transform="matrix(0 -1.35 1.35 0 360.51 360.51)"  >
<g style="" vector-effect="non-scaling-stroke"   >
		<g transform="matrix(8.83 0 0 8.83 194.16 205.19)" id="Shape"  >
<path style="stroke: none; stroke-width: 1; stroke-dasharray: none; stroke-linecap: butt; stroke-dashoffset: 0; stroke-linejoin: miter; stroke-miterlimit: 4; fill: rgb(228,126,37); fill-rule: nonzero; opacity: 1;" vector-effect="non-scaling-stroke"  transform=" translate(-51, -52.25)" d="M 46.74 46.49 L 53.58 51.06 C 54.739999999999995 49.84 56.129999999999995 49.31 57.07 49.85 C 58.32 50.57 58.31 52.94 57.04 55.13 C 55.769999999999996 57.32000000000001 53.74 58.510000000000005 52.48 57.790000000000006 C 51.61 57.290000000000006 51.349999999999994 55.980000000000004 51.699999999999996 54.480000000000004 L 43.989999999999995 51.39 z" stroke-linecap="round" />
</g>
		<g transform="matrix(8.83 0 0 8.83 115.89 160.85)" id="Shape"  >
<path style="stroke: none; stroke-width: 1; stroke-dasharray: none; stroke-linecap: butt; stroke-dashoffset: 0; stroke-linejoin: miter; stroke-miterlimit: 4; fill: rgb(239,195,25); fill-rule: nonzero; opacity: 1;" vector-effect="non-scaling-stroke"  transform=" translate(-42.13, -47.22)" d="M 40.66 42.66 C 42.36 41.05 44.29 40.38999999999999 45.629999999999995 41.16 C 47.019999999999996 41.959999999999994 47.38999999999999 44.089999999999996 46.739999999999995 46.489999999999995 C 46.235420299999994 48.3226525 45.291477799999996 50.00458629999999 43.989999999999995 51.38999999999999 C 42.199999999999996 53.28999999999999 40.06999999999999 54.11999999999999 38.629999999999995 53.279999999999994 C 37.279999999999994 52.49999999999999 36.88999999999999 50.48 37.459999999999994 48.17999999999999 z" stroke-linecap="round" />
</g>
		<g transform="matrix(8.83 0 0 8.83 -66.41 -40.17)" id="Shape"  >
<path style="stroke: none; stroke-width: 1; stroke-dasharray: none; stroke-linecap: butt; stroke-dashoffset: 0; stroke-linejoin: miter; stroke-miterlimit: 4; fill: rgb(148,164,164); fill-rule: nonzero; opacity: 1;" vector-effect="non-scaling-stroke"  transform=" translate(-21.48, -24.45)" d="M 42.94 44.73 C 42.578324099999996 46.302411799999994 41.6889676 47.7035013 40.419999999999995 48.699999999999996 C 40.1620911 48.893026299999995 39.826571099999995 48.948946299999996 39.519999999999996 48.849999999999994 C 38.81999999999999 48.629999999999995 38.13999999999999 48.41 37.459999999999994 48.17999999999999 C 20.459999999999994 42.39999999999999 11.149999999999995 32.61999999999999 6.059999999999995 23.289999999999992 C 2.240422019999995 16.289705399999992 0.1618851299999955 8.472897469999992 -4.440892098500626e-15 0.4999999999999929 C -0.001971210000004441 0.28918478999999286 0.13032747999999555 0.10044713999999288 0.32917454999999557 0.030398739999992874 C 0.5280216299999956 -0.03964967000000713 0.7494041299999956 0.024495749999992874 0.8799999999999957 0.18999999999999287 C 2.4699999999999958 2.209999999999993 6.889999999999995 5.899999999999993 18.499999999999996 5.999999999999993 C 18.634359199999995 5.999973129999993 18.763075399999998 6.054022039999993 18.857136399999998 6.149964279999993 C 18.9511975 6.245906529999993 19.002687199999997 6.375667689999993 18.999999999999996 6.509999999999993 C 18.889999999999997 9.829999999999993 19.269999999999996 29.779999999999994 40.66 42.65999999999999 C 41.23 42.99999999999999 41.81999999999999 43.33999999999999 42.43 43.67999999999999 C 42.8059795 43.88594379999999 43.0105705 44.307160499999995 42.94 44.72999999999999 z" stroke-linecap="round" />
</g>
		<g transform="matrix(8.83 0 0 8.83 -86.15 -17.6)" id="Shape"  >
<path style="stroke: none; stroke-width: 1; stroke-dasharray: none; stroke-linecap: butt; stroke-dashoffset: 0; stroke-linejoin: miter; stroke-miterlimit: 4; fill: rgb(255,255,255); fill-rule: nonzero; opacity: 1;" vector-effect="non-scaling-stroke"  transform=" translate(-19.24, -27.01)" d="M 32.761 43.048 C 32.6199578 43.048106000000004 32.4805177 43.0181042 32.352000000000004 42.96 C 21.669000000000004 38.160000000000004 13.708000000000006 31.060000000000002 8.687000000000005 21.853 C 7.030882380000005 18.814666900000002 5.716849890000004 15.602028500000001 4.769000000000005 12.274000000000001 C 4.656929960000005 11.926335400000001 4.743341070000005 11.545225700000001 4.994398880000005 11.279895100000001 C 5.2454567000000045 11.014564400000001 5.621211490000005 10.907233900000001 5.974535710000005 10.999928800000001 C 6.327859940000005 11.092623800000002 6.602530660000005 11.370594100000002 6.691000000000005 11.725000000000001 C 7.599444940000005 14.9107569 8.857775510000005 17.9861544 10.443000000000005 20.895000000000003 C 15.250000000000005 29.714000000000006 22.900000000000006 36.523 33.17100000000001 41.136 C 33.6009286 41.329368900000006 33.83742290000001 41.796734300000004 33.738582300000004 42.257668800000005 C 33.6397417 42.718603400000006 33.23241290000001 43.047910400000006 32.761 43.048 z" stroke-linecap="round" />
</g>
		<g transform="matrix(8.83 0 0 8.83 -120.29 -91.78)" id="Shape"  >
<path style="stroke: none; stroke-width: 1; stroke-dasharray: none; stroke-linecap: butt; stroke-dashoffset: 0; stroke-linejoin: miter; stroke-miterlimit: 4; fill: rgb(127,139,140); fill-rule: nonzero; opacity: 1;" vector-effect="non-scaling-stroke"  transform=" translate(-15.37, -18.6)" d="M 20.732 29 C 20.3686064 29.0003783 20.0336092 28.8035913 19.857 28.486 C 16.8135896 23.0213474 14.8932979 17.003436100000002 14.209 10.786000000000001 C 12.7423699 10.672986500000002 11.2835666 10.474650700000002 9.84 10.192000000000002 C 9.48526406 10.127184800000002 9.19289992 9.876399870000002 9.07484476 9.535663050000002 C 8.95678961 9.194926230000002 9.03133083 8.817019540000002 9.26992892 8.546631760000002 C 9.508526999999999 8.276243970000003 9.87422176 8.155259670000001 10.227 8.230000000000002 C 11.5988264 8.496003970000002 12.9837603 8.689273860000002 14.376000000000001 8.809000000000003 C 15.3272568 8.886748220000003 16.091026600000003 9.625812720000003 16.200000000000003 10.574000000000003 C 16.852554500000004 16.523907900000005 18.688565500000003 22.283202600000003 21.6 27.513000000000005 C 21.7722266 27.821864800000004 21.768514600000003 28.198725900000007 21.590237600000002 28.504138300000005 C 21.411960500000003 28.809550700000006 21.0856323 28.998092500000006 20.732000000000003 29.000000000000004 z" stroke-linecap="round" />
</g>
		<g transform="matrix(8.83 0 0 8.83 -211.54 -185.4)" id="Oval"  >
<circle style="stroke: none; stroke-width: 1; stroke-dasharray: none; stroke-linecap: butt; stroke-dashoffset: 0; stroke-linejoin: miter; stroke-miterlimit: 4; fill: rgb(255,255,255); fill-rule: nonzero; opacity: 1;" vector-effect="non-scaling-stroke"  cx="0" cy="0" r="1" />
</g>
</g>
</g>
</svg>