<?xml version="1.0" encoding="UTF-8" standalone="no" ?>
<!DOCTYPE svg PUBLIC "-//W3C//DTD SVG 1.1//EN" "http://www.w3.org/Graphics/SVG/1.1/DTD/svg11.dtd">
<svg xmlns="http://www.w3.org/2000/svg" xmlns:xlink="http://www.w3.org/1999/xlink" version="1.1" width="720" height="720" viewBox="0 0 720 720" xml:space="preserve">
<desc>Created with Fabric.js 4.2.0</desc>
<defs>
</defs>
<rect x="0" y="0" width="100%" height="100%" fill="transparent"></rect>
<g transform="matrix(1 0 0 1 360 360)" id="1b611884-6b14-41d1-85aa-cb9b3af04acb"  >
<rect style="stroke: none; stroke-width: 1; stroke-dasharray: none; stroke-linecap: butt; stroke-dashoffset: 0; stroke-linejoin: miter; stroke-miterlimit: 4; fill: rgb(255,255,255); fill-opacity: 0; fill-rule: nonzero; opacity: 1;" vector-effect="non-scaling-stroke"  x="-360" y="-360" rx="0" ry="0" width="720" height="720" />
</g>
<g transform="matrix(0 0 0 0 0 0)" id="099a0cde-e345-4787-9a8d-dbca54d07a07"  >
</g>
<g transform="matrix(1.39 0 0 1.39 356.93 356.93)"  >
<g style="" vector-effect="non-scaling-stroke"   >
		<g transform="matrix(8.68 0 0 8.68 199.82 201.89)" id="Shape"  >
<path style="stroke: none; stroke-width: 1; stroke-dasharray: none; stroke-linecap: butt; stroke-dashoffset: 0; stroke-linejoin: miter; stroke-miterlimit: 4; fill: rgb(95,83,70); fill-rule: nonzero; opacity: 1;" vector-effect="non-scaling-stroke"  transform=" translate(-53.03, -53.23)" d="M 47.05 51.78 C 47.98 52.65 46.169999999999995 51.31 54.53 58.78 C 54.7551952 58.9556185 55.0447306 59.026577700000004 55.325610000000005 58.9749877 C 55.60648930000001 58.9233976 55.85191090000001 58.754181 56.00000000000001 58.51 L 58.86000000000001 55 C 59.12251950000001 54.5634009 59.01485480000001 53.9992376 58.61000000000001 53.69 L 50.510000000000005 47.459999999999994 L 48.00000000000001 49.11999999999999 z" stroke-linecap="round" />
</g>
		<g transform="matrix(8.68 0 0 8.68 142.75 155.58)" id="Shape"  >
<path style="stroke: none; stroke-width: 1; stroke-dasharray: none; stroke-linecap: butt; stroke-dashoffset: 0; stroke-linejoin: miter; stroke-miterlimit: 4; fill: rgb(240,196,25); fill-rule: nonzero; opacity: 1;" vector-effect="non-scaling-stroke"  transform=" translate(-46.45, -47.89)" d="M 43 48 L 47 51.78 L 50.46 47.46 L 46 44 L 42.44 44.28 z" stroke-linecap="round" />
</g>
		<g transform="matrix(8.68 0 0 8.68 156 165.48)" id="Shape"  >
<path style="stroke: none; stroke-width: 1; stroke-dasharray: none; stroke-linecap: butt; stroke-dashoffset: 0; stroke-linejoin: miter; stroke-miterlimit: 4; fill: rgb(243,213,91); fill-rule: nonzero; opacity: 1;" vector-effect="non-scaling-stroke"  transform=" translate(-47.98, -49.03)" d="M 43.38 54.78 C 43.8113699 55.120356900000004 44.4365461 55.0489082 44.78 54.620000000000005 C 50.38 47.620000000000005 47.17 51.620000000000005 52.78 44.620000000000005 C 53.0675227 44.187450600000005 52.9760372 43.606790200000006 52.569445 43.2836015 C 52.1628527 42.9604128 51.5765237 43.002297600000006 51.22 43.38 C 47.93 47.57 50.6 44.24 43.22 53.38 C 42.879643099999996 53.8113699 42.9510918 54.4365461 43.379999999999995 54.78 z" stroke-linecap="round" />
</g>
		<g transform="matrix(8.68 0 0 8.68 184.36 190.08)" id="Shape"  >
<path style="stroke: none; stroke-width: 1; stroke-dasharray: none; stroke-linecap: butt; stroke-dashoffset: 0; stroke-linejoin: miter; stroke-miterlimit: 4; fill: rgb(127,110,93); fill-rule: nonzero; opacity: 1;" vector-effect="non-scaling-stroke"  transform=" translate(-51.24, -51.87)" d="M 49.66 54.27 C 49.76 54.27 49.58 54.14 51.33 55.77 C 52.01 52.77 51.66 54.290000000000006 52.83 49.300000000000004 L 51.08 47.96 C 49.21 56.19 49.769999999999996 53.84 49.66 54.27 z" stroke-linecap="round" />
</g>
		<g transform="matrix(8.68 0 0 8.68 206.54 206.57)" id="Shape"  >
<path style="stroke: none; stroke-width: 1; stroke-dasharray: none; stroke-linecap: butt; stroke-dashoffset: 0; stroke-linejoin: miter; stroke-miterlimit: 4; fill: rgb(127,110,93); fill-rule: nonzero; opacity: 1;" vector-effect="non-scaling-stroke"  transform=" translate(-53.8, -53.77)" d="M 49.71 54.26 L 51.33 55.769999999999996 C 51.43 55.769999999999996 51.25 55.769999999999996 57.89 53.19 L 56.04 51.76 C 51.1 53.699999999999996 52.49 53.15 49.71 54.26 z" stroke-linecap="round" />
</g>
		<g transform="matrix(8.68 0 0 8.68 -199.61 202.01)" id="Shape"  >
<path style="stroke: none; stroke-width: 1; stroke-dasharray: none; stroke-linecap: butt; stroke-dashoffset: 0; stroke-linejoin: miter; stroke-miterlimit: 4; fill: rgb(95,83,70); fill-rule: nonzero; opacity: 1;" vector-effect="non-scaling-stroke"  transform=" translate(-7, -53.24)" d="M 13 51.78 C 12.07 52.65 13.88 51.31 5.52 58.78 C 5.29263134 58.9738625 4.99048544 59.0558959 4.6962945099999995 59.0036383 C 4.4021035799999995 58.951380699999994 4.146693689999999 58.7703077 3.9999999999999996 58.51 L 1.1399999999999997 55 C 0.8774804699999996 54.5634009 0.9851452299999996 53.9992376 1.3899999999999997 53.69 L 9.489999999999998 47.459999999999994 L 11.999999999999998 49.11999999999999 z" stroke-linecap="round" />
</g>
		<g transform="matrix(8.68 0 0 8.68 -142.97 155.58)" id="Shape"  >
<path style="stroke: none; stroke-width: 1; stroke-dasharray: none; stroke-linecap: butt; stroke-dashoffset: 0; stroke-linejoin: miter; stroke-miterlimit: 4; fill: rgb(240,196,25); fill-rule: nonzero; opacity: 1;" vector-effect="non-scaling-stroke"  transform=" translate(-13.52, -47.89)" d="M 17 48 L 13 51.78 L 9.49 47.46 L 14 44 L 17.56 44.28 z" stroke-linecap="round" />
</g>
		<g transform="matrix(8.68 0 0 8.68 -156 165.48)" id="Shape"  >
<path style="stroke: none; stroke-width: 1; stroke-dasharray: none; stroke-linecap: butt; stroke-dashoffset: 0; stroke-linejoin: miter; stroke-miterlimit: 4; fill: rgb(243,213,91); fill-rule: nonzero; opacity: 1;" vector-effect="non-scaling-stroke"  transform=" translate(-12.02, -49.03)" d="M 16.62 54.78 C 16.1886301 55.120356900000004 15.5634539 55.0489082 15.22 54.620000000000005 C 9.620000000000001 47.620000000000005 12.82 51.620000000000005 7.220000000000001 44.620000000000005 C 6.932477340000001 44.187450600000005 7.023962750000001 43.606790200000006 7.430555040000001 43.2836015 C 7.8371473300000005 42.9604128 8.42347634 43.002297600000006 8.780000000000001 43.38 C 12.07 47.57 9.4 44.24 16.78 53.38 C 17.1203569 53.8113699 17.0489082 54.4365461 16.62 54.78 z" stroke-linecap="round" />
</g>
		<g transform="matrix(8.68 0 0 8.68 -56.69 -47.81)" id="Shape"  >
<path style="stroke: none; stroke-width: 1; stroke-dasharray: none; stroke-linecap: butt; stroke-dashoffset: 0; stroke-linejoin: miter; stroke-miterlimit: 4; fill: rgb(189,195,199); fill-rule: nonzero; opacity: 1;" vector-effect="non-scaling-stroke"  transform=" translate(-23.47, -24.45)" d="M 46 44 C 17.87 20.79 7.090000000000003 6.600000000000001 2.780000000000001 1.3699999999999974 C 2.505690540000001 0.9355503099999974 1.9467856100000012 0.7796756399999974 1.487227380000001 1.0094547499999975 C 1.027669140000001 1.2392338699999974 0.8170259300000011 1.7798826099999974 1.000000000000001 2.2599999999999976 C 2.430000000000001 7.509999999999998 8.000000000000002 20.259999999999998 43 48 z" stroke-linecap="round" />
</g>
		<g transform="matrix(8.68 0 0 8.68 -69.42 94.58)" id="Shape"  >
<path style="stroke: none; stroke-width: 1; stroke-dasharray: none; stroke-linecap: butt; stroke-dashoffset: 0; stroke-linejoin: miter; stroke-miterlimit: 4; fill: rgb(149,165,165); fill-rule: nonzero; opacity: 1;" vector-effect="non-scaling-stroke"  transform=" translate(-22, -40.86)" d="M 26 33.72 C 22.39 36.92 18.4 40.35 14 44 L 17 48 C 21.89 44.12 26.189999999999998 40.54 30 37.230000000000004 C 28.61 36.00000000000001 27.28 34.85 26 33.720000000000006 z" stroke-linecap="round" />
</g>
		<g transform="matrix(8.68 0 0 8.68 126.12 -109.77)" id="Shape"  >
<path style="stroke: none; stroke-width: 1; stroke-dasharray: none; stroke-linecap: butt; stroke-dashoffset: 0; stroke-linejoin: miter; stroke-miterlimit: 4; fill: rgb(149,165,165); fill-rule: nonzero; opacity: 1;" vector-effect="non-scaling-stroke"  transform=" translate(-44.53, -17.31)" d="M 57.22 1.37 C 53.85 5.47 46.51 15 30 30.14 C 31.2733333 31.3 32.6066667 32.4933333 34 33.72 C 54 15.719999999999999 57.870000000000005 6.509999999999998 59 2.259999999999998 C 59.1829741 1.779882609999998 58.9723309 1.239233869999998 58.5127726 1.009454749999998 C 58.0532144 0.779675639999998 57.4943095 0.935550309999998 57.22 1.3699999999999979 z" stroke-linecap="round" />
</g>
		<g transform="matrix(8.68 0 0 8.68 -184.36 190.08)" id="Shape"  >
<path style="stroke: none; stroke-width: 1; stroke-dasharray: none; stroke-linecap: butt; stroke-dashoffset: 0; stroke-linejoin: miter; stroke-miterlimit: 4; fill: rgb(127,110,93); fill-rule: nonzero; opacity: 1;" vector-effect="non-scaling-stroke"  transform=" translate(-8.75, -51.87)" d="M 10.34 54.27 C 10.24 54.27 10.42 54.14 8.67 55.77 C 7.99 52.77 8.34 54.290000000000006 7.17 49.300000000000004 L 8.92 47.96 C 10.79 56.19 10.23 53.84 10.34 54.27 z" stroke-linecap="round" />
</g>
		<g transform="matrix(8.68 0 0 8.68 -206.54 206.57)" id="Shape"  >
<path style="stroke: none; stroke-width: 1; stroke-dasharray: none; stroke-linecap: butt; stroke-dashoffset: 0; stroke-linejoin: miter; stroke-miterlimit: 4; fill: rgb(127,110,93); fill-rule: nonzero; opacity: 1;" vector-effect="non-scaling-stroke"  transform=" translate(-6.2, -53.77)" d="M 10.29 54.26 L 8.669999999999998 55.769999999999996 C 8.569999999999999 55.769999999999996 8.749999999999998 55.769999999999996 2.1099999999999985 53.19 L 3.9599999999999986 51.76 C 8.899999999999999 53.699999999999996 7.509999999999998 53.15 10.29 54.26 z" stroke-linecap="round" />
</g>
</g>
</g>
<g transform="matrix(1 0 0 1 593.15 583.64)" style="filter: url(#SVGID_1396);" id="849eb907-2d71-462c-903c-5d20216c3171"  >
<filter id="SVGID_1396" y="-32%" height="164%" x="-33%" width="166%" >
	<feGaussianBlur in="SourceAlpha" stdDeviation="7"></feGaussianBlur>
	<feOffset dx="11" dy="11" result="oBlur" ></feOffset>
	<feFlood flood-color="rgb(255,153,51)" flood-opacity="1"/>
	<feComposite in2="oBlur" operator="in" />
	<feMerge>
		<feMergeNode></feMergeNode>
		<feMergeNode in="SourceGraphic"></feMergeNode>
	</feMerge>
</filter>
		<text xml:space="preserve" font-family="Lato" font-size="186" font-style="normal" font-weight="400" style="stroke: none; stroke-width: 1; stroke-dasharray: none; stroke-linecap: butt; stroke-dashoffset: 0; stroke-linejoin: miter; stroke-miterlimit: 4; fill: rgb(255,255,51); fill-rule: nonzero; opacity: 1; white-space: pre;" ><tspan x="-98.58" y="58.43" >SS</tspan></text>
</g>
</svg>