<?xml version="1.0" encoding="iso-8859-1"?>
<!-- Generator: Adobe Illustrator 19.0.0, SVG Export Plug-In . SVG Version: 6.00 Build 0)  -->
<svg version="1.1" id="Layer_1" xmlns="http://www.w3.org/2000/svg" xmlns:xlink="http://www.w3.org/1999/xlink" x="0px" y="0px"
	 viewBox="0 0 512 512" style="enable-background:new 0 0 512 512;" xml:space="preserve">
<polygon style="fill:#E6E6E6;" points="454.477,432.772 454.477,481.157 442.624,502.613 430.773,481.157 430.773,432.772 "/>
<polygon style="fill:#CCCCCC;" points="439.084,481.159 442.621,502.608 430.773,481.159 430.773,432.776 439.084,432.776 "/>
<rect x="420.81" y="394.381" style="fill:#E6E6E6;" width="43.634" height="43.634"/>
<rect x="420.81" y="394.381" style="fill:#CCCCCC;" width="13.188" height="43.634"/>
<path style="fill:#F9C573;" d="M480.71,299.302v78.632c0,11.562-9.373,20.935-20.935,20.935h-34.301
	c-11.562,0-20.935-9.373-20.935-20.935v-78.632"/>
<path style="fill:#E2AF66;" d="M427.82,377.935v-78.632h-23.28v78.632c0,11.562,9.373,20.935,20.935,20.935h10.483
	C431.463,398.87,427.82,389.497,427.82,377.935z"/>
<path style="fill:#EA8249;" d="M502.432,210.737c-5.907-5.907-14.06-9.557-23.078-9.557h-73.455
	c-18.024,0-32.634,14.61-32.634,32.634c0,7.502,2.527,14.408,6.772,19.922c4.256,5.503,10.23,9.613,17.115,11.533v36.273h90.952
	V265.27C501.882,261.44,512,248.818,512,233.815C512,224.808,508.339,216.644,502.432,210.737z M477.344,240.923h-69.435
	c-3.055,0-5.738-1.628-7.21-4.076c-0.775-1.269-1.213-2.751-1.213-4.346c0-1.774,0.55-3.414,1.482-4.773
	c1.516-2.201,4.065-3.65,6.94-3.65h69.435c4.649,0,8.422,3.773,8.422,8.422S481.993,240.923,477.344,240.923z"/>
<rect x="88.67" y="230.659" style="fill:#F9C573;" width="16.845" height="276.247"/>
<path style="fill:#D36F3D;" d="M415.085,265.27v36.273h-17.934V265.27c-6.884-1.92-12.858-6.031-17.115-11.533
	c-4.245-5.514-6.772-12.42-6.772-19.922c0-18.024,14.61-32.634,32.634-32.634h14.487c-5.458,0-10.399,3.65-13.97,9.557
	c-2.751,4.548-4.705,10.421-5.447,16.991c-0.932,1.359-1.482,2.998-1.482,4.773c0,1.595,0.438,3.077,1.213,4.346
	C401.463,250.502,407.325,261.699,415.085,265.27z"/>
<path style="fill:#808080;" d="M97.092,292.6c36.634,0,70.345,12.516,97.092,33.501c-10.672-43.715-50.089-76.163-97.092-76.163
	S10.672,282.387,0,326.103C26.748,305.116,60.458,292.6,97.092,292.6z"/>
<g>
	<path style="fill:#E0B394;" d="M136.723,240.569c-13.925-0.618-25.009-12.106-25.009-26.177c0-14.464,11.724-26.2,26.2-26.2
		c1.303,0,2.583,0.09,3.841,0.281L136.723,240.569z"/>
	<path style="fill:#E0B394;" d="M373.474,240.569c13.925-0.618,25.02-12.106,25.02-26.177c0-14.464-11.735-26.2-26.211-26.2
		c-1.303,0-2.594,0.101-3.841,0.281L373.474,240.569z"/>
</g>
<path style="fill:#5D9EBA;" d="M377.51,404.948v101.946H132.696V404.948c0-33.847,24.212-62.034,56.262-68.2
	c4.267-0.831,8.681-1.258,13.195-1.258h105.91c4.514,0,8.928,0.427,13.195,1.258C353.309,342.914,377.51,371.101,377.51,404.948z"/>
<g>
	<path style="fill:#508DA3;" d="M244.946,335.497h-42.793c-38.357,0-69.453,31.095-69.453,69.453v101.947h42.793V404.948
		C175.493,366.591,206.589,335.497,244.946,335.497z"/>
	<rect x="246.689" y="383.566" style="fill:#508DA3;" width="16.845" height="123.328"/>
	<path style="fill:#508DA3;" d="M321.259,336.749l-16.171,89.503l-49.985-35.498l-49.973,35.498l-16.171-89.503
		c4.267-0.831,8.681-1.258,13.195-1.258h105.91C312.578,335.491,316.991,335.918,321.259,336.749z"/>
</g>
<path style="fill:#E0B394;" d="M303.971,273.769v62.389c0,26.987-21.882,48.868-48.868,48.868
	c-26.996,0-48.868-21.882-48.868-48.868v-62.389H303.971z"/>
<path style="fill:#F7CBA4;" d="M217.203,353.818l-46.098-33.492c-24.36-17.698-37.538-46.966-34.642-76.938l7.996-82.74
	c5.507-56.987,53.395-100.47,110.647-100.47l0,0c57.252,0,105.14,43.484,110.647,100.47l7.996,82.74
	c2.896,29.972-10.281,59.238-34.642,76.938l-46.098,33.492C270.406,370.238,239.803,370.238,217.203,353.818z"/>
<path style="fill:#F2F2F2;" d="M299.067,281.402c0,0-0.64,1.572-1.988,4.054c-0.326,0.64-0.707,1.314-1.134,2.044
	c-0.505,0.719-1.089,1.449-1.718,2.268c-0.629,0.82-1.348,1.651-2.111,2.572c-0.27,0.348-0.561,0.64-0.876,0.943
	c-0.112,0.112-0.236,0.225-0.359,0.337c-0.438,0.404-0.887,0.831-1.348,1.258c-0.921,0.865-1.92,1.718-2.965,2.617
	c-1.101,0.809-2.28,1.572-3.493,2.403c-0.606,0.416-1.235,0.82-1.875,1.224c-0.64,0.382-1.325,0.696-2.021,1.044
	c-1.37,0.696-2.796,1.37-4.267,2.044c-3.032,1.033-6.188,2.246-9.557,2.751c-3.324,0.775-6.794,0.898-10.253,1.067
	c-3.459-0.168-6.929-0.281-10.253-1.056c-3.369-0.505-6.525-1.718-9.557-2.751c-1.471-0.663-2.897-1.336-4.279-2.033
	c-0.685-0.348-1.37-0.663-2.021-1.044c-0.629-0.415-1.258-0.809-1.864-1.224c-1.213-0.831-2.403-1.606-3.504-2.403
	c-1.044-0.898-2.033-1.763-2.965-2.617c-0.46-0.438-0.898-0.853-1.336-1.269c-0.157-0.146-0.314-0.292-0.472-0.438
	c-0.27-0.27-0.528-0.528-0.752-0.831c-0.73-0.887-1.437-1.707-2.055-2.516c-0.606-0.82-1.202-1.538-1.696-2.257
	c-0.449-0.764-0.865-1.46-1.213-2.1c-1.404-2.56-1.988-4.088-1.988-4.088s1.662,0.505,4.222,1.538
	c0.651,0.247,1.325,0.55,2.078,0.853c0.797,0.236,1.617,0.539,2.493,0.831c0.887,0.292,1.774,0.651,2.718,0.988
	c0.932,0.359,1.988,0.595,3.032,0.91c1.044,0.303,2.089,0.674,3.178,0.999c1.134,0.247,2.268,0.539,3.436,0.82
	c0.584,0.135,1.157,0.303,1.741,0.46c0.595,0.135,1.213,0.213,1.819,0.337c1.224,0.213,2.448,0.46,3.672,0.741
	c2.549,0.236,5.065,0.797,7.693,0.898c2.594,0.337,5.244,0.247,7.872,0.404c2.639-0.157,5.289-0.056,7.883-0.393
	c2.628-0.09,5.143-0.663,7.693-0.898c1.224-0.27,2.448-0.517,3.672-0.73c0.606-0.124,1.224-0.202,1.819-0.337
	c0.584-0.168,1.168-0.326,1.741-0.46c1.168-0.281,2.302-0.584,3.436-0.82c1.101-0.326,2.145-0.696,3.189-0.999
	c1.033-0.314,2.111-0.561,3.01-0.91c0.921-0.314,1.786-0.663,2.661-0.932c0.865-0.292,1.673-0.584,2.471-0.82
	c0.786-0.337,1.482-0.663,2.145-0.921C297.439,281.873,299.067,281.402,299.067,281.402z"/>
<g>
	<path style="fill:#4D4D4D;" d="M291.24,293.283c-0.112,0.112-0.236,0.225-0.359,0.337c-0.438,0.404-0.887,0.831-1.348,1.258
		c-0.921,0.865-1.92,1.718-2.965,2.617c-1.101,0.809-2.28,1.572-3.493,2.403c-0.606,0.416-1.235,0.82-1.875,1.224
		c-0.64,0.382-1.325,0.696-2.021,1.044c-1.37,0.696-2.796,1.37-4.267,2.044c-3.032,1.033-6.188,2.246-9.557,2.751
		c-3.324,0.775-6.794,0.898-10.253,1.067c-3.459-0.168-6.929-0.281-10.253-1.056c-3.369-0.505-6.525-1.718-9.557-2.751
		c-1.471-0.663-2.897-1.336-4.279-2.033c-0.685-0.348-1.37-0.663-2.021-1.044c-0.629-0.415-1.258-0.809-1.864-1.224
		c-1.213-0.831-2.403-1.606-3.504-2.403c-1.044-0.898-2.033-1.763-2.965-2.617c-0.46-0.438-0.898-0.853-1.336-1.269
		c-0.157-0.146-0.314-0.292-0.472-0.438c0.359,0.124,0.719,0.247,1.089,0.371c0.887,0.292,1.774,0.64,2.718,0.977
		c0.932,0.371,1.988,0.606,3.032,0.921c1.044,0.303,2.089,0.663,3.178,0.999c1.134,0.236,2.268,0.539,3.436,0.82
		c0.584,0.135,1.157,0.292,1.741,0.449c0.595,0.135,1.213,0.213,1.819,0.337c1.224,0.213,2.448,0.472,3.672,0.741
		c2.549,0.247,5.065,0.809,7.693,0.898c2.594,0.348,5.244,0.247,7.872,0.416c2.639-0.157,5.289-0.056,7.883-0.404
		c2.628-0.09,5.143-0.651,7.693-0.887c1.224-0.27,2.448-0.528,3.672-0.741c0.606-0.124,1.224-0.202,1.819-0.337
		c0.584-0.157,1.168-0.314,1.741-0.449c1.168-0.281,2.302-0.584,3.436-0.82c1.101-0.337,2.145-0.707,3.189-0.999
		c1.033-0.314,2.111-0.573,3.01-0.91c0.921-0.326,1.786-0.663,2.661-0.943C290.555,293.519,290.903,293.395,291.24,293.283z"/>
	<path style="fill:#4D4D4D;" d="M205.112,243.783c-4.651,0-8.422-3.771-8.422-8.423v-13.471c0-4.651,3.771-8.422,8.422-8.422
		s8.423,3.771,8.423,8.422v13.471C213.535,240.012,209.764,243.783,205.112,243.783z"/>
	<path style="fill:#4D4D4D;" d="M305.096,243.783c-4.651,0-8.422-3.771-8.422-8.423v-13.471c0-4.651,3.771-8.422,8.422-8.422
		s8.422,3.771,8.422,8.422v13.471C313.519,240.012,309.749,243.783,305.096,243.783z"/>
</g>
<path style="fill:#E0B394;" d="M268.018,209.536v39.866c0,7.132-5.782,12.914-12.914,12.914l0,0
	c-7.132,0-12.914-5.782-12.914-12.914v-39.866"/>
<path style="fill:#E8BA97;" d="M165.149,259.694c-0.775,13.105,3.493,25.997,11.937,36.048l48.18,59.204
	c2.516,2.998,5.368,5.514,8.456,7.524c-5.795-2.021-11.365-4.919-16.519-8.658l-46.099-33.488
	c-24.358-17.698-37.531-46.964-34.633-76.937l7.985-82.743c5.458-56.431,52.467-99.621,108.987-100.441
	c-34.813,0.842-74.234,33.656-76.289,68.604L165.149,259.694z"/>
<path style="fill:#EA8249;" d="M369.811,130.868h-4.091c0-30.546-12.375-58.194-32.399-78.217
	c-14.846-14.846-33.892-25.492-55.195-29.995h-0.003V12.612c0-4.152-3.366-7.517-7.517-7.517h-31.007
	c-4.152,0-7.517,3.366-7.517,7.517v10.045c-50.04,10.591-87.591,55.016-87.591,108.211h-4.685c-3.017,0-5.616,2.129-6.21,5.088
	l-4.215,21.024c-0.786,3.919,2.212,7.578,6.21,7.578h52.131l9.685,28.075h115.39l9.685-28.075h51.257
	c4.449,0,7.786-4.072,6.911-8.434l-3.927-19.592C376.063,133.239,373.17,130.868,369.811,130.868z"/>
<g>
	<polygon style="fill:#D36F3D;" points="187.722,164.559 197.406,192.634 208.086,192.634 205.494,164.559 	"/>
	<path style="fill:#D36F3D;" d="M180.611,130.869c0-53.195,25.289-97.62,58.988-108.211V5.094l0,0c-4.152,0-7.517,3.366-7.517,7.517
		v10.045c-50.04,10.591-87.591,55.016-87.591,108.211h-4.685c-3.017,0-5.616,2.129-6.21,5.088l-4.215,21.024
		c-0.786,3.919,2.212,7.578,6.21,7.578h60.571l4.548-33.69h-20.099V130.869z"/>
	<circle style="fill:#D36F3D;" cx="255.1" cy="89.318" r="36.711"/>
</g>
<circle style="fill:#F9C573;" cx="255.1" cy="89.318" r="22.838"/>
<rect x="305.411" y="446.432" style="fill:#508DA3;" width="52.77" height="16.845"/>
<g>
	<circle style="fill:#666666;" cx="282.198" cy="482.39" r="7.487"/>
	<circle style="fill:#666666;" cx="282.198" cy="441.221" r="7.487"/>
</g>
<g>
</g>
<g>
</g>
<g>
</g>
<g>
</g>
<g>
</g>
<g>
</g>
<g>
</g>
<g>
</g>
<g>
</g>
<g>
</g>
<g>
</g>
<g>
</g>
<g>
</g>
<g>
</g>
<g>
</g>
</svg>
