<svg height="511pt" viewBox="-94 0 511 511.99982" width="511pt" xmlns="http://www.w3.org/2000/svg"><path d="m317.566406 407.710938v58.636718c0 5.539063-3.179687 10.574219-8.164062 13-42.203125 20.535156-94.171875 32.652344-150.367188 32.652344-56.199218 0-108.167968-12.117188-150.367187-32.652344-4.984375-2.425781-8.167969-7.460937-8.167969-13v-58.636718c0-9.195313 5.4375-17.523438 13.855469-21.234376l70.609375-31.125c8.261718-3.636718 13.601562-11.832031 13.601562-20.859374v-76.09375h120.933594v76.089843c0 9.03125 5.339844 17.226563 13.601562 20.863281l70.609376 31.121094c8.417968 3.714844 13.855468 12.042969 13.855468 21.238282zm0 0" fill="#f7bc94"/><path d="m303.710938 386.476562-70.609376-31.125c-8.261718-3.636718-13.597656-11.832031-13.597656-20.859374v-76.09375h-120.9375v15.453124h97.15625v76.089844c0 9.03125 5.335938 17.226563 13.597656 20.863282l70.609376 31.121093c8.417968 3.714844 13.855468 12.042969 13.855468 21.238281v58.632813c0 1.714844-.304687 3.382813-.875 4.9375 5.644532-2.324219 11.148438-4.789063 16.492188-7.386719 4.980468-2.425781 8.164062-7.460937 8.164062-13.003906v-58.632812c0-9.195313-5.4375-17.523438-13.855468-21.234376zm0 0" fill="#e59876"/><g fill="#f7bc94"><path d="m268.5 182.855469h-29.253906v60.46875h29.253906c12.808594 0 23.191406-10.382813 23.191406-23.191407v-14.089843c0-12.804688-10.382812-23.1875-23.191406-23.1875zm0 0"/><path d="m49.570312 182.855469h29.25v60.46875h-29.25c-12.808593 0-23.191406-10.382813-23.191406-23.191407v-14.089843c0-12.804688 10.382813-23.1875 23.191406-23.1875zm0 0"/><path d="m261.148438 75.859375h-204.230469l-.09375 145.011719c0 43.695312 55.347656 103.3125 88.804687 103.3125h26.8125c33.457032 0 88.804688-59.617188 88.804688-103.3125zm0 0"/></g><path d="m261.148438 75.859375h-27.71875l.097656 145.011719c0 43.5-54.851563 102.769531-88.351563 103.300781.148438 0 .304688.011719.453125.011719h26.8125c33.457032 0 88.804688-59.617188 88.804688-103.3125zm0 0" fill="#e59876"/><path d="m114.453125 208.707031c-4.148437 0-7.515625-3.363281-7.515625-7.515625v-3.210937c0-4.152344 3.367188-7.515625 7.515625-7.515625 4.152344 0 7.515625 3.363281 7.515625 7.515625v3.210937c0 4.152344-3.363281 7.515625-7.515625 7.515625zm0 0" fill="#233b5e"/><path d="m203.613281 208.707031c-4.148437 0-7.515625-3.363281-7.515625-7.515625v-3.210937c0-4.152344 3.367188-7.515625 7.515625-7.515625 4.152344 0 7.515625 3.363281 7.515625 7.515625v3.210937c0 4.152344-3.363281 7.515625-7.515625 7.515625zm0 0" fill="#233b5e"/><path d="m317.570312 407.714844v58.628906c0 5.542969-3.183593 10.578125-8.171874 13-42.195313 20.542969-94.167969 32.65625-150.363282 32.65625-56.195312 0-108.171875-12.113281-150.367187-32.65625-4.984375-2.421875-8.167969-7.460938-8.167969-13v-58.628906c0-9.199219 5.4375-17.523438 13.855469-21.242188l62.726562-27.652344c7.007813-6.449218 11.046875-14.390624 12.25-21.984374.421875-2.6875 2.597657-4.644532 5.089844-4.5625 1.410156.050781 2.792969.113281 4.140625.183593 53.457031 3.03125 55.722656 28.941407 60.472656 48.535157 4.75-19.59375 7.035156-45.503907 60.472656-48.5625 1.347657-.074219 2.730469-.136719 4.152344-.1875 2.503906-.082032 4.675782 1.867187 5.097656 4.554687 1.195313 7.621094 5.265626 15.597656 12.3125 22.066406l62.644532 27.609375c8.414062 3.71875 13.855468 12.042969 13.855468 21.242188zm0 0" fill="#f46a58"/><path d="m303.710938 386.476562-40.550782-17.875-22.09375-9.738281s0 0-.003906-.003906l-7.960938-3.507813c-8.261718-3.636718-13.601562-11.832031-13.601562-20.859374v-2.0625c-9.417969.539062-17.242188 1.792968-23.777344 3.59375v13.921874c0 9.027344 5.335938 17.222657 13.597656 20.859376l70.609376 31.125c8.417968 3.710937 13.855468 12.042968 13.855468 21.234374v58.632813c0 1.714844-.308594 3.382813-.875 4.933594.050782-.019531.101563-.039063.152344-.0625.375-.152344.742188-.3125 1.117188-.46875 5.199218-2.167969 10.277343-4.453125 15.21875-6.855469 2.402343-1.167969 4.378906-2.945312 5.792968-5.089844 1.515625-2.308594 2.375-5.039062 2.375-7.910156v-58.632812c0-9.195313-5.4375-17.523438-13.855468-21.234376zm0 0" fill="#bc4242"/><path d="m240.285156 358.121094c-27.082031 15.246094-54.167968 22.871094-81.25 22.871094 4.75-19.59375 7.035156-45.503907 60.472656-48.5625 1.347657-.074219 2.730469-.136719 4.152344-.1875 2.503906-.082032 4.675782 1.867187 5.097656 4.554687 1.152344 7.335937 4.964844 15 11.527344 21.324219zm0 0" fill="#f4d34d"/><path d="m240.285156 358.121094c-.132812.074218-.269531.15625-.402344.214844-9.589843 5.378906-19.183593 9.800781-28.773437 13.261718-.128906-.105468-15.390625-5.320312-15.390625-21.65625v-13.917968c9.09375-2.496094 18.585938-3.441407 27.9375-3.78125 2.503906-.082032 4.675781 1.867187 5.101562 4.554687 1.152344 7.335937 4.964844 15 11.527344 21.324219zm0 0" fill="#d8a209"/><path d="m159.035156 380.992188c-27.074218 0-54.160156-7.625-81.230468-22.859376 6.5625-6.316406 10.363281-13.96875 11.527343-21.296874.421875-2.6875 2.597657-4.644532 5.089844-4.5625 1.410156.050781 2.792969.113281 4.140625.183593 53.457031 3.03125 55.722656 28.941407 60.472656 48.535157zm0 0" fill="#f4d34d"/><path d="m219.953125 179.105469c-1.113281 0-2.238281-.246094-3.304687-.769531-9.292969-4.5625-18.324219-4.558594-27.617188 0-3.722656 1.832031-8.226562.292968-10.054688-3.433594-1.828124-3.726563-.292968-8.230469 3.433594-10.058594 13.554688-6.652344 27.304688-6.652344 40.859375 0 3.726563 1.828125 5.265625 6.332031 3.4375 10.058594-1.308593 2.660156-3.976562 4.203125-6.753906 4.203125zm0 0" fill="#52668e"/><path d="m98.113281 179.105469c-2.773437 0-5.445312-1.542969-6.75-4.203125-1.828125-3.726563-.292969-8.230469 3.433594-10.058594 13.558594-6.652344 27.304687-6.652344 40.863281 0 3.726563 1.828125 5.261719 6.332031 3.433594 10.058594-1.828125 3.722656-6.328125 5.261718-10.058594 3.433594-9.292968-4.5625-18.324218-4.558594-27.613281 0-1.066406.523437-2.195313.769531-3.308594.769531zm0 0" fill="#52668e"/><path d="m277.9375 492.429688v-51.421876c0-4.152343-3.363281-7.515624-7.511719-7.515624-4.152343 0-7.515625 3.363281-7.515625 7.515624v56.300782c5.101563-1.515625 10.109375-3.148438 15.027344-4.878906zm0 0" fill="#bc4242"/><path d="m55.160156 497.308594v-56.304688c0-4.148437-3.367187-7.511718-7.515625-7.511718-4.152343 0-7.515625 3.363281-7.515625 7.511718v51.425782c4.921875 1.730468 9.929688 3.363281 15.03125 4.878906zm0 0" fill="#bc4242"/><path d="m159.035156 254.398438c-9.550781 0-18.820312-2.925782-26.804687-8.457032-3.410157-2.367187-4.257813-7.046875-1.894531-10.457031 2.363281-3.410156 7.046874-4.261719 10.457031-1.898437 5.457031 3.785156 11.765625 5.785156 18.242187 5.785156 6.476563 0 12.78125-2 18.238282-5.785156 3.414062-2.363282 8.09375-1.511719 10.457031 1.894531 2.363281 3.414062 1.515625 8.09375-1.894531 10.460937-7.980469 5.53125-17.25 8.457032-26.800782 8.457032zm0 0" fill="#b26344"/><path d="m261.15625 101.601562v107.925782h5.484375c9.714844 0 17.589844-7.875 17.589844-17.589844v-90.335938zm0 0" fill="#233b5e"/><path d="m314.195312.0546875c-3.636718 8.6171875-36.726562 35.0976565-88.929687 16.5234375-55.875-19.890625-146.445313-31.503906-172.664063 22.863281-77.976562 5.589844-18.851562 121.445313-18.851562 143.414063v9.078125c0 9.714844 7.875 17.589844 17.589844 17.589844h5.480468v-63.160157h.058594c13.089844.007813 26.242188-4.867187 35.742188-13.914062 8.496094-8.078125 13.8125-19.226563 15.316406-30.839844.152344-1.179687.261719-2.359375.335938-3.546875 1.910156 1.21875 3.828124 2.394531 5.75 3.546875 51.320312 30.75 106.332031 39.753906 147.144531 28.546875 50.171875-13.761719 78.910156-58.082031 53.027343-130.1015625zm0 0" fill="#52668e"/><path d="m159.035156 512c2.515625 0 5.015625-.03125 7.515625-.082031v-130.925781c0-3.5625-2.484375-6.539063-5.8125-7.3125-.59375 2.496093-1.132812 4.949218-1.703125 7.3125-.574218-2.363282-1.109375-4.816407-1.707031-7.3125-3.328125.773437-5.808594 3.75-5.808594 7.3125v130.925781c2.496094.050781 5 .082031 7.515625.082031zm0 0" fill="#f4d34d"/><path d="m314.195312.0546875c-.257812.6132815-.671874 1.3203125-1.226562 2.0937505-1.578125 34.511718-13.863281 69.300781-40.050781 91.414062-19.390625 16.371094-44.695313 24.4375-69.933594 27.085938-16.472656 1.730468-33.039063 1.308593-49.582031.144531 38.875 14.824219 77.28125 17.734375 107.765625 9.359375 50.171875-13.757813 78.910156-58.078125 53.027343-130.0976565zm0 0" fill="#233b5e"/><path d="m247.003906 361.480469c-.648437 1.300781-1.671875 2.425781-3.035156 3.183593-28.097656 15.824219-56.671875 23.839844-84.9375 23.839844-28.246094 0-56.824219-8.015625-84.910156-23.816406-1.375-.773438-2.40625-1.90625-3.046875-3.21875l7.105469-3.136719c-.121094-.058593-.25-.128906-.371094-.199219 1.914062-1.835937 3.585937-3.785156 5.03125-5.8125 1.3125.734376 2.625 1.445313 3.9375 2.125 23.496094 12.324219 47.183594 18.707032 70.5 19.019532.582031.007812 1.171875.007812 1.753906.007812.589844 0 1.171875 0 1.761719-.007812 23.328125-.3125 47.015625-6.695313 70.5-19.007813 1.324219-.703125 2.65625-1.414062 3.976562-2.15625 1.425781 2.023438 3.105469 3.980469 5.011719 5.820313-.128906.070312-.261719.152344-.390625.222656zm0 0" fill="#e6eff5"/><path d="m239.890625 358.34375c-.003906 0-.003906-.003906-.007813-.003906.453126-.246094.394532-.214844.398438-.214844-1.769531-1.714844-3.53125-3.738281-5.015625-5.820312-10.292969 5.769531-22.066406 10.824218-32.46875 14.136718 3.921875 3.738282 8.003906 4.902344 8.3125 5.15625.003906 0 .003906 0 .007813-.003906l9.703124 4.277344c7.742188-3.152344 15.464844-6.875 23.148438-11.203125 1.363281-.761719 2.386719-1.882813 3.039062-3.1875-.105468-.046875-7.34375-3.238281-7.117187-3.136719zm0 0" fill="#b4cbdb"/><path d="m183.832031 423.648438h-52.96875c-4.152343 0-7.515625-3.363282-7.515625-7.511719 0-4.152344 3.363282-7.515625 7.515625-7.515625h52.96875c4.148438 0 7.515625 3.363281 7.515625 7.515625 0 4.148437-3.367187 7.511719-7.515625 7.511719zm0 0" fill="#d8a209"/><path d="m183.832031 473.671875h-52.96875c-4.152343 0-7.515625-3.363281-7.515625-7.515625s3.363282-7.515625 7.515625-7.515625h52.96875c4.148438 0 7.515625 3.363281 7.515625 7.515625s-3.367187 7.515625-7.515625 7.515625zm0 0" fill="#d8a209"/></svg>