<?xml version="1.0" encoding="iso-8859-1"?>
<!-- Generator: Adobe Illustrator 19.0.0, SVG Export Plug-In . SVG Version: 6.00 Build 0)  -->
<svg xmlns="http://www.w3.org/2000/svg" xmlns:xlink="http://www.w3.org/1999/xlink" version="1.1" id="Layer_1" x="0px" y="0px" viewBox="0 0 489.59 489.59" style="enable-background:new 0 0 489.59 489.59;" xml:space="preserve" width="512" height="512">
<g>
	<path style="fill:#27394C;" d="M223.05,118.255h207.768c19.741,0,35.744,16.003,35.744,35.744v3.151   c0,19.741-16.003,35.744-35.744,35.744H223.05c-19.741,0-35.744-16.003-35.744-35.744v-3.151   C187.306,134.258,203.309,118.255,223.05,118.255z"/>
	<path style="fill:#FFCBB3;" d="M489.59,231.545c0,20.455-15.753,37.218-35.784,38.821c-1.045,0.089-2.107,0.133-3.17,0.133   c-2.727,0-5.384-0.275-7.952-0.815H208.061c-2.568,0.54-5.225,0.815-7.952,0.815h-0.027c-21.509-0.018-38.927-17.444-38.927-38.953   c0-20.278,15.496-36.934,35.296-38.768c1.204-0.124,2.426-0.177,3.657-0.177c1.638,0,3.241,0.097,4.826,0.292h240.876   c1.585-0.195,3.188-0.292,4.826-0.292c2.311,0,4.578,0.204,6.774,0.593C475.696,196.39,489.59,212.347,489.59,231.545z"/>
	<path style="fill:#E89876;" d="M457.411,193.194v49.34c0,9.581-1.248,18.906-3.604,27.832c-1.045,0.089-2.107,0.133-3.17,0.133   c-2.727,0-5.384-0.275-7.952-0.815H208.061c-2.568,0.54-5.225,0.815-7.952,0.815h-0.027c-2.373-8.97-3.63-18.33-3.63-27.964   v-49.757c1.204-0.124,2.426-0.177,3.657-0.177c1.638,0,3.241,0.097,4.826,0.292h240.876c1.585-0.195,3.188-0.292,4.826-0.292   C452.948,192.6,455.215,192.804,457.411,193.194z"/>
	<path style="fill:#E89876;" d="M468.353,240.219c-2.896,0-5.654-1.687-6.882-4.511c-3.134-7.208-12.599-4.903-13.666-4.616   c-3.983,1.131-8.106-1.189-9.238-5.174c-1.131-3.985,1.208-8.139,5.192-9.27c7.938-2.254,24.729-2.42,31.467,13.079   c1.652,3.799-0.089,8.217-3.888,9.868C470.366,240.018,469.352,240.219,468.353,240.219z"/>
	<path style="fill:#27394C;" d="M445.809,438.984v50.394h-237.75v-50.394c0-65.652,53.219-118.879,118.871-118.879   c9.289,0,18.33,1.071,27.008,3.082c21.987,5.109,41.628,16.32,57.053,31.737C432.5,376.441,445.809,406.158,445.809,438.984z"/>
	<path style="fill:#3E5268;" d="M445.809,438.984v50.394H262.075v-50.394c0-56.363,39.228-103.569,91.863-115.798   c21.987,5.109,41.628,16.32,57.053,31.737C432.5,376.441,445.809,406.158,445.809,438.984z"/>
	<polyline style="fill:#FFFFFF;" points="268.878,360.224 326.93,478.03 384.981,360.224  "/>
	<polyline style="fill:#FC74AF;" points="275.905,366.283 326.93,431.46 377.955,366.283  "/>
	<polyline style="fill:#BBB8CC;" points="384.782,360.638 358.313,414.349 326.931,380.187 326.933,380.187 295.551,414.349    269.082,360.638  "/>
	<path style="fill:#172635;" d="M326.933,478.03v11.35h-29.2l-30.44-30.44l12.71-26.39h-29.33l-15.03-69.69   c6.9-8.29,14.92-15.61,23.82-21.75L326.933,478.03z"/>
	<path style="fill:#172635;" d="M326.927,478.03v11.35h29.2l30.44-30.44l-12.71-26.39h29.33l15.03-69.69   c-6.9-8.29-14.92-15.61-23.82-21.75L326.927,478.03z"/>
	<path style="fill:#E89876;" d="M445.809,175.342v80.953c0,57.93-41.442,106.181-96.299,116.728   c-7.305,1.408-14.859,2.143-22.58,2.143c-65.652,0-118.871-53.219-118.871-118.871v-80.953   c0-65.651,53.219-118.879,118.871-118.879c7.722,0,15.275,0.735,22.58,2.143c23.776,4.569,45.028,16.223,61.481,32.675   C432.5,112.798,445.809,142.516,445.809,175.342z"/>
	<path style="fill:#FFCBB3;" d="M445.809,175.342v80.953c0,57.93-41.442,106.181-96.299,116.728   c-54.857-10.547-96.299-58.798-96.299-116.728v-80.953c0-57.93,41.442-106.19,96.299-116.736   c23.776,4.569,45.028,16.223,61.481,32.675C432.5,112.798,445.809,142.516,445.809,175.342z"/>
	<g>
		<g>
			<path style="fill:#172635;" d="M275.146,247.766c-4.142,0-7.5-3.358-7.5-7.5v-29.22c0-4.142,3.358-7.5,7.5-7.5s7.5,3.358,7.5,7.5     v29.22C282.646,244.408,279.289,247.766,275.146,247.766z"/>
			<path style="fill:#172635;" d="M378.722,247.766c-4.142,0-7.5-3.358-7.5-7.5v-29.22c0-4.142,3.358-7.5,7.5-7.5s7.5,3.358,7.5,7.5     v29.22C386.222,244.408,382.864,247.766,378.722,247.766z"/>
		</g>
	</g>
	<path style="fill:#3E5268;" d="M438.742,0.551l-53.33,53.33c-4.517-11.093-15.392-18.921-28.108-18.921   c-10.435,0-19.636,5.269-25.099,13.289C318.267,31.079,297,20.104,273.159,20.104c-42.002,0-76.052,34.05-76.052,76.052   s34.05,76.052,76.052,76.052c17.546,0,33.692-5.958,46.56-15.939c37.768,21.646,86.764,16.361,119.023-15.897   C477.352,101.76,477.352,39.161,438.742,0.551z"/>
	<path style="fill:#27394C;" d="M242.744,96.155c0,34.048,22.377,62.878,53.224,72.566c-7.186,2.268-14.857,3.485-22.81,3.485   c-42.002,0-76.051-34.048-76.051-76.05s34.049-76.05,76.051-76.05c7.953,0,15.607,1.217,22.81,3.485   C265.121,33.277,242.744,62.107,242.744,96.155z"/>
	<polygon style="fill:#FC74AF;" points="341.01,449.45 326.93,478.03 312.85,449.45 326.93,431.46  "/>
	<path style="fill:#FC74AF;" d="M355.218,291.824c0,15.62-12.66,28.28-28.28,28.28s-28.29-12.66-28.29-28.28   c0-5.66,1.67-9.67,4.54-12.46c5.04-4.95,13.79-6.18,23.75-6.18c9.95,0,18.71,1.23,23.75,6.18   C353.558,282.154,355.218,286.154,355.218,291.824z"/>
	<path style="fill:#FFFFFF;" d="M350.688,279.364c-5.04,4.94-13.8,6.17-23.75,6.17c-9.96,0-18.71-1.23-23.75-6.17   c5.04-4.95,13.79-6.18,23.75-6.18C336.888,273.184,345.648,274.414,350.688,279.364z"/>
	<g>
		<path style="fill:#E89876;" d="M147.261,391.83v32.261h-26.72V391.83c0-7.38,5.98-13.36,13.36-13.36c2.06,0,4.02,0.47,5.76,1.3    C144.151,381.92,147.261,386.51,147.261,391.83z"/>
		<path style="fill:#FFCBB3;" d="M147.261,391.83v17.26h-15.2v-17.26c0-5.32,3.1-9.91,7.6-12.06    C144.151,381.92,147.261,386.51,147.261,391.83z"/>
		<g>
			<polygon style="fill:#3E5268;" points="107.258,452.93 143.163,489.076 232.744,489.076 152.059,409.089 125.176,435.011    "/>
			<path style="fill:#FFCBB3;" d="M152.06,409.096l-21.98,21.5l-22.82,22.33l-30.27-6.45c-4.36-0.93-8.1-3.32-10.75-6.6     c-0.29-0.36-0.58-0.74-0.84-1.13c-2.13-3.07-3.36-6.8-3.36-10.76c0-10.43,8.46-18.89,18.9-18.89H152.06z"/>
			<path style="fill:#E89876;" d="M130.08,430.596l-22.82,22.33l-30.27-6.45c-4.36-0.93-8.1-3.32-10.75-6.6     c-0.29-0.36-0.58-0.74-0.84-1.13c3.4-4.93,9.09-8.15,15.54-8.15H130.08z"/>
			<polygon style="fill:#27394C;" points="107.258,452.93 143.163,489.076 179,489.076 125.176,435.011    "/>
		</g>
	</g>
	<path style="fill:#96EFFF;" d="M0,30.076v158.889c0,16.494,13.371,29.866,29.866,29.866h146.061l47.262,48.188   c7.025,7.163,19.2,2.189,19.2-7.844v-40.344V30.076c0-16.494-13.371-29.866-29.866-29.866H29.866C13.371,0.211,0,13.582,0,30.076z"/>
	<g>
		<path style="fill:#3E5268;" d="M200.687,58.223H41.701c-4.142,0-7.5-3.358-7.5-7.5s3.358-7.5,7.5-7.5h158.986    c4.142,0,7.5,3.358,7.5,7.5S204.829,58.223,200.687,58.223z"/>
		<path style="fill:#3E5268;" d="M200.687,95.717H41.701c-4.142,0-7.5-3.358-7.5-7.5s3.358-7.5,7.5-7.5h158.986    c4.142,0,7.5,3.358,7.5,7.5S204.829,95.717,200.687,95.717z"/>
		<path style="fill:#3E5268;" d="M200.687,133.211H41.701c-4.142,0-7.5-3.358-7.5-7.5c0-4.142,3.358-7.5,7.5-7.5h158.986    c4.142,0,7.5,3.358,7.5,7.5C208.187,129.853,204.829,133.211,200.687,133.211z"/>
		<path style="fill:#3E5268;" d="M200.687,170.705H41.701c-4.142,0-7.5-3.358-7.5-7.5s3.358-7.5,7.5-7.5h158.986    c4.142,0,7.5,3.358,7.5,7.5S204.829,170.705,200.687,170.705z"/>
	</g>
</g>















</svg>
