<?xml version="1.0" encoding="UTF-8" standalone="no" ?>
<!DOCTYPE svg PUBLIC "-//W3C//DTD SVG 1.1//EN" "http://www.w3.org/Graphics/SVG/1.1/DTD/svg11.dtd">
<svg xmlns="http://www.w3.org/2000/svg" xmlns:xlink="http://www.w3.org/1999/xlink" version="1.1" width="720" height="720" viewBox="0 0 720 720" xml:space="preserve">
<desc>Created with Fabric.js 4.2.0</desc>
<defs>
</defs>
<rect x="0" y="0" width="100%" height="100%" fill="transparent"></rect>
<g transform="matrix(1 0 0 1 360 360)" id="088ff5e9-cec8-4b99-9d85-4d7f1d684ffe"  >
<rect style="stroke: none; stroke-width: 1; stroke-dasharray: none; stroke-linecap: butt; stroke-dashoffset: 0; stroke-linejoin: miter; stroke-miterlimit: 4; fill: rgb(255,255,255); fill-opacity: 0; fill-rule: nonzero; opacity: 1;" vector-effect="non-scaling-stroke"  x="-360" y="-360" rx="0" ry="0" width="720" height="720" />
</g>
<g transform="matrix(0 0 0 0 0 0)" id="10e72e25-f349-42f5-adff-9246252ebd1e"  >
</g>
<g transform="matrix(0 -1.36 1.36 0 362.26 362)"  >
<g style="" vector-effect="non-scaling-stroke"   >
		<g transform="matrix(1 0 0 1 -225.44 -154.55)"  >
<path style="stroke: none; stroke-width: 1; stroke-dasharray: none; stroke-linecap: butt; stroke-dashoffset: 0; stroke-linejoin: miter; stroke-miterlimit: 4; fill: rgb(167,155,167); fill-rule: nonzero; opacity: 1;" vector-effect="non-scaling-stroke"  transform=" translate(-30.49, -101.21)" d="M 54.016 146.895 L 26.886999999999997 125.39000000000001 C 18.892999999999997 119.05300000000001 14.572999999999997 109.57300000000001 15.033999999999997 99.38200000000002 C 15.496999999999996 89.19100000000002 20.656999999999996 80.14100000000002 29.191999999999997 74.55300000000003 L 49.245 61.42600000000002 L 60.977999999999994 53.90800000000002 L 53.419999999999995 42.14300000000002 L 42.007999999999996 48.346000000000025 C 41.675 48.50000000000003 41.346999999999994 48.67000000000002 41.031 48.877000000000024 L 20.977 62.004000000000026 C 8.361 70.26300000000003 0.7330000000000005 83.63900000000002 0.05000000000000071 98.70300000000003 C -0.6339999999999993 113.76600000000003 5.752000000000001 127.77800000000003 17.569 137.14500000000004 L 44.698 158.65000000000003 C 46.077 159.74300000000002 47.719 160.27300000000002 49.352000000000004 160.27300000000002 C 51.563 160.27300000000002 53.754000000000005 159.29900000000004 55.234 157.43200000000002 C 57.807 154.186 57.262 149.46900000000002 54.016000000000005 146.895 z" stroke-linecap="round" />
</g>
		<g transform="matrix(1 0 0 1 -189.4 -200.72)"  >
<path style="stroke: none; stroke-width: 1; stroke-dasharray: none; stroke-linecap: butt; stroke-dashoffset: 0; stroke-linejoin: miter; stroke-miterlimit: 4; fill: rgb(203,196,203); fill-rule: nonzero; opacity: 1;" vector-effect="non-scaling-stroke"  transform=" translate(-66.44, -55.15)" d="M 87.509 72.769 L 56.811 72.769 C 50.494 72.769 45.374 67.64800000000001 45.374 61.33200000000001 L 45.374 48.97200000000001 C 45.374 42.65500000000001 50.495000000000005 37.53500000000001 56.811 37.53500000000001 L 87.509 37.53500000000001 z" stroke-linecap="round" />
</g>
		<g transform="matrix(1 0 0 1 227.16 162.52)"  >
<path style="stroke: none; stroke-width: 1; stroke-dasharray: none; stroke-linecap: butt; stroke-dashoffset: 0; stroke-linejoin: miter; stroke-miterlimit: 4; fill: rgb(167,155,167); fill-rule: nonzero; opacity: 1;" vector-effect="non-scaling-stroke"  transform=" translate(-482, -417.51)" d="M 491.368 379.854 L 470.67199999999997 367.12899999999996 C 467.145 364.96099999999996 462.525 366.06199999999995 460.356 369.59 C 458.186 373.11899999999997 459.288 377.738 462.817 379.907 L 483.51300000000003 392.632 C 491.05400000000003 397.26800000000003 495.634 405.321 495.76500000000004 414.173 C 495.8960000000001 423.025 491.55500000000006 431.21 484.15400000000005 436.068 L 462.63000000000005 450.19399999999996 L 453.23600000000005 455.08599999999996 L 460.61000000000007 469.00399999999996 L 470.86000000000007 462.734 L 492.38400000000007 448.608 C 504.1000000000001 440.919 510.97100000000006 427.963 510.76400000000007 413.951 C 510.5570000000001 399.939 503.30600000000004 387.194 491.36800000000005 379.85400000000004 z" stroke-linecap="round" />
</g>
		<g transform="matrix(1 0 0 1 186.74 200.71)"  >
<path style="stroke: none; stroke-width: 1; stroke-dasharray: none; stroke-linecap: butt; stroke-dashoffset: 0; stroke-linejoin: miter; stroke-miterlimit: 4; fill: rgb(203,196,203); fill-rule: nonzero; opacity: 1;" vector-effect="non-scaling-stroke"  transform=" translate(-441.68, -455.62)" d="M 416.609 437.999 L 455.30699999999996 437.999 C 461.62399999999997 437.999 466.74399999999997 443.12 466.74399999999997 449.43600000000004 L 466.74399999999997 461.795 C 466.74399999999997 468.112 461.623 473.232 455.30699999999996 473.232 L 416.609 473.232 z" stroke-linecap="round" />
</g>
		<g transform="matrix(1 0 0 1 182.25 101.27)"  >
<path style="stroke: none; stroke-width: 1; stroke-dasharray: none; stroke-linecap: butt; stroke-dashoffset: 0; stroke-linejoin: miter; stroke-miterlimit: 4; fill: rgb(203,196,203); fill-rule: nonzero; opacity: 1;" vector-effect="non-scaling-stroke"  transform=" translate(-437.19, -356.41)" d="M 430.282 372.917 L 448.93 382.763 C 454.516 385.712 461.435 383.575 464.384 377.989 L 470.15500000000003 367.05899999999997 C 473.10400000000004 361.47299999999996 470.96700000000004 354.554 465.38100000000003 351.60499999999996 L 446.733 341.75899999999996 L 422.104 328.72599999999994 L 402.909 356.4069999999999 z" stroke-linecap="round" />
</g>
		<g transform="matrix(1 0 0 1 -180.16 -88.55)"  >
<path style="stroke: none; stroke-width: 1; stroke-dasharray: none; stroke-linecap: butt; stroke-dashoffset: 0; stroke-linejoin: miter; stroke-miterlimit: 4; fill: rgb(203,196,203); fill-rule: nonzero; opacity: 1;" vector-effect="non-scaling-stroke"  transform=" translate(-75.66, -167.05)" d="M 69.885 183.551 L 51.23700000000001 173.70499999999998 C 45.65100000000001 170.75599999999997 43.51400000000001 163.837 46.46300000000001 158.25099999999998 L 52.23400000000001 147.32099999999997 C 55.18300000000001 141.73499999999996 62.10200000000001 139.59799999999996 67.68800000000002 142.54699999999997 L 86.33600000000001 152.39299999999997 L 106.17700000000002 162.38599999999997 L 87.50000000000003 192.87199999999996 z" stroke-linecap="round" />
</g>
		<g transform="matrix(1 0 0 1 -181.81 -200.72)"  >
<path style="stroke: none; stroke-width: 1; stroke-dasharray: none; stroke-linecap: butt; stroke-dashoffset: 0; stroke-linejoin: miter; stroke-miterlimit: 4; fill: rgb(181,172,182); fill-rule: nonzero; opacity: 1;" vector-effect="non-scaling-stroke"  transform=" translate(-74.01, -55.15)" d="M 60.509 39.327 L 60.509 70.977 C 60.509 71.58 60.534 72.176 60.572 72.769 L 87.509 72.769 L 87.509 37.535000000000004 L 60.571 37.535000000000004 C 60.534 38.128 60.509 38.725 60.509 39.327000000000005 z" stroke-linecap="round" />
</g>
		<g transform="matrix(1 0 0 1 35.9 -200.71)"  >
<path style="stroke: none; stroke-width: 1; stroke-dasharray: none; stroke-linecap: butt; stroke-dashoffset: 0; stroke-linejoin: miter; stroke-miterlimit: 4; fill: rgb(167,155,167); fill-rule: nonzero; opacity: 1;" vector-effect="non-scaling-stroke"  transform=" translate(-291.19, -55.15)" d="M 491.103 81.286 L 88.81700000000001 81.286 C 83.12400000000001 81.286 78.50900000000001 76.671 78.50900000000001 70.97800000000001 L 78.50900000000001 39.32800000000001 C 78.50900000000001 33.63500000000001 83.12400000000001 29.02000000000001 88.81700000000001 29.02000000000001 L 491.103 29.02000000000001 C 498.159 29.02000000000001 503.879 34.74000000000001 503.879 41.79600000000001 L 503.879 68.51 C 503.879 75.565 498.159 81.286 491.103 81.286 z" stroke-linecap="round" />
</g>
		<g transform="matrix(1 0 0 1 35.9 -191.89)"  >
<path style="stroke: none; stroke-width: 1; stroke-dasharray: none; stroke-linecap: butt; stroke-dashoffset: 0; stroke-linejoin: miter; stroke-miterlimit: 4; fill: rgb(145,130,145); fill-rule: nonzero; opacity: 1;" vector-effect="non-scaling-stroke"  transform=" translate(-291.19, -63.96)" d="M 491.103 59.412 L 88.81700000000001 59.412 C 83.12400000000001 59.412 78.50800000000001 54.797 78.50800000000001 49.104 L 78.50800000000001 70.978 C 78.50800000000001 76.67099999999999 83.123 81.286 88.81700000000001 81.286 L 491.103 81.286 C 498.159 81.286 503.879 75.566 503.879 68.51 L 503.879 46.635000000000005 C 503.879 53.69200000000001 498.159 59.412000000000006 491.103 59.412000000000006 z" stroke-linecap="round" />
</g>
		<g transform="matrix(1 0 0 1 -117.35 -200.71)"  >
<path style="stroke: none; stroke-width: 1; stroke-dasharray: none; stroke-linecap: butt; stroke-dashoffset: 0; stroke-linejoin: miter; stroke-miterlimit: 4; fill: rgb(145,130,145); fill-rule: nonzero; opacity: 1;" vector-effect="non-scaling-stroke"  transform=" translate(-138.32, -55.15)" d="M 130.821 29.019 L 130.821 79.588 C 130.821 80.17299999999999 130.895 80.73899999999999 131.021 81.28599999999999 L 145.62099999999998 81.28599999999999 C 145.748 80.73999999999998 145.82099999999997 80.17299999999999 145.82099999999997 79.588 L 145.82099999999997 29.01899999999999 z" stroke-linecap="round" />
</g>
		<g transform="matrix(1 0 0 1 -117.35 -185.48)"  >
<path style="stroke: none; stroke-width: 1; stroke-dasharray: none; stroke-linecap: butt; stroke-dashoffset: 0; stroke-linejoin: miter; stroke-miterlimit: 4; fill: rgb(122,109,121); fill-rule: nonzero; opacity: 1;" vector-effect="non-scaling-stroke"  transform=" translate(-138.32, -70.35)" d="M 145.821 59.412 L 130.821 59.412 L 130.821 79.588 C 130.821 80.17299999999999 130.895 80.73899999999999 131.021 81.28599999999999 L 145.62099999999998 81.28599999999999 C 145.748 80.73999999999998 145.82099999999997 80.17299999999999 145.82099999999997 79.588 z" stroke-linecap="round" />
</g>
		<g transform="matrix(1 0 0 1 -76.5 -200.71)"  >
<path style="stroke: none; stroke-width: 1; stroke-dasharray: none; stroke-linecap: butt; stroke-dashoffset: 0; stroke-linejoin: miter; stroke-miterlimit: 4; fill: rgb(145,130,145); fill-rule: nonzero; opacity: 1;" vector-effect="non-scaling-stroke"  transform=" translate(-179.07, -55.15)" d="M 171.573 29.019 L 171.573 79.588 C 171.573 80.17299999999999 171.64700000000002 80.73899999999999 171.773 81.28599999999999 L 186.373 81.28599999999999 C 186.5 80.73999999999998 186.57299999999998 80.17299999999999 186.57299999999998 79.588 L 186.57299999999998 29.01899999999999 z" stroke-linecap="round" />
</g>
		<g transform="matrix(1 0 0 1 -76.5 -185.48)"  >
<path style="stroke: none; stroke-width: 1; stroke-dasharray: none; stroke-linecap: butt; stroke-dashoffset: 0; stroke-linejoin: miter; stroke-miterlimit: 4; fill: rgb(122,109,121); fill-rule: nonzero; opacity: 1;" vector-effect="non-scaling-stroke"  transform=" translate(-179.07, -70.35)" d="M 186.573 59.412 L 171.573 59.412 L 171.573 79.588 C 171.573 80.17299999999999 171.64700000000002 80.73899999999999 171.773 81.28599999999999 L 186.373 81.28599999999999 C 186.5 80.73999999999998 186.57299999999998 80.17299999999999 186.57299999999998 79.588 z" stroke-linecap="round" />
</g>
		<g transform="matrix(1 0 0 1 -35.65 -200.71)"  >
<path style="stroke: none; stroke-width: 1; stroke-dasharray: none; stroke-linecap: butt; stroke-dashoffset: 0; stroke-linejoin: miter; stroke-miterlimit: 4; fill: rgb(145,130,145); fill-rule: nonzero; opacity: 1;" vector-effect="non-scaling-stroke"  transform=" translate(-219.82, -55.15)" d="M 212.325 29.019 L 212.325 79.588 C 212.325 80.17299999999999 212.399 80.73899999999999 212.52499999999998 81.28599999999999 L 227.12499999999997 81.28599999999999 C 227.25199999999998 80.73999999999998 227.32499999999996 80.17299999999999 227.32499999999996 79.588 L 227.32499999999996 29.01899999999999 z" stroke-linecap="round" />
</g>
		<g transform="matrix(1 0 0 1 -35.65 -185.48)"  >
<path style="stroke: none; stroke-width: 1; stroke-dasharray: none; stroke-linecap: butt; stroke-dashoffset: 0; stroke-linejoin: miter; stroke-miterlimit: 4; fill: rgb(122,109,121); fill-rule: nonzero; opacity: 1;" vector-effect="non-scaling-stroke"  transform=" translate(-219.82, -70.35)" d="M 227.325 59.412 L 212.325 59.412 L 212.325 79.588 C 212.325 80.17299999999999 212.399 80.73899999999999 212.52499999999998 81.28599999999999 L 227.12499999999997 81.28599999999999 C 227.25199999999998 80.73999999999998 227.32499999999996 80.17299999999999 227.32499999999996 79.588 z" stroke-linecap="round" />
</g>
		<g transform="matrix(1 0 0 1 179.16 200.72)"  >
<path style="stroke: none; stroke-width: 1; stroke-dasharray: none; stroke-linecap: butt; stroke-dashoffset: 0; stroke-linejoin: miter; stroke-miterlimit: 4; fill: rgb(181,172,182); fill-rule: nonzero; opacity: 1;" vector-effect="non-scaling-stroke"  transform=" translate(-434.11, -455.62)" d="M 416.609 473.234 L 451.54699999999997 473.234 C 451.58399999999995 472.64 451.60999999999996 472.043 451.60999999999996 471.44 L 451.60999999999996 439.79 C 451.60999999999996 439.18800000000005 451.585 438.59200000000004 451.54699999999997 438 L 416.609 438 z" stroke-linecap="round" />
</g>
		<g transform="matrix(1 0 0 1 -34.54 200.71)"  >
<path style="stroke: none; stroke-width: 1; stroke-dasharray: none; stroke-linecap: butt; stroke-dashoffset: 0; stroke-linejoin: miter; stroke-miterlimit: 4; fill: rgb(167,155,167); fill-rule: nonzero; opacity: 1;" vector-effect="non-scaling-stroke"  transform=" translate(-220.92, -455.62)" d="M 433.609 439.79 L 433.609 471.44 C 433.609 477.14 428.989 481.75 423.299 481.75 L 21.019000000000005 481.75 C 13.959000000000007 481.75 8.239000000000006 476.03 8.239000000000006 468.97 L 8.239000000000006 442.26000000000005 C 8.239000000000006 435.20000000000005 13.959000000000007 429.4800000000001 21.019000000000005 429.4800000000001 L 423.299 429.4800000000001 C 428.989 429.4800000000001 433.609 434.1000000000001 433.609 439.7900000000001 z" stroke-linecap="round" />
</g>
		<g transform="matrix(1 0 0 1 -34.54 208.83)"  >
<path style="stroke: none; stroke-width: 1; stroke-dasharray: none; stroke-linecap: butt; stroke-dashoffset: 0; stroke-linejoin: miter; stroke-miterlimit: 4; fill: rgb(145,130,145); fill-rule: nonzero; opacity: 1;" vector-effect="non-scaling-stroke"  transform=" translate(-220.92, -463.71)" d="M 423.884 458.064 L 21.605000000000018 458.064 C 15.54500000000002 458.064 10.484000000000018 453.845 9.168000000000019 448.18600000000004 L 8.239000000000019 445.67600000000004 L 8.239000000000019 448.18600000000004 L 8.239000000000019 468.97 C 8.239000000000019 476.03000000000003 13.959000000000017 481.75 21.01900000000002 481.75 L 423.299 481.75 C 428.989 481.75 433.609 477.14 433.609 471.44 L 433.609 451.155 C 432.202 455.178 428.383 458.06399999999996 423.88399999999996 458.06399999999996 z" stroke-linecap="round" />
</g>
		<g transform="matrix(1 0 0 1 -175.49 -87.09)"  >
<path style="stroke: none; stroke-width: 1; stroke-dasharray: none; stroke-linecap: butt; stroke-dashoffset: 0; stroke-linejoin: miter; stroke-miterlimit: 4; fill: rgb(181,172,182); fill-rule: nonzero; opacity: 1;" vector-effect="non-scaling-stroke"  transform=" translate(-80.31, -168.51)" d="M 54.447 175.4 L 69.885 183.55100000000002 L 87.5 192.872 L 106.17699999999999 162.387 L 86.33599999999998 152.394 L 70.70899999999999 144.143 C 70.06599999999999 145.089 69.45799999999998 146.066 68.91499999999999 147.094 L 56.44299999999999 170.71699999999998 C 55.64099999999999 172.23499999999999 54.98099999999999 173.803 54.44699999999999 175.39999999999998 z" stroke-linecap="round" />
</g>
		<g transform="matrix(1 0 0 1 177.35 99.63)"  >
<path style="stroke: none; stroke-width: 1; stroke-dasharray: none; stroke-linecap: butt; stroke-dashoffset: 0; stroke-linejoin: miter; stroke-miterlimit: 4; fill: rgb(181,172,182); fill-rule: nonzero; opacity: 1;" vector-effect="non-scaling-stroke"  transform=" translate(-432.31, -354.78)" d="M 461.711 349.667 L 446.733 341.75899999999996 L 422.104 328.72599999999994 L 402.909 356.4069999999999 L 430.282 372.9169999999999 L 445.26099999999997 380.8259999999999 C 445.57199999999995 380.3179999999999 445.87199999999996 379.80099999999993 446.152 379.2699999999999 L 460.929 351.2819999999999 C 461.21 350.74999999999994 461.467 350.2099999999999 461.71099999999996 349.6669999999999 z" stroke-linecap="round" />
</g>
		<g transform="matrix(1 0 0 1 3.17 7.16)"  >
<path style="stroke: none; stroke-width: 1; stroke-dasharray: none; stroke-linecap: butt; stroke-dashoffset: 0; stroke-linejoin: miter; stroke-miterlimit: 4; fill: rgb(167,155,167); fill-rule: nonzero; opacity: 1;" vector-effect="non-scaling-stroke"  transform=" translate(-258.54, -262.52)" d="M 102.096 150.165 L 440.709 328.948 C 445.744 331.606 447.67 337.842 445.012 342.87699999999995 L 430.235 370.86499999999995 C 427.577 375.9 421.341 377.82599999999996 416.30600000000004 375.16799999999995 L 77.69300000000004 196.38499999999996 C 71.45300000000005 193.08999999999997 69.06600000000005 185.36099999999996 72.36000000000004 179.12199999999996 L 84.83300000000004 155.49799999999996 C 88.12700000000004 149.25799999999995 95.85700000000004 146.86999999999995 102.09600000000005 150.16499999999996 z" stroke-linecap="round" />
</g>
		<g transform="matrix(1 0 0 1 -1.36 16.17)"  >
<path style="stroke: none; stroke-width: 1; stroke-dasharray: none; stroke-linecap: butt; stroke-dashoffset: 0; stroke-linejoin: miter; stroke-miterlimit: 4; fill: rgb(145,130,145); fill-rule: nonzero; opacity: 1;" vector-effect="non-scaling-stroke"  transform=" translate(-254.03, -271.52)" d="M 428.248 357.387 L 85.65100000000001 176.499 C 81.78600000000002 174.458 79.403 170.715 78.92900000000002 166.679 L 72.36000000000001 179.121 C 69.06600000000002 185.36100000000002 71.45300000000002 193.09 77.69300000000001 196.38400000000001 L 416.30600000000004 375.16700000000003 C 421.34100000000007 377.82500000000005 427.57700000000006 375.89900000000006 430.235 370.86400000000003 L 437.178 357.71400000000006 C 434.404 358.9220000000001 431.131 358.9080000000001 428.248 357.38700000000006 z" stroke-linecap="round" />
</g>
		<g transform="matrix(1 0 0 1 118.7 200.71)"  >
<path style="stroke: none; stroke-width: 1; stroke-dasharray: none; stroke-linecap: butt; stroke-dashoffset: 0; stroke-linejoin: miter; stroke-miterlimit: 4; fill: rgb(145,130,145); fill-rule: nonzero; opacity: 1;" vector-effect="non-scaling-stroke"  transform=" translate(-373.8, -455.62)" d="M 366.296 431.181 L 366.296 481.75 L 381.296 481.75 L 381.296 431.181 C 381.296 430.59499999999997 381.222 430.027 381.09499999999997 429.47999999999996 L 366.49699999999996 429.47999999999996 C 366.36999999999995 430.027 366.29599999999994 430.59499999999997 366.29599999999994 431.181 z" stroke-linecap="round" />
</g>
		<g transform="matrix(1 0 0 1 118.7 215.04)"  >
<path style="stroke: none; stroke-width: 1; stroke-dasharray: none; stroke-linecap: butt; stroke-dashoffset: 0; stroke-linejoin: miter; stroke-miterlimit: 4; fill: rgb(122,109,121); fill-rule: nonzero; opacity: 1;" vector-effect="non-scaling-stroke"  transform=" translate(-373.8, -469.91)" d="M 366.296 458.064 L 381.296 458.064 L 381.296 481.75 L 366.296 481.75 z" stroke-linecap="round" />
</g>
		<g transform="matrix(1 0 0 1 77.85 200.71)"  >
<path style="stroke: none; stroke-width: 1; stroke-dasharray: none; stroke-linecap: butt; stroke-dashoffset: 0; stroke-linejoin: miter; stroke-miterlimit: 4; fill: rgb(145,130,145); fill-rule: nonzero; opacity: 1;" vector-effect="non-scaling-stroke"  transform=" translate(-333.04, -455.62)" d="M 325.545 431.181 L 325.545 481.75 L 340.545 481.75 L 340.545 431.181 C 340.545 430.59499999999997 340.471 430.027 340.344 429.47999999999996 L 325.746 429.47999999999996 C 325.61899999999997 430.027 325.54499999999996 430.59499999999997 325.54499999999996 431.181 z" stroke-linecap="round" />
</g>
		<g transform="matrix(1 0 0 1 77.85 215.04)"  >
<path style="stroke: none; stroke-width: 1; stroke-dasharray: none; stroke-linecap: butt; stroke-dashoffset: 0; stroke-linejoin: miter; stroke-miterlimit: 4; fill: rgb(122,109,121); fill-rule: nonzero; opacity: 1;" vector-effect="non-scaling-stroke"  transform=" translate(-333.05, -469.91)" d="M 325.545 458.064 L 340.545 458.064 L 340.545 481.75 L 325.545 481.75 z" stroke-linecap="round" />
</g>
		<g transform="matrix(1 0 0 1 37 200.71)"  >
<path style="stroke: none; stroke-width: 1; stroke-dasharray: none; stroke-linecap: butt; stroke-dashoffset: 0; stroke-linejoin: miter; stroke-miterlimit: 4; fill: rgb(145,130,145); fill-rule: nonzero; opacity: 1;" vector-effect="non-scaling-stroke"  transform=" translate(-292.29, -455.62)" d="M 284.793 431.181 L 284.793 481.75 L 299.793 481.75 L 299.793 431.181 C 299.793 430.59499999999997 299.719 430.027 299.592 429.47999999999996 L 284.99399999999997 429.47999999999996 C 284.86699999999996 430.027 284.79299999999995 430.59499999999997 284.79299999999995 431.181 z" stroke-linecap="round" />
</g>
		<g transform="matrix(1 0 0 1 37 215.04)"  >
<path style="stroke: none; stroke-width: 1; stroke-dasharray: none; stroke-linecap: butt; stroke-dashoffset: 0; stroke-linejoin: miter; stroke-miterlimit: 4; fill: rgb(122,109,121); fill-rule: nonzero; opacity: 1;" vector-effect="non-scaling-stroke"  transform=" translate(-292.29, -469.91)" d="M 284.793 458.064 L 299.793 458.064 L 299.793 481.75 L 284.793 481.75 z" stroke-linecap="round" />
</g>
		<g transform="matrix(1 0 0 1 -132.92 -64.9)"  >
<path style="stroke: none; stroke-width: 1; stroke-dasharray: none; stroke-linecap: butt; stroke-dashoffset: 0; stroke-linejoin: miter; stroke-miterlimit: 4; fill: rgb(145,130,145); fill-rule: nonzero; opacity: 1;" vector-effect="non-scaling-stroke"  transform=" translate(-122.78, -190.64)" d="M 128.354 164.028 L 128.353 164.028 L 103.95000000000002 210.248 L 117.21600000000002 217.25199999999998 L 141.61900000000003 171.03199999999998 z" stroke-linecap="round" />
</g>
		<g transform="matrix(1 0 0 1 -140.17 -51.18)"  >
<path style="stroke: none; stroke-width: 1; stroke-dasharray: none; stroke-linecap: butt; stroke-dashoffset: 0; stroke-linejoin: miter; stroke-miterlimit: 4; fill: rgb(122,109,121); fill-rule: nonzero; opacity: 1;" vector-effect="non-scaling-stroke"  transform=" translate(-115.56, -204.33)" d="M 127.161 198.416 L 113.895 191.412 L 103.94999999999999 210.248 L 111.323 214.141 L 117.216 217.25199999999998 z" stroke-linecap="round" />
</g>
		<g transform="matrix(1 0 0 1 -100.12 -47.59)"  >
<path style="stroke: none; stroke-width: 1; stroke-dasharray: none; stroke-linecap: butt; stroke-dashoffset: 0; stroke-linejoin: miter; stroke-miterlimit: 4; fill: rgb(145,130,145); fill-rule: nonzero; opacity: 1;" vector-effect="non-scaling-stroke"  transform=" translate(-155.5, -207.91)" d="M 161.07 181.302 L 136.667 227.522 L 149.933 234.52599999999998 L 174.33599999999998 188.30599999999998 z" stroke-linecap="round" />
</g>
		<g transform="matrix(0.47 -0.89 0.89 0.47 -107.42 -33.79)"  >
<path style="stroke: none; stroke-width: 1; stroke-dasharray: none; stroke-linecap: butt; stroke-dashoffset: 0; stroke-linejoin: miter; stroke-miterlimit: 4; fill: rgb(122,109,121); fill-rule: nonzero; opacity: 1;" vector-effect="non-scaling-stroke"  transform=" translate(-148.27, -221.61)" d="M 137.622 214.106 L 158.92200000000003 214.106 L 158.92200000000003 229.107 L 137.622 229.107 z" stroke-linecap="round" />
</g>
		<g transform="matrix(1 0 0 1 138.38 78.34)"  >
<path style="stroke: none; stroke-width: 1; stroke-dasharray: none; stroke-linecap: butt; stroke-dashoffset: 0; stroke-linejoin: miter; stroke-miterlimit: 4; fill: rgb(145,130,145); fill-rule: nonzero; opacity: 1;" vector-effect="non-scaling-stroke"  transform=" translate(-393.44, -333.54)" d="M 399.004 306.928 L 374.601 353.148 L 387.866 360.15200000000004 L 412.27 313.932 z" stroke-linecap="round" />
</g>
		<g transform="matrix(1 0 0 1 131.14 92.07)"  >
<path style="stroke: none; stroke-width: 1; stroke-dasharray: none; stroke-linecap: butt; stroke-dashoffset: 0; stroke-linejoin: miter; stroke-miterlimit: 4; fill: rgb(122,109,121); fill-rule: nonzero; opacity: 1;" vector-effect="non-scaling-stroke"  transform=" translate(-386.21, -347.23)" d="M 384.546 334.312 L 374.601 353.148 L 386.488 359.42400000000004 L 387.866 360.15200000000004 L 397.811 341.31600000000003 z" stroke-linecap="round" />
</g>
		<g transform="matrix(1 0 0 1 105.59 61.03)"  >
<path style="stroke: none; stroke-width: 1; stroke-dasharray: none; stroke-linecap: butt; stroke-dashoffset: 0; stroke-linejoin: miter; stroke-miterlimit: 4; fill: rgb(145,130,145); fill-rule: nonzero; opacity: 1;" vector-effect="non-scaling-stroke"  transform=" translate(-360.72, -316.27)" d="M 366.288 289.654 L 341.884 335.874 L 355.148 342.87800000000004 L 379.553 296.658 z" stroke-linecap="round" />
</g>
		<g transform="matrix(1 0 0 1 98.34 74.75)"  >
<path style="stroke: none; stroke-width: 1; stroke-dasharray: none; stroke-linecap: butt; stroke-dashoffset: 0; stroke-linejoin: miter; stroke-miterlimit: 4; fill: rgb(122,109,121); fill-rule: nonzero; opacity: 1;" vector-effect="non-scaling-stroke"  transform=" translate(-353.49, -329.96)" d="M 355.148 342.878 L 365.09400000000005 324.042 L 351.82900000000006 317.03799999999995 L 341.88400000000007 335.87399999999997 z" stroke-linecap="round" />
</g>
</g>
</g>
<g transform="matrix(3.61 0 0 3.61 624 600.86)" style="filter: url(#SVGID_1503);" id="f42727bd-bc40-4e3b-832d-5e77afda711c"  >
<filter id="SVGID_1503" y="-46%" height="192%" x="-54%" width="208%" >
	<feGaussianBlur in="SourceAlpha" stdDeviation="7.5"></feGaussianBlur>
	<feOffset dx="0" dy="0" result="oBlur" ></feOffset>
	<feFlood flood-color="rgb(255,255,0)" flood-opacity="1"/>
	<feComposite in2="oBlur" operator="in" />
	<feMerge>
		<feMergeNode></feMergeNode>
		<feMergeNode in="SourceGraphic"></feMergeNode>
	</feMerge>
</filter>
		<rect opacity="0" fill="rgb(0,0,0)" x="-22.39" y="-28.81" width="44.77" height="57.63"></rect>
		<text xml:space="preserve" font-family="Lato" font-size="51" font-style="normal" font-weight="400" style="stroke: none; stroke-width: 1; stroke-dasharray: none; stroke-linecap: butt; stroke-dashoffset: 0; stroke-linejoin: miter; stroke-miterlimit: 4; fill: rgb(85,85,255); fill-rule: nonzero; opacity: 1; white-space: pre;" ><tspan x="-17.47" y="16.02" >C</tspan></text>
</g>
</svg>