<?xml version="1.0" encoding="utf-8"?>
<!-- Svg Vector Icons : http://www.onlinewebfonts.com/icon -->
<!DOCTYPE svg PUBLIC "-//W3C//DTD SVG 1.1//EN" "http://www.w3.org/Graphics/SVG/1.1/DTD/svg11.dtd">
<svg version="1.1" xmlns="http://www.w3.org/2000/svg" xmlns:xlink="http://www.w3.org/1999/xlink" x="0px" y="0px" viewBox="0 0 1000 1000" enable-background="new 0 0 1000 1000" xml:space="preserve">
<metadata> Svg Vector Icons : http://www.onlinewebfonts.com/icon </metadata>
<g><path d="M990,520.3c0,44.7-36.6,81.3-81.3,81.3H91.3c-44.7,0-81.3-36.6-81.3-81.3v-40.6c0-44.7,36.6-81.3,81.3-81.3h817.3c44.7,0,81.3,36.6,81.3,81.3L990,520.3L990,520.3z"/><path d="M520.3,10c44.7,0,81.3,36.6,81.3,81.3v817.3c0,44.7-36.6,81.3-81.3,81.3h-40.6c-44.7,0-81.3-36.6-81.3-81.3V91.3c0-44.7,36.6-81.3,81.3-81.3H520.3L520.3,10z"/></g>
</svg>