<svg id="Layer_1" enable-background="new 0 0 509.54 509.54" height="512" viewBox="0 0 509.54 509.54" width="512" xmlns="http://www.w3.org/2000/svg"><g><path d="m509.16.59-34.28 118.71-76.21-8.22 46.342-58.465z" fill="#989eec"/><path d="m362.93 443.38-31.79 10.58-137.6-137.6 21.18-21.19z" fill="#04303e"/><path d="m426.12 465.13-42.43 42.43-52.55-53.6 20.13-127.44c4.079-25.836 1.16-51.889-7.944-75.656 0 0-2.304-36.439-17.007-51.214l21.386-19.795c14.364 14.586 40.574 26.05 40.574 26.05 15.886 29.977 24.301 63.532 24.301 97.745 0 10.81-.84 21.69-2.55 32.55l-15.25 96.55z" fill="#cb7400"/><path d="m371.901 179.855-42.944 42.944c5.802 8.85 10.602 18.266 14.356 28.069l44.961-44.961c-4.787-9.035-10.253-17.746-16.373-26.052z" fill="#ffb555"/><path d="m371.9 179.86-42.94 42.94c-2.74-4.18-5.7-8.22-8.87-12.13-3.1-3.82-6.4-7.5-9.91-11.02l42.4-42.42c7.04 7.12 13.48 14.69 19.32 22.63z" fill="#04303e"/><path d="m214.72 295.17-21.18 21.19-138.17-138.17 17.65-24.72z" fill="#005457"/><path d="m328.958 159.162-18.778 23.671-3.465-4.99c-14.829-14.829-48.249-11.839-48.249-11.839-16.717-6.402-34.566-9.744-52.676-9.744-7.64 0-15.32.59-22.98 1.8l-127.44 20.13-52.71-53.36 42.43-42.43 27.96 28.61 102.31-14.11c44.495-6.139 89.203 2.293 127.813 23.176 0 0 8.709 11.607 23.146 26.044.38.38 2.259 12.652 2.639 13.042z" fill="#e99b62"/><path d="m258.462 166.016c9.803 3.754 19.219 8.555 28.069 14.356l43.197-43.197c-8.206-6.205-16.819-11.769-25.767-16.659z" fill="#ffde55"/><path d="m352.58 157.23-42.4 42.42-.25-.25c-7.2-7.2-15.05-13.55-23.4-19.03l43.2-43.19c7.61 5.75 14.88 12.05 21.72 18.89.39.39.77.77 1.13 1.16z" fill="#005457"/><path d="m509.33 0-.17.59-110.49 110.49-.38-.04-8.26-76.59z" fill="#adcfff"/><path d="m447.78 82.76-325.4 325.4-10.39-10.39 146.472-155.056 178.928-170.344z" fill="#e6c893"/><path d="m39.187 222.009h460.185v15.302h-460.185z" fill="#ecd6af" transform="matrix(.707 -.707 .707 .707 -83.524 257.676)"/><path d="m143.85 434.99-74.55 74.55-19.19-49.9 28.486-39.659 49.904-38.721z" fill="#ffb555"/><path d="m128.5 381.25v.01l-78.39 78.38-49.9-19.19 74.55-74.55z" fill="#ffde55"/></g></svg>