<?xml version="1.0" encoding="iso-8859-1"?>
<!-- Generator: Adobe Illustrator 19.0.0, SVG Export Plug-In . SVG Version: 6.00 Build 0)  -->
<svg version="1.1" id="Capa_1" xmlns="http://www.w3.org/2000/svg" xmlns:xlink="http://www.w3.org/1999/xlink" x="0px" y="0px"
	 viewBox="0 0 480 480" style="enable-background:new 0 0 480 480;" xml:space="preserve">
<circle style="fill:#FD614B;" cx="96" cy="288" r="40"/>
<path style="fill:#27AE60;" d="M376,240H128v104h312C440,295.43,414.336,240,376,240z"/>
<g>
	<path style="fill:#565151;" d="M168,192h-48c-4.42-0.002-8.001-3.587-7.999-8.007c0.001-1.869,0.656-3.678,1.851-5.114L142.922,144
		H112v-16h48c4.42,0.002,8.001,3.587,7.999,8.007c-0.001,1.869-0.656,3.678-1.851,5.114L137.078,176H168V192z"/>
	<path style="fill:#565151;" d="M272,152h-64c-4.416,0.002-7.998-3.577-8-7.993c-0.001-1.781,0.593-3.512,1.688-4.917L247.641,80
		H200V64h64c4.416-0.002,7.998,3.577,8,7.993c0.001,1.781-0.593,3.512-1.688,4.917L224.359,136H272V152z"/>
	<path style="fill:#565151;" d="M392,112h-80c-4.417,0.001-7.999-3.579-8.001-7.996c0-1.733,0.562-3.419,1.602-4.804L368,16h-56V0
		h72c4.417-0.001,7.999,3.579,8.001,7.996c0,1.733-0.562,3.419-1.602,4.804L328,96h64V112z"/>
</g>
<path style="fill:#8CE2FF;" d="M143.375,344c0.08-8.751-6.944-15.912-15.695-16H63.07c-8.751,0.088-15.775,7.249-15.695,16H24v64
	h432v-64H143.375z"/>
<path style="fill:#FECD0D;" d="M480,472.68c0,4.066-7.164,7.32-16,7.32c-8.844,0-16-3.254-16-7.32V247.32
	c0-4.066,7.156-7.32,16-7.32c8.836,0,16,3.254,16,7.32V472.68z"/>
<path style="fill:#80CDE8;" d="M24,344v64h192L24,344z"/>
<path style="fill:#FECD0D;" d="M32,468.801C32,474.996,24.836,480,16,480c-8.844,0-16-5.004-16-11.199V123.199
	C0,117.004,7.156,112,16,112c8.836,0,16,5.004,16,11.199V468.801z"/>
<g>
</g>
<g>
</g>
<g>
</g>
<g>
</g>
<g>
</g>
<g>
</g>
<g>
</g>
<g>
</g>
<g>
</g>
<g>
</g>
<g>
</g>
<g>
</g>
<g>
</g>
<g>
</g>
<g>
</g>
</svg>
