<svg id="Capa_1" enable-background="new 0 0 512 512" height="512" viewBox="0 0 512 512" width="512" xmlns="http://www.w3.org/2000/svg"><g><g><g><path d="m93.656 195.324h40.696v207.54h-40.696z" fill="#766d78" transform="matrix(.782 -.624 .624 .782 -161.616 136.342)"/><path d="m31.113 195.16c-12.595 10.045-14.662 28.399-4.617 40.994s28.399 14.663 40.994 4.618 14.663-28.399 4.618-40.994c-10.046-12.596-28.4-14.663-40.995-4.618z" fill="#6fbbc6"/></g><g><path d="m294.226 278.746h207.54v40.696h-207.54z" fill="#766d78" transform="matrix(.624 -.782 .782 .624 -83.996 423.762)"/><path d="m480.887 195.16c12.595 10.045 14.662 28.399 4.617 40.994s-28.399 14.663-40.994 4.618-14.663-28.399-4.618-40.994c10.046-12.596 28.4-14.663 40.995-4.618z" fill="#6fbbc6"/></g></g><path d="m394.202 512h-69.983-136.438-69.983c-105.553 0-38.825-183.767 116.959-204.061 13.331-1.731 29.154-1.731 42.485 0 155.784 20.294 222.512 204.061 116.96 204.061z" fill="#ebebeb"/><path d="m231.205 411.145c0 66.21-21.821 87.236-43.423 100.855h-79.983c-85.969 0-51.025-128.536 49.078-187.205 42.597 27.269 74.328 66.931 74.328 86.35z" fill="#5d91b9"/><path d="m404.202 512h-79.983c-21.603-13.619-43.423-34.645-43.423-100.855 0-19.419 31.731-59.081 74.329-86.35 100.102 58.669 135.046 187.205 49.077 187.205z" fill="#5d91b9"/><path d="m355.124 324.795c-5.333 3.414-10.495 7.022-15.446 10.76 87.133 62.237 113.54 176.445 32.503 176.445h32.021c85.969 0 51.025-128.536-49.078-187.205z" fill="#4980ac"/><path d="m96.39 298.844c69.204 14.593 134.815 84.375 134.815 112.301 0-37.787 3.438-86.367-25.345-128.536l36.567-53.816c-63.786 0-137.37 39.097-146.037 70.051z" fill="#d09180"/><path d="m415.61 298.844c-8.667-30.954-82.251-70.051-146.037-70.051l36.567 53.816c-28.783 42.169-25.345 90.748-25.345 128.536 0-27.926 65.611-97.708 134.815-112.301z" fill="#d09180"/><path d="m430.773 28.243c-53.411 2.778-172.14-19.003-216.915-27.706-11.301-2.197-22.833 2.457-29.427 11.894-6.301 9.017-13.896 21.336-19.606 35.147-5.323 1.798-31.268 14.964-50.906 27.085-8.621 5.321-12.194 16.066-8.449 25.479 13.05 32.801 19.384 90.451 19.384 111.516h262.292c0-24.762 8.825-100.028 26.878-126.158 8.223-11.903 12.972-18.86 26.452-41 4.476-7.351-1.107-16.704-9.703-16.257z" fill="#766d78"/><g fill="#ffcdbe"><path d="m388.273 186.266h-46.009v49.525h46.009c12.254 0 22.189-9.934 22.189-22.189v-5.147c0-12.254-9.935-22.189-22.189-22.189z"/><path d="m123.727 186.266h46.009v49.525h-46.009c-12.254 0-22.189-9.934-22.189-22.189v-5.147c0-12.254 9.935-22.189 22.189-22.189z"/></g><path d="m351.743 129.1c5.684 1.922 9.51 7.255 9.51 13.256v79.864c0 24.755-10.384 48.367-28.618 65.118l-45.74 41.99c-7.057 6.5-16.308 10.096-25.899 10.096h-9.993c-9.591 0-18.842-3.595-25.899-10.096l-45.74-41.99c-18.234-16.751-28.618-40.363-28.618-65.118v-73.561c0-4.189 1.878-8.147 5.112-10.809 16.736-13.778 34.848-32.719 39.742-42.507 28.989 29.69 73.04 42.083 73.04 42.083v-36.427z" fill="#ffcdbe"/><path d="m351.743 129.1-17.34-5.864c3.014 2.708 4.843 6.615 4.843 10.844v83.218c0 25.795-10.82 50.398-29.82 67.852l-47.661 43.753c-5.312 4.893-11.82 8.196-18.79 9.659 2.621.562 5.31.861 8.029.861h9.993c9.591 0 18.842-3.595 25.899-10.096l45.74-41.99c18.234-16.751 28.618-40.363 28.618-65.118v-79.864c0-6-3.826-11.332-9.511-13.255z" fill="#ebae9d"/><path d="m256 207.298c-25.284 0-75.841 17.539-96.324 53.614 4.801 9.859 11.438 18.846 19.689 26.426l45.74 41.99c7.057 6.5 16.308 10.096 25.899 10.096h9.993c9.591 0 18.842-3.595 25.899-10.096l45.74-41.99c8.25-7.579 14.887-16.567 19.689-26.426-20.484-36.074-71.041-53.614-96.325-53.614z" fill="#766d78"/><path d="m335.747 284.332c6.557-6.643 12.239-14.512 16.577-23.419-4.249-7.482-9.803-14.155-16.145-20.051-4.463 16.857-13.667 32.269-26.753 44.29l-47.661 43.753c-5.312 4.893-11.82 8.196-18.79 9.659 5.382 1.154 8.899.853 18.022.861 9.591.008 18.842-3.595 25.899-10.096-.001-.001 48.753-44.898 48.851-44.997z" fill="#655e67"/><path d="m129.34 443.15c.874-4.177-1.802-8.272-5.979-9.146-4.173-.873-8.272 1.802-9.146 5.979-6.077 29.017-5.913 54.11.314 72.017h16.699c-7.293-14.731-7.996-39.685-1.888-68.85z" fill="#4980ac"/><path d="m388.639 434.004c-4.177.875-6.853 4.97-5.979 9.146 6.108 29.165 5.405 54.119-1.888 68.85h16.699c6.227-17.907 6.391-43 .314-72.017-.875-4.178-4.967-6.852-9.146-5.979z" fill="#4980ac"/><g><g fill="#544f56"><path d="m200.154 205.611c-4.268 0-7.726-3.459-7.726-7.726v-7.885c0-4.267 3.459-7.726 7.726-7.726 4.268 0 7.726 3.459 7.726 7.726v7.885c0 4.266-3.458 7.726-7.726 7.726z"/><path d="m311.846 205.611c-4.268 0-7.726-3.459-7.726-7.726v-7.885c0-4.267 3.459-7.726 7.726-7.726s7.726 3.459 7.726 7.726v7.885c0 4.266-3.458 7.726-7.726 7.726z"/></g><g fill="#655e67"><path d="m183.34 173.966c-3.28 0-6.323-2.105-7.364-5.398-1.288-4.068.968-8.41 5.036-9.697 12.699-4.016 25.58-4.018 38.284 0 4.068 1.287 6.324 5.628 5.036 9.697-1.286 4.068-5.629 6.323-9.696 5.037-9.746-3.083-19.221-3.082-28.964 0-.775.244-1.56.361-2.332.361z"/><path d="m328.66 173.966c-.772 0-1.557-.117-2.332-.362-9.744-3.082-19.217-3.083-28.964 0-4.065 1.287-8.409-.968-9.696-5.037-1.288-4.068.968-8.41 5.036-9.697 12.702-4.018 25.583-4.018 38.284 0 4.068 1.287 6.324 5.629 5.036 9.697-1.041 3.294-4.084 5.399-7.364 5.399z"/></g></g><path d="m306.918 440.114h-101.836c-4.268 0-7.726-3.459-7.726-7.726s3.459-7.726 7.726-7.726h101.835c4.268 0 7.726 3.459 7.726 7.726.001 4.266-3.458 7.726-7.725 7.726z" fill="#655e67"/><g fill="#f3d69e"><circle cx="187.569" cy="432.387" r="22.664"/><circle cx="324.431" cy="432.387" r="22.664"/></g></g></svg>