<svg height="512" viewBox="0 0 48 58" width="512" xmlns="http://www.w3.org/2000/svg"><g id="Page-1" fill="none" fill-rule="evenodd"><g id="025---Magic-Runes" fill-rule="nonzero"><path id="Shape" d="m40 58h4c2.209139 0 4-1.790861 4-4v-30c0-2.209139-1.790861-4-4-4h-4z" fill="#3f5c6c"/><path id="Shape" d="m44 24v30c0 2.209139-1.790861 4-4 4h-18c-2.209139 0-4-1.790861-4-4v-16l12-18h10c2.209139 0 4 1.790861 4 4z" fill="#547580"/><path id="Shape" d="m26 53c-.5522847 0-1-.4477153-1-1v-16c0-.5522847.4477153-1 1-1s1 .4477153 1 1v16c0 .5522847-.4477153 1-1 1z" fill="#65d4b0"/><path id="Shape" d="m30 25 6.555 3.28c.2727059.1363661.4449653.4150997.4449653.72s-.1722594.5836339-.4449653.72l-6.555 3.28z" fill="#65d4b0"/><path id="Shape" d="m38 55v3h-2v-3c0-.5522847.4477153-1 1-1s1 .4477153 1 1z" fill="#3f5c6c"/><path id="Shape" d="m22 38h4c2.209139 0 4-1.790861 4-4v-30c0-2.209139-1.790861-4-4-4h-4z" fill="#7f8384"/><rect id="Rectangle-path" fill="#8c9c9c" height="38" rx="4" width="26"/><path id="Shape" d="m15.293 16.293-6.293 6.293v-5.172l7.707-7.707c.3789722-.39237889.3735524-1.01608478-.0121814-1.40181858-.3857338-.38573379-1.0094397-.39115363-1.4018186-.01218142l-6.293 6.293v-6.586c0-.55228475-.44771525-1-1-1s-1 .44771525-1 1v24c0 .5522847.44771525 1 1 1s1-.4477153 1-1v-6.586l7.707-7.707c.3789722-.3923789.3735524-1.0160848-.0121814-1.4018186s-1.0094397-.3911536-1.4018186-.0121814z" fill="#65d4b0"/><g fill="#7f8384"><path id="Shape" d="m7 0v2c0 .55228475-.44771525 1-1 1s-1-.44771525-1-1v-2z"/><path id="Shape" d="m16 36v2h-2v-2c0-.5522847.4477153-1 1-1s1 .4477153 1 1z"/></g></g></g></svg>