<?xml version="1.0" encoding="utf-8"?>
<!-- Svg Vector Icons : http://www.onlinewebfonts.com/icon -->
<!DOCTYPE svg PUBLIC "-//W3C//DTD SVG 1.1//EN" "http://www.w3.org/Graphics/SVG/1.1/DTD/svg11.dtd">
<svg version="1.1" xmlns="http://www.w3.org/2000/svg" xmlns:xlink="http://www.w3.org/1999/xlink" x="0px" y="0px" viewBox="0 0 1000 1000" enable-background="new 0 0 1000 1000" xml:space="preserve">
<metadata> Svg Vector Icons : http://www.onlinewebfonts.com/icon </metadata>
<g><g transform="translate(0.000000,512.000000) scale(0.100000,-0.100000)"><path d="M554.1,5008.5c-174.4-40.2-323.8-164.8-400.4-333.4l-44.1-95.8l-5.7-3946.8L100-3314.3l731.9-731.9l733.8-733.8h492.4h494.3v1538.5V-1703l49.8,99.6c57.5,116.9,130.3,183.9,275.9,251l105.4,49.8h2634.4h2634.4l105.4-49.8c145.6-67.1,218.4-134.1,275.9-251l49.8-99.6v-1540.4v-1540.4l387,5.7c379.4,7.7,390.8,9.6,498.1,61.3c124.5,61.3,231.8,170.5,291.2,298.9l40.2,88.1v4445c0,4335.8,0,4446.9-36.4,4540.8c-47.9,124.5-180.1,262.5-304.6,318l-99.6,46l-4416.2,3.8C2508.3,5023.8,596.2,5018.1,554.1,5008.5z M8482.2,2835.8V843.3l-59.4-124.5c-99.6-205-233.8-320-438.8-373.6c-99.6-24.9-457.9-28.7-2979.3-28.7c-2521.4,0-2879.6,3.8-2979.3,28.7c-199.3,51.7-342.9,174.4-438.7,373.6l-59.4,124.5l-5.7,1973.4c-1.9,1084.4,0,1983,3.8,1996.4c7.7,21.1,655.2,24.9,3483.2,21.1l3473.6-5.7V2835.8z"/><path d="M2150,3899.2v-95.8h2854.7h2854.7v95.8v95.8H5004.8H2150V3899.2z"/><path d="M2150,3094.5v-95.8h2854.7h2854.7v95.8v95.8H5004.8H2150V3094.5z"/><path d="M2150,2270.6v-95.8h2854.7h2854.7v95.8v95.8H5004.8H2150V2270.6z"/><path d="M2150,1446.8V1351h2854.7h2854.7v95.8v95.8H5004.8H2150V1446.8z"/><path d="M3031.4-1544c-67.1-26.8-168.6-128.4-216.5-218.4c-42.2-76.6-42.2-80.5-47.9-1546.2l-3.8-1471.4h2241.6h2241.6l-3.8,1471.4c-5.7,1465.7-5.7,1469.5-47.9,1546.2c-49.8,93.9-149.4,191.6-222.2,218.4C6899.6-1515.3,3100.4-1517.2,3031.4-1544z M4225-1932.9c34.5-13.4,86.2-53.7,115-86.2l51.7-63.2V-3138c0-1000.1-1.9-1061.4-36.4-1117c-67.1-111.1-124.5-122.6-574.8-122.6c-454.1,0-511.6,11.5-576.7,118.8c-36.4,61.3-38.3,93.9-38.3,1120.8v1055.7l51.7,63.2c88.1,103.5,128.4,111.1,557.5,113C4060.2-1906.1,4179-1913.7,4225-1932.9z"/></g></g>
</svg>