<svg id="Capa_1" enable-background="new 0 0 512 512" height="512" viewBox="0 0 512 512" width="512" xmlns="http://www.w3.org/2000/svg"><path d="m325.376 41.417h14.859c18.794 0 34.03-15.236 34.03-34.03v-4.999c0-1.319-1.069-2.388-2.388-2.388h-75.215c-8.446 0-15.974 5.326-18.786 13.29l-49.49 140.201h136.551z" fill="#8993da"/><path d="m228.386 153.491-12.18 34.506h160.912l-12.18-34.506z" fill="#f9f48e"/><path d="m381.978 232.479h-12.441l-1.187 16.121 10.846 28.85c10.908-4.315 18.624-14.956 18.624-27.398v-1.732c-.002-8.749-7.094-15.841-15.842-15.841z" fill="#eaac9d"/><path d="m214.13 277.45 10.846-28.85-1.187-16.121h-12.442c-8.748 0-15.84 7.092-15.84 15.841v1.732c-.001 12.443 7.715 23.083 18.623 27.398z" fill="#eaac9d"/><path d="m362.532 297.265c-9.301-15.376-25.964-24.771-43.934-24.771h-43.872c-17.971 0-34.634 9.395-43.934 24.772l-1.919 3.172c-.534.883.102 2.011 1.134 2.011h35.189c10.628 0 21.21-1.412 31.466-4.2 10.256 2.788 20.838 4.2 31.466 4.2h35.189c1.032 0 1.668-1.128 1.134-2.011z" fill="#f1f1f4"/><path d="m328.128 302.449c-10.628 0-21.21-1.412-31.466-4.2-10.256 2.788-20.838 4.2-31.466 4.2h-22.052l9.663 28.638c2.398 7.107 10.439 10.554 17.239 7.391l16.335-7.598c6.519-3.032 14.043-3.032 20.562 0l16.335 7.598c6.801 3.163 14.842-.284 17.239-7.391l9.662-28.638z" fill="#ffcbbe"/><path d="m223.788 232.479 1.187 16.121 13.214 39.163c9.532-9.654 22.644-15.269 36.537-15.269h43.872c13.893 0 27.005 5.616 36.537 15.269l13.214-39.163 1.187-16.121z" fill="#ffcbbe"/><path d="m296.662 280.221c-4.268 0-7.726-3.459-7.726-7.726s3.459-7.726 7.726-7.726c1.298 0 2.353-1.055 2.353-2.353v-29.936c0-4.267 3.459-7.726 7.726-7.726 4.268 0 7.726 3.459 7.726 7.726v29.936c.001 9.817-7.987 17.805-17.805 17.805z" fill="#eaac9d"/><path d="m388.915 303.305-20.566-54.705-13.214 39.163c2.797 2.833 5.286 6.013 7.397 9.502l1.919 3.173c.534.883-.102 2.011-1.134 2.011h-13.137l-9.662 28.638c-2.398 7.107-10.439 10.554-17.239 7.391l-16.335-7.598c-6.519-3.032-14.044-3.032-20.562 0l-16.335 7.598c-6.801 3.163-14.842-.284-17.239-7.391l-9.662-28.638h-13.137c-1.032 0-1.668-1.128-1.134-2.01l1.919-3.172c2.11-3.489 4.6-6.67 7.397-9.503l-13.216-39.164-20.566 54.705c-4.611 12.266-3.143 25.991 3.957 37.005l85.946 133.304c1.1 1.707 3.597 1.707 4.697 0l85.946-133.304c7.103-11.013 8.571-24.739 3.96-37.005z" fill="#dfdde2"/><path d="m388.915 303.305-20.566-54.705-10.954 32.467.615 1.635c1.408 3.746 2.249 7.628 2.536 11.528.694.984 1.357 1.996 1.986 3.036l1.919 3.173c.534.883-.102 2.011-1.134 2.011h-2.986c-.765 6.07-2.875 11.976-6.28 17.258l-79.484 123.281 19.746 30.627c1.1 1.707 3.597 1.707 4.697 0l85.946-133.304c7.102-11.015 8.57-24.741 3.959-37.007z" fill="#c6c1c8"/><path d="m131.938 291.785h-35.482c-6.752 0-12.226 5.474-12.226 12.226 0 6.752 5.474 12.226 12.226 12.226h35.482c6.752 0 12.226-5.474 12.226-12.226 0-6.752-5.474-12.226-12.226-12.226z" fill="#f9f48e"/><path d="m128.285 512h-26.506c-.922 0-1.669-.747-1.669-1.669v-194.094h28.176v195.763z" fill="#e2bcaf"/><path d="m114.197 191.068c-28.337 0-51.309 22.972-51.309 51.309 0 23.525 15.833 43.352 37.424 49.408h27.772c21.591-6.056 37.424-25.882 37.424-49.408-.002-28.337-22.974-51.309-51.311-51.309z" fill="#d3effb"/><path d="m125.272 192.267c5.877 8.346 9.329 18.523 9.329 29.507 0 .654-.012 1.304-.036 1.952-.997 26.652-23.522 47.456-50.192 47.456h-2.087c-3.913 0-7.732-.448-11.407-1.294 6.7 10.527 17.131 18.447 29.432 21.897h27.772c21.591-6.056 37.424-25.882 37.424-49.408-.001-24.535-17.221-45.047-40.235-50.11z" fill="#b1e4f9"/><path d="m164.552 232.479h270.073c2.45 0 3.424-3.17 1.396-4.545l-58.902-39.937h-160.913l-53.888 36.538c.949 2.558 1.7 5.212 2.234 7.944z" fill="#8993da"/><path d="m349.435 176.562 13.707 9.294c.957.649 1.796 1.368 2.525 2.14h11.452l-12.18-34.505h-33.906c3.649 9.366 10.061 17.416 18.402 23.071z" fill="#f6e738"/><path d="m377.118 187.997h-11.452c8.109 8.6 2.358 23.879-10.514 23.879h-174.163l-18.671 12.659c.949 2.558 1.7 5.212 2.234 7.944h270.073c2.45 0 3.424-3.17 1.396-4.545z" fill="#707dd3"/><path d="m330.396 0c-5.159 12.229-17.261 20.813-31.368 20.813-7.253 0-12.327 7.172-9.913 14.012l34.616 98.063 6.741 19.098c.179.505.365 1.007.559 1.505h33.906l-39.561-112.074h14.859c18.794 0 34.03-15.236 34.03-34.03v-4.999c0-1.319-1.069-2.388-2.388-2.388z" fill="#707dd3"/><path d="m458.447 415.712c-5.187-28.459-29.978-49.141-58.906-49.141h-31.515l-69.015 107.043c-1.1 1.707-3.596 1.707-4.697 0l-69.015-107.043h-31.515c-28.928 0-53.72 20.681-58.907 49.141l-6.592 36.167v60.121h345.711c1.042 0 1.829-.944 1.642-1.969z" fill="#8993da"/><path d="m458.448 415.712c-4.939-27.1-27.655-47.147-54.792-49 6.798 7.866 11.61 17.568 13.584 28.396l6.352 34.852c5.829 31.985-18.739 61.436-51.251 61.436h-244.056v20.604h345.711c1.042 0 1.829-.944 1.642-1.969z" fill="#707dd3"/><path d="m180.592 512 9.045-57.052c.668-4.214 4.62-7.088 8.841-6.422 4.214.669 7.089 4.627 6.421 8.841l-8.662 54.633zm223.096-57.052c-.667-4.214-4.613-7.091-8.841-6.422-4.214.669-7.089 4.627-6.421 8.841l8.662 54.633h15.645z" fill="#707dd3"/><path d="m183.858 491.396-3.266 20.604h15.645l3.266-20.604z" fill="#5766cb"/><path d="m393.139 487.094 3.949 24.906h15.645l-5.405-34.094c-4.158 3.778-8.938 6.901-14.189 9.188z" fill="#5766cb"/><path d="m340.235 41.417c.508 0 1.014-.012 1.516-.034l-6.765-19.163c-1.42-4.024-5.834-6.135-9.857-4.714-4.024 1.421-6.135 5.834-4.714 9.858l4.961 14.053z" fill="#5766cb"/><path d="m310.104 456.41 23.322-89.132c1.081-4.128-1.391-8.35-5.519-9.431-4.129-1.079-8.351 1.39-9.431 5.519l-21.814 83.368-21.814-83.368c-1.079-4.128-5.297-6.601-9.431-5.519-4.128 1.08-6.6 5.302-5.519 9.431l23.322 89.13 11.094 17.207c1.1 1.707 3.596 1.707 4.697 0z" fill="#c6c1c8"/><path d="m299.011 473.614 11.093-17.205 23.322-89.131c.965-3.687-.904-7.449-4.255-8.98l-15.767 24.455-16.741 63.981-7.075-27.041-11.362 17.623 4.995 19.091 11.094 17.207c1.09 1.692 3.604 1.693 4.696 0z" fill="#afaab4"/><path d="m139.751 250.104c-4.268 0-7.726-3.459-7.726-7.726 0-9.83-7.998-17.828-17.828-17.828-4.268 0-7.726-3.459-7.726-7.726s3.459-7.726 7.726-7.726c18.351 0 33.281 14.93 33.281 33.281 0 4.265-3.459 7.725-7.727 7.725z" fill="#f4fbff"/><path d="m131.626 238.616c.261 1.213.399 2.471.399 3.761 0 4.267 3.459 7.726 7.726 7.726 4.268 0 7.726-3.459 7.726-7.726 0-10.822-5.193-20.454-13.217-26.536.224 1.946.34 3.926.34 5.932 0 .654-.012 1.304-.036 1.952-.195 5.226-1.219 10.227-2.938 14.891z" fill="#e4f6ff"/><g fill="#f9f48e"><path d="m114.197 167.889c-4.268 0-7.726-3.459-7.726-7.726v-16.973c0-4.267 3.459-7.726 7.726-7.726 4.268 0 7.726 3.459 7.726 7.726v16.973c0 4.267-3.458 7.726-7.726 7.726z"/><path d="m56.062 191.969c-1.977 0-3.955-.754-5.463-2.263l-12.002-12.002c-3.018-3.017-3.018-7.909-.001-10.927 3.018-3.017 7.91-3.018 10.927 0l12.002 12.002c3.018 3.017 3.018 7.909.001 10.927-1.509 1.508-3.487 2.263-5.464 2.263z"/><path d="m172.332 191.969c-1.977 0-3.955-.754-5.463-2.263-3.018-3.017-3.018-7.909-.001-10.927l12.001-12.002c3.018-3.017 7.91-3.018 10.927 0 3.018 3.017 3.018 7.909.001 10.927l-12.001 12.002c-1.509 1.508-3.487 2.263-5.464 2.263z"/></g></svg>