<svg height="464pt" viewBox="0 0 464 464" width="464pt" xmlns="http://www.w3.org/2000/svg"><path d="m144 272c-35.347656 0-64 28.652344-64 64v128h384v-128c0-35.347656-28.652344-64-64-64zm0 0" fill="#a1d51c"/><path d="m288 424c-48.601562 0-88-39.398438-88-88v-64h-56c-35.347656 0-64 28.652344-64 64v128h384v-40zm0 0" fill="#7ab92d"/><path d="m440 336h24v32h-24c-8.835938 0-16-7.164062-16-16s7.164062-16 16-16zm0 0" fill="#c4f236"/><path d="m392 384h16c8.835938 0 16 7.164062 16 16s-7.164062 16-16 16h-16zm0 0" fill="#c4f236"/><g fill="#a1d51c"><path d="m448 432h16v32h-16c-8.835938 0-16-7.164062-16-16s7.164062-16 16-16zm0 0"/><path d="m128 368h24v32h-24c-8.835938 0-16-7.164062-16-16s7.164062-16 16-16zm0 0"/><path d="m80 432h24c8.835938 0 16 7.164062 16 16s-7.164062 16-16 16h-24zm0 0"/></g><path d="m352 136h32c0 17.671875-14.328125 32-32 32zm0 0" fill="#f9e109"/><path d="m192 168c-17.671875 0-32-14.328125-32-32h32zm0 0" fill="#e59730"/><path d="m232 224v40c0 22.089844 17.910156 40 40 40s40-17.910156 40-40v-40zm0 0" fill="#fcbc04"/><path d="m232 224v40c.066406 4.417969.851562 8.792969 2.320312 12.960938 7.054688 1.992187 14.347657 3.015624 21.679688 3.039062 20.941406-.003906 41.046875-8.21875 56-22.878906v-33.121094zm0 0" fill="#e59730"/><path d="m192 136h160v40c0 44.183594-35.816406 80-80 80s-80-35.816406-80-80zm0 0" fill="#f9e109"/><path d="m224 173.28125c0-7.335938 5.945312-13.28125 13.28125-13.28125h114.71875v-24h-160v40c0 44.183594 35.816406 80 80 80 5.378906 0 10.738281-.5625 16-1.679688-37.730469-8.609374-64.367188-42.339843-64-81.039062zm0 0" fill="#fcbc04"/><path d="m168 104c0-57.4375 46.5625-104 104-104s104 46.5625 104 104zm0 0" fill="#a1d51c"/><path d="m336 72c-35.347656 0-64-28.652344-64-64v-8c-57.4375 0-104 46.5625-104 104h208c-.023438-10.863281-1.722656-21.65625-5.039062-32zm0 0" fill="#7ab92d"/><path d="m159.519531 104h224.960938c4.152343 0 7.519531 3.367188 7.519531 7.519531v16.960938c0 4.152343-3.367188 7.519531-7.519531 7.519531h-224.960938c-4.152343 0-7.519531-3.367188-7.519531-7.519531v-16.960938c0-4.152343 3.367188-7.519531 7.519531-7.519531zm0 0" fill="#a1d51c"/><path d="m176 104h208c4.417969 0 8 3.582031 8 8v8h-200c-8.835938 0-16-7.164062-16-16zm0 0" fill="#c4f236"/><path d="m288 32c-8.835938 0-16 7.164062-16 16s7.164062 16 16 16h80c-4.972656-11.878906-12.105469-22.726562-21.039062-32zm0 0" fill="#c4f236"/><path d="m288 64h17.039062c-11.699218-6.484375-21.070312-16.472656-26.800781-28.558594-3.898437 3.003906-6.203125 7.636719-6.238281 12.558594 0 8.835938 7.164062 16 16 16zm0 0" fill="#a1d51c"/><path d="m240 88c0-8.835938-7.164062-16-16-16h-50.960938c-3.316406 10.34375-5.015624 21.136719-5.039062 32h56c8.835938 0 16-7.164062 16-16zm0 0" fill="#a1d51c"/><path d="m248 24c0-8.835938-7.164062-16-16-16-16.460938 6.898438-30.871094 17.917969-41.839844 32h41.839844c8.835938 0 16-7.164062 16-16zm0 0" fill="#a1d51c"/><path d="m344 256v80h-144v-80h-48v208h240v-208zm0 0" fill="#fcbc04"/><path d="m288 424c-48.601562 0-88-39.398438-88-88v-80h-48v208h240v-40zm0 0" fill="#e59730"/><path d="m296 384h64v80h-64zm0 0" fill="#f9e109"/><path d="m184 384h64v80h-64zm0 0" fill="#f9e109"/><path d="m152 296h48v40h-48zm0 0" fill="#fcbc04"/><path d="m344 296h48v40h-48zm0 0" fill="#f9e109"/><path d="m296 424h64v40h-64zm0 0" fill="#fcbc04"/><path d="m214.320312 384h-30.320312v80h64v-49.679688c-13.667969-7.011718-25.277344-17.460937-33.679688-30.320312zm0 0" fill="#fcbc04"/><path d="m184 384h64v32h-64zm0 0" fill="#c4f236"/><path d="m248 414.320312c-13.667969-7.011718-25.277344-17.460937-33.679688-30.320312h-30.320312v32h64zm0 0" fill="#a1d51c"/><path d="m320 176c0 4.417969-3.582031 8-8 8s-8-3.582031-8-8 3.582031-8 8-8 8 3.582031 8 8zm0 0" fill="#4891d3"/><path d="m240 176c0 4.417969-3.582031 8-8 8s-8-3.582031-8-8 3.582031-8 8-8 8 3.582031 8 8zm0 0" fill="#4891d3"/><path d="m336 416c0 4.417969-3.582031 8-8 8s-8-3.582031-8-8 3.582031-8 8-8 8 3.582031 8 8zm0 0" fill="#a1d51c"/><path d="m0 232h56v128h-56zm0 0" fill="#4891d3"/><path d="m80 464h-80v-104h56l24 72zm0 0" fill="#f9e109"/><path d="m64 416c-17.671875 0-32-14.328125-32-32v-24h-32v104h80v-32l-5.359375-16zm0 0" fill="#fcbc04"/><path d="m56 312h64v48h-64zm0 0" fill="#f9e109"/><path d="m0 120h32v112h-32zm0 0" fill="#57b7eb"/><path d="m120 248-16-27.679688-20.320312 11.679688h-27.679688v32h36.320312zm0 0" fill="#f9e109"/><path d="m0 432h80v32h-80zm0 0" fill="#57b7eb"/><path d="m16 120h16v88c-8.835938 0-16-7.164062-16-16zm0 0" fill="#aae1f9"/><path d="m92.320312 248h-4.320312c-8.835938 0-16-7.164062-16-16h-16v32h36.320312l27.679688-16-6.960938-12zm0 0" fill="#fcbc04"/><path d="m72 312h-16v48h64v-16h-16c-17.671875 0-32-14.328125-32-32zm0 0" fill="#fcbc04"/><path d="m32 232h24v112c-13.253906 0-24-10.746094-24-24zm0 0" fill="#57b7eb"/><path d="m0 264h24c4.417969 0 8 3.582031 8 8s-3.582031 8-8 8h-24zm0 0" fill="#aae1f9"/><path d="m0 320h24c4.417969 0 8 3.582031 8 8s-3.582031 8-8 8h-24zm0 0" fill="#aae1f9"/></svg>