<?xml version="1.0"?>
<svg xmlns="http://www.w3.org/2000/svg" id="Outline" viewBox="0 0 512 512" width="512" height="512"><path d="M272,80h32a8,8,0,0,0,0-16H272a8,8,0,0,0,0,16Z"/><path d="M144,352H448a8,8,0,0,0,7.832-6.368l40-192A8,8,0,0,0,488,144H468.944L452.31,110.732A7.985,7.985,0,0,0,456,104V88a24.027,24.027,0,0,0-24-24H416a24.027,24.027,0,0,0-24,24v16a7.985,7.985,0,0,0,3.69,6.732L379.056,144H376V40a8,8,0,0,0-8-8H240a8,8,0,0,0-8,8V76.707a34.664,34.664,0,0,0-34.313,5.324,44.993,44.993,0,0,0-80.164,18.261,34.283,34.283,0,0,0-20.671,8.4L87.787,70.167A8,8,0,0,0,80,64H24a8,8,0,0,0,0,16H73.664l60.593,257.521A32.054,32.054,0,0,0,112,368v16a32.036,32.036,0,0,0,32,32h.022a40,40,0,1,0,63.956,0H368.022a40,40,0,1,0,63.956,0H464a8,8,0,0,0,0-16H144a16.019,16.019,0,0,1-16-16V368A16.019,16.019,0,0,1,144,352Zm53.062-96h55.264l1.334,32h-52.6Zm-12.124,32H161.081l20.745-24.895Zm65.388-80,1.334,32H230.777l-5.333-32Zm-19.378-16,17.611-26.417L249.66,192Zm169.99,16-4,32H349.626l37.334-32Zm15.751,2.988L451.5,240H413.062ZM304,256l-34.579,25.935L268.34,256Zm19.434,5.425L322.326,288H288ZM339.674,256h19.632l-2.667,32h-18.3Zm35.687,0h19.577l-4,32H372.694Zm-34.454-29.6.767-18.4h20.7ZM324.326,240h-22.56L291.1,208H325.66Zm-50.092-32L284.9,240H267.674l-1.334-32ZM216,304v32h-8.938l-4-32Zm16,0h22.326l1.334,32H232Zm38.34,0h51.32l-1.334,32H271.674Zm67.334,0h17.632l-2.667,32h-16.3Zm33.687,0h17.577l-4,32H368.694Zm33.578.981L429.755,336H401.062ZM407.062,288l4-32h47.1L451.5,288ZM438.1,208h30.065l-4.448,21.348ZM392,192V160h14.938l-4,32Zm-16,0H342.34l1.334-32H376Zm-49.674,0H265.674l-1.334-32h63.32Zm-93.274-32-21.333,32H189.062l-4-32Zm-23.829,48,5.333,32H195.062l-4-32Zm-30.285,32H128v1.072L120.218,208h54.72Zm-12.019,16-26.666,32h-1.211l-7.53-32Zm20.019,48,4,32h-40.6l-7.529-32ZM443.3,327.322,424.645,304h23.517ZM471.5,192H419.062l4-32h55.1ZM408,88a8.009,8.009,0,0,1,8-8h16a8.009,8.009,0,0,1,8,8v8H408Zm4.944,24h22.112l16,32H396.944ZM360,144H344V48h16ZM328,48v96H248V48ZM101.487,128.392a7.948,7.948,0,0,0,1.652-2.187,18.237,18.237,0,0,1,16.4-9.97,18.809,18.809,0,0,1,3.7.366,8,8,0,0,0,9.57-7.956l-.012-.41C132.8,92.667,145.72,80,161.6,80a28.836,28.836,0,0,1,27.133,18.755,8,8,0,0,0,14.544,1.093A18.518,18.518,0,0,1,232,95.256V144H105.16ZM168.938,160l4,32H116.454l-7.53-32ZM200,440a24,24,0,1,1-24-24A24.028,24.028,0,0,1,200,440Zm224,0a24,24,0,1,1-24-24A24.028,24.028,0,0,1,424,440Z"/><circle cx="176" cy="440" r="8"/><circle cx="400" cy="440" r="8"/></svg>
