<svg id="Flat" height="512" viewBox="0 0 512 512" width="512" xmlns="http://www.w3.org/2000/svg"><path d="m488 152-40 192h-304l-40-192z" fill="#ea9f26"/><path d="m384 200-120 96v48h128l16-144z" fill="#2d85cc"/><path d="m448 344h-88l4.59-55.08 35.41 7.08z" fill="#eb423f"/><path d="m464 152h-80l24-48h32z" fill="#ffd33a"/><path d="m488 152-20 96h-4v-96z" fill="none"/><path d="m464 152v96h-56v-48h-24v-48z" fill="#ffd33a"/><path d="m464 248v-8l-56-40-8 48h-32l-8 96h88l20-96z" fill="#248256"/><path d="m416 72h16a16 16 0 0 1 16 16v16a0 0 0 0 1 0 0h-48a0 0 0 0 1 0 0v-16a16 16 0 0 1 16-16z" fill="#ea9f26"/><path d="m224 296v48h-80l-10-48z" fill="#996046"/><path d="m256 128v72h-144l-15.043-79.167.551-.833a26.366 26.366 0 0 1 22.035-11.765 26.812 26.812 0 0 1 5.27.521c0-.174-.013-.346-.013-.521 0-20.012 16.476-36.235 36.8-36.235a36.78 36.78 0 0 1 34.651 24.022 26.362 26.362 0 0 1 49.463 12.213 25.523 25.523 0 0 1 -5.76 16.161 26.712 26.712 0 0 1 5.76-.631z" fill="#35a872"/><path d="m240 40h128v112h-128z" fill="#c48669"/><path d="m240 40h96v112h-96z" fill="#d49073"/><path d="m304 80h-32a8 8 0 0 1 0-16h32a8 8 0 0 1 0 16z" fill="#996046"/><path d="m256 200h-40l8 48h-40l-40 48h-10l-30-144h152z" fill="#248256"/><path d="m464 416h-320a32.036 32.036 0 0 1 -32-32v-16a32.036 32.036 0 0 1 32-32h8a8 8 0 0 1 0 16h-8a16.019 16.019 0 0 0 -16 16v16a16.019 16.019 0 0 0 16 16h320a8 8 0 0 1 0 16z" fill="#d0d2d4"/><circle cx="176" cy="432" fill="#7e8589" r="32"/><circle cx="400" cy="432" fill="#7e8589" r="32"/><circle cx="176" cy="432" fill="#414649" r="8"/><circle cx="400" cy="432" fill="#414649" r="8"/><path d="m296 248-16-48h-24v-48h128v48l-56 48z" fill="#eb423f"/><path d="m494.207 146.953a8 8 0 0 0 -6.207-2.953h-382.841l-17.372-73.833a8 8 0 0 0 -7.787-6.167h-56a8 8 0 0 0 0 16h49.664l62.549 265.833a8 8 0 0 0 7.787 6.167h304a8 8 0 0 0 7.832-6.368l40-192a8 8 0 0 0 -1.625-6.679zm-150.534 13.047h63.264l-4 32h-60.6zm-95.347 0 1.333 32h-60.6l-4-32zm-139.4 0h60.013l4 32h-56.485zm11.294 48h54.719l4 32h-51.191zm11.294 48h49.425l4 32h-45.9zm18.824 80-7.53-32h44.131l4 32zm40.726-128h59.264l1.333 32h-56.6zm6 48h55.264l1.333 32h-52.6zm10 80-4-32h51.264l1.333 32zm113.264 0h-48.655l-1.333-32h51.319zm2-48h-52.655l-1.333-32h55.319zm2-48h-56.655l-1.333-32h59.319zm2-48h-60.655l-1.333-32h63.319zm58.611 144h-48.6l1.333-32h51.264zm6-48h-52.6l1.333-32h55.264zm6-48h-56.6l1.333-32h59.264zm44.561 96h-40.438l4-32h43.1zm10-48h-44.438l4-32h47.1zm10-48h-48.438l4-32h51.1zm10-48h-52.438l4-32h55.1z" fill="#d0d2d4"/></svg>