<?xml version="1.0"?>
<svg width="220" height="210" viewBox="0 0 220 210" xmlns="http://www.w3.org/2000/svg" xmlns:xlink="http://www.w3.org/1999/xlink">
<defs>
<linearGradient id="a" gradientUnits="userSpaceOnUse">
<stop stop-color="#333" offset="0"/>
<stop stop-color="#eee" offset=".5"/>
<stop stop-color="#444" offset="1"/>
</linearGradient>
<linearGradient id="b" x1="345.9" x2="276.8" y1="606.9" y2="471.4" xlink:href="#a"/>
<linearGradient id="c" x1="-12.77" x2="203.3" y1="403.7" y2="537.5" xlink:href="#a"/>
<linearGradient id="d" x1="300.8" x2="400.5" y1="429.5" y2="436" gradientTransform="matrix(.9682 3.263 -3.263 .9682 1398 -1250)" xlink:href="#a"/>
<linearGradient id="e" x1="405.8" x2="453.8" y1="353.4" y2="460.6" xlink:href="#a"/>
<linearGradient id="f" x1="374.8" x2="462" y1="459.2" y2="676.6" xlink:href="#a"/>
<radialGradient id="g" cx="364.8" cy="544.5" r="156.1" gradientTransform="matrix(1.335 0 0 1.892 -93.01 -499)" gradientUnits="userSpaceOnUse">
<stop stop-color="#999" offset="0"/>
<stop stop-color="#eee" offset="1"/>
</radialGradient>
</defs>
<g transform="matrix(.35 0 0 .35 -17.05 -51.58)">
<path d="m288.2 379.1 74.86-228.1 76.42 227.7 235.9-.9-193.1 139.6 71.69 225.6-190.9-138.7-190.9 138.7 71.69-225.6-193.1-140.3z" fill="url(#g)"/>
<path d="m363.1 604.4-190.9 138.7 190.9-264.2z" fill="url(#b)"/>
<path d="m363.1 478.9-119.2 38.6-193.1-140.3z" fill="url(#c)"/>
<path d="m363.1 478.9-74.86-99.76 74.86-228.1z" fill="url(#d)"/>
<path d="m439.5 378.8 235.9-.9-312.3 101z" fill="url(#e)"/>
<path d="m482.3 517.5 71.69 225.6-190.9-264.2z" fill="url(#f)"/>
</g>
</svg>
