<?xml version="1.0" encoding="UTF-8" standalone="no" ?>
<!DOCTYPE svg PUBLIC "-//W3C//DTD SVG 1.1//EN" "http://www.w3.org/Graphics/SVG/1.1/DTD/svg11.dtd">
<svg xmlns="http://www.w3.org/2000/svg" xmlns:xlink="http://www.w3.org/1999/xlink" version="1.1" width="720" height="720" viewBox="0 0 720 720" xml:space="preserve">
<desc>Created with Fabric.js 4.2.0</desc>
<defs>
</defs>
<rect x="0" y="0" width="100%" height="100%" fill="transparent"></rect>
<g transform="matrix(1 0 0 1 360 360)" id="088ff5e9-cec8-4b99-9d85-4d7f1d684ffe"  >
<rect style="stroke: none; stroke-width: 1; stroke-dasharray: none; stroke-linecap: butt; stroke-dashoffset: 0; stroke-linejoin: miter; stroke-miterlimit: 4; fill: rgb(255,255,255); fill-opacity: 0; fill-rule: nonzero; opacity: 1;" vector-effect="non-scaling-stroke"  x="-360" y="-360" rx="0" ry="0" width="720" height="720" />
</g>
<g transform="matrix(Infinity NaN NaN Infinity 0 0)" id="10e72e25-f349-42f5-adff-9246252ebd1e"  >
</g>
<g transform="matrix(1.35 0 0 1.35 359.54 359.52)"  >
<g style="" vector-effect="non-scaling-stroke"   >
		<g transform="matrix(1 0 0 1 54.44 -88)"  >
<path style="stroke: none; stroke-width: 1; stroke-dasharray: none; stroke-linecap: butt; stroke-dashoffset: 0; stroke-linejoin: miter; stroke-miterlimit: 4; fill: rgb(121,101,139); fill-rule: nonzero; opacity: 1;" vector-effect="non-scaling-stroke"  transform=" translate(-310.44, -168)" d="M 451.832 34.092 C 448.568 31.113999999999997 443.51 31.342 440.529 34.606 C 439.298 35.954 332.548 152.405 229.317 231.759 L 175.56900000000002 224.081 C 171.186 223.452 167.14200000000002 226.49499999999998 166.51700000000002 230.869 C 165.89200000000002 235.24300000000002 168.93200000000002 239.295 173.30500000000004 239.92 L 211.18100000000004 245.331 C 201.40000000000003 252.441 191.70700000000005 259.14099999999996 182.20200000000006 265.28 C 178.49000000000007 267.67699999999996 177.42500000000007 272.62899999999996 179.82100000000005 276.34099999999995 C 181.35100000000006 278.71099999999996 183.92400000000006 280.00199999999995 186.55000000000007 280.00199999999995 C 188.03600000000006 280.00199999999995 189.54000000000008 279.58799999999997 190.88200000000006 278.722 C 199.12100000000007 273.402 207.49600000000007 267.66499999999996 215.94100000000006 261.61899999999997 L 206.74500000000006 293.804 C 205.53100000000006 298.05199999999996 207.99100000000007 302.47999999999996 212.23900000000006 303.69399999999996 C 212.97400000000007 303.90299999999996 213.71400000000006 304.00399999999996 214.44100000000006 304.00399999999996 C 217.92200000000005 304.00399999999996 221.12600000000006 301.71299999999997 222.12900000000005 298.2 L 237.04800000000006 245.98199999999997 C 342.20000000000005 165.563 451.09600000000006 46.76199999999997 452.34600000000006 45.39399999999998 C 455.324 42.131 455.095 37.071 451.832 34.092 z" stroke-linecap="round" />
</g>
		<g transform="matrix(1 0 0 1 -85.56 -128)"  >
<path style="stroke: none; stroke-width: 1; stroke-dasharray: none; stroke-linecap: butt; stroke-dashoffset: 0; stroke-linejoin: miter; stroke-miterlimit: 4; fill: rgb(121,101,139); fill-rule: nonzero; opacity: 1;" vector-effect="non-scaling-stroke"  transform=" translate(-170.44, -128)" d="M 309.685 36.613 C 307.815 32.61 303.056 30.883 299.051 32.752 C 298.603 32.961000000000006 253.63299999999998 54.053 201.57099999999997 85.286 C 158.24499999999998 111.278 122.94599999999997 136.31799999999998 95.96599999999997 160.15 C 94.74499999999996 159.912 93.46899999999997 159.95600000000002 92.23899999999996 160.30700000000002 L 36.23899999999996 176.30700000000002 C 31.99099999999996 177.52100000000002 29.530999999999963 181.949 30.744999999999962 186.197 C 31.95899999999996 190.446 36.38899999999996 192.904 40.63599999999996 191.692 L 72.74899999999997 182.517 C 66.14399999999996 189.546 60.322999999999965 196.45499999999998 55.297999999999966 203.237 C 52.667999999999964 206.787 53.41299999999997 211.797 56.962999999999965 214.428 C 58.39499999999997 215.489 60.063999999999965 216.001 61.71999999999996 216.001 C 64.16699999999996 216.001 66.58399999999996 214.881 68.15399999999997 212.764 C 73.45199999999997 205.615 79.61099999999996 198.465 86.43799999999996 191.369 L 86.43799999999996 216 C 86.43799999999996 220.418 90.01999999999995 224 94.43799999999996 224 C 98.85599999999997 224 102.43799999999996 220.418 102.43799999999996 216 L 102.43799999999996 175.89 C 177.861 107.504 304.33 47.946 305.825 47.247 C 309.827 45.377 311.556 40.616 309.685 36.613 z" stroke-linecap="round" />
</g>
		<g transform="matrix(1 0 0 1 -199.88 -6.61)"  >
<path style="stroke: none; stroke-width: 1; stroke-dasharray: none; stroke-linecap: butt; stroke-dashoffset: 0; stroke-linejoin: miter; stroke-miterlimit: 4; fill: rgb(197,163,200); fill-rule: nonzero; opacity: 1;" vector-effect="non-scaling-stroke"  transform=" translate(-56.12, -249.39)" d="M 86.437 320 C 46.437 312 -22.061000000000007 258.619 26.070999999999998 182.55 C 28.403999999999996 178.86200000000002 33.233999999999995 177.679 36.977 179.924 L 98.793 217.013 C 103.786 220.00900000000001 104.025 227.177 99.215 230.459 C 83.317 241.305 46.437 288 86.437 320 z" stroke-linecap="round" />
</g>
		<g transform="matrix(1 0 0 1 -113.22 22.8)"  >
<path style="stroke: none; stroke-width: 1; stroke-dasharray: none; stroke-linecap: butt; stroke-dashoffset: 0; stroke-linejoin: miter; stroke-miterlimit: 4; fill: rgb(153,95,159); fill-rule: nonzero; opacity: 1;" vector-effect="non-scaling-stroke"  transform=" translate(-142.78, -278.8)" d="M 176.223 230.678 L 224.64700000000002 303.31399999999996 C 227.621 307.77599999999995 225.45600000000002 313.85699999999997 220.32200000000003 315.405 C 196.13100000000003 322.698 125.77100000000003 348.33399999999995 59.571000000000026 309.597 C 126.63000000000002 292.832 153.61700000000002 255.04999999999998 162.06500000000003 232.34299999999996 C 164.345 226.213 172.595 225.236 176.223 230.678 z" stroke-linecap="round" />
</g>
		<g transform="matrix(1 0 0 1 122.44 0)"  >
<path style="stroke: none; stroke-width: 1; stroke-dasharray: none; stroke-linecap: butt; stroke-dashoffset: 0; stroke-linejoin: miter; stroke-miterlimit: 4; fill: rgb(246,192,83); fill-rule: nonzero; opacity: 1;" vector-effect="non-scaling-stroke"  transform=" translate(-378.44, -256)" d="M 492.258 2.512 C 490.747 0.909 488.641 0 486.438 0 L 428.77 0 C 424.375 0 420.71299999999997 3.708 420.77099999999996 8.104 L 422.412 134.11 L 373.82899999999995 228.467 L 340.69699999999995 142.324 L 334.42699999999996 15.604000000000013 C 334.217 11.345000000000013 330.70199999999994 8.000000000000014 326.43699999999995 8.000000000000014 L 270.43699999999995 8.000000000000014 C 265.9 8.000000000000014 262.18499999999995 11.941000000000013 262.45099999999996 16.470000000000013 L 270.45099999999996 152.47000000000003 C 270.508 153.42900000000003 270.736 154.37100000000004 271.12699999999995 155.24900000000002 L 334.76699999999994 298.438 L 350.37799999999993 376.49199999999996 L 340.79299999999995 503.39699999999993 C 340.44899999999996 507.9719999999999 344.18199999999996 511.99999999999994 348.77099999999996 511.99999999999994 L 398.438 511.99999999999994 C 402.635 511.99999999999994 406.11899999999997 508.7559999999999 406.417 504.56999999999994 L 414.417 392.56999999999994 C 414.465 391.90099999999995 414.429 391.2289999999999 414.30899999999997 390.56899999999996 L 398.81699999999995 305.36499999999995 L 485.448 147.85499999999996 C 486.02099999999996 146.81299999999996 486.354 145.65599999999995 486.42499999999995 144.46899999999997 L 494.42499999999995 8.468999999999966 C 494.553 6.27 493.77 4.115 492.258 2.512 z" stroke-linecap="round" />
</g>
		<g transform="matrix(1 0 0 1 62.38 4)"  >
<path style="stroke: none; stroke-width: 1; stroke-dasharray: none; stroke-linecap: butt; stroke-dashoffset: 0; stroke-linejoin: miter; stroke-miterlimit: 4; fill: rgb(245,180,49); fill-rule: nonzero; opacity: 1;" vector-effect="non-scaling-stroke"  transform=" translate(-318.38, -260)" d="M 364.793 503.397 L 374.295 377.587 C 374.35 376.86 374.305 376.13 374.16200000000003 375.416 L 358.94000000000005 299.308 C 358.82400000000007 298.73 358.64500000000004 298.167 358.40600000000006 297.628 L 295.12700000000007 155.249 C 294.73600000000005 154.371 294.50800000000004 153.429 294.4510000000001 152.47 L 286.4510000000001 16.47 C 286.186 11.941 289.9 8 294.438 8 L 270.438 8 C 265.901 8 262.186 11.940999999999999 262.452 16.47 L 270.452 152.47 C 270.509 153.429 270.737 154.371 271.128 155.249 L 334.768 298.438 L 350.37899999999996 376.49199999999996 L 340.794 503.39699999999993 C 340.45 507.9719999999999 344.183 511.99999999999994 348.772 511.99999999999994 L 372.772 511.99999999999994 C 368.182 512 364.449 507.972 364.793 503.397 z" stroke-linecap="round" />
</g>
		<g transform="matrix(1 0 0 1 158.08 -141.94)"  >
<path style="stroke: none; stroke-width: 1; stroke-dasharray: none; stroke-linecap: butt; stroke-dashoffset: 0; stroke-linejoin: miter; stroke-miterlimit: 4; fill: rgb(245,180,49); fill-rule: nonzero; opacity: 1;" vector-effect="non-scaling-stroke"  transform=" translate(-414.08, -114.06)" d="M 375.387 225.441 L 395.03 228.09 C 396.70799999999997 228.316 398.34599999999995 227.46200000000002 399.121 225.957 L 446.411 134.11 L 444.771 8.104000000000013 C 444.714 3.708 448.375 0 452.77 0 L 428.77 0 C 424.37399999999997 0 420.71299999999997 3.708 420.77099999999996 8.104 L 422.412 134.11 L 375.387 225.441 z" stroke-linecap="round" />
</g>
		<g transform="matrix(1 0 0 1 46.44 -200)"  >
<circle style="stroke: none; stroke-width: 1; stroke-dasharray: none; stroke-linecap: butt; stroke-dashoffset: 0; stroke-linejoin: miter; stroke-miterlimit: 4; fill: rgb(237,109,74); fill-rule: nonzero; opacity: 1;" vector-effect="non-scaling-stroke"  cx="0" cy="0" r="16" />
</g>
		<g transform="matrix(1 0 0 1 198.94 -208)"  >
<circle style="stroke: none; stroke-width: 1; stroke-dasharray: none; stroke-linecap: butt; stroke-dashoffset: 0; stroke-linejoin: miter; stroke-miterlimit: 4; fill: rgb(237,109,74); fill-rule: nonzero; opacity: 1;" vector-effect="non-scaling-stroke"  cx="0" cy="0" r="15.5" />
</g>
		<g transform="matrix(1 0 0 1 46.15 -173.34)"  >
<path style="stroke: none; stroke-width: 1; stroke-dasharray: none; stroke-linecap: butt; stroke-dashoffset: 0; stroke-linejoin: miter; stroke-miterlimit: 4; fill: rgb(121,101,139); fill-rule: nonzero; opacity: 1;" vector-effect="non-scaling-stroke"  transform=" translate(-302.15, -82.66)" d="M 261.853 101.332 C 258.31100000000004 101.332 255.074 98.96199999999999 254.124 95.377 C 252.993 91.106 255.539 86.72699999999999 259.811 85.59599999999999 L 340.39 64.26599999999999 C 344.662 63.13399999999999 349.03999999999996 65.68199999999999 350.16999999999996 69.952 C 351.30099999999993 74.223 348.75499999999994 78.602 344.48299999999995 79.733 L 263.90399999999994 101.063 C 263.22 101.245 262.53 101.332 261.853 101.332 z" stroke-linecap="round" />
</g>
		<g transform="matrix(1 0 0 1 45.27 -147.33)"  >
<path style="stroke: none; stroke-width: 1; stroke-dasharray: none; stroke-linecap: butt; stroke-dashoffset: 0; stroke-linejoin: miter; stroke-miterlimit: 4; fill: rgb(121,101,139); fill-rule: nonzero; opacity: 1;" vector-effect="non-scaling-stroke"  transform=" translate(-301.27, -108.67)" d="M 262.429 119.667 C 258.28999999999996 119.667 254.78499999999997 116.479 254.46099999999998 112.283 C 254.12099999999998 107.878 257.416 104.031 261.82099999999997 103.691 L 339.48799999999994 97.691 C 343.8879999999999 97.351 347.73999999999995 100.645 348.08099999999996 105.051 C 348.42099999999994 109.456 345.126 113.303 340.72099999999995 113.643 L 263.054 119.643 C 262.845 119.659 262.636 119.667 262.429 119.667 z" stroke-linecap="round" />
</g>
		<g transform="matrix(1 0 0 1 198.44 -156.5)"  >
<path style="stroke: none; stroke-width: 1; stroke-dasharray: none; stroke-linecap: butt; stroke-dashoffset: 0; stroke-linejoin: miter; stroke-miterlimit: 4; fill: rgb(121,101,139); fill-rule: nonzero; opacity: 1;" vector-effect="non-scaling-stroke"  transform=" translate(-454.44, -99.5)" d="M 415.428 112.001 C 411.419 112.001 407.961 108.995 407.49 104.917 C 406.983 100.528 410.132 96.559 414.52 96.053 L 492.52 87.053 C 496.92499999999995 86.547 500.878 89.695 501.38399999999996 94.083 C 501.89099999999996 98.472 498.74199999999996 102.441 494.354 102.947 L 416.354 111.947 C 416.043 111.983 415.733 112.001 415.428 112.001 z" stroke-linecap="round" />
</g>
		<g transform="matrix(1 0 0 1 199.1 -131)"  >
<path style="stroke: none; stroke-width: 1; stroke-dasharray: none; stroke-linecap: butt; stroke-dashoffset: 0; stroke-linejoin: miter; stroke-miterlimit: 4; fill: rgb(121,101,139); fill-rule: nonzero; opacity: 1;" vector-effect="non-scaling-stroke"  transform=" translate(-455.1, -125)" d="M 494.447 136.667 C 494.198 136.667 493.947 136.656 493.695 136.632 L 415.028 129.299 C 410.629 128.889 407.394 124.99000000000001 407.80400000000003 120.59100000000001 C 408.21400000000006 116.19200000000001 412.13800000000003 112.95700000000001 416.51200000000006 113.36800000000001 L 495.1790000000001 120.70100000000001 C 499.5780000000001 121.111 502.8130000000001 125.01 502.4030000000001 129.40900000000002 C 502.017 133.556 498.53 136.667 494.447 136.667 z" stroke-linecap="round" />
</g>
</g>
</g>
<g transform="matrix(3.61 0 0 3.61 624 600.86)" style="filter: url(#SVGID_1015);" id="f42727bd-bc40-4e3b-832d-5e77afda711c"  >
<filter id="SVGID_1015" y="-30%" height="160%" x="-33%" width="166%" >
	<feGaussianBlur in="SourceAlpha" stdDeviation="3"></feGaussianBlur>
	<feOffset dx="0" dy="0" result="oBlur" ></feOffset>
	<feFlood flood-color="rgb(0,0,0)" flood-opacity="1"/>
	<feComposite in2="oBlur" operator="in" />
	<feMerge>
		<feMergeNode></feMergeNode>
		<feMergeNode in="SourceGraphic"></feMergeNode>
	</feMerge>
</filter>
		<text xml:space="preserve" font-family="Lato" font-size="51" font-style="normal" font-weight="400" style="stroke: none; stroke-width: 1; stroke-dasharray: none; stroke-linecap: butt; stroke-dashoffset: 0; stroke-linejoin: miter; stroke-miterlimit: 4; fill: rgb(0,204,0); fill-rule: nonzero; opacity: 1; white-space: pre;" ><tspan x="-19.28" y="16.02" >H</tspan></text>
</g>
</svg>