<svg height="512" viewBox="0 0 512 512" width="512" xmlns="http://www.w3.org/2000/svg"><path d="m392 276v60h-144v-61.87l32-2.13v-48h80v48z" fill="#fec9a3"/><path d="m360 251.856v-27.856h-80v27.856a71.963 71.963 0 0 0 80 0z" fill="#feb784"/><path d="m400 128h-8v48h8a24 24 0 1 0 0-48z" fill="#feb784"/><path d="m240.4 128h-.4a24 24 0 0 0 0 48h8v-48z" fill="#feb784"/><path d="m320 248a72 72 0 0 1 -72-72v-56a72 72 0 0 1 72-72 72 72 0 0 1 72 72v56a72 72 0 0 1 -72 72z" fill="#fec9a3"/><path d="m320 48a72.045 72.045 0 0 0 -16 1.846 71.983 71.983 0 0 1 56 70.154v56a71.983 71.983 0 0 1 -56 70.154 71.82 71.82 0 0 0 88-70.154v-56a72 72 0 0 0 -72-72z" fill="#fec093"/><path d="m392 120c0-.426-.057-.839-.064-1.264h-143.872c-.007.425-.064.838-.064 1.264v27.173a23.884 23.884 0 0 0 18.5 4.48l21.936-3.653a192 192 0 0 1 63.128 0l21.941 3.656a23.884 23.884 0 0 0 18.5-4.48v-27.176z" fill="#fec093"/><path d="m285.8 89.16a174.4 174.4 0 0 0 68.4 0l5.8-1.16 32 32a72 72 0 0 0 -144 0l32-32z" fill="#95573a"/><circle cx="284" cy="147.996" fill="#7a432a" r="12"/><circle cx="356" cy="147.996" fill="#7a432a" r="12"/><path d="m344 187.44-2.32-7.655a99.084 99.084 0 0 1 -28.746 4.215h-16.934v16h16.934a115.083 115.083 0 0 0 33.386-4.9z" fill="#f7a468"/><path d="m488 337.44v158.56h-272v-144l-8.11 8-116.48 114.96a38.52 38.52 0 0 1 -59.9-48.33l104.53-119.29a92.178 92.178 0 0 1 60.13-30.96l35.83-4.38-8-40h56v40l40 32 40-32v-40h56l-8 40 30.75 9c10.5 2.75 20.69 6.55 28.59 12.99a56.046 56.046 0 0 1 9.58 10.01 55.916 55.916 0 0 1 11.08 33.44z" fill="#c2a667"/><path d="m488 337.44v158.56h-207.72c67.11-29.2 147.47-87.22 187.06-202.01a55.965 55.965 0 0 1 20.66 43.45z" fill="#ba9f63"/><path d="m376 416h16v64h-16z" fill="#ab925b"/><path d="m216 384h80v16h-80z" fill="#ab925b"/><path d="m344 384h72v16h-72z" fill="#ab925b"/><path d="m80 24h32v232h-32z" fill="#e0e0de"/><path d="m96 24h16v232h-16z" fill="#d6d6d4"/><path d="m144 304h-24v-16h20.687l11.313-11.312v-17.488a3.2 3.2 0 0 0 -3.2-3.2h-28.8v-16h28.8a19.221 19.221 0 0 1 19.2 19.2v20.8a8 8 0 0 1 -2.344 5.656l-16 16a8 8 0 0 1 -5.656 2.344z" fill="#e0e0de"/><path d="m120 288v16h21.341l-.89-16z" fill="#d6d6d4"/><path d="m120 256h18.671l-.891-16h-17.78z" fill="#d6d6d4"/><path d="m104 488h80v-32h-84.571z" fill="#d6d6d4"/><path d="m152 352v-24a26.813 26.813 0 0 1 -26.65-23.854l-5.35-96.146h-40v72l16.561 74.218a20.908 20.908 0 0 1 -8.561 21.782l11.429 80h84.571l-48-96z" fill="#95573a"/><path d="m144 456h40v32h-40z" fill="#c7c7c5"/><path d="m24 288h56a16 16 0 0 1 16 16v48a16 16 0 0 1 -16 16h-56a0 0 0 0 1 0 0v-80a0 0 0 0 1 0 0z" fill="#fec9a3"/><path d="m80 288h-32a16 16 0 0 1 16 16v48a16 16 0 0 1 -16 16h32a16 16 0 0 0 16-16v-48a16 16 0 0 0 -16-16z" fill="#fec093"/><path d="m88 368h-64v40h69.333z" fill="#d4bd81"/><path d="m93.333 408h-69.333v48a32 32 0 0 0 32 32h48z" fill="#c2a667"/><g fill="#d4bd81"><path d="m64 440h16v16h-16z"/><path d="m24 440h24v16h-24z"/><path d="m184 296h16v16h-16z"/><path d="m216 296h48v16h-48z"/><path d="m240 352h16v16h-16z"/><path d="m272 352h48v16h-48z"/><path d="m240 424h48v16h-48z"/><path d="m264 456h32v16h-32z"/><path d="m344 336h48v16h-48z"/><path d="m408 304h16v16h-16z"/><path d="m448 368h16v16h-16z"/><path d="m448 408h40v16h-40z"/><path d="m424 448h24v16h-24z"/><path d="m485.22 320h-45.22v-16h36.92a55.483 55.483 0 0 1 8.3 16z"/><path d="m216 344h-40v16h31.894l8.106-8z"/><path d="m320 424h24v16h-24z"/></g><path d="m416 352h16v144h-16z" fill="#ab925b"/><path d="m248.001 262.059h15.998v67.882h-15.998z" fill="#ab925b" transform="matrix(.707 -.707 .707 .707 -134.323 267.716)"/><path d="m350.059 288.001h67.882v15.998h-67.882z" fill="#ab925b" transform="matrix(.707 -.707 .707 .707 -96.833 358.225)"/><path d="m312 304h16v192h-16z" fill="#ab925b"/><path d="m401.77 113.06a24.289 24.289 0 0 1 -28.27 23.86l-21.94-3.66c-4.4-.73-8.83-1.31-13.26-1.73a191.477 191.477 0 0 0 -49.86 1.73l-21.94 3.66a24.247 24.247 0 0 1 -26.5-32.92h160a24.361 24.361 0 0 1 1.77 9.06z" fill="#c7ae71"/><path d="m401.77 113.06a24.289 24.289 0 0 1 -28.27 23.86l-21.94-3.66c-4.4-.73-8.83-1.31-13.26-1.73 10.23-6.61 18.89-15.54 23.7-27.53h38a24.361 24.361 0 0 1 1.77 9.06z" fill="#c2a667"/><path d="m400 72v32h-160v-32c0-.5.01-1 .02-1.49.01-.36.03-.71.05-1.06l.03-.54c.04-.69.1-1.36.18-2.04l.12-1.02c.05-.33.09-.67.14-1.01a47.994 47.994 0 0 1 47.46-40.84h64a47.982 47.982 0 0 1 15.18 2.46 47.1 47.1 0 0 1 5.23 2.09 48.54 48.54 0 0 1 8.39 5.05 48.042 48.042 0 0 1 19.2 38.4z" fill="#c2a667"/><path d="m400 72v32h-121.36c7.64-3.74 15.28-7.87 22.85-12.44a268.7 268.7 0 0 0 26.51-18.2c.57-.44 1.14-.89 1.71-1.36 2.2-1.73 4.39-3.53 6.55-5.37q5.985-5.07 11.74-10.63c.56-.53 1.11-1.07 1.66-1.62q6.93-6.81 13.47-14.38 4.77-5.52 9.28-11.45a48.54 48.54 0 0 1 8.39 5.05 48.042 48.042 0 0 1 19.2 38.4z" fill="#ba9f63"/><path d="m280 56h-37.231a47.945 47.945 0 0 0 -2.769 16h40z" fill="#d4bd81"/><path d="m296 56h16v16h-16z" fill="#d4bd81"/><path d="m328 72h32v16h-32z" fill="#d4bd81"/><path d="m397.25 56h-53.25v-16h43.76a47.654 47.654 0 0 1 9.49 16z" fill="#d4bd81"/><path d="m376 72h24v16h-24z" fill="#d4bd81"/></svg>