<svg id="Layer_1" enable-background="new 0 0 512 512" height="512" viewBox="0 0 512 512" width="512" xmlns="http://www.w3.org/2000/svg"><path d="m256 118.696s-75.5-.523-107 18.391c0 0 31.734 19.308 107.2 19.308s106.8-19.308 106.8-19.308c-31.5-18.914-107-18.391-107-18.391z" fill="#466089"/><path d="m357.378 286.409-73.919-24.98h-27.259-27.258l-73.919 24.98c-24.38 8.239-40.791 31.108-40.791 56.842v57.943h49.968v105.9h233.968v-163.843c.001-25.735-16.41-48.603-40.79-56.842z" fill="#6e83b7"/><path d="m340.653 366h6v141h-6z" fill="#466089"/><path d="m176.216 507.094h-74v-90c0-11.046 8.954-20 20-20h34c11.046 0 20 8.954 20 20z" fill="#6e83b7"/><path d="m179.216 507.094h-6v-90c0-9.374-7.626-17-17-17h-9.046v-6h9.046c12.682 0 23 10.318 23 23z" fill="#466089"/><path d="m112.216 507v-89.906c0-5.514 4.486-10 10-10h34c5.514 0 10 4.486 10 10v89.906z" fill="#466089"/><path d="m314.123 175.587c0 31.933-25.99 57.82-57.923 57.82s-57.923-25.887-57.923-57.82v-56.891h115.846z" fill="#ffd3b3"/><g fill="#6e83b7"><path d="m246.2 145.094s-18.857-7.061-34 6c0 0 19.625-5 31 2z"/><circle cx="234.2" cy="164.094" r="6"/><circle cx="278.2" cy="164.094" r="6"/><path d="m266.2 145.094s18.857-7.061 34 6c0 0-19.625-5-31 2z"/></g><path d="m314.123 137.087h4.264c6.799 0 12.074 5.933 11.28 12.684l-1.591 13.523c-.832 7.075-6.829 12.408-13.953 12.408z" fill="#ffd3b3"/><path d="m198.277 136.868h-4.264c-6.798 0-12.074 5.933-11.28 12.684l1.591 13.523c.832 7.075 6.829 12.408 13.953 12.408z" fill="#ffd3b3"/><path d="m261.879 190.977h-13.482l1.406-16.878 5.98.498-.866 10.38h6.962z" fill="#fcb98b"/><path d="m156.337 454.785h-35.657v-35.186h41.167v29.676c0 3.043-2.467 5.51-5.51 5.51z" fill="#fcb98b"/><path d="m156.337 454.785h-35.657v32.258h28.445c7.026 0 12.722-5.696 12.722-12.722v-14.027c0-3.042-2.467-5.509-5.51-5.509z" fill="#fcb98b"/><path d="m147.661 438.884v-17.443c0-5.018 4.068-9.086 9.086-9.086 5.018 0 9.086 4.068 9.086 9.086v17.443c0 5.018-4.068 9.086-9.086 9.086-5.018 0-9.086-4.067-9.086-9.086z" fill="#ffd3b3"/><path d="m154.973 431.752c2.308-2.033 3.774-5.001 3.774-8.311 0-4.405-2.589-8.208-6.321-9.994-2.838 1.537-4.765 4.54-4.765 7.994v17.443c0 5.018 4.068 9.086 9.086 9.086.865 0 1.699-.129 2.492-.354 1.121-1.732 1.78-3.79 1.78-6.003-.001-4.297-2.463-8.022-6.046-9.861z" fill="#fcb98b"/><path d="m121.17 270h26v237h-26z" fill="#efa470"/><path d="m147.661 432.527h-29.258c-5.018 0-9.086-4.068-9.086-9.086 0-5.018 4.068-9.086 9.086-9.086h29.258c5.018 0 9.086 4.068 9.086 9.086 0 5.018-4.068 9.086-9.086 9.086z" fill="#ffd3b3"/><path d="m145.389 468.871h-29.258c-5.018 0-9.086-4.068-9.086-9.086 0-5.018 4.068-9.086 9.086-9.086h29.258c5.018 0 9.086 4.068 9.086 9.086 0 5.018-4.068 9.086-9.086 9.086z" fill="#ffd3b3"/><path d="m141.982 487.043h-22.443c-5.018 0-9.086-4.068-9.086-9.086 0-5.018 4.068-9.086 9.086-9.086h22.443c5.018 0 9.086 4.068 9.086 9.086 0 5.018-4.068 9.086-9.086 9.086z" fill="#ffd3b3"/><path d="m149.932 450.699h-33.801c-5.018 0-9.086-4.068-9.086-9.086 0-5.018 4.068-9.086 9.086-9.086h33.801c5.018 0 9.086 4.068 9.086 9.086 0 5.018-4.068 9.086-9.086 9.086z" fill="#ffd3b3"/><path d="m165.347 366h6v35.194h-6z" fill="#466089"/><path d="m314.2 164.59v-27.5h4v-18.39h-11v45.89 4.708c0 13.176-9.626 24.357-22.651 26.343-3.229.492-6.895.917-11.041 1.236-8.78-3.41-17.508-3.409-17.508-3.409s-8.727-.001-17.508 3.409c-4.146-.319-7.812-.744-11.041-1.236-13.025-1.985-22.651-13.167-22.651-26.343v-4.708-45.89h-11v18.39h4v27.5 11 67.66s-.55 23 3.7 42.25c0-7 6-11.5 6-11.5 0 18 4.7 28 4.7 28 0-12 7.8-15.5 7.8-15.5 0 26 14.2 37 14.2 37 0-7.5 8.3-12.5 8.3-12.5 0 11.5 13.5 26.5 13.5 26.5s13.5-15 13.5-26.5c0 0 8.3 5 8.3 12.5 0 0 14.2-11 14.2-37 0 0 7.8 3.5 7.8 15.5 0 0 4.7-10 4.7-28 0 0 6 4.5 6 11.5 4.25-19.25 3.7-42.25 3.7-42.25v-67.66z" fill="#edeff1"/><path d="m256 113.333c36.667 0 62.2 6.083 62.2 6.083 0-98.799-62.2-114.416-62.2-114.416s-62.2 15.617-62.2 114.417c0 0 25.533-6.084 62.2-6.084z" fill="#6e83b7"/><path d="m195.773 90.601c-1.261 8.719-1.973 18.291-1.973 28.816 0 0 25.533-6.083 62.2-6.083s62.2 6.083 62.2 6.083c0-10.525-.711-20.097-1.973-28.816-16.752-7.909-37.611-12.601-60.227-12.601s-43.475 4.692-60.227 12.601z" fill="#466089"/><path d="m256 92.333c66.333 0 107 44.753 107 44.753-31.5-18.913-107-18.391-107-18.391s-75.5-.523-107 18.391c0 .001 40.667-44.753 107-44.753z" fill="#6e83b7"/><path d="m246.2 210.094h20l-.106.425c-1.113 4.452-5.113 7.575-9.701 7.575h-.384c-4.589 0-8.589-3.123-9.701-7.575z" fill="#d3d3d3"/><path d="m134.17 270h13l20.171-36.594-33.171-82.406-33.17 82.406 20.17 36.594z" fill="#80d6fb"/><path d="m101 233.406h13.232l19.938-82.406z" fill="#99e5ff"/><path d="m167.341 233.406h-13.232l-19.939-82.406z" fill="#46bee8"/><path d="m154.109 233.406-14.268 36.594h-5.671-5.67l-14.268-36.594z" fill="#99e5ff"/><path d="m134.17 254h-21.819l8.819 16h13 13l8.82-16z" fill="#efa470"/><path d="m121.17 270h26v5.667h-26z" fill="#e2935d"/></svg>