<?xml version="1.0" encoding="UTF-8" standalone="no" ?>
<!DOCTYPE svg PUBLIC "-//W3C//DTD SVG 1.1//EN" "http://www.w3.org/Graphics/SVG/1.1/DTD/svg11.dtd">
<svg xmlns="http://www.w3.org/2000/svg" xmlns:xlink="http://www.w3.org/1999/xlink" version="1.1" width="720" height="720" viewBox="0 0 720 720" xml:space="preserve">
<desc>Created with Fabric.js 4.2.0</desc>
<defs>
</defs>
<rect x="0" y="0" width="100%" height="100%" fill="transparent"></rect>
<g transform="matrix(1 0 0 1 360 360)" id="1b611884-6b14-41d1-85aa-cb9b3af04acb"  >
<rect style="stroke: none; stroke-width: 1; stroke-dasharray: none; stroke-linecap: butt; stroke-dashoffset: 0; stroke-linejoin: miter; stroke-miterlimit: 4; fill: rgb(255,255,255); fill-opacity: 0; fill-rule: nonzero; opacity: 1;" vector-effect="non-scaling-stroke"  x="-360" y="-360" rx="0" ry="0" width="720" height="720" />
</g>
<g transform="matrix(0 0 0 0 0 0)" id="099a0cde-e345-4787-9a8d-dbca54d07a07"  >
</g>
<g transform="matrix(-1.36 0 0 1.36 359.97 359.97)"  >
<g style="" vector-effect="non-scaling-stroke"   >
		<g transform="matrix(0.71 -0.71 0.71 0.71 -164.34 93.49)"  >
<path style="stroke: none; stroke-width: 1; stroke-dasharray: none; stroke-linecap: butt; stroke-dashoffset: 0; stroke-linejoin: miter; stroke-miterlimit: 4; fill: rgb(251,106,59); fill-rule: nonzero; opacity: 1;" vector-effect="non-scaling-stroke"  transform=" translate(-91.7, -349.52)" d="M 10.89 325.099 L 172.517 325.099 L 172.517 373.938 L 10.889999999999986 373.938 z" stroke-linecap="round" />
</g>
		<g transform="matrix(0.71 -0.71 0.71 0.71 -156.53 101.3)"  >
<path style="stroke: none; stroke-width: 1; stroke-dasharray: none; stroke-linecap: butt; stroke-dashoffset: 0; stroke-linejoin: miter; stroke-miterlimit: 4; fill: rgb(251,85,50); fill-rule: nonzero; opacity: 1;" vector-effect="non-scaling-stroke"  transform=" translate(-99.51, -357.33)" d="M 18.701 343.954 L 180.328 343.954 L 180.328 370.704 L 18.700999999999993 370.704 z" stroke-linecap="round" />
</g>
		<g transform="matrix(1 0 0 1 -121.25 50.47)"  >
<path style="stroke: none; stroke-width: 1; stroke-dasharray: none; stroke-linecap: butt; stroke-dashoffset: 0; stroke-linejoin: miter; stroke-miterlimit: 4; fill: rgb(251,85,50); fill-rule: nonzero; opacity: 1;" vector-effect="non-scaling-stroke"  transform=" translate(-134.75, -306.47)" d="M 166.116 309.643 L 137.923 337.83599999999996 C 131.705 332.78 125.639 327.29599999999994 119.78 321.43699999999995 C 113.929 315.58599999999996 108.437 309.513 103.38900000000001 303.30199999999996 L 131.58200000000002 275.109 z" stroke-linecap="round" />
</g>
		<g transform="matrix(1 0 0 1 -150.53 79.75)"  >
<path style="stroke: none; stroke-width: 1; stroke-dasharray: none; stroke-linecap: butt; stroke-dashoffset: 0; stroke-linejoin: miter; stroke-miterlimit: 4; fill: rgb(236,70,46); fill-rule: nonzero; opacity: 1;" vector-effect="non-scaling-stroke"  transform=" translate(-105.47, -335.75)" d="M 121.416 354.343 L 109.571 366.18800000000005 L 89.527 317.16100000000006 L 101.372 305.31600000000003 z" stroke-linecap="round" />
</g>
		<g transform="matrix(1 0 0 1 -184.35 113.58)"  >
<path style="stroke: none; stroke-width: 1; stroke-dasharray: none; stroke-linecap: butt; stroke-dashoffset: 0; stroke-linejoin: miter; stroke-miterlimit: 4; fill: rgb(236,70,46); fill-rule: nonzero; opacity: 1;" vector-effect="non-scaling-stroke"  transform=" translate(-71.65, -369.58)" d="M 87.591 388.168 L 75.746 400.01300000000003 L 55.702 350.98600000000005 L 67.547 339.141 z" stroke-linecap="round" />
</g>
		<g transform="matrix(1 0 0 1 -224.1 153.33)"  >
<path style="stroke: none; stroke-width: 1; stroke-dasharray: none; stroke-linecap: butt; stroke-dashoffset: 0; stroke-linejoin: miter; stroke-miterlimit: 4; fill: rgb(252,166,47); fill-rule: nonzero; opacity: 1;" vector-effect="non-scaling-stroke"  transform=" translate(-31.9, -409.33)" d="M 36.711 436.624 L 4.597999999999999 404.511 C -1.5330000000000013 398.38 -1.5330000000000013 388.44 4.597999999999999 382.309 L 4.878999999999999 382.028 C 11.009999999999998 375.89700000000005 20.95 375.89700000000005 27.081 382.028 L 59.194 414.141 C 65.325 420.27200000000005 65.325 430.21200000000005 59.194 436.343 L 58.913000000000004 436.624 C 52.782000000000004 442.754 42.842 442.754 36.711 436.624 z" stroke-linecap="round" />
</g>
		<g transform="matrix(1 0 0 1 -215.32 162.11)"  >
<path style="stroke: none; stroke-width: 1; stroke-dasharray: none; stroke-linecap: butt; stroke-dashoffset: 0; stroke-linejoin: miter; stroke-miterlimit: 4; fill: rgb(249,136,36); fill-rule: nonzero; opacity: 1;" vector-effect="non-scaling-stroke"  transform=" translate(-40.68, -418.11)" d="M 59.057 436.482 C 55.952000000000005 439.58700000000005 51.89 441.14000000000004 47.821 441.14000000000004 C 43.751999999999995 441.14000000000004 39.675 439.58700000000005 36.57 436.482 L 17.655 417.567 C 20.76 420.672 24.829 422.218 28.899 422.217 C 32.968 422.217 37.037 420.67199999999997 40.143 417.567 C 46.346000000000004 411.36400000000003 46.346000000000004 401.298 40.135 395.087 L 59.05 414.002 C 65.25999999999999 420.213 65.25999999999999 430.279 59.056999999999995 436.482 z" stroke-linecap="round" />
</g>
		<g transform="matrix(1 0 0 1 25.64 -96.42)"  >
<path style="stroke: none; stroke-width: 1; stroke-dasharray: none; stroke-linecap: butt; stroke-dashoffset: 0; stroke-linejoin: miter; stroke-miterlimit: 4; fill: rgb(181,219,253); fill-rule: nonzero; opacity: 1;" vector-effect="non-scaling-stroke"  transform=" translate(-281.64, -159.58)" d="M 422.382 67.356 L 174.635 315.103 L 126.119 266.587 L 373.86699999999996 18.839 C 376.92999999999995 15.775999999999998 380.84299999999996 13.703 385.09799999999996 12.887999999999998 L 430.73199999999997 4.154999999999998 C 434.48499999999996 3.4369999999999976 437.77799999999996 6.729999999999998 437.061 10.482999999999997 L 428.33299999999997 56.122 C 427.51899999999995 60.378 425.44599999999997 64.292 422.38199999999995 67.356 z" stroke-linecap="round" />
</g>
		<g transform="matrix(1 0 0 1 40.44 -96.42)"  >
<path style="stroke: none; stroke-width: 1; stroke-dasharray: none; stroke-linecap: butt; stroke-dashoffset: 0; stroke-linejoin: miter; stroke-miterlimit: 4; fill: rgb(141,202,252); fill-rule: nonzero; opacity: 1;" vector-effect="non-scaling-stroke"  transform=" translate(-296.44, -159.58)" d="M 422.382 67.36 L 174.637 315.105 L 155.722 296.19 L 403.466 48.44399999999999 C 406.533 45.37699999999999 408.598 41.46099999999999 409.41700000000003 37.200999999999986 L 415.177 7.133999999999986 L 430.73400000000004 4.150999999999986 C 434.482 3.4319999999999857 437.77900000000005 6.728999999999985 437.06700000000006 10.483999999999986 L 428.33200000000005 56.115999999999985 C 427.51400000000007 60.37599999999998 425.44900000000007 64.29299999999998 422.38200000000006 67.35999999999999 z" stroke-linecap="round" />
</g>
		<g transform="matrix(1 0 0 1 32.31 -103.08)"  >
<path style="stroke: none; stroke-width: 1; stroke-dasharray: none; stroke-linecap: butt; stroke-dashoffset: 0; stroke-linejoin: miter; stroke-miterlimit: 4; fill: rgb(126,192,237); fill-rule: nonzero; opacity: 1;" vector-effect="non-scaling-stroke"  transform=" translate(-288.31, -152.92)" d="M 192.136 256.814 C 190.159 256.814 188.182 256.06 186.674 254.55100000000002 C 183.657 251.53400000000002 183.657 246.64300000000003 186.674 243.626 L 379.021 51.28 C 382.038 48.263 386.92900000000003 48.263 389.946 51.28 C 392.963 54.297000000000004 392.963 59.188 389.946 62.205 L 197.598 254.55200000000002 C 196.09 256.06 194.113 256.814 192.13600000000002 256.814 z" stroke-linecap="round" />
</g>
		<g transform="matrix(1 0 0 1 -84.53 13.75)"  >
<path style="stroke: none; stroke-width: 1; stroke-dasharray: none; stroke-linecap: butt; stroke-dashoffset: 0; stroke-linejoin: miter; stroke-miterlimit: 4; fill: rgb(252,166,47); fill-rule: nonzero; opacity: 1;" vector-effect="non-scaling-stroke"  transform=" translate(-171.47, -269.75)" d="M 255.41 327.972 C 238.027 330.298 214.119 322.089 190.091 305.60299999999995 C 188.20100000000002 304.3059999999999 187.31300000000002 301.96999999999997 187.893 299.75199999999995 L 202 245.82299999999995 C 203.046 241.82299999999995 199.399 238.17499999999995 195.399 239.22199999999995 L 141.47 253.32999999999996 C 139.253 253.90999999999997 136.916 253.02199999999996 135.619 251.13199999999995 C 119.133 227.10399999999996 110.924 203.19599999999994 113.25 185.81299999999993 C 106.29 186.74599999999992 100.385 189.36199999999994 95.93299999999999 193.81399999999994 C 75.725 214.02199999999993 93.24799999999999 264.31199999999995 135.079 306.1429999999999 C 176.91000000000003 347.9739999999999 227.20100000000002 365.4969999999999 247.40800000000002 345.28899999999993 C 251.86 340.83699999999993 254.47600000000003 334.9319999999999 255.41000000000003 327.9719999999999 z" stroke-linecap="round" />
</g>
		<g transform="matrix(1 0 0 1 -45.79 35.04)"  >
<path style="stroke: none; stroke-width: 1; stroke-dasharray: none; stroke-linecap: butt; stroke-dashoffset: 0; stroke-linejoin: miter; stroke-miterlimit: 4; fill: rgb(249,136,36); fill-rule: nonzero; opacity: 1;" vector-effect="non-scaling-stroke"  transform=" translate(-210.21, -291.04)" d="M 255.414 327.975 C 254.624 333.829 252.64999999999998 338.932 249.392 343.04900000000004 C 227.902 339.33700000000005 193.85399999999998 327.324 173.02499999999998 315.458 C 166.79599999999996 311.91400000000004 163.706 304.649 165.522 297.71900000000005 L 177.694 251.18400000000005 C 178.444 248.32100000000005 176.786 245.62600000000006 174.308 244.73800000000006 L 195.394 239.22000000000006 C 199.40200000000002 238.17400000000006 203.044 241.82600000000005 201.99800000000002 245.82400000000007 L 187.89200000000002 299.75200000000007 C 187.30900000000003 301.97300000000007 188.19800000000004 304.30300000000005 190.09300000000002 305.60600000000005 C 214.121 322.09200000000004 238.03000000000003 330.2950000000001 255.41400000000002 327.975 z" stroke-linecap="round" />
</g>
		<g transform="matrix(1 0 0 1 -153.79 -63.79)"  >
<circle style="stroke: none; stroke-width: 1; stroke-dasharray: none; stroke-linecap: butt; stroke-dashoffset: 0; stroke-linejoin: miter; stroke-miterlimit: 4; fill: rgb(188,234,115); fill-rule: nonzero; opacity: 1;" vector-effect="non-scaling-stroke"  cx="0" cy="0" r="24.57" />
</g>
		<g transform="matrix(1 0 0 1 -149.84 -63.78)"  >
<path style="stroke: none; stroke-width: 1; stroke-dasharray: none; stroke-linecap: butt; stroke-dashoffset: 0; stroke-linejoin: miter; stroke-miterlimit: 4; fill: rgb(153,213,59); fill-rule: nonzero; opacity: 1;" vector-effect="non-scaling-stroke"  transform=" translate(-106.16, -192.22)" d="M 119.583 209.593 C 110.215 218.96099999999998 95.154 219.185 85.529 210.24499999999998 C 91.23299999999999 209.85999999999999 96.83 207.48899999999998 101.189 203.13099999999997 C 110.78099999999999 193.53899999999996 110.78099999999999 177.97499999999997 101.189 168.38299999999998 C 100.96499999999999 168.159 100.72999999999999 167.93399999999997 100.49499999999999 167.72099999999998 C 107.34199999999998 167.22999999999996 114.34899999999999 169.60099999999997 119.583 174.84599999999998 C 129.186 184.43699999999998 129.186 199.98999999999998 119.583 209.59299999999996 z" stroke-linecap="round" />
</g>
		<g transform="matrix(1 0 0 1 -6.99 83.01)"  >
<circle style="stroke: none; stroke-width: 1; stroke-dasharray: none; stroke-linecap: butt; stroke-dashoffset: 0; stroke-linejoin: miter; stroke-miterlimit: 4; fill: rgb(188,234,115); fill-rule: nonzero; opacity: 1;" vector-effect="non-scaling-stroke"  cx="0" cy="0" r="24.57" />
</g>
		<g transform="matrix(1 0 0 1 -3.05 83.02)"  >
<path style="stroke: none; stroke-width: 1; stroke-dasharray: none; stroke-linecap: butt; stroke-dashoffset: 0; stroke-linejoin: miter; stroke-miterlimit: 4; fill: rgb(153,213,59); fill-rule: nonzero; opacity: 1;" vector-effect="non-scaling-stroke"  transform=" translate(-252.95, -339.02)" d="M 266.385 356.384 C 257.006 365.752 241.945 365.976 232.32 357.035 C 238.024 356.651 243.62199999999999 354.27900000000005 247.98 349.92100000000005 C 257.572 340.32900000000006 257.572 324.77600000000007 247.98 315.17300000000006 C 247.756 314.94900000000007 247.53099999999998 314.73500000000007 247.296 314.5210000000001 C 254.143 314.0300000000001 261.15 316.40100000000007 266.385 321.63500000000005 C 275.977 331.22800000000007 275.977 346.78100000000006 266.385 356.38400000000007 z" stroke-linecap="round" />
</g>
		<g transform="matrix(1 0 0 1 -94.73 23.96)"  >
<path style="stroke: none; stroke-width: 1; stroke-dasharray: none; stroke-linecap: butt; stroke-dashoffset: 0; stroke-linejoin: miter; stroke-miterlimit: 4; fill: rgb(251,85,50); fill-rule: nonzero; opacity: 1;" vector-effect="non-scaling-stroke"  transform=" translate(-161.27, -279.96)" d="M 161.169 287.789 C 159.311 287.789 157.447 287.123 155.966 285.772 C 152.81300000000002 282.897 152.58800000000002 278.01099999999997 155.46300000000002 274.859 L 155.66100000000003 274.642 C 158.53600000000003 271.49 163.42300000000003 271.264 166.57400000000004 274.139 C 169.72700000000003 277.014 169.95200000000006 281.90000000000003 167.07700000000003 285.052 L 166.87900000000002 285.269 C 165.35500000000002 286.94100000000003 163.26500000000001 287.789 161.169 287.789 z" stroke-linecap="round" />
</g>
		<g transform="matrix(1 0 0 1 132.71 -15.94)"  >
<path style="stroke: none; stroke-width: 1; stroke-dasharray: none; stroke-linecap: butt; stroke-dashoffset: 0; stroke-linejoin: miter; stroke-miterlimit: 4; fill: rgb(234,246,255); fill-rule: nonzero; opacity: 1;" vector-effect="non-scaling-stroke"  transform=" translate(-388.71, -240.06)" d="M 269.897 106.354 C 262.942 113.481 264.46299999999997 125.197 272.971 130.37 C 301.163 147.513 355.169 191.008 373.097 279.846 C 385.409 340.857 344.748 376.652 304.841 391.217 C 295.899 394.481 297.468 407.659 306.926 408.739 C 340.077 412.525 385.48 409.349 418.581 374.566 C 422.76500000000004 370.16999999999996 429.79200000000003 375.32199999999995 426.819 380.613 C 411.295 408.248 372.52500000000003 444.769 275.77700000000004 450.019 C 264.956 450.606 264.04300000000006 466.249 274.73100000000005 468.041 C 368.71400000000006 483.798 511.90700000000004 479.024 511.90700000000004 303.618 C 511.90700000000004 106.358 429.90600000000006 33.31700000000001 391.95500000000004 10.076999999999998 C 381.67600000000004 3.7819999999999983 368.42500000000007 5.383999999999999 360.00700000000006 14.011 z" stroke-linecap="round" />
</g>
		<g transform="matrix(1 0 0 1 133.54 1.72)"  >
<path style="stroke: none; stroke-width: 1; stroke-dasharray: none; stroke-linecap: butt; stroke-dashoffset: 0; stroke-linejoin: miter; stroke-miterlimit: 4; fill: rgb(196,225,255); fill-rule: nonzero; opacity: 1;" vector-effect="non-scaling-stroke"  transform=" translate(-389.54, -257.72)" d="M 511.907 303.615 C 511.907 479.023 368.717 483.802 274.741 468.043 C 264.05 466.25100000000003 264.95599999999996 450.605 275.781 450.01800000000003 C 295.536 448.947 312.871 446.56800000000004 328.094 443.23 C 407.764 440.119 487.805 404.358 487.805 273.21900000000005 C 487.805 159.42500000000007 460.52 86.96500000000006 430.146 41.563000000000045 C 468.43100000000004 82.20700000000005 511.90700000000004 159.98200000000003 511.90700000000004 303.61500000000007 z" stroke-linecap="round" />
</g>
		<g transform="matrix(1 0 0 1 109.94 -158.87)"  >
<path style="stroke: none; stroke-width: 1; stroke-dasharray: none; stroke-linecap: butt; stroke-dashoffset: 0; stroke-linejoin: miter; stroke-miterlimit: 4; fill: rgb(196,225,255); fill-rule: nonzero; opacity: 1;" vector-effect="non-scaling-stroke"  transform=" translate(-365.94, -97.13)" d="M 430.95 42.429 L 428.334 56.118 C 427.51 60.372 425.45 64.296 422.38100000000003 67.355 L 319.85400000000004 169.881 C 313.499 162.681 307.09200000000004 156.419 300.92300000000006 150.99099999999999 L 403.46900000000005 48.44399999999999 C 406.5280000000001 45.374999999999986 408.59800000000007 41.46099999999999 409.41200000000003 37.19599999999999 L 411.874 24.38299999999999 C 417.92 29.399999999999988 424.36800000000005 35.362999999999985 430.95000000000005 42.42899999999999 z" stroke-linecap="round" />
</g>
		<g transform="matrix(1 0 0 1 84.61 -155.94)"  >
<path style="stroke: none; stroke-width: 1; stroke-dasharray: none; stroke-linecap: butt; stroke-dashoffset: 0; stroke-linejoin: miter; stroke-miterlimit: 4; fill: rgb(181,219,253); fill-rule: nonzero; opacity: 1;" vector-effect="non-scaling-stroke"  transform=" translate(-340.61, -100.06)" d="M 389.945 62.206 L 301.046 151.10500000000002 C 296.905 147.45900000000003 292.858 144.19400000000002 289.005 141.28900000000002 L 379.01599999999996 51.27800000000002 C 382.03399999999993 48.26000000000002 386.926 48.26000000000002 389.94399999999996 51.27800000000002 C 392.96299999999997 54.29600000000002 392.96299999999997 59.18800000000002 389.94499999999994 62.20600000000002 z" stroke-linecap="round" />
</g>
		<g transform="matrix(1 0 0 1 185.72 -30.88)"  >
<path style="stroke: none; stroke-width: 1; stroke-dasharray: none; stroke-linecap: butt; stroke-dashoffset: 0; stroke-linejoin: miter; stroke-miterlimit: 4; fill: rgb(181,219,253); fill-rule: nonzero; opacity: 1;" vector-effect="non-scaling-stroke"  transform=" translate(-441.72, -225.12)" d="M 448.593 315.793 C 447.946 315.793 447.288 315.711 446.632 315.54 C 442.505 314.46000000000004 440.035 310.238 441.11400000000003 306.11100000000005 C 463.91900000000004 218.96700000000004 421.65900000000005 146.85400000000004 421.22900000000004 146.13600000000005 C 419.03900000000004 142.47400000000005 420.232 137.73100000000005 423.89400000000006 135.54100000000005 C 427.5570000000001 133.35100000000006 432.29900000000004 134.54500000000004 434.4890000000001 138.20600000000005 C 434.9670000000001 139.00500000000005 446.2860000000001 158.12400000000005 454.6370000000001 188.86000000000004 C 462.3360000000001 217.19600000000003 468.83300000000014 261.2180000000001 456.0610000000001 310.023 C 455.1530000000001 313.49300000000005 452.0220000000001 315.793 448.5930000000001 315.793 z" stroke-linecap="round" />
</g>
		<g transform="matrix(1 0 0 1 131.59 -64.87)"  >
<path style="stroke: none; stroke-width: 1; stroke-dasharray: none; stroke-linecap: butt; stroke-dashoffset: 0; stroke-linejoin: miter; stroke-miterlimit: 4; fill: rgb(181,219,253); fill-rule: nonzero; opacity: 1;" vector-effect="non-scaling-stroke"  transform=" translate(-387.59, -191.13)" d="M 413.664 258.666 C 409.39799999999997 258.666 405.93899999999996 255.207 405.93899999999996 250.941 C 405.93899999999996 182.587 356.83799999999997 137.511 356.342 137.063 C 353.174 134.206 352.92199999999997 129.321 355.779 126.15299999999999 C 358.636 122.984 363.522 122.73299999999999 366.689 125.58999999999999 C 368.922 127.60399999999998 421.389 175.789 421.389 250.94 C 421.389 255.207 417.93 258.666 413.664 258.666 z" stroke-linecap="round" />
</g>
		<g transform="matrix(1 0 0 1 75.94 10.84)"  >
<path style="stroke: none; stroke-width: 1; stroke-dasharray: none; stroke-linecap: butt; stroke-dashoffset: 0; stroke-linejoin: miter; stroke-miterlimit: 4; fill: rgb(234,246,255); fill-rule: nonzero; opacity: 1;" vector-effect="non-scaling-stroke"  transform=" translate(-331.94, -266.84)" d="M 342.861 318.882 C 342.484 318.882 342.103 318.854 341.719 318.798 C 337.49899999999997 318.173 334.584 314.245 335.21 310.024 C 342.008 264.138 314.053 227.636 313.77 227.272 C 311.15099999999995 223.911 311.743 219.059 315.099 216.433 C 318.454 213.809 323.298 214.39 325.93 217.74099999999999 C 327.255 219.428 358.289 259.66499999999996 350.493 312.288 C 349.924 316.124 346.626 318.882 342.861 318.882 z" stroke-linecap="round" />
</g>
		<g transform="matrix(1 0 0 1 196.53 216.23)"  >
<path style="stroke: none; stroke-width: 1; stroke-dasharray: none; stroke-linecap: butt; stroke-dashoffset: 0; stroke-linejoin: miter; stroke-miterlimit: 4; fill: rgb(234,246,255); fill-rule: nonzero; opacity: 1;" vector-effect="non-scaling-stroke"  transform=" translate(-452.53, -472.23)" d="M 400.781 507.949 C 396.829 507.949 393.46 504.932 393.097 500.92 C 392.712 496.671 395.84499999999997 492.914 400.094 492.53000000000003 C 461.685 486.95500000000004 497.746 440.06000000000006 498.103 439.586 C 500.671 436.18600000000004 505.511 435.5 508.916 438.062 C 512.3209999999999 440.624 513.013 445.455 510.457 448.86400000000003 C 508.842 451.019 470.106 501.70500000000004 401.486 507.91600000000005 C 401.25 507.93800000000005 401.014 507.94900000000007 400.781 507.94900000000007 z" stroke-linecap="round" />
</g>
		<g transform="matrix(1 0 0 1 221.82 -200.53)"  >
<path style="stroke: none; stroke-width: 1; stroke-dasharray: none; stroke-linecap: butt; stroke-dashoffset: 0; stroke-linejoin: miter; stroke-miterlimit: 4; fill: rgb(234,246,255); fill-rule: nonzero; opacity: 1;" vector-effect="non-scaling-stroke"  transform=" translate(-477.82, -55.47)" d="M 487.542 76.462 C 484.991 76.462 482.49499999999995 75.2 481.022 72.88900000000001 C 471.334 57.69400000000001 462.371 47.403000000000006 462.282 47.30000000000001 C 459.474 44.09000000000001 459.79699999999997 39.21000000000001 463.005 36.40100000000001 C 466.213 33.59200000000001 471.091 33.91200000000001 473.902 37.119000000000014 C 474.296 37.56900000000002 483.688 48.33400000000002 494.048 64.58300000000001 C 496.342 68.18 495.285 72.95600000000002 491.688 75.25000000000001 C 490.401 76.07100000000001 488.964 76.46200000000002 487.542 76.46200000000002 z" stroke-linecap="round" />
</g>
		<g transform="matrix(1 0 0 1 56.71 14.39)"  >
<path style="stroke: none; stroke-width: 1; stroke-dasharray: none; stroke-linecap: butt; stroke-dashoffset: 0; stroke-linejoin: miter; stroke-miterlimit: 4; fill: rgb(234,246,255); fill-rule: nonzero; opacity: 1;" vector-effect="non-scaling-stroke"  transform=" translate(-312.71, -270.39)" d="M 314.703 285.174 C 311.178 285.174 307.99499999999995 282.746 307.178 279.16499999999996 C 305.442 271.54799999999994 303.459 266.00699999999995 303.44 265.953 C 301.995 261.93899999999996 304.078 257.513 308.092 256.068 C 312.109 254.62199999999999 316.532 256.70599999999996 317.977 260.71999999999997 C 318.07099999999997 260.981 320.29999999999995 267.20799999999997 322.24199999999996 275.731 C 323.18999999999994 279.891 320.587 284.031 316.42699999999996 284.98 C 315.84999999999997 285.112 315.272 285.17400000000004 314.703 285.17400000000004 z" stroke-linecap="round" />
</g>
</g>
</g>
<g transform="matrix(1 0 0 1 533.76 583.64)" style="filter: url(#SVGID_1674);" id="849eb907-2d71-462c-903c-5d20216c3171"  >
<filter id="SVGID_1674" y="-32%" height="164%" x="-28%" width="156%" >
	<feGaussianBlur in="SourceAlpha" stdDeviation="7"></feGaussianBlur>
	<feOffset dx="11" dy="11" result="oBlur" ></feOffset>
	<feFlood flood-color="rgb(255,153,255)" flood-opacity="1"/>
	<feComposite in2="oBlur" operator="in" />
	<feMerge>
		<feMergeNode></feMergeNode>
		<feMergeNode in="SourceGraphic"></feMergeNode>
	</feMerge>
</filter>
		<text xml:space="preserve" font-family="Lato" font-size="186" font-style="normal" font-weight="400" style="stroke: none; stroke-width: 1; stroke-dasharray: none; stroke-linecap: butt; stroke-dashoffset: 0; stroke-linejoin: miter; stroke-miterlimit: 4; fill: rgb(255,0,255); fill-rule: nonzero; opacity: 1; white-space: pre;" ><tspan x="-132.71" y="58.43" >Set</tspan></text>
</g>
</svg>