<svg id="Flat" height="512" viewBox="0 0 64 64" width="512" xmlns="http://www.w3.org/2000/svg"><path d="m61 14-28.705 26.983-6.909 6.494-8.863-8.863 6.432-6.842 27.045-28.772h11z" fill="#35d7fd"/><path d="m50 3-27.045 28.772-6.432 6.842 4.432 4.431 29.045-29.045z" fill="#bbf9ff"/><path d="m20.955 43.045 4.431 4.432 6.909-6.494 28.705-26.983h-11z" fill="#03b3e2"/><path d="m40 49-9.091 4-19.909-19.909 4-9.091 10 10v5h5z" fill="#ffd257"/><path d="m28.032 46.123-10.155-10.155a10.082 10.082 0 0 1 -2.1-11.19l-.777-.778-4 9.091 19.909 19.909 9.091-4-.778-.778a10.082 10.082 0 0 1 -11.19-2.099z" fill="#f89c5b"/><path d="m11 57 11.955-11.955-4.063-4.062-12.017 12.017z" fill="#895e7a"/><path d="m8.045 54 11.955-11.955-1.108-1.062-12.017 12.017z" fill="#aa889f"/><path d="m3 53h8v8h-8z" fill="#f89c5b"/><path d="m3 53h8a0 0 0 0 1 0 0 8 8 0 0 1 -8 8 0 0 0 0 1 0 0v-8a0 0 0 0 1 0 0z" fill="#ffd257"/><path d="m6 56h2v2h-2z" fill="#e94561"/><path d="m22.5 30.681h2v19.639h-2z" fill="#ffe8ae" transform="matrix(.707 -.707 .707 .707 -21.755 28.479)"/><path d="m34 4 1.414 2.586 2.586 1.414-2.586 1.414-1.414 2.586-1.414-2.586-2.586-1.414 2.586-1.414z" fill="#bbf9ff"/><path d="m55 31 1.414 2.586 2.586 1.414-2.586 1.414-1.414 2.586-1.414-2.586-2.586-1.414 2.586-1.414z" fill="#bbf9ff"/><g fill="#35d7fd"><path d="m21 16h2v2h-2z"/><path d="m21 20h2v2h-2z"/><path d="m19 18h2v2h-2z"/><path d="m23 18h2v2h-2z"/></g><circle cx="23" cy="41" fill="#e94561" r="5"/><circle cx="23" cy="41" fill="#c6ec6b" r="2"/><path d="m23.82 39.18a1.992 1.992 0 0 1 -2.64 2.64 2 2 0 1 0 2.64-2.64z" fill="#58a066"/><circle cx="23" cy="38" fill="#fff" r="1"/><path d="m47.282 14h-3.548a.718.718 0 0 1 -.508-1.226l3.548-3.548a.718.718 0 0 1 1.226.508v3.548a.719.719 0 0 1 -.718.718z" fill="#fff"/><path d="m41.366 16h2.667a.815.815 0 0 1 .576 1.391l-7.37 7.37a.815.815 0 0 1 -.577.239h-1.847a.814.814 0 0 1 -.609-1.356l6.551-7.371a.818.818 0 0 1 .609-.273z" fill="#fff"/></svg>