<?xml version="1.0" encoding="utf-8"?>
<!-- Svg Vector Icons : http://www.onlinewebfonts.com/icon -->
<!DOCTYPE svg PUBLIC "-//W3C//DTD SVG 1.1//EN" "http://www.w3.org/Graphics/SVG/1.1/DTD/svg11.dtd">
<svg version="1.1" xmlns="http://www.w3.org/2000/svg" xmlns:xlink="http://www.w3.org/1999/xlink" x="0px" y="0px" viewBox="0 0 1000 1000" enable-background="new 0 0 1000 1000" xml:space="preserve">
<metadata> Svg Vector Icons : http://www.onlinewebfonts.com/icon </metadata>
<g><g transform="translate(0.000000,512.000000) scale(0.100000,-0.100000)"><path d="M3529,5001c-237.8-76.7-412.3-287.7-441.1-527.4c-7.7-71-24.9-109.3-67.1-149.6l-55.6-53.7l-1309.9-9.6l-1307.9-9.6l-78.6-51.8c-42.2-28.8-97.8-84.4-122.7-124.7l-46-72.9V-265.3v-4267.1l46-72.9c24.9-40.3,80.6-95.9,122.7-124.6l78.6-51.8h3367.7h3367.7l78.6,51.8c42.2,28.8,97.8,84.4,122.7,124.6l46,72.9l5.8,1515.1l3.8,1515.1L8584.4-255.7C9269,430.8,9844.4,1021.5,9863.6,1058c28.8,51.8,36.4,109.3,36.4,251.2c0,178.4-1.9,187.9-82.5,351c-72.9,147.7-113.2,197.5-345.2,429.6c-364.4,366.3-515.9,456.4-803.6,477.5c-241.6,19.2-251.2,11.5-824.7-556.2l-502.5-498.6l-5.8,1246.6l-5.8,1244.7l-51.8,78.6c-28.8,42.2-84.4,97.8-124.7,122.7l-72.9,46l-1307.9,9.6l-1307.9,9.6l-55.6,53.7c-42.2,40.3-59.5,78.6-67.1,151.5c-24.9,207.1-180.3,414.2-374,500.5C3855.1,5024,3640.3,5037.4,3529,5001z M3851.2,4791.9c42.2-28.8,74.8-72.9,94-124.7c24.9-71,24.9-90.1,0-161.1c-69-195.6-333.7-226.3-441.1-49.9C3366,4682.6,3632.6,4939.6,3851.2,4791.9z M2430.1,3984.5c0-3.8-88.2-34.5-195.6-69c-109.3-34.5-253.1-90.1-322.2-126.6l-122.7-65.2h-600.3H589v-3989v-3989h1112.3h1112.3l-67.1-134.2l-67.1-134.2H1557.5c-1097,0-1121.9,0-1160.3,38.3c-38.4,38.4-38.4,63.3-38.4,4219.2c0,4155.9,0,4180.8,38.4,4219.2c36.4,36.4,63.3,38.4,1035.6,38.4C1981.4,3992.2,2430.1,3988.4,2430.1,3984.5z M7032.9,3953.8c38.4-38.4,38.4-63.3,38.4-1377V1238.2l-115.1-113.1l-115.1-113.1v1355.9v1355.9h-600.3h-600.3l-122.7,65.2c-69,36.4-212.9,92.1-320.3,126.6c-109.3,34.5-197.5,65.2-197.5,69c0,3.8,448.8,7.7,997.3,7.7C6969.6,3992.2,6996.4,3990.3,7032.9,3953.8z M6572.6,2099.3V741.5l-387.4-387.4L5795.9-35.2h-972.3h-974.2v-134.2v-134.2h838.1h840l-742.2-742.2L4044.9-1790l-548.5-1097l-548.5-1098.9H1902.7H857.5v3720.5v3720.5h2857.5h2857.5V2099.3z M8889.3,2237.4c80.6-40.3,176.4-120.8,370.1-314.5c299.2-299.2,366.3-406.6,377.8-607.9l7.7-120.8l-122.7-124.7c-67.1-69-130.4-126.6-140-126.6c-11.5,0-264.6,245.5-563.8,544.7c-613.7,613.7-577.3,546.6-395.1,719.2l109.3,103.6l122.7-11.5C8734,2293,8818.3,2270,8889.3,2237.4z M7184.4-1274.1C5974.2-2484.2,5554.3-2892.7,5502.5-2911.9c-95.9-34.5-255.1-138.1-358.6-232.1l-84.4-78.6l55.6,113.2c94,187.9,159.2,498.6,184.1,886l13.4,199.5l-189.8-13.4c-372.1-24.9-638.6-80.6-847.7-176.4l-140-63.3l55.6,71c59.5,74.8,143.8,232.1,166.9,310.7c7.7,26.8,728.8,763.3,1664.7,1701.1l1653.2,1655.1l560-560l561.9-561.9L7184.4-1274.1z M7071.2-3113.3c0-1307.9,0-1332.9-38.4-1371.2c-38.3-38.3-63.3-38.3-1988.8-36.4H3091.8l258.9,132.3l258.9,132.3h1616.7l1614.8,1.9v1125.8v1125.7l109.3,111.3c61.4,61.4,113.1,111.2,115.1,111.2C7069.3-1780.4,7071.2-2380.7,7071.2-3113.3z M6572.6-3132.4v-853.4l-1202.5,1.9H4165.8l700,352.9l700,351l498.6,500.6c274.2,276.2,500.5,500.5,502.5,500.5C6570.7-2279,6572.6-2662.6,6572.6-3132.4z M5019.2-2363.4c0-67.1-55.6-372.1-86.3-479.5c-15.3-51.8-59.5-149.6-97.8-218.6c-61.4-109.3-69-134.2-59.5-218.6l11.5-92.1l-602.2-303l-604.1-301.1L3471.5-3865l-111.2,109.3l291.5,583l291.5,584.9l101.7-11.5c95.9-9.6,109.3-3.8,216.7,69c130.4,88.2,276.2,141.9,498.6,182.2C4990.4-2307.8,5019.2-2307.8,5019.2-2363.4z"/><path d="M3013.1,2876c-243.6-264.7-655.9-811.2-880.3-1169.9c-51.8-82.5-97.8-149.6-103.6-149.6c-7.7,0-153.4,141.9-327.9,316.4c-339.5,341.4-374,360.5-456.4,272.3c-84.4-90.1-69-111.2,366.3-546.6c435.3-435.3,464.1-454.5,542.7-362.5c21.1,23,76.7,107.4,122.7,186c193.7,337.5,544.7,818.9,870.7,1198.6c178.4,209,197.5,260.8,120.8,331.8C3191.5,3025.6,3137.8,3008.4,3013.1,2876z"/><path d="M3849.3,2323.7v-134.2h1006.8H5863v134.2V2458H4856.2H3849.3V2323.7z"/><path d="M3849.3,1863.4v-134.2h1006.8H5863v134.2v134.2H4856.2H3849.3V1863.4z"/><path d="M3013.1,958.2C2769.6,693.6,2357.3,147,2132.9-211.6c-51.8-82.5-97.8-149.6-103.6-149.6c-7.7,0-153.4,141.9-327.9,316.4c-339.5,341.4-374,360.5-456.4,272.3c-84.4-90.1-69-111.2,366.3-546.6c435.3-435.4,464.1-454.5,542.7-362.5c21.1,23,76.7,107.4,122.7,186c193.7,337.5,544.7,818.9,870.7,1198.6c178.4,209,197.5,260.8,120.8,331.8C3191.5,1107.8,3137.8,1090.6,3013.1,958.2z"/><path d="M3849.3,290.8V156.6h1006.8H5863v134.2v134.2H4856.2H3849.3V290.8z"/><path d="M1471.2-2183.1v-498.6h498.6h498.6v498.6v498.6h-498.6h-498.6V-2183.1z M2200-2183.1v-230.1h-230.1h-230.1v230.1v230.1h230.1H2200V-2183.1z"/></g></g>
</svg>