<svg height="512" viewBox="0 0 512 512" width="512" xmlns="http://www.w3.org/2000/svg"><g id="flat"><path d="m360 272h88v56h-88z" fill="#b9b9b9"/><path d="m368 280h72v16h-72z" fill="#a8a8a8"/><path d="m440 272h32v216h-32z" fill="#c7463b"/><path d="m336 56a29.276 29.276 0 0 1 23.534-28.707l16.466-3.293a67.785 67.785 0 0 1 -7.155 30.311l-.845 1.689-16 8z" fill="#b9b9b9"/><path d="m176 56a29.276 29.276 0 0 0 -23.534-28.707l-16.466-3.293a67.785 67.785 0 0 0 7.155 30.311l.845 1.689 16 8z" fill="#b9b9b9"/><path d="m280 64h-48v-16a24 24 0 0 1 24-24 24 24 0 0 1 24 24z" fill="#b9b9b9"/><path d="m64 272h88v56h-88z" fill="#b9b9b9"/><path d="m344 336h-16a24 24 0 0 1 -24-24 24 24 0 0 1 -24-24v-16h64z" fill="#dc4d41"/><path d="m168 336h16a24 24 0 0 0 24-24 24 24 0 0 0 24-24v-16h-64z" fill="#dc4d41"/><path d="m336 184h-160-48v96h16v208h32v-208h160v208h32v-208h8v-96z" fill="#c7463b"/><path d="m40 272h32v216h-32z" fill="#c7463b" transform="matrix(-1 0 0 -1 112 760)"/><path d="m384 88v8h-256v-8l16-32h224z" fill="#1f6c8c"/><path d="m128 128h256v64h-256z" fill="#dc4d41"/><rect fill="#cdcdcd" height="64" rx="16.255" width="160" x="176" y="184"/><path d="m336 216v-32h-32a32 32 0 0 0 32 32z" fill="#ea9d2d"/><path d="m336 216v32h-32a32 32 0 0 1 32-32z" fill="#ea9d2d"/><path d="m176 216v-32h32a32 32 0 0 1 -32 32z" fill="#ea9d2d"/><path d="m176 216v32h32a32 32 0 0 0 -32-32z" fill="#ea9d2d"/><path d="m368 232h104v48h-104z" fill="#dc4d41"/><path d="m40 224h104v64h-104z" fill="#dc4d41"/><path d="m440.006 200a7.973 7.973 0 0 0 3.572-.847l17.69-8.844a33.7 33.7 0 0 0 18.732-30.309 8 8 0 0 0 -16 0 17.792 17.792 0 0 1 -9.888 16l-17.69 8.845a8 8 0 0 0 3.584 15.155z" fill="#ea9d2d"/><path d="m368 184v48h120l-32-48z" fill="#3b869e"/><path d="m406.38 184 32 48h19.24l-32-48z" fill="#1f6c8c"/><path d="m368 184v.01a7.93 7.93 0 0 0 1.34 4.43l29.04 43.56h19.24l-32-48z" fill="#1f6c8c"/><path d="m71.994 200a7.973 7.973 0 0 1 -3.572-.847l-17.69-8.844a33.7 33.7 0 0 1 -18.732-30.309 8 8 0 0 1 16 0 17.792 17.792 0 0 0 9.888 16l17.69 8.845a8 8 0 0 1 -3.584 15.155z" fill="#ea9d2d"/><path d="m200 152h16v16h-16z" fill="#a83b32"/><path d="m232 152h16v16h-16z" fill="#a83b32"/><path d="m264 152h16v16h-16z" fill="#a83b32"/><path d="m296 152h16v16h-16z" fill="#a83b32"/><path d="m328 152h16v16h-16z" fill="#a83b32"/><path d="m168 152h16v16h-16z" fill="#a83b32"/><path d="m416 136h-320a48 48 0 0 1 -48-48v-24a168.417 168.417 0 0 0 86.648 24h242.7a168.417 168.417 0 0 0 86.652-24v24a48 48 0 0 1 -48 48z" fill="#3b869e"/><path d="m248.94 56-15.99 32h-17.89l15.99-32z" fill="#1b5e7a"/><path d="m296.95 88h-17.89l-16.01-32h17.9z" fill="#1b5e7a"/><path d="m216.94 56-15.99 32h-17.9l16-32z" fill="#1b5e7a"/><path d="m184.94 56-15.99 32h-17.9l16-32z" fill="#1b5e7a"/><path d="m328.95 88h-17.89l-16-32h17.89z" fill="#1b5e7a"/><path d="m360.95 88h-17.89l-16-32h17.89z" fill="#1b5e7a"/><path d="m368 248h48v16h-48z" fill="#a83b32"/><path d="m432 248h16v16h-16z" fill="#a83b32"/><path d="m144 184v48h-120l32-48z" fill="#3b869e"/><path d="m105.62 184-32 48h-19.24l32-48z" fill="#1f6c8c"/><path d="m144 184v.01a7.93 7.93 0 0 1 -1.34 4.43l-29.04 43.56h-19.24l32-48z" fill="#1f6c8c"/><path d="m96 248h48v16h-48z" fill="#a83b32"/><path d="m64 248h16v16h-16z" fill="#a83b32"/><path d="m72 280h72v16h-72z" fill="#a8a8a8" transform="matrix(-1 0 0 -1 216 576)"/><path d="m144 408h32v80h-32z" fill="#ea9d2d"/><path d="m336 408h32v80h-32z" fill="#ea9d2d"/><path d="m440 440h32v48h-32z" fill="#ea9d2d"/><path d="m40 440h32v48h-32z" fill="#ea9d2d"/><g fill="#a83b32"><path d="m176 248h160v16h-160z"/><path d="m128 136h256v8h-256z"/><path d="m40 232h104v8h-104z"/><path d="m368 232h104v8h-104z"/><path d="m40 280h32v8h-32z"/><path d="m440 280h32v8h-32z"/><path d="m144 184h32v8h-32z"/><path d="m336 184h32v8h-32z"/></g></g></svg>