<svg id="Flat" height="512" viewBox="0 0 512 512" width="512" xmlns="http://www.w3.org/2000/svg"><path d="m144 248h224v64h-224z" fill="#e0b999"/><path d="m144 344h224v144h-224z" fill="#e0b999"/><path d="m128 216h256v32h-256z" fill="#f7cca9"/><path d="m128 312h256v32h-256z" fill="#f7cca9"/><path d="m144 184h224v32h-224z" fill="#e0b999"/><path d="m256 72a8 8 0 0 1 -8-8v-32a8 8 0 0 1 16 0v32a8 8 0 0 1 -8 8z" fill="#6a7073"/><path d="m360 184h-200l88-128h16z" fill="#7e8589"/><path d="m256 104a16 16 0 0 0 -16 16v16h32v-16a16 16 0 0 0 -16-16z" fill="#6a7073"/><g fill="#734b39"><path d="m256 184a16 16 0 0 0 -16 16v16h32v-16a16 16 0 0 0 -16-16z"/><path d="m320 184a16 16 0 0 0 -16 16v16h32v-16a16 16 0 0 0 -16-16z"/><path d="m192 184a16 16 0 0 0 -16 16v16h32v-16a16 16 0 0 0 -16-16z"/><path d="m192 408a16 16 0 0 0 -16 16v16h32v-16a16 16 0 0 0 -16-16z"/><path d="m256 408a16 16 0 0 0 -16 16v16h32v-16a16 16 0 0 0 -16-16z"/><path d="m320 408a16 16 0 0 0 -16 16v16h32v-16a16 16 0 0 0 -16-16z"/><path d="m256 280a16 16 0 0 0 -16 16v16h32v-16a16 16 0 0 0 -16-16z"/><path d="m320 280a16 16 0 0 0 -16 16v16h32v-16a16 16 0 0 0 -16-16z"/><path d="m192 280a16 16 0 0 0 -16 16v16h32v-16a16 16 0 0 0 -16-16z"/><circle cx="192" cy="376" r="8"/><circle cx="256" cy="376" r="8"/><circle cx="320" cy="376" r="8"/></g><path d="m384 192h-256a8 8 0 0 1 0-16h256a8 8 0 0 1 0 16z" fill="#f7cca9"/></svg>