<?xml version="1.0" encoding="UTF-8" standalone="no" ?>
<!DOCTYPE svg PUBLIC "-//W3C//DTD SVG 1.1//EN" "http://www.w3.org/Graphics/SVG/1.1/DTD/svg11.dtd">
<svg xmlns="http://www.w3.org/2000/svg" xmlns:xlink="http://www.w3.org/1999/xlink" version="1.1" width="240" height="240" viewBox="0 0 240 240" xml:space="preserve">
<desc>Created with Fabric.js 4.2.0</desc>
<defs>
</defs>
<rect x="0" y="0" width="100%" height="100%" fill="transparent"></rect>
<g transform="matrix(1 0 0 1 120 120)" id="270bfea7-d04e-49ff-82f1-618e25929b9b"  >
<rect style="stroke: none; stroke-width: 1; stroke-dasharray: none; stroke-linecap: butt; stroke-dashoffset: 0; stroke-linejoin: miter; stroke-miterlimit: 4; fill: rgb(255,255,255); fill-opacity: 0; fill-rule: nonzero; opacity: 1;" vector-effect="non-scaling-stroke"  x="-120" y="-120" rx="0" ry="0" width="240" height="240" />
</g>
<g transform="matrix(Infinity NaN NaN Infinity 0 0)" id="de792c1d-a81b-4fa3-814a-837ca95bb92b"  >
</g>
<g transform="matrix(0.47 0 0 0.47 119.84 119.72)"  >
<g style="" vector-effect="non-scaling-stroke"   >
		<g transform="matrix(1 0 0 1 0 24)"  >
<path style="stroke: none; stroke-width: 1; stroke-dasharray: none; stroke-linecap: butt; stroke-dashoffset: 0; stroke-linejoin: miter; stroke-miterlimit: 4; fill: rgb(224,185,153); fill-rule: nonzero; opacity: 1;" vector-effect="non-scaling-stroke"  transform=" translate(-256, -280)" d="M 144 248 L 368 248 L 368 312 L 144 312 z" stroke-linecap="round" />
</g>
		<g transform="matrix(1 0 0 1 0 160)"  >
<path style="stroke: none; stroke-width: 1; stroke-dasharray: none; stroke-linecap: butt; stroke-dashoffset: 0; stroke-linejoin: miter; stroke-miterlimit: 4; fill: rgb(224,185,153); fill-rule: nonzero; opacity: 1;" vector-effect="non-scaling-stroke"  transform=" translate(-256, -416)" d="M 144 344 L 368 344 L 368 488 L 144 488 z" stroke-linecap="round" />
</g>
		<g transform="matrix(1 0 0 1 0 -24)"  >
<path style="stroke: none; stroke-width: 1; stroke-dasharray: none; stroke-linecap: butt; stroke-dashoffset: 0; stroke-linejoin: miter; stroke-miterlimit: 4; fill: rgb(247,204,169); fill-rule: nonzero; opacity: 1;" vector-effect="non-scaling-stroke"  transform=" translate(-256, -232)" d="M 128 216 L 384 216 L 384 248 L 128 248 z" stroke-linecap="round" />
</g>
		<g transform="matrix(1 0 0 1 0 72)"  >
<path style="stroke: none; stroke-width: 1; stroke-dasharray: none; stroke-linecap: butt; stroke-dashoffset: 0; stroke-linejoin: miter; stroke-miterlimit: 4; fill: rgb(247,204,169); fill-rule: nonzero; opacity: 1;" vector-effect="non-scaling-stroke"  transform=" translate(-256, -328)" d="M 128 312 L 384 312 L 384 344 L 128 344 z" stroke-linecap="round" />
</g>
		<g transform="matrix(1 0 0 1 0 -56)"  >
<path style="stroke: none; stroke-width: 1; stroke-dasharray: none; stroke-linecap: butt; stroke-dashoffset: 0; stroke-linejoin: miter; stroke-miterlimit: 4; fill: rgb(224,185,153); fill-rule: nonzero; opacity: 1;" vector-effect="non-scaling-stroke"  transform=" translate(-256, -200)" d="M 144 184 L 368 184 L 368 216 L 144 216 z" stroke-linecap="round" />
</g>
		<g transform="matrix(1 0 0 1 0 -208)"  >
<path style="stroke: none; stroke-width: 1; stroke-dasharray: none; stroke-linecap: butt; stroke-dashoffset: 0; stroke-linejoin: miter; stroke-miterlimit: 4; fill: rgb(106,112,115); fill-rule: nonzero; opacity: 1;" vector-effect="non-scaling-stroke"  transform=" translate(-256, -48)" d="M 256 72 C 251.58172200135365 72 248 68.41827799864635 248 64 L 248 32 C 248 27.581722001353654 251.58172200135365 24 256 24 C 260.4182779986464 24 264 27.58172200135365 264 31.999999999999996 L 264 64 C 264 68.41827799864635 260.4182779986464 72 256 72 z" stroke-linecap="round" />
</g>
		<g transform="matrix(1 0 0 1 4 -136)"  >
<path style="stroke: none; stroke-width: 1; stroke-dasharray: none; stroke-linecap: butt; stroke-dashoffset: 0; stroke-linejoin: miter; stroke-miterlimit: 4; fill: rgb(126,133,137); fill-rule: nonzero; opacity: 1;" vector-effect="non-scaling-stroke"  transform=" translate(-260, -120)" d="M 360 184 L 160 184 L 248 56 L 264 56 z" stroke-linecap="round" />
</g>
		<g transform="matrix(1 0 0 1 0 -136)"  >
<path style="stroke: none; stroke-width: 1; stroke-dasharray: none; stroke-linecap: butt; stroke-dashoffset: 0; stroke-linejoin: miter; stroke-miterlimit: 4; fill: rgb(106,112,115); fill-rule: nonzero; opacity: 1;" vector-effect="non-scaling-stroke"  transform=" translate(-256, -120)" d="M 256 104 C 247.1634440027073 104 240 111.16344400270731 240 120 L 240 136 L 272 136 L 272 120 C 272 111.16344400270731 264.8365559972927 104 256 104 z" stroke-linecap="round" />
</g>
		<g transform="matrix(1 0 0 1 0 -56)"  >
<path style="stroke: none; stroke-width: 1; stroke-dasharray: none; stroke-linecap: butt; stroke-dashoffset: 0; stroke-linejoin: miter; stroke-miterlimit: 4; fill: rgb(115,75,57); fill-rule: nonzero; opacity: 1;" vector-effect="non-scaling-stroke"  transform=" translate(-256, -200)" d="M 256 184 C 247.1634440027073 184 240 191.1634440027073 240 200 L 240 216 L 272 216 L 272 200 C 272 191.1634440027073 264.8365559972927 184 256 184 z" stroke-linecap="round" />
</g>
		<g transform="matrix(1 0 0 1 64 -56)"  >
<path style="stroke: none; stroke-width: 1; stroke-dasharray: none; stroke-linecap: butt; stroke-dashoffset: 0; stroke-linejoin: miter; stroke-miterlimit: 4; fill: rgb(115,75,57); fill-rule: nonzero; opacity: 1;" vector-effect="non-scaling-stroke"  transform=" translate(-320, -200)" d="M 320 184 C 311.1634440027073 184 304 191.1634440027073 304 200 L 304 216 L 336 216 L 336 200 C 336 191.1634440027073 328.8365559972927 184 320 184 z" stroke-linecap="round" />
</g>
		<g transform="matrix(1 0 0 1 -64 -56)"  >
<path style="stroke: none; stroke-width: 1; stroke-dasharray: none; stroke-linecap: butt; stroke-dashoffset: 0; stroke-linejoin: miter; stroke-miterlimit: 4; fill: rgb(115,75,57); fill-rule: nonzero; opacity: 1;" vector-effect="non-scaling-stroke"  transform=" translate(-192, -200)" d="M 192 184 C 183.1634440027073 184 176 191.1634440027073 176 200 L 176 216 L 208 216 L 208 200 C 208 191.1634440027073 200.8365559972927 184 192 184 z" stroke-linecap="round" />
</g>
		<g transform="matrix(1 0 0 1 -64 168)"  >
<path style="stroke: none; stroke-width: 1; stroke-dasharray: none; stroke-linecap: butt; stroke-dashoffset: 0; stroke-linejoin: miter; stroke-miterlimit: 4; fill: rgb(115,75,57); fill-rule: nonzero; opacity: 1;" vector-effect="non-scaling-stroke"  transform=" translate(-192, -424)" d="M 192 408 C 183.1634440027073 408 176 415.1634440027073 176 424 L 176 440 L 208 440 L 208 424 C 208 415.1634440027073 200.8365559972927 408 192 408 z" stroke-linecap="round" />
</g>
		<g transform="matrix(1 0 0 1 0 168)"  >
<path style="stroke: none; stroke-width: 1; stroke-dasharray: none; stroke-linecap: butt; stroke-dashoffset: 0; stroke-linejoin: miter; stroke-miterlimit: 4; fill: rgb(115,75,57); fill-rule: nonzero; opacity: 1;" vector-effect="non-scaling-stroke"  transform=" translate(-256, -424)" d="M 256 408 C 247.1634440027073 408 240 415.1634440027073 240 424 L 240 440 L 272 440 L 272 424 C 272 415.1634440027073 264.8365559972927 408 256 408 z" stroke-linecap="round" />
</g>
		<g transform="matrix(1 0 0 1 64 168)"  >
<path style="stroke: none; stroke-width: 1; stroke-dasharray: none; stroke-linecap: butt; stroke-dashoffset: 0; stroke-linejoin: miter; stroke-miterlimit: 4; fill: rgb(115,75,57); fill-rule: nonzero; opacity: 1;" vector-effect="non-scaling-stroke"  transform=" translate(-320, -424)" d="M 320 408 C 311.1634440027073 408 304 415.1634440027073 304 424 L 304 440 L 336 440 L 336 424 C 336 415.1634440027073 328.8365559972927 408 320 408 z" stroke-linecap="round" />
</g>
		<g transform="matrix(1 0 0 1 0 40)"  >
<path style="stroke: none; stroke-width: 1; stroke-dasharray: none; stroke-linecap: butt; stroke-dashoffset: 0; stroke-linejoin: miter; stroke-miterlimit: 4; fill: rgb(115,75,57); fill-rule: nonzero; opacity: 1;" vector-effect="non-scaling-stroke"  transform=" translate(-256, -296)" d="M 256 280 C 247.1634440027073 280 240 287.1634440027073 240 296 L 240 312 L 272 312 L 272 296 C 272 287.1634440027073 264.8365559972927 280 256 280 z" stroke-linecap="round" />
</g>
		<g transform="matrix(1 0 0 1 64 40)"  >
<path style="stroke: none; stroke-width: 1; stroke-dasharray: none; stroke-linecap: butt; stroke-dashoffset: 0; stroke-linejoin: miter; stroke-miterlimit: 4; fill: rgb(115,75,57); fill-rule: nonzero; opacity: 1;" vector-effect="non-scaling-stroke"  transform=" translate(-320, -296)" d="M 320 280 C 311.1634440027073 280 304 287.1634440027073 304 296 L 304 312 L 336 312 L 336 296 C 336 287.1634440027073 328.8365559972927 280 320 280 z" stroke-linecap="round" />
</g>
		<g transform="matrix(1 0 0 1 -64 40)"  >
<path style="stroke: none; stroke-width: 1; stroke-dasharray: none; stroke-linecap: butt; stroke-dashoffset: 0; stroke-linejoin: miter; stroke-miterlimit: 4; fill: rgb(115,75,57); fill-rule: nonzero; opacity: 1;" vector-effect="non-scaling-stroke"  transform=" translate(-192, -296)" d="M 192 280 C 183.1634440027073 280 176 287.1634440027073 176 296 L 176 312 L 208 312 L 208 296 C 208 287.1634440027073 200.8365559972927 280 192 280 z" stroke-linecap="round" />
</g>
		<g transform="matrix(1 0 0 1 -64 120)"  >
<circle style="stroke: none; stroke-width: 1; stroke-dasharray: none; stroke-linecap: butt; stroke-dashoffset: 0; stroke-linejoin: miter; stroke-miterlimit: 4; fill: rgb(115,75,57); fill-rule: nonzero; opacity: 1;" vector-effect="non-scaling-stroke"  cx="0" cy="0" r="8" />
</g>
		<g transform="matrix(1 0 0 1 0 120)"  >
<circle style="stroke: none; stroke-width: 1; stroke-dasharray: none; stroke-linecap: butt; stroke-dashoffset: 0; stroke-linejoin: miter; stroke-miterlimit: 4; fill: rgb(115,75,57); fill-rule: nonzero; opacity: 1;" vector-effect="non-scaling-stroke"  cx="0" cy="0" r="8" />
</g>
		<g transform="matrix(1 0 0 1 64 120)"  >
<circle style="stroke: none; stroke-width: 1; stroke-dasharray: none; stroke-linecap: butt; stroke-dashoffset: 0; stroke-linejoin: miter; stroke-miterlimit: 4; fill: rgb(115,75,57); fill-rule: nonzero; opacity: 1;" vector-effect="non-scaling-stroke"  cx="0" cy="0" r="8" />
</g>
		<g transform="matrix(1 0 0 1 0 -72)"  >
<path style="stroke: none; stroke-width: 1; stroke-dasharray: none; stroke-linecap: butt; stroke-dashoffset: 0; stroke-linejoin: miter; stroke-miterlimit: 4; fill: rgb(247,204,169); fill-rule: nonzero; opacity: 1;" vector-effect="non-scaling-stroke"  transform=" translate(-256, -184)" d="M 384 192 L 128 192 C 123.58172200135365 192 120 188.41827799864635 120 184 C 120 179.58172200135365 123.58172200135365 176 128 176 L 384 176 C 388.4182779986464 176 392 179.58172200135365 392 184 C 392 188.41827799864635 388.4182779986464 192 384 192 z" stroke-linecap="round" />
</g>
</g>
</g>
<g transform="matrix(0.1 0 0 0.1 59.9 203.46)"  >
<g style="" vector-effect="non-scaling-stroke"   >
		<g transform="matrix(1.33 0 0 1.33 0 -192.36)"  >
<path style="stroke: none; stroke-width: 1; stroke-dasharray: none; stroke-linecap: butt; stroke-dashoffset: 0; stroke-linejoin: miter; stroke-miterlimit: 4; fill: rgb(164,98,68); fill-rule: nonzero; opacity: 1;" vector-effect="non-scaling-stroke"  transform=" translate(-256, -42.66)" d="M 436.730469 85.3125 L 75.27343800000006 85.3125 L 75.27343800000006 21.054688 C 75.27343800000006 9.429687999999999 84.69921900000006 0.00390625 96.32421900000006 0.00390625 L 154.34375000000006 0.00390625 L 177.24218800000006 14.460938 L 205.26171900000006 0.00390625 L 307.25390600000003 0.00390625 L 339.4375 17.664062 L 360.41015600000003 0.00390625 L 415.67578100000003 0.00390625 C 427.30468800000006 0.00390625 436.730469 9.429688 436.730469 21.054688 z M 436.730469 85.3125" stroke-linecap="round" />
</g>
		<g transform="matrix(1.33 0 0 1.33 301.05 -71.16)"  >
<path style="stroke: none; stroke-width: 1; stroke-dasharray: none; stroke-linecap: butt; stroke-dashoffset: 0; stroke-linejoin: miter; stroke-miterlimit: 4; fill: rgb(255,156,38); fill-rule: nonzero; opacity: 1;" vector-effect="non-scaling-stroke"  transform=" translate(-481.79, -133.56)" d="M 478.207031 163.421875 L 463.01171899999997 163.421875 C 458.867188 163.421875 455.51171899999997 160.0625 455.51171899999997 155.921875 C 455.51171899999997 151.777344 458.867188 148.421875 463.01171899999997 148.421875 L 478.207031 148.421875 C 486.40234399999997 148.421875 493.066406 141.753906 493.066406 133.558594 C 493.066406 125.363281 486.40234399999997 118.699219 478.207031 118.699219 L 463.01171899999997 118.699219 C 458.867188 118.699219 455.51171899999997 115.339844 455.51171899999997 111.199219 C 455.51171899999997 107.054688 458.867188 103.699219 463.01171899999997 103.699219 L 478.207031 103.699219 C 494.671875 103.699219 508.066406 117.09375 508.066406 133.558594 C 508.066406 150.023438 494.671875 163.421875 478.207031 163.421875 z M 478.207031 163.421875" stroke-linecap="round" />
</g>
		<g transform="matrix(1.33 0 0 1.33 319.46 -25.2)"  >
<path style="stroke: none; stroke-width: 1; stroke-dasharray: none; stroke-linecap: butt; stroke-dashoffset: 0; stroke-linejoin: miter; stroke-miterlimit: 4; fill: rgb(255,189,72); fill-rule: nonzero; opacity: 1;" vector-effect="non-scaling-stroke"  transform=" translate(-495.59, -168.03)" d="M 504.5 201.160156 C 501.394531 201.160156 498.492188 199.21875 497.414062 196.121094 L 479.601562 144.863281 C 478.242188 140.953125 480.3125 136.679688 484.226562 135.320312 C 488.140625 133.960938 492.414062 136.027344 493.773438 139.941406 L 511.582031 191.199219 C 512.9414059999999 195.113281 510.87109399999997 199.386719 506.960938 200.746094 C 506.144531 201.027344 505.3125 201.160156 504.5 201.160156 z M 504.5 201.160156" stroke-linecap="round" />
</g>
		<g transform="matrix(1.33 0 0 1.33 -301.72 -71.16)"  >
<path style="stroke: none; stroke-width: 1; stroke-dasharray: none; stroke-linecap: butt; stroke-dashoffset: 0; stroke-linejoin: miter; stroke-miterlimit: 4; fill: rgb(255,156,38); fill-rule: nonzero; opacity: 1;" vector-effect="non-scaling-stroke"  transform=" translate(-29.71, -133.56)" d="M 47.988281 163.421875 L 33.792969 163.421875 C 17.328125 163.421875 3.9335939999999994 150.023438 3.9335939999999994 133.558594 C 3.9335939999999994 117.09375 17.328125 103.699219 33.792969 103.699219 L 47.988281 103.699219 C 52.132812 103.699219 55.488281 107.054688 55.488281 111.199219 C 55.488281 115.339844 52.132812 118.699219 47.988281 118.699219 L 33.792969 118.699219 C 25.597656 118.699219 18.933594 125.363281 18.933594 133.558594 C 18.933594 141.753906 25.597656 148.421875 33.792969 148.421875 L 47.988281 148.421875 C 52.132812 148.421875 55.488281 151.777344 55.488281 155.921875 C 55.488281 160.0625 52.132812 163.421875 47.988281 163.421875 z M 47.988281 163.421875" stroke-linecap="round" />
</g>
		<g transform="matrix(1.33 0 0 1.33 -319.46 -25.2)"  >
<path style="stroke: none; stroke-width: 1; stroke-dasharray: none; stroke-linecap: butt; stroke-dashoffset: 0; stroke-linejoin: miter; stroke-miterlimit: 4; fill: rgb(255,189,72); fill-rule: nonzero; opacity: 1;" vector-effect="non-scaling-stroke"  transform=" translate(-16.41, -168.03)" d="M 7.503906 201.160156 C 6.683593999999999 201.160156 5.855468999999999 201.027344 5.0390619999999995 200.746094 C 1.1289059999999993 199.386719 -0.9414060000000006 195.113281 0.41796899999999937 191.199219 L 18.226561999999998 139.941406 C 19.585938 136.03125 23.859374999999996 133.960938 27.773438 135.320312 C 31.6875 136.679688 33.757812 140.953125 32.398438 144.863281 L 14.585937999999999 196.121094 C 13.511719 199.21875 10.605469 201.160156 7.503905999999999 201.160156 z M 7.503906 201.160156" stroke-linecap="round" />
</g>
		<g transform="matrix(1.33 0 0 1.33 0 41.07)"  >
<path style="stroke: none; stroke-width: 1; stroke-dasharray: none; stroke-linecap: butt; stroke-dashoffset: 0; stroke-linejoin: miter; stroke-miterlimit: 4; fill: rgb(200,125,91); fill-rule: nonzero; opacity: 1;" vector-effect="non-scaling-stroke"  transform=" translate(-256, -217.73)" d="M 75.273438 144.035156 L 436.73046899999997 144.035156 L 436.73046899999997 291.42578100000003 L 75.273438 291.42578100000003 z M 75.273438 144.035156" stroke-linecap="round" />
</g>
		<g transform="matrix(1.33 0 0 1.33 0 69.86)"  >
<path style="stroke: none; stroke-width: 1; stroke-dasharray: none; stroke-linecap: butt; stroke-dashoffset: 0; stroke-linejoin: miter; stroke-miterlimit: 4; fill: rgb(164,98,68); fill-rule: nonzero; opacity: 1;" vector-effect="non-scaling-stroke"  transform=" translate(-256, -239.32)" d="M 76.992188 144.199219 L 76.984375 334.44921899999997 L 435.011719 334.44921899999997 L 435.011719 144.19921899999997 z M 130.453125 269.37109399999997 L 96.34375 269.378906 L 96.351562 160.56249999999997 L 130.460938 160.56249999999997 z M 319.179688 269.35937499999994 L 192.8125 269.37109399999997 L 192.820312 160.56249999999997 L 319.179688 160.55078099999997 z M 415.648438 269.35156199999994 L 381.539062 269.35937499999994 L 381.539062 160.55078099999994 L 415.648438 160.55078099999994 z M 415.648438 269.35156199999994" stroke-linecap="round" />
</g>
		<g transform="matrix(1.33 0 0 1.33 0 -26.27)"  >
<path style="stroke: none; stroke-width: 1; stroke-dasharray: none; stroke-linecap: butt; stroke-dashoffset: 0; stroke-linejoin: miter; stroke-miterlimit: 4; fill: rgb(255,223,74); fill-rule: nonzero; opacity: 1;" vector-effect="non-scaling-stroke"  transform=" translate(-256, -167.22)" d="M 463.578125 74.824219 C 461.40625 47.914062 456.894531 25.265625 451.00390600000003 10.789062000000001 C 448.355469 4.273438000000001 442.042969 0.003906250000001776 435.011719 0.003906250000001776 L 408.95703100000003 0.003906250000001776 C 416.652344 10.664062000000001 422.89453100000003 33.929688 426.16406200000006 63.6875 C 426.8164060000001 69.625 422.1992190000001 74.828125 416.22656200000006 74.828125 L 376.22656200000006 74.828125 C 371.1054690000001 74.828125 366.81640600000003 70.953125 366.28515600000003 65.859375 C 363.08593800000006 35.0625 356.730469 10.921875 348.84765600000003 0.00390625 L 312.48828100000003 0.00390625 C 320.18750000000006 10.664062 326.42968800000006 33.929688 329.69531200000006 63.691406 C 330.3476560000001 69.625 325.73437500000006 74.828125 319.7617190000001 74.828125 L 192.2382810000001 74.828125 C 186.26562500000009 74.828125 181.65234400000008 69.628906 182.30468800000008 63.691406 C 185.5703120000001 33.929688 191.81250000000009 10.664062000000001 199.51171900000008 0.00390625 L 163.15234400000008 0.00390625 C 155.2695310000001 10.921875 148.9101560000001 35.0625 145.71484400000008 65.859375 C 145.18359400000008 70.953125 140.89062500000009 74.828125 135.77343800000008 74.828125 L 95.77343800000008 74.828125 C 89.80078100000009 74.828125 85.18750000000009 69.625 85.83593800000008 63.6875 C 89.10546900000008 33.929688 95.34375000000009 10.664062000000001 103.04296900000008 0.00390625 L 76.98828100000009 0.00390625 C 69.95312500000009 0.00390625 63.644531000000086 4.273438 60.996094000000085 10.789062 C 55.105469000000085 25.265625 50.593750000000085 47.914062 48.421875000000085 74.824219 L 48.41406200000009 74.824219 C 47.488281000000086 86.285156 46.988281000000086 98.507812 46.988281000000086 111.195312 L 46.988281000000086 147.5625 L 46.996094000000085 147.5625 L 46.988281000000086 334.445312 L 83.34375000000009 334.445312 L 83.34375000000009 334.44140600000003 L 143.45312500000009 334.44140600000003 L 143.45312500000009 334.445312 L 179.81250000000009 334.445312 L 179.81250000000009 334.44140600000003 L 332.1875000000001 334.44140600000003 L 332.1875000000001 334.445312 L 368.5468750000001 334.445312 L 368.5468750000001 334.44140600000003 L 428.6562500000001 334.44140600000003 L 428.6562500000001 334.445312 L 465.0117190000001 334.445312 L 465.0117190000001 334.44140600000003 L 465.01562500000006 334.44140600000003 L 465.01562500000006 282.35156200000006 L 465.0117190000001 282.35156200000006 L 465.0039060000001 147.55078100000006 L 465.0156250000001 147.55078100000006 L 465.0156250000001 111.19531200000006 C 465.0156250000001 98.50781200000006 464.5156250000001 86.28515600000006 463.58984400000014 74.82421900000006 z M 133.45703099999997 282.375 L 93.34765599999997 282.378906 C 87.82421899999997 282.378906 83.34374999999997 277.898438 83.34374999999997 272.378906 L 83.35156199999997 157.55859399999997 C 83.35156199999997 152.03515599999997 87.82812499999997 147.56249999999997 93.35156199999997 147.55859399999997 L 133.46093799999997 147.55859399999997 C 138.98437499999997 147.55859399999997 143.46093799999997 152.03515599999997 143.46093799999997 157.55859399999997 L 143.45703099999997 272.375 C 143.45703099999997 277.898438 138.97656199999997 282.375 133.45703099999997 282.375 z M 179.81249999999997 272.37109399999997 L 179.82031199999997 157.55859399999997 C 179.82031199999997 152.03515599999997 184.29687499999997 147.55859399999997 189.82031199999997 147.55859399999997 L 322.17968799999994 147.55468799999997 C 327.70312499999994 147.55468799999997 332.17968799999994 152.03124999999997 332.17968799999994 157.55468799999997 L 332.18749999999994 272.359375 C 332.18749999999994 277.882812 327.7070309999999 282.359375 322.18749999999994 282.359375 L 189.81640599999994 282.371094 C 184.28906199999994 282.371094 179.81249999999994 277.89453100000003 179.81249999999994 272.371094 z M 368.54296899999997 272.35546899999997 L 368.53906199999994 157.55468799999997 C 368.53906199999994 152.03124999999997 373.01562499999994 147.55468799999997 378.53906199999994 147.55468799999997 L 418.64843799999994 147.55468799999997 C 424.17187499999994 147.55468799999997 428.64843799999994 152.03124999999997 428.64843799999994 157.55468799999997 L 428.6523439999999 272.35546899999997 C 428.6523439999999 277.878906 424.1757809999999 282.35546899999997 418.6523439999999 282.35546899999997 L 378.5429689999999 282.35937499999994 C 373.0195309999999 282.35546899999997 368.5429689999999 277.8789059999999 368.5429689999999 272.35546899999997 z M 368.54296899999997 272.35546899999997" stroke-linecap="round" />
</g>
		<g transform="matrix(1.33 0 0 1.33 251.1 -26.28)"  >
<path style="stroke: none; stroke-width: 1; stroke-dasharray: none; stroke-linecap: butt; stroke-dashoffset: 0; stroke-linejoin: miter; stroke-miterlimit: 4; fill: rgb(255,189,72); fill-rule: nonzero; opacity: 1;" vector-effect="non-scaling-stroke"  transform=" translate(-444.32, -167.22)" d="M 463.578125 74.820312 C 461.410156 47.910156 456.894531 25.265625 451.00390600000003 10.789062000000001 C 448.355469 4.273438000000001 442.042969 0.003906250000001776 435.011719 0.003906250000001776 L 423.640625 0.003906250000001776 C 432.273438 11.960938000000002 439.07421899999997 39.773438 441.91015600000003 74.820312 L 441.917969 74.820312 C 442.839844 86.28125 443.339844 98.511719 443.339844 111.191406 L 443.339844 147.550781 L 443.328125 147.550781 L 443.339844 282.351562 L 443.339844 334.44140600000003 L 465.007812 334.44140600000003 L 465.007812 282.35156200000006 L 465 147.55078100000006 L 465.007812 147.55078100000006 L 465.007812 111.19140600000006 C 465.007812 98.51171900000006 464.507812 86.28125000000006 463.589844 74.82031200000006 z M 463.578125 74.820312" stroke-linecap="round" />
</g>
		<g transform="matrix(1.33 0 0 1.33 0 -175.1)"  >
<path style="stroke: none; stroke-width: 1; stroke-dasharray: none; stroke-linecap: butt; stroke-dashoffset: 0; stroke-linejoin: miter; stroke-miterlimit: 4; fill: rgb(140,72,44); fill-rule: nonzero; opacity: 1;" vector-effect="non-scaling-stroke"  transform=" translate(-256, -55.6)" d="M 445.011719 111.203125 L 66.99218800000006 111.203125 C 66.99218800000006 68.671875 72.59765600000006 31.421875 80.98828100000006 10.777344 C 83.63671900000006 4.265624999999999 89.94921900000006 0.00390625 96.98046900000006 0.00390625 L 119.08203100000006 0.00390625 L 113.59375000000006 7.613281 C 108.91406200000006 14.09375 102.70312500000006 31.902344 99.13281200000006 61.84375 L 133.06250000000006 61.84375 C 136.64062500000006 29.121094 142.91406200000006 10.421875 148.10156200000006 0.00390625 L 165.64843800000006 0.00390625 L 177.24218800000006 14.460938 L 196.00390600000006 0.00390625 L 215.53906200000006 0.00390625 L 210.05078100000006 7.613281 C 205.37109400000006 14.09375 199.17187500000006 31.890625 195.60156200000006 61.84375 L 316.39843800000006 61.832031 C 312.82812500000006 31.890625 306.62890600000003 14.09375 301.9492190000001 7.613281000000001 L 296.4609380000001 0.003906250000000888 L 312.4882810000001 0.003906250000000888 L 339.4375000000001 17.664062 L 348.8437500000001 0.00390625 L 363.8906250000001 0.00390625 C 369.08984400000014 10.421875 375.3593750000001 29.121094 378.9375000000001 61.832031 L 412.8671880000001 61.832031 C 409.3007810000001 31.902344 403.0898440000001 14.09375 398.4101560000001 7.613281000000001 L 392.9179690000001 0.003906250000000888 L 415.02343800000006 0.003906250000000888 C 422.05078100000003 0.003906250000000888 428.36328100000003 4.265625000000001 431.0117190000001 10.777344 C 439.4062500000001 31.421875 445.0117190000001 68.671875 445.0117190000001 111.203125 z M 445.011719 111.203125" stroke-linecap="round" />
</g>
		<g transform="matrix(1.33 0 0 1.33 -0.01 -175.11)"  >
<path style="stroke: none; stroke-width: 1; stroke-dasharray: none; stroke-linecap: butt; stroke-dashoffset: 0; stroke-linejoin: miter; stroke-miterlimit: 4; fill: rgb(255,189,72); fill-rule: nonzero; opacity: 1;" vector-effect="non-scaling-stroke"  transform=" translate(-256, -55.6)" d="M 408.957031 0.00390625 C 416.65234399999997 10.664062 422.894531 33.929688 426.16406199999994 63.695312 C 426.816406 69.628906 422.19921899999997 74.832031 416.22656199999994 74.832031 L 376.22656199999994 74.832031 C 371.10546899999997 74.832031 366.8164059999999 70.957031 366.2851559999999 65.863281 C 363.08593799999994 35.066406 356.7304689999999 10.925781 348.8437499999999 0.00390625 L 312.4882809999999 0.00390625 C 320.18749999999994 10.667969 326.42968799999994 33.9375 329.69531199999994 63.695312 C 330.347656 69.632812 325.73046899999997 74.832031 319.75781199999994 74.832031 L 192.23828099999994 74.839844 C 186.26171899999994 74.839844 181.64843799999994 69.640625 182.30078099999994 63.703125 C 185.57031199999994 33.9375 191.80859399999994 10.667969 199.50390599999994 0 L 163.14843799999994 0 C 155.26562499999994 10.921875 148.91406199999994 35.070312 145.71874999999994 65.871094 C 145.18749999999994 70.964844 140.89453099999994 74.839844 135.77343799999994 74.839844 L 95.77734399999994 74.839844 C 89.80078099999994 74.839844 85.18749999999994 69.640625 85.83984399999994 63.703125 C 89.10546899999994 33.9375 95.35156199999994 10.664062000000001 103.05078099999994 0 L 76.97265599999994 0 C 69.94140599999994 0 63.628905999999944 4.265625 60.98437499999994 10.773438 C 52.58593799999994 31.417969 46.98437499999994 68.671875 46.98437499999994 111.199219 L 443.33984399999997 111.1875 L 465.00781199999994 111.1875 C 465.00781199999994 68.664062 459.40234399999997 31.417969 451.01171899999997 10.777344 C 448.363281 4.265624999999999 442.050781 0 435.019531 0 z M 408.957031 0.00390625" stroke-linecap="round" />
</g>
		<g transform="matrix(1.33 0 0 1.33 251.1 -175.11)"  >
<path style="stroke: none; stroke-width: 1; stroke-dasharray: none; stroke-linecap: butt; stroke-dashoffset: 0; stroke-linejoin: miter; stroke-miterlimit: 4; fill: rgb(255,156,38); fill-rule: nonzero; opacity: 1;" vector-effect="non-scaling-stroke"  transform=" translate(-444.33, -55.6)" d="M 423.644531 0.00390625 C 432.273438 11.960938 439.078125 39.773438 441.910156 74.820312 L 441.921875 74.820312 C 442.839844 86.28125 443.339844 98.511719 443.339844 111.191406 L 465.011719 111.191406 C 465.011719 68.664062 459.402344 31.417969 451.011719 10.777344 C 448.36328100000003 4.265624999999999 442.05078100000003 0.00390625 435.02343800000006 0.00390625 z M 423.644531 0.00390625" stroke-linecap="round" />
</g>
		<g transform="matrix(1.33 0 0 1.33 0 -67.07)"  >
<path style="stroke: none; stroke-width: 1; stroke-dasharray: none; stroke-linecap: butt; stroke-dashoffset: 0; stroke-linejoin: miter; stroke-miterlimit: 4; fill: rgb(249,228,143); fill-rule: nonzero; opacity: 1;" vector-effect="non-scaling-stroke"  transform=" translate(-256, -136.63)" d="M 230.476562 176.355469 L 230.476562 96.90625 C 230.476562 94.066406 228.585938 91.625 225.878906 90.765625 C 219.21875 88.652344 214.550781 82.058594 215.410156 74.523438 C 216.179688 67.761719 221.542969 62.238281 228.28125 61.292969 C 230.621094 60.964844 232.875 61.167969 234.941406 61.804688 C 237.941406 62.726562 241.074219 61.351562 242.527344 58.570312 C 245.054688 53.738281 250.125 50.453125 255.972656 50.453125 C 261.804688 50.453125 266.890625 53.75 269.445312 58.582031 C 270.91015600000003 61.359375 274.05078100000003 62.734375 277.05078100000003 61.808594 C 279.121094 61.167969 281.37890600000003 60.960938 283.71875000000006 61.292969 C 290.45703100000003 62.238281 295.82031200000006 67.761719 296.59375000000006 74.523438 C 297.45312500000006 82.058594 292.78125000000006 88.652344 286.1210940000001 90.765625 C 283.41406200000006 91.625 281.5234380000001 94.066406 281.5234380000001 96.90625 L 281.5234380000001 176.355469 C 281.5234380000001 179.195312 283.4140620000001 181.632812 286.1210940000001 182.492188 C 292.78125000000006 184.609375 297.4531250000001 191.199219 296.5937500000001 198.738281 C 295.8203120000001 205.5 290.4570310000001 211.023438 283.7187500000001 211.96875 C 281.3828120000001 212.296875 279.1250000000001 212.089844 277.05859400000014 211.453125 C 274.0625000000001 210.53125 270.92968800000017 211.90625 269.47265600000014 214.6875 C 266.9453120000001 219.523438 261.87890600000014 222.808594 256.0312500000001 222.808594 C 250.19531200000011 222.808594 245.1093750000001 219.507812 242.5585940000001 214.675781 C 241.0898440000001 211.898438 237.9531250000001 210.527344 234.9492190000001 211.453125 C 232.88281200000011 212.089844 230.6250000000001 212.296875 228.2812500000001 211.96875 C 221.5429690000001 211.023438 216.1796880000001 205.496094 215.41015600000011 198.738281 C 214.55078100000011 191.199219 219.2187500000001 184.609375 225.87890600000011 182.492188 C 228.5859380000001 181.632812 230.47656200000011 179.195312 230.47656200000011 176.355469 z M 230.476562 176.355469" stroke-linecap="round" />
</g>
		<g transform="matrix(1.33 0 0 1.33 0 -12.13)"  >
<path style="stroke: none; stroke-width: 1; stroke-dasharray: none; stroke-linecap: butt; stroke-dashoffset: 0; stroke-linejoin: miter; stroke-miterlimit: 4; fill: rgb(255,156,38); fill-rule: nonzero; opacity: 1;" vector-effect="non-scaling-stroke"  transform=" translate(-256, -177.83)" d="M 256 191.957031 C 251.859375 191.957031 248.5 188.601562 248.5 184.457031 L 248.5 171.210938 C 248.5 167.070312 251.859375 163.710938 256 163.710938 C 260.144531 163.710938 263.5 167.070312 263.5 171.210938 L 263.5 184.457031 C 263.5 188.601562 260.144531 191.957031 256 191.957031 z M 256 191.957031" stroke-linecap="round" />
</g>
		<g transform="matrix(1.33 0 0 1.33 0 212.48)"  >
<path style="stroke: none; stroke-width: 1; stroke-dasharray: none; stroke-linecap: butt; stroke-dashoffset: 0; stroke-linejoin: miter; stroke-miterlimit: 4; fill: rgb(255,189,72); fill-rule: nonzero; opacity: 1;" vector-effect="non-scaling-stroke"  transform=" translate(-256, -346.29)" d="M 460.179688 318.726562 L 51.820312 318.726562 C 29.511719000000003 318.726562 11.429687999999999 336.8125 11.429687999999999 359.117188 C 11.429687999999999 367.257812 18.027344 373.859375 26.167969 373.859375 L 485.83203100000003 373.859375 C 493.97265600000003 373.859375 500.57031200000006 367.257812 500.57031200000006 359.117188 C 500.57031200000006 336.8125 482.48828100000003 318.726562 460.17968800000006 318.726562 z M 460.179688 318.726562" stroke-linecap="round" />
</g>
		<g transform="matrix(1.33 0 0 1.33 278.82 212.49)"  >
<path style="stroke: none; stroke-width: 1; stroke-dasharray: none; stroke-linecap: butt; stroke-dashoffset: 0; stroke-linejoin: miter; stroke-miterlimit: 4; fill: rgb(255,156,38); fill-rule: nonzero; opacity: 1;" vector-effect="non-scaling-stroke"  transform=" translate(-465.12, -346.29)" d="M 500.570312 359.121094 C 500.570312 367.257812 493.96875 373.859375 485.828125 373.859375 L 455.30859399999997 373.859375 C 463.44921899999997 373.859375 470.050781 367.257812 470.050781 359.12109399999997 C 470.050781 347.96093799999994 465.53125 337.87109399999997 458.21875 330.55859399999997 C 450.910156 323.24999999999994 440.820312 318.73046899999997 429.66015600000003 318.73046899999997 L 460.17968800000006 318.73046899999997 C 471.3398440000001 318.73046899999997 481.42968800000006 323.24999999999994 488.73828100000003 330.55859399999997 C 496.05078100000003 337.87109399999997 500.57031200000006 347.96093799999994 500.57031200000006 359.12109399999997 z M 500.570312 359.121094" stroke-linecap="round" />
</g>
</g>
</g>
<g transform="matrix(0.1 0 0 0.1 178.38 203.83)"  >
<g style="" vector-effect="non-scaling-stroke"   >
		<g transform="matrix(1.33 0 0 1.33 -0.6 -192.5)"  >
<path style="stroke: none; stroke-width: 1; stroke-dasharray: none; stroke-linecap: butt; stroke-dashoffset: 0; stroke-linejoin: miter; stroke-miterlimit: 4; fill: rgb(164,98,68); fill-rule: nonzero; opacity: 1;" vector-effect="non-scaling-stroke"  transform=" translate(-256, -42.66)" d="M 436.730469 85.3125 L 75.27343800000006 85.3125 L 75.27343800000006 21.054688 C 75.27343800000006 9.429687999999999 84.69921900000006 0.00390625 96.32421900000006 0.00390625 L 154.34375000000006 0.00390625 L 177.24218800000006 14.460938 L 205.26171900000006 0.00390625 L 307.25390600000003 0.00390625 L 339.4375 17.664062 L 360.41015600000003 0.00390625 L 415.67578100000003 0.00390625 C 427.30468800000006 0.00390625 436.730469 9.429688 436.730469 21.054688 z M 436.730469 85.3125" stroke-linecap="round" />
</g>
		<g transform="matrix(1.33 0 0 1.33 300.97 -71.25)"  >
<path style="stroke: none; stroke-width: 1; stroke-dasharray: none; stroke-linecap: butt; stroke-dashoffset: 0; stroke-linejoin: miter; stroke-miterlimit: 4; fill: rgb(255,156,38); fill-rule: nonzero; opacity: 1;" vector-effect="non-scaling-stroke"  transform=" translate(-481.79, -133.56)" d="M 478.207031 163.421875 L 463.01171899999997 163.421875 C 458.867188 163.421875 455.51171899999997 160.0625 455.51171899999997 155.921875 C 455.51171899999997 151.777344 458.867188 148.421875 463.01171899999997 148.421875 L 478.207031 148.421875 C 486.40234399999997 148.421875 493.066406 141.753906 493.066406 133.558594 C 493.066406 125.363281 486.40234399999997 118.699219 478.207031 118.699219 L 463.01171899999997 118.699219 C 458.867188 118.699219 455.51171899999997 115.339844 455.51171899999997 111.199219 C 455.51171899999997 107.054688 458.867188 103.699219 463.01171899999997 103.699219 L 478.207031 103.699219 C 494.671875 103.699219 508.066406 117.09375 508.066406 133.558594 C 508.066406 150.023438 494.671875 163.421875 478.207031 163.421875 z M 478.207031 163.421875" stroke-linecap="round" />
</g>
		<g transform="matrix(1.33 0 0 1.33 319.4 -25.31)"  >
<path style="stroke: none; stroke-width: 1; stroke-dasharray: none; stroke-linecap: butt; stroke-dashoffset: 0; stroke-linejoin: miter; stroke-miterlimit: 4; fill: rgb(255,189,72); fill-rule: nonzero; opacity: 1;" vector-effect="non-scaling-stroke"  transform=" translate(-495.59, -168.03)" d="M 504.5 201.160156 C 501.394531 201.160156 498.492188 199.21875 497.414062 196.121094 L 479.601562 144.863281 C 478.242188 140.953125 480.3125 136.679688 484.226562 135.320312 C 488.140625 133.960938 492.414062 136.027344 493.773438 139.941406 L 511.582031 191.199219 C 512.9414059999999 195.113281 510.87109399999997 199.386719 506.960938 200.746094 C 506.144531 201.027344 505.3125 201.160156 504.5 201.160156 z M 504.5 201.160156" stroke-linecap="round" />
</g>
		<g transform="matrix(1.33 0 0 1.33 -301.81 -71.25)"  >
<path style="stroke: none; stroke-width: 1; stroke-dasharray: none; stroke-linecap: butt; stroke-dashoffset: 0; stroke-linejoin: miter; stroke-miterlimit: 4; fill: rgb(255,156,38); fill-rule: nonzero; opacity: 1;" vector-effect="non-scaling-stroke"  transform=" translate(-29.71, -133.56)" d="M 47.988281 163.421875 L 33.792969 163.421875 C 17.328125 163.421875 3.9335939999999994 150.023438 3.9335939999999994 133.558594 C 3.9335939999999994 117.09375 17.328125 103.699219 33.792969 103.699219 L 47.988281 103.699219 C 52.132812 103.699219 55.488281 107.054688 55.488281 111.199219 C 55.488281 115.339844 52.132812 118.699219 47.988281 118.699219 L 33.792969 118.699219 C 25.597656 118.699219 18.933594 125.363281 18.933594 133.558594 C 18.933594 141.753906 25.597656 148.421875 33.792969 148.421875 L 47.988281 148.421875 C 52.132812 148.421875 55.488281 151.777344 55.488281 155.921875 C 55.488281 160.0625 52.132812 163.421875 47.988281 163.421875 z M 47.988281 163.421875" stroke-linecap="round" />
</g>
		<g transform="matrix(1.33 0 0 1.33 -319.51 -25.31)"  >
<path style="stroke: none; stroke-width: 1; stroke-dasharray: none; stroke-linecap: butt; stroke-dashoffset: 0; stroke-linejoin: miter; stroke-miterlimit: 4; fill: rgb(255,189,72); fill-rule: nonzero; opacity: 1;" vector-effect="non-scaling-stroke"  transform=" translate(-16.41, -168.03)" d="M 7.503906 201.160156 C 6.683593999999999 201.160156 5.855468999999999 201.027344 5.0390619999999995 200.746094 C 1.1289059999999993 199.386719 -0.9414060000000006 195.113281 0.41796899999999937 191.199219 L 18.226561999999998 139.941406 C 19.585938 136.03125 23.859374999999996 133.960938 27.773438 135.320312 C 31.6875 136.679688 33.757812 140.953125 32.398438 144.863281 L 14.585937999999999 196.121094 C 13.511719 199.21875 10.605469 201.160156 7.503905999999999 201.160156 z M 7.503906 201.160156" stroke-linecap="round" />
</g>
		<g transform="matrix(1.33 0 0 1.33 -0.6 40.82)"  >
<path style="stroke: none; stroke-width: 1; stroke-dasharray: none; stroke-linecap: butt; stroke-dashoffset: 0; stroke-linejoin: miter; stroke-miterlimit: 4; fill: rgb(200,125,91); fill-rule: nonzero; opacity: 1;" vector-effect="non-scaling-stroke"  transform=" translate(-256, -217.73)" d="M 75.273438 144.035156 L 436.73046899999997 144.035156 L 436.73046899999997 291.42578100000003 L 75.273438 291.42578100000003 z M 75.273438 144.035156" stroke-linecap="round" />
</g>
		<g transform="matrix(1.33 0 0 1.33 -0.6 69.55)"  >
<path style="stroke: none; stroke-width: 1; stroke-dasharray: none; stroke-linecap: butt; stroke-dashoffset: 0; stroke-linejoin: miter; stroke-miterlimit: 4; fill: rgb(164,98,68); fill-rule: nonzero; opacity: 1;" vector-effect="non-scaling-stroke"  transform=" translate(-256, -239.32)" d="M 76.992188 144.199219 L 76.984375 334.44921899999997 L 435.011719 334.44921899999997 L 435.011719 144.19921899999997 z M 130.453125 269.37109399999997 L 96.34375 269.378906 L 96.351562 160.56249999999997 L 130.460938 160.56249999999997 z M 319.179688 269.35937499999994 L 192.8125 269.37109399999997 L 192.820312 160.56249999999997 L 319.179688 160.55078099999997 z M 415.648438 269.35156199999994 L 381.539062 269.35937499999994 L 381.539062 160.55078099999994 L 415.648438 160.55078099999994 z M 415.648438 269.35156199999994" stroke-linecap="round" />
</g>
		<g transform="matrix(1.33 0 0 1.33 -0.69 -26.83)"  >
<path style="stroke: none; stroke-width: 1; stroke-dasharray: none; stroke-linecap: butt; stroke-dashoffset: 0; stroke-linejoin: miter; stroke-miterlimit: 4; fill: rgb(255,223,74); fill-rule: nonzero; opacity: 1;" vector-effect="non-scaling-stroke"  transform=" translate(-256, -167.22)" d="M 463.578125 74.824219 C 461.40625 47.914062 456.894531 25.265625 451.00390600000003 10.789062000000001 C 448.355469 4.273438000000001 442.042969 0.003906250000001776 435.011719 0.003906250000001776 L 408.95703100000003 0.003906250000001776 C 416.652344 10.664062000000001 422.89453100000003 33.929688 426.16406200000006 63.6875 C 426.8164060000001 69.625 422.1992190000001 74.828125 416.22656200000006 74.828125 L 376.22656200000006 74.828125 C 371.1054690000001 74.828125 366.81640600000003 70.953125 366.28515600000003 65.859375 C 363.08593800000006 35.0625 356.730469 10.921875 348.84765600000003 0.00390625 L 312.48828100000003 0.00390625 C 320.18750000000006 10.664062 326.42968800000006 33.929688 329.69531200000006 63.691406 C 330.3476560000001 69.625 325.73437500000006 74.828125 319.7617190000001 74.828125 L 192.2382810000001 74.828125 C 186.26562500000009 74.828125 181.65234400000008 69.628906 182.30468800000008 63.691406 C 185.5703120000001 33.929688 191.81250000000009 10.664062000000001 199.51171900000008 0.00390625 L 163.15234400000008 0.00390625 C 155.2695310000001 10.921875 148.9101560000001 35.0625 145.71484400000008 65.859375 C 145.18359400000008 70.953125 140.89062500000009 74.828125 135.77343800000008 74.828125 L 95.77343800000008 74.828125 C 89.80078100000009 74.828125 85.18750000000009 69.625 85.83593800000008 63.6875 C 89.10546900000008 33.929688 95.34375000000009 10.664062000000001 103.04296900000008 0.00390625 L 76.98828100000009 0.00390625 C 69.95312500000009 0.00390625 63.644531000000086 4.273438 60.996094000000085 10.789062 C 55.105469000000085 25.265625 50.593750000000085 47.914062 48.421875000000085 74.824219 L 48.41406200000009 74.824219 C 47.488281000000086 86.285156 46.988281000000086 98.507812 46.988281000000086 111.195312 L 46.988281000000086 147.5625 L 46.996094000000085 147.5625 L 46.988281000000086 334.445312 L 83.34375000000009 334.445312 L 83.34375000000009 334.44140600000003 L 143.45312500000009 334.44140600000003 L 143.45312500000009 334.445312 L 179.81250000000009 334.445312 L 179.81250000000009 334.44140600000003 L 332.1875000000001 334.44140600000003 L 332.1875000000001 334.445312 L 368.5468750000001 334.445312 L 368.5468750000001 334.44140600000003 L 428.6562500000001 334.44140600000003 L 428.6562500000001 334.445312 L 465.0117190000001 334.445312 L 465.0117190000001 334.44140600000003 L 465.01562500000006 334.44140600000003 L 465.01562500000006 282.35156200000006 L 465.0117190000001 282.35156200000006 L 465.0039060000001 147.55078100000006 L 465.0156250000001 147.55078100000006 L 465.0156250000001 111.19531200000006 C 465.0156250000001 98.50781200000006 464.5156250000001 86.28515600000006 463.58984400000014 74.82421900000006 z M 133.45703099999997 282.375 L 93.34765599999997 282.378906 C 87.82421899999997 282.378906 83.34374999999997 277.898438 83.34374999999997 272.378906 L 83.35156199999997 157.55859399999997 C 83.35156199999997 152.03515599999997 87.82812499999997 147.56249999999997 93.35156199999997 147.55859399999997 L 133.46093799999997 147.55859399999997 C 138.98437499999997 147.55859399999997 143.46093799999997 152.03515599999997 143.46093799999997 157.55859399999997 L 143.45703099999997 272.375 C 143.45703099999997 277.898438 138.97656199999997 282.375 133.45703099999997 282.375 z M 179.81249999999997 272.37109399999997 L 179.82031199999997 157.55859399999997 C 179.82031199999997 152.03515599999997 184.29687499999997 147.55859399999997 189.82031199999997 147.55859399999997 L 322.17968799999994 147.55468799999997 C 327.70312499999994 147.55468799999997 332.17968799999994 152.03124999999997 332.17968799999994 157.55468799999997 L 332.18749999999994 272.359375 C 332.18749999999994 277.882812 327.7070309999999 282.359375 322.18749999999994 282.359375 L 189.81640599999994 282.371094 C 184.28906199999994 282.371094 179.81249999999994 277.89453100000003 179.81249999999994 272.371094 z M 368.54296899999997 272.35546899999997 L 368.53906199999994 157.55468799999997 C 368.53906199999994 152.03124999999997 373.01562499999994 147.55468799999997 378.53906199999994 147.55468799999997 L 418.64843799999994 147.55468799999997 C 424.17187499999994 147.55468799999997 428.64843799999994 152.03124999999997 428.64843799999994 157.55468799999997 L 428.6523439999999 272.35546899999997 C 428.6523439999999 277.878906 424.1757809999999 282.35546899999997 418.6523439999999 282.35546899999997 L 378.5429689999999 282.35937499999994 C 373.0195309999999 282.35546899999997 368.5429689999999 277.8789059999999 368.5429689999999 272.35546899999997 z M 368.54296899999997 272.35546899999997" stroke-linecap="round" />
</g>
		<g transform="matrix(1.33 0 0 1.33 251.03 -26.83)"  >
<path style="stroke: none; stroke-width: 1; stroke-dasharray: none; stroke-linecap: butt; stroke-dashoffset: 0; stroke-linejoin: miter; stroke-miterlimit: 4; fill: rgb(255,189,72); fill-rule: nonzero; opacity: 1;" vector-effect="non-scaling-stroke"  transform=" translate(-444.32, -167.22)" d="M 463.578125 74.820312 C 461.410156 47.910156 456.894531 25.265625 451.00390600000003 10.789062000000001 C 448.355469 4.273438000000001 442.042969 0.003906250000001776 435.011719 0.003906250000001776 L 423.640625 0.003906250000001776 C 432.273438 11.960938000000002 439.07421899999997 39.773438 441.91015600000003 74.820312 L 441.917969 74.820312 C 442.839844 86.28125 443.339844 98.511719 443.339844 111.191406 L 443.339844 147.550781 L 443.328125 147.550781 L 443.339844 282.351562 L 443.339844 334.44140600000003 L 465.007812 334.44140600000003 L 465.007812 282.35156200000006 L 465 147.55078100000006 L 465.007812 147.55078100000006 L 465.007812 111.19140600000006 C 465.007812 98.51171900000006 464.507812 86.28125000000006 463.589844 74.82031200000006 z M 463.578125 74.820312" stroke-linecap="round" />
</g>
		<g transform="matrix(1.33 0 0 1.33 -0.63 -175.28)"  >
<path style="stroke: none; stroke-width: 1; stroke-dasharray: none; stroke-linecap: butt; stroke-dashoffset: 0; stroke-linejoin: miter; stroke-miterlimit: 4; fill: rgb(140,72,44); fill-rule: nonzero; opacity: 1;" vector-effect="non-scaling-stroke"  transform=" translate(-256, -55.6)" d="M 445.011719 111.203125 L 66.99218800000006 111.203125 C 66.99218800000006 68.671875 72.59765600000006 31.421875 80.98828100000006 10.777344 C 83.63671900000006 4.265624999999999 89.94921900000006 0.00390625 96.98046900000006 0.00390625 L 119.08203100000006 0.00390625 L 113.59375000000006 7.613281 C 108.91406200000006 14.09375 102.70312500000006 31.902344 99.13281200000006 61.84375 L 133.06250000000006 61.84375 C 136.64062500000006 29.121094 142.91406200000006 10.421875 148.10156200000006 0.00390625 L 165.64843800000006 0.00390625 L 177.24218800000006 14.460938 L 196.00390600000006 0.00390625 L 215.53906200000006 0.00390625 L 210.05078100000006 7.613281 C 205.37109400000006 14.09375 199.17187500000006 31.890625 195.60156200000006 61.84375 L 316.39843800000006 61.832031 C 312.82812500000006 31.890625 306.62890600000003 14.09375 301.9492190000001 7.613281000000001 L 296.4609380000001 0.003906250000000888 L 312.4882810000001 0.003906250000000888 L 339.4375000000001 17.664062 L 348.8437500000001 0.00390625 L 363.8906250000001 0.00390625 C 369.08984400000014 10.421875 375.3593750000001 29.121094 378.9375000000001 61.832031 L 412.8671880000001 61.832031 C 409.3007810000001 31.902344 403.0898440000001 14.09375 398.4101560000001 7.613281000000001 L 392.9179690000001 0.003906250000000888 L 415.02343800000006 0.003906250000000888 C 422.05078100000003 0.003906250000000888 428.36328100000003 4.265625000000001 431.0117190000001 10.777344 C 439.4062500000001 31.421875 445.0117190000001 68.671875 445.0117190000001 111.203125 z M 445.011719 111.203125" stroke-linecap="round" />
</g>
		<g transform="matrix(1.33 0 0 1.33 -0.7 -175.29)"  >
<path style="stroke: none; stroke-width: 1; stroke-dasharray: none; stroke-linecap: butt; stroke-dashoffset: 0; stroke-linejoin: miter; stroke-miterlimit: 4; fill: rgb(255,189,72); fill-rule: nonzero; opacity: 1;" vector-effect="non-scaling-stroke"  transform=" translate(-256, -55.6)" d="M 408.957031 0.00390625 C 416.65234399999997 10.664062 422.894531 33.929688 426.16406199999994 63.695312 C 426.816406 69.628906 422.19921899999997 74.832031 416.22656199999994 74.832031 L 376.22656199999994 74.832031 C 371.10546899999997 74.832031 366.8164059999999 70.957031 366.2851559999999 65.863281 C 363.08593799999994 35.066406 356.7304689999999 10.925781 348.8437499999999 0.00390625 L 312.4882809999999 0.00390625 C 320.18749999999994 10.667969 326.42968799999994 33.9375 329.69531199999994 63.695312 C 330.347656 69.632812 325.73046899999997 74.832031 319.75781199999994 74.832031 L 192.23828099999994 74.839844 C 186.26171899999994 74.839844 181.64843799999994 69.640625 182.30078099999994 63.703125 C 185.57031199999994 33.9375 191.80859399999994 10.667969 199.50390599999994 0 L 163.14843799999994 0 C 155.26562499999994 10.921875 148.91406199999994 35.070312 145.71874999999994 65.871094 C 145.18749999999994 70.964844 140.89453099999994 74.839844 135.77343799999994 74.839844 L 95.77734399999994 74.839844 C 89.80078099999994 74.839844 85.18749999999994 69.640625 85.83984399999994 63.703125 C 89.10546899999994 33.9375 95.35156199999994 10.664062000000001 103.05078099999994 0 L 76.97265599999994 0 C 69.94140599999994 0 63.628905999999944 4.265625 60.98437499999994 10.773438 C 52.58593799999994 31.417969 46.98437499999994 68.671875 46.98437499999994 111.199219 L 443.33984399999997 111.1875 L 465.00781199999994 111.1875 C 465.00781199999994 68.664062 459.40234399999997 31.417969 451.01171899999997 10.777344 C 448.363281 4.265624999999999 442.050781 0 435.019531 0 z M 408.957031 0.00390625" stroke-linecap="round" />
</g>
		<g transform="matrix(1.33 0 0 1.33 251.04 -175.29)"  >
<path style="stroke: none; stroke-width: 1; stroke-dasharray: none; stroke-linecap: butt; stroke-dashoffset: 0; stroke-linejoin: miter; stroke-miterlimit: 4; fill: rgb(255,156,38); fill-rule: nonzero; opacity: 1;" vector-effect="non-scaling-stroke"  transform=" translate(-444.33, -55.6)" d="M 423.644531 0.00390625 C 432.273438 11.960938 439.078125 39.773438 441.910156 74.820312 L 441.921875 74.820312 C 442.839844 86.28125 443.339844 98.511719 443.339844 111.191406 L 465.011719 111.191406 C 465.011719 68.664062 459.402344 31.417969 451.011719 10.777344 C 448.36328100000003 4.265624999999999 442.05078100000003 0.00390625 435.02343800000006 0.00390625 z M 423.644531 0.00390625" stroke-linecap="round" />
</g>
		<g transform="matrix(1.33 0 0 1.33 -0.14 -67.35)"  >
<path style="stroke: none; stroke-width: 1; stroke-dasharray: none; stroke-linecap: butt; stroke-dashoffset: 0; stroke-linejoin: miter; stroke-miterlimit: 4; fill: rgb(249,228,143); fill-rule: nonzero; opacity: 1;" vector-effect="non-scaling-stroke"  transform=" translate(-256, -136.63)" d="M 230.476562 176.355469 L 230.476562 96.90625 C 230.476562 94.066406 228.585938 91.625 225.878906 90.765625 C 219.21875 88.652344 214.550781 82.058594 215.410156 74.523438 C 216.179688 67.761719 221.542969 62.238281 228.28125 61.292969 C 230.621094 60.964844 232.875 61.167969 234.941406 61.804688 C 237.941406 62.726562 241.074219 61.351562 242.527344 58.570312 C 245.054688 53.738281 250.125 50.453125 255.972656 50.453125 C 261.804688 50.453125 266.890625 53.75 269.445312 58.582031 C 270.91015600000003 61.359375 274.05078100000003 62.734375 277.05078100000003 61.808594 C 279.121094 61.167969 281.37890600000003 60.960938 283.71875000000006 61.292969 C 290.45703100000003 62.238281 295.82031200000006 67.761719 296.59375000000006 74.523438 C 297.45312500000006 82.058594 292.78125000000006 88.652344 286.1210940000001 90.765625 C 283.41406200000006 91.625 281.5234380000001 94.066406 281.5234380000001 96.90625 L 281.5234380000001 176.355469 C 281.5234380000001 179.195312 283.4140620000001 181.632812 286.1210940000001 182.492188 C 292.78125000000006 184.609375 297.4531250000001 191.199219 296.5937500000001 198.738281 C 295.8203120000001 205.5 290.4570310000001 211.023438 283.7187500000001 211.96875 C 281.3828120000001 212.296875 279.1250000000001 212.089844 277.05859400000014 211.453125 C 274.0625000000001 210.53125 270.92968800000017 211.90625 269.47265600000014 214.6875 C 266.9453120000001 219.523438 261.87890600000014 222.808594 256.0312500000001 222.808594 C 250.19531200000011 222.808594 245.1093750000001 219.507812 242.5585940000001 214.675781 C 241.0898440000001 211.898438 237.9531250000001 210.527344 234.9492190000001 211.453125 C 232.88281200000011 212.089844 230.6250000000001 212.296875 228.2812500000001 211.96875 C 221.5429690000001 211.023438 216.1796880000001 205.496094 215.41015600000011 198.738281 C 214.55078100000011 191.199219 219.2187500000001 184.609375 225.87890600000011 182.492188 C 228.5859380000001 181.632812 230.47656200000011 179.195312 230.47656200000011 176.355469 z M 230.476562 176.355469" stroke-linecap="round" />
</g>
		<g transform="matrix(1.33 0 0 1.33 -0.02 -12.18)"  >
<path style="stroke: none; stroke-width: 1; stroke-dasharray: none; stroke-linecap: butt; stroke-dashoffset: 0; stroke-linejoin: miter; stroke-miterlimit: 4; fill: rgb(255,156,38); fill-rule: nonzero; opacity: 1;" vector-effect="non-scaling-stroke"  transform=" translate(-256, -177.83)" d="M 256 191.957031 C 251.859375 191.957031 248.5 188.601562 248.5 184.457031 L 248.5 171.210938 C 248.5 167.070312 251.859375 163.710938 256 163.710938 C 260.144531 163.710938 263.5 167.070312 263.5 171.210938 L 263.5 184.457031 C 263.5 188.601562 260.144531 191.957031 256 191.957031 z M 256 191.957031" stroke-linecap="round" />
</g>
		<g transform="matrix(1.33 0 0 1.33 -0.81 212.39)"  >
<path style="stroke: none; stroke-width: 1; stroke-dasharray: none; stroke-linecap: butt; stroke-dashoffset: 0; stroke-linejoin: miter; stroke-miterlimit: 4; fill: rgb(255,189,72); fill-rule: nonzero; opacity: 1;" vector-effect="non-scaling-stroke"  transform=" translate(-256, -346.29)" d="M 460.179688 318.726562 L 51.820312 318.726562 C 29.511719000000003 318.726562 11.429687999999999 336.8125 11.429687999999999 359.117188 C 11.429687999999999 367.257812 18.027344 373.859375 26.167969 373.859375 L 485.83203100000003 373.859375 C 493.97265600000003 373.859375 500.57031200000006 367.257812 500.57031200000006 359.117188 C 500.57031200000006 336.8125 482.48828100000003 318.726562 460.17968800000006 318.726562 z M 460.179688 318.726562" stroke-linecap="round" />
</g>
		<g transform="matrix(1.33 0 0 1.33 278.71 212.39)"  >
<path style="stroke: none; stroke-width: 1; stroke-dasharray: none; stroke-linecap: butt; stroke-dashoffset: 0; stroke-linejoin: miter; stroke-miterlimit: 4; fill: rgb(255,156,38); fill-rule: nonzero; opacity: 1;" vector-effect="non-scaling-stroke"  transform=" translate(-465.12, -346.29)" d="M 500.570312 359.121094 C 500.570312 367.257812 493.96875 373.859375 485.828125 373.859375 L 455.30859399999997 373.859375 C 463.44921899999997 373.859375 470.050781 367.257812 470.050781 359.12109399999997 C 470.050781 347.96093799999994 465.53125 337.87109399999997 458.21875 330.55859399999997 C 450.910156 323.24999999999994 440.820312 318.73046899999997 429.66015600000003 318.73046899999997 L 460.17968800000006 318.73046899999997 C 471.3398440000001 318.73046899999997 481.42968800000006 323.24999999999994 488.73828100000003 330.55859399999997 C 496.05078100000003 337.87109399999997 500.57031200000006 347.96093799999994 500.57031200000006 359.12109399999997 z M 500.570312 359.121094" stroke-linecap="round" />
</g>
</g>
</g>
</svg>