<?xml version="1.0" encoding="UTF-8" standalone="no" ?>
<!DOCTYPE svg PUBLIC "-//W3C//DTD SVG 1.1//EN" "http://www.w3.org/Graphics/SVG/1.1/DTD/svg11.dtd">
<svg xmlns="http://www.w3.org/2000/svg" xmlns:xlink="http://www.w3.org/1999/xlink" version="1.1" width="240" height="240" viewBox="0 0 240 240" xml:space="preserve">
<desc>Created with Fabric.js 4.2.0</desc>
<defs>
</defs>
<rect x="0" y="0" width="100%" height="100%" fill="transparent"></rect>
<g transform="matrix(1 0 0 1 120 120)" id="270bfea7-d04e-49ff-82f1-618e25929b9b"  >
<rect style="stroke: none; stroke-width: 1; stroke-dasharray: none; stroke-linecap: butt; stroke-dashoffset: 0; stroke-linejoin: miter; stroke-miterlimit: 4; fill: rgb(255,255,255); fill-opacity: 0; fill-rule: nonzero; opacity: 1;" vector-effect="non-scaling-stroke"  x="-120" y="-120" rx="0" ry="0" width="240" height="240" />
</g>
<g transform="matrix(Infinity NaN NaN Infinity 0 0)" id="de792c1d-a81b-4fa3-814a-837ca95bb92b"  >
</g>
<g transform="matrix(0.47 0 0 0.47 119.84 119.72)"  >
<g style="" vector-effect="non-scaling-stroke"   >
		<g transform="matrix(1 0 0 1 0 24)"  >
<path style="stroke: none; stroke-width: 1; stroke-dasharray: none; stroke-linecap: butt; stroke-dashoffset: 0; stroke-linejoin: miter; stroke-miterlimit: 4; fill: rgb(224,185,153); fill-rule: nonzero; opacity: 1;" vector-effect="non-scaling-stroke"  transform=" translate(-256, -280)" d="M 144 248 L 368 248 L 368 312 L 144 312 z" stroke-linecap="round" />
</g>
		<g transform="matrix(1 0 0 1 0 160)"  >
<path style="stroke: none; stroke-width: 1; stroke-dasharray: none; stroke-linecap: butt; stroke-dashoffset: 0; stroke-linejoin: miter; stroke-miterlimit: 4; fill: rgb(224,185,153); fill-rule: nonzero; opacity: 1;" vector-effect="non-scaling-stroke"  transform=" translate(-256, -416)" d="M 144 344 L 368 344 L 368 488 L 144 488 z" stroke-linecap="round" />
</g>
		<g transform="matrix(1 0 0 1 0 -24)"  >
<path style="stroke: none; stroke-width: 1; stroke-dasharray: none; stroke-linecap: butt; stroke-dashoffset: 0; stroke-linejoin: miter; stroke-miterlimit: 4; fill: rgb(247,204,169); fill-rule: nonzero; opacity: 1;" vector-effect="non-scaling-stroke"  transform=" translate(-256, -232)" d="M 128 216 L 384 216 L 384 248 L 128 248 z" stroke-linecap="round" />
</g>
		<g transform="matrix(1 0 0 1 0 72)"  >
<path style="stroke: none; stroke-width: 1; stroke-dasharray: none; stroke-linecap: butt; stroke-dashoffset: 0; stroke-linejoin: miter; stroke-miterlimit: 4; fill: rgb(247,204,169); fill-rule: nonzero; opacity: 1;" vector-effect="non-scaling-stroke"  transform=" translate(-256, -328)" d="M 128 312 L 384 312 L 384 344 L 128 344 z" stroke-linecap="round" />
</g>
		<g transform="matrix(1 0 0 1 0 -56)"  >
<path style="stroke: none; stroke-width: 1; stroke-dasharray: none; stroke-linecap: butt; stroke-dashoffset: 0; stroke-linejoin: miter; stroke-miterlimit: 4; fill: rgb(224,185,153); fill-rule: nonzero; opacity: 1;" vector-effect="non-scaling-stroke"  transform=" translate(-256, -200)" d="M 144 184 L 368 184 L 368 216 L 144 216 z" stroke-linecap="round" />
</g>
		<g transform="matrix(1 0 0 1 0 -208)"  >
<path style="stroke: none; stroke-width: 1; stroke-dasharray: none; stroke-linecap: butt; stroke-dashoffset: 0; stroke-linejoin: miter; stroke-miterlimit: 4; fill: rgb(106,112,115); fill-rule: nonzero; opacity: 1;" vector-effect="non-scaling-stroke"  transform=" translate(-256, -48)" d="M 256 72 C 251.58172200135365 72 248 68.41827799864635 248 64 L 248 32 C 248 27.581722001353654 251.58172200135365 24 256 24 C 260.4182779986464 24 264 27.58172200135365 264 31.999999999999996 L 264 64 C 264 68.41827799864635 260.4182779986464 72 256 72 z" stroke-linecap="round" />
</g>
		<g transform="matrix(1 0 0 1 4 -136)"  >
<path style="stroke: none; stroke-width: 1; stroke-dasharray: none; stroke-linecap: butt; stroke-dashoffset: 0; stroke-linejoin: miter; stroke-miterlimit: 4; fill: rgb(126,133,137); fill-rule: nonzero; opacity: 1;" vector-effect="non-scaling-stroke"  transform=" translate(-260, -120)" d="M 360 184 L 160 184 L 248 56 L 264 56 z" stroke-linecap="round" />
</g>
		<g transform="matrix(1 0 0 1 0 -136)"  >
<path style="stroke: none; stroke-width: 1; stroke-dasharray: none; stroke-linecap: butt; stroke-dashoffset: 0; stroke-linejoin: miter; stroke-miterlimit: 4; fill: rgb(106,112,115); fill-rule: nonzero; opacity: 1;" vector-effect="non-scaling-stroke"  transform=" translate(-256, -120)" d="M 256 104 C 247.1634440027073 104 240 111.16344400270731 240 120 L 240 136 L 272 136 L 272 120 C 272 111.16344400270731 264.8365559972927 104 256 104 z" stroke-linecap="round" />
</g>
		<g transform="matrix(1 0 0 1 0 -56)"  >
<path style="stroke: none; stroke-width: 1; stroke-dasharray: none; stroke-linecap: butt; stroke-dashoffset: 0; stroke-linejoin: miter; stroke-miterlimit: 4; fill: rgb(115,75,57); fill-rule: nonzero; opacity: 1;" vector-effect="non-scaling-stroke"  transform=" translate(-256, -200)" d="M 256 184 C 247.1634440027073 184 240 191.1634440027073 240 200 L 240 216 L 272 216 L 272 200 C 272 191.1634440027073 264.8365559972927 184 256 184 z" stroke-linecap="round" />
</g>
		<g transform="matrix(1 0 0 1 64 -56)"  >
<path style="stroke: none; stroke-width: 1; stroke-dasharray: none; stroke-linecap: butt; stroke-dashoffset: 0; stroke-linejoin: miter; stroke-miterlimit: 4; fill: rgb(115,75,57); fill-rule: nonzero; opacity: 1;" vector-effect="non-scaling-stroke"  transform=" translate(-320, -200)" d="M 320 184 C 311.1634440027073 184 304 191.1634440027073 304 200 L 304 216 L 336 216 L 336 200 C 336 191.1634440027073 328.8365559972927 184 320 184 z" stroke-linecap="round" />
</g>
		<g transform="matrix(1 0 0 1 -64 -56)"  >
<path style="stroke: none; stroke-width: 1; stroke-dasharray: none; stroke-linecap: butt; stroke-dashoffset: 0; stroke-linejoin: miter; stroke-miterlimit: 4; fill: rgb(115,75,57); fill-rule: nonzero; opacity: 1;" vector-effect="non-scaling-stroke"  transform=" translate(-192, -200)" d="M 192 184 C 183.1634440027073 184 176 191.1634440027073 176 200 L 176 216 L 208 216 L 208 200 C 208 191.1634440027073 200.8365559972927 184 192 184 z" stroke-linecap="round" />
</g>
		<g transform="matrix(1 0 0 1 -64 168)"  >
<path style="stroke: none; stroke-width: 1; stroke-dasharray: none; stroke-linecap: butt; stroke-dashoffset: 0; stroke-linejoin: miter; stroke-miterlimit: 4; fill: rgb(115,75,57); fill-rule: nonzero; opacity: 1;" vector-effect="non-scaling-stroke"  transform=" translate(-192, -424)" d="M 192 408 C 183.1634440027073 408 176 415.1634440027073 176 424 L 176 440 L 208 440 L 208 424 C 208 415.1634440027073 200.8365559972927 408 192 408 z" stroke-linecap="round" />
</g>
		<g transform="matrix(1 0 0 1 0 168)"  >
<path style="stroke: none; stroke-width: 1; stroke-dasharray: none; stroke-linecap: butt; stroke-dashoffset: 0; stroke-linejoin: miter; stroke-miterlimit: 4; fill: rgb(115,75,57); fill-rule: nonzero; opacity: 1;" vector-effect="non-scaling-stroke"  transform=" translate(-256, -424)" d="M 256 408 C 247.1634440027073 408 240 415.1634440027073 240 424 L 240 440 L 272 440 L 272 424 C 272 415.1634440027073 264.8365559972927 408 256 408 z" stroke-linecap="round" />
</g>
		<g transform="matrix(1 0 0 1 64 168)"  >
<path style="stroke: none; stroke-width: 1; stroke-dasharray: none; stroke-linecap: butt; stroke-dashoffset: 0; stroke-linejoin: miter; stroke-miterlimit: 4; fill: rgb(115,75,57); fill-rule: nonzero; opacity: 1;" vector-effect="non-scaling-stroke"  transform=" translate(-320, -424)" d="M 320 408 C 311.1634440027073 408 304 415.1634440027073 304 424 L 304 440 L 336 440 L 336 424 C 336 415.1634440027073 328.8365559972927 408 320 408 z" stroke-linecap="round" />
</g>
		<g transform="matrix(1 0 0 1 0 40)"  >
<path style="stroke: none; stroke-width: 1; stroke-dasharray: none; stroke-linecap: butt; stroke-dashoffset: 0; stroke-linejoin: miter; stroke-miterlimit: 4; fill: rgb(115,75,57); fill-rule: nonzero; opacity: 1;" vector-effect="non-scaling-stroke"  transform=" translate(-256, -296)" d="M 256 280 C 247.1634440027073 280 240 287.1634440027073 240 296 L 240 312 L 272 312 L 272 296 C 272 287.1634440027073 264.8365559972927 280 256 280 z" stroke-linecap="round" />
</g>
		<g transform="matrix(1 0 0 1 64 40)"  >
<path style="stroke: none; stroke-width: 1; stroke-dasharray: none; stroke-linecap: butt; stroke-dashoffset: 0; stroke-linejoin: miter; stroke-miterlimit: 4; fill: rgb(115,75,57); fill-rule: nonzero; opacity: 1;" vector-effect="non-scaling-stroke"  transform=" translate(-320, -296)" d="M 320 280 C 311.1634440027073 280 304 287.1634440027073 304 296 L 304 312 L 336 312 L 336 296 C 336 287.1634440027073 328.8365559972927 280 320 280 z" stroke-linecap="round" />
</g>
		<g transform="matrix(1 0 0 1 -64 40)"  >
<path style="stroke: none; stroke-width: 1; stroke-dasharray: none; stroke-linecap: butt; stroke-dashoffset: 0; stroke-linejoin: miter; stroke-miterlimit: 4; fill: rgb(115,75,57); fill-rule: nonzero; opacity: 1;" vector-effect="non-scaling-stroke"  transform=" translate(-192, -296)" d="M 192 280 C 183.1634440027073 280 176 287.1634440027073 176 296 L 176 312 L 208 312 L 208 296 C 208 287.1634440027073 200.8365559972927 280 192 280 z" stroke-linecap="round" />
</g>
		<g transform="matrix(1 0 0 1 -64 120)"  >
<circle style="stroke: none; stroke-width: 1; stroke-dasharray: none; stroke-linecap: butt; stroke-dashoffset: 0; stroke-linejoin: miter; stroke-miterlimit: 4; fill: rgb(115,75,57); fill-rule: nonzero; opacity: 1;" vector-effect="non-scaling-stroke"  cx="0" cy="0" r="8" />
</g>
		<g transform="matrix(1 0 0 1 0 120)"  >
<circle style="stroke: none; stroke-width: 1; stroke-dasharray: none; stroke-linecap: butt; stroke-dashoffset: 0; stroke-linejoin: miter; stroke-miterlimit: 4; fill: rgb(115,75,57); fill-rule: nonzero; opacity: 1;" vector-effect="non-scaling-stroke"  cx="0" cy="0" r="8" />
</g>
		<g transform="matrix(1 0 0 1 64 120)"  >
<circle style="stroke: none; stroke-width: 1; stroke-dasharray: none; stroke-linecap: butt; stroke-dashoffset: 0; stroke-linejoin: miter; stroke-miterlimit: 4; fill: rgb(115,75,57); fill-rule: nonzero; opacity: 1;" vector-effect="non-scaling-stroke"  cx="0" cy="0" r="8" />
</g>
		<g transform="matrix(1 0 0 1 0 -72)"  >
<path style="stroke: none; stroke-width: 1; stroke-dasharray: none; stroke-linecap: butt; stroke-dashoffset: 0; stroke-linejoin: miter; stroke-miterlimit: 4; fill: rgb(247,204,169); fill-rule: nonzero; opacity: 1;" vector-effect="non-scaling-stroke"  transform=" translate(-256, -184)" d="M 384 192 L 128 192 C 123.58172200135365 192 120 188.41827799864635 120 184 C 120 179.58172200135365 123.58172200135365 176 128 176 L 384 176 C 388.4182779986464 176 392 179.58172200135365 392 184 C 392 188.41827799864635 388.4182779986464 192 384 192 z" stroke-linecap="round" />
</g>
</g>
</g>
<g transform="matrix(0.14 0 0 0.14 52.71 193.29)"  >
<g style="" vector-effect="non-scaling-stroke"   >
		<g transform="matrix(1 0 0 1 0 0)"  >
<circle style="stroke: none; stroke-width: 1; stroke-dasharray: none; stroke-linecap: butt; stroke-dashoffset: 0; stroke-linejoin: miter; stroke-miterlimit: 4; fill: rgb(244,221,69); fill-rule: nonzero; opacity: 1;" vector-effect="non-scaling-stroke"  cx="0" cy="0" r="256" />
</g>
		<g transform="matrix(1 0 0 1 60.76 8.76)"  >
<path style="stroke: none; stroke-width: 1; stroke-dasharray: none; stroke-linecap: butt; stroke-dashoffset: 0; stroke-linejoin: miter; stroke-miterlimit: 4; fill: rgb(241,211,51); fill-rule: nonzero; opacity: 1;" vector-effect="non-scaling-stroke"  transform=" translate(-316.76, -264.76)" d="M 349.277 17.525 C 422.206 62.637 470.793 143.343 470.793 235.39700000000002 C 470.793 376.78200000000004 356.178 491.39700000000005 214.793 491.39700000000005 C 181.881 491.39700000000005 150.419 485.18600000000004 121.516 473.87200000000007 C 160.598 498.0470000000001 206.669 512.0000000000001 256 512.0000000000001 C 397.385 512.0000000000001 512 397.3850000000001 512 256.0000000000001 C 512 147.5270000000001 444.53499999999997 54.812000000000126 349.277 17.52500000000012 z" stroke-linecap="round" />
</g>
		<g transform="matrix(1 0 0 1 0 0)"  >
<circle style="stroke: none; stroke-width: 1; stroke-dasharray: none; stroke-linecap: butt; stroke-dashoffset: 0; stroke-linejoin: miter; stroke-miterlimit: 4; fill: rgb(234,177,77); fill-rule: nonzero; opacity: 1;" vector-effect="non-scaling-stroke"  cx="0" cy="0" r="205.726" />
</g>
		<g transform="matrix(1 0 0 1 46.9 6.24)"  >
<path style="stroke: none; stroke-width: 1; stroke-dasharray: none; stroke-linecap: butt; stroke-dashoffset: 0; stroke-linejoin: miter; stroke-miterlimit: 4; fill: rgb(231,165,46); fill-rule: nonzero; opacity: 1;" vector-effect="non-scaling-stroke"  transform=" translate(-302.9, -262.24)" d="M 326.713 62.75 C 383.175 99.42699999999999 420.519 163.051 420.519 235.397 C 420.519 349.01599999999996 328.413 441.123 214.793 441.123 C 189.947 441.123 166.13 436.718 144.08 428.64799999999997 C 176.29200000000003 449.573 214.726 461.727 256 461.727 C 369.619 461.727 461.726 369.62 461.726 256.001 C 461.726 167.22699999999998 405.497 91.58599999999998 326.71299999999997 62.74999999999997 z" stroke-linecap="round" />
</g>
		<g transform="matrix(1 0 0 1 0 0)"  >
<path style="stroke: none; stroke-width: 1; stroke-dasharray: none; stroke-linecap: butt; stroke-dashoffset: 0; stroke-linejoin: miter; stroke-miterlimit: 4; fill: rgb(244,221,69); fill-rule: nonzero; opacity: 1;" vector-effect="non-scaling-stroke"  transform=" translate(-256, -256)" d="M 369.976 257.464 C 369.167 256.655 369.167 255.344 369.976 254.535 L 381.106 243.405 C 396.641 227.87 396.641 202.684 381.106 187.149 C 365.57099999999997 171.615 340.385 171.615 324.85 187.149 C 340.384 171.615 340.384 146.428 324.85 130.893 C 309.315 115.358 284.12800000000004 115.358 268.59400000000005 130.893 L 257.46400000000006 142.023 C 256.65500000000003 142.832 255.34400000000005 142.832 254.53500000000005 142.023 L 243.40500000000006 130.893 C 227.87000000000006 115.358 202.68400000000005 115.358 187.14900000000006 130.893 C 171.61500000000007 146.428 171.61500000000007 171.614 187.14900000000006 187.149 C 171.61500000000007 171.615 146.42800000000005 171.615 130.89300000000006 187.149 C 115.35800000000006 202.684 115.35800000000006 227.871 130.89300000000006 243.405 L 142.02300000000005 254.535 C 142.83200000000005 255.344 142.83200000000005 256.655 142.02300000000005 257.464 L 130.89300000000006 268.594 C 115.35800000000006 284.129 115.35800000000006 309.315 130.89300000000006 324.85 C 146.42800000000005 340.384 171.61400000000006 340.384 187.14900000000006 324.85 C 171.61500000000007 340.384 171.61500000000007 365.571 187.14900000000006 381.106 C 202.68400000000005 396.641 227.87100000000007 396.641 243.40500000000006 381.106 L 254.53500000000005 369.976 C 255.34400000000005 369.167 256.65500000000003 369.167 257.46400000000006 369.976 L 268.59400000000005 381.106 C 284.1290000000001 396.641 309.31500000000005 396.641 324.85 381.106 C 340.384 365.57099999999997 340.384 340.385 324.85 324.85 C 340.384 340.384 365.571 340.384 381.106 324.85 C 396.641 309.315 396.641 284.12800000000004 381.106 268.59400000000005 z" stroke-linecap="round" />
</g>
		<g transform="matrix(1 0 0 1 -69.82 -53.65)"  >
<path style="stroke: none; stroke-width: 1; stroke-dasharray: none; stroke-linecap: butt; stroke-dashoffset: 0; stroke-linejoin: miter; stroke-miterlimit: 4; fill: rgb(241,211,51); fill-rule: nonzero; opacity: 1;" vector-effect="non-scaling-stroke"  transform=" translate(-186.18, -202.35)" d="M 154.028 175.812 L 205.15099999999998 226.93400000000003 C 206.65999999999997 228.443 208.63799999999998 229.19700000000003 210.61499999999998 229.19700000000003 C 212.59199999999998 229.19700000000003 214.57 228.44200000000004 216.07899999999998 226.93400000000003 C 219.09599999999998 223.91700000000003 219.09599999999998 219.02500000000003 216.07899999999998 216.00700000000003 L 185.77299999999997 185.70100000000002 C 186.21799999999996 186.19200000000004 186.67699999999996 186.675 187.15099999999995 187.14900000000003 C 178.10899999999995 178.10900000000004 165.80099999999996 174.33100000000002 154.02799999999996 175.81200000000004 z" stroke-linecap="round" />
</g>
		<g transform="matrix(1 0 0 1 -69.81 53.65)"  >
<path style="stroke: none; stroke-width: 1; stroke-dasharray: none; stroke-linecap: butt; stroke-dashoffset: 0; stroke-linejoin: miter; stroke-miterlimit: 4; fill: rgb(241,211,51); fill-rule: nonzero; opacity: 1;" vector-effect="non-scaling-stroke"  transform=" translate(-186.19, -309.65)" d="M 205.156 285.066 L 154.03300000000002 336.18899999999996 C 165.80400000000003 337.66799999999995 178.11100000000002 333.88899999999995 187.149 324.85099999999994 C 186.655 325.34499999999997 186.176 325.84899999999993 185.714 326.36299999999994 L 216.084 295.99299999999994 C 219.101 292.97599999999994 219.101 288.08399999999995 216.084 285.0659999999999 C 213.067 282.0489999999999 208.17600000000002 282.04799999999994 205.156 285.0659999999999 z" stroke-linecap="round" />
</g>
		<g transform="matrix(1 0 0 1 69.82 -53.65)"  >
<path style="stroke: none; stroke-width: 1; stroke-dasharray: none; stroke-linecap: butt; stroke-dashoffset: 0; stroke-linejoin: miter; stroke-miterlimit: 4; fill: rgb(241,211,51); fill-rule: nonzero; opacity: 1;" vector-effect="non-scaling-stroke"  transform=" translate(-325.82, -202.35)" d="M 357.972 175.812 L 306.849 226.93400000000003 C 305.34 228.443 303.36199999999997 229.19700000000003 301.385 229.19700000000003 C 299.408 229.19700000000003 297.43 228.44200000000004 295.921 226.93400000000003 C 292.904 223.91700000000003 292.904 219.02500000000003 295.921 216.00700000000003 L 326.227 185.70100000000002 C 325.782 186.19200000000004 325.323 186.675 324.849 187.14900000000003 C 333.89099999999996 178.10900000000004 346.199 174.33100000000002 357.972 175.81200000000004 z" stroke-linecap="round" />
</g>
		<g transform="matrix(1 0 0 1 69.81 53.65)"  >
<path style="stroke: none; stroke-width: 1; stroke-dasharray: none; stroke-linecap: butt; stroke-dashoffset: 0; stroke-linejoin: miter; stroke-miterlimit: 4; fill: rgb(241,211,51); fill-rule: nonzero; opacity: 1;" vector-effect="non-scaling-stroke"  transform=" translate(-325.81, -309.65)" d="M 306.844 285.066 L 357.967 336.18899999999996 C 346.19599999999997 337.66799999999995 333.889 333.88899999999995 324.851 324.85099999999994 C 325.345 325.34499999999997 325.824 325.84899999999993 326.286 326.36299999999994 L 295.916 295.99299999999994 C 292.899 292.97599999999994 292.899 288.08399999999995 295.916 285.0659999999999 C 298.933 282.0489999999999 303.824 282.04799999999994 306.844 285.0659999999999 z" stroke-linecap="round" />
</g>
		<g transform="matrix(1 0 0 1 70.1 28.13)"  >
<path style="stroke: none; stroke-width: 1; stroke-dasharray: none; stroke-linecap: butt; stroke-dashoffset: 0; stroke-linejoin: miter; stroke-miterlimit: 4; fill: rgb(241,211,51); fill-rule: nonzero; opacity: 1;" vector-effect="non-scaling-stroke"  transform=" translate(-326.1, -284.13)" d="M 369.976 257.464 C 369.167 256.655 369.167 255.344 369.976 254.535 L 381.106 243.405 C 396.641 227.87 396.641 202.684 381.106 187.149 C 371.78499999999997 177.828 358.988 174.1 346.887 175.965 C 354.909 191.00900000000001 352.58 210.121 339.899 222.80200000000002 L 336.792 225.90900000000002 C 331.55199999999996 231.14900000000003 331.55199999999996 239.644 336.792 244.88400000000001 L 339.368 247.46 C 355.116 263.208 355.413 289.279 339.391 304.747 C 328.632 315.134 313.463 318.264 300.04600000000005 314.13800000000003 C 298.189 313.567 296.1700000000001 314.02400000000006 294.79600000000005 315.398 C 293.41900000000004 316.77500000000003 292.96600000000007 318.798 293.53800000000007 320.66 C 297.72400000000005 334.28700000000003 294.42600000000004 349.72 283.64400000000006 360.50300000000004 C 276.87800000000004 367.26900000000006 268.28100000000006 371.088 259.44800000000004 371.96000000000004 L 268.595 381.107 C 284.13000000000005 396.64200000000005 309.31600000000003 396.64200000000005 324.851 381.107 C 340.385 365.572 340.385 340.386 324.851 324.851 C 340.202 340.202 364.979 340.383 380.553 325.394 C 396.624 309.927 396.323 283.812 380.551 268.04 z" stroke-linecap="round" />
</g>
		<g transform="matrix(1 0 0 1 0 -167.09)"  >
<circle style="stroke: none; stroke-width: 1; stroke-dasharray: none; stroke-linecap: butt; stroke-dashoffset: 0; stroke-linejoin: miter; stroke-miterlimit: 4; fill: rgb(244,221,69); fill-rule: nonzero; opacity: 1;" vector-effect="non-scaling-stroke"  cx="0" cy="0" r="12.875" />
</g>
		<g transform="matrix(1 0 0 1 167.09 0)"  >
<circle style="stroke: none; stroke-width: 1; stroke-dasharray: none; stroke-linecap: butt; stroke-dashoffset: 0; stroke-linejoin: miter; stroke-miterlimit: 4; fill: rgb(244,221,69); fill-rule: nonzero; opacity: 1;" vector-effect="non-scaling-stroke"  cx="0" cy="0" r="12.875" />
</g>
		<g transform="matrix(1 0 0 1 170.97 0)"  >
<path style="stroke: none; stroke-width: 1; stroke-dasharray: none; stroke-linecap: butt; stroke-dashoffset: 0; stroke-linejoin: miter; stroke-miterlimit: 4; fill: rgb(241,211,51); fill-rule: nonzero; opacity: 1;" vector-effect="non-scaling-stroke"  transform=" translate(-426.97, -256)" d="M 435.966 256 C 435.966 248.889 430.202 243.125 423.091 243.125 C 422.15500000000003 243.125 421.243 243.226 420.36400000000003 243.415 C 420.047 251.684 419.242 259.828 417.97700000000003 267.818 C 419.545 268.49699999999996 421.27400000000006 268.87399999999997 423.091 268.87399999999997 C 430.202 268.87499999999994 435.966 263.111 435.966 255.99999999999997 z" stroke-linecap="round" />
</g>
		<g transform="matrix(1 0 0 1 0 167.09)"  >
<circle style="stroke: none; stroke-width: 1; stroke-dasharray: none; stroke-linecap: butt; stroke-dashoffset: 0; stroke-linejoin: miter; stroke-miterlimit: 4; fill: rgb(244,221,69); fill-rule: nonzero; opacity: 1;" vector-effect="non-scaling-stroke"  cx="0" cy="0" r="12.875" />
</g>
		<g transform="matrix(1 0 0 1 -167.09 0)"  >
<circle style="stroke: none; stroke-width: 1; stroke-dasharray: none; stroke-linecap: butt; stroke-dashoffset: 0; stroke-linejoin: miter; stroke-miterlimit: 4; fill: rgb(244,221,69); fill-rule: nonzero; opacity: 1;" vector-effect="non-scaling-stroke"  cx="0" cy="0" r="12.875" />
</g>
		<g transform="matrix(1 0 0 1 0 0)"  >
<path style="stroke: none; stroke-width: 1; stroke-dasharray: none; stroke-linecap: butt; stroke-dashoffset: 0; stroke-linejoin: miter; stroke-miterlimit: 4; fill: rgb(241,211,51); fill-rule: nonzero; opacity: 1;" vector-effect="non-scaling-stroke"  transform=" translate(-256, -256)" d="M 477.593 188.625 L 501.23 182.292 C 502.706 187.208 504.03700000000003 192.186 505.22 197.221 L 481.593 203.552 C 480.923 203.731 480.25 203.81699999999998 479.588 203.81699999999998 C 476.177 203.81699999999998 473.055 201.54 472.13 198.08799999999997 C 471.025 193.96599999999995 473.471 189.72999999999996 477.593 188.62499999999997 z M 452.605 133.56900000000002 C 448.91 135.70200000000003 447.64300000000003 140.42800000000003 449.77700000000004 144.12300000000002 C 451.20900000000006 146.60200000000003 453.80500000000006 147.98800000000003 456.475 147.98800000000003 C 457.786 147.98800000000003 459.115 147.65400000000002 460.331 146.95100000000002 L 481.50800000000004 134.72500000000002 C 479.06000000000006 130.18200000000002 476.47900000000004 125.72200000000002 473.76900000000006 121.35000000000002 z M 367.877 62.22300000000001 C 369.094 62.926000000000016 370.422 63.26000000000001 371.733 63.26000000000001 C 374.403 63.26000000000001 377.001 61.87400000000001 378.431 59.39500000000001 L 390.65 38.23100000000001 C 386.27799999999996 35.52100000000001 381.81699999999995 32.94000000000001 377.275 30.492000000000008 L 365.049 51.66900000000001 C 362.91499999999996 55.36500000000001 364.18199999999996 60.09000000000001 367.87699999999995 62.22300000000001 z M 256 32.24600000000001 C 260.268 32.24600000000001 263.726 28.78700000000001 263.726 24.52000000000001 L 263.726 0.1150000000000091 C 261.16 0.0390000000000091 258.585 9.089951014118469e-15 256 9.089951014118469e-15 C 253.41500000000002 9.089951014118469e-15 250.84 0.03900000000000909 248.274 0.1150000000000091 L 248.274 24.52000000000001 C 248.274 28.78700000000001 251.732 32.24600000000001 256 32.24600000000001 z M 313.911 39.87100000000001 C 314.581 40.05000000000001 315.254 40.13600000000001 315.916 40.13600000000001 C 319.327 40.13600000000001 322.449 37.85900000000001 323.374 34.40800000000001 L 329.70700000000005 10.771000000000008 C 324.79200000000003 9.296000000000008 319.8140000000001 7.9640000000000075 314.77900000000005 6.781000000000008 L 308.44800000000004 30.40800000000001 C 307.34400000000005 34.52900000000001 309.79 38.766000000000005 313.91100000000006 39.87100000000001 z M 414.217 97.78200000000001 C 415.726 99.29100000000001 417.704 100.04500000000002 419.681 100.04500000000002 C 421.65799999999996 100.04500000000002 423.63599999999997 99.29000000000002 425.145 97.78200000000001 L 442.40099999999995 80.52600000000001 C 438.86899999999997 76.775 435.22499999999997 73.13100000000001 431.47399999999993 69.59900000000002 L 414.2169999999999 86.85600000000002 C 411.19999999999993 89.87300000000002 411.19999999999993 94.76500000000003 414.2169999999999 97.78200000000002 z M 32.24599999999998 256 C 32.24599999999998 251.733 28.78699999999998 248.274 24.519999999999982 248.274 L 0.11499999999998067 248.274 C 0.038999999999980675 250.84 -1.9331758416285538e-14 253.415 -1.9331758416285538e-14 256 C -1.9331758416285538e-14 258.58500000000004 0.03899999999998067 261.16 0.11499999999998067 263.726 L 24.519999999999982 263.726 C 28.787999999999982 263.726 32.24599999999998 260.267 32.24599999999998 256 z M 425.145 414.21799999999996 C 422.127 411.20099999999996 417.236 411.20099999999996 414.217 414.21799999999996 C 411.2 417.23499999999996 411.2 422.12699999999995 414.217 425.145 L 431.474 442.402 C 435.22499999999997 438.87 438.86899999999997 435.226 442.401 431.47499999999997 z M 479.75399999999996 255.99999999999997 C 479.75399999999996 260.267 483.21299999999997 263.726 487.47999999999996 263.726 L 511.885 263.726 C 511.961 261.16 512 258.585 512 256 C 512 253.41500000000002 511.961 250.84 511.885 248.274 L 487.48 248.274 C 483.21200000000005 248.274 479.754 251.733 479.754 256 z M 97.78299999999996 414.21799999999996 C 94.76499999999996 411.20099999999996 89.87399999999995 411.20099999999996 86.85499999999996 414.21799999999996 L 69.59899999999996 431.47399999999993 C 73.13099999999996 435.2249999999999 76.77499999999996 438.8689999999999 80.52599999999995 442.40099999999995 L 97.78299999999996 425.14399999999995 C 100.79999999999995 422.12699999999995 100.79999999999995 417.23499999999996 97.78299999999996 414.21799999999996 z M 86.85499999999996 97.78199999999998 C 88.36399999999996 99.29099999999998 90.34199999999996 100.04499999999999 92.31899999999996 100.04499999999999 C 94.29599999999996 100.04499999999999 96.27399999999996 99.28999999999999 97.78299999999996 97.78199999999998 C 100.79999999999995 94.76499999999999 100.79999999999995 89.87299999999998 97.78299999999996 86.85499999999999 L 80.52599999999995 69.59899999999999 C 76.77499999999995 73.13099999999999 73.13099999999996 76.77499999999999 69.59899999999996 80.52599999999998 z M 188.62599999999998 34.40699999999998 C 189.551 37.85899999999998 192.67199999999997 40.134999999999984 196.08399999999997 40.134999999999984 C 196.74599999999998 40.134999999999984 197.41899999999998 40.048999999999985 198.08899999999997 39.86999999999998 C 202.21099999999996 38.764999999999986 204.65599999999998 34.527999999999984 203.55199999999996 30.406999999999982 L 197.21999999999997 6.779999999999983 C 192.18499999999997 7.962999999999983 187.20699999999997 9.294999999999984 182.29199999999997 10.769999999999984 z M 203.551 481.59299999999996 C 204.65599999999998 477.47099999999995 202.20999999999998 473.234 198.088 472.12999999999994 C 193.964 471.02799999999996 189.72899999999998 473.4719999999999 188.625 477.59299999999996 L 182.291 501.22999999999996 C 187.207 502.705 192.184 504.037 197.219 505.21999999999997 z M 323.37399999999997 477.59299999999996 C 322.27 473.472 318.034 471.02799999999996 313.91099999999994 472.12999999999994 C 309.78899999999993 473.23499999999996 307.34399999999994 477.4719999999999 308.4479999999999 481.59299999999996 L 314.77899999999994 505.21999999999997 C 319.81399999999996 504.037 324.7919999999999 502.705 329.70699999999994 501.22999999999996 z M 378.43199999999996 452.60499999999996 C 376.299 448.90899999999993 371.57199999999995 447.643 367.878 449.777 C 364.183 451.90999999999997 362.916 456.63599999999997 365.05 460.33099999999996 L 377.276 481.508 C 381.819 479.06 386.279 476.479 390.651 473.769 z M 481.59299999999996 308.448 C 477.46899999999994 307.346 473.234 309.78999999999996 472.12999999999994 313.912 C 471.0249999999999 318.034 473.47099999999995 322.27 477.59299999999996 323.375 L 501.22999999999996 329.708 C 502.70599999999996 324.79200000000003 504.037 319.814 505.21999999999997 314.77900000000005 z M 460.33099999999996 365.049 C 456.63399999999996 362.91499999999996 451.90899999999993 364.181 449.777 367.87699999999995 C 447.643 371.57199999999995 448.90999999999997 376.29799999999994 452.60499999999996 378.4309999999999 L 473.76899999999995 390.6499999999999 C 476.4789999999999 386.2779999999999 479.05999999999995 381.8169999999999 481.5079999999999 377.2749999999999 z M 263.726 511.885 L 263.726 487.48 C 263.726 483.213 260.267 479.754 256 479.754 C 251.733 479.754 248.274 483.213 248.274 487.48 L 248.274 511.885 C 250.84 511.961 253.415 512 256 512 C 258.58500000000004 512 261.16 511.961 263.726 511.885 z M 51.66900000000001 146.95099999999996 C 52.88600000000001 147.65399999999997 54.21400000000001 147.98799999999997 55.52500000000001 147.98799999999997 C 58.195000000000014 147.98799999999997 60.79300000000001 146.60199999999998 62.22300000000001 144.12299999999996 C 64.35700000000001 140.42799999999997 63.09000000000001 135.70199999999997 59.39500000000001 133.56899999999996 L 38.23100000000001 121.34999999999997 C 35.522000000000006 125.72199999999997 32.94000000000001 130.18299999999996 30.492000000000008 134.72499999999997 z M 30.40700000000001 203.55199999999996 C 31.077000000000012 203.73099999999997 31.75000000000001 203.81699999999995 32.41200000000001 203.81699999999995 C 35.823000000000015 203.81699999999995 38.945000000000014 201.53999999999996 39.87000000000001 198.08799999999994 C 40.97500000000001 193.96599999999995 38.52900000000001 189.72999999999993 34.40700000000001 188.62499999999994 L 10.77000000000001 182.29199999999994 C 9.29500000000001 187.20799999999994 7.96300000000001 192.18599999999995 6.78000000000001 197.22099999999995 z M 133.568 59.39499999999995 C 134.99900000000002 61.87399999999995 137.596 63.259999999999955 140.26600000000002 63.259999999999955 C 141.57700000000003 63.259999999999955 142.906 62.92599999999995 144.122 62.222999999999956 C 147.817 60.089999999999954 149.084 55.363999999999955 146.95000000000002 51.668999999999954 L 134.72400000000002 30.491999999999955 C 130.181 32.939999999999955 125.72100000000002 35.52099999999996 121.34900000000002 38.23099999999995 z M 146.95100000000002 460.3309999999999 C 149.085 456.6349999999999 147.818 451.9099999999999 144.12300000000002 449.77699999999993 C 140.42600000000002 447.64199999999994 135.70100000000002 448.90899999999993 133.56900000000002 452.6049999999999 L 121.35000000000002 473.7689999999999 C 125.72200000000002 476.4779999999999 130.18300000000002 479.0599999999999 134.72500000000002 481.50799999999987 z M 59.395000000000024 378.4309999999999 C 63.090000000000025 376.29799999999994 64.35700000000003 371.57199999999995 62.22300000000003 367.87699999999995 C 60.08900000000003 364.1809999999999 55.36200000000003 362.91499999999996 51.669000000000025 365.049 L 30.492000000000026 377.275 C 32.940000000000026 381.818 35.52100000000003 386.27799999999996 38.23100000000002 390.65 z M 34.407000000000025 323.37499999999994 C 38.529000000000025 322.2699999999999 40.974000000000025 318.03399999999993 39.870000000000026 313.9119999999999 C 38.76600000000003 309.7899999999999 34.53100000000003 307.3469999999999 30.407000000000025 308.4479999999999 L 6.780000000000026 314.77899999999994 C 7.963000000000026 319.81399999999996 9.295000000000027 324.7919999999999 10.770000000000026 329.7079999999999 z" stroke-linecap="round" />
</g>
		<g transform="matrix(1 0 0 1 232.54 62.95)"  >
<path style="stroke: none; stroke-width: 1; stroke-dasharray: none; stroke-linecap: butt; stroke-dashoffset: 0; stroke-linejoin: miter; stroke-miterlimit: 4; fill: rgb(236,195,46); fill-rule: nonzero; opacity: 1;" vector-effect="non-scaling-stroke"  transform=" translate(-488.54, -318.95)" d="M 505.22 314.779 L 481.593 308.448 C 477.469 307.346 473.23400000000004 309.78999999999996 472.13 313.912 C 471.025 318.034 473.471 322.27 477.593 323.375 L 501.23 329.708 C 502.70500000000004 324.79200000000003 504.03700000000003 319.814 505.22 314.77900000000005 z" stroke-linecap="round" />
</g>
		<g transform="matrix(1 0 0 1 209.12 121.33)"  >
<path style="stroke: none; stroke-width: 1; stroke-dasharray: none; stroke-linecap: butt; stroke-dashoffset: 0; stroke-linejoin: miter; stroke-miterlimit: 4; fill: rgb(236,195,46); fill-rule: nonzero; opacity: 1;" vector-effect="non-scaling-stroke"  transform=" translate(-465.12, -377.33)" d="M 452.605 378.431 L 473.769 390.65 C 476.479 386.27799999999996 479.06 381.81699999999995 481.508 377.275 L 460.33099999999996 365.049 C 456.63399999999996 362.91499999999996 451.90899999999993 364.181 449.777 367.87699999999995 C 447.643 371.57199999999995 448.909 376.29799999999994 452.60499999999996 378.4309999999999 z" stroke-linecap="round" />
</g>
		<g transform="matrix(1 0 0 1 171.18 171.18)"  >
<path style="stroke: none; stroke-width: 1; stroke-dasharray: none; stroke-linecap: butt; stroke-dashoffset: 0; stroke-linejoin: miter; stroke-miterlimit: 4; fill: rgb(236,195,46); fill-rule: nonzero; opacity: 1;" vector-effect="non-scaling-stroke"  transform=" translate(-427.18, -427.18)" d="M 414.217 414.218 C 411.2 417.235 411.2 422.127 414.217 425.14500000000004 L 431.474 442.40200000000004 C 435.22499999999997 438.87000000000006 438.86899999999997 435.22600000000006 442.401 431.475 L 425.145 414.21900000000005 C 422.127 411.2010000000001 417.23499999999996 411.2010000000001 414.217 414.2180000000001 z" stroke-linecap="round" />
</g>
		<g transform="matrix(1 0 0 1 0 243.37)"  >
<path style="stroke: none; stroke-width: 1; stroke-dasharray: none; stroke-linecap: butt; stroke-dashoffset: 0; stroke-linejoin: miter; stroke-miterlimit: 4; fill: rgb(236,195,46); fill-rule: nonzero; opacity: 1;" vector-effect="non-scaling-stroke"  transform=" translate(-256, -499.37)" d="M 248.274 511.885 C 250.84 511.961 253.415 512 256 512 C 258.58500000000004 512 261.16 511.961 263.726 511.885 L 263.726 487.48 C 263.726 487.22700000000003 263.713 486.978 263.69 486.732 C 258.603 487.716 253.463 488.54900000000004 248.273 489.22700000000003 L 248.273 511.88500000000005 z" stroke-linecap="round" />
</g>
		<g transform="matrix(1 0 0 1 -127.18 221.69)"  >
<path style="stroke: none; stroke-width: 1; stroke-dasharray: none; stroke-linecap: butt; stroke-dashoffset: 0; stroke-linejoin: miter; stroke-miterlimit: 4; fill: rgb(236,195,46); fill-rule: nonzero; opacity: 1;" vector-effect="non-scaling-stroke"  transform=" translate(-128.82, -477.69)" d="M 134.725 481.508 L 136.126 479.082 C 131.189 477.489 126.31800000000001 475.751 121.51700000000001 473.872 C 125.83600000000001 476.54400000000004 130.24 479.091 134.72500000000002 481.50800000000004 z" stroke-linecap="round" />
</g>
		<g transform="matrix(1 0 0 1 -64.34 241.47)"  >
<path style="stroke: none; stroke-width: 1; stroke-dasharray: none; stroke-linecap: butt; stroke-dashoffset: 0; stroke-linejoin: miter; stroke-miterlimit: 4; fill: rgb(236,195,46); fill-rule: nonzero; opacity: 1;" vector-effect="non-scaling-stroke"  transform=" translate(-191.66, -497.47)" d="M 201.022 491.032 C 195.76299999999998 490.753 190.546 490.316 185.375 489.724 L 182.292 501.229 C 187.208 502.704 192.185 504.036 197.22 505.219 z" stroke-linecap="round" />
</g>
		<g transform="matrix(1 0 0 1 126.57 -218.01)"  >
<path style="stroke: none; stroke-width: 1; stroke-dasharray: none; stroke-linecap: butt; stroke-dashoffset: 0; stroke-linejoin: miter; stroke-miterlimit: 4; fill: rgb(236,195,46); fill-rule: nonzero; opacity: 1;" vector-effect="non-scaling-stroke"  transform=" translate(-382.57, -37.99)" d="M 374.495 35.307 C 378.589 38.579 382.579 41.973 386.462 45.485 L 390.65 38.231 C 386.27799999999996 35.521 381.81699999999995 32.94 377.275 30.492 z" stroke-linecap="round" />
</g>
		<g transform="matrix(1 0 0 1 121.33 209.12)"  >
<path style="stroke: none; stroke-width: 1; stroke-dasharray: none; stroke-linecap: butt; stroke-dashoffset: 0; stroke-linejoin: miter; stroke-miterlimit: 4; fill: rgb(236,195,46); fill-rule: nonzero; opacity: 1;" vector-effect="non-scaling-stroke"  transform=" translate(-377.33, -465.12)" d="M 367.877 449.777 C 364.182 451.90999999999997 362.915 456.63599999999997 365.04900000000004 460.33099999999996 L 377.27500000000003 481.508 C 381.81800000000004 479.06 386.278 476.479 390.65000000000003 473.769 L 378.43100000000004 452.605 C 376.29900000000004 448.908 371.571 447.642 367.87700000000007 449.77700000000004 z" stroke-linecap="round" />
</g>
		<g transform="matrix(1 0 0 1 232.54 -62.95)"  >
<path style="stroke: none; stroke-width: 1; stroke-dasharray: none; stroke-linecap: butt; stroke-dashoffset: 0; stroke-linejoin: miter; stroke-miterlimit: 4; fill: rgb(236,195,46); fill-rule: nonzero; opacity: 1;" vector-effect="non-scaling-stroke"  transform=" translate(-488.54, -193.05)" d="M 505.22 197.221 C 504.03700000000003 192.186 502.70500000000004 187.208 501.23 182.292 L 477.593 188.625 C 473.471 189.73 471.026 193.966 472.13 198.088 C 473.055 201.54 476.176 203.817 479.588 203.817 C 480.25 203.817 480.923 203.731 481.593 203.55200000000002 z" stroke-linecap="round" />
</g>
		<g transform="matrix(1 0 0 1 239.88 0)"  >
<path style="stroke: none; stroke-width: 1; stroke-dasharray: none; stroke-linecap: butt; stroke-dashoffset: 0; stroke-linejoin: miter; stroke-miterlimit: 4; fill: rgb(236,195,46); fill-rule: nonzero; opacity: 1;" vector-effect="non-scaling-stroke"  transform=" translate(-495.88, -256)" d="M 487.48 248.274 C 483.21200000000005 248.274 479.754 251.733 479.754 256 C 479.754 260.267 483.213 263.726 487.48 263.726 L 511.885 263.726 C 511.961 261.16 512 258.585 512 256 C 512 253.41500000000002 511.961 250.84 511.885 248.274 z" stroke-linecap="round" />
</g>
		<g transform="matrix(1 0 0 1 62.95 232.54)"  >
<path style="stroke: none; stroke-width: 1; stroke-dasharray: none; stroke-linecap: butt; stroke-dashoffset: 0; stroke-linejoin: miter; stroke-miterlimit: 4; fill: rgb(236,195,46); fill-rule: nonzero; opacity: 1;" vector-effect="non-scaling-stroke"  transform=" translate(-318.95, -488.54)" d="M 314.78 505.22 C 319.815 504.03700000000003 324.79299999999995 502.70500000000004 329.70799999999997 501.23 L 323.37499999999994 477.593 C 322.27099999999996 473.47200000000004 318.03499999999997 471.028 313.9119999999999 472.13 C 309.7899999999999 473.235 307.3449999999999 477.472 308.4489999999999 481.593 z" stroke-linecap="round" />
</g>
		<g transform="matrix(1 0 0 1 174.93 -173.99)"  >
<path style="stroke: none; stroke-width: 1; stroke-dasharray: none; stroke-linecap: butt; stroke-dashoffset: 0; stroke-linejoin: miter; stroke-miterlimit: 4; fill: rgb(236,195,46); fill-rule: nonzero; opacity: 1;" vector-effect="non-scaling-stroke"  transform=" translate(-430.93, -82.01)" d="M 431.474 69.599 L 419.467 81.60600000000001 C 422.608 85.77900000000001 425.62399999999997 90.05100000000002 428.51 94.417 L 442.401 80.526 C 438.869 76.77499999999999 435.225 73.131 431.474 69.59899999999999 z" stroke-linecap="round" />
</g>
		<g transform="matrix(1 0 0 1 210.01 -121.33)"  >
<path style="stroke: none; stroke-width: 1; stroke-dasharray: none; stroke-linecap: butt; stroke-dashoffset: 0; stroke-linejoin: miter; stroke-miterlimit: 4; fill: rgb(236,195,46); fill-rule: nonzero; opacity: 1;" vector-effect="non-scaling-stroke"  transform=" translate(-466.01, -134.67)" d="M 452.605 133.569 C 451.78000000000003 134.045 451.076 134.652 450.504 135.34599999999998 C 452.262 139.48299999999998 453.91400000000004 143.67499999999998 455.457 147.92 C 455.794 147.96499999999997 456.134 147.988 456.47499999999997 147.988 C 457.78599999999994 147.988 459.11499999999995 147.654 460.33099999999996 146.951 L 481.508 134.725 C 479.06 130.182 476.479 125.722 473.769 121.35 z" stroke-linecap="round" />
</g>
		<g transform="matrix(1 0 0 1 0 0)"  >
<path style="stroke: none; stroke-width: 1; stroke-dasharray: none; stroke-linecap: butt; stroke-dashoffset: 0; stroke-linejoin: miter; stroke-miterlimit: 4; fill: rgb(241,211,51); fill-rule: nonzero; opacity: 1;" vector-effect="non-scaling-stroke"  transform=" translate(-256, -256)" d="M 256 250.851 C 251.732 250.851 248.274 247.392 248.274 243.125 L 248.274 175.499 C 248.274 171.232 251.733 167.773 256 167.773 C 260.267 167.773 263.726 171.232 263.726 175.499 L 263.726 243.125 C 263.726 247.391 260.268 250.851 256 250.851 z M 250.851 256 C 250.851 251.733 247.392 248.274 243.125 248.274 L 170.926 248.274 C 166.658 248.274 163.2 251.733 163.2 256 C 163.2 260.267 166.659 263.726 170.926 263.726 L 243.125 263.726 C 247.392 263.726 250.851 260.267 250.851 256 z M 263.726 336.501 L 263.726 268.875 C 263.726 264.608 260.267 261.149 256 261.149 C 251.733 261.149 248.274 264.608 248.274 268.875 L 248.274 336.501 C 248.274 340.768 251.733 344.227 256 344.227 C 260.267 344.227 263.726 340.76899999999995 263.726 336.501 z M 348.801 255.99999999999997 C 348.801 251.73299999999998 345.342 248.27399999999997 341.075 248.27399999999997 L 266.436 248.27399999999997 C 262.168 248.27399999999997 258.71 251.73299999999998 258.71 255.99999999999997 C 258.71 260.26699999999994 262.169 263.726 266.436 263.726 L 341.075 263.726 C 345.342 263.726 348.801 260.267 348.801 256 z" stroke-linecap="round" />
</g>
		<g transform="matrix(1 0 0 1 0 0)"  >
<circle style="stroke: none; stroke-width: 1; stroke-dasharray: none; stroke-linecap: butt; stroke-dashoffset: 0; stroke-linejoin: miter; stroke-miterlimit: 4; fill: rgb(249,239,175); fill-rule: nonzero; opacity: 1;" vector-effect="non-scaling-stroke"  cx="0" cy="0" r="23.099" />
</g>
</g>
</g>
<g transform="matrix(0.14 0 0 0.14 190.91 193.5)"  >
<g style="" vector-effect="non-scaling-stroke"   >
		<g transform="matrix(1 0 0 1 0 0)"  >
<circle style="stroke: none; stroke-width: 1; stroke-dasharray: none; stroke-linecap: butt; stroke-dashoffset: 0; stroke-linejoin: miter; stroke-miterlimit: 4; fill: rgb(244,221,69); fill-rule: nonzero; opacity: 1;" vector-effect="non-scaling-stroke"  cx="0" cy="0" r="256" />
</g>
		<g transform="matrix(1 0 0 1 60.76 8.76)"  >
<path style="stroke: none; stroke-width: 1; stroke-dasharray: none; stroke-linecap: butt; stroke-dashoffset: 0; stroke-linejoin: miter; stroke-miterlimit: 4; fill: rgb(241,211,51); fill-rule: nonzero; opacity: 1;" vector-effect="non-scaling-stroke"  transform=" translate(-316.76, -264.76)" d="M 349.277 17.525 C 422.206 62.637 470.793 143.343 470.793 235.39700000000002 C 470.793 376.78200000000004 356.178 491.39700000000005 214.793 491.39700000000005 C 181.881 491.39700000000005 150.419 485.18600000000004 121.516 473.87200000000007 C 160.598 498.0470000000001 206.669 512.0000000000001 256 512.0000000000001 C 397.385 512.0000000000001 512 397.3850000000001 512 256.0000000000001 C 512 147.5270000000001 444.53499999999997 54.812000000000126 349.277 17.52500000000012 z" stroke-linecap="round" />
</g>
		<g transform="matrix(1 0 0 1 0 0)"  >
<circle style="stroke: none; stroke-width: 1; stroke-dasharray: none; stroke-linecap: butt; stroke-dashoffset: 0; stroke-linejoin: miter; stroke-miterlimit: 4; fill: rgb(234,177,77); fill-rule: nonzero; opacity: 1;" vector-effect="non-scaling-stroke"  cx="0" cy="0" r="205.726" />
</g>
		<g transform="matrix(1 0 0 1 46.9 6.24)"  >
<path style="stroke: none; stroke-width: 1; stroke-dasharray: none; stroke-linecap: butt; stroke-dashoffset: 0; stroke-linejoin: miter; stroke-miterlimit: 4; fill: rgb(231,165,46); fill-rule: nonzero; opacity: 1;" vector-effect="non-scaling-stroke"  transform=" translate(-302.9, -262.24)" d="M 326.713 62.75 C 383.175 99.42699999999999 420.519 163.051 420.519 235.397 C 420.519 349.01599999999996 328.413 441.123 214.793 441.123 C 189.947 441.123 166.13 436.718 144.08 428.64799999999997 C 176.29200000000003 449.573 214.726 461.727 256 461.727 C 369.619 461.727 461.726 369.62 461.726 256.001 C 461.726 167.22699999999998 405.497 91.58599999999998 326.71299999999997 62.74999999999997 z" stroke-linecap="round" />
</g>
		<g transform="matrix(1 0 0 1 0 0)"  >
<path style="stroke: none; stroke-width: 1; stroke-dasharray: none; stroke-linecap: butt; stroke-dashoffset: 0; stroke-linejoin: miter; stroke-miterlimit: 4; fill: rgb(244,221,69); fill-rule: nonzero; opacity: 1;" vector-effect="non-scaling-stroke"  transform=" translate(-256, -256)" d="M 369.976 257.464 C 369.167 256.655 369.167 255.344 369.976 254.535 L 381.106 243.405 C 396.641 227.87 396.641 202.684 381.106 187.149 C 365.57099999999997 171.615 340.385 171.615 324.85 187.149 C 340.384 171.615 340.384 146.428 324.85 130.893 C 309.315 115.358 284.12800000000004 115.358 268.59400000000005 130.893 L 257.46400000000006 142.023 C 256.65500000000003 142.832 255.34400000000005 142.832 254.53500000000005 142.023 L 243.40500000000006 130.893 C 227.87000000000006 115.358 202.68400000000005 115.358 187.14900000000006 130.893 C 171.61500000000007 146.428 171.61500000000007 171.614 187.14900000000006 187.149 C 171.61500000000007 171.615 146.42800000000005 171.615 130.89300000000006 187.149 C 115.35800000000006 202.684 115.35800000000006 227.871 130.89300000000006 243.405 L 142.02300000000005 254.535 C 142.83200000000005 255.344 142.83200000000005 256.655 142.02300000000005 257.464 L 130.89300000000006 268.594 C 115.35800000000006 284.129 115.35800000000006 309.315 130.89300000000006 324.85 C 146.42800000000005 340.384 171.61400000000006 340.384 187.14900000000006 324.85 C 171.61500000000007 340.384 171.61500000000007 365.571 187.14900000000006 381.106 C 202.68400000000005 396.641 227.87100000000007 396.641 243.40500000000006 381.106 L 254.53500000000005 369.976 C 255.34400000000005 369.167 256.65500000000003 369.167 257.46400000000006 369.976 L 268.59400000000005 381.106 C 284.1290000000001 396.641 309.31500000000005 396.641 324.85 381.106 C 340.384 365.57099999999997 340.384 340.385 324.85 324.85 C 340.384 340.384 365.571 340.384 381.106 324.85 C 396.641 309.315 396.641 284.12800000000004 381.106 268.59400000000005 z" stroke-linecap="round" />
</g>
		<g transform="matrix(1 0 0 1 -69.81 -53.65)"  >
<path style="stroke: none; stroke-width: 1; stroke-dasharray: none; stroke-linecap: butt; stroke-dashoffset: 0; stroke-linejoin: miter; stroke-miterlimit: 4; fill: rgb(241,211,51); fill-rule: nonzero; opacity: 1;" vector-effect="non-scaling-stroke"  transform=" translate(-186.18, -202.35)" d="M 154.028 175.812 L 205.15099999999998 226.93400000000003 C 206.65999999999997 228.443 208.63799999999998 229.19700000000003 210.61499999999998 229.19700000000003 C 212.59199999999998 229.19700000000003 214.57 228.44200000000004 216.07899999999998 226.93400000000003 C 219.09599999999998 223.91700000000003 219.09599999999998 219.02500000000003 216.07899999999998 216.00700000000003 L 185.77299999999997 185.70100000000002 C 186.21799999999996 186.19200000000004 186.67699999999996 186.675 187.15099999999995 187.14900000000003 C 178.10899999999995 178.10900000000004 165.80099999999996 174.33100000000002 154.02799999999996 175.81200000000004 z" stroke-linecap="round" />
</g>
		<g transform="matrix(1 0 0 1 -69.81 53.65)"  >
<path style="stroke: none; stroke-width: 1; stroke-dasharray: none; stroke-linecap: butt; stroke-dashoffset: 0; stroke-linejoin: miter; stroke-miterlimit: 4; fill: rgb(241,211,51); fill-rule: nonzero; opacity: 1;" vector-effect="non-scaling-stroke"  transform=" translate(-186.19, -309.65)" d="M 205.156 285.066 L 154.03300000000002 336.18899999999996 C 165.80400000000003 337.66799999999995 178.11100000000002 333.88899999999995 187.149 324.85099999999994 C 186.655 325.34499999999997 186.176 325.84899999999993 185.714 326.36299999999994 L 216.084 295.99299999999994 C 219.101 292.97599999999994 219.101 288.08399999999995 216.084 285.0659999999999 C 213.067 282.0489999999999 208.17600000000002 282.04799999999994 205.156 285.0659999999999 z" stroke-linecap="round" />
</g>
		<g transform="matrix(1 0 0 1 69.82 -53.65)"  >
<path style="stroke: none; stroke-width: 1; stroke-dasharray: none; stroke-linecap: butt; stroke-dashoffset: 0; stroke-linejoin: miter; stroke-miterlimit: 4; fill: rgb(241,211,51); fill-rule: nonzero; opacity: 1;" vector-effect="non-scaling-stroke"  transform=" translate(-325.82, -202.35)" d="M 357.972 175.812 L 306.849 226.93400000000003 C 305.34 228.443 303.36199999999997 229.19700000000003 301.385 229.19700000000003 C 299.408 229.19700000000003 297.43 228.44200000000004 295.921 226.93400000000003 C 292.904 223.91700000000003 292.904 219.02500000000003 295.921 216.00700000000003 L 326.227 185.70100000000002 C 325.782 186.19200000000004 325.323 186.675 324.849 187.14900000000003 C 333.89099999999996 178.10900000000004 346.199 174.33100000000002 357.972 175.81200000000004 z" stroke-linecap="round" />
</g>
		<g transform="matrix(1 0 0 1 69.81 53.65)"  >
<path style="stroke: none; stroke-width: 1; stroke-dasharray: none; stroke-linecap: butt; stroke-dashoffset: 0; stroke-linejoin: miter; stroke-miterlimit: 4; fill: rgb(241,211,51); fill-rule: nonzero; opacity: 1;" vector-effect="non-scaling-stroke"  transform=" translate(-325.81, -309.65)" d="M 306.844 285.066 L 357.967 336.18899999999996 C 346.19599999999997 337.66799999999995 333.889 333.88899999999995 324.851 324.85099999999994 C 325.345 325.34499999999997 325.824 325.84899999999993 326.286 326.36299999999994 L 295.916 295.99299999999994 C 292.899 292.97599999999994 292.899 288.08399999999995 295.916 285.0659999999999 C 298.933 282.0489999999999 303.824 282.04799999999994 306.844 285.0659999999999 z" stroke-linecap="round" />
</g>
		<g transform="matrix(1 0 0 1 70.1 28.13)"  >
<path style="stroke: none; stroke-width: 1; stroke-dasharray: none; stroke-linecap: butt; stroke-dashoffset: 0; stroke-linejoin: miter; stroke-miterlimit: 4; fill: rgb(241,211,51); fill-rule: nonzero; opacity: 1;" vector-effect="non-scaling-stroke"  transform=" translate(-326.1, -284.13)" d="M 369.976 257.464 C 369.167 256.655 369.167 255.344 369.976 254.535 L 381.106 243.405 C 396.641 227.87 396.641 202.684 381.106 187.149 C 371.78499999999997 177.828 358.988 174.1 346.887 175.965 C 354.909 191.00900000000001 352.58 210.121 339.899 222.80200000000002 L 336.792 225.90900000000002 C 331.55199999999996 231.14900000000003 331.55199999999996 239.644 336.792 244.88400000000001 L 339.368 247.46 C 355.116 263.208 355.413 289.279 339.391 304.747 C 328.632 315.134 313.463 318.264 300.04600000000005 314.13800000000003 C 298.189 313.567 296.1700000000001 314.02400000000006 294.79600000000005 315.398 C 293.41900000000004 316.77500000000003 292.96600000000007 318.798 293.53800000000007 320.66 C 297.72400000000005 334.28700000000003 294.42600000000004 349.72 283.64400000000006 360.50300000000004 C 276.87800000000004 367.26900000000006 268.28100000000006 371.088 259.44800000000004 371.96000000000004 L 268.595 381.107 C 284.13000000000005 396.64200000000005 309.31600000000003 396.64200000000005 324.851 381.107 C 340.385 365.572 340.385 340.386 324.851 324.851 C 340.202 340.202 364.979 340.383 380.553 325.394 C 396.624 309.927 396.323 283.812 380.551 268.04 z" stroke-linecap="round" />
</g>
		<g transform="matrix(1 0 0 1 0.01 -167.09)"  >
<circle style="stroke: none; stroke-width: 1; stroke-dasharray: none; stroke-linecap: butt; stroke-dashoffset: 0; stroke-linejoin: miter; stroke-miterlimit: 4; fill: rgb(244,221,69); fill-rule: nonzero; opacity: 1;" vector-effect="non-scaling-stroke"  cx="0" cy="0" r="12.875" />
</g>
		<g transform="matrix(1 0 0 1 167.09 -0.01)"  >
<circle style="stroke: none; stroke-width: 1; stroke-dasharray: none; stroke-linecap: butt; stroke-dashoffset: 0; stroke-linejoin: miter; stroke-miterlimit: 4; fill: rgb(244,221,69); fill-rule: nonzero; opacity: 1;" vector-effect="non-scaling-stroke"  cx="0" cy="0" r="12.875" />
</g>
		<g transform="matrix(1 0 0 1 170.97 -0.01)"  >
<path style="stroke: none; stroke-width: 1; stroke-dasharray: none; stroke-linecap: butt; stroke-dashoffset: 0; stroke-linejoin: miter; stroke-miterlimit: 4; fill: rgb(241,211,51); fill-rule: nonzero; opacity: 1;" vector-effect="non-scaling-stroke"  transform=" translate(-426.97, -256)" d="M 435.966 256 C 435.966 248.889 430.202 243.125 423.091 243.125 C 422.15500000000003 243.125 421.243 243.226 420.36400000000003 243.415 C 420.047 251.684 419.242 259.828 417.97700000000003 267.818 C 419.545 268.49699999999996 421.27400000000006 268.87399999999997 423.091 268.87399999999997 C 430.202 268.87499999999994 435.966 263.111 435.966 255.99999999999997 z" stroke-linecap="round" />
</g>
		<g transform="matrix(1 0 0 1 0.01 167.09)"  >
<circle style="stroke: none; stroke-width: 1; stroke-dasharray: none; stroke-linecap: butt; stroke-dashoffset: 0; stroke-linejoin: miter; stroke-miterlimit: 4; fill: rgb(244,221,69); fill-rule: nonzero; opacity: 1;" vector-effect="non-scaling-stroke"  cx="0" cy="0" r="12.875" />
</g>
		<g transform="matrix(1 0 0 1 -167.09 -0.01)"  >
<circle style="stroke: none; stroke-width: 1; stroke-dasharray: none; stroke-linecap: butt; stroke-dashoffset: 0; stroke-linejoin: miter; stroke-miterlimit: 4; fill: rgb(244,221,69); fill-rule: nonzero; opacity: 1;" vector-effect="non-scaling-stroke"  cx="0" cy="0" r="12.875" />
</g>
		<g transform="matrix(1 0 0 1 0 0)"  >
<path style="stroke: none; stroke-width: 1; stroke-dasharray: none; stroke-linecap: butt; stroke-dashoffset: 0; stroke-linejoin: miter; stroke-miterlimit: 4; fill: rgb(241,211,51); fill-rule: nonzero; opacity: 1;" vector-effect="non-scaling-stroke"  transform=" translate(-256, -256)" d="M 477.593 188.625 L 501.23 182.292 C 502.706 187.208 504.03700000000003 192.186 505.22 197.221 L 481.593 203.552 C 480.923 203.731 480.25 203.81699999999998 479.588 203.81699999999998 C 476.177 203.81699999999998 473.055 201.54 472.13 198.08799999999997 C 471.025 193.96599999999995 473.471 189.72999999999996 477.593 188.62499999999997 z M 452.605 133.56900000000002 C 448.91 135.70200000000003 447.64300000000003 140.42800000000003 449.77700000000004 144.12300000000002 C 451.20900000000006 146.60200000000003 453.80500000000006 147.98800000000003 456.475 147.98800000000003 C 457.786 147.98800000000003 459.115 147.65400000000002 460.331 146.95100000000002 L 481.50800000000004 134.72500000000002 C 479.06000000000006 130.18200000000002 476.47900000000004 125.72200000000002 473.76900000000006 121.35000000000002 z M 367.877 62.22300000000001 C 369.094 62.926000000000016 370.422 63.26000000000001 371.733 63.26000000000001 C 374.403 63.26000000000001 377.001 61.87400000000001 378.431 59.39500000000001 L 390.65 38.23100000000001 C 386.27799999999996 35.52100000000001 381.81699999999995 32.94000000000001 377.275 30.492000000000008 L 365.049 51.66900000000001 C 362.91499999999996 55.36500000000001 364.18199999999996 60.09000000000001 367.87699999999995 62.22300000000001 z M 256 32.24600000000001 C 260.268 32.24600000000001 263.726 28.78700000000001 263.726 24.52000000000001 L 263.726 0.1150000000000091 C 261.16 0.0390000000000091 258.585 9.089951014118469e-15 256 9.089951014118469e-15 C 253.41500000000002 9.089951014118469e-15 250.84 0.03900000000000909 248.274 0.1150000000000091 L 248.274 24.52000000000001 C 248.274 28.78700000000001 251.732 32.24600000000001 256 32.24600000000001 z M 313.911 39.87100000000001 C 314.581 40.05000000000001 315.254 40.13600000000001 315.916 40.13600000000001 C 319.327 40.13600000000001 322.449 37.85900000000001 323.374 34.40800000000001 L 329.70700000000005 10.771000000000008 C 324.79200000000003 9.296000000000008 319.8140000000001 7.9640000000000075 314.77900000000005 6.781000000000008 L 308.44800000000004 30.40800000000001 C 307.34400000000005 34.52900000000001 309.79 38.766000000000005 313.91100000000006 39.87100000000001 z M 414.217 97.78200000000001 C 415.726 99.29100000000001 417.704 100.04500000000002 419.681 100.04500000000002 C 421.65799999999996 100.04500000000002 423.63599999999997 99.29000000000002 425.145 97.78200000000001 L 442.40099999999995 80.52600000000001 C 438.86899999999997 76.775 435.22499999999997 73.13100000000001 431.47399999999993 69.59900000000002 L 414.2169999999999 86.85600000000002 C 411.19999999999993 89.87300000000002 411.19999999999993 94.76500000000003 414.2169999999999 97.78200000000002 z M 32.24599999999998 256 C 32.24599999999998 251.733 28.78699999999998 248.274 24.519999999999982 248.274 L 0.11499999999998067 248.274 C 0.038999999999980675 250.84 -1.9331758416285538e-14 253.415 -1.9331758416285538e-14 256 C -1.9331758416285538e-14 258.58500000000004 0.03899999999998067 261.16 0.11499999999998067 263.726 L 24.519999999999982 263.726 C 28.787999999999982 263.726 32.24599999999998 260.267 32.24599999999998 256 z M 425.145 414.21799999999996 C 422.127 411.20099999999996 417.236 411.20099999999996 414.217 414.21799999999996 C 411.2 417.23499999999996 411.2 422.12699999999995 414.217 425.145 L 431.474 442.402 C 435.22499999999997 438.87 438.86899999999997 435.226 442.401 431.47499999999997 z M 479.75399999999996 255.99999999999997 C 479.75399999999996 260.267 483.21299999999997 263.726 487.47999999999996 263.726 L 511.885 263.726 C 511.961 261.16 512 258.585 512 256 C 512 253.41500000000002 511.961 250.84 511.885 248.274 L 487.48 248.274 C 483.21200000000005 248.274 479.754 251.733 479.754 256 z M 97.78299999999996 414.21799999999996 C 94.76499999999996 411.20099999999996 89.87399999999995 411.20099999999996 86.85499999999996 414.21799999999996 L 69.59899999999996 431.47399999999993 C 73.13099999999996 435.2249999999999 76.77499999999996 438.8689999999999 80.52599999999995 442.40099999999995 L 97.78299999999996 425.14399999999995 C 100.79999999999995 422.12699999999995 100.79999999999995 417.23499999999996 97.78299999999996 414.21799999999996 z M 86.85499999999996 97.78199999999998 C 88.36399999999996 99.29099999999998 90.34199999999996 100.04499999999999 92.31899999999996 100.04499999999999 C 94.29599999999996 100.04499999999999 96.27399999999996 99.28999999999999 97.78299999999996 97.78199999999998 C 100.79999999999995 94.76499999999999 100.79999999999995 89.87299999999998 97.78299999999996 86.85499999999999 L 80.52599999999995 69.59899999999999 C 76.77499999999995 73.13099999999999 73.13099999999996 76.77499999999999 69.59899999999996 80.52599999999998 z M 188.62599999999998 34.40699999999998 C 189.551 37.85899999999998 192.67199999999997 40.134999999999984 196.08399999999997 40.134999999999984 C 196.74599999999998 40.134999999999984 197.41899999999998 40.048999999999985 198.08899999999997 39.86999999999998 C 202.21099999999996 38.764999999999986 204.65599999999998 34.527999999999984 203.55199999999996 30.406999999999982 L 197.21999999999997 6.779999999999983 C 192.18499999999997 7.962999999999983 187.20699999999997 9.294999999999984 182.29199999999997 10.769999999999984 z M 203.551 481.59299999999996 C 204.65599999999998 477.47099999999995 202.20999999999998 473.234 198.088 472.12999999999994 C 193.964 471.02799999999996 189.72899999999998 473.4719999999999 188.625 477.59299999999996 L 182.291 501.22999999999996 C 187.207 502.705 192.184 504.037 197.219 505.21999999999997 z M 323.37399999999997 477.59299999999996 C 322.27 473.472 318.034 471.02799999999996 313.91099999999994 472.12999999999994 C 309.78899999999993 473.23499999999996 307.34399999999994 477.4719999999999 308.4479999999999 481.59299999999996 L 314.77899999999994 505.21999999999997 C 319.81399999999996 504.037 324.7919999999999 502.705 329.70699999999994 501.22999999999996 z M 378.43199999999996 452.60499999999996 C 376.299 448.90899999999993 371.57199999999995 447.643 367.878 449.777 C 364.183 451.90999999999997 362.916 456.63599999999997 365.05 460.33099999999996 L 377.276 481.508 C 381.819 479.06 386.279 476.479 390.651 473.769 z M 481.59299999999996 308.448 C 477.46899999999994 307.346 473.234 309.78999999999996 472.12999999999994 313.912 C 471.0249999999999 318.034 473.47099999999995 322.27 477.59299999999996 323.375 L 501.22999999999996 329.708 C 502.70599999999996 324.79200000000003 504.037 319.814 505.21999999999997 314.77900000000005 z M 460.33099999999996 365.049 C 456.63399999999996 362.91499999999996 451.90899999999993 364.181 449.777 367.87699999999995 C 447.643 371.57199999999995 448.90999999999997 376.29799999999994 452.60499999999996 378.4309999999999 L 473.76899999999995 390.6499999999999 C 476.4789999999999 386.2779999999999 479.05999999999995 381.8169999999999 481.5079999999999 377.2749999999999 z M 263.726 511.885 L 263.726 487.48 C 263.726 483.213 260.267 479.754 256 479.754 C 251.733 479.754 248.274 483.213 248.274 487.48 L 248.274 511.885 C 250.84 511.961 253.415 512 256 512 C 258.58500000000004 512 261.16 511.961 263.726 511.885 z M 51.66900000000001 146.95099999999996 C 52.88600000000001 147.65399999999997 54.21400000000001 147.98799999999997 55.52500000000001 147.98799999999997 C 58.195000000000014 147.98799999999997 60.79300000000001 146.60199999999998 62.22300000000001 144.12299999999996 C 64.35700000000001 140.42799999999997 63.09000000000001 135.70199999999997 59.39500000000001 133.56899999999996 L 38.23100000000001 121.34999999999997 C 35.522000000000006 125.72199999999997 32.94000000000001 130.18299999999996 30.492000000000008 134.72499999999997 z M 30.40700000000001 203.55199999999996 C 31.077000000000012 203.73099999999997 31.75000000000001 203.81699999999995 32.41200000000001 203.81699999999995 C 35.823000000000015 203.81699999999995 38.945000000000014 201.53999999999996 39.87000000000001 198.08799999999994 C 40.97500000000001 193.96599999999995 38.52900000000001 189.72999999999993 34.40700000000001 188.62499999999994 L 10.77000000000001 182.29199999999994 C 9.29500000000001 187.20799999999994 7.96300000000001 192.18599999999995 6.78000000000001 197.22099999999995 z M 133.568 59.39499999999995 C 134.99900000000002 61.87399999999995 137.596 63.259999999999955 140.26600000000002 63.259999999999955 C 141.57700000000003 63.259999999999955 142.906 62.92599999999995 144.122 62.222999999999956 C 147.817 60.089999999999954 149.084 55.363999999999955 146.95000000000002 51.668999999999954 L 134.72400000000002 30.491999999999955 C 130.181 32.939999999999955 125.72100000000002 35.52099999999996 121.34900000000002 38.23099999999995 z M 146.95100000000002 460.3309999999999 C 149.085 456.6349999999999 147.818 451.9099999999999 144.12300000000002 449.77699999999993 C 140.42600000000002 447.64199999999994 135.70100000000002 448.90899999999993 133.56900000000002 452.6049999999999 L 121.35000000000002 473.7689999999999 C 125.72200000000002 476.4779999999999 130.18300000000002 479.0599999999999 134.72500000000002 481.50799999999987 z M 59.395000000000024 378.4309999999999 C 63.090000000000025 376.29799999999994 64.35700000000003 371.57199999999995 62.22300000000003 367.87699999999995 C 60.08900000000003 364.1809999999999 55.36200000000003 362.91499999999996 51.669000000000025 365.049 L 30.492000000000026 377.275 C 32.940000000000026 381.818 35.52100000000003 386.27799999999996 38.23100000000002 390.65 z M 34.407000000000025 323.37499999999994 C 38.529000000000025 322.2699999999999 40.974000000000025 318.03399999999993 39.870000000000026 313.9119999999999 C 38.76600000000003 309.7899999999999 34.53100000000003 307.3469999999999 30.407000000000025 308.4479999999999 L 6.780000000000026 314.77899999999994 C 7.963000000000026 319.81399999999996 9.295000000000027 324.7919999999999 10.770000000000026 329.7079999999999 z" stroke-linecap="round" />
</g>
		<g transform="matrix(1 0 0 1 232.54 62.94)"  >
<path style="stroke: none; stroke-width: 1; stroke-dasharray: none; stroke-linecap: butt; stroke-dashoffset: 0; stroke-linejoin: miter; stroke-miterlimit: 4; fill: rgb(236,195,46); fill-rule: nonzero; opacity: 1;" vector-effect="non-scaling-stroke"  transform=" translate(-488.54, -318.95)" d="M 505.22 314.779 L 481.593 308.448 C 477.469 307.346 473.23400000000004 309.78999999999996 472.13 313.912 C 471.025 318.034 473.471 322.27 477.593 323.375 L 501.23 329.708 C 502.70500000000004 324.79200000000003 504.03700000000003 319.814 505.22 314.77900000000005 z" stroke-linecap="round" />
</g>
		<g transform="matrix(1 0 0 1 209.12 121.33)"  >
<path style="stroke: none; stroke-width: 1; stroke-dasharray: none; stroke-linecap: butt; stroke-dashoffset: 0; stroke-linejoin: miter; stroke-miterlimit: 4; fill: rgb(236,195,46); fill-rule: nonzero; opacity: 1;" vector-effect="non-scaling-stroke"  transform=" translate(-465.12, -377.33)" d="M 452.605 378.431 L 473.769 390.65 C 476.479 386.27799999999996 479.06 381.81699999999995 481.508 377.275 L 460.33099999999996 365.049 C 456.63399999999996 362.91499999999996 451.90899999999993 364.181 449.777 367.87699999999995 C 447.643 371.57199999999995 448.909 376.29799999999994 452.60499999999996 378.4309999999999 z" stroke-linecap="round" />
</g>
		<g transform="matrix(1 0 0 1 171.17 171.18)"  >
<path style="stroke: none; stroke-width: 1; stroke-dasharray: none; stroke-linecap: butt; stroke-dashoffset: 0; stroke-linejoin: miter; stroke-miterlimit: 4; fill: rgb(236,195,46); fill-rule: nonzero; opacity: 1;" vector-effect="non-scaling-stroke"  transform=" translate(-427.18, -427.18)" d="M 414.217 414.218 C 411.2 417.235 411.2 422.127 414.217 425.14500000000004 L 431.474 442.40200000000004 C 435.22499999999997 438.87000000000006 438.86899999999997 435.22600000000006 442.401 431.475 L 425.145 414.21900000000005 C 422.127 411.2010000000001 417.23499999999996 411.2010000000001 414.217 414.2180000000001 z" stroke-linecap="round" />
</g>
		<g transform="matrix(1 0 0 1 0 243.36)"  >
<path style="stroke: none; stroke-width: 1; stroke-dasharray: none; stroke-linecap: butt; stroke-dashoffset: 0; stroke-linejoin: miter; stroke-miterlimit: 4; fill: rgb(236,195,46); fill-rule: nonzero; opacity: 1;" vector-effect="non-scaling-stroke"  transform=" translate(-256, -499.37)" d="M 248.274 511.885 C 250.84 511.961 253.415 512 256 512 C 258.58500000000004 512 261.16 511.961 263.726 511.885 L 263.726 487.48 C 263.726 487.22700000000003 263.713 486.978 263.69 486.732 C 258.603 487.716 253.463 488.54900000000004 248.273 489.22700000000003 L 248.273 511.88500000000005 z" stroke-linecap="round" />
</g>
		<g transform="matrix(1 0 0 1 -127.18 221.69)"  >
<path style="stroke: none; stroke-width: 1; stroke-dasharray: none; stroke-linecap: butt; stroke-dashoffset: 0; stroke-linejoin: miter; stroke-miterlimit: 4; fill: rgb(236,195,46); fill-rule: nonzero; opacity: 1;" vector-effect="non-scaling-stroke"  transform=" translate(-128.82, -477.69)" d="M 134.725 481.508 L 136.126 479.082 C 131.189 477.489 126.31800000000001 475.751 121.51700000000001 473.872 C 125.83600000000001 476.54400000000004 130.24 479.091 134.72500000000002 481.50800000000004 z" stroke-linecap="round" />
</g>
		<g transform="matrix(1 0 0 1 -64.34 241.47)"  >
<path style="stroke: none; stroke-width: 1; stroke-dasharray: none; stroke-linecap: butt; stroke-dashoffset: 0; stroke-linejoin: miter; stroke-miterlimit: 4; fill: rgb(236,195,46); fill-rule: nonzero; opacity: 1;" vector-effect="non-scaling-stroke"  transform=" translate(-191.66, -497.47)" d="M 201.022 491.032 C 195.76299999999998 490.753 190.546 490.316 185.375 489.724 L 182.292 501.229 C 187.208 502.704 192.185 504.036 197.22 505.219 z" stroke-linecap="round" />
</g>
		<g transform="matrix(1 0 0 1 126.58 -218.01)"  >
<path style="stroke: none; stroke-width: 1; stroke-dasharray: none; stroke-linecap: butt; stroke-dashoffset: 0; stroke-linejoin: miter; stroke-miterlimit: 4; fill: rgb(236,195,46); fill-rule: nonzero; opacity: 1;" vector-effect="non-scaling-stroke"  transform=" translate(-382.57, -37.99)" d="M 374.495 35.307 C 378.589 38.579 382.579 41.973 386.462 45.485 L 390.65 38.231 C 386.27799999999996 35.521 381.81699999999995 32.94 377.275 30.492 z" stroke-linecap="round" />
</g>
		<g transform="matrix(1 0 0 1 121.33 209.12)"  >
<path style="stroke: none; stroke-width: 1; stroke-dasharray: none; stroke-linecap: butt; stroke-dashoffset: 0; stroke-linejoin: miter; stroke-miterlimit: 4; fill: rgb(236,195,46); fill-rule: nonzero; opacity: 1;" vector-effect="non-scaling-stroke"  transform=" translate(-377.33, -465.12)" d="M 367.877 449.777 C 364.182 451.90999999999997 362.915 456.63599999999997 365.04900000000004 460.33099999999996 L 377.27500000000003 481.508 C 381.81800000000004 479.06 386.278 476.479 390.65000000000003 473.769 L 378.43100000000004 452.605 C 376.29900000000004 448.908 371.571 447.642 367.87700000000007 449.77700000000004 z" stroke-linecap="round" />
</g>
		<g transform="matrix(1 0 0 1 232.54 -62.95)"  >
<path style="stroke: none; stroke-width: 1; stroke-dasharray: none; stroke-linecap: butt; stroke-dashoffset: 0; stroke-linejoin: miter; stroke-miterlimit: 4; fill: rgb(236,195,46); fill-rule: nonzero; opacity: 1;" vector-effect="non-scaling-stroke"  transform=" translate(-488.54, -193.05)" d="M 505.22 197.221 C 504.03700000000003 192.186 502.70500000000004 187.208 501.23 182.292 L 477.593 188.625 C 473.471 189.73 471.026 193.966 472.13 198.088 C 473.055 201.54 476.176 203.817 479.588 203.817 C 480.25 203.817 480.923 203.731 481.593 203.55200000000002 z" stroke-linecap="round" />
</g>
		<g transform="matrix(1 0 0 1 239.87 0)"  >
<path style="stroke: none; stroke-width: 1; stroke-dasharray: none; stroke-linecap: butt; stroke-dashoffset: 0; stroke-linejoin: miter; stroke-miterlimit: 4; fill: rgb(236,195,46); fill-rule: nonzero; opacity: 1;" vector-effect="non-scaling-stroke"  transform=" translate(-495.88, -256)" d="M 487.48 248.274 C 483.21200000000005 248.274 479.754 251.733 479.754 256 C 479.754 260.267 483.213 263.726 487.48 263.726 L 511.885 263.726 C 511.961 261.16 512 258.585 512 256 C 512 253.41500000000002 511.961 250.84 511.885 248.274 z" stroke-linecap="round" />
</g>
		<g transform="matrix(1 0 0 1 62.94 232.55)"  >
<path style="stroke: none; stroke-width: 1; stroke-dasharray: none; stroke-linecap: butt; stroke-dashoffset: 0; stroke-linejoin: miter; stroke-miterlimit: 4; fill: rgb(236,195,46); fill-rule: nonzero; opacity: 1;" vector-effect="non-scaling-stroke"  transform=" translate(-318.95, -488.54)" d="M 314.78 505.22 C 319.815 504.03700000000003 324.79299999999995 502.70500000000004 329.70799999999997 501.23 L 323.37499999999994 477.593 C 322.27099999999996 473.47200000000004 318.03499999999997 471.028 313.9119999999999 472.13 C 309.7899999999999 473.235 307.3449999999999 477.472 308.4489999999999 481.593 z" stroke-linecap="round" />
</g>
		<g transform="matrix(1 0 0 1 174.94 -173.99)"  >
<path style="stroke: none; stroke-width: 1; stroke-dasharray: none; stroke-linecap: butt; stroke-dashoffset: 0; stroke-linejoin: miter; stroke-miterlimit: 4; fill: rgb(236,195,46); fill-rule: nonzero; opacity: 1;" vector-effect="non-scaling-stroke"  transform=" translate(-430.93, -82.01)" d="M 431.474 69.599 L 419.467 81.60600000000001 C 422.608 85.77900000000001 425.62399999999997 90.05100000000002 428.51 94.417 L 442.401 80.526 C 438.869 76.77499999999999 435.225 73.131 431.474 69.59899999999999 z" stroke-linecap="round" />
</g>
		<g transform="matrix(1 0 0 1 210 -121.33)"  >
<path style="stroke: none; stroke-width: 1; stroke-dasharray: none; stroke-linecap: butt; stroke-dashoffset: 0; stroke-linejoin: miter; stroke-miterlimit: 4; fill: rgb(236,195,46); fill-rule: nonzero; opacity: 1;" vector-effect="non-scaling-stroke"  transform=" translate(-466.01, -134.67)" d="M 452.605 133.569 C 451.78000000000003 134.045 451.076 134.652 450.504 135.34599999999998 C 452.262 139.48299999999998 453.91400000000004 143.67499999999998 455.457 147.92 C 455.794 147.96499999999997 456.134 147.988 456.47499999999997 147.988 C 457.78599999999994 147.988 459.11499999999995 147.654 460.33099999999996 146.951 L 481.508 134.725 C 479.06 130.182 476.479 125.722 473.769 121.35 z" stroke-linecap="round" />
</g>
		<g transform="matrix(1 0 0 1 0 0)"  >
<path style="stroke: none; stroke-width: 1; stroke-dasharray: none; stroke-linecap: butt; stroke-dashoffset: 0; stroke-linejoin: miter; stroke-miterlimit: 4; fill: rgb(241,211,51); fill-rule: nonzero; opacity: 1;" vector-effect="non-scaling-stroke"  transform=" translate(-256, -256)" d="M 256 250.851 C 251.732 250.851 248.274 247.392 248.274 243.125 L 248.274 175.499 C 248.274 171.232 251.733 167.773 256 167.773 C 260.267 167.773 263.726 171.232 263.726 175.499 L 263.726 243.125 C 263.726 247.391 260.268 250.851 256 250.851 z M 250.851 256 C 250.851 251.733 247.392 248.274 243.125 248.274 L 170.926 248.274 C 166.658 248.274 163.2 251.733 163.2 256 C 163.2 260.267 166.659 263.726 170.926 263.726 L 243.125 263.726 C 247.392 263.726 250.851 260.267 250.851 256 z M 263.726 336.501 L 263.726 268.875 C 263.726 264.608 260.267 261.149 256 261.149 C 251.733 261.149 248.274 264.608 248.274 268.875 L 248.274 336.501 C 248.274 340.768 251.733 344.227 256 344.227 C 260.267 344.227 263.726 340.76899999999995 263.726 336.501 z M 348.801 255.99999999999997 C 348.801 251.73299999999998 345.342 248.27399999999997 341.075 248.27399999999997 L 266.436 248.27399999999997 C 262.168 248.27399999999997 258.71 251.73299999999998 258.71 255.99999999999997 C 258.71 260.26699999999994 262.169 263.726 266.436 263.726 L 341.075 263.726 C 345.342 263.726 348.801 260.267 348.801 256 z" stroke-linecap="round" />
</g>
		<g transform="matrix(1 0 0 1 0 0)"  >
<circle style="stroke: none; stroke-width: 1; stroke-dasharray: none; stroke-linecap: butt; stroke-dashoffset: 0; stroke-linejoin: miter; stroke-miterlimit: 4; fill: rgb(249,239,175); fill-rule: nonzero; opacity: 1;" vector-effect="non-scaling-stroke"  cx="0" cy="0" r="23.099" />
</g>
</g>
</g>
</svg>