<?xml version="1.0" encoding="UTF-8" standalone="no" ?>
<!DOCTYPE svg PUBLIC "-//W3C//DTD SVG 1.1//EN" "http://www.w3.org/Graphics/SVG/1.1/DTD/svg11.dtd">
<svg xmlns="http://www.w3.org/2000/svg" xmlns:xlink="http://www.w3.org/1999/xlink" version="1.1" width="240" height="240" viewBox="0 0 240 240" xml:space="preserve">
<desc>Created with Fabric.js 4.2.0</desc>
<defs>
</defs>
<rect x="0" y="0" width="100%" height="100%" fill="transparent"></rect>
<g transform="matrix(1 0 0 1 120 120)" id="9b63047e-f31f-4123-a4ed-e63e3c2b7154"  >
<rect style="stroke: none; stroke-width: 1; stroke-dasharray: none; stroke-linecap: butt; stroke-dashoffset: 0; stroke-linejoin: miter; stroke-miterlimit: 4; fill: rgb(255,255,255); fill-opacity: 0; fill-rule: nonzero; opacity: 1;" vector-effect="non-scaling-stroke"  x="-120" y="-120" rx="0" ry="0" width="240" height="240" />
</g>
<g transform="matrix(Infinity NaN NaN Infinity 0 0)" id="80c0849b-0b34-4718-a10a-0352048c3ff6"  >
</g>
<g transform="matrix(0.47 0 0 0.47 119.99 119.98)"  >
<g style="" vector-effect="non-scaling-stroke"   >
		<g transform="matrix(1 0 0 1 0 24)"  >
<path style="stroke: none; stroke-width: 1; stroke-dasharray: none; stroke-linecap: butt; stroke-dashoffset: 0; stroke-linejoin: miter; stroke-miterlimit: 4; fill: rgb(224,185,153); fill-rule: nonzero; opacity: 1;" vector-effect="non-scaling-stroke"  transform=" translate(-256, -280)" d="M 144 248 L 368 248 L 368 312 L 144 312 z" stroke-linecap="round" />
</g>
		<g transform="matrix(1 0 0 1 0 160)"  >
<path style="stroke: none; stroke-width: 1; stroke-dasharray: none; stroke-linecap: butt; stroke-dashoffset: 0; stroke-linejoin: miter; stroke-miterlimit: 4; fill: rgb(224,185,153); fill-rule: nonzero; opacity: 1;" vector-effect="non-scaling-stroke"  transform=" translate(-256, -416)" d="M 144 344 L 368 344 L 368 488 L 144 488 z" stroke-linecap="round" />
</g>
		<g transform="matrix(1 0 0 1 0 -24)"  >
<path style="stroke: none; stroke-width: 1; stroke-dasharray: none; stroke-linecap: butt; stroke-dashoffset: 0; stroke-linejoin: miter; stroke-miterlimit: 4; fill: rgb(247,204,169); fill-rule: nonzero; opacity: 1;" vector-effect="non-scaling-stroke"  transform=" translate(-256, -232)" d="M 128 216 L 384 216 L 384 248 L 128 248 z" stroke-linecap="round" />
</g>
		<g transform="matrix(1 0 0 1 0 72)"  >
<path style="stroke: none; stroke-width: 1; stroke-dasharray: none; stroke-linecap: butt; stroke-dashoffset: 0; stroke-linejoin: miter; stroke-miterlimit: 4; fill: rgb(247,204,169); fill-rule: nonzero; opacity: 1;" vector-effect="non-scaling-stroke"  transform=" translate(-256, -328)" d="M 128 312 L 384 312 L 384 344 L 128 344 z" stroke-linecap="round" />
</g>
		<g transform="matrix(1 0 0 1 0 -56)"  >
<path style="stroke: none; stroke-width: 1; stroke-dasharray: none; stroke-linecap: butt; stroke-dashoffset: 0; stroke-linejoin: miter; stroke-miterlimit: 4; fill: rgb(224,185,153); fill-rule: nonzero; opacity: 1;" vector-effect="non-scaling-stroke"  transform=" translate(-256, -200)" d="M 144 184 L 368 184 L 368 216 L 144 216 z" stroke-linecap="round" />
</g>
		<g transform="matrix(1 0 0 1 0 -208)"  >
<path style="stroke: none; stroke-width: 1; stroke-dasharray: none; stroke-linecap: butt; stroke-dashoffset: 0; stroke-linejoin: miter; stroke-miterlimit: 4; fill: rgb(106,112,115); fill-rule: nonzero; opacity: 1;" vector-effect="non-scaling-stroke"  transform=" translate(-256, -48)" d="M 256 72 C 251.58172200135365 72 248 68.41827799864635 248 64 L 248 32 C 248 27.581722001353654 251.58172200135365 24 256 24 C 260.4182779986464 24 264 27.58172200135365 264 31.999999999999996 L 264 64 C 264 68.41827799864635 260.4182779986464 72 256 72 z" stroke-linecap="round" />
</g>
		<g transform="matrix(1 0 0 1 4 -136)"  >
<path style="stroke: none; stroke-width: 1; stroke-dasharray: none; stroke-linecap: butt; stroke-dashoffset: 0; stroke-linejoin: miter; stroke-miterlimit: 4; fill: rgb(126,133,137); fill-rule: nonzero; opacity: 1;" vector-effect="non-scaling-stroke"  transform=" translate(-260, -120)" d="M 360 184 L 160 184 L 248 56 L 264 56 z" stroke-linecap="round" />
</g>
		<g transform="matrix(1 0 0 1 0 -136)"  >
<path style="stroke: none; stroke-width: 1; stroke-dasharray: none; stroke-linecap: butt; stroke-dashoffset: 0; stroke-linejoin: miter; stroke-miterlimit: 4; fill: rgb(106,112,115); fill-rule: nonzero; opacity: 1;" vector-effect="non-scaling-stroke"  transform=" translate(-256, -120)" d="M 256 104 C 247.1634440027073 104 240 111.16344400270731 240 120 L 240 136 L 272 136 L 272 120 C 272 111.16344400270731 264.8365559972927 104 256 104 z" stroke-linecap="round" />
</g>
		<g transform="matrix(1 0 0 1 0 -56)"  >
<path style="stroke: none; stroke-width: 1; stroke-dasharray: none; stroke-linecap: butt; stroke-dashoffset: 0; stroke-linejoin: miter; stroke-miterlimit: 4; fill: rgb(115,75,57); fill-rule: nonzero; opacity: 1;" vector-effect="non-scaling-stroke"  transform=" translate(-256, -200)" d="M 256 184 C 247.1634440027073 184 240 191.1634440027073 240 200 L 240 216 L 272 216 L 272 200 C 272 191.1634440027073 264.8365559972927 184 256 184 z" stroke-linecap="round" />
</g>
		<g transform="matrix(1 0 0 1 64 -56)"  >
<path style="stroke: none; stroke-width: 1; stroke-dasharray: none; stroke-linecap: butt; stroke-dashoffset: 0; stroke-linejoin: miter; stroke-miterlimit: 4; fill: rgb(115,75,57); fill-rule: nonzero; opacity: 1;" vector-effect="non-scaling-stroke"  transform=" translate(-320, -200)" d="M 320 184 C 311.1634440027073 184 304 191.1634440027073 304 200 L 304 216 L 336 216 L 336 200 C 336 191.1634440027073 328.8365559972927 184 320 184 z" stroke-linecap="round" />
</g>
		<g transform="matrix(1 0 0 1 -64 -56)"  >
<path style="stroke: none; stroke-width: 1; stroke-dasharray: none; stroke-linecap: butt; stroke-dashoffset: 0; stroke-linejoin: miter; stroke-miterlimit: 4; fill: rgb(115,75,57); fill-rule: nonzero; opacity: 1;" vector-effect="non-scaling-stroke"  transform=" translate(-192, -200)" d="M 192 184 C 183.1634440027073 184 176 191.1634440027073 176 200 L 176 216 L 208 216 L 208 200 C 208 191.1634440027073 200.8365559972927 184 192 184 z" stroke-linecap="round" />
</g>
		<g transform="matrix(1 0 0 1 -64 168)"  >
<path style="stroke: none; stroke-width: 1; stroke-dasharray: none; stroke-linecap: butt; stroke-dashoffset: 0; stroke-linejoin: miter; stroke-miterlimit: 4; fill: rgb(115,75,57); fill-rule: nonzero; opacity: 1;" vector-effect="non-scaling-stroke"  transform=" translate(-192, -424)" d="M 192 408 C 183.1634440027073 408 176 415.1634440027073 176 424 L 176 440 L 208 440 L 208 424 C 208 415.1634440027073 200.8365559972927 408 192 408 z" stroke-linecap="round" />
</g>
		<g transform="matrix(1 0 0 1 0 168)"  >
<path style="stroke: none; stroke-width: 1; stroke-dasharray: none; stroke-linecap: butt; stroke-dashoffset: 0; stroke-linejoin: miter; stroke-miterlimit: 4; fill: rgb(115,75,57); fill-rule: nonzero; opacity: 1;" vector-effect="non-scaling-stroke"  transform=" translate(-256, -424)" d="M 256 408 C 247.1634440027073 408 240 415.1634440027073 240 424 L 240 440 L 272 440 L 272 424 C 272 415.1634440027073 264.8365559972927 408 256 408 z" stroke-linecap="round" />
</g>
		<g transform="matrix(1 0 0 1 64 168)"  >
<path style="stroke: none; stroke-width: 1; stroke-dasharray: none; stroke-linecap: butt; stroke-dashoffset: 0; stroke-linejoin: miter; stroke-miterlimit: 4; fill: rgb(115,75,57); fill-rule: nonzero; opacity: 1;" vector-effect="non-scaling-stroke"  transform=" translate(-320, -424)" d="M 320 408 C 311.1634440027073 408 304 415.1634440027073 304 424 L 304 440 L 336 440 L 336 424 C 336 415.1634440027073 328.8365559972927 408 320 408 z" stroke-linecap="round" />
</g>
		<g transform="matrix(1 0 0 1 0 40)"  >
<path style="stroke: none; stroke-width: 1; stroke-dasharray: none; stroke-linecap: butt; stroke-dashoffset: 0; stroke-linejoin: miter; stroke-miterlimit: 4; fill: rgb(115,75,57); fill-rule: nonzero; opacity: 1;" vector-effect="non-scaling-stroke"  transform=" translate(-256, -296)" d="M 256 280 C 247.1634440027073 280 240 287.1634440027073 240 296 L 240 312 L 272 312 L 272 296 C 272 287.1634440027073 264.8365559972927 280 256 280 z" stroke-linecap="round" />
</g>
		<g transform="matrix(1 0 0 1 64 40)"  >
<path style="stroke: none; stroke-width: 1; stroke-dasharray: none; stroke-linecap: butt; stroke-dashoffset: 0; stroke-linejoin: miter; stroke-miterlimit: 4; fill: rgb(115,75,57); fill-rule: nonzero; opacity: 1;" vector-effect="non-scaling-stroke"  transform=" translate(-320, -296)" d="M 320 280 C 311.1634440027073 280 304 287.1634440027073 304 296 L 304 312 L 336 312 L 336 296 C 336 287.1634440027073 328.8365559972927 280 320 280 z" stroke-linecap="round" />
</g>
		<g transform="matrix(1 0 0 1 -64 40)"  >
<path style="stroke: none; stroke-width: 1; stroke-dasharray: none; stroke-linecap: butt; stroke-dashoffset: 0; stroke-linejoin: miter; stroke-miterlimit: 4; fill: rgb(115,75,57); fill-rule: nonzero; opacity: 1;" vector-effect="non-scaling-stroke"  transform=" translate(-192, -296)" d="M 192 280 C 183.1634440027073 280 176 287.1634440027073 176 296 L 176 312 L 208 312 L 208 296 C 208 287.1634440027073 200.8365559972927 280 192 280 z" stroke-linecap="round" />
</g>
		<g transform="matrix(1 0 0 1 -64 120)"  >
<circle style="stroke: none; stroke-width: 1; stroke-dasharray: none; stroke-linecap: butt; stroke-dashoffset: 0; stroke-linejoin: miter; stroke-miterlimit: 4; fill: rgb(115,75,57); fill-rule: nonzero; opacity: 1;" vector-effect="non-scaling-stroke"  cx="0" cy="0" r="8" />
</g>
		<g transform="matrix(1 0 0 1 0 120)"  >
<circle style="stroke: none; stroke-width: 1; stroke-dasharray: none; stroke-linecap: butt; stroke-dashoffset: 0; stroke-linejoin: miter; stroke-miterlimit: 4; fill: rgb(115,75,57); fill-rule: nonzero; opacity: 1;" vector-effect="non-scaling-stroke"  cx="0" cy="0" r="8" />
</g>
		<g transform="matrix(1 0 0 1 64 120)"  >
<circle style="stroke: none; stroke-width: 1; stroke-dasharray: none; stroke-linecap: butt; stroke-dashoffset: 0; stroke-linejoin: miter; stroke-miterlimit: 4; fill: rgb(115,75,57); fill-rule: nonzero; opacity: 1;" vector-effect="non-scaling-stroke"  cx="0" cy="0" r="8" />
</g>
		<g transform="matrix(1 0 0 1 0 -72)"  >
<path style="stroke: none; stroke-width: 1; stroke-dasharray: none; stroke-linecap: butt; stroke-dashoffset: 0; stroke-linejoin: miter; stroke-miterlimit: 4; fill: rgb(247,204,169); fill-rule: nonzero; opacity: 1;" vector-effect="non-scaling-stroke"  transform=" translate(-256, -184)" d="M 384 192 L 128 192 C 123.58172200135365 192 120 188.41827799864635 120 184 C 120 179.58172200135365 123.58172200135365 176 128 176 L 384 176 C 388.4182779986464 176 392 179.58172200135365 392 184 C 392 188.41827799864635 388.4182779986464 192 384 192 z" stroke-linecap="round" />
</g>
</g>
</g>
<g transform="matrix(0.14 0 0 0.14 66.55 203.44)"  >
<g style="" vector-effect="non-scaling-stroke"   >
		<g transform="matrix(1 0 0 1 17.9 -86.17)"  >
<path style="stroke: none; stroke-width: 1; stroke-dasharray: none; stroke-linecap: butt; stroke-dashoffset: 0; stroke-linejoin: miter; stroke-miterlimit: 4; fill: rgb(244,184,68); fill-rule: nonzero; opacity: 1;" vector-effect="non-scaling-stroke"  transform=" translate(-263.58, -159.51)" d="M 376.424 114.808 L 376.424 169.66500000000002 L 374.85699999999997 169.66500000000002 C 374.85699999999997 188.996 323.135 204.14700000000002 261.486 204.14700000000002 C 237.976 204.669 213.94299999999998 202.05700000000002 190.95499999999998 196.31000000000003 L 190.95499999999998 197.87700000000004 C 179.46099999999998 187.95100000000005 166.39999999999998 180.63600000000002 152.29399999999998 175.93400000000003 L 152.29399999999998 174.88900000000004 L 150.72699999999998 116.89700000000005 C 154.90699999999998 134.66000000000005 202.97199999999998 148.76600000000005 262.00899999999996 148.76600000000005 C 321.04599999999994 148.76600000000005 374.85799999999995 133.61500000000004 374.85799999999995 114.80700000000004 L 376.424 114.808 L 376.424 114.808 z" stroke-linecap="round" />
</g>
		<g transform="matrix(1 0 0 1 18.41 -130.61)"  >
<path style="stroke: none; stroke-width: 1; stroke-dasharray: none; stroke-linecap: butt; stroke-dashoffset: 0; stroke-linejoin: miter; stroke-miterlimit: 4; fill: rgb(254,219,65); fill-rule: nonzero; opacity: 1;" vector-effect="non-scaling-stroke"  transform=" translate(-264.1, -115.07)" d="M 263.053 80.849 C 325.224 80.849 376.947 96.522 376.947 115.331 C 376.947 134.14 324.702 149.29000000000002 263.053 149.29000000000002 C 201.404 149.29000000000002 155.428 135.18400000000003 151.249 117.42100000000002 L 151.249 115.33100000000002 C 150.726 96.522 200.882 80.849 263.053 80.849 z" stroke-linecap="round" />
</g>
		<g transform="matrix(1 0 0 1 -13.45 96.17)"  >
<path style="stroke: none; stroke-width: 1; stroke-dasharray: none; stroke-linecap: butt; stroke-dashoffset: 0; stroke-linejoin: miter; stroke-miterlimit: 4; fill: rgb(226,166,59); fill-rule: nonzero; opacity: 1;" vector-effect="non-scaling-stroke"  transform=" translate(-232.23, -341.85)" d="M 272.457 326.4 L 272.457 370.286 L 262.008 370.286 C 239.01999999999998 370.808 216.03199999999998 368.196 193.56699999999998 362.972 L 192 361.404 C 206.629 348.343 217.078 331.624 223.347 313.339 L 225.959 313.339 C 236.93 314.384 248.947 314.906 260.963 314.906 L 271.934 314.906 L 272.457 326.4 z" stroke-linecap="round" />
</g>
		<g transform="matrix(1 0 0 1 -0.39 41.01)"  >
<path style="stroke: none; stroke-width: 1; stroke-dasharray: none; stroke-linecap: butt; stroke-dashoffset: 0; stroke-linejoin: miter; stroke-miterlimit: 4; fill: rgb(244,184,68); fill-rule: nonzero; opacity: 1;" vector-effect="non-scaling-stroke"  transform=" translate(-245.29, -286.69)" d="M 262.53 257.437 L 267.75399999999996 260.04900000000004 C 267.23199999999997 261.09400000000005 267.23199999999997 262.139 267.23199999999997 263.184 C 267.23199999999997 264.75100000000003 267.75399999999996 266.319 268.277 267.886 L 268.277 316.99600000000004 L 262.53 316.99600000000004 C 249.46899999999997 316.99600000000004 236.40799999999996 316.47400000000005 224.914 315.42900000000003 L 222.302 315.42900000000003 C 225.959 303.93500000000006 227.52599999999998 291.91900000000004 227.52599999999998 279.903 C 227.52599999999998 272.06600000000003 226.481 264.23 225.43599999999998 256.39300000000003 L 228.04799999999997 256.39300000000003 C 239.543 257.437 251.037 257.437 262.53 257.437 z" stroke-linecap="round" />
</g>
		<g transform="matrix(1 0 0 1 37.75 -29.78)"  >
<path style="stroke: none; stroke-width: 1; stroke-dasharray: none; stroke-linecap: butt; stroke-dashoffset: 0; stroke-linejoin: miter; stroke-miterlimit: 4; fill: rgb(226,166,59); fill-rule: nonzero; opacity: 1;" vector-effect="non-scaling-stroke"  transform=" translate(-283.43, -215.9)" d="M 190.955 196.31 C 213.943 202.05700000000002 237.97500000000002 204.669 261.486 204.147 C 323.135 204.147 374.85699999999997 188.99599999999998 374.85699999999997 169.665 L 376.424 169.665 L 376.424 231.314 C 318.955 231.314 271.93399999999997 244.898 266.187 262.138 L 261.485 259.52599999999995 C 250.514 259.52599999999995 240.065 259.00399999999996 229.09300000000002 257.95899999999995 L 226.48100000000002 257.95899999999995 C 221.25700000000003 234.44899999999996 208.71800000000002 213.02799999999996 190.43200000000002 197.35499999999996 L 190.955 196.31 z" stroke-linecap="round" />
</g>
		<g transform="matrix(1 0 0 1 134.14 119.9)"  >
<path style="stroke: none; stroke-width: 1; stroke-dasharray: none; stroke-linecap: butt; stroke-dashoffset: 0; stroke-linejoin: miter; stroke-miterlimit: 4; fill: rgb(226,166,59); fill-rule: nonzero; opacity: 1;" vector-effect="non-scaling-stroke"  transform=" translate(-379.82, -365.58)" d="M 491.363 320.653 L 491.363 376.033 C 491.363 394.841 440.685 410.515 379.036 410.515 C 317.387 410.515 268.277 395.364 268.277 376.556 L 268.277 326.4 C 276.63599999999997 342.596 322.089 355.135 376.94599999999997 355.135 C 431.80299999999994 355.135 489.79499999999996 339.462 489.79499999999996 320.653 L 491.363 320.653 z" stroke-linecap="round" />
</g>
		<g transform="matrix(1 0 0 1 133.62 65.05)"  >
<path style="stroke: none; stroke-width: 1; stroke-dasharray: none; stroke-linecap: butt; stroke-dashoffset: 0; stroke-linejoin: miter; stroke-miterlimit: 4; fill: rgb(244,184,68); fill-rule: nonzero; opacity: 1;" vector-effect="non-scaling-stroke"  transform=" translate(-379.3, -310.73)" d="M 491.363 266.318 L 491.363 320.65299999999996 L 489.796 320.65299999999996 C 489.796 339.46099999999996 438.596 355.135 376.947 355.135 C 315.298 355.135 276.637 342.596 267.233 326.4 L 267.233 269.453 C 274.025 286.69399999999996 321.045 299.755 377.47 299.755 C 433.89500000000004 299.755 488.752 284.604 490.319 266.318 L 491.363 266.318 z" stroke-linecap="round" />
</g>
		<g transform="matrix(1 0 0 1 132.31 19.85)"  >
<path style="stroke: none; stroke-width: 1; stroke-dasharray: none; stroke-linecap: butt; stroke-dashoffset: 0; stroke-linejoin: miter; stroke-miterlimit: 4; fill: rgb(254,219,65); fill-rule: nonzero; opacity: 1;" vector-effect="non-scaling-stroke"  transform=" translate(-377.99, -265.53)" d="M 265.665 269.453 C 265.14300000000003 267.88599999999997 264.62 266.84099999999995 264.62 265.27299999999997 C 264.62 264.22799999999995 264.62 263.183 265.142 262.138 C 270.889 244.897 318.432 230.79099999999997 376.424 230.79099999999997 L 376.94599999999997 230.79099999999997 C 439.11699999999996 230.79099999999997 491.36199999999997 245.94199999999998 491.36199999999997 265.27299999999997 L 491.36199999999997 266.318 C 489.79499999999996 284.604 438.07199999999995 300.277 376.94599999999997 300.277 C 315.82 300.277 272.457 286.694 265.665 269.453 z" stroke-linecap="round" />
</g>
		<g transform="matrix(1 0 0 1 -130.09 34.41)"  >
<path style="stroke: none; stroke-width: 1; stroke-dasharray: none; stroke-linecap: butt; stroke-dashoffset: 0; stroke-linejoin: miter; stroke-miterlimit: 4; fill: rgb(254,219,65); fill-rule: nonzero; opacity: 1;" vector-effect="non-scaling-stroke"  transform=" translate(-115.59, -280.1)" d="M 229.094 257.959 C 230.13899999999998 265.273 231.184 273.11 231.184 280.424 C 231.184 291.918 229.617 303.412 226.482 313.861 C 220.213 332.669 209.24099999999999 349.90999999999997 194.613 362.971 C 174.238 381.779 147.593 392.228 119.903 392.228 C 58.253 396.408 4.441 349.91 0.261 287.739 C -3.9189999999999996 226.08999999999997 42.579 172.27799999999996 104.75099999999999 168.09799999999996 C 109.975 167.57599999999996 115.19999999999999 167.57599999999996 120.42399999999999 168.09799999999996 C 131.39499999999998 168.09799999999996 142.88899999999998 169.66499999999996 153.338 172.79999999999995 C 167.96699999999998 177.50199999999995 181.54999999999998 185.33899999999994 193.04399999999998 195.26499999999996 C 210.808 211.984 223.869 233.926 229.094 257.959 z" stroke-linecap="round" />
</g>
		<g transform="matrix(1 0 0 1 -130.48 34.74)"  >
<circle style="stroke: none; stroke-width: 1; stroke-dasharray: none; stroke-linecap: butt; stroke-dashoffset: 0; stroke-linejoin: miter; stroke-miterlimit: 4; fill: rgb(244,184,68); fill-rule: nonzero; opacity: 1;" vector-effect="non-scaling-stroke"  cx="0" cy="0" r="55.902" />
</g>
</g>
</g>
<g transform="matrix(0.14 0 0 0.14 173.49 205.4)"  >
<g style="" vector-effect="non-scaling-stroke"   >
		<g transform="matrix(1 0 0 1 17.9 -86.17)"  >
<path style="stroke: none; stroke-width: 1; stroke-dasharray: none; stroke-linecap: butt; stroke-dashoffset: 0; stroke-linejoin: miter; stroke-miterlimit: 4; fill: rgb(244,184,68); fill-rule: nonzero; opacity: 1;" vector-effect="non-scaling-stroke"  transform=" translate(-263.58, -159.51)" d="M 376.424 114.808 L 376.424 169.66500000000002 L 374.85699999999997 169.66500000000002 C 374.85699999999997 188.996 323.135 204.14700000000002 261.486 204.14700000000002 C 237.976 204.669 213.94299999999998 202.05700000000002 190.95499999999998 196.31000000000003 L 190.95499999999998 197.87700000000004 C 179.46099999999998 187.95100000000005 166.39999999999998 180.63600000000002 152.29399999999998 175.93400000000003 L 152.29399999999998 174.88900000000004 L 150.72699999999998 116.89700000000005 C 154.90699999999998 134.66000000000005 202.97199999999998 148.76600000000005 262.00899999999996 148.76600000000005 C 321.04599999999994 148.76600000000005 374.85799999999995 133.61500000000004 374.85799999999995 114.80700000000004 L 376.424 114.808 L 376.424 114.808 z" stroke-linecap="round" />
</g>
		<g transform="matrix(1 0 0 1 18.41 -130.61)"  >
<path style="stroke: none; stroke-width: 1; stroke-dasharray: none; stroke-linecap: butt; stroke-dashoffset: 0; stroke-linejoin: miter; stroke-miterlimit: 4; fill: rgb(254,219,65); fill-rule: nonzero; opacity: 1;" vector-effect="non-scaling-stroke"  transform=" translate(-264.1, -115.07)" d="M 263.053 80.849 C 325.224 80.849 376.947 96.522 376.947 115.331 C 376.947 134.14 324.702 149.29000000000002 263.053 149.29000000000002 C 201.404 149.29000000000002 155.428 135.18400000000003 151.249 117.42100000000002 L 151.249 115.33100000000002 C 150.726 96.522 200.882 80.849 263.053 80.849 z" stroke-linecap="round" />
</g>
		<g transform="matrix(1 0 0 1 -13.45 96.17)"  >
<path style="stroke: none; stroke-width: 1; stroke-dasharray: none; stroke-linecap: butt; stroke-dashoffset: 0; stroke-linejoin: miter; stroke-miterlimit: 4; fill: rgb(226,166,59); fill-rule: nonzero; opacity: 1;" vector-effect="non-scaling-stroke"  transform=" translate(-232.23, -341.85)" d="M 272.457 326.4 L 272.457 370.286 L 262.008 370.286 C 239.01999999999998 370.808 216.03199999999998 368.196 193.56699999999998 362.972 L 192 361.404 C 206.629 348.343 217.078 331.624 223.347 313.339 L 225.959 313.339 C 236.93 314.384 248.947 314.906 260.963 314.906 L 271.934 314.906 L 272.457 326.4 z" stroke-linecap="round" />
</g>
		<g transform="matrix(1 0 0 1 -0.39 41.01)"  >
<path style="stroke: none; stroke-width: 1; stroke-dasharray: none; stroke-linecap: butt; stroke-dashoffset: 0; stroke-linejoin: miter; stroke-miterlimit: 4; fill: rgb(244,184,68); fill-rule: nonzero; opacity: 1;" vector-effect="non-scaling-stroke"  transform=" translate(-245.29, -286.69)" d="M 262.53 257.437 L 267.75399999999996 260.04900000000004 C 267.23199999999997 261.09400000000005 267.23199999999997 262.139 267.23199999999997 263.184 C 267.23199999999997 264.75100000000003 267.75399999999996 266.319 268.277 267.886 L 268.277 316.99600000000004 L 262.53 316.99600000000004 C 249.46899999999997 316.99600000000004 236.40799999999996 316.47400000000005 224.914 315.42900000000003 L 222.302 315.42900000000003 C 225.959 303.93500000000006 227.52599999999998 291.91900000000004 227.52599999999998 279.903 C 227.52599999999998 272.06600000000003 226.481 264.23 225.43599999999998 256.39300000000003 L 228.04799999999997 256.39300000000003 C 239.543 257.437 251.037 257.437 262.53 257.437 z" stroke-linecap="round" />
</g>
		<g transform="matrix(1 0 0 1 37.75 -29.78)"  >
<path style="stroke: none; stroke-width: 1; stroke-dasharray: none; stroke-linecap: butt; stroke-dashoffset: 0; stroke-linejoin: miter; stroke-miterlimit: 4; fill: rgb(226,166,59); fill-rule: nonzero; opacity: 1;" vector-effect="non-scaling-stroke"  transform=" translate(-283.43, -215.9)" d="M 190.955 196.31 C 213.943 202.05700000000002 237.97500000000002 204.669 261.486 204.147 C 323.135 204.147 374.85699999999997 188.99599999999998 374.85699999999997 169.665 L 376.424 169.665 L 376.424 231.314 C 318.955 231.314 271.93399999999997 244.898 266.187 262.138 L 261.485 259.52599999999995 C 250.514 259.52599999999995 240.065 259.00399999999996 229.09300000000002 257.95899999999995 L 226.48100000000002 257.95899999999995 C 221.25700000000003 234.44899999999996 208.71800000000002 213.02799999999996 190.43200000000002 197.35499999999996 L 190.955 196.31 z" stroke-linecap="round" />
</g>
		<g transform="matrix(1 0 0 1 134.14 119.9)"  >
<path style="stroke: none; stroke-width: 1; stroke-dasharray: none; stroke-linecap: butt; stroke-dashoffset: 0; stroke-linejoin: miter; stroke-miterlimit: 4; fill: rgb(226,166,59); fill-rule: nonzero; opacity: 1;" vector-effect="non-scaling-stroke"  transform=" translate(-379.82, -365.58)" d="M 491.363 320.653 L 491.363 376.033 C 491.363 394.841 440.685 410.515 379.036 410.515 C 317.387 410.515 268.277 395.364 268.277 376.556 L 268.277 326.4 C 276.63599999999997 342.596 322.089 355.135 376.94599999999997 355.135 C 431.80299999999994 355.135 489.79499999999996 339.462 489.79499999999996 320.653 L 491.363 320.653 z" stroke-linecap="round" />
</g>
		<g transform="matrix(1 0 0 1 133.62 65.05)"  >
<path style="stroke: none; stroke-width: 1; stroke-dasharray: none; stroke-linecap: butt; stroke-dashoffset: 0; stroke-linejoin: miter; stroke-miterlimit: 4; fill: rgb(244,184,68); fill-rule: nonzero; opacity: 1;" vector-effect="non-scaling-stroke"  transform=" translate(-379.3, -310.73)" d="M 491.363 266.318 L 491.363 320.65299999999996 L 489.796 320.65299999999996 C 489.796 339.46099999999996 438.596 355.135 376.947 355.135 C 315.298 355.135 276.637 342.596 267.233 326.4 L 267.233 269.453 C 274.025 286.69399999999996 321.045 299.755 377.47 299.755 C 433.89500000000004 299.755 488.752 284.604 490.319 266.318 L 491.363 266.318 z" stroke-linecap="round" />
</g>
		<g transform="matrix(1 0 0 1 132.31 19.85)"  >
<path style="stroke: none; stroke-width: 1; stroke-dasharray: none; stroke-linecap: butt; stroke-dashoffset: 0; stroke-linejoin: miter; stroke-miterlimit: 4; fill: rgb(254,219,65); fill-rule: nonzero; opacity: 1;" vector-effect="non-scaling-stroke"  transform=" translate(-377.99, -265.53)" d="M 265.665 269.453 C 265.14300000000003 267.88599999999997 264.62 266.84099999999995 264.62 265.27299999999997 C 264.62 264.22799999999995 264.62 263.183 265.142 262.138 C 270.889 244.897 318.432 230.79099999999997 376.424 230.79099999999997 L 376.94599999999997 230.79099999999997 C 439.11699999999996 230.79099999999997 491.36199999999997 245.94199999999998 491.36199999999997 265.27299999999997 L 491.36199999999997 266.318 C 489.79499999999996 284.604 438.07199999999995 300.277 376.94599999999997 300.277 C 315.82 300.277 272.457 286.694 265.665 269.453 z" stroke-linecap="round" />
</g>
		<g transform="matrix(1 0 0 1 -130.09 34.41)"  >
<path style="stroke: none; stroke-width: 1; stroke-dasharray: none; stroke-linecap: butt; stroke-dashoffset: 0; stroke-linejoin: miter; stroke-miterlimit: 4; fill: rgb(254,219,65); fill-rule: nonzero; opacity: 1;" vector-effect="non-scaling-stroke"  transform=" translate(-115.59, -280.1)" d="M 229.094 257.959 C 230.13899999999998 265.273 231.184 273.11 231.184 280.424 C 231.184 291.918 229.617 303.412 226.482 313.861 C 220.213 332.669 209.24099999999999 349.90999999999997 194.613 362.971 C 174.238 381.779 147.593 392.228 119.903 392.228 C 58.253 396.408 4.441 349.91 0.261 287.739 C -3.9189999999999996 226.08999999999997 42.579 172.27799999999996 104.75099999999999 168.09799999999996 C 109.975 167.57599999999996 115.19999999999999 167.57599999999996 120.42399999999999 168.09799999999996 C 131.39499999999998 168.09799999999996 142.88899999999998 169.66499999999996 153.338 172.79999999999995 C 167.96699999999998 177.50199999999995 181.54999999999998 185.33899999999994 193.04399999999998 195.26499999999996 C 210.808 211.984 223.869 233.926 229.094 257.959 z" stroke-linecap="round" />
</g>
		<g transform="matrix(1 0 0 1 -130.48 34.74)"  >
<circle style="stroke: none; stroke-width: 1; stroke-dasharray: none; stroke-linecap: butt; stroke-dashoffset: 0; stroke-linejoin: miter; stroke-miterlimit: 4; fill: rgb(244,184,68); fill-rule: nonzero; opacity: 1;" vector-effect="non-scaling-stroke"  cx="0" cy="0" r="55.902" />
</g>
</g>
</g>
</svg>