<?xml version="1.0" encoding="utf-8"?>
<!-- Svg Vector Icons : http://www.onlinewebfonts.com/icon -->
<!DOCTYPE svg PUBLIC "-//W3C//DTD SVG 1.1//EN" "http://www.w3.org/Graphics/SVG/1.1/DTD/svg11.dtd">
<svg version="1.1" xmlns="http://www.w3.org/2000/svg" xmlns:xlink="http://www.w3.org/1999/xlink" x="0px" y="0px" viewBox="0 0 1000 1000" enable-background="new 0 0 1000 1000" xml:space="preserve">
<metadata> Svg Vector Icons : http://www.onlinewebfonts.com/icon </metadata>
<g><path d="M839.2,801.5h-638v150.8L33.7,796.8c-30.9-28.6-30.9-75,0-103.7l167.5-155.5v150.8h600.3c41.6,0,75.4-33.7,75.4-75.4V462.3L990,349.2v301.6C990,734,922.5,801.5,839.2,801.5z M798.8,462.3V311.5H198.5c-41.6,0-75.4,33.7-75.4,75.4v150.8L10,650.8V349.2c0-83.3,67.5-150.8,150.8-150.8h638V47.7l167.5,155.5c30.9,28.6,30.9,75,0,103.7L798.8,462.3z"/></g>
</svg>