<svg id="Capa_1" enable-background="new 0 0 497.049 497.049" height="512" viewBox="0 0 497.049 497.049" width="512" xmlns="http://www.w3.org/2000/svg"><g><path d="m276.31 489.565v-132.588h-55.572v132.588c0 4.133 3.35 7.483 7.483 7.483h40.605c4.134.001 7.484-3.35 7.484-7.483z" fill="#d7d0d6"/><path d="m292.001 335.531h-86.953v39.567c0 4.904 3.975 8.879 8.879 8.879h69.195c4.904 0 8.879-3.975 8.879-8.879z" fill="#baafb9"/><path d="m248.821 375.098v-39.567h-43.773v39.567c0 4.904 3.975 8.879 8.879 8.879h43.773c-4.904 0-8.879-3.975-8.879-8.879z" fill="#aa9ea9"/><path d="m313.179 293.148h-129.309v41.529c0 7.099 5.755 12.854 12.854 12.854h103.601c7.099 0 12.854-5.755 12.854-12.854z" fill="#d7d0d6"/><path d="m264.575 0h-32.101c-6.481 0-11.735 5.254-11.735 11.735v76.528h55.572v-76.528c-.001-6.481-5.255-11.735-11.736-11.735z" fill="#d7d0d6"/><path d="m313.179 321.147v-28h-85.536-6.905-36.868v41.529c0 7.099 5.755 12.854 12.854 12.854h43.773c-7.099 0-12.854-5.755-12.854-12.854v-2.376c0-6.159 4.993-11.153 11.153-11.153z" fill="#c9bfc8"/><path d="m220.738 46.263h55.572v42h-55.572z" fill="#c9bfc8"/><path d="m470.682 301.148h-444.315c-14.453 0-26.17-11.717-26.17-26.17v-182.545c0-14.453 11.717-26.17 26.17-26.17h444.315c14.453 0 26.17 11.717 26.17 26.17v182.545c0 14.453-11.717 26.17-26.17 26.17z" fill="#6ed5a1"/><path d="m75.628 274.978v-182.545c0-14.453 11.717-26.17 26.17-26.17h-75.431c-14.453 0-26.17 11.717-26.17 26.17v182.545c0 14.453 11.717 26.17 26.17 26.17h75.431c-14.454 0-26.17-11.717-26.17-26.17z" fill="#46cc8d"/><path d="m30.197 262.59v-157.77c0-4.726 3.831-8.557 8.557-8.557h419.54c4.726 0 8.557 3.831 8.557 8.557v157.77c0 4.726-3.831 8.557-8.557 8.557h-419.54c-4.726 0-8.557-3.831-8.557-8.557z" fill="#f9f7f8"/><path d="m38.754 96.263c-4.726 0-8.557 3.831-8.557 8.557v157.77c0 4.726 3.831 8.557 8.557 8.557h36.874v-174.884z" fill="#efedef"/><g fill="#baafb9"><path d="m164.608 153.181c4.142 0 7.5-3.357 7.5-7.5s-3.358-7.5-7.5-7.5h-35.277c-6.609 0-11.985 5.377-11.985 11.985v29.87c0 6.608 5.376 11.985 11.985 11.985h27.777v24.208h-32.263c-4.142 0-7.5 3.357-7.5 7.5s3.358 7.5 7.5 7.5h35.277c6.609 0 11.985-5.377 11.985-11.985v-30.237c0-6.608-5.376-11.985-11.985-11.985h-27.777v-23.841z"/><path d="m246.393 153.181c4.142 0 7.5-3.357 7.5-7.5s-3.357-7.5-7.5-7.5h-39.726c-6.57 0-11.915 5.345-11.915 11.914v69.22c0 6.57 5.345 11.915 11.915 11.915h39.726c4.142 0 7.5-3.357 7.5-7.5s-3.357-7.5-7.5-7.5h-36.641v-24.024h22.548c4.142 0 7.5-3.357 7.5-7.5s-3.358-7.5-7.5-7.5h-22.547v-24.024h36.64z"/><path d="m311.707 216.23h-22.354v-70.549c0-4.143-3.357-7.5-7.5-7.5s-7.5 3.357-7.5 7.5v78.049c0 4.143 3.357 7.5 7.5 7.5h29.854c4.143 0 7.5-3.357 7.5-7.5s-3.358-7.5-7.5-7.5z"/><path d="m376.203 216.23h-22.354v-70.549c0-4.143-3.357-7.5-7.5-7.5s-7.5 3.357-7.5 7.5v78.049c0 4.143 3.357 7.5 7.5 7.5h29.854c4.143 0 7.5-3.357 7.5-7.5s-3.357-7.5-7.5-7.5z"/></g></g></svg>