<svg height="511pt" viewBox="0 -29 511.99931 511" width="511pt" xmlns="http://www.w3.org/2000/svg"><path d="m63.121094 452.464844c-11.71875-3.8125-18.128906-16.40625-14.316406-28.125l30.207031-92.851563-30.035157-85.34375c-4.09375-11.625 2.015626-24.367187 13.640626-28.457031 11.628906-4.09375 24.367187 2.015625 28.457031 13.640625l32.546875 92.46875c1.628906 4.625 1.6875 9.652344.171875 14.3125l-32.546875 100.039063c-3.800782 11.679687-16.367188 18.140624-28.125 14.316406zm0 0" fill="#414b82"/><path d="m22.449219 453.566406c-12.324219 0-22.3125-9.992187-22.3125-22.316406v-96.253906l-.136719-77.351563 22.171875-19.804687 22.171875 19.804687.421875 77.269531v96.335938c0 12.324219-9.992187 22.316406-22.316406 22.316406zm0 0" fill="#5f6e9b"/><path d="m315.09375 453.566406c-11.667969 0-21.484375-9.070312-22.246094-20.878906l-6.265625-97.058594c-.414062-6.421875 1.964844-12.710937 6.523438-17.25l72.117187-71.820312c8.730469-8.695313 22.859375-8.667969 31.558594.066406 8.695312 8.734375 8.667969 22.863281-.066406 31.558594l-64.941406 64.671875 5.613281 86.957031c.792969 12.296875-8.53125 22.914062-20.832031 23.707031-.488282.03125-.976563.046875-1.460938.046875zm0 0" fill="#965028"/><path d="m470.628906 442.800781-43.476562-71.316406c-1.199219-1.96875-2.089844-4.117187-2.632813-6.359375l-21.554687-88.945312c-2.902344-11.976563 4.457031-24.039063 16.433594-26.941407 11.984374-2.902343 24.039062 4.453125 26.945312 16.433594l20.730469 85.558594 41.660156 68.339843c6.414063 10.523438 3.085937 24.253907-7.4375 30.667969-10.480469 6.390625-24.226563 3.132813-30.667969-7.4375zm0 0" fill="#a56941"/><path d="m86.296875 104.660156 28.394531-20.160156 13.644532-1.007812 67.292968-32.671876c9.476563-4.601562 20.894532-.652343 25.492188 8.828126 4.605468 9.476562.652344 20.890624-8.824219 25.492187l-70.578125 34.269531c-2.171875 1.054688-4.523438 1.6875-6.929688 1.863282l-20.097656 1.484374zm0 0" fill="#ffb69e"/><path d="m114.691406 84.5-71.328125 5.265625c-10.507812.773437-18.398437 9.921875-17.621093 20.429687.738281 10.027344 9.105468 17.671876 19.003906 17.671876.472656 0 .945312-.019532 1.425781-.054688l68.519531-5.054688zm0 0" fill="#4699f2"/><path d="m100.332031 257.644531h-100.332031v-146.34375c0-14.464843 11.726562-26.1875 26.1875-26.1875h47.957031c14.460938 0 26.1875 11.722657 26.1875 26.1875zm0 0" fill="#64afff"/><path d="m108.007812 25.464844c-8.023437-20.28125-30.972656-30.21875-51.257812-22.195313-20.28125 8.023438-30.21875 30.972657-22.195312 51.253907 8.027343 20.285156 30.972656 30.222656 51.257812 22.195312 20.28125-8.023438 30.21875-30.972656 22.195312-51.253906zm0 0" fill="#ffb69e"/><path d="m222.339844 168.53125h-41.277344c-4.894531 0-8.863281-3.96875-8.863281-8.863281v-73.078125c0-4.894532 3.96875-8.863282 8.863281-8.863282h41.277344c4.894531 0 8.863281 3.96875 8.863281 8.863282v73.078125c0 4.894531-3.96875 8.863281-8.863281 8.863281zm0 0" fill="#55879b"/><path d="m179.429688 181.644531h-79.097657c-4.953125 0-9.710937-1.925781-13.269531-5.371093l-22.242188-21.527344.453126-25.804688 27.667968-.074218 15.109375 14.621093h71.378907c10.535156 0 19.078124 8.542969 19.078124 19.078125s-8.542968 19.078125-19.078124 19.078125zm0 0" fill="#ffb69e"/><path d="m341.324219 164.003906h-25.445313c-.699218 0-1.398437-.039062-2.09375-.113281l-78.113281-8.628906c-10.472656-1.160157-18.023437-10.585938-16.867187-21.058594 1.15625-10.46875 10.589843-18.027344 21.058593-16.867187l77.066407 8.515624h24.394531l29.007812 19.078126zm0 0" fill="#ffb69e"/><path d="m415.546875 125.851562h-74.222656v38.152344h74.222656c10.535156 0 19.078125-8.539062 19.078125-19.074218 0-10.535157-8.542969-19.078126-19.078125-19.078126zm0 0" fill="#1c9585"/><path d="m393.953125 289.890625h58.296875v-146.34375c0-14.464844-11.726562-26.1875-26.1875-26.1875h-47.957031c-14.464844 0-26.1875 11.722656-26.1875 26.1875v104.304687c0 23.21875 18.820312 42.039063 42.035156 42.039063zm0 0" fill="#39ae96"/><path d="m402.121094 230.90625-68.046875-22.113281c-10.019531-3.257813-15.503907-14.019531-12.246094-24.039063 3.253906-10.019531 14.011719-15.5 24.035156-12.246094l45.777344 14.875.429687-3.859374 21.277344-14.992188 16.207032 23.09375-2.578126 23.242188c-1.335937 12.035156-13.394531 19.757812-24.855468 16.039062zm0 0" fill="#ffb69e"/><path d="m92.941406 128.867188-34.910156-33.785157c-7.570312-7.328125-19.648438-7.128906-26.972656.441407-7.328125 7.570312-7.132813 19.644531.441406 26.972656l33.320312 32.25zm0 0" fill="#4699f2"/><path d="m434.507812 147.03125c1.160157-10.46875-6.382812-19.902344-16.855468-21.0625-10.472656-1.164062-19.902344 6.382812-21.0625 16.855469l-4.519532 40.699219 37.488282 8.105468zm0 0" fill="#1c9585"/><path d="m395.492188 48.285156c-20.28125-8.023437-43.230469 1.914063-51.253907 22.195313-8.023437 20.28125 1.914063 43.230469 22.195313 51.253906 20.28125 8.027344 43.230468-1.910156 51.253906-22.195313 8.027344-20.28125-1.910156-43.230468-22.195312-51.253906zm0 0" fill="#ffb69e"/></svg>