<?xml version="1.0" encoding="UTF-8" standalone="no" ?>
<!DOCTYPE svg PUBLIC "-//W3C//DTD SVG 1.1//EN" "http://www.w3.org/Graphics/SVG/1.1/DTD/svg11.dtd">
<svg xmlns="http://www.w3.org/2000/svg" xmlns:xlink="http://www.w3.org/1999/xlink" version="1.1" width="720" height="720" viewBox="0 0 720 720" xml:space="preserve">
<desc>Created with Fabric.js 4.2.0</desc>
<defs>
</defs>
<rect x="0" y="0" width="100%" height="100%" fill="transparent"></rect>
<g transform="matrix(1 0 0 1 360 360)" id="088ff5e9-cec8-4b99-9d85-4d7f1d684ffe"  >
<rect style="stroke: none; stroke-width: 1; stroke-dasharray: none; stroke-linecap: butt; stroke-dashoffset: 0; stroke-linejoin: miter; stroke-miterlimit: 4; fill: rgb(255,255,255); fill-opacity: 0; fill-rule: nonzero; opacity: 1;" vector-effect="non-scaling-stroke"  x="-360" y="-360" rx="0" ry="0" width="720" height="720" />
</g>
<g transform="matrix(0 0 0 0 0 0)" id="10e72e25-f349-42f5-adff-9246252ebd1e"  >
</g>
<g transform="matrix(3.61 0 0 3.61 624 600.86)" style="filter: url(#SVGID_1524);" id="f42727bd-bc40-4e3b-832d-5e77afda711c"  >
<filter id="SVGID_1524" y="-46%" height="192%" x="-54%" width="208%" >
	<feGaussianBlur in="SourceAlpha" stdDeviation="7.5"></feGaussianBlur>
	<feOffset dx="0" dy="0" result="oBlur" ></feOffset>
	<feFlood flood-color="rgb(0,0,0)" flood-opacity="1"/>
	<feComposite in2="oBlur" operator="in" />
	<feMerge>
		<feMergeNode></feMergeNode>
		<feMergeNode in="SourceGraphic"></feMergeNode>
	</feMerge>
</filter>
		<rect opacity="0" fill="rgb(0,0,0)" x="-22.39" y="-28.81" width="44.77" height="57.63"></rect>
		<text xml:space="preserve" font-family="Lato" font-size="51" font-style="normal" font-weight="400" style="stroke: none; stroke-width: 1; stroke-dasharray: none; stroke-linecap: butt; stroke-dashoffset: 0; stroke-linejoin: miter; stroke-miterlimit: 4; fill: rgb(0,0,255); fill-rule: nonzero; opacity: 1; white-space: pre;" ><tspan x="-16.5" y="16.02" >B</tspan></text>
</g>
<g transform="matrix(1.35 0 0 1.35 359.43 359.43)"  >
<g style="" vector-effect="non-scaling-stroke"   >
		<g transform="matrix(1 0 0 1 -166.69 166.65)"  >
<polygon style="stroke: none; stroke-width: 1; stroke-dasharray: none; stroke-linecap: butt; stroke-dashoffset: 0; stroke-linejoin: miter; stroke-miterlimit: 4; fill: rgb(237,85,101); fill-rule: nonzero; opacity: 1;" vector-effect="non-scaling-stroke"  points="-37.85,54.8 -54.8,37.86 37.85,-54.8 54.8,-37.85 " />
</g>
		<g transform="matrix(-0.71 -0.71 0.71 -0.71 -172.55 161.2)"  >
<rect style="stroke: none; stroke-width: 1; stroke-dasharray: none; stroke-linecap: butt; stroke-dashoffset: 0; stroke-linejoin: miter; stroke-miterlimit: 4; fill: rgb(255,255,255); fill-rule: nonzero; opacity: 0.3;" vector-effect="non-scaling-stroke"  x="-3.9935" y="-65.2195" rx="0" ry="0" width="7.987" height="130.439" />
</g>
		<g transform="matrix(1 0 0 1 -161.24 172.51)"  >
<polygon style="stroke: none; stroke-width: 1; stroke-dasharray: none; stroke-linecap: butt; stroke-dashoffset: 0; stroke-linejoin: miter; stroke-miterlimit: 4; fill: rgb(0,0,0); fill-rule: nonzero; opacity: 0.2;" vector-effect="non-scaling-stroke"  points="48.94,-43.29 43.29,-48.94 -48.94,43.3 -43.29,48.94 " />
</g>
		<g transform="matrix(1 0 0 1 -103.39 103.36)"  >
<polygon style="stroke: none; stroke-width: 1; stroke-dasharray: none; stroke-linecap: butt; stroke-dashoffset: 0; stroke-linejoin: miter; stroke-miterlimit: 4; fill: rgb(170,178,189); fill-rule: nonzero; opacity: 1;" vector-effect="non-scaling-stroke"  points="-5.68,28.27 -28.27,5.67 5.68,-28.27 28.27,-5.67 " />
</g>
		<g transform="matrix(1 0 0 1 -109.02 97.69)"  >
<polygon style="stroke: none; stroke-width: 1; stroke-dasharray: none; stroke-linecap: butt; stroke-dashoffset: 0; stroke-linejoin: miter; stroke-miterlimit: 4; fill: rgb(255,255,255); fill-rule: nonzero; opacity: 0.5;" vector-effect="non-scaling-stroke"  points="-11.31,22.61 -22.61,11.32 11.31,-22.61 22.61,-11.31 " />
</g>
		<g transform="matrix(1 0 0 1 -120.35 120.28)"  >
<path style="stroke: none; stroke-width: 1; stroke-dasharray: none; stroke-linecap: butt; stroke-dashoffset: 0; stroke-linejoin: miter; stroke-miterlimit: 4; fill: rgb(101,109,120); fill-rule: nonzero; opacity: 1;" vector-effect="non-scaling-stroke"  transform=" translate(-135.27, -375.9)" d="M 146.55 364.648 C 152.76700000000002 370.865 152.821 380.97400000000005 146.55 387.24600000000004 C 140.33700000000002 393.45500000000004 130.232 393.40000000000003 124.019 387.184 C 117.748 380.92 117.748 370.86600000000004 123.96000000000001 364.649 C 130.227 358.385 140.341 358.322 146.55 364.648 z" stroke-linecap="round" />
</g>
		<g transform="matrix(1 0 0 1 -121.49 119.15)"  >
<path style="stroke: none; stroke-width: 1; stroke-dasharray: none; stroke-linecap: butt; stroke-dashoffset: 0; stroke-linejoin: miter; stroke-miterlimit: 4; fill: rgb(255,255,255); fill-rule: nonzero; opacity: 0.2;" vector-effect="non-scaling-stroke"  transform=" translate(-134.13, -374.76)" d="M 129.607 370.296 C 134.88 365.02299999999997 142.848 364.203 148.948 367.823 C 148.281 366.69899999999996 147.517 365.61499999999995 146.55 364.64799999999997 C 140.341 358.32199999999995 130.228 358.38399999999996 123.96000000000001 364.64799999999997 C 117.74700000000001 370.86499999999995 117.74700000000001 380.919 124.019 387.183 C 124.994 388.158 126.09 388.93 127.229 389.601 C 123.605 383.478 124.369 375.537 129.607 370.296 z" stroke-linecap="round" />
</g>
		<g transform="matrix(1 0 0 1 -119.18 121.44)"  >
<path style="stroke: none; stroke-width: 1; stroke-dasharray: none; stroke-linecap: butt; stroke-dashoffset: 0; stroke-linejoin: miter; stroke-miterlimit: 4; fill: rgb(0,0,0); fill-rule: nonzero; opacity: 0.2;" vector-effect="non-scaling-stroke"  transform=" translate(-136.43, -377.06)" d="M 140.953 381.528 C 135.68 386.8 127.712 387.62 121.612 384.00100000000003 C 122.279 385.124 123.04299999999999 386.208 124.00999999999999 387.17600000000004 C 130.219 393.50200000000007 140.332 393.44700000000006 146.6 387.17600000000004 C 152.813 380.96700000000004 152.813 370.91200000000003 146.541 364.641 C 145.566 363.665 144.47 362.89300000000003 143.331 362.223 C 146.955 368.353 146.191 376.294 140.953 381.528 z" stroke-linecap="round" />
</g>
		<g transform="matrix(1 0 0 1 -120.12 120.3)"  >
<path style="stroke: none; stroke-width: 1; stroke-dasharray: none; stroke-linecap: butt; stroke-dashoffset: 0; stroke-linejoin: miter; stroke-miterlimit: 4; fill: rgb(58,56,71); fill-rule: nonzero; opacity: 1;" vector-effect="non-scaling-stroke"  transform=" translate(-135.5, -375.91)" d="M 135.516 379.906 C 133.31199999999998 379.906 131.483 378.119 131.483 375.912 C 131.483 373.70399999999995 133.23000000000002 371.91799999999995 135.43800000000002 371.91799999999995 L 135.51600000000002 371.91799999999995 C 137.72400000000002 371.91799999999995 139.51000000000002 373.70399999999995 139.51000000000002 375.912 C 139.51 378.119 137.723 379.906 135.516 379.906 z" stroke-linecap="round" />
</g>
		<g transform="matrix(1 0 0 1 -227.65 227.6)"  >
<path style="stroke: none; stroke-width: 1; stroke-dasharray: none; stroke-linecap: butt; stroke-dashoffset: 0; stroke-linejoin: miter; stroke-miterlimit: 4; fill: rgb(101,109,120); fill-rule: nonzero; opacity: 1;" vector-effect="non-scaling-stroke"  transform=" translate(-27.97, -483.22)" d="M 33.647 477.551 C 36.751 480.655 36.751 485.741 33.588 488.908 C 30.484 492.012 25.456000000000003 491.958 22.293 488.908 C 19.189 485.803 19.189 480.718 22.352 477.55100000000004 C 25.457 474.446 30.543 474.446 33.647 477.551 z" stroke-linecap="round" />
</g>
		<g transform="matrix(1 0 0 1 -227.66 227.63)"  >
<path style="stroke: none; stroke-width: 1; stroke-dasharray: none; stroke-linecap: butt; stroke-dashoffset: 0; stroke-linejoin: miter; stroke-miterlimit: 4; fill: rgb(255,206,84); fill-rule: nonzero; opacity: 1;" vector-effect="non-scaling-stroke"  transform=" translate(-27.96, -483.24)" d="M 22.294 488.908 C 25.457 491.958 30.484 492.012 33.589 488.908 C 36.751999999999995 485.74100000000004 36.751999999999995 480.65500000000003 33.647999999999996 477.55100000000004 C 30.543999999999997 474.44700000000006 25.458 474.44700000000006 22.352999999999994 477.55100000000004 C 19.189 480.718 19.189 485.803 22.294 488.908 z M 11.057 466.256 C 20.374000000000002 456.94199999999995 35.507 456.94199999999995 44.946000000000005 466.256 C 54.263000000000005 475.69399999999996 54.263000000000005 490.82599999999996 44.88700000000001 500.203 C 35.56600000000001 509.524 20.374000000000006 509.57899999999995 10.998000000000005 500.203 C 1.623 490.826 1.678 475.632 11.057 466.256 z" stroke-linecap="round" />
</g>
		<g transform="matrix(1 0 0 1 -229.88 225.39)"  >
<path style="stroke: none; stroke-width: 1; stroke-dasharray: none; stroke-linecap: butt; stroke-dashoffset: 0; stroke-linejoin: miter; stroke-miterlimit: 4; fill: rgb(255,255,255); fill-rule: nonzero; opacity: 0.5;" vector-effect="non-scaling-stroke"  transform=" translate(-25.73, -481)" d="M 16.705 471.903 C 25.058999999999997 463.54900000000004 38.062 462.75300000000004 47.47 469.37600000000003 C 46.705 468.29900000000004 45.906 467.23 44.946999999999996 466.25600000000003 C 35.50899999999999 456.942 20.375999999999994 456.942 11.057999999999993 466.25600000000003 C 1.677999999999992 475.632 1.6229999999999922 490.826 10.998999999999993 500.20300000000003 C 11.965999999999994 501.17 13.030999999999993 501.97400000000005 14.106999999999994 502.73800000000006 C 7.442 493.369 8.296 480.311 16.705 471.903 z" stroke-linecap="round" />
</g>
		<g transform="matrix(1 0 0 1 -225.41 229.84)"  >
<path style="stroke: none; stroke-width: 1; stroke-dasharray: none; stroke-linecap: butt; stroke-dashoffset: 0; stroke-linejoin: miter; stroke-miterlimit: 4; fill: rgb(0,0,0); fill-rule: nonzero; opacity: 0.2;" vector-effect="non-scaling-stroke"  transform=" translate(-30.21, -485.46)" d="M 39.236 494.554 C 30.881999999999998 502.90799999999996 17.881999999999998 503.712 8.470999999999997 497.08099999999996 C 9.239999999999997 498.15799999999996 10.034999999999997 499.227 10.997999999999998 500.20199999999994 C 20.433 509.52299999999997 35.565 509.52299999999997 44.887 500.20199999999994 C 54.263 490.82499999999993 54.322 475.6309999999999 44.946 466.25499999999994 C 43.975 465.2869999999999 42.91 464.4839999999999 41.833999999999996 463.7199999999999 C 48.499 473.096 47.645 486.146 39.236 494.554 z" stroke-linecap="round" />
</g>
		<g transform="matrix(1 0 0 1 76.96 -76.96)"  >
<polygon style="stroke: none; stroke-width: 1; stroke-dasharray: none; stroke-linecap: butt; stroke-dashoffset: 0; stroke-linejoin: miter; stroke-miterlimit: 4; fill: rgb(204,209,217); fill-rule: nonzero; opacity: 1;" vector-effect="non-scaling-stroke"  points="-174.67,152.04 123.78,-146.4 174.6,-174.64 174.67,-174.58 146.37,-123.8 -152.08,174.64 -157.72,168.99 -169.02,168.99 -169.02,157.69 " />
</g>
		<g transform="matrix(1 0 0 1 -162.26 78.38)"  >
<polygon style="stroke: none; stroke-width: 1; stroke-dasharray: none; stroke-linecap: butt; stroke-dashoffset: 0; stroke-linejoin: miter; stroke-miterlimit: 4; fill: rgb(255,206,84); fill-rule: nonzero; opacity: 1;" vector-effect="non-scaling-stroke"  points="12.71,-9.83 7.31,-4.42 -14.58,-37.12 -37.12,-14.59 -4.42,7.3 -9.83,12.71 26.7,37.12 37.12,26.7 " />
</g>
		<g transform="matrix(1 0 0 1 -153.82 75.99)"  >
<polygon style="stroke: none; stroke-width: 1; stroke-dasharray: none; stroke-linecap: butt; stroke-dashoffset: 0; stroke-linejoin: miter; stroke-miterlimit: 4; fill: rgb(255,255,255); fill-rule: nonzero; opacity: 0.5;" vector-effect="non-scaling-stroke"  points="4.27,-7.44 -1.14,-2.04 -23.02,-34.74 -28.67,-29.09 -6.78,3.61 -1.38,-1.8 23.03,34.74 28.67,29.09 " />
</g>
		<g transform="matrix(1 0 0 1 -78.41 162.22)"  >
<polygon style="stroke: none; stroke-width: 1; stroke-dasharray: none; stroke-linecap: butt; stroke-dashoffset: 0; stroke-linejoin: miter; stroke-miterlimit: 4; fill: rgb(255,206,84); fill-rule: nonzero; opacity: 1;" vector-effect="non-scaling-stroke"  points="37.12,14.59 4.42,-7.3 9.83,-12.71 -26.7,-37.12 -37.12,-26.7 -12.71,9.83 -7.31,4.43 14.58,37.12 " />
</g>
		<g transform="matrix(1 0 0 1 -75.38 154.43)"  >
<polygon style="stroke: none; stroke-width: 1; stroke-dasharray: none; stroke-linecap: butt; stroke-dashoffset: 0; stroke-linejoin: miter; stroke-miterlimit: 4; fill: rgb(255,255,255); fill-rule: nonzero; opacity: 0.5;" vector-effect="non-scaling-stroke"  points="7.45,-4.27 2.04,1.14 34.74,23.02 29.09,28.67 -3.61,6.78 1.8,1.38 -34.74,-23.02 -29.08,-28.67 " />
</g>
		<g transform="matrix(1 0 0 1 -164.85 87.02)"  >
<polygon style="stroke: none; stroke-width: 1; stroke-dasharray: none; stroke-linecap: butt; stroke-dashoffset: 0; stroke-linejoin: miter; stroke-miterlimit: 4; fill: rgb(0,0,0); fill-rule: nonzero; opacity: 0.2;" vector-effect="non-scaling-stroke"  points="-7.45,4.27 -2.04,-1.13 -34.74,-23.02 -29.09,-28.67 3.61,-6.78 -1.8,-1.38 34.73,23.02 29.09,28.67 " />
</g>
		<g transform="matrix(1 0 0 1 -86.41 165.46)"  >
<polygon style="stroke: none; stroke-width: 1; stroke-dasharray: none; stroke-linecap: butt; stroke-dashoffset: 0; stroke-linejoin: miter; stroke-miterlimit: 4; fill: rgb(0,0,0); fill-rule: nonzero; opacity: 0.2;" vector-effect="non-scaling-stroke"  points="-4.27,7.44 1.13,2.04 23.03,34.73 28.67,29.09 6.78,-3.61 1.38,1.79 -23.03,-34.73 -28.67,-29.09 " />
</g>
		<g transform="matrix(1 0 0 1 75.86 -79.66)"  >
<polygon style="stroke: none; stroke-width: 1; stroke-dasharray: none; stroke-linecap: butt; stroke-dashoffset: 0; stroke-linejoin: miter; stroke-miterlimit: 4; fill: rgb(255,255,255); fill-rule: nonzero; opacity: 0.7;" vector-effect="non-scaling-stroke"  points="173.57,-170.75 124.87,-143.69 -173.57,154.75 -167.92,160.39 -167.92,170.75 " />
</g>
		<g transform="matrix(1 0 0 1 226.15 -237.48)"  >
<path style="stroke: none; stroke-width: 1; stroke-dasharray: none; stroke-linecap: butt; stroke-dashoffset: 0; stroke-linejoin: miter; stroke-miterlimit: 4; fill: rgb(58,56,71); fill-rule: nonzero; opacity: 1;" vector-effect="non-scaling-stroke"  transform=" translate(-481.76, -18.14)" d="M 456.348 36.257 C 454.944 36.257 453.586 35.516 452.854 34.202 C 451.78499999999997 32.275999999999996 452.479 29.845999999999997 454.406 28.772999999999996 L 505.241 0.5319999999999965 C 507.168 -0.5480000000000036 509.594 0.15399999999999647 510.671 2.0849999999999964 C 511.739 4.011999999999997 511.045 6.440999999999996 509.118 7.513999999999997 L 458.283 35.754999999999995 C 457.675 36.097 457.004 36.257 456.348 36.257 z" stroke-linecap="round" />
</g>
		<g transform="matrix(1 0 0 1 237.47 -226.15)"  >
<path style="stroke: none; stroke-width: 1; stroke-dasharray: none; stroke-linecap: butt; stroke-dashoffset: 0; stroke-linejoin: miter; stroke-miterlimit: 4; fill: rgb(58,56,71); fill-rule: nonzero; opacity: 1;" vector-effect="non-scaling-stroke"  transform=" translate(-493.09, -29.47)" d="M 478.938 58.85 C 478.275 58.85 477.61199999999997 58.686 476.996 58.343 C 475.06899999999996 57.271 474.375 54.841 475.452 52.914 L 503.751 2.137999999999998 C 504.82 0.19999999999999818 507.262 -0.47900000000000187 509.181 0.5929999999999982 C 511.108 1.6659999999999981 511.80199999999996 4.094999999999998 510.72499999999997 6.0219999999999985 L 482.42499999999995 56.798 C 481.7 58.114 480.335 58.85 478.938 58.85 z" stroke-linecap="round" />
</g>
		<g transform="matrix(1 0 0 1 62.81 -40.24)"  >
<path style="stroke: none; stroke-width: 1; stroke-dasharray: none; stroke-linecap: butt; stroke-dashoffset: 0; stroke-linejoin: miter; stroke-miterlimit: 4; fill: rgb(58,56,71); fill-rule: nonzero; opacity: 1;" vector-effect="non-scaling-stroke"  transform=" translate(-318.42, -215.37)" d="M 157.907 379.883 C 156.88500000000002 379.883 155.863 379.49199999999996 155.083 378.712 C 153.523 377.152 153.523 374.625 155.083 373.065 L 476.114 52.033 C 477.67499999999995 50.473 480.202 50.473 481.762 52.033 C 483.322 53.594 483.322 56.120000000000005 481.762 57.68 L 160.73 378.712 C 159.95 379.492 158.928 379.883 157.907 379.883 z" stroke-linecap="round" />
</g>
		<g transform="matrix(1 0 0 1 40.21 -62.84)"  >
<path style="stroke: none; stroke-width: 1; stroke-dasharray: none; stroke-linecap: butt; stroke-dashoffset: 0; stroke-linejoin: miter; stroke-miterlimit: 4; fill: rgb(58,56,71); fill-rule: nonzero; opacity: 1;" vector-effect="non-scaling-stroke"  transform=" translate(-295.83, -192.78)" d="M 135.313 357.293 C 134.291 357.293 133.26899999999998 356.902 132.48899999999998 356.122 C 130.92899999999997 354.562 130.92899999999997 352.035 132.48899999999998 350.475 L 453.524 29.439 C 455.085 27.879 457.612 27.879 459.172 29.439 C 460.732 31 460.732 33.527 459.172 35.086 L 138.137 356.122 C 137.357 356.902 136.335 357.293 135.313 357.293 z" stroke-linecap="round" />
</g>
		<g transform="matrix(1 0 0 1 51.51 -51.54)"  >
<path style="stroke: none; stroke-width: 1; stroke-dasharray: none; stroke-linecap: butt; stroke-dashoffset: 0; stroke-linejoin: miter; stroke-miterlimit: 4; fill: rgb(58,56,71); fill-rule: nonzero; opacity: 1;" vector-effect="non-scaling-stroke"  transform=" translate(-307.13, -204.08)" d="M 163.554 351.644 C 162.532 351.644 161.51 351.254 160.73 350.474 C 159.17 348.914 159.17 346.387 160.73 344.827 L 447.878 57.68 C 449.438 56.12 451.965 56.12 453.524 57.68 C 455.085 59.241 455.085 61.766999999999996 453.524 63.327 L 166.378 350.474 C 165.598 351.255 164.576 351.644 163.554 351.644 z" stroke-linecap="round" />
</g>
		<g transform="matrix(1 0 0 1 -92.06 86.38)"  >
<path style="stroke: none; stroke-width: 1; stroke-dasharray: none; stroke-linecap: butt; stroke-dashoffset: 0; stroke-linejoin: miter; stroke-miterlimit: 4; fill: rgb(58,56,71); fill-rule: nonzero; opacity: 1;" vector-effect="non-scaling-stroke"  transform=" translate(-163.55, -342)" d="M 163.554 351.644 C 161.346 351.644 159.56 349.858 159.56 347.651 L 159.56 336.348 C 159.56 334.14 161.346 332.354 163.554 332.354 C 165.761 332.354 167.548 334.14 167.548 336.348 L 167.548 347.651 C 167.548 349.858 165.762 351.644 163.554 351.644 z" stroke-linecap="round" />
</g>
		<g transform="matrix(1 0 0 1 -86.41 92.03)"  >
<path style="stroke: none; stroke-width: 1; stroke-dasharray: none; stroke-linecap: butt; stroke-dashoffset: 0; stroke-linejoin: miter; stroke-miterlimit: 4; fill: rgb(58,56,71); fill-rule: nonzero; opacity: 1;" vector-effect="non-scaling-stroke"  transform=" translate(-169.2, -347.65)" d="M 174.849 351.644 L 163.554 351.644 C 161.346 351.644 159.56 349.858 159.56 347.651 C 159.56 345.443 161.346 343.657 163.554 343.657 L 174.849 343.657 C 177.05599999999998 343.657 178.843 345.443 178.843 347.651 C 178.843 349.858 177.056 351.644 174.849 351.644 z" stroke-linecap="round" />
</g>
		<g transform="matrix(1 0 0 1 -120.34 120.38)"  >
<path style="stroke: none; stroke-width: 1; stroke-dasharray: none; stroke-linecap: butt; stroke-dashoffset: 0; stroke-linejoin: miter; stroke-miterlimit: 4; fill: rgb(58,56,71); fill-rule: nonzero; opacity: 1;" vector-effect="non-scaling-stroke"  transform=" translate(-135.27, -375.99)" d="M 135.341 395.865 C 129.997 395.865 124.974 393.79 121.19500000000001 390.007 C 117.412 386.232 115.32600000000001 381.216 115.31400000000001 375.904 C 115.30600000000001 370.592 117.373 365.592 121.137 361.824 C 128.734 354.219 141.905 354.219 149.402 361.855 C 153.13799999999998 365.591 155.21699999999998 370.591 155.22899999999998 375.91900000000004 C 155.237 381.26200000000006 153.158 386.285 149.37499999999997 390.06800000000004 C 145.633 393.805 140.648 395.865 135.341 395.865 z M 135.305 363.923 C 132.09900000000002 363.923 129.076 365.187 126.783 367.472 C 124.533 369.727 123.296 372.714 123.3 375.88899999999995 C 123.30799999999999 379.07899999999995 124.564 382.08199999999994 126.841 384.35999999999996 C 131.358 388.87699999999995 139.236 388.90799999999996 143.725 384.42199999999997 C 145.995 382.152 147.243 379.133 147.239 375.936 C 147.231 372.738 145.987 369.73499999999996 143.725 367.472 C 141.468 365.171 138.488 363.923 135.305 363.923 z" stroke-linecap="round" />
</g>
		<g transform="matrix(1 0 0 1 -227.68 227.76)"  >
<path style="stroke: none; stroke-width: 1; stroke-dasharray: none; stroke-linecap: butt; stroke-dashoffset: 0; stroke-linejoin: miter; stroke-miterlimit: 4; fill: rgb(58,56,71); fill-rule: nonzero; opacity: 1;" vector-effect="non-scaling-stroke"  transform=" translate(-27.94, -483.37)" d="M 27.933 511.209 C 20.468 511.209 13.448 508.308 8.175 503.026 C 2.886 497.738 -0.015 490.71 0 483.221 C 0.02 475.747 2.941 468.72 8.233 463.431 C 18.752000000000002 452.916 37.11 452.909 47.75 463.41499999999996 C 58.608000000000004 474.40599999999995 58.577 492.159 47.711 503.025 C 42.434 508.307 35.41 511.209 27.933 511.209 z M 27.957 463.26 C 22.633000000000003 463.26 17.633000000000003 465.327 13.881 469.079 C 10.094000000000001 472.87 8 477.89300000000003 7.988 483.237 C 7.976000000000001 488.588 10.047 493.603 13.822 497.379 C 21.369 504.922 34.536 504.906 42.063 497.379 C 49.832 489.60900000000004 49.852000000000004 476.911 42.102000000000004 469.064 C 38.327 465.335 33.292 463.26 27.957 463.26 z" stroke-linecap="round" />
</g>
		<g transform="matrix(1 0 0 1 -227.64 227.66)"  >
<path style="stroke: none; stroke-width: 1; stroke-dasharray: none; stroke-linecap: butt; stroke-dashoffset: 0; stroke-linejoin: miter; stroke-miterlimit: 4; fill: rgb(58,56,71); fill-rule: nonzero; opacity: 1;" vector-effect="non-scaling-stroke"  transform=" translate(-27.97, -483.28)" d="M 27.992 495.211 C 24.821 495.211 21.814 493.994 19.521 491.778 C 14.798000000000002 487.058 14.825000000000001 479.43 19.529 474.726 C 24.037 470.218 31.963 470.218 36.471000000000004 474.726 C 41.143 479.399 41.116 487.027 36.412000000000006 491.731 C 34.174 493.97 31.182 495.211 27.992 495.211 z M 28 479.22 C 26.928 479.22 25.925 479.625 25.176000000000002 480.374 C 23.589000000000002 481.966 23.561000000000003 484.523 25.117 486.084 C 26.579 487.488 29.275000000000002 487.582 30.761000000000003 486.084 C 32.352000000000004 484.493 32.38 481.935 30.823000000000004 480.374 C 30.075 479.625 29.072 479.22 28 479.22 z" stroke-linecap="round" />
</g>
		<g transform="matrix(1 0 0 1 -157.07 100.56)"  >
<path style="stroke: none; stroke-width: 1; stroke-dasharray: none; stroke-linecap: butt; stroke-dashoffset: 0; stroke-linejoin: miter; stroke-miterlimit: 4; fill: rgb(58,56,71); fill-rule: nonzero; opacity: 1;" vector-effect="non-scaling-stroke"  transform=" translate(-98.54, -356.18)" d="M 112.657 368.641 C 111.959 368.641 111.249 368.46200000000005 110.60499999999999 368.072 L 82.368 351.13 C 80.476 349.999 79.86399999999999 347.542 80.999 345.654 C 82.13 343.758 84.583 343.15 86.479 344.281 L 114.716 361.223 C 116.60799999999999 362.362 117.22 364.812 116.085 366.706 C 115.337 367.955 114.014 368.641 112.657 368.641 z" stroke-linecap="round" />
</g>
		<g transform="matrix(1 0 0 1 -140.1 83.59)"  >
<path style="stroke: none; stroke-width: 1; stroke-dasharray: none; stroke-linecap: butt; stroke-dashoffset: 0; stroke-linejoin: miter; stroke-miterlimit: 4; fill: rgb(58,56,71); fill-rule: nonzero; opacity: 1;" vector-effect="non-scaling-stroke"  transform=" translate(-115.52, -339.2)" d="M 123.964 357.346 C 122.603 357.346 121.276 356.652 120.532 355.404 L 103.64399999999999 327.105 C 102.51299999999999 325.209 103.133 322.75100000000003 105.02499999999999 321.62800000000004 C 106.93199999999999 320.48900000000003 109.37799999999999 321.11300000000006 110.50099999999999 323.009 L 127.389 351.309 C 128.51999999999998 353.20500000000004 127.89999999999999 355.65400000000005 126.009 356.785 C 125.364 357.168 124.658 357.346 123.964 357.346 z" stroke-linecap="round" />
</g>
		<g transform="matrix(1 0 0 1 -188.11 52.52)"  >
<path style="stroke: none; stroke-width: 1; stroke-dasharray: none; stroke-linecap: butt; stroke-dashoffset: 0; stroke-linejoin: miter; stroke-miterlimit: 4; fill: rgb(58,56,71); fill-rule: nonzero; opacity: 1;" vector-effect="non-scaling-stroke"  transform=" translate(-67.51, -308.14)" d="M 56.241 323.4 C 55.219 323.4 54.197 323.00899999999996 53.417 322.229 C 51.857 320.669 51.857 318.142 53.417 316.582 L 75.952 294.04699999999997 C 77.512 292.48699999999997 80.039 292.48699999999997 81.599 294.04699999999997 C 83.159 295.60799999999995 83.159 298.135 81.599 299.69399999999996 L 59.06400000000001 322.229 C 58.285 323.01 57.262 323.4 56.241 323.4 z" stroke-linecap="round" />
</g>
		<g transform="matrix(1 0 0 1 -182.46 75.11)"  >
<path style="stroke: none; stroke-width: 1; stroke-dasharray: none; stroke-linecap: butt; stroke-dashoffset: 0; stroke-linejoin: miter; stroke-miterlimit: 4; fill: rgb(58,56,71); fill-rule: nonzero; opacity: 1;" vector-effect="non-scaling-stroke"  transform=" translate(-73.16, -330.73)" d="M 90.067 346.052 C 89.30199999999999 346.052 88.52999999999999 345.834 87.848 345.37300000000005 L 54.018 322.72800000000007 C 52.185 321.49600000000004 51.693 319.01500000000004 52.922 317.18300000000005 C 54.153999999999996 315.34900000000005 56.631 314.85800000000006 58.464 316.09000000000003 L 92.294 338.735 C 94.127 339.96700000000004 94.619 342.44800000000004 93.39 344.281 C 92.618 345.428 91.354 346.052 90.067 346.052 z" stroke-linecap="round" />
</g>
		<g transform="matrix(1 0 0 1 -165.52 58.17)"  >
<path style="stroke: none; stroke-width: 1; stroke-dasharray: none; stroke-linecap: butt; stroke-dashoffset: 0; stroke-linejoin: miter; stroke-miterlimit: 4; fill: rgb(58,56,71); fill-rule: nonzero; opacity: 1;" vector-effect="non-scaling-stroke"  transform=" translate(-90.1, -313.78)" d="M 101.428 334.695 C 100.14099999999999 334.695 98.877 334.078 98.105 332.924 L 75.45700000000001 299.094 C 74.22800000000001 297.26099999999997 74.72000000000001 294.781 76.55300000000001 293.556 C 78.379 292.32399999999996 80.86300000000001 292.80699999999996 82.09500000000001 294.64799999999997 L 104.74300000000001 328.479 C 105.97200000000001 330.311 105.48 332.791 103.647 334.024 C 102.965 334.476 102.193 334.695 101.428 334.695 z" stroke-linecap="round" />
</g>
		<g transform="matrix(1 0 0 1 -83.62 140.07)"  >
<path style="stroke: none; stroke-width: 1; stroke-dasharray: none; stroke-linecap: butt; stroke-dashoffset: 0; stroke-linejoin: miter; stroke-miterlimit: 4; fill: rgb(58,56,71); fill-rule: nonzero; opacity: 1;" vector-effect="non-scaling-stroke"  transform=" translate(-172, -395.68)" d="M 186.14 408.119 C 185.446 408.119 184.73999999999998 407.94000000000005 184.09599999999998 407.557 L 155.8 390.669 C 153.90800000000002 389.546 153.288 387.089 154.42000000000002 385.193 C 155.543 383.305 157.99300000000002 382.681 159.89600000000002 383.812 L 188.19100000000003 400.7 C 190.08300000000003 401.823 190.70300000000003 404.28 189.57100000000003 406.17699999999996 C 188.827 407.426 187.502 408.119 186.14 408.119 z" stroke-linecap="round" />
</g>
		<g transform="matrix(1 0 0 1 -100.56 157.01)"  >
<path style="stroke: none; stroke-width: 1; stroke-dasharray: none; stroke-linecap: butt; stroke-dashoffset: 0; stroke-linejoin: miter; stroke-miterlimit: 4; fill: rgb(58,56,71); fill-rule: nonzero; opacity: 1;" vector-effect="non-scaling-stroke"  transform=" translate(-155.05, -412.63)" d="M 163.5 430.771 C 162.139 430.771 160.812 430.07800000000003 160.068 428.83000000000004 L 143.18 400.52900000000005 C 142.049 398.63400000000007 142.669 396.1770000000001 144.561 395.05300000000005 C 146.472 393.9220000000001 148.91 394.54600000000005 150.037 396.434 L 166.925 424.73400000000004 C 168.056 426.63000000000005 167.436 429.07900000000006 165.54500000000002 430.21000000000004 C 164.9 430.592 164.194 430.771 163.5 430.771 z" stroke-linecap="round" />
</g>
		<g transform="matrix(1 0 0 1 -52.53 188.05)"  >
<path style="stroke: none; stroke-width: 1; stroke-dasharray: none; stroke-linecap: butt; stroke-dashoffset: 0; stroke-linejoin: miter; stroke-miterlimit: 4; fill: rgb(58,56,71); fill-rule: nonzero; opacity: 1;" vector-effect="non-scaling-stroke"  transform=" translate(-203.09, -443.67)" d="M 191.796 458.954 C 190.774 458.954 189.75199999999998 458.564 188.97199999999998 457.784 C 187.41199999999998 456.224 187.41199999999998 453.697 188.97199999999998 452.137 L 211.56199999999998 429.547 C 213.123 427.987 215.64999999999998 427.987 217.20899999999997 429.547 C 218.76999999999998 431.108 218.76999999999998 433.63500000000005 217.20899999999997 435.194 L 194.61899999999997 457.784 C 193.839 458.564 192.817 458.954 191.796 458.954 z" stroke-linecap="round" />
</g>
		<g transform="matrix(1 0 0 1 -58.17 165.46)"  >
<path style="stroke: none; stroke-width: 1; stroke-dasharray: none; stroke-linecap: butt; stroke-dashoffset: 0; stroke-linejoin: miter; stroke-miterlimit: 4; fill: rgb(58,56,71); fill-rule: nonzero; opacity: 1;" vector-effect="non-scaling-stroke"  transform=" translate(-197.44, -421.07)" d="M 214.382 436.365 C 213.621 436.365 212.853 436.146 212.17000000000002 435.693 L 178.281 413.09499999999997 C 176.44400000000002 411.86999999999995 175.949 409.39799999999997 177.174 407.55699999999996 C 178.39100000000002 405.72399999999993 180.871 405.23299999999995 182.71200000000002 406.44999999999993 L 216.60100000000003 429.04799999999994 C 218.43800000000002 430.27299999999997 218.93400000000003 432.74499999999995 217.70900000000003 434.58599999999996 C 216.94 435.74 215.673 436.365 214.382 436.365 z" stroke-linecap="round" />
</g>
		<g transform="matrix(1 0 0 1 -75.15 182.43)"  >
<path style="stroke: none; stroke-width: 1; stroke-dasharray: none; stroke-linecap: butt; stroke-dashoffset: 0; stroke-linejoin: miter; stroke-miterlimit: 4; fill: rgb(58,56,71); fill-rule: nonzero; opacity: 1;" vector-effect="non-scaling-stroke"  transform=" translate(-180.47, -438.04)" d="M 191.8 458.954 C 190.513 458.954 189.24900000000002 458.338 188.477 457.183 L 165.825 423.353 C 164.59599999999998 421.52 165.088 419.04 166.921 417.815 C 168.75 416.58299999999997 171.227 417.066 172.463 418.907 L 195.115 452.73699999999997 C 196.34400000000002 454.57 195.852 457.04999999999995 194.019 458.28299999999996 C 193.336 458.736 192.564 458.954 191.8 458.954 z" stroke-linecap="round" />
</g>
		<g transform="matrix(1 0 0 1 -205.05 188.08)"  >
<path style="stroke: none; stroke-width: 1; stroke-dasharray: none; stroke-linecap: butt; stroke-dashoffset: 0; stroke-linejoin: miter; stroke-miterlimit: 4; fill: rgb(58,56,71); fill-rule: nonzero; opacity: 1;" vector-effect="non-scaling-stroke"  transform=" translate(-50.56, -443.69)" d="M 42.118 456.131 C 41.096000000000004 456.131 40.075 455.73999999999995 39.294000000000004 454.96099999999996 C 37.734 453.4 37.734 450.87299999999993 39.294000000000004 449.31399999999996 L 56.182 432.426 C 57.742000000000004 430.865 60.269000000000005 430.865 61.829 432.426 C 63.389 433.986 63.389 436.513 61.829 438.073 L 44.941 454.96099999999996 C 44.162 455.74 43.14 456.131 42.118 456.131 z" stroke-linecap="round" />
</g>
		<g transform="matrix(1 0 0 1 -190.9 207.81)"  >
<path style="stroke: none; stroke-width: 1; stroke-dasharray: none; stroke-linecap: butt; stroke-dashoffset: 0; stroke-linejoin: miter; stroke-miterlimit: 4; fill: rgb(58,56,71); fill-rule: nonzero; opacity: 1;" vector-effect="non-scaling-stroke"  transform=" translate(-64.71, -463.43)" d="M 59.065 473.073 C 58.043 473.073 57.022 472.683 56.241 471.90299999999996 C 54.681 470.342 54.681 467.81499999999994 56.241 466.256 L 67.536 454.96099999999996 C 69.096 453.4 71.623 453.4 73.183 454.96099999999996 C 74.74300000000001 456.52099999999996 74.74300000000001 459.04799999999994 73.183 460.60799999999995 L 61.888000000000005 471.90299999999996 C 61.108 472.683 60.087 473.073 59.065 473.073 z" stroke-linecap="round" />
</g>
		<g transform="matrix(1 0 0 1 -190.93 190.9)"  >
<path style="stroke: none; stroke-width: 1; stroke-dasharray: none; stroke-linecap: butt; stroke-dashoffset: 0; stroke-linejoin: miter; stroke-miterlimit: 4; fill: rgb(58,56,71); fill-rule: nonzero; opacity: 1;" vector-effect="non-scaling-stroke"  transform=" translate(-64.68, -446.52)" d="M 70.364 461.778 C 68.902 461.778 67.497 460.97400000000005 66.795 459.586 L 55.441 437.051 C 54.447 435.078 55.238 432.675 57.208000000000006 431.685 C 59.17300000000001 430.686 61.57600000000001 431.482 62.571000000000005 433.456 L 73.92500000000001 455.99100000000004 C 74.91900000000001 457.95700000000005 74.12800000000001 460.35900000000004 72.15800000000002 461.35800000000006 C 71.58 461.645 70.968 461.778 70.364 461.778 z" stroke-linecap="round" />
</g>
		<g transform="matrix(1 0 0 1 -185.28 168.31)"  >
<path style="stroke: none; stroke-width: 1; stroke-dasharray: none; stroke-linecap: butt; stroke-dashoffset: 0; stroke-linejoin: miter; stroke-miterlimit: 4; fill: rgb(58,56,71); fill-rule: nonzero; opacity: 1;" vector-effect="non-scaling-stroke"  transform=" translate(-70.33, -423.93)" d="M 64.712 433.541 C 63.690000000000005 433.541 62.669000000000004 433.15 61.888000000000005 432.371 C 60.328 430.81 60.328 428.28299999999996 61.888000000000005 426.724 L 73.128 415.484 C 74.688 413.923 77.215 413.923 78.775 415.484 C 80.33500000000001 417.044 80.33500000000001 419.57099999999997 78.775 421.131 L 67.53500000000001 432.371 C 66.756 433.15 65.734 433.541 64.712 433.541 z" stroke-linecap="round" />
</g>
		<g transform="matrix(1 0 0 1 -173.96 190.87)"  >
<path style="stroke: none; stroke-width: 1; stroke-dasharray: none; stroke-linecap: butt; stroke-dashoffset: 0; stroke-linejoin: miter; stroke-miterlimit: 4; fill: rgb(58,56,71); fill-rule: nonzero; opacity: 1;" vector-effect="non-scaling-stroke"  transform=" translate(-81.66, -446.49)" d="M 76.007 456.131 C 74.985 456.131 73.964 455.73999999999995 73.183 454.96099999999996 C 71.623 453.4 71.623 450.87299999999993 73.183 449.31399999999996 L 84.482 438.01899999999995 C 86.042 436.45799999999997 88.569 436.45799999999997 90.129 438.01899999999995 C 91.68900000000001 439.57899999999995 91.68900000000001 442.10599999999994 90.129 443.66599999999994 L 78.83 454.961 C 78.051 455.74 77.029 456.131 76.007 456.131 z" stroke-linecap="round" />
</g>
		<g transform="matrix(1 0 0 1 -173.99 173.96)"  >
<path style="stroke: none; stroke-width: 1; stroke-dasharray: none; stroke-linecap: butt; stroke-dashoffset: 0; stroke-linejoin: miter; stroke-miterlimit: 4; fill: rgb(58,56,71); fill-rule: nonzero; opacity: 1;" vector-effect="non-scaling-stroke"  transform=" translate(-81.63, -429.57)" d="M 87.31 444.836 C 85.848 444.836 84.443 444.03200000000004 83.741 442.637 L 72.387 420.109 C 71.393 418.135 72.184 415.733 74.154 414.743 C 76.124 413.737 78.51899999999999 414.54 79.517 416.514 L 90.871 439.041 C 91.865 441.015 91.074 443.417 89.104 444.407 C 88.527 444.695 87.914 444.836 87.31 444.836 z" stroke-linecap="round" />
</g>
		<g transform="matrix(1 0 0 1 -168.37 151.39)"  >
<path style="stroke: none; stroke-width: 1; stroke-dasharray: none; stroke-linecap: butt; stroke-dashoffset: 0; stroke-linejoin: miter; stroke-miterlimit: 4; fill: rgb(58,56,71); fill-rule: nonzero; opacity: 1;" vector-effect="non-scaling-stroke"  transform=" translate(-87.25, -407.01)" d="M 81.6 416.653 C 80.57799999999999 416.653 79.55699999999999 416.26300000000003 78.776 415.483 C 77.216 413.922 77.216 411.395 78.776 409.836 L 90.071 398.541 C 91.631 396.98 94.158 396.98 95.718 398.541 C 97.278 400.101 97.278 402.628 95.718 404.188 L 84.423 415.483 C 83.643 416.263 82.622 416.653 81.6 416.653 z" stroke-linecap="round" />
</g>
		<g transform="matrix(1 0 0 1 -157.07 173.98)"  >
<path style="stroke: none; stroke-width: 1; stroke-dasharray: none; stroke-linecap: butt; stroke-dashoffset: 0; stroke-linejoin: miter; stroke-miterlimit: 4; fill: rgb(58,56,71); fill-rule: nonzero; opacity: 1;" vector-effect="non-scaling-stroke"  transform=" translate(-98.54, -429.6)" d="M 92.895 439.243 C 91.87299999999999 439.243 90.85199999999999 438.853 90.071 438.073 C 88.511 436.512 88.511 433.98499999999996 90.071 432.426 L 101.366 421.131 C 102.926 419.57 105.453 419.57 107.013 421.131 C 108.57300000000001 422.691 108.57300000000001 425.21799999999996 107.013 426.77799999999996 L 95.718 438.073 C 94.938 438.853 93.917 439.243 92.895 439.243 z" stroke-linecap="round" />
</g>
		<g transform="matrix(1 0 0 1 -157.07 157.04)"  >
<path style="stroke: none; stroke-width: 1; stroke-dasharray: none; stroke-linecap: butt; stroke-dashoffset: 0; stroke-linejoin: miter; stroke-miterlimit: 4; fill: rgb(58,56,71); fill-rule: nonzero; opacity: 1;" vector-effect="non-scaling-stroke"  transform=" translate(-98.54, -412.66)" d="M 104.194 427.948 C 102.72800000000001 427.948 101.316 427.144 100.617 425.73999999999995 L 89.322 403.15 C 88.336 401.17699999999996 89.135 398.774 91.108 397.792 C 93.078 396.80899999999997 95.48 397.597 96.467 399.578 L 107.762 422.16799999999995 C 108.748 424.14199999999994 107.949 426.5439999999999 105.976 427.52699999999993 C 105.403 427.815 104.794 427.948 104.194 427.948 z" stroke-linecap="round" />
</g>
		<g transform="matrix(1 0 0 1 -151.37 134.39)"  >
<path style="stroke: none; stroke-width: 1; stroke-dasharray: none; stroke-linecap: butt; stroke-dashoffset: 0; stroke-linejoin: miter; stroke-miterlimit: 4; fill: rgb(58,56,71); fill-rule: nonzero; opacity: 1;" vector-effect="non-scaling-stroke"  transform=" translate(-104.25, -390.01)" d="M 98.601 399.648 C 97.579 399.648 96.55799999999999 399.257 95.777 398.478 C 94.217 396.91700000000003 94.217 394.39 95.777 392.831 L 107.072 381.536 C 108.632 379.975 111.159 379.975 112.71900000000001 381.536 C 114.27900000000001 383.096 114.27900000000001 385.623 112.71900000000001 387.183 L 101.424 398.478 C 100.644 399.258 99.623 399.648 98.601 399.648 z" stroke-linecap="round" />
</g>
		<g transform="matrix(1 0 0 1 -137.31 154.22)"  >
<path style="stroke: none; stroke-width: 1; stroke-dasharray: none; stroke-linecap: butt; stroke-dashoffset: 0; stroke-linejoin: miter; stroke-miterlimit: 4; fill: rgb(58,56,71); fill-rule: nonzero; opacity: 1;" vector-effect="non-scaling-stroke"  transform=" translate(-118.31, -409.84)" d="M 109.837 422.301 C 108.815 422.301 107.794 421.90999999999997 107.013 421.131 C 105.453 419.57 105.453 417.04299999999995 107.013 415.484 L 123.959 398.542 C 125.519 396.981 128.046 396.981 129.606 398.542 C 131.166 400.102 131.166 402.62899999999996 129.606 404.18899999999996 L 112.66 421.131 C 111.881 421.91 110.859 422.301 109.837 422.301 z" stroke-linecap="round" />
</g>
</g>
</g>
</svg>