<?xml version="1.0" encoding="iso-8859-1"?>
<!-- Generator: Adobe Illustrator 19.0.0, SVG Export Plug-In . SVG Version: 6.00 Build 0)  -->
<svg version="1.1" id="Capa_1" xmlns="http://www.w3.org/2000/svg" xmlns:xlink="http://www.w3.org/1999/xlink" x="0px" y="0px"
	 viewBox="0 0 512 512" style="enable-background:new 0 0 512 512;" xml:space="preserve">
<path style="fill:#C5C9F7;" d="M194.974,0.034c-90.889,0-164.978,74.089-164.978,164.978V255c0,8.398,6.598,14.998,14.998,14.998
	h59.992c8.4,0,14.998-6.6,14.998-14.998v-89.988c0-41.395,33.596-74.99,74.99-74.99s74.99,33.596,74.99,74.99v29.996
	c0,8.398,6.598,14.998,14.998,14.998h59.992c8.4,0,14.998-6.6,14.998-14.998v-29.996C359.952,74.123,285.863,0.034,194.974,0.034z"
	/>
<path style="fill:#A8AFF1;" d="M359.952,165.012v29.996c0,8.398-6.598,14.998-14.998,14.998h-59.992
	c-8.4,0-14.998-6.6-14.998-14.998v-29.996c0-41.395-33.596-74.99-74.99-74.99V0.034C285.863,0.034,359.952,74.123,359.952,165.012z"
	/>
<path style="fill:#FEDB41;" d="M314.958,240.002H74.99c-8.4,0-14.998,6.598-14.998,14.998v241.968
	c0,8.398,6.598,14.998,14.998,14.998h239.968c8.4,0,14.998-6.6,14.998-14.998V255C329.956,246.6,323.358,240.002,314.958,240.002z"
	/>
<g>
	<path style="fill:#1BD9DE;" d="M430.234,151.596l59.992-29.996c17.863-8.825,31.019,18.031,13.416,26.832l-59.992,29.996
		C425.626,187.318,412.781,160.322,430.234,151.596z"/>
	<path style="fill:#1BD9DE;" d="M490.226,328.408l-59.992-29.996c-7.411-3.706-10.399-12.713-6.708-20.124
		c3.749-7.396,12.713-10.37,20.124-6.708l59.992,29.996C521.434,310.472,507.905,337.128,490.226,328.408z"/>
	<path style="fill:#1BD9DE;" d="M496.934,240.002h-59.992c-19.77,0-19.851-29.996,0-29.996h59.992
		C516.704,210.006,516.785,240.002,496.934,240.002z"/>
</g>
<path style="fill:#FFCC33;" d="M329.956,255v241.968c0,8.398-6.598,14.998-14.998,14.998H194.974V240.002h119.984
	C323.358,240.002,329.956,246.6,329.956,255z"/>
<path style="fill:#FEA832;" d="M89.988,511.966H44.994C20.183,511.966,0,491.783,0,466.972V284.996
	c0-24.811,20.183-44.994,44.994-44.994h44.994V511.966z"/>
<path style="fill:#FE9923;" d="M389.948,466.972c0,24.811-20.183,44.994-44.994,44.994H299.96V240.002h44.994
	c24.811,0,44.994,20.183,44.994,44.994V466.972z"/>
<g>
	<path style="fill:#994C0F;" d="M194.974,299.994c-24.899,0-44.994,20.096-44.994,44.994c0,24.896,20.095,44.994,44.994,44.994
		s44.994-20.098,44.994-44.994C239.968,320.09,219.873,299.994,194.974,299.994z"/>
	<path style="fill:#994C0F;" d="M209.972,374.984v59.992c0,9.898-7.499,14.998-14.998,14.998s-14.998-5.1-14.998-14.998v-59.992
		c0-9.9,7.499-14.998,14.998-14.998S209.972,365.085,209.972,374.984z"/>
</g>
<g>
	<path style="fill:#713708;" d="M239.968,344.988c0,24.896-20.095,44.994-44.994,44.994v-89.988
		C219.873,299.994,239.968,320.09,239.968,344.988z"/>
	<path style="fill:#713708;" d="M209.972,374.984v59.992c0,9.898-7.499,14.998-14.998,14.998v-89.988
		C202.473,359.986,209.972,365.085,209.972,374.984z"/>
</g>
<g>
</g>
<g>
</g>
<g>
</g>
<g>
</g>
<g>
</g>
<g>
</g>
<g>
</g>
<g>
</g>
<g>
</g>
<g>
</g>
<g>
</g>
<g>
</g>
<g>
</g>
<g>
</g>
<g>
</g>
</svg>
