<svg id="Layer_3" enable-background="new 0 0 64 64" height="512" viewBox="0 0 64 64" width="512" xmlns="http://www.w3.org/2000/svg"><g><path d="m2 15.054h60.001v46.946h-60.001z" fill="#c1c8d1"/><path d="m1.999 15.054h60.002c-7.485-8.031-18.156-13.054-30.001-13.054s-22.516 5.023-30.001 13.054z" fill="#8892a0"/><path d="m12 29h40v33h-40z" fill="#e7e4dd"/><path d="m12 50h12v12h-12z" fill="#976947"/><path d="m12 25h40v8h-40z" fill="#758190"/><g><path d="m12 28h40v2h-40z" fill="#a8b0bc"/></g><path d="m54 25h-44v-4c0-1.105.895-2 2-2h40c1.105 0 2 .895 2 2z" fill="#243242"/><g><path d="m22 10h20v2h-20z" fill="#a8b0bc"/></g><g><path d="m22 6h20v2h-20z" fill="#a8b0bc"/></g><path d="m12 38h12v12h-12z" fill="#c18e59"/><path d="m16 38v4h4v-4" fill="#f7d881"/><path d="m16 50v4h4v-4" fill="#f7d881"/><path d="m24 50h12v12h-12z" fill="#c18e59"/><path d="m28 50v4h4v-4" fill="#f7d881"/><g><path d="m15 45h6v2h-6z" fill="#f7d881"/></g><g><path d="m27 57h6v2h-6z" fill="#f7d881"/></g><g><path d="m15 57h6v2h-6z" fill="#f7d881"/></g><path d="m62 35h-6v10h6" fill="#c66b60"/><g><path d="m6 35h2v2h-2z" fill="#758190"/></g><g><path d="m6 39h2v2h-2z" fill="#758190"/></g><g><path d="m6 43h2v2h-2z" fill="#758190"/></g><g><path d="m59 39h3v2h-3z" fill="#f7d881"/></g></g></svg>