<svg id="Capa_1" enable-background="new 0 0 497 497" height="512" viewBox="0 0 497 497" width="512" xmlns="http://www.w3.org/2000/svg"><g><g><path d="m373.184 497c0-17.642-3.696-34.433-10.334-49.657-7.179-16.464-17.907-31.244-31.338-43.261h-137.426v92.918z" fill="#30cd9c"/><path d="m165.502 404.082c-13.459 12.017-24.151 26.746-31.352 43.262-6.638 15.224-10.333 32.014-10.333 49.656h73.119c.041-36.281 14.553-68.987 37.832-92.918z" fill="#18c08b"/></g><g><path d="m192.991 379.575c-11.787 0-23.459 2.315-34.353 6.814l-32.148 13.276c-8.558 3.534-13.116 13.205-9.87 21.875 3.394 9.065 13.587 13.451 22.462 9.786l36.056-14.89h73.362v-36.862h-55.509z" fill="#ffb357"/><path d="m370.916 399.836-32.561-13.447c-10.894-4.499-22.566-6.814-34.353-6.814h-55.502v36.862h73.354l35.644 14.72c8.557 3.534 18.611-.102 22.429-8.537 3.991-8.819-.136-19.119-9.011-22.784z" fill="#ffce71"/></g><g><path d="m194.086 404.082c0 23.728 8.197 47.476 24.527 66.082 2.851 3.248 5.888 6.337 9.073 9.35l41.631.012c3.191-3.02 6.234-6.117 9.089-9.373 15.781-17.999 24.5-41.491 24.5-66.07h-108.82z" fill="#d4d4ff"/><g><path d="m238.5 434.341-10.814 45.172c6.329 5.986 13.285 11.647 20.825 17.486 7.535-5.835 14.484-11.493 20.806-17.475l-10.817-45.183z" fill="#676fb2"/><circle cx="248.5" cy="424.769" fill="#4c5699" r="22.5"/></g></g><g><path d="m282.274 424.769h-67.557c-12.144 0-20.632-9.975-20.632-20.687 0-3.869 1.137-7.889 3.629-11.534l8.866-12.968 41.919-22.556 41.911 22.556 8.866 12.968c2.492 3.646 3.629 7.848 3.629 11.534.001 10.731-8.488 20.687-20.631 20.687z" fill="#efedff"/><path d="m248.5 357.025-41.919 22.544c7.361 19.304 22.084 34.594 41.919 45.2 19.834-10.605 34.535-25.897 41.896-45.2h.001z" fill="#ffcbbe"/></g><g><g fill="#ffcbbe"><circle cx="99.045" cy="236.073" r="37.157"/><circle cx="397.955" cy="236.073" r="37.157"/></g><g><path d="m273.271 88.66h-28.548c-18.98 0-36.907 8.723-48.62 23.658l-97.058 123.755 97.058 123.755c11.713 14.935 29.64 23.65 48.62 23.65h28.548c70.82-11.837 124.685-73.357 124.685-147.405-.001-74.104-53.931-135.611-124.685-147.413z" fill="#ffddcf"/><path d="m148.588 236.073c0-74.103 53.934-135.61 124.683-147.413-8.059-1.344-16.332-2.043-24.772-2.043-82.54 0-149.454 66.914-149.454 149.457 0 82.54 66.915 149.454 149.454 149.454 8.44 0 16.713-.705 24.772-2.049-70.75-11.804-124.683-73.305-124.683-147.406z" fill="#ffcbbe"/></g></g><g fill="#313d40"><path d="m184.189 247.403c-4.142 0-7.5 3.358-7.5 7.5v9.358c0 4.142 3.358 7.5 7.5 7.5s7.5-3.358 7.5-7.5v-9.358c0-4.142-3.358-7.5-7.5-7.5z"/><path d="m312.811 247.403c-4.142 0-7.5 3.358-7.5 7.5v9.358c0 4.142 3.358 7.5 7.5 7.5s7.5-3.358 7.5-7.5v-9.358c0-4.142-3.358-7.5-7.5-7.5z"/></g><circle cx="324.906" cy="482" fill="#ffce71" r="15"/><path d="m283.499 274.578c-10.867-11.379-27.363-12.811-34.999-2.116-7.636-10.695-24.132-9.263-34.999 2.116-11.522 12.083-20.509 23.375-17.004 29.442 3.502 6.07 17.772 3.929 34-.005 8.064-1.963 14.507-6.67 18.004-12.432 3.497 5.762 9.94 10.469 18.004 12.432 16.227 3.933 30.498 6.075 34 .005 3.503-6.067-5.484-17.359-17.006-29.442z" fill="#ce857a"/><g><path d="m388.915 59.308c-31.274-27.426-72.461-50.59-115.543-57.325l-29.879 20v177.213h149.879s0 0 32.793-53.769c16.046-26.308 5.277-49.504-37.25-86.119z" fill="#30cd9c"/><path d="m273.372 1.983c-8.24-1.288-16.549-1.983-24.872-1.983-51.837.001-103.159 26.635-140.415 59.308-42.527 36.615-53.295 59.811-37.25 86.118 32.793 53.769 32.793 53.769 32.793 53.769h144.872 8.858c-6.095-25.194-9.031-50.965-8.835-76.718.201-26.473 3.712-52.925 10.559-78.711 3.761-14.164 8.523-28.128 14.29-41.783z" fill="#18c08b"/></g><g><path d="m287.711 64.146-18.639-4.993c-7.565-11.652-9.319-14.352-9.991-15.387h-10.559v78.711c.479.184 17.977 6.902 17.991 6.908 8.111 3.114 16.74-3.155 16.285-11.832l-1.011-19.269 12.144-14.995c5.469-6.75 2.172-16.895-6.22-19.143z" fill="#ffce71"/><path d="m258.565 42.97c-4.731-7.287-15.398-7.287-20.129 0l-10.508 16.184-18.639 4.993c-8.392 2.248-11.688 12.392-6.22 19.144l12.144 14.995-1.011 19.269c-.455 8.676 8.174 14.946 16.285 11.832l18.014-6.916s.016.006.023.009c.201-26.473 3.712-52.925 10.559-78.711-.239-.368-.342-.528-.518-.799z" fill="#ffb357"/></g><g><path d="m250.87 163.476v55.292l17.258 15.769c46.903-2.296 87.714-14.764 125.245-35.341-42.062-23.062-88.242-35.934-142.503-35.72z" fill="#676fb2"/><path d="m248.5 163.484c-55.29-.604-102.2 12.315-144.873 35.712 42.673 23.396 89.583 36.315 144.873 35.712 6.663.073 13.201-.056 19.628-.37-8.547-23.09-14.292-46.943-17.258-71.061-.789.002-1.578-.002-2.37.007z" fill="#4c5699"/></g></g></svg>