<?xml version="1.0" encoding="UTF-8" standalone="no" ?>
<!DOCTYPE svg PUBLIC "-//W3C//DTD SVG 1.1//EN" "http://www.w3.org/Graphics/SVG/1.1/DTD/svg11.dtd">
<svg xmlns="http://www.w3.org/2000/svg" xmlns:xlink="http://www.w3.org/1999/xlink" version="1.1" width="240" height="240" viewBox="0 0 240 240" xml:space="preserve">
<desc>Created with Fabric.js 4.2.0</desc>
<defs>
</defs>
<rect x="0" y="0" width="100%" height="100%" fill="transparent"></rect>
<g transform="matrix(1 0 0 1 120 120)" id="9b63047e-f31f-4123-a4ed-e63e3c2b7154"  >
<rect style="stroke: none; stroke-width: 1; stroke-dasharray: none; stroke-linecap: butt; stroke-dashoffset: 0; stroke-linejoin: miter; stroke-miterlimit: 4; fill: rgb(255,255,255); fill-opacity: 0; fill-rule: nonzero; opacity: 1;" vector-effect="non-scaling-stroke"  x="-120" y="-120" rx="0" ry="0" width="240" height="240" />
</g>
<g transform="matrix(Infinity NaN NaN Infinity 0 0)" id="80c0849b-0b34-4718-a10a-0352048c3ff6"  >
</g>
<g transform="matrix(0.41 0 0 0.41 120 120)"  >
<g style="" vector-effect="non-scaling-stroke"   >
		<g transform="matrix(1 0 0 1 0 0)"  >
<path style="stroke: none; stroke-width: 1; stroke-dasharray: none; stroke-linecap: butt; stroke-dashoffset: 0; stroke-linejoin: miter; stroke-miterlimit: 4; fill: rgb(0,0,0); fill-rule: nonzero; opacity: 1;" vector-effect="non-scaling-stroke"  transform=" translate(-256.01, -256)" d="M 496.646 15.377 C 486.73 5.461 473.546 0 459.523 0 C 445.50000000000006 0 432.31600000000003 5.461 422.40000000000003 15.377 C 412.61300000000006 25.164 407.177 38.135 407.03600000000006 51.954 L 384.3550000000001 74.635 C 381.3660000000001 73.206 378.0810000000001 72.427 374.6700000000001 72.427 C 368.6600000000001 72.427 363.01000000000005 74.768 358.76000000000005 79.01700000000001 L 305.72700000000003 132.05 C 304.321 133.45600000000002 303.531 135.364 303.531 137.353 C 303.531 139.342 304.321 141.25 305.72700000000003 142.656 L 423.309 260.23900000000003 C 430.53700000000003 267.466 439.31600000000003 272.57700000000006 448.89500000000004 275.26000000000005 L 427.725 296.43100000000004 C 425.04 286.85100000000006 419.93 278.07200000000006 412.704 270.84600000000006 L 241.178 99.32000000000005 C 233.951 92.09300000000005 225.172 86.98200000000006 215.593 84.29900000000005 L 236.76299999999998 63.12900000000005 C 239.44699999999997 72.70800000000006 244.557 81.48700000000005 251.784 88.71400000000006 L 284.514 121.44400000000005 C 287.444 124.37300000000005 292.192 124.37100000000005 295.121 121.44400000000005 C 298.04999999999995 118.51500000000004 298.04999999999995 113.76600000000005 295.121 110.83800000000005 L 262.39099999999996 78.10800000000006 C 254.13499999999996 69.85200000000006 249.58799999999997 58.87500000000006 249.58799999999997 47.198000000000064 C 249.58799999999997 44.164000000000065 247.76099999999997 41.430000000000064 244.95799999999997 40.26900000000006 C 242.15699999999998 39.109000000000066 238.92899999999997 39.74900000000006 236.78499999999997 41.89500000000006 L 194.35799999999998 84.32000000000005 C 192.21299999999997 86.46500000000005 191.57099999999997 89.69100000000005 192.73199999999997 92.49300000000005 C 193.89299999999997 95.29600000000005 196.62799999999996 97.12300000000005 199.66099999999997 97.12300000000005 C 211.33699999999996 97.12300000000005 222.31499999999997 101.67000000000004 230.57099999999997 109.92600000000004 L 284.51399999999995 163.86900000000003 L 31.48599999999996 416.89700000000005 C 8.284999999999961 440.09700000000004 -2.9430000000000405 472.10600000000005 0.6809999999999619 504.71600000000007 C 1.0679999999999619 508.20200000000006 3.820999999999962 510.95500000000004 7.306999999999962 511.34200000000004 C 11.332999999999963 511.78900000000004 15.349999999999962 512.01 19.34299999999996 512.01 C 47.685999999999964 512.01 74.78999999999996 500.872 95.12599999999996 480.536 L 348.15399999999994 227.508 L 402.09599999999995 281.45 C 410.35299999999995 289.706 414.8999999999999 300.68399999999997 414.8999999999999 312.36 C 414.8999999999999 315.394 416.7269999999999 318.128 419.5299999999999 319.289 C 420.4579999999999 319.673 421.4319999999999 319.86 422.3979999999999 319.86 C 424.3499999999999 319.86 426.2679999999999 319.098 427.7039999999999 317.663 L 470.1309999999999 275.236 C 472.2759999999999 273.091 472.9169999999999 269.865 471.7559999999999 267.063 C 470.5959999999999 264.26 467.8599999999999 262.433 464.82699999999994 262.433 C 453.1499999999999 262.433 442.17299999999994 257.88599999999997 433.9169999999999 249.63 L 385.27699999999993 200.99 L 433.00699999999995 153.26100000000002 C 439.917 146.35000000000002 441.3589999999999 136.03300000000002 437.38199999999995 127.67300000000003 L 460.06999999999994 104.98500000000003 C 473.8879999999999 104.84400000000002 486.85999999999996 99.40800000000003 496.64699999999993 89.62100000000002 C 517.116 69.15300000000002 517.116 35.84700000000002 496.64599999999996 15.377000000000024 z M 42.09200000000004 427.504 L 219.21700000000004 250.38000000000002 C 216.36700000000005 261.59200000000004 215.33200000000005 273.319 216.24900000000005 285.16700000000003 L 15.253000000000043 486.16400000000004 C 16.808000000000042 464.17800000000005 26.168000000000042 443.42800000000005 42.09200000000004 427.504 z M 84.51900000000003 469.93100000000004 C 68.59400000000004 485.85600000000005 47.84300000000003 495.21600000000007 25.859000000000037 496.771 L 226.85600000000005 295.774 C 229.66200000000006 295.991 232.46100000000004 296.106 235.24800000000005 296.106 C 244.22900000000004 296.106 253.08500000000004 294.984 261.6410000000001 292.80899999999997 z M 300.42400000000004 254.02600000000004 C 281.92400000000004 272.52700000000004 256.91400000000004 282.17900000000003 231.01500000000004 281.009 C 229.84700000000004 255.11800000000002 239.49300000000005 230.113 257.98300000000006 211.615 L 295.12200000000007 174.476 L 337.54800000000006 216.903 z M 395.884 84.32000000000005 L 410.052 70.15200000000004 C 412.63 77.39200000000004 416.805 84.02800000000005 422.40000000000003 89.62300000000005 C 427.99500000000006 95.21800000000005 434.63100000000003 99.39400000000005 441.87100000000004 101.97100000000005 L 427.70300000000003 116.13900000000004 z M 353.457 105.53300000000004 L 406.49 158.56600000000003 L 395.884 169.17200000000003 L 342.851 116.13900000000002 z M 321.637 137.35300000000004 L 332.243 126.74700000000004 L 385.276 179.78000000000003 L 374.67 190.38600000000002 z M 422.4 142.65600000000003 L 417.097 147.95900000000003 L 364.06399999999996 94.92600000000003 L 369.36799999999994 89.62200000000003 C 370.78399999999993 88.20500000000003 372.66799999999995 87.42500000000003 374.67099999999994 87.42500000000003 C 376.6739999999999 87.42500000000003 378.55799999999994 88.20500000000003 379.97399999999993 89.62200000000003 L 422.40099999999995 132.04800000000003 C 425.32499999999993 134.97400000000002 425.32499999999993 139.73200000000003 422.4 142.65600000000003 z M 486.041 79.01700000000002 C 478.957 86.10000000000002 469.54 90.00000000000003 459.523 90.00000000000003 C 449.50600000000003 90.00000000000003 440.089 86.10000000000002 433.007 79.01700000000002 C 425.923 71.93400000000003 422.023 62.517000000000024 422.023 52.50000000000003 C 422.023 42.48300000000003 425.923 33.06600000000003 433.007 25.98300000000003 C 440.089 18.900000000000027 449.50600000000003 15.000000000000028 459.523 15.000000000000028 C 469.54 15.000000000000028 478.95700000000005 18.900000000000027 486.04 25.98300000000003 C 500.661 40.60400000000003 500.661 64.39600000000003 486.041 79.01700000000002 z" stroke-linecap="round" />
</g>
		<g transform="matrix(1 0 0 1 203.51 -203.5)"  >
<path style="stroke: none; stroke-width: 1; stroke-dasharray: none; stroke-linecap: butt; stroke-dashoffset: 0; stroke-linejoin: miter; stroke-miterlimit: 4; fill: rgb(0,0,0); fill-rule: nonzero; opacity: 1;" vector-effect="non-scaling-stroke"  transform=" translate(-459.52, -52.5)" d="M 459.523 30 C 453.51300000000003 30 447.863 32.341 443.61400000000003 36.59 C 439.36400000000003 40.84 437.023 46.49 437.023 52.5 C 437.023 58.51 439.36400000000003 64.16 443.613 68.41 C 447.863 72.66 453.513 75 459.523 75 C 465.5330000000001 75 471.18300000000005 72.659 475.432 68.41 C 479.682 64.16 482.023 58.51 482.023 52.5 C 482.023 46.49 479.682 40.839 475.43300000000005 36.59 C 471.18300000000005 32.341 465.5330000000001 30.000000000000004 459.523 30.000000000000004 z M 464.827 57.803 C 463.41 59.22 461.526 60 459.523 60 C 457.52000000000004 60 455.636 59.22 454.21900000000005 57.803 C 452.80300000000005 56.385999999999996 452.023 54.503 452.023 52.5 C 452.023 50.497 452.803 48.614 454.22 47.197 C 455.636 45.78 457.52000000000004 45 459.523 45 C 461.526 45 463.41 45.78 464.827 47.197 C 466.243 48.614000000000004 467.023 50.496 467.023 52.5 C 467.023 54.503 466.24300000000005 56.386 464.827 57.803 z" stroke-linecap="round" />
</g>
</g>
</g>
<g transform="matrix(1 0 0 1 120 120)" style="" id="e824df2f-2177-4b7a-a592-6ff9972dfcfb"  >
		<rect opacity="0.38" fill="rgb(0,0,0)" x="-96" y="-19.77" width="192" height="39.55"></rect>
		<text xml:space="preserve" font-family="Lato" font-size="35" font-style="normal" font-weight="400" style="stroke: none; stroke-width: 1; stroke-dasharray: none; stroke-linecap: butt; stroke-dashoffset: 0; stroke-linejoin: miter; stroke-miterlimit: 4; fill: rgb(255,255,255); fill-rule: nonzero; opacity: 1; white-space: pre;" ><tspan x="-91.05" y="10.99" >No Weapon</tspan></text>
</g>
</svg>