<?xml version="1.0" encoding="UTF-8" standalone="no" ?>
<!DOCTYPE svg PUBLIC "-//W3C//DTD SVG 1.1//EN" "http://www.w3.org/Graphics/SVG/1.1/DTD/svg11.dtd">
<svg xmlns="http://www.w3.org/2000/svg" xmlns:xlink="http://www.w3.org/1999/xlink" version="1.1" width="720" height="720" viewBox="0 0 720 720" xml:space="preserve">
<desc>Created with Fabric.js 4.2.0</desc>
<defs>
</defs>
<rect x="0" y="0" width="100%" height="100%" fill="transparent"></rect>
<g transform="matrix(1 0 0 1 360 360)" id="088ff5e9-cec8-4b99-9d85-4d7f1d684ffe"  >
<rect style="stroke: none; stroke-width: 1; stroke-dasharray: none; stroke-linecap: butt; stroke-dashoffset: 0; stroke-linejoin: miter; stroke-miterlimit: 4; fill: rgb(255,255,255); fill-opacity: 0; fill-rule: nonzero; opacity: 1;" vector-effect="non-scaling-stroke"  x="-360" y="-360" rx="0" ry="0" width="720" height="720" />
</g>
<g transform="matrix(0 0 0 0 0 0)" id="10e72e25-f349-42f5-adff-9246252ebd1e"  >
</g>
<g transform="matrix(1.17 0 0 1.17 358.65 358.63)"  >
<g style="" vector-effect="non-scaling-stroke"   >
		<g transform="matrix(1.33 0 0 1.33 11.79 31.89)"  >
<path style="stroke: none; stroke-width: 1; stroke-dasharray: none; stroke-linecap: butt; stroke-dashoffset: 0; stroke-linejoin: miter; stroke-miterlimit: 4; fill: rgb(38,163,185); fill-rule: nonzero; opacity: 1;" vector-effect="non-scaling-stroke"  transform=" translate(-228.12, -245.92)" d="M 36.171875 47.832031 C 21.621094 195.34375 80.546875 207.601562 148.613281 246.765625 C 203.609375 278.398438 267.367188 345.44140600000003 205.511719 444 C 336.5 424.296875 410.101562 314.445312 379.945312 234.359375 C 348.984375 152.175781 414.671875 127.808594 422.296875 47.832031 z M 36.171875 47.832031" stroke-linecap="round" />
</g>
		<g transform="matrix(1.33 0 0 1.33 73.43 39.53)"  >
<path style="stroke: none; stroke-width: 1; stroke-dasharray: none; stroke-linecap: butt; stroke-dashoffset: 0; stroke-linejoin: miter; stroke-miterlimit: 4; fill: rgb(22,138,165); fill-rule: nonzero; opacity: 1;" vector-effect="non-scaling-stroke"  transform=" translate(-274.35, -251.65)" d="M 283.269531 223.898438 C 275.285156 224.988281 268.078125 229.253906 263.285156 235.730469 C 258.492188 242.207031 256.523438 250.347656 257.82031199999994 258.30078100000003 L 245.69921899999994 270.39843800000006 C 242.96484399999994 273.13281200000006 242.96484399999994 277.56640600000003 245.69921899999994 280.30078100000003 C 248.43359399999994 283.03515600000003 252.86718799999994 283.03515600000003 255.60156199999994 280.30078100000003 L 267.69921899999997 268.1875 C 275.65234399999997 269.484375 283.79296899999997 267.515625 290.269531 262.722656 C 296.74609399999997 257.929688 301.01171899999997 250.72265599999997 302.10156199999994 242.73828099999997 L 305.05859399999997 220.94921899999997 z M 283.269531 223.898438" stroke-linecap="round" />
</g>
		<g transform="matrix(1.33 0 0 1.33 126.16 31.89)"  >
<path style="stroke: none; stroke-width: 1; stroke-dasharray: none; stroke-linecap: butt; stroke-dashoffset: 0; stroke-linejoin: miter; stroke-miterlimit: 4; fill: rgb(22,138,165); fill-rule: nonzero; opacity: 1;" vector-effect="non-scaling-stroke"  transform=" translate(-313.9, -245.91)" d="M 422.300781 47.832031 L 391.03125 47.832031 C 383.402344 127.8125 317.69921899999997 152.175781 348.67578100000003 234.359375 C 375.949219 306.76171899999997 318.38281200000006 403.476562 210.30468800000003 435.929688 C 208.78906200000003 438.597656 207.21484400000003 441.28125 205.50390600000003 443.99609399999997 C 336.5 424.296875 410.10156200000006 314.44531199999994 379.94531200000006 234.35937499999997 C 348.98437500000006 152.17578099999997 414.67187500000006 127.81249999999997 422.30078100000003 47.83203099999997 z M 422.300781 47.832031" stroke-linecap="round" />
</g>
		<g transform="matrix(1.33 0 0 1.33 13.28 -232.22)"  >
<path style="stroke: none; stroke-width: 1; stroke-dasharray: none; stroke-linecap: butt; stroke-dashoffset: 0; stroke-linejoin: miter; stroke-miterlimit: 4; fill: rgb(217,236,242); fill-rule: nonzero; opacity: 1;" vector-effect="non-scaling-stroke"  transform=" translate(-229.24, -47.83)" d="M 422.300781 47.832031 C 422.300781 21.414062 335.863281 0 229.23437499999997 0 C 122.60937499999997 0 36.17187499999997 21.414062 36.17187499999997 47.832031 C 36.17187499999997 74.25 122.60937499999997 95.664062 229.23437499999997 95.664062 C 335.863281 95.664062 422.300781 74.25 422.300781 47.832031 z M 422.300781 47.832031" stroke-linecap="round" />
</g>
		<g transform="matrix(1.33 0 0 1.33 129.32 -232.22)"  >
<path style="stroke: none; stroke-width: 1; stroke-dasharray: none; stroke-linecap: butt; stroke-dashoffset: 0; stroke-linejoin: miter; stroke-miterlimit: 4; fill: rgb(189,217,229); fill-rule: nonzero; opacity: 1;" vector-effect="non-scaling-stroke"  transform=" translate(-316.27, -47.83)" d="M 229.234375 0 C 222.835938 0 216.503906 0.078125 210.238281 0.230469 C 307.94921899999997 2.5976559999999997 384.30859399999997 23.003906 384.30859399999997 47.832031 C 384.30859399999997 72.660156 307.94921899999997 93.0625 210.23828099999997 95.433594 C 216.49218799999997 95.585938 222.82421899999997 95.660156 229.23437499999997 95.664062 C 335.863281 95.664062 422.300781 74.246094 422.300781 47.832031 C 422.300781 21.414062 335.859375 0 229.23437499999997 0 z M 229.234375 0" stroke-linecap="round" />
</g>
		<g transform="matrix(1.33 0 0 1.33 13.26 -218.47)"  >
<path style="stroke: none; stroke-width: 1; stroke-dasharray: none; stroke-linecap: butt; stroke-dashoffset: 0; stroke-linejoin: miter; stroke-miterlimit: 4; fill: rgb(189,217,229); fill-rule: nonzero; opacity: 1;" vector-effect="non-scaling-stroke"  transform=" translate(-229.23, -58.15)" d="M 402.734375 68.820312 C 402.023438 67.246094 400.746094 65.992188 399.160156 65.308594 C 363.35546899999997 49.980469 299.832031 40.828125 229.23046899999997 40.828125 C 158.63281199999997 40.828125 95.11328099999997 50 59.30078099999997 65.3125 C 57.71093799999997 65.996094 56.43749999999997 67.25 55.72265599999997 68.824219 C 60.89843799999997 71.382812 66.23437499999997 73.601562 71.69921899999997 75.464844 C 106.61718799999997 62.664062 165.83203099999997 54.832031 229.23046899999997 54.832031 C 292.63281199999994 54.832031 351.85156199999994 62.664062 386.769531 75.464844 C 392.23046899999997 73.601562 397.5625 71.382812 402.734375 68.820312 z M 402.734375 68.820312" stroke-linecap="round" />
</g>
		<g transform="matrix(1.33 0 0 1.33 -11.68 -52.96)"  >
<path style="stroke: none; stroke-width: 1; stroke-dasharray: none; stroke-linecap: butt; stroke-dashoffset: 0; stroke-linejoin: miter; stroke-miterlimit: 4; fill: rgb(22,138,165); fill-rule: nonzero; opacity: 1;" vector-effect="non-scaling-stroke"  transform=" translate(-210.52, -182.28)" d="M 229.230469 187.429688 C 145.378906 187.429688 81.960938 176.335938 46.503906 163.125 C 49.1875 169.355469 52.457031 175.320312 56.269531 180.9375 C 100.871094 194.394531 166.164062 201.429688 229.230469 201.429688 C 287.88671899999997 201.429688 336.734375 196.011719 371.99609399999997 186.347656 C 372.394531 181.074219 373.242188 175.847656 374.53124999999994 170.71875 C 343.3007809999999 180.320312 295.46093799999994 187.429688 229.23046899999994 187.429688 z M 229.230469 187.429688" stroke-linecap="round" />
</g>
		<g transform="matrix(1.33 0 0 1.33 67.54 238.09)"  >
<path style="stroke: none; stroke-width: 1; stroke-dasharray: none; stroke-linecap: butt; stroke-dashoffset: 0; stroke-linejoin: miter; stroke-miterlimit: 4; fill: rgb(22,138,165); fill-rule: nonzero; opacity: 1;" vector-effect="non-scaling-stroke"  transform=" translate(-269.93, -400.56)" d="M 284.863281 398.558594 C 265.742188 397.664062 246.83593799999997 394.109375 228.69140599999997 388 C 227.80859399999997 392.621094 226.67578099999997 397.1875 225.30859399999997 401.6875 C 244.27734399999997 407.777344 263.94531199999994 411.41796899999997 283.83593799999994 412.51953100000003 C 287.3320309999999 412.777344 290.7070309999999 412.97265600000003 294.01562499999994 413.12890600000003 C 301.1132809999999 408.949219 307.9726559999999 404.37890600000003 314.55859399999997 399.4375 C 305.66796899999997 399.644531 295.832031 399.363281 284.863281 398.558594 z M 284.863281 398.558594" stroke-linecap="round" />
</g>
		<g transform="matrix(1.33 0 0 1.33 106.33 86.63)"  >
<path style="stroke: none; stroke-width: 1; stroke-dasharray: none; stroke-linecap: butt; stroke-dashoffset: 0; stroke-linejoin: miter; stroke-miterlimit: 4; fill: rgb(22,138,165); fill-rule: nonzero; opacity: 1;" vector-effect="non-scaling-stroke"  transform=" translate(-299.03, -286.97)" d="M 385.699219 257.328125 C 358.5 270.71484399999997 318.55468800000006 284.47265600000003 271.027344 294.179688 C 251.32812500000003 298.226562 231.43359400000003 301.27734399999997 211.42968800000003 303.32421899999997 C 214.24218800000003 307.597656 216.79687500000003 312.03906199999994 219.07421900000003 316.62109399999997 C 236.67578100000003 314.644531 255.07421900000003 311.71874999999994 273.81640600000003 307.894531 C 312.636719 300.421875 350.480469 288.550781 386.61718800000006 272.519531 C 386.65625000000006 267.441406 386.35156200000006 262.367188 385.699219 257.328125 z M 385.699219 257.328125" stroke-linecap="round" />
</g>
		<g transform="matrix(1.33 0 0 1.33 103.3 -111.46)"  >
<path style="stroke: none; stroke-width: 1; stroke-dasharray: none; stroke-linecap: butt; stroke-dashoffset: 0; stroke-linejoin: miter; stroke-miterlimit: 4; fill: rgb(22,138,165); fill-rule: nonzero; opacity: 1;" vector-effect="non-scaling-stroke"  transform=" translate(-296.75, -138.41)" d="M 239.566406 152.398438 C 236.394531 152.398438 234.449219 152.367188 234 152.355469 C 230.136719 152.28125 227.0625 149.089844 227.136719 145.222656 C 227.148438 143.359375 227.914062 141.582031 229.257812 140.289062 C 230.597656 139 232.40625 138.304688 234.269531 138.359375 C 234.972656 138.359375 306.54296899999997 139.558594 357.539062 124.660156 C 361.21875 123.664062 365.01953100000003 125.796875 366.089844 129.453125 C 367.15625 133.113281 365.101562 136.957031 361.464844 138.097656 C 316.261719 151.300781 257.78125 152.398438 239.56640600000003 152.398438 z M 239.566406 152.398438" stroke-linecap="round" />
</g>
		<g transform="matrix(1.33 0 0 1.33 -50.3 -107.26)"  >
<path style="stroke: none; stroke-width: 1; stroke-dasharray: none; stroke-linecap: butt; stroke-dashoffset: 0; stroke-linejoin: miter; stroke-miterlimit: 4; fill: rgb(22,138,165); fill-rule: nonzero; opacity: 1;" vector-effect="non-scaling-stroke"  transform=" translate(-181.56, -141.55)" d="M 196.859375 150.648438 C 196.597656 150.648438 196.339844 150.632812 196.078125 150.605469 C 177.761719 148.570312 165.519531 146.433594 165.007812 146.34375 C 161.230469 145.644531 158.722656 142.03125 159.386719 138.25 C 160.050781 134.464844 163.640625 131.925781 167.433594 132.554688 C 167.550781 132.574219 179.785156 134.710938 197.621094 136.691406 C 201.304688 137.105469 204.027344 140.328125 203.824219 144.03125 C 203.625 147.734375 200.566406 150.636719 196.855469 150.648438 z M 196.859375 150.648438" stroke-linecap="round" />
</g>
		<g transform="matrix(1.33 0 0 1.33 104 143.57)"  >
<path style="stroke: none; stroke-width: 1; stroke-dasharray: none; stroke-linecap: butt; stroke-dashoffset: 0; stroke-linejoin: miter; stroke-miterlimit: 4; fill: rgb(22,138,165); fill-rule: nonzero; opacity: 1;" vector-effect="non-scaling-stroke"  transform=" translate(-297.28, -329.68)" d="M 255.101562 346.238281 C 251.332031 346.25 248.234375 343.27734399999997 248.085938 339.515625 C 247.9375 335.75 250.796875 332.542969 254.550781 332.261719 C 310.617188 327.8125 335.80078100000003 314.15625 336.046875 314.01953100000003 C 339.421875 312.12890600000003 343.6875 313.32812500000006 345.578125 316.699219 C 347.472656 320.070312 346.273438 324.339844 342.898438 326.230469 C 341.800781 326.851562 315.234375 341.49218800000006 255.660156 346.230469 C 255.472656 346.234375 255.300781 346.23828100000003 255.101562 346.23828100000003 z M 255.101562 346.238281" stroke-linecap="round" />
</g>
		<g transform="matrix(1.33 0 0 1.33 72.24 19.99)"  >
<path style="stroke: none; stroke-width: 1; stroke-dasharray: none; stroke-linecap: butt; stroke-dashoffset: 0; stroke-linejoin: miter; stroke-miterlimit: 4; fill: rgb(217,236,242); fill-rule: nonzero; opacity: 1;" vector-effect="non-scaling-stroke"  transform=" translate(-273.46, -236.99)" d="M 251.566406 258.890625 L 250.136719 251.210938 C 248.636719 243.167969 250.503906 234.867188 255.292969 228.234375 C 260.085938 221.605469 267.38671899999997 217.230469 275.492188 216.128906 L 297.285156 213.167969 L 294.32421899999997 234.960938 C 293.222656 243.066406 288.847656 250.367188 282.21484399999997 255.15625 C 275.585938 259.949219 267.28125 261.8125 259.238281 260.316406 z M 251.566406 258.890625" stroke-linecap="round" />
</g>
		<g transform="matrix(1.33 0 0 1.33 47.48 44.79)"  >
<path style="stroke: none; stroke-width: 1; stroke-dasharray: none; stroke-linecap: butt; stroke-dashoffset: 0; stroke-linejoin: miter; stroke-miterlimit: 4; fill: rgb(189,217,229); fill-rule: nonzero; opacity: 1;" vector-effect="non-scaling-stroke"  transform=" translate(-254.89, -255.59)" d="M 242.898438 274.578125 C 240.070312 274.578125 237.519531 272.875 236.4375 270.257812 C 235.351562 267.64453100000003 235.953125 264.632812 237.953125 262.632812 L 261.93359399999997 238.652344 C 264.66406199999994 235.917969 269.097656 235.917969 271.832031 238.652344 C 274.566406 241.386719 274.566406 245.816406 271.832031 248.550781 L 247.85156199999997 272.53125 C 246.53906199999997 273.847656 244.75781199999997 274.582031 242.89843799999997 274.578125 z M 242.898438 274.578125" stroke-linecap="round" />
</g>
		<g transform="matrix(1.33 0 0 1.33 -126.51 197.72)"  >
<path style="stroke: none; stroke-width: 1; stroke-dasharray: none; stroke-linecap: butt; stroke-dashoffset: 0; stroke-linejoin: miter; stroke-miterlimit: 4; fill: rgb(38,163,185); fill-rule: nonzero; opacity: 1;" vector-effect="non-scaling-stroke"  transform=" translate(-124.39, -370.29)" d="M 152.769531 384.214844 L 145.804688 387.75390600000003 C 138.511719 391.45312500000006 130.019531 392.00390600000003 122.3125 389.277344 C 114.601562 386.546875 108.347656 380.78125 105.003906 373.31640600000003 L 96.019531 353.23828100000003 L 117.765625 349.933594 C 125.851562 348.703125 134.089844 350.84375 140.554688 355.851562 C 147.023438 360.859375 151.152344 368.30078100000003 151.984375 376.44140600000003 z M 152.769531 384.214844" stroke-linecap="round" />
</g>
		<g transform="matrix(1.33 0 0 1.33 -94.12 213.32)"  >
<path style="stroke: none; stroke-width: 1; stroke-dasharray: none; stroke-linecap: butt; stroke-dashoffset: 0; stroke-linejoin: miter; stroke-miterlimit: 4; fill: rgb(22,138,165); fill-rule: nonzero; opacity: 1;" vector-effect="non-scaling-stroke"  transform=" translate(-148.69, -381.99)" d="M 163.546875 397.105469 C 162.378906 397.105469 161.226562 396.808594 160.199219 396.246094 L 130.433594 380 C 127.066406 378.132812 125.835938 373.902344 127.679688 370.523438 C 129.523438 367.144531 133.75 365.890625 137.140625 367.710938 L 166.902344 383.957031 C 169.71875 385.488281 171.132812 388.734375 170.339844 391.835938 C 169.546875 394.941406 166.746094 397.109375 163.542969 397.10546899999997 z M 163.546875 397.105469" stroke-linecap="round" />
</g>
		<g transform="matrix(1.33 0 0 1.33 -230.9 31.88)"  >
<path style="stroke: none; stroke-width: 1; stroke-dasharray: none; stroke-linecap: butt; stroke-dashoffset: 0; stroke-linejoin: miter; stroke-miterlimit: 4; fill: rgb(38,163,185); fill-rule: nonzero; opacity: 1;" vector-effect="non-scaling-stroke"  transform=" translate(-46.11, -245.91)" d="M 78.050781 241.445312 L 74.675781 248.488281 C 71.140625 255.863281 64.734375 261.46875 56.953125 263.996094 C 49.171875 266.51953100000003 40.699219 265.746094 33.503906 261.851562 L 14.164062000000001 251.382812 L 29.410156 235.53125 C 35.082031 229.636719 42.921875 226.324219 51.105469 226.367188 C 59.285156 226.40625 67.089844 229.800781 72.699219 235.757812 z M 78.050781 241.445312" stroke-linecap="round" />
</g>
		<g transform="matrix(1.33 0 0 1.33 103.3 -123.57)"  >
<path style="stroke: none; stroke-width: 1; stroke-dasharray: none; stroke-linecap: butt; stroke-dashoffset: 0; stroke-linejoin: miter; stroke-miterlimit: 4; fill: rgb(217,236,242); fill-rule: nonzero; opacity: 1;" vector-effect="non-scaling-stroke"  transform=" translate(-296.75, -129.32)" d="M 239.566406 143.316406 C 236.394531 143.316406 234.449219 143.285156 234 143.273438 C 230.136719 143.199219 227.0625 140.003906 227.136719 136.140625 C 227.148438 134.277344 227.914062 132.5 229.257812 131.207031 C 230.597656 129.914062 232.40625 129.21875 234.269531 129.277344 C 234.972656 129.277344 306.54296899999997 130.476562 357.539062 115.574219 C 361.21875 114.578125 365.01953100000003 116.710938 366.089844 120.371094 C 367.15625 124.03125 365.101562 127.871094 361.464844 129.011719 C 316.261719 142.214844 257.78125 143.316406 239.56640600000003 143.316406 z M 239.566406 143.316406" stroke-linecap="round" />
</g>
		<g transform="matrix(1.33 0 0 1.33 -50.3 -119.38)"  >
<path style="stroke: none; stroke-width: 1; stroke-dasharray: none; stroke-linecap: butt; stroke-dashoffset: 0; stroke-linejoin: miter; stroke-miterlimit: 4; fill: rgb(217,236,242); fill-rule: nonzero; opacity: 1;" vector-effect="non-scaling-stroke"  transform=" translate(-181.56, -132.47)" d="M 196.859375 141.558594 C 196.597656 141.558594 196.339844 141.546875 196.078125 141.515625 C 177.761719 139.484375 165.519531 137.34375 165.007812 137.257812 C 161.230469 136.558594 158.722656 132.945312 159.386719 129.160156 C 160.050781 125.375 163.640625 122.835938 167.433594 123.46875 C 167.550781 123.488281 179.785156 125.625 197.621094 127.605469 C 201.304688 128.019531 204.027344 131.238281 203.824219 134.941406 C 203.625 138.648438 200.566406 141.550781 196.855469 141.558594 z M 196.859375 141.558594" stroke-linecap="round" />
</g>
		<g transform="matrix(1.33 0 0 1.33 -2.78 -85.51)"  >
<path style="stroke: none; stroke-width: 1; stroke-dasharray: none; stroke-linecap: butt; stroke-dashoffset: 0; stroke-linejoin: miter; stroke-miterlimit: 4; fill: rgb(1,98,167); fill-rule: nonzero; opacity: 1;" vector-effect="non-scaling-stroke"  transform=" translate(-217.2, -157.87)" d="M 229.230469 192.34375 C 118.355469 192.34375 0.5 170.640625 0.5 130.398438 C 0.5 126.535156 3.632812 123.398438 7.5 123.398438 C 11.367188 123.398438 14.5 126.535156 14.5 130.398438 C 14.5 150.398438 96.183594 178.328125 229.214844 178.328125 C 360.734375 178.328125 419.890625 150.300781 419.890625 130.398438 C 419.890625 126.535156 423.027344 123.398438 426.890625 123.398438 C 430.757812 123.398438 433.890625 126.535156 433.890625 130.398438 C 433.910156 168.035156 353.570312 192.34375 229.230469 192.34375 z M 229.230469 192.34375" stroke-linecap="round" />
</g>
		<g transform="matrix(1.33 0 0 1.33 59.19 37.91)"  >
<path style="stroke: none; stroke-width: 1; stroke-dasharray: none; stroke-linecap: butt; stroke-dashoffset: 0; stroke-linejoin: miter; stroke-miterlimit: 4; fill: rgb(217,236,242); fill-rule: nonzero; opacity: 1;" vector-effect="non-scaling-stroke"  transform=" translate(-263.67, -250.44)" d="M 168.988281 310.5625 C 162.816406 310.5625 156.894531 310.398438 151.214844 310.066406 C 113.414062 307.85546899999997 92.625 298.769531 89.410156 283.054688 C 88.691406 279.29296899999997 91.132812 275.65234399999997 94.886719 274.882812 C 98.640625 274.117188 102.3125 276.511719 103.128906 280.257812 C 104.367188 286.31640600000003 117.929688 294.09765600000003 152.035156 296.09375 C 184.707031 298.007812 226.972656 294.09375 271.023438 285.09765600000003 C 353.04296899999997 268.33593800000006 412.578125 239.52734400000003 422.757812 221.35546900000003 C 424.64453100000003 217.98437500000003 424.03515600000003 216.31640600000003 423.835938 215.75781200000003 C 419.3125 203.29687500000003 397.070312 204.32031200000003 396.84375 204.33984400000003 C 393.011719 204.53906200000003 389.734375 201.61328100000003 389.496094 197.78515600000003 C 389.257812 193.95703100000003 392.14453100000003 190.64843800000003 395.97265600000003 190.36718800000003 C 397.31250000000006 190.28906200000003 428.859375 188.57812500000003 436.99218800000006 210.97656200000003 C 438.94140600000003 216.72265600000003 438.19531200000006 223.03906200000003 434.96875000000006 228.17578100000003 C 420.93750000000006 253.25781200000003 354.67187500000006 282.292969 273.82031200000006 298.80078100000003 C 239.34375000000006 306.136719 204.23046900000006 310.078125 168.98828100000006 310.5625 z M 168.988281 310.5625" stroke-linecap="round" />
</g>
		<g transform="matrix(1.33 0 0 1.33 98.61 212.65)"  >
<path style="stroke: none; stroke-width: 1; stroke-dasharray: none; stroke-linecap: butt; stroke-dashoffset: 0; stroke-linejoin: miter; stroke-miterlimit: 4; fill: rgb(1,98,167); fill-rule: nonzero; opacity: 1;" vector-effect="non-scaling-stroke"  transform=" translate(-293.24, -381.49)" d="M 308.832031 404.429688 C 301.097656 404.429688 292.765625 404.097656 283.835938 403.43359399999997 C 253.359375 401.18749999999994 201.339844 393.49609399999997 195.351562 367.15234399999997 C 194.773438 364.70312499999994 195.554688 362.13671899999997 197.394531 360.42187499999994 C 199.238281 358.71093799999994 201.855469 358.11718799999994 204.253906 358.86718799999994 C 206.652344 359.61718799999994 208.46875 361.59374999999994 209.003906 364.0507809999999 C 211.285156 374.0937499999999 235.628906 385.8476559999999 284.859375 389.4726559999999 C 338.734375 393.4257809999999 366.60546899999997 385.4257809999999 378.05859399999997 362.6718749999999 C 379.79687499999994 359.2187499999999 384.00781199999994 357.8281249999999 387.46093799999994 359.5624999999999 C 390.91406199999994 361.30078099999986 392.30468799999994 365.5117189999999 390.5664059999999 368.96484399999986 C 378.2968749999999 393.33984399999986 353.3007809999999 404.4296879999998 308.8320309999999 404.4296879999998 z M 308.832031 404.429688" stroke-linecap="round" />
</g>
		<g transform="matrix(1.33 0 0 1.33 103.96 131.48)"  >
<path style="stroke: none; stroke-width: 1; stroke-dasharray: none; stroke-linecap: butt; stroke-dashoffset: 0; stroke-linejoin: miter; stroke-miterlimit: 4; fill: rgb(1,98,167); fill-rule: nonzero; opacity: 1;" vector-effect="non-scaling-stroke"  transform=" translate(-297.25, -320.61)" d="M 255.101562 337.15625 C 251.332031 337.167969 248.234375 334.195312 248.085938 330.429688 C 247.9375 326.66796899999997 250.796875 323.460938 254.550781 323.175781 C 310.617188 318.72656199999994 335.80078100000003 305.07031199999994 336.046875 304.9375 C 339.414062 303.085938 343.644531 304.292969 345.523438 307.644531 C 347.40625 310.99609399999997 346.234375 315.234375 342.898438 317.144531 C 341.800781 317.765625 315.234375 332.40234399999997 255.660156 337.144531 C 255.472656 337.148438 255.300781 337.15625 255.101562 337.15625 z M 255.101562 337.15625" stroke-linecap="round" />
</g>
</g>
</g>
<g transform="matrix(3.61 0 0 3.61 624 600.86)" style="filter: url(#SVGID_1457);" id="f42727bd-bc40-4e3b-832d-5e77afda711c"  >
<filter id="SVGID_1457" y="-46%" height="192%" x="-54%" width="208%" >
	<feGaussianBlur in="SourceAlpha" stdDeviation="7.5"></feGaussianBlur>
	<feOffset dx="0" dy="0" result="oBlur" ></feOffset>
	<feFlood flood-color="rgb(255,255,0)" flood-opacity="1"/>
	<feComposite in2="oBlur" operator="in" />
	<feMerge>
		<feMergeNode></feMergeNode>
		<feMergeNode in="SourceGraphic"></feMergeNode>
	</feMerge>
</filter>
		<rect opacity="0" fill="rgb(0,0,0)" x="-22.39" y="-28.81" width="44.77" height="57.63"></rect>
		<text xml:space="preserve" font-family="Lato" font-size="51" font-style="normal" font-weight="400" style="stroke: none; stroke-width: 1; stroke-dasharray: none; stroke-linecap: butt; stroke-dashoffset: 0; stroke-linejoin: miter; stroke-miterlimit: 4; fill: rgb(153,204,255); fill-rule: nonzero; opacity: 1; white-space: pre;" ><tspan x="-14.82" y="16.02" >E</tspan></text>
</g>
</svg>