<svg id="Capa_1" enable-background="new 0 0 504.5 504.5" height="512" viewBox="0 0 504.5 504.5" width="512" xmlns="http://www.w3.org/2000/svg"><g><path d="m0 372.25c0 4.142 3.358 7.5 7.5 7.5h105v-15h-105c-4.142 0-7.5 3.358-7.5 7.5z" fill="#ffd06a"/><path d="m7.5 124.75c-4.142 0-7.5 3.358-7.5 7.5s3.358 7.5 7.5 7.5h105v-15z" fill="#ffd06a"/><path d="m0 312.25c0 4.142 3.358 7.5 7.5 7.5h105v-15h-105c-4.142 0-7.5 3.358-7.5 7.5z" fill="#ffd06a"/><path d="m0 192.25c0 4.142 3.358 7.5 7.5 7.5h105v-15h-105c-4.142 0-7.5 3.358-7.5 7.5z" fill="#ffd06a"/><path d="m497.391 216.734-39.417-12.23v95.493l39.417-12.23c2.81-.872 4.847-3.306 5.225-6.223 1.242-9.589 1.885-19.366 1.885-29.293s-.643-19.704-1.885-29.293c-.378-2.919-2.415-5.352-5.225-6.224z" fill="#7d8fe5"/><path d="m458.393 122.585c1.37-2.604 1.09-5.765-.706-8.095-5.902-7.658-12.361-15.026-19.38-22.046-7.02-7.019-14.387-13.478-22.046-19.38-2.33-1.796-5.492-2.077-8.095-.706l-36.52 19.224 67.524 67.524z" fill="#7d8fe5"/><path d="m230.754 431.724 47.746 46.526c9.927 0 19.704-.643 29.293-1.885 2.918-.378 5.352-2.415 6.223-5.225l12.23-39.417h-95.492z" fill="#95b0ed"/><path d="m307.793 28.135c-9.589-1.242-19.366-1.885-29.293-1.885l-47.746 46.526h95.493l-12.23-39.417c-.873-2.81-3.306-4.847-6.224-5.224z" fill="#95b0ed"/><path d="m371.645 412.919 36.52 19.224c2.604 1.37 5.765 1.09 8.095-.706 7.658-5.902 15.026-12.361 22.046-19.38 7.019-7.02 13.478-14.387 19.38-22.046 1.796-2.33 2.077-5.492.706-8.095l-19.224-36.52z" fill="#7d8fe5"/><path d="m278.5 56.25v392c108.248 0 196-87.752 196-196s-87.752-196-196-196z" fill="#95b0ed"/><path d="m52.5 252.25c0 124.816 101.184 226 226 226v-452c-124.816 0-226 101.184-226 226z" fill="#95b0ed"/><path d="m278.5 418.25v-332c91.679 0 166 74.321 166 166s-74.321 166-166 166z" fill="#c4f3ff"/><path d="m414.5 252.25c0 91.679-60.889 166-136 166-91.679 0-166-74.321-166-166s74.321-166 166-166c75.111 0 136 74.321 136 166z" fill="#fff"/><path d="m142.5 244.75c-4.142 0-7.5 3.358-7.5 7.5s3.358 7.5 7.5 7.5h136v-15z" fill="#4e4cd3"/><path d="m263.5 252.25v-121c0-8.284 6.716-15 15-15s15 6.716 15 15v121z" fill="#7d8fe5"/><path d="m278.5 237.25h91c8.284 0 15 6.716 15 15s-6.716 15-15 15h-91z" fill="#666ddc"/><circle cx="278.5" cy="252.25" fill="#95b0ed" r="30"/><circle cx="278.5" cy="252.25" fill="#4e4cd3" r="7.5"/><g fill="#4a36b5"><circle cx="278.5" cy="388.25" r="7.5"/><circle cx="210.5" cy="370.029" r="7.5"/><circle cx="346.5" cy="134.471" r="7.5"/><circle cx="396.279" cy="184.25" r="7.5"/><circle cx="160.721" cy="320.25" r="7.5"/><circle cx="414.5" cy="252.25" r="7.5"/><circle cx="396.279" cy="320.25" r="7.5"/><circle cx="160.721" cy="184.25" r="7.5"/><circle cx="346.5" cy="370.029" r="7.5"/><circle cx="210.5" cy="134.471" r="7.5"/></g><path d="m112.5 259.75h-105c-4.142 0-7.5-3.358-7.5-7.5s3.358-7.5 7.5-7.5h105c4.142 0 7.5 3.358 7.5 7.5s-3.358 7.5-7.5 7.5z" fill="#ffd06a"/></g></svg>