<?xml version="1.0" encoding="iso-8859-1"?>
<!-- Generator: Adobe Illustrator 21.0.0, SVG Export Plug-In . SVG Version: 6.00 Build 0)  -->
<svg version="1.1" id="Capa_1" xmlns="http://www.w3.org/2000/svg" xmlns:xlink="http://www.w3.org/1999/xlink" x="0px" y="0px"
	 viewBox="0 0 512 512" style="enable-background:new 0 0 512 512;" xml:space="preserve">
<g>
	<g>
		<polygon points="0,56.104 0,223.94 15.075,223.94 15.075,71.179 312.104,71.179 312.104,56.104 		"/>
	</g>
</g>
<g>
	<g>
		<polygon points="336.15,56.104 336.15,71.179 496.925,71.179 496.925,440.821 15.075,440.821 15.075,247.985 0,247.985 0,455.896 
			512,455.896 512,56.104 		"/>
	</g>
</g>
<g>
	<g>
		<polygon points="464.865,384.239 464.865,408.761 440.343,408.761 440.343,423.836 479.94,423.836 479.94,384.239 		"/>
	</g>
</g>
<g>
	<g>
		<polygon points="32.06,88.165 32.06,423.836 159.821,423.836 159.821,408.761 47.135,408.761 47.135,103.24 152.284,103.24 
			152.284,138.898 168.314,154.928 168.314,171.817 145.474,187.044 135.167,217.961 162.506,245.301 173.166,234.64 
			152.415,213.89 158.139,196.717 183.389,179.884 183.389,148.684 167.359,132.654 167.359,103.24 248.462,103.24 248.462,132.029 
			281.984,152.142 260.198,166.664 284.206,190.672 321.526,200.003 348.345,182.122 339.983,169.579 318.713,183.76 
			291.913,177.059 283.861,169.008 310.166,151.471 263.538,123.494 263.538,103.24 464.865,103.24 464.865,153.752 
			450.641,144.269 427.67,144.269 411.205,177.197 380.391,183.361 374.95,172.479 361.467,179.222 372.057,200.401 
			421.392,190.533 436.987,159.344 446.076,159.344 464.865,171.87 464.865,341.042 407.806,398.101 407.806,351.701 
			432.329,351.701 432.329,336.626 392.731,336.626 392.731,408.761 332.402,408.761 307.68,367.557 276.067,375.46 
			262.195,347.714 249.141,334.661 256.884,319.176 218.004,270.579 182.989,288.085 160.947,282.576 167.134,257.828 
			152.509,254.171 142.666,293.544 184.743,304.064 213.846,289.512 239.087,321.063 230.798,337.637 249.805,356.644 
			267.992,393.018 300.499,384.892 314.821,408.761 183.866,408.761 183.866,423.836 403.39,423.836 479.94,347.286 479.94,88.165 
					"/>
	</g>
</g>
<g>
	<g>
		<polygon points="344.164,285.415 328.135,301.445 312.104,285.415 290.744,306.775 301.404,317.435 312.104,306.734 
			328.135,322.764 344.164,306.734 354.864,317.435 365.523,306.775 		"/>
	</g>
</g>
<g>
	<g>
		<polygon points="400.269,221.295 384.239,237.326 368.209,221.295 346.849,242.655 357.509,253.316 368.209,242.614 
			384.239,258.644 400.269,242.614 410.968,253.316 421.628,242.655 		"/>
	</g>
</g>
<g>
	<g>
		<polygon points="264.015,205.266 247.985,221.295 231.955,205.266 210.596,226.624 221.255,237.286 231.955,226.585 
			247.985,242.614 264.015,226.585 274.715,237.286 285.375,226.624 		"/>
	</g>
</g>
<g>
	<g>
		<rect x="384.237" y="296.549" width="16.03" height="15.075"/>
	</g>
</g>
<g>
	<g>
		<rect x="416.297" y="296.549" width="16.03" height="15.075"/>
	</g>
</g>
<g>
	<g>
		<rect x="432.327" y="280.519" width="16.03" height="15.075"/>
	</g>
</g>
<g>
	<g>
		<rect x="312.107" y="240.449" width="16.03" height="15.075"/>
	</g>
</g>
<g>
	<g>
		<rect x="296.077" y="256.479" width="16.03" height="15.075"/>
	</g>
</g>
<g>
	<g>
		<rect x="207.907" y="136.25" width="16.03" height="15.075"/>
	</g>
</g>
<g>
	<g>
		<rect x="207.907" y="168.31" width="16.03" height="15.075"/>
	</g>
</g>
<g>
	<g>
		<rect x="328.137" y="344.639" width="16.03" height="15.075"/>
	</g>
</g>
<g>
	<g>
		<rect x="344.167" y="360.669" width="16.03" height="15.075"/>
	</g>
</g>
<g>
	<g>
		<polygon points="64.119,120.224 64.119,199.895 79.194,199.895 79.194,135.299 103.716,135.299 103.716,120.224 		"/>
	</g>
</g>
<g>
	<g>
		<rect x="64.119" y="215.927" width="15.075" height="16.029"/>
	</g>
</g>
<g>
	<g>
		<rect x="64.119" y="247.987" width="15.075" height="16.03"/>
	</g>
</g>
<g>
</g>
<g>
</g>
<g>
</g>
<g>
</g>
<g>
</g>
<g>
</g>
<g>
</g>
<g>
</g>
<g>
</g>
<g>
</g>
<g>
</g>
<g>
</g>
<g>
</g>
<g>
</g>
<g>
</g>
</svg>
