<svg id="Layer_1" height="512" viewBox="0 0 512 512" width="512" xmlns="http://www.w3.org/2000/svg" data-name="Layer 1"><path d="m465.821 491.32-340.149-73.42a39.717 39.717 0 0 1 -30.467-30.564l-72.468-341.096 11.738-2.494 72.468 341.1a27.715 27.715 0 0 0 21.257 21.324l340.15 73.42z" fill="#b0b5ca"/><path d="m399.59 160.45-47.55-46.4a10.924 10.924 0 0 0 -15.33.04l-21.2 20.89c-.11.1-.21.21-.31.32a10.942 10.942 0 0 0 .34 15.3l47.41 46.41a10.941 10.941 0 0 0 15.31-.01l.1-.1 21.25-20.81a10.2 10.2 0 0 0 1.54-1.89 10.931 10.931 0 0 0 -1.56-13.75z" fill="#fcca3d"/><path d="m414.54 178.59c48.9 15.16 82.34 71.83 80.38 122.27-.05 1.13-.11 2.27-.19 3.41a111.007 111.007 0 0 1 -5.64 28.1c-12.35 36.28-49.48 146.4-3.01 162.3a.155.155 0 0 1 -.08.3 48.139 48.139 0 0 1 -19.68-8.8c-39.01-29.69-24.64-116.48-13.81-144.42a87.781 87.781 0 0 0 3.71-12.13 85.894 85.894 0 0 0 1.88-12.44c.11-1.36.17-3.58.12-4.94-2.2-54.15-38.93-95.82-79.69-115.17l-.17-.17 21.25-20.81a10.2 10.2 0 0 0 1.54-1.89h.01z" fill="#c79a83"/><path d="m27.75 46.65a45.641 45.641 0 0 1 -10.72-18.14.624.624 0 0 1 1.14-.49c21.79 38.4 127.08 5.56 162.68-5.65a116.023 116.023 0 0 1 28.62-5.18c1.16-.06 2.32-.1 3.47-.13 51.25-1.24 108.35 32.45 123.08 80.8l4.33 13.71.04.12a11.034 11.034 0 0 0 -3.68 2.4l-21.2 20.89c-.11.1-.21.21-.31.32-15.3-43.63-54.21-79.26-114.32-82.27-1.38-.07-3.64-.04-5.02.05a90.124 90.124 0 0 0 -12.66 1.68 91.824 91.824 0 0 0 -12.37 3.49c-27.5 9.91-110.61 22.31-143.08-11.6z" fill="#c79a83"/><path d="m486.08 494.67c-16.52-5.652-22.468-23.217-22.727-45.133-16.65-38.253-5.6-99.24 3.155-121.814a87.781 87.781 0 0 0 3.71-12.13 85.894 85.894 0 0 0 1.88-12.44c.11-1.36.17-3.58.12-4.94-2.2-54.15-38.93-95.82-79.69-115.17l-.009-.009-14.159 13.866.17.17c40.76 19.35 77.49 61.02 79.69 115.17.05 1.36-.01 3.58-.12 4.94a85.894 85.894 0 0 1 -1.88 12.44 87.781 87.781 0 0 1 -3.71 12.13c-10.83 27.94-25.2 114.73 13.81 144.42a48.139 48.139 0 0 0 19.68 8.8.155.155 0 0 0 .08-.3z" fill="#a57e6d"/><path d="m214.878 39c-1.38-.07-3.64-.04-5.02.05a90.124 90.124 0 0 0 -12.66 1.68 91.824 91.824 0 0 0 -12.37 3.49c-22.84 8.234-84.037 18.18-122.728 1.886-20.132-.406-36.669-5.291-43.93-18.086a.624.624 0 0 0 -1.14.49 45.641 45.641 0 0 0 10.72 18.14c32.47 33.91 115.58 21.51 143.08 11.6a91.824 91.824 0 0 1 12.37-3.49 90.124 90.124 0 0 1 12.66-1.68c1.38-.09 3.64-.12 5.02-.05 60.11 3.01 99.02 38.64 114.32 82.27.1-.11.2-.22.31-.32l12.8-12.615a10.986 10.986 0 0 1 .886-1.092c-15.296-43.63-54.208-79.26-114.318-82.273z" fill="#a57e6d"/><path d="m392.358 182.873 8.642-8.459-8.639 8.459-.1.1a10.941 10.941 0 0 1 -15.31.01l-47.41-46.41a10.939 10.939 0 0 1 -1.226-14.208l-12.8 12.615c-.11.1-.21.21-.31.32a10.942 10.942 0 0 0 .34 15.3l47.41 46.41a10.941 10.941 0 0 0 15.31-.01l.1-.1 14.159-13.866z" fill="#ddb143"/><path d="m421.476 78.05-255.699 253.14 15.085 13.055.04-.01 255.154-252.585z" fill="#ddecf5"/><path d="m468 43.83-77.81 34.79a1.832 1.832 0 0 0 .35 3.46l31.42 7.09a2.626 2.626 0 0 1 1.91 1.82l9.09 32.46a1.882 1.882 0 0 0 3.52.24l34.02-77.46a1.852 1.852 0 0 0 -2.5-2.4z" fill="#fcca3d"/><path d="m184.8 363.02-3.77-21.21a12.424 12.424 0 0 0 -11.1-10.18l-21.06-1.91a5.9 5.9 0 0 0 -4.38 1.69l-11.67 11.59.17.17 35.9 37.58 14.11-13.21a5.692 5.692 0 0 0 1.8-4.52z" fill="#c79a83"/><path d="m132.99 343.17 35.9 37.58-12.61 11.8-35.3-37.01-.4-.4 12.24-12.14z" fill="#fcca3d"/><path d="m120.98 355.54 35.3 37.01-21.8 20.39a5.871 5.871 0 0 1 -2.51 1.39l-5.25-1.13a5.671 5.671 0 0 1 -2.02-3.49l-2.92-17.5a5.777 5.777 0 0 0 -4.25-4.62l-13.69-3.61a5.754 5.754 0 0 1 -4.27-4.66 5.641 5.641 0 0 1 1.63-4.94l19.38-19.24z" fill="#c79a83"/><g fill="#d4e1f4"><path d="m204.721 268.136a6 6 0 0 1 -4.242-10.242l13.429-13.43a6 6 0 0 1 8.486 8.484l-13.43 13.43a5.981 5.981 0 0 1 -4.243 1.758z"/><path d="m233.366 238.634a6 6 0 0 1 -4.243-10.242l43.568-43.568a6 6 0 0 1 8.485 8.485l-43.568 43.567a5.979 5.979 0 0 1 -4.242 1.758z"/><path d="m292.763 179.237a6 6 0 0 1 -4.243-10.237l3.4-3.4a6 6 0 0 1 8.486 8.484l-3.4 3.4a5.983 5.983 0 0 1 -4.243 1.753z"/></g></svg>