<?xml version="1.0" encoding="UTF-8" standalone="no" ?>
<!DOCTYPE svg PUBLIC "-//W3C//DTD SVG 1.1//EN" "http://www.w3.org/Graphics/SVG/1.1/DTD/svg11.dtd">
<svg xmlns="http://www.w3.org/2000/svg" xmlns:xlink="http://www.w3.org/1999/xlink" version="1.1" width="720" height="720" viewBox="0 0 720 720" xml:space="preserve">
<desc>Created with Fabric.js 4.2.0</desc>
<defs>
</defs>
<rect x="0" y="0" width="100%" height="100%" fill="transparent"></rect>
<g transform="matrix(1 0 0 1 360 360)" id="1b611884-6b14-41d1-85aa-cb9b3af04acb"  >
<rect style="stroke: none; stroke-width: 1; stroke-dasharray: none; stroke-linecap: butt; stroke-dashoffset: 0; stroke-linejoin: miter; stroke-miterlimit: 4; fill: rgb(255,255,255); fill-opacity: 0; fill-rule: nonzero; opacity: 1;" vector-effect="non-scaling-stroke"  x="-360" y="-360" rx="0" ry="0" width="720" height="720" />
</g>
<g transform="matrix(Infinity NaN NaN Infinity 0 0)" id="099a0cde-e345-4787-9a8d-dbca54d07a07"  >
</g>
<g transform="matrix(0 -1.44 1.44 0 357.6 357.6)"  >
<g style="" vector-effect="non-scaling-stroke"   >
		<g transform="matrix(1 0 0 1 -10.46 11.53)"  >
<path style="stroke: none; stroke-width: 1; stroke-dasharray: none; stroke-linecap: butt; stroke-dashoffset: 0; stroke-linejoin: miter; stroke-miterlimit: 4; fill: rgb(176,181,202); fill-rule: nonzero; opacity: 1;" vector-effect="non-scaling-stroke"  transform=" translate(-245.54, -267.53)" d="M 465.821 491.32 L 125.67200000000003 417.9 C 110.38435509525664 414.5993419460338 98.4570464741797 402.63405948650063 95.20500000000003 387.33599999999996 L 22.737000000000023 46.23999999999995 L 34.47500000000002 43.74599999999995 L 106.94300000000003 384.846 C 109.21319399169901 395.51874705943777 117.53444994236553 403.8662308008882 128.20000000000002 406.17 L 468.35 479.59000000000003 z" stroke-linecap="round" />
</g>
		<g transform="matrix(1 0 0 1 101.57 -100.47)"  >
<path style="stroke: none; stroke-width: 1; stroke-dasharray: none; stroke-linecap: butt; stroke-dashoffset: 0; stroke-linejoin: miter; stroke-miterlimit: 4; fill: rgb(252,202,61); fill-rule: nonzero; opacity: 1;" vector-effect="non-scaling-stroke"  transform=" translate(-357.57, -155.53)" d="M 399.59 160.45 L 352.03999999999996 114.04999999999998 C 347.7769444324911 109.87362841634148 340.95120316564584 109.89143856967962 336.71 114.09 L 315.51 134.98 C 315.4 135.07999999999998 315.3 135.19 315.2 135.29999999999998 C 311.1348542095447 139.64427298659118 311.2858836877222 146.44059950458063 315.53999999999996 150.6 L 362.94999999999993 197.01 C 367.2061523197708 201.17247390250452 374.0092888978743 201.16803031231635 378.25999999999993 197 L 378.35999999999996 196.9 L 399.60999999999996 176.09 C 400.1970482680657 175.5238339090909 400.71407379198354 174.88930258428266 401.15 174.20000000000002 C 403.96663459994465 169.82902750396215 403.31425410841075 164.07887894076265 399.59 160.45000000000002 z" stroke-linecap="round" />
</g>
		<g transform="matrix(1 0 0 1 180.68 78.59)"  >
<path style="stroke: none; stroke-width: 1; stroke-dasharray: none; stroke-linecap: butt; stroke-dashoffset: 0; stroke-linejoin: miter; stroke-miterlimit: 4; fill: rgb(199,154,131); fill-rule: nonzero; opacity: 1;" vector-effect="non-scaling-stroke"  transform=" translate(-436.68, -334.59)" d="M 414.54 178.59 C 463.44 193.75 496.88 250.42000000000002 494.92 300.86 C 494.87 301.99 494.81 303.13 494.73 304.27000000000004 C 494.07214823516847 313.8410284727449 492.17635126605086 323.286399896895 489.09000000000003 332.37000000000006 C 476.74 368.6500000000001 439.61 478.7700000000001 486.08000000000004 494.6700000000001 C 486.1628427124747 494.6920913899933 486.2120913899933 494.7771572875254 486.19000000000005 494.86000000000007 C 486.1679086100068 494.9428427124747 486.0828427124747 494.99209138999333 486.00000000000006 494.9700000000001 C 478.859095994653 493.56214163978166 472.1303903103711 490.5533708053467 466.32000000000005 486.1700000000001 C 427.31000000000006 456.4800000000001 441.68000000000006 369.69000000000005 452.51000000000005 341.7500000000001 C 454.03756898479895 337.80142571195057 455.277472006573 333.7475109803819 456.22 329.6200000000001 C 457.1499222803651 325.52486559735325 457.77827408708066 321.3670483231291 458.1 317.1800000000001 C 458.21000000000004 315.8200000000001 458.27000000000004 313.60000000000014 458.22 312.2400000000001 C 456.02000000000004 258.09000000000015 419.29 216.42000000000013 378.53000000000003 197.0700000000001 L 378.36 196.90000000000012 L 399.61 176.09000000000012 C 400.19704826806577 175.52383390909102 400.7140737919836 174.88930258428277 401.15000000000003 174.20000000000013 L 401.16 174.20000000000013 z" stroke-linecap="round" />
</g>
		<g transform="matrix(1 0 0 1 -77.31 -179.84)"  >
<path style="stroke: none; stroke-width: 1; stroke-dasharray: none; stroke-linecap: butt; stroke-dashoffset: 0; stroke-linejoin: miter; stroke-miterlimit: 4; fill: rgb(199,154,131); fill-rule: nonzero; opacity: 1;" vector-effect="non-scaling-stroke"  transform=" translate(-178.7, -76.16)" d="M 27.75 46.65 C 22.81071047892285 41.52222930337549 19.139553623317894 35.31002917644696 17.03 28.510000000000005 C 16.936144337931253 28.205326761546843 17.08704094111061 27.87889983936155 17.379933091009953 27.753007599492538 C 17.672825240909294 27.62711535962352 18.01351440667791 27.742246644278545 18.17 28.02 C 39.96 66.42 145.25 33.58 180.85000000000002 22.369999999999997 C 190.13495347188052 19.44967721693715 199.75048702067957 17.70933955855912 209.46999999999997 17.18999999999999 C 210.63000000000002 17.13 211.79000000000002 17.089999999999996 212.94000000000003 17.06 C 264.19000000000005 15.819999999999999 321.29 49.510000000000005 336.02000000000004 97.86 L 340.35 111.57 L 340.39000000000004 111.69 C 339.0148554929194 112.23522945549759 337.76338495284597 113.05140589467592 336.71000000000004 114.09 L 315.51000000000005 134.98000000000002 C 315.40000000000003 135.08 315.30000000000007 135.19000000000003 315.20000000000005 135.3 C 299.90000000000003 91.67000000000002 260.99000000000007 56.040000000000006 200.88000000000005 53.030000000000015 C 199.50000000000006 52.960000000000015 197.24000000000007 52.990000000000016 195.86000000000004 53.08000000000001 C 191.60558228356675 53.33992259052379 187.3749633151589 53.901331742729575 183.20000000000005 54.76000000000002 C 179.00021053527027 55.63297298838227 174.86675409621807 56.799162396004924 170.82999999999996 58.25000000000005 C 143.33000000000004 68.16000000000001 60.22000000000004 80.56000000000002 27.75000000000003 46.65000000000001 z" stroke-linecap="round" />
</g>
		<g transform="matrix(1 0 0 1 176.28 83)"  >
<path style="stroke: none; stroke-width: 1; stroke-dasharray: none; stroke-linecap: butt; stroke-dashoffset: 0; stroke-linejoin: miter; stroke-miterlimit: 4; fill: rgb(165,126,109); fill-rule: nonzero; opacity: 1;" vector-effect="non-scaling-stroke"  transform=" translate(-432.28, -339)" d="M 486.08 494.67 C 469.56 489.01800000000003 463.61199999999997 471.45300000000003 463.353 449.53700000000003 C 446.70300000000003 411.28400000000005 457.753 350.297 466.508 327.72300000000007 C 468.0355689847989 323.7744257119505 469.27547200657295 319.72051098038185 470.21799999999996 315.5930000000001 C 471.14792228036504 311.4978655973532 471.7762740870806 307.34004832312905 472.09799999999996 303.1530000000001 C 472.20799999999997 301.79300000000006 472.268 299.5730000000001 472.21799999999996 298.2130000000001 C 470.018 244.06300000000007 433.28799999999995 202.3930000000001 392.52799999999996 183.04300000000006 L 392.51899999999995 183.03400000000008 L 378.35999999999996 196.9000000000001 L 378.53 197.07000000000008 C 419.28999999999996 216.42000000000007 456.02 258.0900000000001 458.21999999999997 312.24000000000007 C 458.27 313.6000000000001 458.21 315.82000000000005 458.09999999999997 317.18000000000006 C 457.7782740870806 321.36704832312904 457.14992228036505 325.5248655973532 456.21999999999997 329.62000000000006 C 455.27747200657296 333.74751098038183 454.0375689847989 337.8014257119505 452.51 341.75000000000006 C 441.68 369.69000000000005 427.31 456.4800000000001 466.32 486.1700000000001 C 472.13039031037107 490.5533708053467 478.85909599465293 493.56214163978166 486 494.9700000000001 C 486.08284271247464 494.99209138999333 486.16790861000675 494.9428427124747 486.19 494.86000000000007 C 486.21209138999325 494.7771572875254 486.1628427124746 494.6920913899933 486.08 494.6700000000001 z" stroke-linecap="round" />
</g>
		<g transform="matrix(1 0 0 1 -82.9 -174.5)"  >
<path style="stroke: none; stroke-width: 1; stroke-dasharray: none; stroke-linecap: butt; stroke-dashoffset: 0; stroke-linejoin: miter; stroke-miterlimit: 4; fill: rgb(165,126,109); fill-rule: nonzero; opacity: 1;" vector-effect="non-scaling-stroke"  transform=" translate(-173.1, -81.5)" d="M 214.878 39 C 213.498 38.93 211.238 38.96 209.85799999999998 39.05 C 205.60358228356668 39.309922590523776 201.37296331515884 39.87133174272956 197.19799999999998 40.730000000000004 C 192.9982105352702 41.602972988382255 188.864754096218 42.76916239600491 184.8279999999999 44.220000000000034 C 161.98799999999997 52.454 100.79099999999997 62.4 62.09999999999998 46.106 C 41.967999999999975 45.7 25.430999999999983 40.815 18.16999999999998 28.020000000000003 C 18.01351440667789 27.74224664427855 17.672825240909273 27.627115359623524 17.37993309100993 27.75300759949254 C 17.08704094111059 27.878899839361555 16.936144337931232 28.205326761546846 17.02999999999998 28.51 C 19.139553623317873 35.31002917644696 22.81071047892283 41.522229303375504 27.74999999999998 46.650000000000006 C 60.21999999999998 80.56 143.32999999999998 68.16000000000001 170.82999999999998 58.25000000000001 C 174.8667540962181 56.79916239600489 179.00021053527027 55.632972988382235 183.20000000000002 54.759999999999984 C 187.37496331515885 53.90133174272955 191.60558228356666 53.33992259052379 195.85999999999996 53.08000000000001 C 197.23999999999998 52.99 199.49999999999997 52.96000000000001 200.88 53.03000000000001 C 260.99 56.040000000000006 299.9 91.67000000000002 315.2 135.3 C 315.3 135.19 315.4 135.08 315.51 134.98000000000002 L 328.31 122.36500000000002 C 328.5817101501725 121.98245259341975 328.8776495800673 121.6177055759873 329.196 121.27300000000002 C 313.90000000000003 77.64300000000003 274.98800000000006 42.01300000000002 214.87800000000004 39.00000000000003 z" stroke-linecap="round" />
</g>
		<g transform="matrix(1 0 0 1 100.62 -94.75)"  >
<path style="stroke: none; stroke-width: 1; stroke-dasharray: none; stroke-linecap: butt; stroke-dashoffset: 0; stroke-linejoin: miter; stroke-miterlimit: 4; fill: rgb(221,177,67); fill-rule: nonzero; opacity: 1;" vector-effect="non-scaling-stroke"  transform=" translate(-356.63, -161.25)" d="M 392.358 182.873 L 401 174.414 L 392.361 182.873 L 392.26099999999997 182.97299999999998 C 388.0102888978743 187.14103031231633 381.20715231977084 187.1454739025045 376.95099999999996 182.98299999999998 L 329.54099999999994 136.57299999999998 C 325.6771811280919 132.79081839525415 325.1561950946834 126.75315969813526 328.31499999999994 122.36499999999998 L 315.51499999999993 134.98 C 315.4049999999999 135.07999999999998 315.30499999999995 135.19 315.2049999999999 135.29999999999998 C 311.13985420954464 139.64427298659118 311.29088368772216 146.44059950458063 315.5449999999999 150.6 L 362.9549999999999 197.01 C 367.2111523197708 201.17247390250452 374.0142888978743 201.16803031231635 378.26499999999993 197 L 378.36499999999995 196.9 L 392.52399999999994 183.034 z" stroke-linecap="round" />
</g>
		<g transform="matrix(1 0 0 1 44.91 -44.85)"  >
<path style="stroke: none; stroke-width: 1; stroke-dasharray: none; stroke-linecap: butt; stroke-dashoffset: 0; stroke-linejoin: miter; stroke-miterlimit: 4; fill: rgb(221,236,245); fill-rule: nonzero; opacity: 1;" vector-effect="non-scaling-stroke"  transform=" translate(-300.92, -211.15)" d="M 421.476 78.05 L 165.777 331.19 L 180.862 344.245 L 180.902 344.235 L 436.056 91.65 z" stroke-linecap="round" />
</g>
		<g transform="matrix(1 0 0 1 173.88 -171.78)"  >
<path style="stroke: none; stroke-width: 1; stroke-dasharray: none; stroke-linecap: butt; stroke-dashoffset: 0; stroke-linejoin: miter; stroke-miterlimit: 4; fill: rgb(252,202,61); fill-rule: nonzero; opacity: 1;" vector-effect="non-scaling-stroke"  transform=" translate(-429.88, -84.22)" d="M 468 43.83 L 390.19 78.62 C 389.4694469218018 78.94273827764388 389.03671354676027 79.69080562909791 389.11617373591736 80.47632635619334 C 389.1956339250744 81.26184708328879 389.7694112346242 81.90809977011651 390.54 82.08 L 421.96000000000004 89.17 C 422.8773293044415 89.38960544505363 423.606407967288 90.08432961593354 423.87000000000006 90.99 L 432.96000000000004 123.44999999999999 C 433.18323332324996 124.20415978753545 433.85189814257893 124.73997245169848 434.6365813468684 124.79347357926366 C 435.4212645511579 124.84697470682886 436.1564684844154 124.4068803667058 436.48 123.68999999999998 L 470.5 46.22999999999999 C 470.8030881278815 45.52146861425448 470.63574506017164 44.6992955244082 470.0798183513855 44.16560588397347 C 469.52389164259927 43.63191624353875 468.695575640823 43.4982566266783 468 43.82999999999999 z" stroke-linecap="round" />
</g>
		<g transform="matrix(1 0 0 1 -97.19 99.23)"  >
<path style="stroke: none; stroke-width: 1; stroke-dasharray: none; stroke-linecap: butt; stroke-dashoffset: 0; stroke-linejoin: miter; stroke-miterlimit: 4; fill: rgb(199,154,131); fill-rule: nonzero; opacity: 1;" vector-effect="non-scaling-stroke"  transform=" translate(-158.82, -355.23)" d="M 184.8 363.02 L 181.03 341.81 C 180.04300141865227 336.3051116871152 175.49953110434782 332.1382172907531 169.93 331.63 L 148.87 329.71999999999997 C 147.2390819520386 329.65319745148963 145.65336505584548 330.26503798906185 144.49 331.40999999999997 L 132.82000000000002 342.99999999999994 L 132.99 343.16999999999996 L 168.89000000000001 380.74999999999994 L 183 367.53999999999996 C 184.24612201070758 366.37858000937416 184.90657655660252 364.72010526079356 184.8 363.02 z" stroke-linecap="round" />
</g>
		<g transform="matrix(1 0 0 1 -111.27 111.77)"  >
<path style="stroke: none; stroke-width: 1; stroke-dasharray: none; stroke-linecap: butt; stroke-dashoffset: 0; stroke-linejoin: miter; stroke-miterlimit: 4; fill: rgb(252,202,61); fill-rule: nonzero; opacity: 1;" vector-effect="non-scaling-stroke"  transform=" translate(-144.74, -367.78)" d="M 132.99 343.17 L 168.89000000000001 380.75 L 156.28000000000003 392.55 L 120.98000000000003 355.54 L 120.58000000000003 355.14000000000004 L 132.82000000000002 343.00000000000006 z" stroke-linecap="round" />
</g>
		<g transform="matrix(1 0 0 1 -128.11 128.73)"  >
<path style="stroke: none; stroke-width: 1; stroke-dasharray: none; stroke-linecap: butt; stroke-dashoffset: 0; stroke-linejoin: miter; stroke-miterlimit: 4; fill: rgb(199,154,131); fill-rule: nonzero; opacity: 1;" vector-effect="non-scaling-stroke"  transform=" translate(-127.89, -384.73)" d="M 120.98 355.54 L 156.28 392.55 L 134.48 412.94 C 133.77116841844295 413.60379015819694 132.9087492182051 414.081384854743 131.97 414.33 L 126.72 413.2 C 125.64183717542512 412.3234287711393 124.92302563071465 411.0815216963672 124.7 409.71 L 121.78 392.21 C 121.39661763217953 389.9674978652284 119.73278266596789 388.15881138431126 117.53 387.59 L 103.84 383.97999999999996 C 101.61458037708522 383.41742686577027 99.93641967929543 381.58599153750316 99.57000000000001 379.31999999999994 C 99.2763352446078 377.50613709878166 99.88452493329883 375.6629119072886 101.2 374.37999999999994 L 120.58 355.13999999999993 z" stroke-linecap="round" />
</g>
		<g transform="matrix(1 0 0 1 -44.58 -0.56)"  >
<path style="stroke: none; stroke-width: 1; stroke-dasharray: none; stroke-linecap: butt; stroke-dashoffset: 0; stroke-linejoin: miter; stroke-miterlimit: 4; fill: rgb(212,225,244); fill-rule: nonzero; opacity: 1;" vector-effect="non-scaling-stroke"  transform=" translate(-211.42, -255.44)" d="M 204.721 268.136 C 202.29462461237904 268.1354819119175 200.10739569870012 266.67363499941956 199.17893213132712 264.4319273480678 C 198.25046856395414 262.19021969671604 198.76355250653444 259.6099655262361 200.479 257.894 L 213.90800000000002 244.464 C 216.25628596155244 242.1531050349637 220.02865761697075 242.16801956548733 222.35859764352313 244.49741046641478 C 224.68853767007548 246.82680136734223 224.70434138618435 250.5991694024604 222.394 252.948 L 208.964 266.378 C 207.8399864039307 267.5053171962079 206.3129317009979 268.13802098309355 204.721 268.13599999999997 z" stroke-linecap="round" />
</g>
		<g transform="matrix(1 0 0 1 -0.87 -45.13)"  >
<path style="stroke: none; stroke-width: 1; stroke-dasharray: none; stroke-linecap: butt; stroke-dashoffset: 0; stroke-linejoin: miter; stroke-miterlimit: 4; fill: rgb(212,225,244); fill-rule: nonzero; opacity: 1;" vector-effect="non-scaling-stroke"  transform=" translate(-255.13, -210.87)" d="M 233.366 238.634 C 230.93944261759935 238.63388624666547 228.75184363649836 237.17218753699916 227.82312361831026 234.9303891805809 C 226.89440360012216 232.68859082416265 227.4074239260914 230.10809425080768 229.12300000000002 228.392 L 272.69100000000003 184.824 C 275.03955884432787 182.5133852103051 278.8119259304118 182.52874593097698 281.14158999971744 184.85841000028262 C 283.4712540690231 187.18807406958825 283.48661478969495 190.96044115567219 281.17600000000004 193.30900000000003 L 237.60800000000006 236.87600000000003 C 236.48435649670847 238.00325886528293 234.95762915490099 238.63597613706455 233.36600000000007 238.63400000000004 z" stroke-linecap="round" />
</g>
		<g transform="matrix(1 0 0 1 38.45 -84.44)"  >
<path style="stroke: none; stroke-width: 1; stroke-dasharray: none; stroke-linecap: butt; stroke-dashoffset: 0; stroke-linejoin: miter; stroke-miterlimit: 4; fill: rgb(212,225,244); fill-rule: nonzero; opacity: 1;" vector-effect="non-scaling-stroke"  transform=" translate(-294.45, -171.56)" d="M 292.763 179.237 C 290.33863701460285 179.23486996391208 288.1537778500254 177.77396033665661 287.22551056793765 175.5343487017916 C 286.2972432858499 173.29473706692656 286.80799407531674 170.7165593889717 288.52 169 L 291.91999999999996 165.6 C 294.2682859615524 163.28910503496368 298.0406576169707 163.30401956548732 300.37059764352307 165.63341046641477 C 302.70053767007545 167.96280136734222 302.7163413861843 171.7351694024604 300.40599999999995 174.084 L 297.006 177.484 C 295.8810398721999 178.60929594676622 294.354168279577 179.24012458260597 292.763 179.237 z" stroke-linecap="round" />
</g>
</g>
</g>
<g transform="matrix(1 0 0 1 625.57 583.64)" style="filter: url(#SVGID_224);" id="849eb907-2d71-462c-903c-5d20216c3171"  >
<filter id="SVGID_224" y="-30%" height="160%" x="-35%" width="170%" >
	<feGaussianBlur in="SourceAlpha" stdDeviation="10"></feGaussianBlur>
	<feOffset dx="0" dy="0" result="oBlur" ></feOffset>
	<feFlood flood-color="rgb(0,0,0)" flood-opacity="1"/>
	<feComposite in2="oBlur" operator="in" />
	<feMerge>
		<feMergeNode></feMergeNode>
		<feMergeNode in="SourceGraphic"></feMergeNode>
	</feMerge>
</filter>
		<text xml:space="preserve" font-family="Lato" font-size="186" font-style="normal" font-weight="400" style="stroke: none; stroke-width: 1; stroke-dasharray: none; stroke-linecap: butt; stroke-dashoffset: 0; stroke-linejoin: miter; stroke-miterlimit: 4; fill: rgb(255,255,204); fill-rule: nonzero; opacity: 1; white-space: pre;" ><tspan x="-63.24" y="58.43" >A</tspan></text>
</g>
</svg>