<svg height="437pt" viewBox="0 -1 437.11492 437" width="437pt" xmlns="http://www.w3.org/2000/svg"><path d="m241.136719 391.671875-63.433594 16.125-97.714844-65.710937 66.839844-58.382813zm0 0" fill="#bfad88"/><path d="m177.703125 414.621094c-1.347656 0-2.675781-.394532-3.808594-1.164063l-97.710937-65.707031c-1.761719-1.183594-2.875-3.117188-3.007813-5.234375-.132812-2.117187.726563-4.175781 2.320313-5.570313l66.839844-58.382812c2.832031-2.488281 7.152343-2.195312 9.632812.648438l94.3125 107.972656c1.5625 1.785156 2.089844 4.253906 1.382812 6.519531-.707031 2.265625-2.539062 4.003906-4.839843 4.585937l-63.441407 16.125c-.554687.140626-1.121093.207032-1.679687.207032zm-86.53125-73.242188 87.808594 59.050782 49.707031-12.636719-82.515625-94.457031zm0 0" fill="#54596e"/><path d="m361.222656 332.703125h-210.574218c-30.300782 0-54.867188 20.023437-54.867188 44.726563v50.847656h314.027344v-55.96875c0-21.875-21.753906-39.605469-48.585938-39.605469zm0 0" fill="#61c5a8"/><path d="m409.808594 435.101562h-314.027344c-3.773438 0-6.828125-3.054687-6.828125-6.824218v-50.847656c0-28.425782 27.675781-51.554688 61.695313-51.554688h210.574218c30.550782 0 55.414063 20.832031 55.414063 46.433594v55.96875c0 3.769531-3.054688 6.824218-6.828125 6.824218zm-307.199219-13.652343h300.371094v-49.140625c0-18.074219-18.734375-32.777344-41.757813-32.777344h-210.574218c-26.488282 0-48.039063 17-48.039063 37.898438zm0 0" fill="#54596e"/><path d="m366.246094 118.382812-206.425782-4.703124 31.109376-106.792969zm0 0" fill="#61c5a8"/><path d="m366.246094 125.210938c-.050782 0-.097656 0-.152344-.003907l-206.425781-4.707031c-2.121094-.046875-4.101563-1.078125-5.355469-2.792969-1.25-1.707031-1.640625-3.90625-1.046875-5.941406l31.109375-106.789063c.601562-2.058593 2.132812-3.71875 4.148438-4.476562 2-.761719 4.25-.53125 6.074218.625l175.320313 111.5c2.578125 1.640625 3.75 4.808594 2.867187 7.742188-.875 2.878906-3.539062 4.84375-6.539062 4.84375zm-197.386719-18.160157 173.054687 3.949219-146.972656-93.476562zm0 0" fill="#54596e"/><path d="m398.804688 159.382812c-6.664063-6.667968-23.953126-.183593-38.613282 14.480469-14.664062 14.660157-21.148437 31.953125-14.484375 38.617188 6.664063 6.664062 23.957031.179687 38.617188-14.484375 14.664062-14.660156 21.148437-31.949219 14.480469-38.613282zm0 0" fill="#ffd578"/><path d="m353.082031 221.9375c-6.335937 0-10.175781-2.605469-12.195312-4.632812-3.027344-3.023438-7.359375-10.113282-2.328125-23.53125 3.074218-8.191407 9.042968-16.972657 16.808594-24.738282 7.761718-7.765625 16.546874-13.730468 24.734374-16.800781 13.453126-5.042969 20.511719-.703125 23.53125 2.316406 3.027344 3.027344 7.359376 10.117188 2.328126 23.535157-3.074219 8.1875-9.042969 16.972656-16.808594 24.734374-7.765625 7.769532-16.546875 13.734376-24.734375 16.804688-4.449219 1.671875-8.203125 2.3125-11.335938 2.3125zm38.386719-58.359375c-1.539062 0-3.734375.375-6.566406 1.4375-6.3125 2.367187-13.554688 7.351563-19.878906 13.675781-6.328126 6.320313-11.308594 13.566406-13.675782 19.875-1.980468 5.277344-1.566406 8.324219-.808594 9.085938.769532.753906 3.820313 1.160156 9.082032-.8125 6.3125-2.367188 13.550781-7.347656 19.878906-13.671875s11.304688-13.566407 13.671875-19.875c1.980469-5.277344 1.566406-8.328125.808594-9.085938-.351563-.351562-1.191407-.628906-2.511719-.628906zm0 0" fill="#54596e"/><path d="m145.394531 173.859375c-14.664062-14.660156-31.953125-21.144531-38.617187-14.480469-6.664063 6.664063-.183594 23.953125 14.480468 38.617188 14.664063 14.664062 31.953126 21.148437 38.617188 14.480468 6.664062-6.664062.179688-23.953124-14.480469-38.617187zm0 0" fill="#ffd578"/><path d="m152.507812 221.9375c-3.132812 0-6.886718-.640625-11.339843-2.3125-8.1875-3.070312-16.96875-9.035156-24.734375-16.804688-7.765625-7.761718-13.734375-16.546874-16.808594-24.734374-5.03125-13.417969-.699219-20.507813 2.328125-23.535157 3.019531-3.019531 10.074219-7.363281 23.53125-2.316406 8.1875 3.070313 16.976563 9.035156 24.734375 16.800781 7.765625 7.765625 13.734375 16.546875 16.808594 24.738282 5.03125 13.417968.699218 20.507812-2.328125 23.53125-2.019531 2.023437-5.859375 4.632812-12.191407 4.632812zm-38.386718-58.359375c-1.320313 0-2.160156.273437-2.511719.628906-.761719.757813-1.175781 3.808594.804687 9.085938 2.367188 6.308593 7.347657 13.550781 13.675782 19.875 6.324218 6.324219 13.566406 11.304687 19.878906 13.671875 5.257812 1.972656 8.304688 1.570312 9.078125.8125.761719-.761719 1.175781-3.808594-.808594-9.085938-2.367187-6.308594-7.34375-13.554687-13.671875-19.875-6.328125-6.324218-13.566406-11.308594-19.878906-13.675781-2.832031-1.0625-5.027344-1.4375-6.566406-1.4375zm0 0" fill="#54596e"/><path d="m252.796875 380.488281c-15.082031 0-27.308594-12.222656-27.308594-27.304687v-68.265625h54.613281v68.265625c0 15.078125-12.226562 27.304687-27.304687 27.304687zm0 0" fill="#ffd578"/><path d="m252.796875 387.316406c-18.820313 0-34.136719-15.3125-34.136719-34.132812v-68.265625c0-3.773438 3.054688-6.828125 6.828125-6.828125h54.613281c3.773438 0 6.828126 3.054687 6.828126 6.828125v68.265625c0 18.820312-15.316407 34.132812-34.132813 34.132812zm-20.480469-95.574218v61.441406c0 11.292968 9.1875 20.480468 20.480469 20.480468s20.476563-9.1875 20.476563-20.480468v-61.441406zm0 0" fill="#54596e"/><path d="m252.796875 319.050781c-64.097656 0-116.054687-51.960937-116.054687-116.054687v-103.277344c0-7.054688 5.71875-12.777344 12.777343-12.777344h206.550781c7.058594 0 12.777344 5.722656 12.777344 12.777344v103.277344c0 64.09375-51.957031 116.054687-116.050781 116.054687zm0 0" fill="#ffd578"/><path d="m252.796875 325.875c-67.753906 0-122.882813-55.121094-122.882813-122.878906v-103.277344c0-10.808594 8.792969-19.601562 19.605469-19.601562h206.546875c10.8125 0 19.605469 8.792968 19.605469 19.601562v103.277344c.003906 67.757812-55.125 122.878906-122.875 122.878906zm-103.277344-232.105469c-3.277343 0-5.953125 2.667969-5.953125 5.949219v103.277344c0 60.226562 49.003906 109.226562 109.230469 109.226562s109.226563-49 109.226563-109.226562v-103.277344c0-3.28125-2.675782-5.949219-5.953126-5.949219zm0 0" fill="#54596e"/><path d="m218.660156 230.304688c0 18.851562 15.28125 34.132812 34.136719 34.132812 18.851563 0 34.132813-15.28125 34.132813-34.132812zm0 0" fill="#54596e"/><path d="m252.796875 271.261719c-22.589844 0-40.960937-18.371094-40.960937-40.957031 0-3.773438 3.050781-6.828126 6.824218-6.828126h68.269532c3.773437 0 6.824218 3.054688 6.824218 6.828126 0 22.585937-18.371094 40.957031-40.957031 40.957031zm-26.441406-34.132813c3.03125 11.765625 13.738281 20.480469 26.4375 20.480469s23.40625-8.714844 26.441406-20.480469zm0 0" fill="#54596e"/><path d="m266.449219 250.78125c0-3.769531-6.113281-6.824219-13.652344-6.824219-7.542969 0-13.65625 3.054688-13.65625 6.824219 0 3.773438 6.113281 6.828125 13.65625 6.828125 7.539063 0 13.652344-3.054687 13.652344-6.828125zm0 0" fill="#ff927d"/><path d="m225.488281 165.449219c0 5.65625-4.585937 10.242187-10.238281 10.242187-5.65625 0-10.242188-4.585937-10.242188-10.242187s4.585938-10.238281 10.242188-10.238281c5.652344 0 10.238281 4.582031 10.238281 10.238281zm0 0" fill="#54596e"/><path d="m300.582031 165.449219c0 5.65625-4.585937 10.242187-10.242187 10.242187-5.652344 0-10.238282-4.585937-10.238282-10.242187s4.585938-10.238281 10.238282-10.238281c5.65625 0 10.242187 4.582031 10.242187 10.238281zm0 0" fill="#54596e"/><path d="m191.355469 196.167969c0 7.542969-6.113281 13.65625-13.652344 13.65625-7.542969 0-13.65625-6.113281-13.65625-13.65625 0-7.539063 6.113281-13.652344 13.65625-13.652344 7.539063 0 13.652344 6.113281 13.652344 13.652344zm0 0" fill="#ff927d"/><path d="m341.542969 196.167969c0 7.542969-6.113281 13.65625-13.65625 13.65625-7.539063 0-13.652344-6.113281-13.652344-13.65625 0-7.539063 6.113281-13.652344 13.652344-13.652344 7.542969 0 13.65625 6.113281 13.65625 13.652344zm0 0" fill="#ff927d"/><g fill="#54596e"><path d="m143.566406 428.277344c-3.773437 0-6.824218-3.058594-6.824218-6.828125v-20.480469c0-3.769531 3.050781-6.824219 6.824218-6.824219 3.773438 0 6.828125 3.054688 6.828125 6.824219v20.480469c0 3.769531-3.054687 6.828125-6.828125 6.828125zm0 0"/><path d="m362.023438 428.277344c-3.773438 0-6.828126-3.058594-6.828126-6.828125v-20.480469c0-3.769531 3.054688-6.824219 6.828126-6.824219 3.773437 0 6.824218 3.054688 6.824218 6.824219v20.480469c0 3.769531-3.050781 6.828125-6.824218 6.828125zm0 0"/><path d="m314.234375 168.863281h-20.480469c-3.773437 0-6.824218-3.058593-6.824218-6.828125 0-3.769531 3.050781-6.824218 6.824218-6.824218h20.480469c3.773437 0 6.828125 3.054687 6.828125 6.824218 0 3.769532-3.054688 6.828125-6.828125 6.828125zm0 0"/><path d="m211.835938 168.863281h-20.480469c-3.773438 0-6.828125-3.058593-6.828125-6.828125 0-3.769531 3.054687-6.824218 6.828125-6.824218h20.480469c3.773437 0 6.824218 3.054687 6.824218 6.824218 0 3.769532-3.050781 6.828125-6.824218 6.828125zm0 0"/></g><path d="m430.289062 107.421875-334.507812 13.65625 34.132812-102.402344zm0 0" fill="#61c5a8"/><path d="m95.78125 127.902344c-2.140625 0-4.160156-1.003906-5.453125-2.722656-1.351563-1.792969-1.734375-4.132813-1.019531-6.265626l34.132812-102.398437c1.152344-3.488281 4.859375-5.441406 8.40625-4.386719l300.375 88.746094c3.207032.949219 5.253906 4.070312 4.839844 7.386719-.40625 3.3125-3.160156 5.84375-6.496094 5.980469l-334.503906 13.652343c-.09375.003907-.1875.007813-.28125.007813zm38.527344-100.808594-28.921875 86.757812 283.414062-11.570312zm0 0" fill="#54596e"/><path d="m334.714844 428.277344h-40.960938l-122.878906-95.574219h40.960938zm0 0" fill="#fff35f"/><path d="m334.714844 435.101562h-40.960938c-1.519531 0-2.992187-.503906-4.191406-1.4375l-122.878906-95.570312c-2.300782-1.796875-3.214844-4.847656-2.269532-7.609375.949219-2.753906 3.546876-4.609375 6.460938-4.609375h40.960938c1.519531 0 2.992187.507812 4.191406 1.4375l122.882812 95.574219c2.296875 1.792969 3.210938 4.847656 2.265625 7.605469-.949219 2.757812-3.546875 4.609374-6.460937 4.609374zm-38.621094-13.652343h18.726562l-105.324218-81.917969h-18.726563zm0 0" fill="#54596e"/><path d="m85.125 344.421875c-1.898438 0-3.792969-.789063-5.136719-2.335937l-22.453125-25.707032c-2.480468-2.839844-2.195312-7.148437.644532-9.632812 2.828124-2.488282 7.152343-2.195313 9.636718.652344l22.449219 25.707031c2.480469 2.839843 2.195313 7.148437-.644531 9.628906-1.292969 1.136719-2.898438 1.6875-4.496094 1.6875zm0 0" fill="#54596e"/><path d="m110.835938 321.964844c-1.902344 0-3.796876-.789063-5.140626-2.335938l-44.90625-51.414062c-2.480468-2.839844-2.195312-7.148438.644532-9.628906 2.855468-2.488282 7.152344-2.191407 9.636718.648437l44.90625 51.414063c2.476563 2.839843 2.191407 7.148437-.648437 9.632812-1.300781 1.132812-2.898437 1.683594-4.492187 1.683594zm0 0" fill="#54596e"/><path d="m72.367188 239.972656-6.441407 23.753906-24.40625 3.191407-31.4375-35.992188 24.40625-3.191406 6.441407-23.753906zm0 0" fill="#a1b7ff"/><path d="m41.523438 273.742188c-1.957032 0-3.835938-.839844-5.140626-2.335938l-31.441406-35.992188c-1.660156-1.890624-2.132812-4.546874-1.246094-6.902343.890626-2.355469 3.007813-4.027344 5.5-4.355469l19.894532-2.601562 5.25-19.363282c.65625-2.429687 2.601562-4.300781 5.054687-4.867187 2.433594-.554688 5.015625.265625 6.671875 2.164062l31.441406 35.992188c1.5 1.714843 2.046876 4.074219 1.449219 6.277343l-6.441406 23.753907c-.71875 2.660156-2.964844 4.628906-5.699219 4.984375l-24.40625 3.191406c-.304687.035156-.59375.054688-.886718.054688zm-17.910157-37.699219 20.648438 23.628906 16.265625-2.125 4.292968-15.835937-20.640624-23.632813-3.105469 11.445313c-.71875 2.660156-2.964844 4.625-5.699219 4.984374zm0 0" fill="#54596e"/><path d="m136.539062 299.511719c-1.898437 0-3.792968-.789063-5.140624-2.335938l-22.453126-25.703125c-2.476562-2.839844-2.191406-7.152344.648438-9.632812 2.828125-2.484375 7.152344-2.195313 9.632812.652344l22.453126 25.703124c2.480468 2.839844 2.195312 7.148438-.644532 9.632813-1.292968 1.128906-2.902344 1.683594-4.496094 1.683594zm0 0" fill="#54596e"/><path d="m120.53125 243.222656-6.445312 23.753906-24.402344 3.191407-31.441406-35.988281 24.410156-3.191407 6.4375-23.757812zm0 0" fill="#a1b7ff"/><path d="m89.679688 276.996094c-1.953126 0-3.832032-.839844-5.140626-2.335938l-31.4375-35.992187c-1.664062-1.890625-2.136718-4.550781-1.246093-6.902344.890625-2.355469 3.003906-4.03125 5.5-4.355469l19.890625-2.601562 5.261718-19.363282c.660157-2.429687 2.597657-4.300781 5.054688-4.867187 2.464844-.558594 5.015625.269531 6.671875 2.164063l31.433594 35.988281c1.5 1.71875 2.046875 4.074219 1.445312 6.277343l-6.4375 23.757813c-.722656 2.660156-2.96875 4.628906-5.699219 4.984375l-24.410156 3.1875c-.300781.039062-.59375.058594-.886718.058594zm-17.90625-37.699219 20.648437 23.628906 16.265625-2.125 4.292969-15.835937-20.640625-23.636719-3.105469 11.449219c-.71875 2.660156-2.964844 4.625-5.699219 4.980468zm0 0" fill="#54596e"/><path d="m69.117188 288.132812-6.441407 23.753907-24.410156 3.191406-31.433594-35.988281 24.40625-3.191406 6.441407-23.753907zm0 0" fill="#a1b7ff"/><path d="m38.265625 321.90625c-1.953125 0-3.832031-.839844-5.140625-2.335938l-31.4375-35.992187c-1.6601562-1.890625-2.132812-4.546875-1.246094-6.902344.890625-2.355469 3.007813-4.027343 5.5-4.355469l19.890625-2.601562 5.261719-19.363281c.660156-2.429688 2.597656-4.300781 5.054688-4.867188 2.453124-.5625 5.019531.269531 6.671874 2.164063l31.433594 35.992187c1.5 1.714844 2.046875 4.074219 1.445313 6.277344l-6.4375 23.753906c-.71875 2.660157-2.964844 4.628907-5.699219 4.984375l-24.40625 3.191406c-.300781.035157-.59375.054688-.890625.054688zm-17.90625-37.699219 20.648437 23.628907 16.265626-2.125 4.292968-15.835938-20.640625-23.636719-3.105469 11.449219c-.71875 2.660156-2.964843 4.625-5.699218 4.984375zm0 0" fill="#54596e"/></svg>