<?xml version="1.0" encoding="UTF-8" standalone="no" ?>
<!DOCTYPE svg PUBLIC "-//W3C//DTD SVG 1.1//EN" "http://www.w3.org/Graphics/SVG/1.1/DTD/svg11.dtd">
<svg xmlns="http://www.w3.org/2000/svg" xmlns:xlink="http://www.w3.org/1999/xlink" version="1.1" width="720" height="720" viewBox="0 0 720 720" xml:space="preserve">
<desc>Created with Fabric.js 4.2.0</desc>
<defs>
</defs>
<rect x="0" y="0" width="100%" height="100%" fill="transparent"></rect>
<g transform="matrix(1 0 0 1 360 360)" id="088ff5e9-cec8-4b99-9d85-4d7f1d684ffe"  >
<rect style="stroke: none; stroke-width: 1; stroke-dasharray: none; stroke-linecap: butt; stroke-dashoffset: 0; stroke-linejoin: miter; stroke-miterlimit: 4; fill: rgb(255,255,255); fill-opacity: 0; fill-rule: nonzero; opacity: 1;" vector-effect="non-scaling-stroke"  x="-360" y="-360" rx="0" ry="0" width="720" height="720" />
</g>
<g transform="matrix(0 0 0 0 0 0)" id="10e72e25-f349-42f5-adff-9246252ebd1e"  >
</g>
<g transform="matrix(3.61 0 0 3.61 624 600.86)" style="filter: url(#SVGID_1503);" id="f42727bd-bc40-4e3b-832d-5e77afda711c"  >
<filter id="SVGID_1503" y="-46%" height="192%" x="-54%" width="208%" >
	<feGaussianBlur in="SourceAlpha" stdDeviation="7.5"></feGaussianBlur>
	<feOffset dx="0" dy="0" result="oBlur" ></feOffset>
	<feFlood flood-color="rgb(255,255,0)" flood-opacity="1"/>
	<feComposite in2="oBlur" operator="in" />
	<feMerge>
		<feMergeNode></feMergeNode>
		<feMergeNode in="SourceGraphic"></feMergeNode>
	</feMerge>
</filter>
		<rect opacity="0" fill="rgb(0,0,0)" x="-22.39" y="-28.81" width="44.77" height="57.63"></rect>
		<text xml:space="preserve" font-family="Lato" font-size="51" font-style="normal" font-weight="400" style="stroke: none; stroke-width: 1; stroke-dasharray: none; stroke-linecap: butt; stroke-dashoffset: 0; stroke-linejoin: miter; stroke-miterlimit: 4; fill: rgb(153,153,255); fill-rule: nonzero; opacity: 1; white-space: pre;" ><tspan x="-19.2" y="16.02" >D</tspan></text>
</g>
<g transform="matrix(1.35 0 0 1.35 361.05 361.05)"  >
<g style="" vector-effect="non-scaling-stroke"   >
		<g transform="matrix(1.01 0 0 1.01 -137.75 131.9)"  >
<path style="stroke: none; stroke-width: 1; stroke-dasharray: none; stroke-linecap: butt; stroke-dashoffset: 0; stroke-linejoin: miter; stroke-miterlimit: 4; fill: rgb(139,128,137); fill-rule: nonzero; opacity: 1;" vector-effect="non-scaling-stroke"  transform=" translate(-116.51, -382.22)" d="M 31.494 500.826 L 15.418 485.75 L 3.673 474.006 C -1.388 468.945 -1.194 460.683 4.097 455.864 L 206.767 262.235 L 233.03 262.235 L 232.264 297.732 L 48.636000000000024 490.40200000000004 C 43.818000000000026 495.694 36.55500000000002 505.88700000000006 31.494000000000025 500.826 z" stroke-linecap="round" />
</g>
		<g transform="matrix(1.01 0 0 1.01 -45.25 54.39)"  >
<path style="stroke: none; stroke-width: 1; stroke-dasharray: none; stroke-linecap: butt; stroke-dashoffset: 0; stroke-linejoin: miter; stroke-miterlimit: 4; fill: rgb(104,94,104); fill-rule: nonzero; opacity: 1;" vector-effect="non-scaling-stroke"  transform=" translate(-207.66, -305.85)" d="M 399.9 122.27 L 394.82399999999996 107.19399999999999 L 33.559999999999945 485.326 C 28.740999999999946 490.618 20.478999999999946 490.81100000000004 15.417999999999946 485.75 L 30.493999999999946 500.826 C 35.55499999999995 505.887 43.81699999999995 505.69300000000004 48.635999999999946 500.40200000000004 L 242.26499999999993 297.7320000000001 z" stroke-linecap="round" />
</g>
		<g transform="matrix(1.01 0 0 1.01 -38.75 -156.05)"  >
<path style="stroke: none; stroke-width: 1; stroke-dasharray: none; stroke-linecap: butt; stroke-dashoffset: 0; stroke-linejoin: miter; stroke-miterlimit: 4; fill: rgb(255,224,119); fill-rule: nonzero; opacity: 1;" vector-effect="non-scaling-stroke"  transform=" translate(-214.07, -98.49)" d="M 242.343 101.079 L 249.69299999999998 127.58699999999999 C 250.951 131.88199999999998 246.963 135.86999999999998 242.66799999999998 134.612 L 217.15999999999997 126.262 C 216.12099999999998 125.958 215.01599999999996 125.958 213.97699999999998 126.262 L 188.46899999999997 134.612 C 184.17399999999998 135.87 180.18599999999998 131.882 181.44399999999996 127.58699999999999 L 182.88099999999997 114.43799999999999 L 186.79299999999998 101.07999999999998 C 187.09699999999998 100.04099999999998 187.09699999999998 98.93599999999998 186.79299999999998 97.89699999999999 L 178.44299999999998 69.389 C 177.18499999999997 65.094 181.17299999999997 61.105999999999995 185.468 62.364 L 213.976 70.714 C 215.015 71.018 216.12 71.018 217.159 70.714 L 230.517 66.801 L 242.666 66.364 C 246.96099999999998 65.10600000000001 250.94899999999998 69.09400000000001 249.691 73.38900000000001 L 242.341 97.897 C 242.038 98.935 242.038 100.04 242.34300000000002 101.07900000000001 z" stroke-linecap="round" />
</g>
		<g transform="matrix(1.01 0 0 1.01 154.02 36.21)"  >
<path style="stroke: none; stroke-width: 1; stroke-dasharray: none; stroke-linecap: butt; stroke-dashoffset: 0; stroke-linejoin: miter; stroke-miterlimit: 4; fill: rgb(255,224,119); fill-rule: nonzero; opacity: 1;" vector-effect="non-scaling-stroke"  transform=" translate(-404.01, -287.93)" d="M 431.787 290.523 L 439.137 317.031 C 440.395 321.326 436.407 325.314 432.112 324.056 L 406.60400000000004 315.70599999999996 C 405.56500000000005 315.402 404.46000000000004 315.402 403.42100000000005 315.70599999999996 L 376.91300000000007 323.056 C 372.61800000000005 324.31399999999996 368.63000000000005 320.32599999999996 369.8880000000001 316.031 L 372.3250000000001 303.882 L 376.2380000000001 290.524 C 376.5420000000001 289.485 376.5420000000001 288.38 376.2380000000001 287.341 L 367.8880000000001 258.833 C 366.6300000000001 254.53800000000004 370.6180000000001 250.55000000000004 374.91300000000007 251.80800000000002 L 403.42100000000005 260.158 C 404.46000000000004 260.462 405.56500000000005 260.462 406.60400000000004 260.158 L 419.96200000000005 256.245 L 433.11100000000005 253.808 C 437.40600000000006 252.54999999999998 441.39400000000006 256.538 440.136 260.83299999999997 L 431.786 287.34099999999995 C 431.482 288.37899999999996 431.482 289.4839999999999 431.787 290.52299999999997 z" stroke-linecap="round" />
</g>
		<g transform="matrix(1.01 0 0 1.01 42.12 98.41)"  >
<path style="stroke: none; stroke-width: 1; stroke-dasharray: none; stroke-linecap: butt; stroke-dashoffset: 0; stroke-linejoin: miter; stroke-miterlimit: 4; fill: rgb(154,229,156); fill-rule: nonzero; opacity: 1;" vector-effect="non-scaling-stroke"  transform=" translate(-293.75, -349.22)" d="M 315.636 327.335 C 312.708 324.407 307.959 324.406 305.03000000000003 327.33599999999996 L 293.754 338.61299999999994 L 282.478 327.33599999999996 C 279.54900000000004 324.407 274.8 324.40599999999995 271.871 327.335 C 268.941 330.265 268.941 335.013 271.87 337.941 L 283.148 349.219 L 271.87 360.497 C 268.94100000000003 363.426 268.94100000000003 368.17400000000004 271.871 371.103 C 273.335 372.567 275.255 373.29900000000004 277.174 373.29900000000004 C 279.09299999999996 373.29900000000004 281.013 372.567 282.47799999999995 371.10200000000003 L 293.75399999999996 359.82500000000005 L 305.03 371.10200000000003 C 306.49499999999995 372.567 308.414 373.29900000000004 310.33399999999995 373.29900000000004 C 312.25299999999993 373.29900000000004 314.17299999999994 372.567 315.63699999999994 371.103 C 318.56699999999995 368.173 318.56699999999995 363.425 315.6379999999999 360.497 L 304.36099999999993 349.219 L 315.6379999999999 337.941 C 318.56499999999994 335.013 318.56499999999994 330.26399999999995 315.6359999999999 327.335 z" stroke-linecap="round" />
</g>
		<g transform="matrix(1.01 0 0 1.01 -98.41 -42.12)"  >
<path style="stroke: none; stroke-width: 1; stroke-dasharray: none; stroke-linecap: butt; stroke-dashoffset: 0; stroke-linejoin: miter; stroke-miterlimit: 4; fill: rgb(186,243,154); fill-rule: nonzero; opacity: 1;" vector-effect="non-scaling-stroke"  transform=" translate(-155.28, -210.75)" d="M 177.164 188.863 C 174.23499999999999 185.935 169.486 185.935 166.557 188.863 L 155.28 200.14 L 144.00300000000001 188.863 C 141.074 185.935 136.32500000000002 185.935 133.39700000000002 188.863 C 130.46800000000002 191.793 130.46800000000002 196.541 133.39700000000002 199.47 L 144.67300000000003 210.746 L 133.39700000000002 222.02200000000002 C 130.46800000000002 224.95200000000003 130.46800000000002 229.70000000000002 133.39700000000002 232.63000000000002 C 134.86100000000002 234.09400000000002 136.781 234.82600000000002 138.70000000000002 234.82600000000002 C 140.61900000000003 234.82600000000002 142.53900000000002 234.09400000000002 144.00300000000001 232.63000000000002 L 155.28 221.35300000000004 L 166.557 232.63000000000002 C 168.021 234.09400000000002 169.94099999999997 234.82600000000002 171.85999999999999 234.82600000000002 C 173.779 234.82600000000002 175.69899999999998 234.09400000000002 177.16299999999998 232.63000000000002 C 180.09199999999998 229.70000000000002 180.09199999999998 224.95200000000003 177.16299999999998 222.02200000000002 L 165.88699999999997 210.746 L 177.16299999999998 199.47 C 180.093 196.541 180.093 191.793 177.164 188.863 z" stroke-linecap="round" />
</g>
		<g transform="matrix(1.01 0 0 1.01 231.56 -47.67)"  >
<path style="stroke: none; stroke-width: 1; stroke-dasharray: none; stroke-linecap: butt; stroke-dashoffset: 0; stroke-linejoin: miter; stroke-miterlimit: 4; fill: rgb(255,100,111); fill-rule: nonzero; opacity: 1;" vector-effect="non-scaling-stroke"  transform=" translate(-480.42, -205.28)" d="M 491.027 205.282 L 502.303 194.006 C 505.23199999999997 191.076 505.23199999999997 186.328 502.303 183.398 C 499.373 180.47 494.625 180.47 491.696 183.398 L 480.42 194.674 L 469.144 183.398 C 466.214 180.47 461.466 180.47 458.53700000000003 183.398 C 455.60800000000006 186.328 455.60800000000006 191.076 458.53700000000003 194.006 L 469.81300000000005 205.282 L 458.53700000000003 216.55800000000002 C 455.60800000000006 219.48800000000003 455.60800000000006 224.23600000000002 458.53700000000003 227.16500000000002 C 460.002 228.62900000000002 461.922 229.36100000000002 463.841 229.36100000000002 C 465.76 229.36100000000002 467.68 228.62900000000002 469.145 227.16500000000002 L 480.421 215.889 L 491.697 227.16500000000002 C 493.162 228.62900000000002 495.082 229.36100000000002 497.001 229.36100000000002 C 498.91999999999996 229.36100000000002 500.84 228.62900000000002 502.30499999999995 227.16500000000002 C 505.2339999999999 224.235 505.2339999999999 219.48700000000002 502.30499999999995 216.55800000000002 z" stroke-linecap="round" />
</g>
		<g transform="matrix(1.01 0 0 1.01 47.67 -231.56)"  >
<path style="stroke: none; stroke-width: 1; stroke-dasharray: none; stroke-linecap: butt; stroke-dashoffset: 0; stroke-linejoin: miter; stroke-miterlimit: 4; fill: rgb(255,128,134); fill-rule: nonzero; opacity: 1;" vector-effect="non-scaling-stroke"  transform=" translate(-299.22, -24.08)" d="M 321.102 2.196 C 318.17199999999997 -0.7319999999999998 313.424 -0.7319999999999998 310.495 2.196 L 299.219 13.472 L 287.941 2.1959999999999997 C 285.01099999999997 -0.7320000000000002 280.263 -0.7320000000000002 277.33399999999995 2.1959999999999997 C 274.405 5.1259999999999994 274.405 9.873999999999999 277.33399999999995 12.802999999999999 L 288.60999999999996 24.08 L 277.33399999999995 35.355999999999995 C 274.405 38.285999999999994 274.405 43.03399999999999 277.33399999999995 45.962999999999994 C 278.7989999999999 47.42699999999999 280.71899999999994 48.15899999999999 282.6379999999999 48.15899999999999 C 284.5569999999999 48.15899999999999 286.4769999999999 47.42699999999999 287.9419999999999 45.962999999999994 L 299.2179999999999 34.687 L 310.4939999999999 45.962999999999994 C 311.9589999999999 47.42699999999999 313.8789999999999 48.15899999999999 315.7979999999999 48.15899999999999 C 317.71699999999987 48.15899999999999 319.6369999999999 47.42699999999999 321.10199999999986 45.962999999999994 C 324.03099999999984 43.032999999999994 324.03099999999984 38.285 321.10199999999986 35.355999999999995 L 309.8249999999999 24.079999999999995 L 321.1009999999999 12.803999999999995 C 324.02999999999986 9.873999999999995 324.02999999999986 5.125999999999995 321.10199999999986 2.1959999999999944 z" stroke-linecap="round" />
</g>
		<g transform="matrix(1.01 0 0 1.01 -37.23 -155.03)"  >
<path style="stroke: none; stroke-width: 1; stroke-dasharray: none; stroke-linecap: butt; stroke-dashoffset: 0; stroke-linejoin: miter; stroke-miterlimit: 4; fill: rgb(255,195,68); fill-rule: nonzero; opacity: 1;" vector-effect="non-scaling-stroke"  transform=" translate(-215.57, -99.49)" d="M 252.692 129.586 L 244.342 101.07800000000002 C 244.038 100.03900000000002 244.038 98.93400000000001 244.342 97.89500000000001 L 252.692 69.38700000000001 C 253.95000000000002 65.09200000000001 249.96200000000002 61.10500000000002 245.667 62.362000000000016 L 230.518 66.79900000000002 L 226.605 80.15700000000002 C 226.301 81.19600000000003 226.301 82.30100000000003 226.605 83.34000000000003 L 234.95499999999998 111.84800000000003 C 236.213 116.14300000000003 232.225 120.13100000000003 227.92999999999998 118.87300000000003 L 199.42199999999997 110.52300000000004 C 198.38299999999998 110.21900000000004 197.27799999999996 110.21900000000004 196.23899999999998 110.52300000000004 L 182.88099999999997 114.43600000000004 L 178.44399999999996 129.58500000000004 C 177.18599999999995 133.88000000000002 181.17399999999995 137.86800000000002 185.46899999999997 136.61000000000004 L 213.97699999999998 128.26000000000005 C 215.01599999999996 127.95600000000005 216.12099999999998 127.95600000000005 217.15999999999997 128.26000000000005 L 245.66799999999998 136.61000000000004 C 249.96299999999997 137.86900000000003 253.95 133.88100000000003 252.69199999999998 129.58600000000004 z" stroke-linecap="round" />
</g>
		<g transform="matrix(1.01 0 0 1.01 155.03 37.23)"  >
<path style="stroke: none; stroke-width: 1; stroke-dasharray: none; stroke-linecap: butt; stroke-dashoffset: 0; stroke-linejoin: miter; stroke-miterlimit: 4; fill: rgb(255,195,68); fill-rule: nonzero; opacity: 1;" vector-effect="non-scaling-stroke"  transform=" translate(-405.01, -288.93)" d="M 442.136 319.03 L 433.786 290.522 C 433.482 289.483 433.482 288.378 433.786 287.339 L 442.136 258.831 C 443.394 254.53600000000003 439.406 250.54800000000003 435.11100000000005 251.806 L 419.96200000000005 256.243 L 416.04900000000004 269.601 C 415.74500000000006 270.64 415.74500000000006 271.745 416.04900000000004 272.784 L 424.39900000000006 301.292 C 425.65700000000004 305.587 421.66900000000004 309.575 417.3740000000001 308.31699999999995 L 388.8660000000001 299.9669999999999 C 387.8270000000001 299.66299999999995 386.7220000000001 299.66299999999995 385.6830000000001 299.9669999999999 L 372.3250000000001 303.87999999999994 L 367.8880000000001 319.02899999999994 C 366.6300000000001 323.32399999999996 370.6180000000001 327.31199999999995 374.91300000000007 326.0539999999999 L 403.42100000000005 317.7039999999999 C 404.46000000000004 317.3999999999999 405.56500000000005 317.3999999999999 406.60400000000004 317.7039999999999 L 435.112 326.0539999999999 C 439.40700000000004 327.31299999999993 443.394 323.32499999999993 442.136 319.0299999999999 z" stroke-linecap="round" />
</g>
		<g transform="matrix(1.01 0 0 1.01 49.27 -64.57)"  >
<path style="stroke: none; stroke-width: 1; stroke-dasharray: none; stroke-linecap: butt; stroke-dashoffset: 0; stroke-linejoin: miter; stroke-miterlimit: 4; fill: rgb(234,243,255); fill-rule: nonzero; opacity: 1;" vector-effect="non-scaling-stroke"  transform=" translate(-300.8, -188.63)" d="M 227.189 282.656 L 293.753 224.22500000000002 L 394.82399999999996 107.19400000000002 L 382.22999999999996 94.60000000000002 L 206.76799999999997 262.235 z" stroke-linecap="round" />
</g>
		<g transform="matrix(1.01 0 0 1.01 67.28 -50.53)"  >
<path style="stroke: none; stroke-width: 1; stroke-dasharray: none; stroke-linecap: butt; stroke-dashoffset: 0; stroke-linejoin: miter; stroke-miterlimit: 4; fill: rgb(213,234,255); fill-rule: nonzero; opacity: 1;" vector-effect="non-scaling-stroke"  transform=" translate(-318.54, -202.46)" d="M 242.265 297.732 L 409.9 122.27000000000004 L 394.82399999999996 107.19400000000005 L 227.18899999999996 282.65600000000006 z" stroke-linecap="round" />
</g>
		<g transform="matrix(1.01 0 0 1.01 143.07 -150.06)"  >
<path style="stroke: none; stroke-width: 1; stroke-dasharray: none; stroke-linecap: butt; stroke-dashoffset: 0; stroke-linejoin: miter; stroke-miterlimit: 4; fill: rgb(255,224,119); fill-rule: nonzero; opacity: 1;" vector-effect="non-scaling-stroke"  transform=" translate(-393.23, -104.38)" d="M 357.282 138.06 L 328.07599999999996 128.981 C 317.061 125.55699999999999 314.75399999999996 110.99 324.17199999999997 104.329 L 349.143 86.66999999999999 C 352.883 84.02499999999999 355.082 79.71 355.02299999999997 75.13 L 354.63199999999995 44.547999999999995 C 354.48499999999996 33.013999999999996 367.626 26.317999999999994 376.86999999999995 33.217 L 401.38199999999995 51.509 C 405.05299999999994 54.248 409.83699999999993 55.006 414.1739999999999 53.535 L 416.2399999999999 52.833999999999996 L 439.2019999999999 47.648999999999994 C 450.12599999999986 43.94499999999999 460.5549999999999 54.373999999999995 456.8509999999999 65.298 L 445.06099999999986 88.358 C 443.58999999999986 92.696 444.34799999999984 97.479 447.0869999999999 101.15 L 465.3789999999999 121.72500000000001 C 472.27699999999993 130.969 465.5809999999999 144.11100000000002 454.0479999999999 143.964 L 425.4339999999999 145.541 C 420.8539999999999 145.483 416.53899999999993 147.68099999999998 413.8939999999999 151.421 L 400.1709999999999 172.456 C 393.51099999999985 181.873 378.94299999999987 179.566 375.5189999999999 168.552 L 368.4089999999999 145.25 C 368.0909999999999 144.227 365.6919999999999 145.225 365.1629999999999 144.32 C 363.4269999999999 141.356 360.6329999999999 139.102 357.2819999999999 138.06 z" stroke-linecap="round" />
</g>
		<g transform="matrix(1.01 0 0 1.01 169.85 -139.71)"  >
<path style="stroke: none; stroke-width: 1; stroke-dasharray: none; stroke-linecap: butt; stroke-dashoffset: 0; stroke-linejoin: miter; stroke-miterlimit: 4; fill: rgb(255,195,68); fill-rule: nonzero; opacity: 1;" vector-effect="non-scaling-stroke"  transform=" translate(-419.61, -114.58)" d="M 459.952 149.868 C 471.485 150.015 478.181 136.874 471.283 127.62899999999999 L 452.992 103.118 C 450.252 99.44699999999999 449.495 94.663 450.96500000000003 90.326 L 460.78700000000003 61.361999999999995 C 464.49100000000004 50.43899999999999 454.062 40.00899999999999 443.139 43.714 L 416.24 52.835 L 415.539 54.9 C 414.068 59.238 414.82599999999996 64.02199999999999 417.566 67.692 L 435.85699999999997 92.204 C 442.756 101.448 436.05999999999995 114.58999999999999 424.52599999999995 114.443 L 393.94399999999996 114.05199999999999 C 389.364 113.993 385.04799999999994 116.192 382.40399999999994 119.93199999999999 L 365.15199999999993 144.326 C 365.6819999999999 145.231 366.12199999999996 146.195 366.43999999999994 147.218 L 375.51899999999995 176.42399999999998 C 378.9429999999999 187.43899999999996 393.51099999999997 189.74599999999998 400.16999999999996 180.32799999999997 L 417.82899999999995 155.35699999999997 C 420.47399999999993 151.61699999999996 424.78899999999993 149.41799999999998 429.36899999999997 149.47699999999998 z" stroke-linecap="round" />
</g>
</g>
</g>
</svg>