<svg id="Layer_1" enable-background="new 0 0 512.037 512.037" height="512" viewBox="0 0 512.037 512.037" width="512" xmlns="http://www.w3.org/2000/svg"><g><g><path d="m455.958 349.878s2.92 166.52-234.4 153.99c-45.73-2.41-100.39-11.47-165.7-29.65 0 0 9.11-88.77 9.11-219.52s-8.09-228.7-8.09-228.7 86.6-21.14 173.15-18.16c23.98.82 47.95 3.49 70.08 8.98 7.77 1.93 83.25 20.84 89.58 105.18 0 0 6.2 53.18-30.34 100.36 0 0 102.1 4.26 96.61 127.52z" fill="#eff4f4"/><path d="m455.958 349.878s2.92 166.52-234.4 153.99c105.66-4.11 155.48-58.86 180.43-96.55 17.95-27.12 18.92-54.6 18.97-56.99l-.05-1.26.09-.75c1.37-30.76-5.09-54.14-19.18-69.51-17.94-19.55-43.68-21.47-43.93-21.48l-67.71-2.82 41.49-53.58c27.05-34.91 23.31-74.49 23.26-74.88-1.89-25.17-9.27-77.33-125.57-118l.67-.21c23.98.82 47.95 3.49 70.08 8.98 7.77 1.93 83.25 20.84 89.58 105.18 0 0 6.2 53.18-30.34 100.36 0 0 102.1 4.26 96.61 127.52z" fill="#daeaef"/><path d="m296.928 249.938c69.12-58.16 62.85-125.69 62.85-125.69-1.98-26.33-12.87-47.11-32.37-61.76-14.3-10.76-28.9-15.16-34.52-16.55-14.65-3.63-31.27-6.09-49.52-7.36-29.42-2.04-63.1-1.01-99.74 3.16-21.85 2.48-40.95 5.64-54.97 8.27 2.42 37.83 6.31 112.88 6.31 204.69 0 91.03-4.31 161.4-7.05 197 63.68 16.1 137.17 27.99 199.85 20.52 34.84-4.15 66.34-14.29 90.96-33 46-34.97 47.21-85.27 47.23-88.92 0-95.14-66.81-105.02-129.03-100.36zm-106.19-143.37s101.67-20.4 91.35 41.94c-11.42 68.95-91.35 55.89-91.35 55.89 2.26-54.18 0-97.83 0-97.83zm4.54 301c2.26-54.19 0-97.83 0-97.83s126.34-26.95 126.34 40.94c0 74.77-126.34 56.89-126.34 56.89z" fill="#81ebeb"/><path d="m296.928 249.938c69.12-58.16 62.85-125.69 62.85-125.69-1.98-26.33-12.87-47.11-32.37-61.76-14.3-10.76-28.9-15.16-34.52-16.55-14.65-3.63-31.27-6.09-49.52-7.36 46.23 19.53 150.525 81.22 15.078 227.898 0 0 151.196-1.862 134.047 101.739-7.917 47.827-58.246 82.003-104.726 104.003 34.84-4.15 66.34-14.29 90.96-33 46-34.97 47.21-85.27 47.23-88.92.001-95.14-66.809-105.02-129.029-100.36z" fill="#00cec8"/></g><g><path d="m433.133 250.077c-20.283-22.11-45.532-30.363-60.547-33.425 29.88-46.072 24.805-93.386 24.556-95.522-.479-4.109-4.196-7.041-8.303-6.576-4.11.471-7.062 4.188-6.598 8.299.057.504 5.288 50.868-28.826 94.916-1.714 2.213-2.044 5.197-.87 7.738s3.674 4.217 6.471 4.347c.24.011 24.252 1.288 47.072 16.641 30.26 20.359 44.519 55.03 42.379 103.049-.006.146-.008.306-.006.451.002.16.139 16.183-6.668 37.287-9.044 28.038-25.423 51.341-48.683 69.262-28.801 22.19-67.673 35.409-115.536 39.29-58.266 4.723-130.119-4.417-213.658-27.177 2.027-22.608 8.548-103.918 8.548-213.959 0-46.48-1.012-93.935-3.008-141.044-.175-4.138-3.667-7.361-7.811-7.176-4.139.175-7.351 3.672-7.176 7.811 1.987 46.899 2.995 94.14 2.995 140.41 0 128.805-8.973 217.871-9.063 218.755-.373 3.635 1.929 7.01 5.45 7.99 73.079 20.345 137.744 30.596 192.794 30.595 11.201 0 22.007-.424 32.401-1.274 50.82-4.157 92.362-18.467 123.472-42.533 60.231-46.593 60.984-112.876 60.942-118.231 1.85-42.356-8.354-75.972-30.327-99.924z"/><path d="m52.75 78.475c.223 4.136 3.74 7.311 7.893 7.086 4.136-.223 7.308-3.757 7.085-7.893-1.165-21.623-2.263-37.501-2.874-45.784 28.157-6.147 146.316-29.391 233.448-7.784 13.892 3.446 60.561 18.554 77.836 68.302 1.076 3.098 3.979 5.042 7.084 5.042.816 0 1.646-.134 2.461-.417 3.913-1.359 5.983-5.632 4.625-9.545-19.75-56.875-72.651-74.035-88.395-77.939-43.174-10.708-97.851-12.414-162.517-5.07-47.975 5.449-82.832 13.887-84.293 14.243-3.583.875-5.999 4.227-5.696 7.903.016.192 1.602 19.541 3.343 51.856z"/><path d="m91.498 395.123c-4.116-.221-7.669 2.951-7.892 7.087-.923 17.178-1.988 33.633-3.166 48.91-.28 3.64 2.101 6.953 5.64 7.847 59.396 15.019 112.729 22.767 158.515 23.031.802.004 1.594.007 2.391.007 58.296 0 104.143-12.383 136.278-36.815 48.402-36.798 50.156-89.006 50.197-94.838.029-4.142-3.306-7.523-7.448-7.552h-.053c-4.118 0-7.47 3.324-7.499 7.448-.014 2.025-.845 49.983-44.275 83.001-66.303 50.409-186.669 35.237-278.313 12.701.998-13.575 1.909-27.986 2.712-42.936.223-4.135-2.95-7.669-7.087-7.891z"/><path d="m367.252 123.635c-2.155-28.552-14.042-51.142-35.333-67.146-15.404-11.579-31.165-16.325-37.226-17.828-39.137-9.706-91.667-11.22-151.912-4.378-18.471 2.098-37.146 4.908-55.506 8.354-3.725.699-6.343 4.067-6.102 7.85 2.35 36.729 6.292 112.1 6.292 204.211 0 36.849-.71 73.766-2.111 109.726-.162 4.139 3.063 7.625 7.202 7.786.1.004.198.006.297.006 4.007 0 7.332-3.168 7.489-7.208 1.409-36.153 2.123-73.267 2.123-110.31 0-87.276-3.524-159.609-5.906-198.513 15.896-2.839 31.983-5.189 47.914-6.998 58.489-6.642 109.186-5.248 146.609 4.033 5.17 1.282 18.622 5.336 31.823 15.26 17.695 13.302 27.584 32.253 29.392 56.328.003.044.007.088.011.132.059.636 5.151 64.266-60.21 119.266-2.49 2.096-3.345 5.558-2.116 8.571 1.229 3.014 4.271 4.893 7.506 4.647 70.577-5.296 106.852 13.315 117.646 60.343.927 4.038 4.951 6.555 8.988 5.632 4.038-.927 6.559-4.951 5.632-8.988-7.148-31.142-24.837-52.549-52.574-63.627-16.322-6.519-35.744-9.533-60.16-9.253 26.401-27.02 38.712-54.551 44.447-74.138 7.215-24.636 5.916-42.233 5.785-43.758z"/><path d="m189.534 211.798c.477.078 6.858 1.089 16.219 1.089 7.873 0 17.853-.716 28.199-3.302 31.135-7.785 50.338-28.481 55.532-59.85 2.64-15.94-.913-28.75-10.558-38.073-25.78-24.92-87.062-12.967-89.659-12.447-3.647.732-6.207 4.026-6.014 7.741.022.433 2.213 43.912-.004 97.127-.157 3.792 2.54 7.103 6.285 7.715zm8.977-98.957c18.86-2.8 55.136-4.75 69.99 9.607 5.973 5.773 7.995 13.897 6.184 24.837-4.178 25.233-18.972 41.264-43.971 47.646-12.647 3.229-24.964 3.173-32.206 2.711 1.359-38.624.498-71.286.003-84.801z"/><path d="m194.225 414.989c1.3.184 14.471 1.979 32.114 1.979 26.088 0 61.954-3.925 83.676-22.79 12.675-11.008 19.103-25.644 19.103-43.501 0-15.461-5.692-27.907-16.918-36.99-35.35-28.605-115.11-12.006-118.489-11.286-3.604.769-6.115 4.042-5.925 7.722.022.433 2.212 43.956-.003 97.127-.161 3.853 2.625 7.199 6.442 7.739zm8.814-99.11c24.863-4.343 77.07-8.864 99.725 9.469 7.64 6.182 11.354 14.467 11.354 25.33 0 13.5-4.555 24.021-13.924 32.164-12.67 11.013-34.431 17.53-62.927 18.848-14.196.656-26.866-.146-34.228-.819 1.367-38.775.495-71.549 0-84.992z"/></g></g></svg>