<?xml version="1.0" encoding="UTF-8" standalone="no" ?>
<!DOCTYPE svg PUBLIC "-//W3C//DTD SVG 1.1//EN" "http://www.w3.org/Graphics/SVG/1.1/DTD/svg11.dtd">
<svg xmlns="http://www.w3.org/2000/svg" xmlns:xlink="http://www.w3.org/1999/xlink" version="1.1" width="720" height="720" viewBox="0 0 720 720" xml:space="preserve">
<desc>Created with Fabric.js 4.2.0</desc>
<defs>
</defs>
<rect x="0" y="0" width="100%" height="100%" fill="transparent"></rect>
<g transform="matrix(1 0 0 1 360 360)" id="088ff5e9-cec8-4b99-9d85-4d7f1d684ffe"  >
<rect style="stroke: none; stroke-width: 1; stroke-dasharray: none; stroke-linecap: butt; stroke-dashoffset: 0; stroke-linejoin: miter; stroke-miterlimit: 4; fill: rgb(255,255,255); fill-opacity: 0; fill-rule: nonzero; opacity: 1;" vector-effect="non-scaling-stroke"  x="-360" y="-360" rx="0" ry="0" width="720" height="720" />
</g>
<g transform="matrix(0 0 0 0 0 0)" id="10e72e25-f349-42f5-adff-9246252ebd1e"  >
</g>
<g transform="matrix(1.38 0 0 1.38 361.76 361.76)"  >
<g style="" vector-effect="non-scaling-stroke"   >
		<g transform="matrix(2 0 0 2 213.84 -214.41)"  >
<path style="stroke: none; stroke-width: 1; stroke-dasharray: none; stroke-linecap: butt; stroke-dashoffset: 0; stroke-linejoin: miter; stroke-miterlimit: 4; fill: rgb(252,194,76); fill-rule: nonzero; opacity: 1;" vector-effect="non-scaling-stroke"  transform=" translate(-234.92, -20.8)" d="M 248.229 7.486 C 243.96 3.2169999999999996 237.038 3.2169999999999996 232.768 7.486 L 220.618 19.636 C 217.665 22.59 217.665 27.378 220.618 30.332 L 225.38299999999998 35.097 C 228.33599999999998 38.050000000000004 233.12499999999997 38.050000000000004 236.07899999999998 35.097 L 248.22899999999998 22.947000000000003 C 252.499 18.678000000000004 252.499 11.756000000000002 248.22899999999998 7.486000000000002 z" stroke-linecap="round" />
</g>
		<g transform="matrix(2 0 0 2 50.14 -50.72)"  >
<path style="stroke: none; stroke-width: 1; stroke-dasharray: none; stroke-linecap: butt; stroke-dashoffset: 0; stroke-linejoin: miter; stroke-miterlimit: 4; fill: rgb(252,194,76); fill-rule: nonzero; opacity: 1;" vector-effect="non-scaling-stroke"  transform=" translate(-153.07, -102.65)" d="M 178.763 81.718 L 173.99800000000002 76.953 C 171.044 74 166.25600000000003 74 163.30300000000003 76.953 L 127.37900000000002 112.87700000000001 C 124.42600000000002 115.83000000000001 124.42600000000002 120.61900000000001 127.37900000000002 123.572 L 132.144 128.337 C 135.098 131.291 139.886 131.291 142.839 128.337 L 178.763 92.41299999999998 C 181.717 89.45999999999998 181.717 84.67099999999998 178.763 81.71799999999999 z" stroke-linecap="round" />
</g>
		<g transform="matrix(2 0 0 2 143.38 -143.96)"  >
<path style="stroke: none; stroke-width: 1; stroke-dasharray: none; stroke-linecap: butt; stroke-dashoffset: 0; stroke-linejoin: miter; stroke-miterlimit: 4; fill: rgb(252,194,76); fill-rule: nonzero; opacity: 1;" vector-effect="non-scaling-stroke"  transform=" translate(-199.69, -56.03)" d="M 225.383 35.098 L 220.61800000000002 30.333 C 217.66500000000002 27.378999999999998 212.87600000000003 27.378999999999998 209.92200000000003 30.333 L 173.99800000000002 66.257 C 171.044 69.21000000000001 171.044 73.99900000000001 173.99800000000002 76.953 L 178.763 81.718 C 181.716 84.671 186.505 84.671 189.459 81.718 L 225.383 45.794000000000004 C 228.33700000000002 42.84 228.33700000000002 38.051 225.383 35.098000000000006 z" stroke-linecap="round" />
</g>
		<g transform="matrix(2 0 0 2 -43.09 42.52)"  >
<path style="stroke: none; stroke-width: 1; stroke-dasharray: none; stroke-linecap: butt; stroke-dashoffset: 0; stroke-linejoin: miter; stroke-miterlimit: 4; fill: rgb(252,194,76); fill-rule: nonzero; opacity: 1;" vector-effect="non-scaling-stroke"  transform=" translate(-106.45, -149.26)" d="M 132.144 128.337 L 127.379 123.57199999999999 C 124.426 120.61899999999999 119.637 120.61899999999999 116.684 123.57199999999999 L 80.75999999999999 159.49599999999998 C 77.80699999999999 162.45 77.80699999999999 167.23799999999997 80.75999999999999 170.19199999999998 L 85.52499999999999 174.95699999999997 C 88.478 177.90999999999997 93.267 177.90999999999997 96.22099999999999 174.95699999999997 L 132.14499999999998 139.03299999999996 C 135.09699999999998 136.07899999999995 135.09699999999998 131.29099999999997 132.14399999999998 128.33699999999996 z" stroke-linecap="round" />
</g>
		<g transform="matrix(2 0 0 2 -99.69 99.12)"  >
<path style="stroke: none; stroke-width: 1; stroke-dasharray: none; stroke-linecap: butt; stroke-dashoffset: 0; stroke-linejoin: miter; stroke-miterlimit: 4; fill: rgb(82,111,170); fill-rule: nonzero; opacity: 1;" vector-effect="non-scaling-stroke"  transform=" translate(-78.15, -177.56)" d="M 94.536 183.969 L 71.74600000000001 161.179 C 68.992 158.425 64.52600000000001 158.425 61.772000000000006 161.179 C 59.01800000000001 163.933 59.01800000000001 168.399 61.772000000000006 171.153 L 84.56200000000001 193.94299999999998 C 87.31600000000002 196.69699999999997 91.78200000000001 196.69699999999997 94.53600000000002 193.94299999999998 C 97.29000000000002 191.189 97.29000000000002 186.724 94.53600000000002 183.969 z" stroke-linecap="round" />
</g>
		<g transform="matrix(2 0 0 2 -171.1 170.53)"  >
<path style="stroke: none; stroke-width: 1; stroke-dasharray: none; stroke-linecap: butt; stroke-dashoffset: 0; stroke-linejoin: miter; stroke-miterlimit: 4; fill: rgb(244,239,237); fill-rule: nonzero; opacity: 1;" vector-effect="non-scaling-stroke"  transform=" translate(-42.45, -213.27)" d="M 7.202 248.514 C 2.933 244.245 2.933 237.323 7.202 233.053 L 65.436 174.819 L 80.897 190.28 L 22.663000000000004 248.514 C 18.393000000000004 252.78300000000002 11.471000000000004 252.78300000000002 7.2020000000000035 248.514 z" stroke-linecap="round" />
</g>
		<g transform="matrix(2 0 0 2 -181.21 169.52)"  >
<path style="stroke: none; stroke-width: 1; stroke-dasharray: none; stroke-linecap: butt; stroke-dashoffset: 0; stroke-linejoin: miter; stroke-miterlimit: 4; fill: rgb(255,255,255); fill-rule: nonzero; opacity: 1;" vector-effect="non-scaling-stroke"  transform=" translate(-37.39, -212.76)" d="M 12.55 238.4 L 70.784 180.166 L 65.436 174.81799999999998 L 7.202000000000005 233.053 C 2.933000000000005 237.322 2.933000000000005 244.245 7.202000000000005 248.514 C 8.143000000000006 249.455 9.218000000000005 250.17700000000002 10.361000000000004 250.703 C 8.500000000000004 246.66400000000002 9.222000000000005 241.728 12.550000000000004 238.4 z" stroke-linecap="round" />
</g>
		<g transform="matrix(2 0 0 2 -119.2 79.61)"  >
<path style="stroke: none; stroke-width: 1; stroke-dasharray: none; stroke-linecap: butt; stroke-dashoffset: 0; stroke-linejoin: miter; stroke-miterlimit: 4; fill: rgb(112,141,200); fill-rule: nonzero; opacity: 1;" vector-effect="non-scaling-stroke"  transform=" translate(-68.4, -167.81)" d="M 67.12 166.527 C 69.87400000000001 163.773 74.34 163.773 77.09400000000001 166.527 L 71.74600000000001 161.17899999999997 C 68.992 158.42499999999998 64.52600000000001 158.42499999999998 61.772000000000006 161.17899999999997 C 59.018 163.93299999999996 59.01800000000001 168.39899999999997 61.772000000000006 171.15299999999996 L 67.12 176.50099999999998 C 64.36500000000001 173.74699999999999 64.36500000000001 169.28199999999998 67.12 166.527 z" stroke-linecap="round" />
</g>
		<g transform="matrix(2 0 0 2 -45.29 40.33)"  >
<path style="stroke: none; stroke-width: 1; stroke-dasharray: none; stroke-linecap: butt; stroke-dashoffset: 0; stroke-linejoin: miter; stroke-miterlimit: 4; fill: rgb(252,224,106); fill-rule: nonzero; opacity: 1;" vector-effect="non-scaling-stroke"  transform=" translate(-105.35, -148.17)" d="M 85.571 164.309 L 121.495 128.385 C 124.441 125.44 129.21 125.43299999999999 132.166 128.362 C 132.158 128.35399999999998 132.151 128.345 132.143 128.337 L 127.378 123.57199999999999 C 124.425 120.61899999999999 119.636 120.61899999999999 116.682 123.57199999999999 L 80.75800000000001 159.49599999999998 C 77.80400000000002 162.44899999999998 77.80400000000002 167.23799999999997 80.75800000000001 170.19199999999998 L 85.52300000000001 174.95699999999997 C 85.531 174.96499999999997 85.54 174.97099999999998 85.54800000000002 174.97999999999996 C 82.61900000000001 172.02499999999995 82.62600000000002 167.25499999999997 85.57100000000001 164.30899999999997 z" stroke-linecap="round" />
</g>
		<g transform="matrix(2 0 0 2 47.95 -52.91)"  >
<path style="stroke: none; stroke-width: 1; stroke-dasharray: none; stroke-linecap: butt; stroke-dashoffset: 0; stroke-linejoin: miter; stroke-miterlimit: 4; fill: rgb(252,224,106); fill-rule: nonzero; opacity: 1;" vector-effect="non-scaling-stroke"  transform=" translate(-151.97, -101.55)" d="M 132.191 117.689 L 168.115 81.76499999999999 C 171.06 78.82 175.83 78.81299999999999 178.786 81.74199999999999 C 178.778 81.734 178.77100000000002 81.725 178.763 81.71699999999998 L 173.99800000000002 76.95199999999998 C 171.044 73.99899999999998 166.25600000000003 73.99799999999999 163.30300000000003 76.95199999999998 L 127.37900000000002 112.87599999999998 C 124.42500000000003 115.82899999999998 124.42500000000003 120.61799999999998 127.37900000000002 123.57099999999997 L 132.144 128.33599999999996 C 132.15200000000002 128.34399999999997 132.161 128.35099999999994 132.169 128.35899999999995 C 129.239 125.40499999999996 129.246 120.63499999999995 132.191 117.68899999999995 z" stroke-linecap="round" />
</g>
		<g transform="matrix(2 0 0 2 141.19 -146.15)"  >
<path style="stroke: none; stroke-width: 1; stroke-dasharray: none; stroke-linecap: butt; stroke-dashoffset: 0; stroke-linejoin: miter; stroke-miterlimit: 4; fill: rgb(252,224,106); fill-rule: nonzero; opacity: 1;" vector-effect="non-scaling-stroke"  transform=" translate(-198.59, -54.93)" d="M 178.811 71.07 L 214.735 35.145999999999994 C 217.68 32.20099999999999 222.45000000000002 32.193999999999996 225.406 35.12299999999999 C 225.398 35.11499999999999 225.39100000000002 35.10599999999999 225.383 35.09799999999999 L 220.61800000000002 30.33299999999999 C 217.66500000000002 27.37899999999999 212.87600000000003 27.37899999999999 209.92300000000003 30.33299999999999 L 173.99900000000002 66.25699999999999 C 171.04500000000002 69.21099999999998 171.04600000000002 73.999 173.99900000000002 76.95299999999999 L 178.764 81.71799999999999 C 178.77200000000002 81.72599999999998 178.781 81.73299999999999 178.78900000000002 81.74 C 175.859 78.785 175.866 74.015 178.811 71.07 z" stroke-linecap="round" />
</g>
		<g transform="matrix(2 0 0 2 212.61 -216.73)"  >
<path style="stroke: none; stroke-width: 1; stroke-dasharray: none; stroke-linecap: butt; stroke-dashoffset: 0; stroke-linejoin: miter; stroke-miterlimit: 4; fill: rgb(252,224,106); fill-rule: nonzero; opacity: 1;" vector-effect="non-scaling-stroke"  transform=" translate(-234.3, -19.64)" d="M 225.278 24.298 L 237.429 12.146999999999998 C 240.886 8.689999999999998 246.082 8.033999999999999 250.201 10.175999999999998 C 249.698 9.207999999999998 249.042 8.298999999999998 248.23 7.486999999999998 C 243.96099999999998 3.217999999999998 237.03799999999998 3.217999999999998 232.76899999999998 7.486999999999998 L 220.61899999999997 19.637 C 217.66599999999997 22.59 217.66499999999996 27.379 220.61899999999997 30.333 L 225.27899999999997 34.992999999999995 C 222.32499999999996 32.03999999999999 222.32499999999996 27.250999999999994 225.27799999999996 24.297999999999995 z" stroke-linecap="round" />
</g>
		<g transform="matrix(2 0 0 2 -171.1 170.53)"  >
<path style="stroke: none; stroke-width: 1; stroke-dasharray: none; stroke-linecap: butt; stroke-dashoffset: 0; stroke-linejoin: miter; stroke-miterlimit: 4; fill: rgb(105,5,137); fill-rule: nonzero; opacity: 1;" vector-effect="non-scaling-stroke"  transform=" translate(-42.45, -213.27)" d="M 14.933 253.716 C 11.479 253.716 8.231 252.37 5.789 249.928 C 3.3459999999999996 247.48499999999999 1.9999999999999996 244.237 1.9999999999999996 240.783 C 1.9999999999999996 237.32899999999998 3.3459999999999996 234.081 5.787999999999999 231.63799999999998 L 64.022 173.40399999999997 C 64.80300000000001 172.62299999999996 66.069 172.62299999999996 66.85000000000001 173.40399999999997 L 82.311 188.86499999999998 C 83.09200000000001 189.646 83.09200000000001 190.91199999999998 82.311 191.69299999999998 L 24.077000000000005 249.927 C 21.635000000000005 252.37 18.387000000000004 253.71599999999998 14.933000000000005 253.71599999999998 z M 65.436 177.64600000000002 L 8.616000000000007 234.466 C 6.9290000000000065 236.154 6.000000000000007 238.398 6.000000000000007 240.78300000000002 C 6.000000000000007 243.16800000000003 6.929000000000007 245.412 8.616000000000007 247.09900000000002 C 10.303000000000006 248.78600000000003 12.547000000000008 249.71500000000003 14.932000000000006 249.71500000000003 C 17.318000000000005 249.71500000000003 19.561000000000007 248.78600000000003 21.248000000000005 247.09900000000002 L 78.06800000000001 190.27900000000002 z" stroke-linecap="round" />
</g>
		<g transform="matrix(2 0 0 2 -99.69 99.11)"  >
<path style="stroke: none; stroke-width: 1; stroke-dasharray: none; stroke-linecap: butt; stroke-dashoffset: 0; stroke-linejoin: miter; stroke-miterlimit: 4; fill: rgb(105,5,137); fill-rule: nonzero; opacity: 1;" vector-effect="non-scaling-stroke"  transform=" translate(-78.15, -177.56)" d="M 89.549 198.005 C 87.23100000000001 198.005 84.912 197.12199999999999 83.14800000000001 195.358 L 60.35800000000001 172.56900000000002 C 56.82900000000001 169.03900000000002 56.82900000000001 163.29600000000002 60.35800000000001 159.76600000000002 C 62.06800000000001 158.056 64.34100000000001 157.11400000000003 66.75900000000001 157.11400000000003 C 69.17800000000001 157.11400000000003 71.45100000000002 158.05600000000004 73.16000000000001 159.76600000000002 L 95.95000000000002 182.556 C 99.47900000000001 186.085 99.47900000000001 191.828 95.95000000000002 195.358 C 94.18500000000002 197.122 91.86700000000002 198.005 89.54900000000002 198.005 z M 66.75900000000001 161.113 C 65.40900000000002 161.113 64.14100000000002 161.639 63.186000000000014 162.593 C 61.216000000000015 164.563 61.216000000000015 167.76899999999998 63.186000000000014 169.73899999999998 L 85.97600000000001 192.52799999999996 C 87.94700000000002 194.49899999999997 91.15200000000002 194.49899999999997 93.12200000000001 192.52799999999996 C 95.09200000000001 190.55799999999996 95.09200000000001 187.35199999999998 93.12200000000001 185.38299999999995 L 70.33200000000002 162.59299999999996 C 69.37800000000003 161.63999999999996 68.10800000000002 161.11299999999997 66.75900000000003 161.11299999999997 z" stroke-linecap="round" />
</g>
		<g transform="matrix(2 0 0 2 -43.1 42.52)"  >
<path style="stroke: none; stroke-width: 1; stroke-dasharray: none; stroke-linecap: butt; stroke-dashoffset: 0; stroke-linejoin: miter; stroke-miterlimit: 4; fill: rgb(105,5,137); fill-rule: nonzero; opacity: 1;" vector-effect="non-scaling-stroke"  transform=" translate(-106.45, -149.26)" d="M 90.871 179.167 C 88.423 179.167 85.973 178.235 84.109 176.371 L 79.344 171.60500000000002 C 77.53699999999999 169.799 76.54199999999999 167.39800000000002 76.54199999999999 164.84300000000002 C 76.54199999999999 162.288 77.53699999999999 159.88700000000003 79.344 158.08100000000002 L 115.268 122.15700000000001 C 117.074 120.35000000000001 119.475 119.355 122.03 119.355 C 124.58500000000001 119.355 126.986 120.35000000000001 128.792 122.15700000000001 L 133.558 126.92200000000001 C 137.286 130.651 137.286 136.71800000000002 133.558 140.446 L 97.63399999999999 176.37 C 95.76899999999999 178.235 93.32 179.167 90.87099999999998 179.167 z M 122.03 123.356 C 120.544 123.356 119.147 123.93499999999999 118.096 124.98599999999999 L 82.173 160.91 C 81.122 161.96099999999998 80.543 163.357 80.543 164.844 C 80.543 166.32999999999998 81.122 167.727 82.173 168.778 L 86.938 173.54399999999998 C 89.108 175.713 92.636 175.71099999999998 94.806 173.54399999999998 L 130.73 137.61999999999998 C 132.898 135.45099999999996 132.898 131.92099999999996 130.73 129.75199999999998 L 125.96399999999998 124.98699999999998 C 124.91299999999998 123.93599999999998 123.51699999999998 123.35599999999998 122.02999999999999 123.35599999999998 z" stroke-linecap="round" />
</g>
		<g transform="matrix(2 0 0 2 50.15 -50.71)"  >
<path style="stroke: none; stroke-width: 1; stroke-dasharray: none; stroke-linecap: butt; stroke-dashoffset: 0; stroke-linejoin: miter; stroke-miterlimit: 4; fill: rgb(105,5,137); fill-rule: nonzero; opacity: 1;" vector-effect="non-scaling-stroke"  transform=" translate(-153.07, -102.65)" d="M 137.491 132.553 C 134.936 132.553 132.53500000000003 131.558 130.729 129.751 L 125.96300000000001 124.986 C 122.23400000000001 121.257 122.23400000000001 115.19 125.96300000000001 111.46300000000001 L 161.888 75.53800000000001 C 165.61700000000002 71.80900000000001 171.683 71.80900000000001 175.411 75.53800000000001 L 180.177 80.30400000000002 C 181.98399999999998 82.11000000000001 182.97799999999998 84.51100000000001 182.97799999999998 87.06600000000002 C 182.97799999999998 89.62100000000002 181.98399999999998 92.02200000000002 180.177 93.82800000000002 L 144.252 129.752 C 142.447 131.55800000000002 140.04600000000002 132.553 137.491 132.553 z M 168.65 76.737 C 167.16400000000002 76.737 165.767 77.315 164.716 78.366 L 128.791 114.291 C 126.62299999999999 116.46 126.62299999999999 119.989 128.791 122.158 L 133.557 126.923 C 134.60799999999998 127.974 136.004 128.553 137.49099999999999 128.553 C 138.97799999999998 128.553 140.374 127.974 141.42499999999998 126.923 L 177.34999999999997 90.999 C 178.40099999999995 89.948 178.97899999999996 88.55199999999999 178.97899999999996 87.065 C 178.97899999999996 85.579 178.40099999999995 84.182 177.34999999999997 83.131 L 172.58399999999997 78.365 C 171.533 77.315 170.13699999999997 76.737 168.64999999999998 76.737 z" stroke-linecap="round" />
</g>
		<g transform="matrix(2 0 0 2 143.38 -143.96)"  >
<path style="stroke: none; stroke-width: 1; stroke-dasharray: none; stroke-linecap: butt; stroke-dashoffset: 0; stroke-linejoin: miter; stroke-miterlimit: 4; fill: rgb(105,5,137); fill-rule: nonzero; opacity: 1;" vector-effect="non-scaling-stroke"  transform=" translate(-199.69, -56.02)" d="M 184.111 85.929 C 181.66199999999998 85.929 179.214 84.996 177.349 83.132 L 172.583 78.366 C 170.776 76.56 169.782 74.159 169.782 71.604 C 169.782 69.04899999999999 170.776 66.648 172.583 64.842 L 208.507 28.917 C 212.235 25.189 218.302 25.188000000000002 222.031 28.917 L 226.796 33.683 C 228.60299999999998 35.49 229.59799999999998 37.891 229.59799999999998 40.445 C 229.59799999999998 43 228.60299999999998 45.401 226.796 47.207 L 190.87199999999999 83.132 C 189.009 84.99600000000001 186.56099999999998 85.929 184.111 85.929 z M 215.26999999999998 30.120000000000005 C 213.84499999999997 30.120000000000005 212.42 30.662000000000006 211.33499999999998 31.746000000000006 L 175.41099999999997 67.671 C 174.35999999999999 68.72200000000001 173.78199999999998 70.11800000000001 173.78199999999998 71.605 C 173.78199999999998 73.092 174.35999999999999 74.488 175.41099999999997 75.539 L 180.17699999999996 80.305 C 181.22799999999995 81.35600000000001 182.62399999999997 81.93400000000001 184.11099999999996 81.93400000000001 C 185.59699999999995 81.93400000000001 186.99399999999997 81.35600000000001 188.04499999999996 80.305 L 223.96899999999997 44.38000000000001 C 225.01999999999995 43.32900000000001 225.59899999999996 41.93300000000001 225.59899999999996 40.44600000000001 C 225.59899999999996 38.96100000000001 225.01999999999995 37.56300000000001 223.96899999999997 36.512000000000015 L 219.20399999999998 31.746000000000016 C 218.11899999999997 30.662000000000017 216.694 30.120000000000015 215.26999999999998 30.120000000000015 z" stroke-linecap="round" />
</g>
		<g transform="matrix(2 0 0 2 213.82 -214.41)"  >
<path style="stroke: none; stroke-width: 1; stroke-dasharray: none; stroke-linecap: butt; stroke-dashoffset: 0; stroke-linejoin: miter; stroke-miterlimit: 4; fill: rgb(105,5,137); fill-rule: nonzero; opacity: 1;" vector-effect="non-scaling-stroke"  transform=" translate(-234.91, -20.8)" d="M 230.73 39.309 C 228.28199999999998 39.309 225.832 38.376 223.968 36.512 L 219.203 31.746000000000002 C 217.39600000000002 29.94 216.401 27.539 216.401 24.984 C 216.401 22.430000000000003 217.39600000000002 20.029000000000003 219.203 18.222 L 231.353 6.072000000000001 C 236.39600000000002 1.0290000000000008 244.59900000000002 1.0290000000000008 249.642 6.072000000000001 C 254.683 11.114 254.683 19.319000000000003 249.642 24.361000000000004 L 237.492 36.511 C 235.629 38.376000000000005 233.17999999999998 39.309000000000005 230.73 39.309000000000005 z M 240.499 6.287999999999997 C 238.212 6.287999999999997 235.924 7.158999999999997 234.183 8.899999999999997 L 222.033 21.049999999999997 C 220.982 22.100999999999996 220.403 23.497999999999998 220.403 24.983999999999998 C 220.403 26.47 220.982 27.866999999999997 222.033 28.918 L 226.79799999999997 33.684 C 227.84899999999996 34.735 229.24599999999998 35.314 230.73199999999997 35.314 C 232.21799999999996 35.314 233.61599999999996 34.735 234.66599999999997 33.684 L 246.81599999999997 21.534 C 250.29799999999997 18.052 250.29799999999997 12.383999999999999 246.81599999999997 8.901 C 245.07399999999998 7.159 242.78599999999997 6.288 240.49899999999997 6.288 z" stroke-linecap="round" />
</g>
		<g transform="matrix(2 0 0 2 75.37 -75.95)"  >
<path style="stroke: none; stroke-width: 1; stroke-dasharray: none; stroke-linecap: butt; stroke-dashoffset: 0; stroke-linejoin: miter; stroke-miterlimit: 4; fill: rgb(105,5,137); fill-rule: nonzero; opacity: 1;" vector-effect="non-scaling-stroke"  transform=" translate(-165.69, -90.03)" d="M 83.141 174.574 C 82.629 174.574 82.11800000000001 174.37900000000002 81.727 173.988 C 80.946 173.207 80.946 171.941 81.727 171.16 L 246.815 6.072000000000003 C 247.596 5.291000000000003 248.862 5.291000000000003 249.643 6.072000000000003 C 250.424 6.853000000000002 250.424 8.119000000000003 249.643 8.900000000000002 L 84.555 173.988 C 84.164 174.379 83.652 174.574 83.141 174.574 z" stroke-linecap="round" />
</g>
		<g transform="matrix(2 0 0 2 -151.3 141.99)"  >
<path style="stroke: none; stroke-width: 1; stroke-dasharray: none; stroke-linecap: butt; stroke-dashoffset: 0; stroke-linejoin: miter; stroke-miterlimit: 4; fill: rgb(105,5,137); fill-rule: nonzero; opacity: 1;" vector-effect="non-scaling-stroke"  transform=" translate(-52.35, -199)" d="M 48 205.348 C 47.488 205.348 46.977 205.15300000000002 46.586 204.762 C 45.805 203.981 45.805 202.715 46.586 201.934 L 55.286 193.234 C 56.067 192.453 57.333 192.453 58.114000000000004 193.234 C 58.89500000000001 194.01500000000001 58.895 195.281 58.114000000000004 196.062 L 49.414 204.762 C 49.023 205.152 48.512 205.348 48 205.348 z" stroke-linecap="round" />
</g>
		<g transform="matrix(2 0 0 2 -213.83 -214.41)"  >
<path style="stroke: none; stroke-width: 1; stroke-dasharray: none; stroke-linecap: butt; stroke-dashoffset: 0; stroke-linejoin: miter; stroke-miterlimit: 4; fill: rgb(252,194,76); fill-rule: nonzero; opacity: 1;" vector-effect="non-scaling-stroke"  transform=" translate(-21.08, -20.8)" d="M 7.771 7.486 C 12.04 3.2169999999999996 18.962 3.2169999999999996 23.232 7.486 L 35.382 19.636 C 38.336 22.59 38.336 27.378 35.382 30.332 L 30.616999999999997 35.097 C 27.663999999999998 38.050000000000004 22.874999999999996 38.050000000000004 19.921 35.097 L 7.770999999999999 22.947000000000003 C 3.5009999999999994 18.678000000000004 3.5009999999999994 11.756000000000002 7.770999999999999 7.486000000000002 z" stroke-linecap="round" />
</g>
		<g transform="matrix(2 0 0 2 -50.14 -50.72)"  >
<path style="stroke: none; stroke-width: 1; stroke-dasharray: none; stroke-linecap: butt; stroke-dashoffset: 0; stroke-linejoin: miter; stroke-miterlimit: 4; fill: rgb(252,194,76); fill-rule: nonzero; opacity: 1;" vector-effect="non-scaling-stroke"  transform=" translate(-102.93, -102.65)" d="M 77.237 81.718 L 82.002 76.953 C 84.955 74 89.744 74 92.697 76.953 L 128.621 112.87700000000001 C 131.57500000000002 115.83000000000001 131.57500000000002 120.61900000000001 128.621 123.572 L 123.85600000000001 128.337 C 120.903 131.291 116.114 131.291 113.16000000000001 128.337 L 77.23700000000001 92.41299999999998 C 74.28300000000002 89.45999999999998 74.28300000000002 84.67099999999998 77.23700000000001 81.71799999999999 z" stroke-linecap="round" />
</g>
		<g transform="matrix(2 0 0 2 -143.38 -143.96)"  >
<path style="stroke: none; stroke-width: 1; stroke-dasharray: none; stroke-linecap: butt; stroke-dashoffset: 0; stroke-linejoin: miter; stroke-miterlimit: 4; fill: rgb(252,194,76); fill-rule: nonzero; opacity: 1;" vector-effect="non-scaling-stroke"  transform=" translate(-56.31, -56.03)" d="M 30.617 35.098 L 35.382 30.333 C 38.336 27.378999999999998 43.123999999999995 27.378999999999998 46.077999999999996 30.333 L 82.002 66.257 C 84.955 69.21000000000001 84.955 73.99900000000001 82.002 76.953 L 77.237 81.718 C 74.283 84.671 69.49499999999999 84.671 66.541 81.718 L 30.616999999999997 45.793000000000006 C 27.662999999999997 42.84 27.662999999999997 38.05100000000001 30.616999999999997 35.098000000000006 z" stroke-linecap="round" />
</g>
		<g transform="matrix(2 0 0 2 43.1 42.52)"  >
<path style="stroke: none; stroke-width: 1; stroke-dasharray: none; stroke-linecap: butt; stroke-dashoffset: 0; stroke-linejoin: miter; stroke-miterlimit: 4; fill: rgb(252,194,76); fill-rule: nonzero; opacity: 1;" vector-effect="non-scaling-stroke"  transform=" translate(-149.55, -149.26)" d="M 123.856 128.337 L 128.62099999999998 123.57199999999999 C 131.575 120.61899999999999 136.36299999999997 120.61899999999999 139.31699999999998 123.57199999999999 L 175.24099999999999 159.49599999999998 C 178.195 162.45 178.195 167.23799999999997 175.24099999999999 170.19199999999998 L 170.476 174.95699999999997 C 167.523 177.90999999999997 162.734 177.90999999999997 159.781 174.95699999999997 L 123.857 139.03299999999996 C 120.903 136.07899999999995 120.903 131.29099999999997 123.856 128.33699999999996 z" stroke-linecap="round" />
</g>
		<g transform="matrix(2 0 0 2 99.69 99.12)"  >
<path style="stroke: none; stroke-width: 1; stroke-dasharray: none; stroke-linecap: butt; stroke-dashoffset: 0; stroke-linejoin: miter; stroke-miterlimit: 4; fill: rgb(82,111,170); fill-rule: nonzero; opacity: 1;" vector-effect="non-scaling-stroke"  transform=" translate(-177.85, -177.56)" d="M 161.464 183.969 L 184.254 161.179 C 187.00799999999998 158.425 191.474 158.425 194.22799999999998 161.179 C 196.98199999999997 163.933 196.98199999999997 168.399 194.22799999999998 171.153 L 171.438 193.94299999999998 C 168.684 196.69699999999997 164.218 196.69699999999997 161.464 193.94299999999998 C 158.71 191.189 158.71 186.724 161.464 183.969 z" stroke-linecap="round" />
</g>
		<g transform="matrix(2 0 0 2 171.1 170.53)"  >
<path style="stroke: none; stroke-width: 1; stroke-dasharray: none; stroke-linecap: butt; stroke-dashoffset: 0; stroke-linejoin: miter; stroke-miterlimit: 4; fill: rgb(244,239,237); fill-rule: nonzero; opacity: 1;" vector-effect="non-scaling-stroke"  transform=" translate(-213.55, -213.27)" d="M 248.798 248.514 C 253.068 244.245 253.068 237.323 248.798 233.053 L 190.564 174.819 L 175.10299999999998 190.28 L 233.337 248.514 C 237.607 252.78300000000002 244.529 252.78300000000002 248.798 248.514 z" stroke-linecap="round" />
</g>
		<g transform="matrix(2 0 0 2 181.22 169.51)"  >
<path style="stroke: none; stroke-width: 1; stroke-dasharray: none; stroke-linecap: butt; stroke-dashoffset: 0; stroke-linejoin: miter; stroke-miterlimit: 4; fill: rgb(214,209,207); fill-rule: nonzero; opacity: 1;" vector-effect="non-scaling-stroke"  transform=" translate(-218.61, -212.76)" d="M 243.45 238.4 L 185.21599999999998 180.166 L 190.564 174.81799999999998 L 248.798 233.052 C 253.067 237.321 253.068 244.244 248.798 248.513 C 247.857 249.454 246.782 250.17600000000002 245.639 250.702 C 247.5 246.664 246.77800000000002 241.728 243.45000000000002 238.4 z" stroke-linecap="round" />
</g>
		<g transform="matrix(2 0 0 2 119.2 79.61)"  >
<path style="stroke: none; stroke-width: 1; stroke-dasharray: none; stroke-linecap: butt; stroke-dashoffset: 0; stroke-linejoin: miter; stroke-miterlimit: 4; fill: rgb(52,81,140); fill-rule: nonzero; opacity: 1;" vector-effect="non-scaling-stroke"  transform=" translate(-187.6, -167.81)" d="M 188.88 166.527 C 186.126 163.773 181.66 163.773 178.906 166.527 L 184.25400000000002 161.17899999999997 C 187.008 158.42499999999998 191.47400000000002 158.42499999999998 194.228 161.17899999999997 C 196.982 163.93299999999996 196.982 168.39899999999997 194.228 171.15299999999996 L 188.88 176.50099999999998 C 191.635 173.74699999999999 191.635 169.28199999999998 188.88 166.527 z" stroke-linecap="round" />
</g>
		<g transform="matrix(2 0 0 2 45.29 40.33)"  >
<path style="stroke: none; stroke-width: 1; stroke-dasharray: none; stroke-linecap: butt; stroke-dashoffset: 0; stroke-linejoin: miter; stroke-miterlimit: 4; fill: rgb(222,164,46); fill-rule: nonzero; opacity: 1;" vector-effect="non-scaling-stroke"  transform=" translate(-150.64, -148.17)" d="M 170.428 164.309 L 134.504 128.385 C 131.559 125.44 126.78899999999999 125.43299999999999 123.833 128.362 C 123.841 128.35399999999998 123.848 128.345 123.856 128.337 L 128.62099999999998 123.57199999999999 C 131.575 120.61899999999999 136.36299999999997 120.61899999999999 139.31699999999998 123.57199999999999 L 175.24099999999999 159.49599999999998 C 178.195 162.44899999999998 178.195 167.23799999999997 175.24099999999999 170.19199999999998 L 170.476 174.95699999999997 C 170.468 174.96499999999997 170.459 174.97099999999998 170.451 174.97999999999996 C 173.381 172.02499999999995 173.374 167.25499999999997 170.428 164.30899999999997 z" stroke-linecap="round" />
</g>
		<g transform="matrix(2 0 0 2 -47.95 -52.91)"  >
<path style="stroke: none; stroke-width: 1; stroke-dasharray: none; stroke-linecap: butt; stroke-dashoffset: 0; stroke-linejoin: miter; stroke-miterlimit: 4; fill: rgb(222,164,46); fill-rule: nonzero; opacity: 1;" vector-effect="non-scaling-stroke"  transform=" translate(-104.02, -101.55)" d="M 123.809 117.689 L 87.884 81.76499999999999 C 84.93900000000001 78.82 80.169 78.81299999999999 77.213 81.74199999999999 C 77.22099999999999 81.734 77.228 81.725 77.23599999999999 81.71699999999998 L 82.00099999999999 76.95199999999998 C 84.954 73.99899999999998 89.743 73.99799999999999 92.696 76.95199999999998 L 128.62 112.87599999999998 C 131.574 115.82899999999998 131.573 120.61799999999998 128.62 123.57099999999997 L 123.855 128.33599999999996 C 123.84700000000001 128.34399999999997 123.83800000000001 128.35099999999994 123.83 128.35899999999995 C 126.761 125.40499999999996 126.754 120.63499999999995 123.809 117.68899999999995 z" stroke-linecap="round" />
</g>
		<g transform="matrix(2 0 0 2 -141.19 -146.15)"  >
<path style="stroke: none; stroke-width: 1; stroke-dasharray: none; stroke-linecap: butt; stroke-dashoffset: 0; stroke-linejoin: miter; stroke-miterlimit: 4; fill: rgb(222,164,46); fill-rule: nonzero; opacity: 1;" vector-effect="non-scaling-stroke"  transform=" translate(-57.41, -54.93)" d="M 77.189 71.07 L 41.26499999999999 35.145999999999994 C 38.31999999999999 32.20099999999999 33.55 32.193999999999996 30.593999999999994 35.12299999999999 C 30.601999999999993 35.11499999999999 30.608999999999995 35.10599999999999 30.616999999999994 35.09799999999999 L 35.38199999999999 30.33299999999999 C 38.33599999999999 27.37899999999999 43.12399999999999 27.37899999999999 46.07699999999999 30.33299999999999 L 82.00099999999999 66.25699999999999 C 84.95499999999998 69.21099999999998 84.954 73.999 82.00099999999999 76.95299999999999 L 77.23599999999999 81.71799999999999 C 77.228 81.72599999999998 77.219 81.73299999999999 77.21099999999998 81.74 C 80.14099999999999 78.785 80.13399999999999 74.015 77.18899999999998 71.07 z" stroke-linecap="round" />
</g>
		<g transform="matrix(2 0 0 2 -212.6 -216.73)"  >
<path style="stroke: none; stroke-width: 1; stroke-dasharray: none; stroke-linecap: butt; stroke-dashoffset: 0; stroke-linejoin: miter; stroke-miterlimit: 4; fill: rgb(222,164,46); fill-rule: nonzero; opacity: 1;" vector-effect="non-scaling-stroke"  transform=" translate(-21.7, -19.64)" d="M 30.722 24.298 L 18.571 12.146999999999998 C 15.114 8.689999999999998 9.919000000000002 8.033999999999999 5.800000000000001 10.175999999999998 C 6.303000000000001 9.207999999999998 6.9590000000000005 8.298999999999998 7.771000000000001 7.486999999999998 C 12.040000000000001 3.217999999999998 18.963 3.217999999999998 23.232 7.486999999999998 L 35.382999999999996 19.637 C 38.336 22.59 38.336 27.379 35.382999999999996 30.333 L 30.722999999999995 34.992999999999995 C 33.675 32.03999999999999 33.675 27.250999999999994 30.721999999999994 24.297999999999995 z" stroke-linecap="round" />
</g>
		<g transform="matrix(2 0 0 2 171.1 170.53)"  >
<path style="stroke: none; stroke-width: 1; stroke-dasharray: none; stroke-linecap: butt; stroke-dashoffset: 0; stroke-linejoin: miter; stroke-miterlimit: 4; fill: rgb(105,5,137); fill-rule: nonzero; opacity: 1;" vector-effect="non-scaling-stroke"  transform=" translate(-213.55, -213.27)" d="M 241.067 253.716 C 237.613 253.716 234.365 252.37 231.922 249.928 L 173.688 191.694 C 172.90699999999998 190.91299999999998 172.90699999999998 189.647 173.688 188.86599999999999 L 189.149 173.40499999999997 C 189.93 172.62399999999997 191.196 172.62399999999997 191.977 173.40499999999997 L 250.211 231.63899999999998 C 252.65300000000002 234.081 253.99900000000002 237.32899999999998 253.99900000000002 240.784 C 253.99900000000002 244.239 252.65300000000002 247.486 250.211 249.929 C 247.77 252.37 244.52100000000002 253.716 241.067 253.716 z M 177.931 190.279 L 234.751 247.099 C 236.439 248.78699999999998 238.68200000000002 249.715 241.067 249.715 C 243.453 249.715 245.696 248.786 247.383 247.099 C 249.07000000000002 245.41199999999998 249.99900000000002 243.16799999999998 249.99900000000002 240.783 C 249.99900000000002 238.398 249.07000000000002 236.154 247.383 234.46699999999998 L 190.56300000000002 177.647 z" stroke-linecap="round" />
</g>
		<g transform="matrix(2 0 0 2 99.69 99.11)"  >
<path style="stroke: none; stroke-width: 1; stroke-dasharray: none; stroke-linecap: butt; stroke-dashoffset: 0; stroke-linejoin: miter; stroke-miterlimit: 4; fill: rgb(105,5,137); fill-rule: nonzero; opacity: 1;" vector-effect="non-scaling-stroke"  transform=" translate(-177.85, -177.56)" d="M 166.451 198.005 C 164.13299999999998 198.005 161.814 197.123 160.04999999999998 195.358 C 156.521 191.829 156.521 186.086 160.04999999999998 182.556 L 182.83999999999997 159.76600000000002 C 184.54899999999998 158.056 186.82199999999997 157.11400000000003 189.24099999999999 157.11400000000003 C 191.659 157.11400000000003 193.932 158.05600000000004 195.642 159.76600000000002 C 199.171 163.29500000000002 199.171 169.03900000000002 195.642 172.56900000000002 L 172.852 195.358 C 171.088 197.122 168.77 198.005 166.451 198.005 z M 189.24099999999999 161.113 C 187.891 161.113 186.62199999999999 161.639 185.66799999999998 162.593 L 162.878 185.38299999999998 C 160.908 187.35299999999998 160.908 190.55899999999997 162.878 192.528 C 164.849 194.499 168.05399999999997 194.499 170.02399999999997 192.528 L 192.81399999999996 169.73899999999998 C 194.78399999999996 167.76799999999997 194.78399999999996 164.56199999999998 192.81399999999996 162.593 C 191.85899999999995 161.64 190.59099999999995 161.113 189.24099999999996 161.113 z" stroke-linecap="round" />
</g>
		<g transform="matrix(2 0 0 2 43.1 42.52)"  >
<path style="stroke: none; stroke-width: 1; stroke-dasharray: none; stroke-linecap: butt; stroke-dashoffset: 0; stroke-linejoin: miter; stroke-miterlimit: 4; fill: rgb(105,5,137); fill-rule: nonzero; opacity: 1;" vector-effect="non-scaling-stroke"  transform=" translate(-149.55, -149.26)" d="M 165.128 179.167 C 162.67999999999998 179.167 160.231 178.235 158.36599999999999 176.371 L 122.44199999999998 140.447 C 118.71399999999998 136.718 118.71399999999998 130.651 122.44199999999998 126.923 L 127.20799999999998 122.158 C 129.01399999999998 120.351 131.415 119.356 133.96999999999997 119.356 C 136.52499999999995 119.356 138.92599999999996 120.351 140.73199999999997 122.158 L 176.65599999999998 158.082 C 178.46299999999997 159.888 179.45799999999997 162.289 179.45799999999997 164.844 C 179.45799999999997 167.399 178.46299999999997 169.79999999999998 176.65599999999998 171.606 L 171.891 176.37199999999999 C 170.02599999999998 178.23499999999999 167.577 179.16699999999997 165.128 179.16699999999997 z M 125.27099999999999 129.751 C 123.10299999999998 131.92000000000002 123.10299999999998 135.45000000000002 125.27099999999999 137.619 L 161.195 173.543 C 163.367 175.713 166.89499999999998 175.71 169.063 173.543 L 173.82799999999997 168.77700000000002 C 174.87899999999996 167.72600000000003 175.45799999999997 166.33 175.45799999999997 164.84300000000002 C 175.45799999999997 163.35700000000003 174.87899999999996 161.96 173.82799999999997 160.90900000000002 L 137.90399999999997 124.98500000000001 C 136.85299999999998 123.93400000000001 135.45699999999997 123.35500000000002 133.96999999999997 123.35500000000002 C 132.48399999999998 123.35500000000002 131.08699999999996 123.93400000000001 130.03599999999997 124.98500000000001 z" stroke-linecap="round" />
</g>
		<g transform="matrix(2 0 0 2 -50.15 -50.71)"  >
<path style="stroke: none; stroke-width: 1; stroke-dasharray: none; stroke-linecap: butt; stroke-dashoffset: 0; stroke-linejoin: miter; stroke-miterlimit: 4; fill: rgb(105,5,137); fill-rule: nonzero; opacity: 1;" vector-effect="non-scaling-stroke"  transform=" translate(-102.93, -102.65)" d="M 118.509 132.553 C 115.954 132.553 113.553 131.558 111.747 129.751 L 75.822 93.827 C 74.015 92.021 73.021 89.62 73.021 87.065 C 73.021 84.50999999999999 74.015 82.109 75.822 80.303 L 80.58800000000001 75.53699999999999 C 84.31700000000001 71.80799999999999 90.38300000000001 71.80799999999999 94.111 75.53699999999999 L 130.036 111.46199999999999 C 133.76500000000001 115.18999999999998 133.76500000000001 121.25599999999999 130.036 124.98499999999999 L 125.27 129.74999999999997 C 123.46499999999999 131.55799999999996 121.063 132.55299999999997 118.509 132.55299999999997 z M 87.35 76.737 C 85.86399999999999 76.737 84.467 77.315 83.416 78.366 L 78.64999999999999 83.132 C 77.59899999999999 84.183 77.02099999999999 85.57900000000001 77.02099999999999 87.066 C 77.02099999999999 88.552 77.59899999999999 89.949 78.64999999999999 91 L 114.57499999999999 126.924 C 115.62599999999999 127.97500000000001 117.02199999999999 128.554 118.50899999999999 128.554 C 119.99499999999999 128.554 121.39199999999998 127.97500000000001 122.44299999999998 126.924 L 127.20899999999999 122.159 C 129.37699999999998 119.99000000000001 129.37699999999998 116.46100000000001 127.20899999999999 114.292 L 91.28299999999999 78.366 C 90.23199999999999 77.315 88.83599999999998 76.737 87.35 76.737 z" stroke-linecap="round" />
</g>
		<g transform="matrix(2 0 0 2 -143.38 -143.96)"  >
<path style="stroke: none; stroke-width: 1; stroke-dasharray: none; stroke-linecap: butt; stroke-dashoffset: 0; stroke-linejoin: miter; stroke-miterlimit: 4; fill: rgb(105,5,137); fill-rule: nonzero; opacity: 1;" vector-effect="non-scaling-stroke"  transform=" translate(-56.31, -56.02)" d="M 71.889 85.929 C 69.44 85.929 66.991 84.996 65.127 83.132 L 29.202999999999996 47.20700000000001 C 27.395999999999997 45.40100000000001 26.400999999999996 43.00000000000001 26.400999999999996 40.44500000000001 C 26.400999999999996 37.891000000000005 27.395999999999997 35.49000000000001 29.202999999999996 33.68300000000001 L 33.967999999999996 28.91700000000001 C 37.696 25.189000000000007 43.763 25.18800000000001 47.492 28.91700000000001 L 83.416 64.84200000000001 C 85.223 66.64800000000001 86.217 69.049 86.217 71.60400000000001 C 86.217 74.15900000000002 85.223 76.56000000000002 83.416 78.36600000000001 L 78.64999999999999 83.13200000000002 C 76.78599999999999 84.99600000000002 74.338 85.92900000000002 71.889 85.92900000000002 z M 40.73 30.120000000000005 C 39.303999999999995 30.120000000000005 37.879999999999995 30.662000000000006 36.794999999999995 31.746000000000006 L 32.029999999999994 36.51200000000001 C 30.978999999999996 37.56300000000001 30.399999999999995 38.96000000000001 30.399999999999995 40.446000000000005 C 30.399999999999995 41.932 30.978999999999996 43.32900000000001 32.029999999999994 44.38 L 67.954 80.305 C 69.005 81.35600000000001 70.401 81.93400000000001 71.88799999999999 81.93400000000001 C 73.374 81.93400000000001 74.77099999999999 81.35600000000001 75.82199999999999 80.305 L 80.588 75.539 C 81.639 74.488 82.217 73.092 82.217 71.605 C 82.217 70.11800000000001 81.639 68.72200000000001 80.588 67.671 L 44.663999999999994 31.74600000000001 C 43.57899999999999 30.66200000000001 42.153999999999996 30.120000000000008 40.73 30.120000000000008 z M 30.616999999999997 35.098000000000006 L 30.627 35.098000000000006 z" stroke-linecap="round" />
</g>
		<g transform="matrix(2 0 0 2 -213.82 -214.41)"  >
<path style="stroke: none; stroke-width: 1; stroke-dasharray: none; stroke-linecap: butt; stroke-dashoffset: 0; stroke-linejoin: miter; stroke-miterlimit: 4; fill: rgb(105,5,137); fill-rule: nonzero; opacity: 1;" vector-effect="non-scaling-stroke"  transform=" translate(-21.09, -20.8)" d="M 25.269 39.309 C 22.820999999999998 39.309 20.371 38.376 18.506999999999998 36.512 L 6.3569999999999975 24.362000000000002 C 1.3159999999999972 19.32 1.3159999999999972 11.115000000000002 6.3569999999999975 6.073 C 11.399999999999999 1.0300000000000002 19.602999999999998 1.0300000000000002 24.646 6.073 L 36.796 18.223 C 38.603 20.029999999999998 39.598 22.430999999999997 39.598 24.985 C 39.598 27.54 38.603 29.941 36.796 31.747 L 32.031 36.513 C 30.166999999999998 38.376 27.718 39.309 25.269 39.309 z M 9.184999999999999 8.899999999999999 C 5.703999999999999 12.381999999999998 5.703999999999999 18.049999999999997 9.184999999999999 21.532999999999998 L 21.335 33.683 C 22.386 34.734 23.783 35.313 25.269000000000002 35.313 C 26.754 35.313 28.152 34.734 29.203000000000003 33.683 L 33.968 28.917 C 35.019000000000005 27.866000000000003 35.598000000000006 26.470000000000002 35.598000000000006 24.983 C 35.598000000000006 23.498 35.019000000000005 22.1 33.968 21.049 L 21.817000000000004 8.9 C 18.335000000000004 5.418 12.667000000000003 5.418 9.185000000000004 8.9 z" stroke-linecap="round" />
</g>
		<g transform="matrix(2 0 0 2 -75.37 -75.95)"  >
<path style="stroke: none; stroke-width: 1; stroke-dasharray: none; stroke-linecap: butt; stroke-dashoffset: 0; stroke-linejoin: miter; stroke-miterlimit: 4; fill: rgb(105,5,137); fill-rule: nonzero; opacity: 1;" vector-effect="non-scaling-stroke"  transform=" translate(-90.31, -90.03)" d="M 172.859 174.574 C 172.347 174.574 171.836 174.37900000000002 171.44500000000002 173.988 L 6.356000000000023 8.900000000000006 C 5.575000000000023 8.119000000000005 5.575000000000023 6.853000000000005 6.356000000000023 6.072000000000006 C 7.137000000000023 5.2910000000000075 8.403000000000024 5.291000000000007 9.184000000000022 6.072000000000006 L 174.27300000000002 171.16 C 175.05400000000003 171.941 175.05400000000003 173.207 174.27300000000002 173.988 C 173.88300000000004 174.379 173.37100000000004 174.574 172.85900000000004 174.574 z" stroke-linecap="round" />
</g>
</g>
</g>
<g transform="matrix(3.61 0 0 3.61 624 600.86)" style="filter: url(#SVGID_1457);" id="f42727bd-bc40-4e3b-832d-5e77afda711c"  >
<filter id="SVGID_1457" y="-46%" height="192%" x="-54%" width="208%" >
	<feGaussianBlur in="SourceAlpha" stdDeviation="7.5"></feGaussianBlur>
	<feOffset dx="0" dy="0" result="oBlur" ></feOffset>
	<feFlood flood-color="rgb(255,255,0)" flood-opacity="1"/>
	<feComposite in2="oBlur" operator="in" />
	<feMerge>
		<feMergeNode></feMergeNode>
		<feMergeNode in="SourceGraphic"></feMergeNode>
	</feMerge>
</filter>
		<rect opacity="0" fill="rgb(0,0,0)" x="-22.39" y="-28.81" width="44.77" height="57.63"></rect>
		<text xml:space="preserve" font-family="Lato" font-size="51" font-style="normal" font-weight="400" style="stroke: none; stroke-width: 1; stroke-dasharray: none; stroke-linecap: butt; stroke-dashoffset: 0; stroke-linejoin: miter; stroke-miterlimit: 4; fill: rgb(153,204,255); fill-rule: nonzero; opacity: 1; white-space: pre;" ><tspan x="-14.82" y="16.02" >E</tspan></text>
</g>
</svg>