<svg id="Capa_1" enable-background="new 0 0 497 497" height="512" viewBox="0 0 497 497" width="512" xmlns="http://www.w3.org/2000/svg"><g id="_x3C_Group_x3E__37_"><path d="m318.16 400.29-9.327-72.081-16.176-19.773-88.051 2.213-22.562 76.4z" fill="#f2d1a5"/><path d="m376.558 159.594h7.153c17.119 0 30.997 13.907 30.997 31.062 0 23.662-19.142 42.844-42.755 42.844h-246.91c-23.613 0-42.755-19.182-42.755-42.844 0-17.155 13.878-31.062 30.997-31.062h6.428z" fill="#f2bb88"/><path d="m308.828 328.21-4.94-38.22-111.85 5.63-9.99 91.43 16.46 1.6 4.337-45.806c.257-2.72 3.109-4.423 5.601-3.303 13.484 6.056 26.885 9.11 40.052 9.11 19.75-.001 40.03-6.871 60.33-20.441z" fill="#f2bb88"/><path d="m262.434 14.989c1.087-.023 46.638 9.532 46.638 9.532l58.553 133.329s8.919 8.546 8.865 13.86c-.428 42.492-3.448 63.492-23.124 90.794-30.533 42.368-68.568 71.144-104.869 71.144s-74.336-28.776-104.869-71.144c-19.185-26.621-22.535-47.251-23.087-87.652-.085-6.217 8.963-12.119 8.963-19.366 0-29.549 3.026-56.329 12.078-78.54 6.848-16.802 16.527-27.607 29.936-39.83.001.001 61.317-21.508 90.916-22.127z" fill="#f2d1a5"/><path d="m376.558 154.7c0 6.04-.01 11.7-.06 17.01-17.7-.03-33.65-12.73-48.79-38.82-8.93-15.39-15.91-32.68-20.01-43.87-17.73 4.6-46.74 5.13-59.2 5.13-12.43 0-41.33-.53-59.04-5.08-4.06 11.47-10.94 29.18-19.71 45-14.87 26.81-30.61 40.14-48.11 40.76l-.92.02h-.17c-.077-5.309-.103-10.953-.109-17-.001-1.038 4.603-8.715 4.603-9.777 0-29.54 11.235-49.938 20.285-72.148 6.85-16.81 29.617-41.191 29.617-41.191 21.88-19.94 42.848-26.925 72.448-27.544 1.09-.02 2.18-.03 3.28-.03 52.138 0 81.752 30.579 101.634 71.765 10.892 22.563 24.252 42.75 24.252 75.775z" fill="#f2bb88"/><path d="m376.558 154.7v.01c-25.52 0-47.36-55.6-54.51-76.02-1.56-4.44-5.62-7.5-10.31-7.8-.07 0-.15-.01-.23-.01-1.6-.11-3.18.13-4.69.67-21 7.47-95.64 7.47-116.64 0-1.51-.54-3.09-.78-4.69-.67h-.14c-4.73.31-8.83 3.43-10.34 7.94-5.142 15.237-18.021 49.815-34.444 67.757 0 0-8.068 5.419-14.922 5.66l-.6.01v-3.15c0-29.54 7.49-49.939 16.54-72.15 6.85-16.81 16.526-28.801 29.936-41.021 0 0 43.996-34.508 73.596-35.128 1.09-.02 2.18-.03 3.28-.03 3.143 0 6.339-.675 9.38-.49 75.041 4.553 118.784 64.746 118.784 154.422z" fill="#ab7b64"/><path d="m258.838.35c-27.27 2.04-53.08 13.53-73.38 32.03l-.25.24c-13.41 12.22-24.12 27.17-30.97 43.98-8.21 20.15-12.88 43.72-13.67 69.98-6.1 6.66-12.68 11.02-19.53 11.26l-.6.01v-3.15c0-29.54 4.75-55.89 13.8-78.1 6.85-16.81 17.56-31.76 30.97-43.98l.25-.24c21.88-19.94 50.16-31.73 79.76-32.35 1.09-.02 2.18-.03 3.28-.03 3.51 0 6.96.12 10.34.35z" fill="#9a6a53"/><path d="m384.783 378.682 35.175 6.365c27.043 8.219 27.2 31.004 32.042 58.903l4.123 23.758c2.654 15.29-9.091 29.283-24.579 29.283h-107.139l-15.577-9.322-19.85 9.325-42.033-8.815-38.367 8.815-15.931-9.326-19.491 9.322h-107.704c-4.223 0-8.168-1.04-11.618-2.864-9.204-4.864-6.011-21.975-4.081-33.096l4.085-17.106c4.852-27.959 1.753-43.22 28.873-51.395l36.063-6.492 10.383-7.414z" fill="#6d7c84"/><path d="m145.768 378.63-4.87 15.25-59.42 8.75c-11.17 3.65-13.3 10.22-17.18 34.78-.49 3.13-1 6.37-1.59 9.73l-8.87 46.98c-9.21-4.86-14.89-15.29-12.96-26.41l4.1-23.64c4.85-27.96 5.08-50.78 32.2-58.96l36.07-6.49z" fill="#5f6c75"/><g><path d="m297.132 201.019c-4.143 0-7.5-3.357-7.5-7.5v-16.066c0-4.143 3.357-7.5 7.5-7.5s7.5 3.357 7.5 7.5v16.066c0 4.142-3.358 7.5-7.5 7.5z" fill="#ab7b64"/></g><g><path d="m199.864 201.019c-4.142 0-7.5-3.357-7.5-7.5v-16.066c0-4.143 3.358-7.5 7.5-7.5s7.5 3.357 7.5 7.5v16.066c0 4.142-3.358 7.5-7.5 7.5z" fill="#ab7b64"/></g><g><path d="m317.968 158.172c-1.24 0-2.497-.308-3.656-.956-10.115-5.662-24.244-5.662-34.359 0-3.613 2.023-8.184.734-10.208-2.882-2.022-3.614-.732-8.185 2.882-10.208 14.658-8.203 34.354-8.203 49.012 0 3.614 2.023 4.904 6.594 2.882 10.208-1.377 2.455-3.926 3.838-6.553 3.838z" fill="#ab7b64"/></g><g><path d="m179.028 158.172c-2.627 0-5.177-1.383-6.552-3.838-2.023-3.614-.732-8.185 2.882-10.208 14.658-8.204 34.354-8.204 49.012 0 3.614 2.023 4.905 6.594 2.881 10.208-2.022 3.615-6.592 4.905-10.208 2.882-10.115-5.663-24.246-5.662-34.36 0-1.158.648-2.416.956-3.655.956z" fill="#ab7b64"/></g><g><path d="m249.032 242.093c-6.309 0-12.617-1.468-18.368-4.404-3.689-1.884-5.153-6.401-3.269-10.09 1.884-3.691 6.401-5.154 10.09-3.27 7.23 3.692 15.864 3.691 23.094 0 3.688-1.884 8.206-.42 10.09 3.27 1.884 3.688.42 8.206-3.27 10.09-5.749 2.935-12.059 4.404-18.367 4.404z" fill="#f2bb88"/></g><g><path d="m248.506 291.132c-.25 0-.499-.002-.751-.006-12.622-.214-21.725-5.838-26.028-9.17-3.275-2.537-3.873-7.248-1.336-10.522 2.536-3.275 7.247-3.874 10.522-1.337 2.83 2.192 8.814 5.891 17.097 6.031 9.081.154 15.667-4.167 18.076-6.031 3.272-2.537 7.985-1.939 10.521 1.338 2.536 3.274 1.938 7.985-1.338 10.521-4.462 3.456-13.811 9.176-26.763 9.176z" fill="#f2bb88"/></g><path d="m275.059 367.668h-38.891l-11.521 2.853 6.511 37.149 30.765.128 14.809-14.255z" fill="#f7f9fa"/><path d="m269.658 396.9-2.58 14-18.58 4.43-18.58-4.43-8.973-22.889.993-20.341h14.23l4.947 26.775c.263 1.423 1.503 2.455 2.95 2.455z" fill="#e9edf1"/><path d="m280.306 492.947-65.702-.17 17.532-78.298 13.242-3.577h21.698l18.087 71.097z" fill="#f7f9fa"/><path d="m288.978 497h-80.4l21.34-86.1h15.46l-16.083 64.897c-.781 3.153 1.605 6.203 4.853 6.203h51.01z" fill="#e9edf1"/><path d="m354.732 380.606-52.197 15.559-32.058 11.632 2.936-13.787 5.362-23.106c3.911-1.766 4.892-7.46 9.904-10.884 1.742-1.19 3.522-2.496 5.32-3.931 7.09-5.65 12.22-11.5 15.77-16.23.02-.03.193-.25.493-.61z" fill="#6d7c84"/><path d="m223.742 404.096-28.643-7.396-77.243-18.667 54.707-18.788 14.701-19.925c.71.88 1.115 1.45 1.195 1.56 3.2 4.45 7.85 9.93 14.33 15.21 1.883 1.536 3.75 2.917 5.572 4.157 5.07 3.449 6.464 10.408 10.244 12.019l1.527 12.29z" fill="#6d7c84"/><g fill="#5f6c75"><g><path d="m370.817 379.84-4.239-10.8-64.67 18.76-16.283 4.724c-1.429.415-2.794-.821-2.524-2.284l5.577-30.22c-5.01 3.42-9.71 5.88-13.62 7.65l-5.16 27.93-.289 1.57h-.001l-2.53 13.73 12.9-3.74v-.001l21.93-6.359z"/><path d="m221.938 367.67c-3.78-1.61-8.51-3.97-13.58-7.42l5.53 29.926c.271 1.466-1.1 2.702-2.53 2.283l-15.701-4.608-60.541-17.752-16.342 8.636 76.883 22.116 34.26 10.05-3.61-19.54z"/></g><path d="m173.156 496.992s-8.949-55.819-59.912-118.37l22.043-11.858 30.907-16.35 21.07-11.094 3.665 26.359 7.415 55.161 10.238 76.16z"/><path d="m288.98 497 10.331-76.851 7.296-54.27 3.655-26.63 74.521 39.432c-12.481 15.318-31.345 48.075-39.275 61.882l-7.212 13.253c-11.132 25.979-13.89 43.175-13.89 43.175z"/></g><path d="m338.402 441.734 6.336-1.088h59.316c2.756 0 4.99 2.239 4.99 5v12.004l-4.768 4.425c0 2.761-2.234 5-4.99 5l-60.126-.277c-2.756 0-4.99-2.239-4.99-5l-.757-15.064c0-2.761 2.234-5 4.989-5z" fill="#ffd064"/><path d="m409.048 457.65v8c0 2.76-2.24 5-4.99 5h-67.33c-2.76 0-4.99-2.24-4.99-5v-20c0-2.77 2.23-5 4.99-5h8.01v14c0 1.65 1.34 3 3 3z" fill="#ffc250"/></g></svg>