<svg height="512" viewBox="0 0 64 64" width="512" xmlns="http://www.w3.org/2000/svg"><g id="outline"><path d="m18 50h8v-6h-8zm2-4h4v2h-4z"/><path d="m6 50h8v-6h-8zm2-4h4v2h-4z"/><path d="m6 56h2v2h-2z"/><path d="m24 56h2v2h-2z"/><path d="m6 52h2v2h-2z"/><path d="m38 50h8v-6h-8zm2-4h4v2h-4z"/><path d="m50 50h8v-6h-8zm2-4h4v2h-4z"/><path d="m56 56h2v2h-2z"/><path d="m38 56h2v2h-2z"/><path d="m48 36a15.364 15.364 0 0 0 -7.314 1.886l-1.521-9.886h1.835v-6h-2v-6h2v-4.618l-2.764-1.382h-5.236v-2h8v-6h-10v8h-5.236l-2.764 1.382v4.618h2v6h-2v6h1.764l.065.033-1.515 9.853a15.364 15.364 0 0 0 -7.314-1.886c-7.755 0-14 6.018-14 11v15h28v-15a8.057 8.057 0 0 0 -1.209-4h6.418a8.047 8.047 0 0 0 -1.209 4v15h28v-15c0-4.982-6.245-11-14-11zm-9-30h-6v-2h6zm10 32.048v1.952h-2v-1.952c.33-.025.661-.048 1-.048s.67.023 1 .048zm-11.2-5.766-8.564-4.282h7.906zm-12.8-19.664 1.236-.618h11.528l1.236.618v1.382h-14zm2 3.382h10v6h-10zm-2 8h14v2h-14zm9.764 9h-8.675l.619-4.028zm-17.764 5.048v1.952h-2v-1.952c.33-.025.661-.048 1-.048s.67.023 1 .048zm-5 21.952v-6h8v6zm16 0h-6v-8h-12v8h-6v-13c0-3.078 3.641-7.406 9-8.646v1.646h-2v2h10v-2h-2v-1.646c5.359 1.24 9 5.568 9 8.646zm-.689-19a14.447 14.447 0 0 0 -2.154-1.948l.523-3.4 8.02 5.348zm.992-6h9.916l.624 4.052a14.531 14.531 0 0 0 -1.92 1.7zm15.697 25v-6h8v6zm16 0h-6v-8h-12v8h-6v-13c0-3.078 3.641-7.406 9-8.646v1.646h-2v2h10v-2h-2v-1.646c5.359 1.24 9 5.568 9 8.646z"/><path d="m56 52h2v2h-2z"/></g></svg>