<svg id="Layer_1" enable-background="new 0 0 512 512" height="512" viewBox="0 0 512 512" width="512" xmlns="http://www.w3.org/2000/svg"><g><g><g><g><g><path d="m129.634 383.24 83.908-314.62c102.755-213.135 452.912 127.958 204.203 241.406l-410.966 187.461z" fill="#91a8dd"/></g></g></g></g><path d="m288.189 2.831c125.896 26.069 257.007 225.563 78.047 307.195l-43.685 19.927 3.501 16.115 91.693-36.042c203.917-93.016 5.252-339.061-129.556-307.195z" fill="#7c96d1"/><path d="m212.621 71.482-163.877 339.154c-6.711 13.89-3.567 30.537 7.748 41.016l236.658-218.19s-110.587-70.019-80.529-161.98z" fill="#b5ceff"/><path d="m417.745 310.026-353.337 195.954c-18.926 10.496-42.53 7.017-57.629-8.493l221.841-254.487s72.502 111.23 189.125 67.026z" fill="#e9f2ff"/></g></svg>