<?xml version="1.0" encoding="UTF-8" standalone="no" ?>
<!DOCTYPE svg PUBLIC "-//W3C//DTD SVG 1.1//EN" "http://www.w3.org/Graphics/SVG/1.1/DTD/svg11.dtd">
<svg xmlns="http://www.w3.org/2000/svg" xmlns:xlink="http://www.w3.org/1999/xlink" version="1.1" width="720" height="720" viewBox="0 0 720 720" xml:space="preserve">
<desc>Created with Fabric.js 4.2.0</desc>
<defs>
</defs>
<rect x="0" y="0" width="100%" height="100%" fill="transparent"></rect>
<g transform="matrix(1 0 0 1 360 360)" id="1b611884-6b14-41d1-85aa-cb9b3af04acb"  >
<rect style="stroke: none; stroke-width: 1; stroke-dasharray: none; stroke-linecap: butt; stroke-dashoffset: 0; stroke-linejoin: miter; stroke-miterlimit: 4; fill: rgb(255,255,255); fill-opacity: 0; fill-rule: nonzero; opacity: 1;" vector-effect="non-scaling-stroke"  x="-360" y="-360" rx="0" ry="0" width="720" height="720" />
</g>
<g transform="matrix(0 0 0 0 0 0)" id="099a0cde-e345-4787-9a8d-dbca54d07a07"  >
</g>
<g transform="matrix(-1.36 0 0 -1.36 357.26 357.29)"  >
<g style="" vector-effect="non-scaling-stroke"   >
		<g transform="matrix(1.03 0 0 1.03 94.67 91.72)"  >
<path style="stroke: none; stroke-width: 1; stroke-dasharray: none; stroke-linecap: butt; stroke-dashoffset: 0; stroke-linejoin: miter; stroke-miterlimit: 4; fill: rgb(255,224,125); fill-rule: nonzero; opacity: 1;" vector-effect="non-scaling-stroke"  transform=" translate(-339.44, -336.58)" d="M 488.708 182.927 C 481.65000000000003 178.291 472.17100000000005 180.251 467.531 187.31199999999998 C 456.861 203.55499999999998 445.752 219.414 434.216 234.88599999999997 C 424.685 247.66999999999996 405.351 247.10099999999997 396.615 233.76099999999997 L 392.546 227.54699999999997 L 386.786 222.57599999999996 L 371.194 194.94199999999995 C 367.724 189.64299999999994 360.61600000000004 188.16099999999994 355.317 191.63099999999994 C 350.021 195.09999999999994 348.535 202.20899999999995 352.00600000000003 207.50799999999995 L 354.39000000000004 211.14799999999994 C 357.69100000000003 216.18799999999993 364.27600000000007 224.05399999999995 364.27600000000007 224.05399999999995 L 365.2420000000001 232.80399999999995 C 378.89900000000006 270.3689999999999 370.16100000000006 313.4359999999999 340.81700000000006 342.57899999999995 C 340.4080000000001 342.98599999999993 339.99800000000005 343.39199999999994 339.5880000000001 343.79799999999994 C 310.2370000000001 372.84299999999996 267.1720000000001 381.2869999999999 229.7270000000001 367.38399999999996 L 222.61700000000008 366.92099999999994 L 208.74700000000007 356.7819999999999 L 205.11200000000008 354.40199999999993 C 199.81400000000008 350.9319999999999 192.7030000000001 352.4149999999999 189.23500000000007 357.71399999999994 C 185.76500000000007 363.0129999999999 187.24700000000007 370.12199999999996 192.54600000000008 373.59099999999995 L 219.10600000000008 389.39399999999995 L 224.77100000000007 394.6929999999999 L 230.38300000000007 398.36799999999994 C 243.76300000000006 407.12999999999994 244.31400000000008 426.5779999999999 231.41600000000005 436.03399999999993 C 217.95400000000006 445.90399999999994 204.20300000000006 455.4549999999999 190.16500000000005 464.67599999999993 C 183.10900000000004 469.3159999999999 181.14300000000006 478.7939999999999 185.78000000000006 485.85299999999995 C 190.41700000000006 492.912 199.89800000000005 494.87499999999994 206.95700000000005 490.239 C 263.65200000000004 452.99699999999996 316.71900000000005 409.794 364.6840000000001 361.828 C 412.6490000000001 313.86199999999997 455.8520000000001 260.796 493.09400000000005 204.10199999999998 C 497.7300000000001 197.045 495.76700000000005 187.56399999999996 488.708 182.92699999999996 z" stroke-linecap="round" />
</g>
		<g transform="matrix(1.03 0 0 1.03 -160.94 -34.71)"  >
<path style="stroke: none; stroke-width: 1; stroke-dasharray: none; stroke-linecap: butt; stroke-dashoffset: 0; stroke-linejoin: miter; stroke-miterlimit: 4; fill: rgb(133,126,135); fill-rule: nonzero; opacity: 1;" vector-effect="non-scaling-stroke"  transform=" translate(-92.02, -214.21)" d="M 122.202 244.693 L 100.723 230.425 C 95.916 227.65 89.922 227.98000000000002 85.449 231.26700000000002 L 84.111 232.25000000000003 C 83.212 232.91100000000003 81.946 232.70800000000003 81.298 231.80000000000004 L 47.181000000000004 185.30000000000004 C 46.68300000000001 184.60200000000003 47.237 183.64200000000005 48.091 183.72400000000005 L 59.586 184.33000000000004 L 106.61 188.85200000000003 C 107.717 188.95800000000003 108.524 189.94700000000003 108.408 191.05200000000002 L 108.228 192.76500000000001 C 107.64999999999999 198.25900000000001 110.36 203.579 115.14399999999999 206.341 L 119.40499999999999 210.131 L 137.045 218.986 z" stroke-linecap="round" />
</g>
		<g transform="matrix(1.03 0 0 1.03 -37.3 -160.93)"  >
<path style="stroke: none; stroke-width: 1; stroke-dasharray: none; stroke-linecap: butt; stroke-dashoffset: 0; stroke-linejoin: miter; stroke-miterlimit: 4; fill: rgb(133,126,135); fill-rule: nonzero; opacity: 1;" vector-effect="non-scaling-stroke"  transform=" translate(-211.7, -92.02)" d="M 241.444 122.876 L 231.74499999999998 110.459 L 230.54899999999998 103.382 L 229.13199999999998 100.846 C 226.42399999999998 96 226.83799999999997 90.012 230.18699999999998 85.58500000000001 L 231.189 84.26100000000001 C 231.862 83.37100000000001 231.677 82.10300000000001 230.778 81.44200000000001 L 192.19 53.104000000000006 L 183.547 48.486000000000004 C 182.856 47.978 181.888 48.519000000000005 181.958 49.374 L 187.192 104.906 C 187.28300000000002 106.01400000000001 188.26000000000002 106.83500000000001 189.36700000000002 106.73400000000001 L 191.08200000000002 106.578 C 196.58400000000003 106.07600000000001 200.49800000000002 110.461 204.56000000000003 113.683 L 216.89800000000002 135.75900000000001 z" stroke-linecap="round" />
</g>
		<g transform="matrix(1.03 0 0 1.03 117.21 -202.68)"  >
<path style="stroke: none; stroke-width: 1; stroke-dasharray: none; stroke-linecap: butt; stroke-dashoffset: 0; stroke-linejoin: miter; stroke-miterlimit: 4; fill: rgb(133,126,135); fill-rule: nonzero; opacity: 1;" vector-effect="non-scaling-stroke"  transform=" translate(-361.26, -51.62)" d="M 376.045 99.053 L 373.766 83.97 L 375.70300000000003 76.428 L 375.66400000000004 73.819 C 375.58000000000004 68.269 378.78700000000003 63.194 383.83600000000007 60.887 L 385.34600000000006 60.197 C 386.36100000000005 59.733000000000004 386.80000000000007 58.529 386.32200000000006 57.521 L 365.86600000000004 14.387999999999998 L 360.629 4.3039999999999985 C 360.262 3.5289999999999986 359.153 3.5459999999999985 358.809 4.330999999999999 L 336.17 57.736 C 335.724 58.754 336.194 59.940999999999995 337.21700000000004 60.376999999999995 L 338.80100000000004 61.053 C 343.88200000000006 63.223 347.386 68.691 347.47 74.214 L 347.85200000000003 99.5 z" stroke-linecap="round" />
</g>
		<g transform="matrix(1.03 0 0 1.03 -205.06 114.54)"  >
<path style="stroke: none; stroke-width: 1; stroke-dasharray: none; stroke-linecap: butt; stroke-dashoffset: 0; stroke-linejoin: miter; stroke-miterlimit: 4; fill: rgb(133,126,135); fill-rule: nonzero; opacity: 1;" vector-effect="non-scaling-stroke"  transform=" translate(-49.31, -358.68)" d="M 93.76 379.411 L 69.25500000000001 375.459 C 63.74900000000001 374.751 57.94500000000001 376.404 55.08500000000001 381.161 L 54.23000000000001 382.584 C 53.65500000000001 383.54 52.40900000000001 383.841 51.46100000000001 383.253 L 1.5420000000000158 353.39599999999996 C 0.8130000000000158 352.94399999999996 0.9550000000000158 351.84399999999994 1.7740000000000158 351.59099999999995 L 13.405000000000015 347.63599999999997 L 57.84800000000001 333.895 C 58.91000000000001 333.567 60.036000000000016 334.167 60.35500000000001 335.23199999999997 L 60.84900000000001 336.88199999999995 C 62.433000000000014 342.1739999999999 66.98400000000001 346.03799999999995 72.46300000000001 346.74299999999994 L 74.97500000000001 347.0659999999999 L 80.62700000000001 348.67299999999994 L 97.546 349.96899999999994 z" stroke-linecap="round" />
</g>
		<g transform="matrix(1.03 0 0 1.03 -40.56 129.97)"  >
<path style="stroke: none; stroke-width: 1; stroke-dasharray: none; stroke-linecap: butt; stroke-dashoffset: 0; stroke-linejoin: miter; stroke-miterlimit: 4; fill: rgb(255,208,100); fill-rule: nonzero; opacity: 1;" vector-effect="non-scaling-stroke"  transform=" translate(-208.54, -373.61)" d="M 229.727 367.386 C 229.677 376.786 227.977 386.02200000000005 224.767 394.692 L 192.546 373.589 C 187.24599999999998 370.11899999999997 185.766 363.019 189.236 357.719 C 192.706 352.419 199.816 350.939 205.11599999999999 354.409 L 208.74599999999998 356.789 C 215.43599999999998 361.168 222.47699999999998 364.69599999999997 229.72699999999998 367.38599999999997 z" stroke-linecap="round" />
</g>
		<g transform="matrix(1.03 0 0 1.03 127.62 -37.73)"  >
<path style="stroke: none; stroke-width: 1; stroke-dasharray: none; stroke-linecap: butt; stroke-dashoffset: 0; stroke-linejoin: miter; stroke-miterlimit: 4; fill: rgb(255,208,100); fill-rule: nonzero; opacity: 1;" vector-effect="non-scaling-stroke"  transform=" translate(-371.34, -211.28)" d="M 392.546 227.548 C 383.926 230.858 374.723 232.656 365.243 232.806 C 362.533 225.316 358.906 218.048 354.38599999999997 211.14800000000002 L 352.006 207.50800000000004 C 348.53599999999994 202.20800000000003 350.02599999999995 195.09800000000004 355.316 191.62800000000004 C 360.616 188.15800000000004 367.726 189.64800000000005 371.19599999999997 194.94800000000004 z" stroke-linecap="round" />
</g>
		<g transform="matrix(1.03 0 0 1.03 -161.46 -35.01)"  >
<path style="stroke: none; stroke-width: 1; stroke-dasharray: none; stroke-linecap: butt; stroke-dashoffset: 0; stroke-linejoin: miter; stroke-miterlimit: 4; fill: rgb(111,101,113); fill-rule: nonzero; opacity: 1;" vector-effect="non-scaling-stroke"  transform=" translate(-91.51, -213.91)" d="M 132.806 216.539 L 115.144 206.34099999999998 C 112.20400000000001 209.82099999999997 109.577 213.54899999999998 107.307 217.49899999999997 C 107.304 217.50399999999996 107.302 217.50799999999995 107.299 217.51299999999998 C 106.861 218.27399999999997 105.903 218.55499999999998 105.143 218.11599999999999 L 103.348 217.07899999999998 C 98.538 214.29899999999998 92.548 214.629 88.078 217.91899999999998 L 86.738 218.89899999999997 C 85.838 219.55899999999997 84.568 219.35899999999998 83.918 218.44899999999998 L 59.58800000000001 184.32899999999998 L 47.06800000000001 183.129 C 46.21800000000001 183.04899999999998 45.66800000000001 184.009 46.158000000000015 184.69899999999998 L 80.918 233.44899999999998 C 81.56800000000001 234.35899999999998 82.83800000000001 234.559 83.738 233.89899999999997 L 85.078 232.91899999999998 C 89.548 229.629 95.53800000000001 229.29899999999998 100.348 232.07899999999998 L 100.709 232.28699999999998 C 100.709 232.28699999999998 100.709 232.28799999999998 100.708 232.289 L 122.208 244.69899999999998 L 137.048 218.98899999999998 z" stroke-linecap="round" />
</g>
		<g transform="matrix(1.03 0 0 1.03 111.12 -203.13)"  >
<path style="stroke: none; stroke-width: 1; stroke-dasharray: none; stroke-linecap: butt; stroke-dashoffset: 0; stroke-linejoin: miter; stroke-miterlimit: 4; fill: rgb(111,101,113); fill-rule: nonzero; opacity: 1;" vector-effect="non-scaling-stroke"  transform=" translate(-355.37, -51.18)" d="M 375.976 94.268 L 375.974 94.268 L 375.703 76.428 C 373.47799999999995 76.256 371.46599999999995 75.41799999999999 362.08099999999996 75.55199999999999 C 360.97599999999994 75.568 360.05999999999995 74.689 360.04299999999995 73.58399999999999 L 359.97599999999994 69.21799999999999 C 359.89599999999996 63.68799999999999 356.5659999999999 58.737999999999985 351.48599999999993 56.56799999999999 L 349.90599999999995 55.88799999999999 C 348.88599999999997 55.44799999999999 348.41599999999994 54.267999999999994 348.85599999999994 53.24799999999999 L 365.86499999999995 14.388999999999989 L 360.66599999999994 3.428999999999988 C 360.29599999999994 2.6489999999999876 359.1859999999999 2.668999999999988 358.84599999999995 3.448999999999988 L 334.85599999999994 58.24899999999999 C 334.41599999999994 59.26899999999999 334.8859999999999 60.44899999999999 335.90599999999995 60.88899999999999 L 337.48599999999993 61.56899999999999 C 342.5659999999999 63.73899999999999 345.89599999999996 68.689 345.97599999999994 74.219 L 346.02699999999993 77.54899999999999 L 346.02599999999995 77.54899999999999 L 346.36599999999993 99.499 L 376.04599999999994 99.059 z" stroke-linecap="round" />
</g>
		<g transform="matrix(1.03 0 0 1.03 -205.61 122.27)"  >
<path style="stroke: none; stroke-width: 1; stroke-dasharray: none; stroke-linecap: butt; stroke-dashoffset: 0; stroke-linejoin: miter; stroke-miterlimit: 4; fill: rgb(111,101,113); fill-rule: nonzero; opacity: 1;" vector-effect="non-scaling-stroke"  transform=" translate(-48.77, -366.16)" d="M 93.676 349.469 L 74.975 347.066 C 73.86699999999999 351.238 73.122 355.506 72.72999999999999 359.842 C 72.627 360.98199999999997 71.61699999999999 361.818 70.48199999999999 361.67199999999997 L 66.72599999999998 361.18899999999996 C 61.225999999999985 360.489 55.81599999999999 363.099 52.95599999999999 367.859 L 52.10599999999999 369.279 C 51.53199999999999 370.237 50.286999999999985 370.539 49.33799999999999 369.95 L 13.405999999999985 347.639 L 0.7059999999999853 351.569 C -0.11400000000001465 351.819 -0.25400000000001466 352.91900000000004 0.4659999999999853 353.369 L 51.33799999999999 384.95000000000005 C 52.286999999999985 385.53900000000004 53.53299999999999 385.237 54.10599999999999 384.27900000000005 L 54.95599999999999 382.85900000000004 C 57.81599999999999 378.09900000000005 63.225999999999985 375.48900000000003 68.72599999999998 376.189 L 93.75599999999999 379.40900000000005 L 97.54599999999999 349.96900000000005 z" stroke-linecap="round" />
</g>
		<g transform="matrix(1.03 0 0 1.03 -37.83 -161.39)"  >
<path style="stroke: none; stroke-width: 1; stroke-dasharray: none; stroke-linecap: butt; stroke-dashoffset: 0; stroke-linejoin: miter; stroke-miterlimit: 4; fill: rgb(111,101,113); fill-rule: nonzero; opacity: 1;" vector-effect="non-scaling-stroke"  transform=" translate(-211.19, -91.58)" d="M 230.546 103.378 C 225.875 104.802 221.338 106.682 216.988 108.986 C 216.027 109.495 214.839 109.168 214.3 108.223 L 213.196 106.288 C 210.496 101.458 205.216 98.678 199.716 99.178 L 197.996 99.338 C 196.89600000000002 99.43799999999999 195.916 98.618 195.82600000000002 97.508 L 192.18900000000002 53.105 L 182.51600000000002 46.007999999999996 C 181.82600000000002 45.498 180.85600000000002 46.038 180.936 46.888 L 185.826 106.508 C 185.916 107.618 186.896 108.438 187.99599999999998 108.338 L 189.71599999999998 108.178 C 195.21599999999998 107.678 200.49599999999998 110.458 203.19599999999997 115.288 L 215.52599999999998 137.358 L 241.44599999999997 122.878 L 230.55599999999998 103.378 z" stroke-linecap="round" />
</g>
		<g transform="matrix(1.03 0 0 1.03 10.62 13.78)"  >
<path style="stroke: none; stroke-width: 1; stroke-dasharray: none; stroke-linecap: butt; stroke-dashoffset: 0; stroke-linejoin: miter; stroke-miterlimit: 4; fill: rgb(255,224,125); fill-rule: nonzero; opacity: 1;" vector-effect="non-scaling-stroke"  transform=" translate(-258.08, -261.14)" d="M 411.936 112.141 C 400.746 98.811 386.638 92.129 369.298 90.60900000000001 C 350.058 88.929 332.277 95.97000000000001 318.617 109.63000000000001 C 314.817 113.43 311.52700000000004 117.67000000000002 308.807 122.23 C 304.957 128.66 296.437 130.33 290.207 126.16000000000001 C 284.327 122.21000000000001 277.912 118.40400000000001 270.872 116.52400000000002 C 254.062 112.01400000000001 236.49200000000002 114.32400000000001 221.42200000000003 123.03400000000002 C 216.47200000000004 125.89400000000002 211.92200000000003 129.37400000000002 207.90200000000002 133.394 C 195.21200000000002 146.084 189.76600000000002 163.315 189.936 180.41500000000002 C 190.01600000000002 187.59500000000003 184.126 193.485 176.946 193.41500000000002 C 159.846 193.235 142.86599999999999 199.76500000000001 130.176 212.44500000000002 C 126.15599999999999 216.46500000000003 122.966 219.30900000000003 120.106 224.26800000000003 C 111.40599999999999 239.33800000000002 109.09599999999999 256.898 113.59599999999999 273.708 C 115.48599999999999 280.75800000000004 119.98599999999999 286.293 123.93599999999999 292.18300000000005 C 128.11599999999999 298.4030000000001 126.446 306.93300000000005 120.00599999999999 310.773 C 115.44599999999998 313.50300000000004 111.21599999999998 316.783 107.41599999999998 320.583 C 93.74599999999998 334.25300000000004 85.86299999999999 353.36800000000005 87.55299999999998 372.598 C 90.68299999999998 408.398 119.27399999999999 434.803 155.06399999999996 431.672 C 155.49699999999996 431.634 156.53299999999996 431.711 156.53299999999996 431.711 C 171.28799999999995 430.124 185.12299999999996 423.511 195.61699999999996 413.017 C 209.28699999999995 399.347 216.15699999999995 380.477 214.47699999999998 361.247 C 213.41699999999997 349.21700000000004 209.15699999999998 337.987 202.19699999999997 328.497 C 198.43699999999998 323.367 200.08699999999996 316.187 205.65699999999998 313.107 C 210.90699999999998 310.21700000000004 215.807 306.567 220.19699999999997 302.177 C 224.21699999999998 298.15700000000004 227.70699999999997 293.607 230.56699999999998 288.65700000000004 C 237.01699999999997 277.47700000000003 239.777 265.15700000000004 239.207 253.13700000000003 C 238.927 247.05700000000002 243.957 242.02700000000004 250.027 242.31700000000004 C 262.05699999999996 242.87700000000004 274.377 240.12700000000004 285.557 233.66700000000003 C 290.507 230.80700000000002 295.057 227.32700000000003 299.067 223.30700000000002 C 299.067 223.29700000000003 299.077 223.29700000000003 299.077 223.29700000000003 C 303.467 218.90700000000004 307.127 213.98700000000002 310.027 208.73700000000002 C 313.10699999999997 203.14700000000002 320.29699999999997 201.52700000000002 325.447 205.29700000000003 C 334.717 212.08700000000002 345.887 216.50700000000003 358.137 217.57700000000003 C 377.377 219.25700000000003 396.247 212.38700000000003 409.907 198.72700000000003 L 409.917 198.72700000000003 C 420.717 187.91700000000003 427.397 173.57700000000003 428.73699999999997 158.33700000000005 C 428.77299999999997 157.91900000000004 428.806 157.50200000000004 428.83399999999995 157.08500000000004 C 428.83399999999995 157.08500000000004 427.4189999999999 146.90400000000002 426.61699999999996 141.99000000000004 C 424.753 130.56800000000004 419.57199999999995 121.23700000000004 411.936 112.14100000000003 z M 152.606 401.74800000000005 C 133.36599999999999 403.43800000000005 116.416 389.208 114.726 369.9680000000001 C 113.04599999999999 350.73800000000006 127.276 333.7780000000001 146.506 332.09800000000007 C 165.746 330.4080000000001 182.70600000000002 344.6380000000001 184.386 363.87800000000004 C 186.066 383.10800000000006 171.83599999999998 400.06800000000004 152.606 401.74800000000005 z M 204.406 273.55800000000005 C 194.756 290.278 173.376 295.99800000000005 156.656 286.34800000000007 C 139.936 276.6980000000001 134.20600000000002 255.31800000000007 143.856 238.59800000000007 C 153.50599999999997 221.87800000000007 174.886 216.14800000000008 191.606 225.79800000000006 C 208.326 235.45800000000006 214.05599999999998 256.8380000000001 204.406 273.55800000000005 z M 270.446 207.50800000000004 C 253.72600000000003 217.16800000000003 232.34600000000003 211.43800000000005 222.69600000000003 194.71800000000005 C 213.04600000000002 177.99800000000005 218.76600000000002 156.61800000000005 235.48600000000002 146.96800000000005 C 252.20600000000002 137.30800000000005 273.586 143.03800000000004 283.24600000000004 159.75800000000004 C 292.896 176.47800000000004 287.16600000000005 197.85800000000003 270.446 207.50800000000004 z M 398.646 155.70800000000003 C 396.966 174.94800000000004 380.00600000000003 189.17800000000003 360.766 187.48800000000003 C 341.536 185.80800000000002 327.30600000000004 168.848 328.986 149.61800000000002 C 330.676 130.37800000000001 347.626 116.14800000000002 366.866 117.83800000000002 C 386.096 119.51800000000003 400.32599999999996 136.478 398.64599999999996 155.70800000000003 z" stroke-linecap="round" />
</g>
		<g transform="matrix(1.03 0 0 1.03 9.2 12.41)"  >
<path style="stroke: none; stroke-width: 1; stroke-dasharray: none; stroke-linecap: butt; stroke-dashoffset: 0; stroke-linejoin: miter; stroke-miterlimit: 4; fill: rgb(255,208,100); fill-rule: nonzero; opacity: 1;" vector-effect="non-scaling-stroke"  transform=" translate(-256.71, -259.81)" d="M 413.736 110.778 C 403.566 98.664 389.658 90.822 374.191 88.34800000000001 C 374.19599999999997 88.34100000000001 374.20099999999996 88.33500000000001 374.20599999999996 88.32800000000002 C 365.35299999999995 87.00000000000001 354.80299999999994 87.07700000000001 344.04599999999994 90.56800000000001 C 344.0489999999999 90.57000000000001 344.0519999999999 90.57200000000002 344.05499999999995 90.57400000000001 C 334.24799999999993 93.69400000000002 325.20399999999995 99.12 317.72599999999994 106.59800000000001 C 313.92599999999993 110.39800000000001 310.63599999999997 114.638 307.91599999999994 119.19800000000001 C 304.0659999999999 125.62800000000001 295.54599999999994 127.298 289.3159999999999 123.12800000000001 C 283.4359999999999 119.17800000000001 276.8759999999999 116.17800000000001 269.8359999999999 114.29800000000002 C 253.0259999999999 109.78800000000001 235.4559999999999 112.09800000000001 220.3859999999999 120.80800000000002 C 215.43599999999992 123.66800000000002 210.8859999999999 127.14800000000002 206.8659999999999 131.168 C 194.1759999999999 143.858 187.6559999999999 160.83800000000002 187.8259999999999 177.93800000000002 C 187.90599999999992 185.11800000000002 182.0159999999999 191.008 174.8359999999999 190.93800000000002 C 157.7359999999999 190.758 140.75599999999991 197.288 128.0659999999999 209.96800000000002 C 124.04599999999989 213.98800000000003 120.55599999999988 218.538 117.69599999999988 223.49800000000002 C 108.99599999999988 238.568 106.68599999999988 256.12800000000004 111.18599999999988 272.938 C 113.07599999999988 279.988 116.06599999999987 286.538 120.01599999999988 292.428 C 124.19599999999988 298.648 122.52599999999988 307.178 116.08599999999987 311.018 C 111.52599999999987 313.748 107.29599999999988 317.02799999999996 103.49599999999987 320.828 C 92.83999999999986 331.484 86.33999999999986 345.303 84.78199999999987 359.98499999999996 C 84.77699999999987 359.98299999999995 84.77099999999987 359.97999999999996 84.76599999999986 359.97799999999995 C 83.52599999999987 372.12999999999994 85.59899999999986 386.28 92.62599999999986 398.61799999999994 C 92.62899999999986 398.6089999999999 92.63199999999986 398.60099999999994 92.63499999999986 398.5919999999999 C 104.76899999999986 420.3279999999999 128.87699999999987 434.1429999999999 155.23599999999988 431.8379999999999 C 155.71599999999987 431.7979999999999 156.18599999999986 431.74799999999993 156.66599999999988 431.6979999999999 C 126.31599999999989 428.4779999999999 101.41599999999988 404.10799999999995 98.66599999999988 372.5779999999999 C 97.04699999999988 358.7199999999999 102.29999999999988 341.3179999999999 113.39599999999989 330.7279999999999 C 116.33599999999988 327.7779999999999 119.66599999999988 325.1879999999999 123.27599999999988 323.0279999999999 C 129.61599999999987 319.24799999999993 134.01599999999988 313.1579999999999 135.64599999999987 305.8979999999999 C 137.28599999999986 298.6079999999999 135.82599999999988 290.8479999999999 131.63599999999988 284.61799999999994 C 128.51599999999988 279.96799999999996 126.18599999999988 274.80799999999994 124.70599999999988 269.3179999999999 C 121.17599999999987 256.11799999999994 122.98599999999988 242.32799999999992 129.8159999999999 230.49799999999993 C 132.0659999999999 226.59799999999993 134.8059999999999 223.02799999999993 137.9659999999999 219.86799999999994 C 147.60599999999988 210.23799999999994 160.4559999999999 204.93799999999993 174.1459999999999 204.93799999999993 L 174.9659999999999 204.93799999999993 C 182.1859999999999 204.93799999999993 188.9659999999999 202.09799999999993 194.0559999999999 196.94799999999992 C 199.1459999999999 191.80799999999994 201.9059999999999 184.99799999999993 201.8259999999999 177.7779999999999 C 201.68599999999992 164.0879999999999 207.1359999999999 150.69799999999992 216.7659999999999 141.0679999999999 C 219.9059999999999 137.9279999999999 223.4859999999999 135.1879999999999 227.3859999999999 132.92799999999988 C 235.18599999999992 128.42799999999988 243.9859999999999 126.04799999999989 252.8559999999999 126.04799999999989 C 257.3259999999999 126.04799999999989 261.8159999999999 126.63799999999989 266.2059999999999 127.81799999999988 C 271.7059999999999 129.2879999999999 276.8459999999999 131.61799999999988 281.5059999999999 134.74799999999988 C 286.0759999999999 137.80799999999988 291.35599999999994 139.41799999999986 296.8159999999999 139.41799999999986 C 306.4059999999999 139.40799999999987 315.04599999999994 134.54799999999986 319.92599999999993 126.38799999999986 C 322.08599999999996 122.77799999999986 324.66599999999994 119.44799999999987 327.6259999999999 116.49799999999986 C 337.29599999999994 106.82799999999986 350.1359999999999 101.49799999999986 363.7759999999999 101.49799999999986 C 363.7839999999999 101.49799999999986 363.7979999999999 101.48699999999987 363.8069999999999 101.48599999999986 C 365.8229999999999 101.47599999999986 367.8489999999999 101.54799999999986 369.8759999999999 101.72799999999987 C 387.2159999999999 103.24799999999986 402.92599999999993 111.42799999999987 414.11599999999993 124.75799999999987 C 422.1459999999999 134.31799999999987 427.15599999999995 145.73799999999986 428.77599999999995 157.81799999999987 C 430.13599999999997 140.66799999999986 424.816 123.97799999999987 413.73599999999993 110.77799999999988 z" stroke-linecap="round" />
</g>
</g>
</g>
<g transform="matrix(1 0 0 1 533.76 583.64)" style="filter: url(#SVGID_1674);" id="849eb907-2d71-462c-903c-5d20216c3171"  >
<filter id="SVGID_1674" y="-32%" height="164%" x="-28%" width="156%" >
	<feGaussianBlur in="SourceAlpha" stdDeviation="7"></feGaussianBlur>
	<feOffset dx="11" dy="11" result="oBlur" ></feOffset>
	<feFlood flood-color="rgb(255,153,255)" flood-opacity="1"/>
	<feComposite in2="oBlur" operator="in" />
	<feMerge>
		<feMergeNode></feMergeNode>
		<feMergeNode in="SourceGraphic"></feMergeNode>
	</feMerge>
</filter>
		<text xml:space="preserve" font-family="Lato" font-size="186" font-style="normal" font-weight="400" style="stroke: none; stroke-width: 1; stroke-dasharray: none; stroke-linecap: butt; stroke-dashoffset: 0; stroke-linejoin: miter; stroke-miterlimit: 4; fill: rgb(255,0,255); fill-rule: nonzero; opacity: 1; white-space: pre;" ><tspan x="-132.71" y="58.43" >Set</tspan></text>
</g>
</svg>