<svg height="512pt" viewBox="0 -3 512.001 512" width="512pt" xmlns="http://www.w3.org/2000/svg"><path d="m456.75 210.871094c4.132812-6.621094 6.359375-14.550782 5.914062-23.023438-1.015624-19.300781-16.1875-35.234375-35.417968-37.164062-2.832032-.285156-5.609375-.265625-8.304688.027344-1.4375.15625-2.4375-1.347657-1.78125-2.636719 3.871094-7.570313 6.0625-16.144531 6.0625-25.230469 0-30.664062-24.855468-55.519531-55.519531-55.519531-2.625 0-5.207031.195312-7.734375.550781-1.039062.148438-1.960938-.648438-2.035156-1.695312-2.609375-36.984376-33.425782-66.179688-71.074219-66.179688-26.121094 0-48.941406 14.066406-61.347656 35.023438-.34375.574218-.964844.914062-1.632813.882812-1.03125-.046875-2.070312-.078125-3.113281-.078125-39.359375 0-71.265625 31.910156-71.265625 71.265625 0 1.058594.03125 2.101562.085938 3.144531.050781 1.035157-.785157 1.894531-1.816407 1.894531h-.734375c-21.105468-.007812-38.039062 17.253907-37.632812 38.355469-33.230469.136719-60.128906 27.113281-60.128906 60.375zm0 0" fill="#fa0"/><path d="m456.753906 210.867188h-17.054687c.859375-3.5625 1.207031-7.296876 1.011719-11.15625-.757813-14.902344-10.464844-28.4375-24.21875-34.136719-7.726563-3.203125-18.773438-.855469-19.621094-11.457031-.511719-6.453126 4.6875-12.667969 4.6875-18.933594 0-22.625-17.109375-52.179688-42.851563-50.160156-21.839843 1.714843-19.878906-7.671876-25.738281-24.417969-3.175781-9.074219-8.230469-17.460938-14.738281-24.53125-13.320313-14.460938-32.378907-22.824219-52.035157-22.824219-9.777343 0-19.097656 1.980469-27.5625 5.574219 12.6875-11.6875 29.625-18.8164065 48.226563-18.8164065 37.644531 0 68.464844 29.1914065 71.078125 66.1757815.074219 1.042968.992188 1.835937 2.035156 1.691406 2.527344-.351562 5.105469-.546875 7.730469-.546875 30.664063 0 55.523437 24.855469 55.523437 55.511719 0 9.09375-2.191406 17.664062-6.070312 25.238281-.652344 1.292969.351562 2.789063 1.785156 2.632813 2.695313-.289063 5.46875-.308594 8.308594-.03125 19.21875 1.941406 34.394531 17.867187 35.414062 37.171874.445313 8.472657-1.78125 16.398438-5.910156 23.015626zm0 0" fill="#ff9500"/><path d="m30.453125 255.953125 26.019531 180.46875c2.839844 19.695313 19.71875 34.316406 39.617188 34.316406h319.8125c19.898437 0 36.773437-14.621093 39.613281-34.316406l26.019531-180.46875zm0 0" fill="#a87a52"/><path d="m481.535156 255.953125-26.023437 180.464844c-2.835938 19.695312-19.714844 34.320312-39.617188 34.320312h-25.289062c19.902343 0 36.78125-14.625 39.617187-34.320312l26.023438-180.464844zm0 0" fill="#906846"/><path d="m501.316406 259.046875h-490.632812c-5.902344 0-10.683594-4.78125-10.683594-10.679687v-29.917969c0-5.898438 4.78125-10.679688 10.683594-10.679688h490.636718c5.898438 0 10.679688 4.78125 10.679688 10.679688v29.917969c0 5.898437-4.78125 10.679687-10.683594 10.679687zm0 0" fill="#ffcd6b"/><path d="m511.996094 218.453125v29.914063c0 5.894531-4.777344 10.683593-10.671875 10.683593h-28.902344c5.894531 0 10.683594-4.789062 10.683594-10.683593v-29.914063c0-5.902344-4.789063-10.679687-10.683594-10.679687h28.902344c5.894531-.003907 10.671875 4.777343 10.671875 10.679687zm0 0" fill="#ffc143"/><path d="m224.019531 449.296875c0 31.507813-25.542969 57.050781-57.050781 57.050781s-57.046875-25.542968-57.046875-57.050781c0-31.503906 25.539063-57.046875 57.046875-57.046875s57.050781 25.542969 57.050781 57.046875zm0 0" fill="#929298"/><path d="m224.015625 449.300781c0 31.507813-25.542969 57.050781-57.050781 57.050781-18.449219 0-34.847656-8.765624-45.269532-22.347656 8.957032 5.84375 19.640626 9.230469 31.113282 9.230469 31.507812 0 57.050781-25.542969 57.050781-57.050781 0-13.046875-4.386719-25.082032-11.757813-34.691406 15.597657 10.171874 25.914063 27.785156 25.914063 47.808593zm0 0" fill="#7c8388"/><path d="m192.191406 449.296875c0 13.929687-11.292968 25.222656-25.222656 25.222656s-25.21875-11.292969-25.21875-25.222656c0-13.925781 11.289062-25.21875 25.21875-25.21875s25.222656 11.292969 25.222656 25.21875zm0 0" fill="#e6f2ec"/><path d="m192.191406 449.300781c0 13.925781-11.292968 25.214844-25.226562 25.214844-9.691406 0-18.105469-5.46875-22.316406-13.488281 2.765624 1.050781 5.757812 1.621094 8.898437 1.621094 13.933594 0 25.226563-11.292969 25.226563-25.21875 0-4.242188-1.042969-8.234376-2.890626-11.734376 9.527344 3.601563 16.308594 12.808594 16.308594 23.605469zm0 0" fill="#d5e2db"/><path d="m402.066406 449.296875c0 31.507813-25.539062 57.050781-57.046875 57.050781-31.507812 0-57.050781-25.542968-57.050781-57.050781 0-31.503906 25.542969-57.046875 57.050781-57.046875 31.507813 0 57.046875 25.542969 57.046875 57.046875zm0 0" fill="#929298"/><path d="m402.066406 449.300781c0 31.507813-25.542968 57.050781-57.050781 57.050781-18.449219 0-34.847656-8.765624-45.269531-22.347656 8.957031 5.84375 19.640625 9.230469 31.113281 9.230469 31.507813 0 57.050781-25.542969 57.050781-57.050781 0-13.046875-4.390625-25.082032-11.757812-34.691406 15.597656 10.171874 25.914062 27.785156 25.914062 47.808593zm0 0" fill="#7c8388"/><path d="m370.238281 449.296875c0 13.929687-11.289062 25.222656-25.21875 25.222656-13.929687 0-25.222656-11.292969-25.222656-25.222656 0-13.925781 11.292969-25.21875 25.222656-25.21875 13.929688 0 25.21875 11.292969 25.21875 25.21875zm0 0" fill="#e6f2ec"/><path d="m370.242188 449.300781c0 13.925781-11.292969 25.214844-25.226563 25.214844-9.695313 0-18.105469-5.46875-22.316406-13.488281 2.765625 1.050781 5.757812 1.621094 8.898437 1.621094 13.933594 0 25.226563-11.292969 25.226563-25.21875 0-4.242188-1.042969-8.234376-2.890625-11.734376 9.527344 3.601563 16.308594 12.808594 16.308594 23.605469zm0 0" fill="#d5e2db"/></svg>