<svg id="Capa_1" enable-background="new 0 0 512.001 512.001" height="512" viewBox="0 0 512.001 512.001" width="512" xmlns="http://www.w3.org/2000/svg"><path d="m511.687 465.313-50.794-246.553c-.989-4.803-4.23-8.836-8.707-10.837l-48.146-21.516-26.075-102.56c-1.188-4.675-4.52-8.511-8.983-10.342l-107.196-43.99c-3.706-1.521-7.863-1.521-11.569 0l-107.196 43.99c-4.463 1.831-7.795 5.667-8.983 10.342l-26.075 102.56-48.146 21.516c-4.477 2.001-7.718 6.034-8.707 10.837l-50.796 246.553c-.925 4.487.218 9.151 3.112 12.701 2.894 3.551 7.232 5.612 11.812 5.612h481.524c4.58 0 8.919-2.061 11.813-5.612 2.894-3.55 4.036-8.215 3.112-12.701zm-336.804-12.163 16.982-120.845 64.135-46.909 64.135 46.909 16.982 120.845zm193.01 0-18.474-131.463c-.573-4.077-2.772-7.749-6.094-10.179l-78.328-57.29c-5.357-3.919-12.635-3.919-17.992 0l-78.328 57.29c-3.322 2.431-5.521 6.102-6.094 10.179l-18.475 131.463h-110.172l45.444-220.59 18.273-8.166-5.679 20.637c-2.232 8.114 2.536 16.502 10.65 18.735 1.353.372 2.713.55 4.052.55 6.688 0 12.822-4.438 14.684-11.199l40.323-154.328 94.317-38.705 94.317 38.705 18.515 72.823-38.944-16.111c-7.778-3.217-16.689.479-19.906 8.256-3.217 7.776.479 16.688 8.255 19.906l114.383 48.897 45.444 220.589h-110.171z"/></svg>