<?xml version="1.0" encoding="UTF-8" standalone="no" ?>
<!DOCTYPE svg PUBLIC "-//W3C//DTD SVG 1.1//EN" "http://www.w3.org/Graphics/SVG/1.1/DTD/svg11.dtd">
<svg xmlns="http://www.w3.org/2000/svg" xmlns:xlink="http://www.w3.org/1999/xlink" version="1.1" width="720" height="720" viewBox="0 0 720 720" xml:space="preserve">
<desc>Created with Fabric.js 4.2.0</desc>
<defs>
</defs>
<rect x="0" y="0" width="100%" height="100%" fill="transparent"></rect>
<g transform="matrix(1 0 0 1 360 360)" id="1b611884-6b14-41d1-85aa-cb9b3af04acb"  >
<rect style="stroke: none; stroke-width: 1; stroke-dasharray: none; stroke-linecap: butt; stroke-dashoffset: 0; stroke-linejoin: miter; stroke-miterlimit: 4; fill: rgb(255,255,255); fill-opacity: 0; fill-rule: nonzero; opacity: 1;" vector-effect="non-scaling-stroke"  x="-360" y="-360" rx="0" ry="0" width="720" height="720" />
</g>
<g transform="matrix(0 0 0 0 0 0)" id="099a0cde-e345-4787-9a8d-dbca54d07a07"  >
</g>
<g transform="matrix(1 0 0 1 533.76 583.64)" style="filter: url(#SVGID_1674);" id="849eb907-2d71-462c-903c-5d20216c3171"  >
<filter id="SVGID_1674" y="-32%" height="164%" x="-28%" width="156%" >
	<feGaussianBlur in="SourceAlpha" stdDeviation="7"></feGaussianBlur>
	<feOffset dx="11" dy="11" result="oBlur" ></feOffset>
	<feFlood flood-color="rgb(255,153,255)" flood-opacity="1"/>
	<feComposite in2="oBlur" operator="in" />
	<feMerge>
		<feMergeNode></feMergeNode>
		<feMergeNode in="SourceGraphic"></feMergeNode>
	</feMerge>
</filter>
		<text xml:space="preserve" font-family="Lato" font-size="186" font-style="normal" font-weight="400" style="stroke: none; stroke-width: 1; stroke-dasharray: none; stroke-linecap: butt; stroke-dashoffset: 0; stroke-linejoin: miter; stroke-miterlimit: 4; fill: rgb(255,0,255); fill-rule: nonzero; opacity: 1; white-space: pre;" ><tspan x="-132.71" y="58.43" >Set</tspan></text>
</g>
<g transform="matrix(1.01 0 0 1.01 361.05 361.05)"  >
<g style="" vector-effect="non-scaling-stroke"   >
		<g transform="matrix(1.33 0 0 1.33 -54.14 92.37)"  >
<path style="stroke: none; stroke-width: 1; stroke-dasharray: none; stroke-linecap: butt; stroke-dashoffset: 0; stroke-linejoin: miter; stroke-miterlimit: 4; fill: rgb(127,91,83); fill-rule: nonzero; opacity: 1;" vector-effect="non-scaling-stroke"  transform=" translate(-215.4, -325.27)" d="M 417.238281 175.296875 C 403.960938 170 382.08984399999997 165.488281 365.16796899999997 182.410156 L 275.785156 272.226562 L 263.550781 284.464844 L 215.12499999999997 333.058594 L 202.97656199999997 345.296875 L 145.78906199999997 402.65625 L 133.72656199999997 414.80859399999997 L 133.64062499999997 414.80859399999997 L 44.51953099999997 504.363281 C 34.32031199999997 514.515625 17.835937999999974 514.515625 7.636718999999971 504.363281 L 58.92187499999997 444.39843799999994 L 71.24609399999997 432.07421899999997 L 110.99218799999997 392.332031 L 123.31249999999997 380.00781199999994 L 180.41406199999997 322.90624999999994 L 192.73828099999997 310.58593799999994 L 241.16015599999997 262.1601559999999 L 253.48437499999997 249.8398439999999 L 293.23046899999997 210.09374999999991 L 305.550781 197.76953099999992 L 373.41406199999994 138.5859379999999 C 398.1445309999999 137.8046879999999 414.19921899999997 156.03124999999991 422.44531199999994 168.87499999999991 C 423.48046899999997 170.45312499999991 423.37499999999994 172.51953099999992 422.18749999999994 173.98437499999991 C 420.99609399999997 175.45312499999991 418.99609399999997 175.9804689999999 417.2382809999999 175.29687499999991 z M 417.238281 175.296875" stroke-linecap="round" />
</g>
		<g transform="matrix(1.33 0 0 1.33 -92.37 54.1)"  >
<path style="stroke: none; stroke-width: 1; stroke-dasharray: none; stroke-linecap: butt; stroke-dashoffset: 0; stroke-linejoin: miter; stroke-miterlimit: 4; fill: rgb(203,130,82); fill-rule: nonzero; opacity: 1;" vector-effect="non-scaling-stroke"  transform=" translate(-186.72, -296.57)" d="M 373.414062 138.585938 L 7.636719000000028 504.363281 C 2.7343750000000275 499.5 -0.019531199999971882 492.875 2.7533531010703882e-14 485.96484399999997 C -0.011718799999972466 479.07812499999994 2.7031250000000275 472.46484399999997 7.550781000000027 467.57031199999994 L 44.86328100000003 430.16796899999997 L 56.92578100000003 418.019531 C 56.92578100000003 417.96875 56.96484400000003 417.929688 57.01562500000003 417.929688 L 96.84765600000003 378.01171899999997 L 108.91015600000003 365.863281 L 278.824219 195.33984399999997 L 290.71093800000006 183.36718799999997 L 328.37500000000006 145.61718799999997 C 341.1992190000001 131.80078099999997 344.39062500000006 111.59765599999997 336.44531200000006 94.50390599999997 C 335.85937500000006 92.78124999999997 336.4101560000001 90.87499999999997 337.8242190000001 89.73437499999997 C 339.2421880000001 88.58984399999997 341.21875000000006 88.44921899999997 342.78125000000006 89.38281199999997 C 355.62500000000006 97.53906199999997 374.19531200000006 113.67968799999997 373.41406200000006 138.58593799999997 z M 373.414062 138.585938" stroke-linecap="round" />
</g>
		<g transform="matrix(1.33 0 0 1.33 238.38 -238.36)"  >
<path style="stroke: none; stroke-width: 1; stroke-dasharray: none; stroke-linecap: butt; stroke-dashoffset: 0; stroke-linejoin: miter; stroke-miterlimit: 4; fill: rgb(155,200,194); fill-rule: nonzero; opacity: 1;" vector-effect="non-scaling-stroke"  transform=" translate(-434.78, -77.22)" d="M 503.320312 77.214844 C 503.320312 115.070312 472.636719 145.753906 434.78515600000003 145.753906 C 396.92968800000006 145.753906 366.246094 115.070312 366.246094 77.214844 C 366.246094 39.363281 396.92968800000006 8.679687999999999 434.78515600000003 8.679687999999999 C 472.636719 8.679687999999999 503.32031200000006 39.363281 503.32031200000006 77.214844 z M 503.320312 77.214844" stroke-linecap="round" />
</g>
		<g transform="matrix(1.33 0 0 1.33 260.34 -283.47)"  >
<path style="stroke: none; stroke-width: 1; stroke-dasharray: none; stroke-linecap: butt; stroke-dashoffset: 0; stroke-linejoin: miter; stroke-miterlimit: 4; fill: rgb(236,240,241); fill-rule: nonzero; opacity: 1;" vector-effect="non-scaling-stroke"  transform=" translate(-451.26, -43.39)" d="M 459.933594 43.390625 C 459.933594 48.183594 456.046875 52.066406 451.25390600000003 52.066406 C 446.46093800000006 52.066406 442.578125 48.183594 442.578125 43.390625 C 442.578125 38.597656 446.460938 34.710938 451.25390600000003 34.710938 C 456.04687500000006 34.710938 459.933594 38.597656 459.933594 43.390625 z M 459.933594 43.390625" stroke-linecap="round" />
</g>
		<g transform="matrix(1.33 0 0 1.33 28.92 -179.33)"  >
<path style="stroke: none; stroke-width: 1; stroke-dasharray: none; stroke-linecap: butt; stroke-dashoffset: 0; stroke-linejoin: miter; stroke-miterlimit: 4; fill: rgb(241,141,70); fill-rule: nonzero; opacity: 1;" vector-effect="non-scaling-stroke"  transform=" translate(-277.69, -121.49)" d="M 286.371094 121.492188 C 286.371094 126.285156 282.48828100000003 130.167969 277.695312 130.167969 C 272.902344 130.167969 269.015625 126.285156 269.015625 121.492188 C 269.015625 116.699219 272.902344 112.8125 277.695312 112.8125 C 282.48828100000003 112.8125 286.371094 116.699219 286.371094 121.492188 z M 286.371094 121.492188" stroke-linecap="round" />
</g>
		<g transform="matrix(1.33 0 0 1.33 306.62 -109.9)"  >
<path style="stroke: none; stroke-width: 1; stroke-dasharray: none; stroke-linecap: butt; stroke-dashoffset: 0; stroke-linejoin: miter; stroke-miterlimit: 4; fill: rgb(241,141,70); fill-rule: nonzero; opacity: 1;" vector-effect="non-scaling-stroke"  transform=" translate(-485.97, -173.56)" d="M 494.644531 173.558594 C 494.644531 178.351562 490.75781199999994 182.238281 485.96484399999997 182.238281 C 481.17187499999994 182.238281 477.28906199999994 178.351562 477.28906199999994 173.558594 C 477.28906199999994 168.765625 481.17187499999994 164.882812 485.96484399999997 164.882812 C 490.75781199999994 164.882812 494.644531 168.765625 494.644531 173.558594 z M 494.644531 173.558594" stroke-linecap="round" />
</g>
		<g transform="matrix(1.33 0 0 1.33 202.49 -40.48)"  >
<path style="stroke: none; stroke-width: 1; stroke-dasharray: none; stroke-linecap: butt; stroke-dashoffset: 0; stroke-linejoin: miter; stroke-miterlimit: 4; fill: rgb(241,141,70); fill-rule: nonzero; opacity: 1;" vector-effect="non-scaling-stroke"  transform=" translate(-407.87, -225.63)" d="M 416.542969 225.628906 C 416.542969 230.417969 412.65625 234.304688 407.86328100000003 234.304688 C 403.07031200000006 234.304688 399.1875 230.417969 399.1875 225.628906 C 399.1875 220.835938 403.070312 216.949219 407.86328100000003 216.949219 C 412.65625000000006 216.949219 416.542969 220.835938 416.542969 225.628906 z M 416.542969 225.628906" stroke-linecap="round" />
</g>
		<g transform="matrix(1.33 0 0 1.33 -98.35 -295.03)"  >
<path style="stroke: none; stroke-width: 1; stroke-dasharray: none; stroke-linecap: butt; stroke-dashoffset: 0; stroke-linejoin: miter; stroke-miterlimit: 4; fill: rgb(241,141,70); fill-rule: nonzero; opacity: 1;" vector-effect="non-scaling-stroke"  transform=" translate(-182.24, -34.71)" d="M 190.914062 34.710938 C 190.914062 39.503906 187.03125 43.390625 182.238281 43.390625 C 177.445312 43.390625 173.558594 39.503906 173.558594 34.710938 C 173.558594 29.917969 177.445312 26.035156 182.238281 26.035156 C 187.03125 26.035156 190.914062 29.917969 190.914062 34.710938 z M 190.914062 34.710938" stroke-linecap="round" />
</g>
		<g transform="matrix(1.33 0 0 1.33 201.8 -237.18)"  >
<path style="stroke: none; stroke-width: 1; stroke-dasharray: none; stroke-linecap: butt; stroke-dashoffset: 0; stroke-linejoin: miter; stroke-miterlimit: 4; fill: rgb(236,240,241); fill-rule: nonzero; opacity: 1;" vector-effect="non-scaling-stroke"  transform=" translate(-407.35, -78.1)" d="M 407.863281 112.8125 C 404.816406 112.816406 401.988281 111.21875 400.41796899999997 108.605469 C 389.640625 90.695312 386.83593799999994 75.324219 391.97656199999994 62.914062 C 396.207031 53.460938 404.44531199999994 46.394531 414.43359399999997 43.648438 C 419.066406 42.496094 423.76171899999997 45.300781 424.941406 49.925781 C 426.12109399999997 54.554688 423.33984399999997 59.261719 418.71875 60.46875 C 413.996094 61.894531 410.09375 65.242188 407.960938 69.691406 C 405.164062 76.636719 407.707031 87.003906 415.300781 99.667969 C 416.910156 102.347656 416.957031 105.6875 415.41796899999997 108.410156 C 413.87499999999994 111.128906 410.992188 112.8125 407.863281 112.8125 z M 407.863281 112.8125" stroke-linecap="round" />
</g>
		<g transform="matrix(1.33 0 0 1.33 17.36 -318.18)"  >
<path style="stroke: none; stroke-width: 1; stroke-dasharray: none; stroke-linecap: butt; stroke-dashoffset: 0; stroke-linejoin: miter; stroke-miterlimit: 4; fill: rgb(243,213,91); fill-rule: nonzero; opacity: 1;" vector-effect="non-scaling-stroke"  transform=" translate(-269.02, -17.36)" d="M 269.015625 34.710938 C 264.222656 34.710938 260.33984399999997 30.828125 260.33984399999997 26.035156 L 260.33984399999997 8.679688000000002 C 260.33984399999997 3.886719000000002 264.222656 1.7763568394002505e-15 269.015625 1.7763568394002505e-15 C 273.808594 1.7763568394002505e-15 277.695312 3.8867190000000016 277.695312 8.679688000000002 L 277.695312 26.035156 C 277.695312 30.828125 273.808594 34.710938 269.015625 34.710938 z M 269.015625 34.710938" stroke-linecap="round" />
</g>
		<g transform="matrix(1.33 0 0 1.33 -17.35 -283.47)"  >
<path style="stroke: none; stroke-width: 1; stroke-dasharray: none; stroke-linecap: butt; stroke-dashoffset: 0; stroke-linejoin: miter; stroke-miterlimit: 4; fill: rgb(243,213,91); fill-rule: nonzero; opacity: 1;" vector-effect="non-scaling-stroke"  transform=" translate(-242.98, -43.39)" d="M 251.660156 52.066406 L 234.304688 52.066406 C 229.511719 52.066406 225.628906 48.183594 225.628906 43.390625 C 225.628906 38.597656 229.511719 34.710938 234.304688 34.710938 L 251.660156 34.710938 C 256.453125 34.710938 260.339844 38.597656 260.339844 43.390625 C 260.339844 48.183594 256.453125 52.066406 251.66015600000003 52.066406 z M 251.660156 52.066406" stroke-linecap="round" />
</g>
		<g transform="matrix(1.33 0 0 1.33 52.07 -283.47)"  >
<path style="stroke: none; stroke-width: 1; stroke-dasharray: none; stroke-linecap: butt; stroke-dashoffset: 0; stroke-linejoin: miter; stroke-miterlimit: 4; fill: rgb(243,213,91); fill-rule: nonzero; opacity: 1;" vector-effect="non-scaling-stroke"  transform=" translate(-295.05, -43.39)" d="M 303.730469 52.066406 L 286.371094 52.066406 C 281.58203100000003 52.066406 277.695312 48.183594 277.695312 43.390625 C 277.695312 38.597656 281.58203100000003 34.710938 286.371094 34.710938 L 303.730469 34.710938 C 308.52343800000006 34.710938 312.40625 38.597656 312.40625 43.390625 C 312.40625 48.183594 308.523438 52.066406 303.73046899999997 52.066406 z M 303.730469 52.066406" stroke-linecap="round" />
</g>
		<g transform="matrix(1.33 0 0 1.33 17.36 -248.75)"  >
<path style="stroke: none; stroke-width: 1; stroke-dasharray: none; stroke-linecap: butt; stroke-dashoffset: 0; stroke-linejoin: miter; stroke-miterlimit: 4; fill: rgb(243,213,91); fill-rule: nonzero; opacity: 1;" vector-effect="non-scaling-stroke"  transform=" translate(-269.02, -69.42)" d="M 269.015625 86.78125 C 264.222656 86.78125 260.33984399999997 82.894531 260.33984399999997 78.101562 L 260.33984399999997 60.746094 C 260.33984399999997 55.953125 264.222656 52.066406 269.015625 52.066406 C 273.808594 52.066406 277.695312 55.953125 277.695312 60.746094 L 277.695312 78.101562 C 277.695312 82.894531 273.808594 86.78125 269.015625 86.78125 z M 269.015625 86.78125" stroke-linecap="round" />
</g>
		<g transform="matrix(1.33 0 0 1.33 283.48 -28.91)"  >
<path style="stroke: none; stroke-width: 1; stroke-dasharray: none; stroke-linecap: butt; stroke-dashoffset: 0; stroke-linejoin: miter; stroke-miterlimit: 4; fill: rgb(243,213,91); fill-rule: nonzero; opacity: 1;" vector-effect="non-scaling-stroke"  transform=" translate(-468.61, -234.3)" d="M 468.609375 251.660156 C 463.816406 251.660156 459.93359399999997 247.777344 459.93359399999997 242.984375 L 459.93359399999997 225.628906 C 459.93359399999997 220.835938 463.816406 216.949219 468.609375 216.949219 C 473.402344 216.949219 477.289062 220.835938 477.289062 225.628906 L 477.289062 242.984375 C 477.289062 247.777344 473.402344 251.660156 468.609375 251.660156 z M 468.609375 251.660156" stroke-linecap="round" />
</g>
		<g transform="matrix(1.33 0 0 1.33 248.77 5.8)"  >
<path style="stroke: none; stroke-width: 1; stroke-dasharray: none; stroke-linecap: butt; stroke-dashoffset: 0; stroke-linejoin: miter; stroke-miterlimit: 4; fill: rgb(243,213,91); fill-rule: nonzero; opacity: 1;" vector-effect="non-scaling-stroke"  transform=" translate(-442.58, -260.34)" d="M 451.253906 269.015625 L 433.898438 269.015625 C 429.10546899999997 269.015625 425.21875 265.132812 425.21875 260.33984399999997 C 425.21875 255.54687499999997 429.105469 251.66015599999997 433.898438 251.66015599999997 L 451.253906 251.66015599999997 C 456.046875 251.66015599999997 459.93359399999997 255.54687499999997 459.93359399999997 260.33984399999997 C 459.93359399999997 265.13281199999994 456.04687499999994 269.015625 451.253906 269.015625 z M 451.253906 269.015625" stroke-linecap="round" />
</g>
		<g transform="matrix(1.33 0 0 1.33 318.19 5.8)"  >
<path style="stroke: none; stroke-width: 1; stroke-dasharray: none; stroke-linecap: butt; stroke-dashoffset: 0; stroke-linejoin: miter; stroke-miterlimit: 4; fill: rgb(243,213,91); fill-rule: nonzero; opacity: 1;" vector-effect="non-scaling-stroke"  transform=" translate(-494.64, -260.34)" d="M 503.320312 269.015625 L 485.964844 269.015625 C 481.171875 269.015625 477.289062 265.132812 477.289062 260.33984399999997 C 477.289062 255.54687499999997 481.171875 251.66015599999997 485.964844 251.66015599999997 L 503.320312 251.66015599999997 C 508.11328100000003 251.66015599999997 512 255.54687499999997 512 260.33984399999997 C 512 265.13281199999994 508.113281 269.015625 503.320312 269.015625 z M 503.320312 269.015625" stroke-linecap="round" />
</g>
		<g transform="matrix(1.33 0 0 1.33 283.48 40.51)"  >
<path style="stroke: none; stroke-width: 1; stroke-dasharray: none; stroke-linecap: butt; stroke-dashoffset: 0; stroke-linejoin: miter; stroke-miterlimit: 4; fill: rgb(243,213,91); fill-rule: nonzero; opacity: 1;" vector-effect="non-scaling-stroke"  transform=" translate(-468.61, -286.37)" d="M 468.609375 303.730469 C 463.816406 303.730469 459.93359399999997 299.84375 459.93359399999997 295.05078100000003 L 459.93359399999997 277.69531200000006 C 459.93359399999997 272.9023440000001 463.816406 269.01562500000006 468.609375 269.01562500000006 C 473.402344 269.01562500000006 477.289062 272.9023440000001 477.289062 277.69531200000006 L 477.289062 295.05078100000003 C 477.289062 299.84375000000006 473.402344 303.730469 468.609375 303.730469 z M 468.609375 303.730469" stroke-linecap="round" />
</g>
		<g transform="matrix(1.33 0 0 1.33 -86.78 -156.19)"  >
<path style="stroke: none; stroke-width: 1; stroke-dasharray: none; stroke-linecap: butt; stroke-dashoffset: 0; stroke-linejoin: miter; stroke-miterlimit: 4; fill: rgb(243,213,91); fill-rule: nonzero; opacity: 1;" vector-effect="non-scaling-stroke"  transform=" translate(-190.92, -138.85)" d="M 190.914062 156.203125 C 186.121094 156.203125 182.238281 152.316406 182.238281 147.527344 L 182.238281 130.167969 C 182.238281 125.375 186.121094 121.492188 190.914062 121.492188 C 195.707031 121.492188 199.59375 125.375 199.59375 130.167969 L 199.59375 147.527344 C 199.59375 152.316406 195.707031 156.203125 190.914062 156.203125 z M 190.914062 156.203125" stroke-linecap="round" />
</g>
		<g transform="matrix(1.33 0 0 1.33 -121.49 -121.48)"  >
<path style="stroke: none; stroke-width: 1; stroke-dasharray: none; stroke-linecap: butt; stroke-dashoffset: 0; stroke-linejoin: miter; stroke-miterlimit: 4; fill: rgb(243,213,91); fill-rule: nonzero; opacity: 1;" vector-effect="non-scaling-stroke"  transform=" translate(-164.88, -164.88)" d="M 173.558594 173.558594 L 156.203125 173.558594 C 151.410156 173.558594 147.527344 169.675781 147.527344 164.882812 C 147.527344 160.089844 151.410156 156.203125 156.203125 156.203125 L 173.558594 156.203125 C 178.351562 156.203125 182.238281 160.089844 182.238281 164.882812 C 182.238281 169.675781 178.351562 173.558594 173.558594 173.558594 z M 173.558594 173.558594" stroke-linecap="round" />
</g>
		<g transform="matrix(1.33 0 0 1.33 -52.07 -121.48)"  >
<path style="stroke: none; stroke-width: 1; stroke-dasharray: none; stroke-linecap: butt; stroke-dashoffset: 0; stroke-linejoin: miter; stroke-miterlimit: 4; fill: rgb(243,213,91); fill-rule: nonzero; opacity: 1;" vector-effect="non-scaling-stroke"  transform=" translate(-216.95, -164.88)" d="M 225.628906 173.558594 L 208.269531 173.558594 C 203.480469 173.558594 199.59375 169.675781 199.59375 164.882812 C 199.59375 160.089844 203.480469 156.203125 208.269531 156.203125 L 225.628906 156.203125 C 230.417969 156.203125 234.304688 160.089844 234.304688 164.882812 C 234.304688 169.675781 230.417969 173.558594 225.628906 173.558594 z M 225.628906 173.558594" stroke-linecap="round" />
</g>
		<g transform="matrix(1.33 0 0 1.33 -86.78 -86.77)"  >
<path style="stroke: none; stroke-width: 1; stroke-dasharray: none; stroke-linecap: butt; stroke-dashoffset: 0; stroke-linejoin: miter; stroke-miterlimit: 4; fill: rgb(243,213,91); fill-rule: nonzero; opacity: 1;" vector-effect="non-scaling-stroke"  transform=" translate(-190.92, -190.91)" d="M 190.914062 208.269531 C 186.121094 208.269531 182.238281 204.386719 182.238281 199.59375 L 182.238281 182.238281 C 182.238281 177.445312 186.121094 173.558594 190.914062 173.558594 C 195.707031 173.558594 199.59375 177.445312 199.59375 182.238281 L 199.59375 199.59375 C 199.59375 204.386719 195.707031 208.269531 190.914062 208.269531 z M 190.914062 208.269531" stroke-linecap="round" />
</g>
		<g transform="matrix(1.33 0 0 1.33 52.83 -74.44)"  >
<path style="stroke: none; stroke-width: 1; stroke-dasharray: none; stroke-linecap: butt; stroke-dashoffset: 0; stroke-linejoin: miter; stroke-miterlimit: 4; fill: rgb(128,69,55); fill-rule: nonzero; opacity: 1;" vector-effect="non-scaling-stroke"  transform=" translate(-295.63, -200.16)" d="M 309.890625 214.433594 C 306.46875 217.789062 300.98828100000003 217.789062 297.56640600000003 214.433594 L 280.21093800000006 197.078125 C 279.70312500000006 196.539062 279.23828100000003 195.957031 278.824219 195.339844 L 290.71093800000006 183.367188 C 291.39062500000006 183.730469 292.00390600000003 184.199219 292.53515600000003 184.753906 L 309.890625 202.109375 C 313.273438 205.519531 313.273438 211.023438 309.890625 214.433594 z M 309.890625 214.433594" stroke-linecap="round" />
</g>
		<g transform="matrix(1.33 0 0 1.33 4.49 16.07)"  >
<path style="stroke: none; stroke-width: 1; stroke-dasharray: none; stroke-linecap: butt; stroke-dashoffset: 0; stroke-linejoin: miter; stroke-miterlimit: 4; fill: rgb(128,69,55); fill-rule: nonzero; opacity: 1;" vector-effect="non-scaling-stroke"  transform=" translate(-259.37, -268.04)" d="M 275.785156 272.226562 L 263.550781 284.464844 C 263.28906199999994 284.289062 263.117188 284.03125 262.85546899999997 283.855469 L 245.49999999999997 266.5 C 242.09765599999997 263.097656 242.09765599999997 257.58203100000003 245.49999999999997 254.175781 C 248.90234399999997 250.773438 254.41796899999997 250.773438 257.82421899999997 254.175781 L 275.17968799999994 271.53515600000003 C 275.40624999999994 271.74218800000006 275.60937499999994 271.976562 275.7851559999999 272.226562 z M 275.785156 272.226562" stroke-linecap="round" />
</g>
		<g transform="matrix(1.33 0 0 1.33 -76.45 97.13)"  >
<path style="stroke: none; stroke-width: 1; stroke-dasharray: none; stroke-linecap: butt; stroke-dashoffset: 0; stroke-linejoin: miter; stroke-miterlimit: 4; fill: rgb(128,69,55); fill-rule: nonzero; opacity: 1;" vector-effect="non-scaling-stroke"  transform=" translate(-198.66, -328.83)" d="M 215.125 333.058594 L 202.976562 345.296875 C 202.652344 345.113281 202.359375 344.878906 202.109375 344.601562 L 184.753906 327.246094 C 182.554688 325.042969 181.691406 321.83593800000006 182.5 318.828125 C 183.304688 315.824219 185.652344 313.472656 188.660156 312.667969 C 191.667969 311.86328100000003 194.875 312.72265600000003 197.078125 314.921875 L 214.433594 332.28125 C 214.691406 332.539062 214.867188 332.800781 215.125 333.058594 z M 215.125 333.058594" stroke-linecap="round" />
</g>
		<g transform="matrix(1.33 0 0 1.33 -179.58 179.13)"  >
<path style="stroke: none; stroke-width: 1; stroke-dasharray: none; stroke-linecap: butt; stroke-dashoffset: 0; stroke-linejoin: miter; stroke-miterlimit: 4; fill: rgb(128,69,55); fill-rule: nonzero; opacity: 1;" vector-effect="non-scaling-stroke"  transform=" translate(-121.32, -390.34)" d="M 145.789062 402.65625 L 133.726562 414.80859399999997 L 133.640625 414.80859399999997 C 133.304688 414.566406 132.988281 414.30859399999997 132.6875 414.02734399999997 L 97.972656 379.3125 C 97.574219 378.902344 97.195312 378.46875 96.847656 378.011719 L 108.910156 365.86328100000003 C 109.390625 366.21093800000006 109.855469 366.589844 110.296875 366.99218800000006 L 145.007812 401.70312500000006 C 145.316406 401.9804690000001 145.578125 402.30078100000003 145.789062 402.65625000000006 z M 145.789062 402.65625" stroke-linecap="round" />
</g>
		<g transform="matrix(1.33 0 0 1.33 -259.34 238.14)"  >
<path style="stroke: none; stroke-width: 1; stroke-dasharray: none; stroke-linecap: butt; stroke-dashoffset: 0; stroke-linejoin: miter; stroke-miterlimit: 4; fill: rgb(128,69,55); fill-rule: nonzero; opacity: 1;" vector-effect="non-scaling-stroke"  transform=" translate(-61.49, -434.59)" d="M 75.585938 448.738281 C 72.164062 452.09375 66.683594 452.09375 63.261719 448.738281 L 45.90625 431.38281199999994 C 45.539062 430.99609399999997 45.191406 430.58984399999997 44.863281 430.16796899999997 L 56.925781 417.92968799999994 C 56.925781 418.0195309999999 56.925781 418.0195309999999 57.015625 417.92968799999994 C 57.449219 418.3632809999999 57.882812 418.71093799999994 58.230469 419.0585939999999 L 75.585938 436.4140619999999 C 78.96875 439.8242189999999 78.96875 445.3281249999999 75.585938 448.7382809999999 z M 75.585938 448.738281" stroke-linecap="round" />
</g>
</g>
</g>
</svg>