<svg height="496pt" viewBox="0 -24 496 496" width="496pt" xmlns="http://www.w3.org/2000/svg"><path d="m280 295.847656h87.839844v80.007813h-239.839844v-80.007813zm0 0" fill="#965353"/><path d="m128 375.855469h239.839844v72.082031h-239.839844zm0 0" fill="#965353"/><path d="m88 0h40v72h-40zm0 0" fill="#ccd1d9"/><path d="m88 0v72h-88v-40c0-17.761719 14.320312-32 32-32zm0 0" fill="#965353"/><path d="m280 71.921875v.078125h-64v-32h64zm0 0" fill="#ccd1d9"/><path d="m368 0v72h-88v-32h-64v32h-88v-72zm0 0" fill="#965353"/><path d="m496 32v40h-88v-72h56c17.679688 0 32 14.238281 32 32zm0 0" fill="#965353"/><path d="m368 0h40v72h-40zm0 0" fill="#ccd1d9"/><path d="m496 72-40 71.921875v.078125h-111.921875v-24.078125h-192v24.078125h-112.078125v-.078125l-40-71.921875zm0 0" fill="#844747"/><path d="m376 144h80l40 71.921875h-56.078125v-24h-31.921875v-24h-32zm0 0" fill="#773e3e"/><path d="m344.078125 143.921875v.078125h-64v-24.078125h64zm0 0" fill="#ffce54"/><path d="m280.078125 143.921875v.078125h-64v-24.078125h64zm0 0" fill="#f6bb42"/><path d="m216.078125 143.921875v.078125h-64v-24.078125h64zm0 0" fill="#ffce54"/><path d="m184.078125 144h64v23.921875h-64zm0 0" fill="#ffce54"/><path d="m312 144h64v23.921875h-64zm0 0" fill="#ffce54"/><path d="m248.078125 144h63.921875v23.921875h-63.921875zm0 0" fill="#f6bb42"/><path d="m152 167.921875h-32v-23.921875h64.078125v23.921875zm0 0" fill="#f6bb42"/><path d="m184 191.921875v24h-64v-24zm0 0" fill="#f6bb42"/><path d="m184.078125 167.921875h31.921875v24h-64v-24zm0 0" fill="#ffce54"/><path d="m248.078125 167.921875h31.921875v24h-64v-24zm0 0" fill="#f6bb42"/><path d="m280 191.921875h32v24h-64v-24zm0 0" fill="#f6bb42"/><path d="m439.921875 191.921875v24h-64v-24zm0 0" fill="#f6bb42"/><path d="m375.921875 191.921875v24h-63.921875v-24zm0 0" fill="#ffce54"/><path d="m376 167.921875h32v24h-64v-24zm0 0" fill="#f6bb42"/><path d="m311.921875 191.921875h-31.921875v-24h64v24zm0 0" fill="#ffce54"/><path d="m248 191.921875v24h-64v-24zm0 0" fill="#ffce54"/><path d="m88 191.921875h32v24h-64v-24zm0 0" fill="#ffce54"/><path d="m120 167.921875h32v24h-64v-24zm0 0" fill="#f6bb42"/><path d="m88 167.921875v24h-32v24h-56l40-71.921875h80v23.921875zm0 0" fill="#773e3e"/><path d="m88 215.921875v79.925781h-88v-79.925781zm0 0" fill="#965353"/><path d="m0 295.847656h88v80.007813h-88zm0 0" fill="#965353"/><path d="m120 215.921875h8v232.015625h-40v-232.015625zm0 0" fill="#ccd1d9"/><path d="m280 215.921875v71.980469h-64v-71.980469zm0 0" fill="#ccd1d9"/><path d="m216 215.921875v79.925781h-88v-79.925781zm0 0" fill="#965353"/><path d="m375.921875 215.921875h31.917969v232.015625h-40v-232.015625zm0 0" fill="#ccd1d9"/><path d="m367.839844 215.921875v79.925781h-87.839844v-79.925781zm0 0" fill="#965353"/><path d="m496 215.921875v79.925781h-88.160156v-79.925781zm0 0" fill="#965353"/><path d="m496 295.847656v80.007813h-88.160156v-80.007813zm0 0" fill="#965353"/><path d="m496 375.855469v40.082031c0 17.679688-14.320312 32-32 32h-56.160156v-72.082031zm0 0" fill="#965353"/><path d="m88 375.855469v72.082031h-56c-17.679688 0-32-14.320312-32-32v-40.082031zm0 0" fill="#965353"/><path d="m247.871094 271.960938c-4.421875 0-8-3.578126-8-8v-16c0-4.425782 3.578125-8 8-8 4.425781 0 8 3.574218 8 8v16c0 4.421874-3.574219 8-8 8zm0 0" fill="#aab2bd"/><path d="m256 255.960938h-16c-4.425781 0-8-3.578126-8-8 0-4.425782 3.574219-8 8-8h16c4.425781 0 8 3.574218 8 8 0 4.421874-3.574219 8-8 8zm0 0" fill="#aab2bd"/><path d="m152.078125 135.960938h64v7.960937h-64zm0 0" fill="#f6bb42"/><path d="m280 135.960938h64v7.960937h-64zm0 0" fill="#f6bb42"/><path d="m216.078125 135.960938h64v7.960937h-64zm0 0" fill="#edab37"/><path d="m152.078125 183.960938h64v7.960937h-64zm0 0" fill="#f6bb42"/><path d="m280 183.960938h64v7.960937h-64zm0 0" fill="#f6bb42"/><path d="m216.078125 183.960938h64v7.960937h-64zm0 0" fill="#edab37"/><path d="m344.078125 183.960938h64v7.960937h-64zm0 0" fill="#edab37"/><path d="m88 183.960938h64v7.960937h-64zm0 0" fill="#edab37"/><path d="m184.078125 159.960938h64v7.960937h-64zm0 0" fill="#f6bb42"/><path d="m312.078125 159.960938h64v7.960937h-64zm0 0" fill="#f6bb42"/><path d="m248.078125 159.960938h64v7.960937h-64zm0 0" fill="#edab37"/><path d="m120 159.960938h64v7.960937h-64zm0 0" fill="#edab37"/><path d="m184.078125 208h64v7.960938h-64zm0 0" fill="#f6bb42"/><path d="m56 208h64v7.960938h-64zm0 0" fill="#f6bb42"/><path d="m312.078125 208h64v7.960938h-64zm0 0" fill="#f6bb42"/><path d="m248.078125 208h64v7.960938h-64zm0 0" fill="#edab37"/><path d="m375.839844 208h64v7.960938h-64zm0 0" fill="#edab37"/><path d="m120 208h64v7.960938h-64zm0 0" fill="#edab37"/><g fill="#844747"><path d="m0 287.902344h88v16h-88zm0 0"/><path d="m407.921875 287.902344h88v16h-88zm0 0"/><path d="m128 287.902344h239.839844v16h-239.839844zm0 0"/><path d="m128 367.855469h239.839844v16h-239.839844zm0 0"/><path d="m0 367.855469h88v16h-88zm0 0"/><path d="m407.921875 367.855469h88v16h-88zm0 0"/></g></svg>