<?xml version="1.0" encoding="utf-8"?>
<!-- Svg Vector Icons : http://www.onlinewebfonts.com/icon -->
<!DOCTYPE svg PUBLIC "-//W3C//DTD SVG 1.1//EN" "http://www.w3.org/Graphics/SVG/1.1/DTD/svg11.dtd">
<svg version="1.1" xmlns="http://www.w3.org/2000/svg" xmlns:xlink="http://www.w3.org/1999/xlink" x="0px" y="0px" viewBox="0 0 1000 1000" enable-background="new 0 0 1000 1000" xml:space="preserve">
<metadata> Svg Vector Icons : http://www.onlinewebfonts.com/icon </metadata>
<g><path d="M767,973.2H251.7c-45.7,0-83-36.4-84.5-81.7l-67.4-721c-2.5-27.9,18.1-52.5,46-55c27.6-2.3,52.5,18.1,55,46l66.5,710.4h484.1l47.7-524.3c2.5-27.9,27.8-48.2,55-45.9c27.9,2.5,48.4,27.2,45.9,55.1l-48.6,534.9C850,936.8,812.7,973.2,767,973.2z"/><path d="M939.3,214.3H60.7c-28,0-50.7-22.7-50.7-50.7c0-28,22.7-50.7,50.7-50.7h878.6c28,0,50.7,22.7,50.7,50.7C990,191.6,967.3,214.3,939.3,214.3z"/><path d="M700.2,120.7c0,43.2-35,78.3-78.3,78.3H395c-43.2,0-78.3-35-78.3-78.3v-15.7c0-43.2,35-78.3,78.3-78.3h227c43.2,0,78.3,35,78.3,78.3V120.7z"/><path d="M366.5,827c-24.3,0-44.8-18.8-46.5-43.4l-31.1-436.3c-1.8-25.7,17.5-48.1,43.3-49.9c25.6-2,48.1,17.5,49.9,43.3L413.2,777c1.8,25.7-17.5,48.1-43.3,49.9C368.8,827,367.7,827,366.5,827z"/><path d="M516.5,827c-25.8,0-46.7-20.9-46.7-46.7l0-436.3c0-25.8,20.9-46.7,46.7-46.7c25.8,0,46.7,20.9,46.7,46.7v436.3C563.2,806.1,542.2,827,516.5,827z"/><path d="M666.4,827c-1.1,0-2.3,0-3.4-0.1c-25.8-1.8-45.1-24.2-43.3-49.9l31.1-436.3c1.9-25.7,24.6-45.3,49.9-43.3c25.8,1.8,45.1,24.2,43.3,49.9l-31.1,436.3C711.1,808.2,690.6,827,666.4,827z"/></g>
</svg>