<?xml version="1.0" encoding="utf-8"?>
<!-- Svg Vector Icons : http://www.onlinewebfonts.com/icon -->
<!DOCTYPE svg PUBLIC "-//W3C//DTD SVG 1.1//EN" "http://www.w3.org/Graphics/SVG/1.1/DTD/svg11.dtd">
<svg version="1.1" xmlns="http://www.w3.org/2000/svg" xmlns:xlink="http://www.w3.org/1999/xlink" x="0px" y="0px" viewBox="0 0 1000 1000" enable-background="new 0 0 1000 1000" xml:space="preserve">
<metadata> Svg Vector Icons : http://www.onlinewebfonts.com/icon </metadata>
<g><path d="M989.6,145.3c-0.1-1.2-0.3-2.4-0.7-3.5c-0.3-1.1-0.8-2-1.4-2.9c-0.5-1-1.1-1.8-1.8-2.7c-0.8-0.9-1.7-1.7-2.7-2.4c-0.5-0.4-0.9-1-1.5-1.3c-0.3-0.2-0.7-0.2-1-0.3c-1-0.6-2.2-0.9-3.3-1.2c-1.1-0.3-2.2-0.6-3.3-0.7c-0.4,0-0.7-0.2-1.1-0.2H27.3c-0.4,0-0.8,0.2-1.2,0.3c-1.1,0.1-2.1,0.3-3.2,0.6c-1.2,0.3-2.3,0.6-3.4,1.2c-0.3,0.2-0.7,0.2-1,0.3c-0.6,0.3-0.9,0.9-1.5,1.3c-1,0.8-1.9,1.5-2.7,2.4c-0.7,0.9-1.3,1.7-1.8,2.7c-0.6,1-1,1.9-1.4,3c-0.3,1.1-0.5,2.3-0.7,3.5c-0.1,0.7-0.4,1.3-0.4,2v705.5c0,9.6,7.8,17.3,17.3,17.3h945.4c9.6,0,17.3-7.8,17.3-17.3V147.2C990,146.6,989.7,146,989.6,145.3L989.6,145.3z M940.8,164.6c-51.3,76-215.7,296.3-440.8,374.1C274.8,460.9,110.5,240.5,59.2,164.6H940.8L940.8,164.6z M44.6,204.9c47.9,68.1,146.6,193,282.7,284.6C188.8,597.9,88.5,733.2,44.6,798.2V204.9L44.6,204.9z M61.6,835.4c34.6-53,143.8-209.6,296.6-326.2c42.3,25.8,87.9,48,136.3,64.2c0,0,0.1,0,0.1,0c1.7,0.6,3.5,0.9,5.4,0.9c1.8,0,3.6-0.3,5.3-0.9c0,0,0.1,0,0.1,0c48.4-16.2,93.9-38.4,136.2-64.2c152.8,116.6,262,273.1,296.6,326.1H61.6L61.6,835.4z M955.4,798.5c-43.7-64.9-144.1-200.4-282.8-308.9C808.7,398,907.5,273,955.4,204.9V798.5L955.4,798.5z"/></g>
</svg>