<svg id="Layer_1" enable-background="new 0 0 512 512" height="512" viewBox="0 0 512 512" width="512" xmlns="http://www.w3.org/2000/svg"><path d="m1.534 213.068h102.91v16h-102.91z" fill="#6e83b7" transform="matrix(.846 -.534 .534 .846 -109.773 62.362)"/><path d="m97.044 270.439-12.519-19.846c4.1-5.076 4.747-12.387 1.072-18.213l-21.404-33.933-26.627 16.796-21.393 13.494 21.405 33.933c3.675 5.826 10.552 8.391 16.899 6.877l12.519 19.846z" fill="#ffd3b3"/><path d="m16.173 228.738 14.396 22.823c2.516.526 5.229.122 7.569-1.354 1.815-1.145 3.146-2.77 3.937-4.607 3.003 1.292 6.571 1.137 9.539-.736 2.203-1.39 3.686-3.488 4.362-5.811 2.644.682 5.55.326 8.036-1.242 2.752-1.736 4.389-4.574 4.716-7.582 2.166.196 4.408-.279 6.385-1.527 2.25-1.42 3.749-3.579 4.403-5.962l-15.324-24.293-26.627 16.796z" fill="#fcb98b"/><g fill="#ffd3b3"><path d="m63.613 223.825-12.239-19.403c-2.099-3.328-1.103-7.727 2.225-9.827 3.328-2.099 7.727-1.103 9.827 2.225l12.239 19.403c2.099 3.328 1.103 7.727-2.225 9.827-3.328 2.099-7.728 1.103-9.827-2.225z"/><path d="m40.115 239.986-13.794-21.867c-2.099-3.328-1.103-7.727 2.225-9.827 3.328-2.099 7.727-1.103 9.827 2.225l13.794 21.867c2.099 3.328 1.103 7.727-2.225 9.827-3.329 2.099-7.728 1.103-9.827-2.225z"/><path d="m26.638 245.329-10.943-17.349c-2.099-3.328-1.103-7.727 2.225-9.827 3.328-2.099 7.727-1.103 9.827 2.225l10.943 17.348c2.099 3.328 1.103 7.727-2.225 9.827-3.328 2.1-7.728 1.103-9.827-2.224z"/><path d="m52.512 232.933-14.14-22.416c-2.099-3.328-1.103-7.727 2.225-9.827 3.328-2.099 7.727-1.103 9.827 2.225l14.14 22.416c2.099 3.328 1.103 7.727-2.225 9.827-3.328 2.099-7.728 1.103-9.827-2.225z"/></g><path d="m71.516 215.132-11.568 7.297c-4.568 2.881-6.075 8.794-3.578 13.487 1.934.617 4.117.41 5.969-.758 3.328-2.099 4.324-6.499 2.225-9.827l-.95-1.506c2.099 3.328 6.499 4.324 9.827 2.225s4.324-6.499 2.225-9.827l-1.443-2.288c-.935.261-1.847.654-2.707 1.197z" fill="#fcb98b"/><path d="m61.621 225.081 11.568-7.297c3.328-2.099 7.727-1.103 9.827 2.225 2.099 3.328 1.103 7.727-2.225 9.827l-11.568 7.297c-3.328 2.099-7.727 1.103-9.827-2.225-2.099-3.328-1.103-7.727 2.225-9.827z" fill="#ffd3b3"/><path d="m67.318 262.495c-.269-.409-6.575-10.121-5.364-18.206l3.956.593c-.819 5.469 3.151 12.983 4.75 15.417z" fill="#fcb98b"/><path d="m92.773 146.511h48.446v68.363h-48.446z" fill="#6e83b7" transform="matrix(.846 -.534 .534 .846 -78.361 90.285)"/><path d="m71.15 140.065h48.446v12.696h-48.446z" fill="#edeff1" transform="matrix(.846 -.534 .534 .846 -63.407 73.462)"/><path d="m114.396 208.624h48.446v12.696h-48.446z" fill="#edeff1" transform="matrix(.846 -.534 .534 .846 -93.315 107.107)"/><path d="m272.792 243.826c-15.563 0-28.179-12.616-28.179-28.179v-28.179h56.358v28.179c-.001 15.563-12.617 28.179-28.179 28.179z" fill="#ffd3b3"/><path d="m244.613 202.695c8.349 3.884 18.051 6.062 28.179 6.062s19.83-2.178 28.179-6.062v-15.227h-56.358z" fill="#fcb98b"/><path d="m333.075 138.978c0 33.121-27.161 59.97-60.532 59.97s-60.532-26.85-60.532-59.97v-58.884h121.064z" fill="#ffd3b3"/><path d="m212.01 98.757h-6.176c-6.2 0-11.033 5.373-10.378 11.539l1.797 16.919c.676 6.369 6.049 11.201 12.454 11.201h2.303z" fill="#ffd3b3"/><path d="m333.075 98.757h6.176c6.2 0 11.033 5.373 10.378 11.539l-1.797 16.919c-.676 6.369-6.049 11.201-12.454 11.201h-2.303z" fill="#ffd3b3"/><path d="m430.807 384.049c.482-7.17-.977-14.338-4.224-20.75l-45.899-90.65c-8.853-17.612-25.033-30.415-44.209-34.981l-35.505-8.453v-20.873s-9.654 6.262-28.179 6.262-28.179-6.262-28.179-6.262v20.873l-35.505 8.453c-19.176 4.566-35.356 17.369-44.209 34.981l-29.4 58.492-35.957-71.33-43.5 24.908 54.714 108.583c4.955 9.821 15.137 16.059 26.099 16.059.264 0 .528-.004.793-.011 11.261-.309 20.602-7.149 25.97-17.498l15.244-30.092v145.335h93.929 93.929v-145.336l15.244 30.092-8.422 115.242h49z" fill="#80d6fb"/><path d="m339.251 26.073v72.684h-6.176v29.88l-14.86-37.543h-45.672v-65.021z" fill="#466089"/><path d="m300.97 26.073h-48.763c-9.29 0-16.851 7.313-17.293 16.493-16.304 1.476-29.08 15.173-29.08 31.862v24.33h6.176v29.88l14.86-37.543h79.36c18.237 0 33.021-14.784 33.021-33.021v-52.98s-5.52 20.979-38.281 20.979z" fill="#6e83b7"/><path d="m364.048 377.854c-17.356-9.899-28.071-28.344-28.071-48.325v-91.861l-20.519-4.885v94.978h-42.915-42.915v-94.978l-20.519 4.885v91.861c0 19.98-10.715 38.426-28.071 48.325l-2.175 1.24v128h93.68 93.68v-128z" fill="#6e83b7"/><path d="m278.543 451.406h-12c-22.091 0-40-17.909-40-40v-56h92v56c0 22.091-17.909 40-40 40z" fill="#466089"/><path d="m278.221 156.749h-14.158l4.587-16.678 5.785 1.591-2.499 9.087h6.285z" fill="#fcb98b"/><path d="m262.543 110.866s-7.726-2.893-17.259-1.55c-5.36.755-11.291 2.849-16.741 7.55 0 0 19.625-5 31 2z" fill="#6e83b7"/><circle cx="250.543" cy="129.866" fill="#6e83b7" r="6"/><path d="m282.543 110.866s18.857-7.061 34 6c0 0-19.625-5-31 2z" fill="#6e83b7"/><path d="m262.543 171.866h20l-.106.425c-1.113 4.452-5.113 7.575-9.701 7.575h-.384c-4.589 0-8.589-3.123-9.701-7.575z" fill="#edeff1"/><circle cx="294.543" cy="129.866" fill="#6e83b7" r="6"/></svg>