<?xml version="1.0" encoding="UTF-8" standalone="no" ?>
<!DOCTYPE svg PUBLIC "-//W3C//DTD SVG 1.1//EN" "http://www.w3.org/Graphics/SVG/1.1/DTD/svg11.dtd">
<svg xmlns="http://www.w3.org/2000/svg" xmlns:xlink="http://www.w3.org/1999/xlink" version="1.1" width="720" height="720" viewBox="0 0 720 720" xml:space="preserve">
<desc>Created with Fabric.js 4.2.0</desc>
<defs>
</defs>
<rect x="0" y="0" width="100%" height="100%" fill="transparent"></rect>
<g transform="matrix(1 0 0 1 360 360)" id="1b611884-6b14-41d1-85aa-cb9b3af04acb"  >
<rect style="stroke: none; stroke-width: 1; stroke-dasharray: none; stroke-linecap: butt; stroke-dashoffset: 0; stroke-linejoin: miter; stroke-miterlimit: 4; fill: rgb(255,255,255); fill-opacity: 0; fill-rule: nonzero; opacity: 1;" vector-effect="non-scaling-stroke"  x="-360" y="-360" rx="0" ry="0" width="720" height="720" />
</g>
<g transform="matrix(0 0 0 0 0 0)" id="099a0cde-e345-4787-9a8d-dbca54d07a07"  >
</g>
<g transform="matrix(1 0 0 1 593.15 583.64)" style="filter: url(#SVGID_1396);" id="849eb907-2d71-462c-903c-5d20216c3171"  >
<filter id="SVGID_1396" y="-32%" height="164%" x="-33%" width="166%" >
	<feGaussianBlur in="SourceAlpha" stdDeviation="7"></feGaussianBlur>
	<feOffset dx="11" dy="11" result="oBlur" ></feOffset>
	<feFlood flood-color="rgb(255,153,51)" flood-opacity="1"/>
	<feComposite in2="oBlur" operator="in" />
	<feMerge>
		<feMergeNode></feMergeNode>
		<feMergeNode in="SourceGraphic"></feMergeNode>
	</feMerge>
</filter>
		<text xml:space="preserve" font-family="Lato" font-size="186" font-style="normal" font-weight="400" style="stroke: none; stroke-width: 1; stroke-dasharray: none; stroke-linecap: butt; stroke-dashoffset: 0; stroke-linejoin: miter; stroke-miterlimit: 4; fill: rgb(255,255,51); fill-rule: nonzero; opacity: 1; white-space: pre;" ><tspan x="-98.58" y="58.43" >SS</tspan></text>
</g>
<g transform="matrix(1.36 0 0 1.36 359.97 359.97)"  >
<g style="" vector-effect="non-scaling-stroke"   >
		<g transform="matrix(1 0 0 1 -26.79 13.87)"  >
<path style="stroke: none; stroke-width: 1; stroke-dasharray: none; stroke-linecap: butt; stroke-dashoffset: 0; stroke-linejoin: miter; stroke-miterlimit: 4; fill: rgb(181,84,52); fill-rule: nonzero; opacity: 1;" vector-effect="non-scaling-stroke"  transform=" translate(-229.21, -269.87)" d="M 91.859 500.65 L 180.39499999999998 406.221 C 182.08899999999997 404.414 183.6 402.443 184.904 400.337 L 246.454 300.94399999999996 L 330.48 213.52099999999996 C 332.831 211.07499999999996 334.589 208.12099999999995 335.617 204.88699999999994 L 343.005 181.64999999999995 L 425.673 49.71899999999994 C 429.225 44.05099999999994 428.39 36.68099999999994 423.66 31.950999999999937 C 417.46000000000004 25.750999999999937 407.199 26.510999999999935 401.98 33.55699999999994 L 295.31 177.56699999999992 C 293.4 180.14499999999992 290.451 181.75099999999992 287.249 181.95599999999993 L 278.66400000000004 182.50599999999994 C 274.09900000000005 182.79799999999994 269.92900000000003 185.19199999999995 267.374 188.98599999999993 L 167.00400000000002 338.03099999999995 C 165.65 340.042 163.66400000000002 341.5439999999999 161.36100000000002 342.2989999999999 L 144.502 347.8279999999999 C 136.03 350.60599999999994 128.44400000000002 355.57699999999994 122.513 362.2339999999999 L 38.95 456.0429999999999 C 27.28 469.1439999999999 27.855000000000004 489.0739999999999 40.261 501.4809999999999 C 54.608000000000004 515.8269999999999 77.982 515.4509999999999 91.85900000000001 500.64999999999986 z" stroke-linecap="round" />
</g>
		<g transform="matrix(1 0 0 1 82.46 -188.32)"  >
<path style="stroke: none; stroke-width: 1; stroke-dasharray: none; stroke-linecap: butt; stroke-dashoffset: 0; stroke-linejoin: miter; stroke-miterlimit: 4; fill: rgb(255,224,89); fill-rule: nonzero; opacity: 1;" vector-effect="non-scaling-stroke"  transform=" translate(-338.46, -67.68)" d="M 403.786 64.485 L 389.445 60.039 C 368.736 53.618 352.522 37.403999999999996 346.102 16.695999999999998 L 341.65599999999995 2.3549999999999986 C 341.22099999999995 0.9539999999999986 339.92599999999993 -1.3322676295501878e-15 338.46099999999996 -1.3322676295501878e-15 C 336.99499999999995 -1.3322676295501878e-15 335.70099999999996 0.9539999999999986 335.26699999999994 2.3539999999999988 L 330.8209999999999 16.694999999999997 C 324.3999999999999 37.403999999999996 308.1859999999999 53.617999999999995 287.4779999999999 60.038 L 273.1369999999999 64.484 C 271.7369999999999 64.91799999999999 270.7829999999999 66.213 270.7829999999999 67.678 C 270.7829999999999 69.143 271.7369999999999 70.438 273.1369999999999 70.872 L 287.4779999999999 75.318 C 308.1869999999999 81.739 324.4009999999999 97.953 330.8209999999999 118.661 L 335.26699999999994 133.002 C 335.70099999999996 134.40200000000002 336.9959999999999 135.35600000000002 338.46099999999996 135.35600000000002 C 339.92599999999993 135.35600000000002 341.22099999999995 134.40200000000002 341.655 133.002 L 346.101 118.66100000000002 C 352.522 97.95200000000001 368.736 81.73800000000001 389.444 75.31800000000001 L 403.785 70.87200000000001 C 405.185 70.43800000000002 406.139 69.14300000000001 406.139 67.67800000000001 C 406.14 66.21400000000001 405.18600000000004 64.91900000000001 403.786 64.48500000000001 z" stroke-linecap="round" />
</g>
		<g transform="matrix(1 0 0 1 107.61 -168.09)"  >
<path style="stroke: none; stroke-width: 1; stroke-dasharray: none; stroke-linecap: butt; stroke-dashoffset: 0; stroke-linejoin: miter; stroke-miterlimit: 4; fill: rgb(255,199,81); fill-rule: nonzero; opacity: 1;" vector-effect="non-scaling-stroke"  transform=" translate(-363.61, -87.91)" d="M 406.135 67.673 C 406.135 69.14 405.183 70.435 403.77799999999996 70.873 L 389.45 75.321 C 368.739 81.736 352.52299999999997 97.952 346.108 118.663 L 341.66 133.006 C 341.223 134.411 339.928 135.363 338.46000000000004 135.363 C 336.9920000000001 135.363 335.69800000000004 134.411 335.26000000000005 133.006 L 330.81200000000007 118.663 C 328.6430000000001 111.64 325.33400000000006 105.131 321.0880000000001 99.341 C 343.6410000000001 95.33 360.74700000000007 75.618 360.74700000000007 51.925999999999995 C 360.74700000000007 47.977 360.27900000000005 44.13799999999999 359.3740000000001 40.455 C 367.2710000000001 49.507 377.6190000000001 56.375 389.4500000000001 60.042 L 403.7780000000001 64.49000000000001 C 405.18300000000005 64.92600000000002 406.1350000000001 66.206 406.1350000000001 67.673 z" stroke-linecap="round" />
</g>
		<g transform="matrix(1 0 0 1 25.02 -141.09)"  >
<path style="stroke: none; stroke-width: 1; stroke-dasharray: none; stroke-linecap: butt; stroke-dashoffset: 0; stroke-linejoin: miter; stroke-miterlimit: 4; fill: rgb(255,224,89); fill-rule: nonzero; opacity: 1;" vector-effect="non-scaling-stroke"  transform=" translate(-281.02, -114.91)" d="M 302.396 116.932 C 303.851 115.973 303.851 113.84400000000001 302.396 112.885 C 298.64000000000004 110.41000000000001 295.074 107.531 291.76300000000003 104.245 C 288.45200000000006 100.959 285.55100000000004 97.42 283.057 93.69300000000001 C 282.091 92.24900000000001 279.945 92.24900000000001 278.97900000000004 93.69300000000001 C 276.485 97.421 273.58400000000006 100.95900000000002 270.273 104.245 C 266.962 107.53099999999999 263.396 110.41000000000001 259.64000000000004 112.885 C 258.18500000000006 113.84400000000001 258.18500000000006 115.973 259.64000000000004 116.932 C 263.396 119.407 266.96200000000005 122.286 270.273 125.572 C 273.584 128.858 276.485 132.397 278.97900000000004 136.124 C 279.94500000000005 137.56799999999998 282.09100000000007 137.56799999999998 283.057 136.124 C 285.55100000000004 132.396 288.452 128.858 291.76300000000003 125.572 C 295.074 122.285 298.639 119.406 302.396 116.932 z" stroke-linecap="round" />
</g>
		<g transform="matrix(1 0 0 1 30.23 -135.28)"  >
<path style="stroke: none; stroke-width: 1; stroke-dasharray: none; stroke-linecap: butt; stroke-dashoffset: 0; stroke-linejoin: miter; stroke-miterlimit: 4; fill: rgb(255,199,81); fill-rule: nonzero; opacity: 1;" vector-effect="non-scaling-stroke"  transform=" translate(-286.23, -120.72)" d="M 302.397 116.93 C 298.641 119.405 295.07599999999996 122.283 291.763 125.57000000000001 C 288.45 128.85700000000003 285.54999999999995 132.395 283.05699999999996 136.12300000000002 C 282.09 137.56500000000003 279.948 137.56500000000003 278.98099999999994 136.12300000000002 C 276.4869999999999 132.39600000000002 273.58699999999993 128.85800000000003 270.2749999999999 125.57000000000002 C 269.84399999999994 125.14200000000002 269.4069999999999 124.72100000000002 268.96399999999994 124.30500000000002 C 269.5489999999999 124.35400000000003 270.13999999999993 124.37800000000001 270.73699999999997 124.37800000000001 C 282.10299999999995 124.37800000000001 291.36999999999995 115.42000000000002 291.75199999999995 104.23200000000001 C 291.7579999999999 104.23800000000001 291.7579999999999 104.23800000000001 291.76399999999995 104.24400000000001 C 295.07699999999994 107.53100000000002 298.64199999999994 110.40900000000002 302.39799999999997 112.88400000000001 C 303.84999999999997 113.84400000000001 303.84999999999997 115.97100000000002 302.397 116.93000000000002 z" stroke-linecap="round" />
</g>
		<g transform="matrix(1 0 0 1 150.14 -113.81)"  >
<path style="stroke: none; stroke-width: 1; stroke-dasharray: none; stroke-linecap: butt; stroke-dashoffset: 0; stroke-linejoin: miter; stroke-miterlimit: 4; fill: rgb(218,210,255); fill-rule: nonzero; opacity: 1;" vector-effect="non-scaling-stroke"  transform=" translate(-406.14, -142.19)" d="M 432.293 144.668 C 434.074 143.495 434.074 140.89000000000001 432.293 139.717 C 427.697 136.68900000000002 423.334 133.16600000000003 419.282 129.14600000000002 C 415.22999999999996 125.12500000000001 411.681 120.79600000000002 408.63 116.23400000000001 C 407.448 114.46700000000001 404.823 114.46700000000001 403.641 116.23400000000001 C 400.59000000000003 120.79500000000002 397.04 125.12500000000001 392.98900000000003 129.14600000000002 C 388.937 133.167 384.57500000000005 136.68900000000002 379.978 139.717 C 378.197 140.89000000000001 378.197 143.495 379.978 144.668 C 384.574 147.696 388.937 151.219 392.98900000000003 155.239 C 397.04100000000005 159.26 400.59000000000003 163.589 403.641 168.151 C 404.82300000000004 169.918 407.44800000000004 169.918 408.63 168.151 C 411.681 163.59 415.231 159.26000000000002 419.282 155.239 C 423.334 151.219 427.697 147.696 432.293 144.668 z" stroke-linecap="round" />
</g>
		<g transform="matrix(1 0 0 1 156.51 -106.7)"  >
<path style="stroke: none; stroke-width: 1; stroke-dasharray: none; stroke-linecap: butt; stroke-dashoffset: 0; stroke-linejoin: miter; stroke-miterlimit: 4; fill: rgb(195,185,249); fill-rule: nonzero; opacity: 1;" vector-effect="non-scaling-stroke"  transform=" translate(-412.51, -149.3)" d="M 432.294 144.666 C 427.698 147.694 423.33599999999996 151.216 419.28299999999996 155.238 C 415.22999999999996 159.26 411.681 163.589 408.62999999999994 168.15 C 407.44699999999995 169.91400000000002 404.82499999999993 169.91400000000002 403.6429999999999 168.15 C 400.5919999999999 163.589 397.0429999999999 159.26 392.9899999999999 155.238 C 392.4629999999999 154.715 391.9279999999999 154.199 391.3849999999999 153.69 C 392.1009999999999 153.75 392.8239999999999 153.78 393.5549999999999 153.78 C 407.4629999999999 153.78 418.8009999999999 142.819 419.2679999999999 129.13 C 419.2759999999999 129.137 419.2759999999999 129.137 419.2829999999999 129.14499999999998 C 423.3359999999999 133.16699999999997 427.6979999999999 136.689 432.2939999999999 139.71699999999998 C 434.07199999999995 140.89 434.07199999999995 143.492 432.2939999999999 144.666 z" stroke-linecap="round" />
</g>
		<g transform="matrix(1 0 0 1 -126.32 164.72)"  >
<path style="stroke: none; stroke-width: 1; stroke-dasharray: none; stroke-linecap: butt; stroke-dashoffset: 0; stroke-linejoin: miter; stroke-miterlimit: 4; fill: rgb(161,65,43); fill-rule: nonzero; opacity: 1;" vector-effect="non-scaling-stroke"  transform=" translate(-129.68, -420.72)" d="M 228.806 329.445 L 184.90800000000002 400.335 C 183.609 402.465 182.085 404.387 180.394 406.22499999999997 L 91.855 500.65299999999996 C 84.77300000000001 508.20399999999995 75.215 511.99399999999997 65.65700000000001 511.99399999999997 C 56.47600000000001 511.99399999999997 47.28500000000001 508.49899999999997 40.26400000000001 501.47799999999995 C 27.87300000000001 489.097 27.28200000000001 469.20699999999994 38.89900000000001 456.10299999999995 C 38.91900000000001 456.08299999999997 38.92900000000001 456.06199999999995 38.95000000000001 456.042 L 76.988 413.347 C 135.987 401.089 188.505 371.202 228.806 329.445 z" stroke-linecap="round" />
</g>
		<g transform="matrix(1 0 0 1 -163.7 217.17)"  >
<path style="stroke: none; stroke-width: 1; stroke-dasharray: none; stroke-linecap: butt; stroke-dashoffset: 0; stroke-linejoin: miter; stroke-miterlimit: 4; fill: rgb(127,57,44); fill-rule: nonzero; opacity: 1;" vector-effect="non-scaling-stroke"  transform=" translate(-92.3, -473.17)" d="M 154.023 434.338 L 103.472 488.262 L 91.856 500.653 C 84.774 508.204 75.216 511.994 65.65799999999999 511.994 C 56.47699999999999 511.994 47.28599999999999 508.499 40.264999999999986 501.478 C 29.983999999999988 491.207 27.83399999999999 475.769 34.02899999999999 463.32800000000003 C 41.94599999999999 464.51000000000005 50.04699999999999 465.12100000000004 58.30099999999999 465.12100000000004 C 94.01599999999999 465.12100000000004 127.07099999999998 453.70900000000006 154.02299999999997 434.338 z" stroke-linecap="round" />
</g>
		<g transform="matrix(1 0 0 1 -17.2 7.04)"  >
<path style="stroke: none; stroke-width: 1; stroke-dasharray: none; stroke-linecap: butt; stroke-dashoffset: 0; stroke-linejoin: miter; stroke-miterlimit: 4; fill: rgb(219,118,90); fill-rule: nonzero; opacity: 1;" vector-effect="non-scaling-stroke"  transform=" translate(-238.8, -263.04)" d="M 222.43 318.961 L 284.47 226.83100000000002 C 290.144 218.406 287.47400000000005 206.93800000000002 278.66400000000004 201.883 C 278.56700000000006 201.828 278.47100000000006 201.77200000000002 278.374 201.717 C 270.418 197.145 260.28000000000003 199.50900000000001 255.15500000000003 207.12 L 193.12900000000002 299.229 C 187.74300000000002 307.228 189.84500000000003 318.075 197.82700000000003 323.486 C 197.91600000000003 323.546 198.00400000000002 323.606 198.09300000000002 323.666 C 206.11200000000002 329.102 217.02 326.996 222.43 318.961 z" stroke-linecap="round" />
</g>
		<g transform="matrix(1 0 0 1 -10.72 -2.6)"  >
<path style="stroke: none; stroke-width: 1; stroke-dasharray: none; stroke-linecap: butt; stroke-dashoffset: 0; stroke-linejoin: miter; stroke-miterlimit: 4; fill: rgb(239,146,125); fill-rule: nonzero; opacity: 1;" vector-effect="non-scaling-stroke"  transform=" translate(-245.28, -253.4)" d="M 239.517 230.342 L 221.745 256.733 C 216.276 264.854 218.549 275.868 226.766 281.192 C 226.86499999999998 281.25600000000003 226.964 281.32 227.063 281.384 C 235.058 286.562 245.731 284.35900000000004 251.051 276.459 L 268.812 250.084 C 274.068 242.279 272.188 231.737 264.594 226.18 C 264.49899999999997 226.11 264.404 226.041 264.30899999999997 225.971 C 256.31899999999996 220.114 245.05099999999996 222.125 239.51699999999997 230.342 z" stroke-linecap="round" />
</g>
		<g transform="matrix(1 0 0 1 50.13 -221.12)"  >
<path style="stroke: none; stroke-width: 1; stroke-dasharray: none; stroke-linecap: butt; stroke-dashoffset: 0; stroke-linejoin: miter; stroke-miterlimit: 4; fill: rgb(218,210,255); fill-rule: nonzero; opacity: 1;" vector-effect="non-scaling-stroke"  transform=" translate(-306.13, -34.88)" d="M 332.289 37.354 C 334.07 36.181 334.07 33.576 332.289 32.403 C 327.693 29.375 323.33 25.851999999999997 319.27799999999996 21.832 C 315.227 17.811 311.67699999999996 13.482000000000001 308.626 8.92 C 307.44399999999996 7.1530000000000005 304.81899999999996 7.1530000000000005 303.637 8.92 C 300.586 13.481 297.036 17.811 292.985 21.832 C 288.934 25.853 284.571 29.375 279.974 32.403 C 278.193 33.576 278.193 36.181 279.974 37.354 C 284.57 40.382 288.933 43.905 292.985 47.925 C 297.03700000000003 51.946 300.586 56.275 303.637 60.836999999999996 C 304.819 62.604 307.444 62.604 308.626 60.836999999999996 C 311.67699999999996 56.275999999999996 315.227 51.946 319.27799999999996 47.925 C 323.33 43.905 327.693 40.382 332.289 37.354 z" stroke-linecap="round" />
</g>
		<g transform="matrix(1 0 0 1 56.5 -214.01)"  >
<path style="stroke: none; stroke-width: 1; stroke-dasharray: none; stroke-linecap: butt; stroke-dashoffset: 0; stroke-linejoin: miter; stroke-miterlimit: 4; fill: rgb(195,185,249); fill-rule: nonzero; opacity: 1;" vector-effect="non-scaling-stroke"  transform=" translate(-312.5, -41.99)" d="M 332.29 37.352 C 327.694 40.379999999999995 323.332 43.901999999999994 319.279 47.92399999999999 C 315.226 51.94599999999999 311.677 56.27499999999999 308.626 60.83599999999999 C 307.443 62.599999999999994 304.82099999999997 62.599999999999994 303.63899999999995 60.83599999999999 C 300.58799999999997 56.27499999999999 297.03899999999993 51.94599999999999 292.98599999999993 47.92399999999999 C 292.45899999999995 47.40099999999999 291.9239999999999 46.88499999999999 291.3809999999999 46.37599999999999 C 292.0969999999999 46.43599999999999 292.81999999999994 46.465999999999994 293.55099999999993 46.465999999999994 C 307.45899999999995 46.465999999999994 318.7969999999999 35.504999999999995 319.26399999999995 21.815999999999995 C 319.27199999999993 21.822999999999997 319.27199999999993 21.822999999999997 319.27899999999994 21.830999999999996 C 323.33199999999994 25.852999999999994 327.69399999999996 29.374999999999996 332.28999999999996 32.40299999999999 C 334.068 33.57699999999999 334.068 36.17899999999999 332.28999999999996 37.35199999999999 z" stroke-linecap="round" />
</g>
		<g transform="matrix(1 0 0 1 182.55 67.11)"  >
<path style="stroke: none; stroke-width: 1; stroke-dasharray: none; stroke-linecap: butt; stroke-dashoffset: 0; stroke-linejoin: miter; stroke-miterlimit: 4; fill: rgb(255,247,199); fill-rule: nonzero; opacity: 1;" vector-effect="non-scaling-stroke"  transform=" translate(-438.55, -323.11)" d="M 469.241 302.927 C 464.86899999999997 314.51300000000003 449.637 333.53900000000004 397.12399999999997 339.26700000000005 C 394.905 339.50900000000007 394.73799999999994 342.672 396.91999999999996 343.13700000000006 C 417.383 347.4920000000001 459.67799999999994 352.80500000000006 476.42199999999997 327.41800000000006 C 483.77299999999997 316.27200000000005 482.318 307.78600000000006 479.06899999999996 302.1120000000001 C 476.80199999999996 298.1530000000001 470.85099999999994 298.6590000000001 469.241 302.9270000000001 z" stroke-linecap="round" />
</g>
		<g transform="matrix(1 0 0 1 -67.59 -52.61)"  >
<path style="stroke: none; stroke-width: 1; stroke-dasharray: none; stroke-linecap: butt; stroke-dashoffset: 0; stroke-linejoin: miter; stroke-miterlimit: 4; fill: rgb(255,247,199); fill-rule: nonzero; opacity: 1;" vector-effect="non-scaling-stroke"  transform=" translate(-188.41, -203.39)" d="M 157.718 183.208 C 162.08999999999997 194.794 177.322 213.82 229.83499999999998 219.548 C 232.05399999999997 219.79 232.22099999999998 222.953 230.039 223.418 C 209.576 227.773 167.28099999999998 233.086 150.53699999999998 207.699 C 143.18599999999998 196.553 144.641 188.067 147.89 182.393 C 150.15699999999998 178.434 156.10799999999998 178.94 157.718 183.208 z" stroke-linecap="round" />
</g>
		<g transform="matrix(1 0 0 1 51.13 -75.12)"  >
<path style="stroke: none; stroke-width: 1; stroke-dasharray: none; stroke-linecap: butt; stroke-dashoffset: 0; stroke-linejoin: miter; stroke-miterlimit: 4; fill: rgb(255,224,89); fill-rule: nonzero; opacity: 1;" vector-effect="non-scaling-stroke"  transform=" translate(-307.13, -180.88)" d="M 440.73 196.661 C 305.83900000000006 206.775 192.35500000000002 188.228 192.35500000000002 174.249 C 192.35500000000002 162.397 261.90000000000003 159.266 308.313 160.01 L 317.75399999999996 147.265 C 257.061 145.63799999999998 172.11699999999996 148.00699999999998 172.11699999999996 174.249 C 172.11699999999996 196.696 239.44699999999995 214.894 322.51099999999997 214.894 C 370.792 214.894 413.74899999999997 208.747 441.26699999999994 199.192 C 442.70599999999996 198.692 442.24799999999993 196.548 440.72999999999996 196.661 z" stroke-linecap="round" />
</g>
		<g transform="matrix(1 0 0 1 -12.15 39.14)"  >
<path style="stroke: none; stroke-width: 1; stroke-dasharray: none; stroke-linecap: butt; stroke-dashoffset: 0; stroke-linejoin: miter; stroke-miterlimit: 4; fill: rgb(255,224,89); fill-rule: nonzero; opacity: 1;" vector-effect="non-scaling-stroke"  transform=" translate(-243.85, -295.14)" d="M 352.903 248.961 C 428.865 260.151 457.433 277.529 457.433 292.16 C 457.433 320.08000000000004 353.973 345.98400000000004 238.795 345.98400000000004 C 123.62799999999999 345.98400000000004 30.266999999999996 320.08000000000004 30.266999999999996 292.16 C 30.266999999999996 277.92900000000003 53.309 270.88500000000005 73.6 267.442 C 76.966 266.871 78.178 271.698 74.951 272.813 C 58.91799999999999 278.35499999999996 49.74199999999999 283.659 49.74199999999999 289.33799999999997 C 49.74199999999999 306.578 134.385 320.55999999999995 238.796 320.55999999999995 C 343.21799999999996 320.55999999999995 427.861 306.578 427.861 289.33799999999997 C 427.861 279.26099999999997 406.13599999999997 270.64799999999997 353.957 263.837 C 323.272 259.832 286.217 259.572 286.217 259.572 L 300.892 244.304 C 300.891 244.305 334.401 246.235 352.903 248.961 z" stroke-linecap="round" />
</g>
		<g transform="matrix(1 0 0 1 -74.39 39.14)"  >
<path style="stroke: none; stroke-width: 1; stroke-dasharray: none; stroke-linecap: butt; stroke-dashoffset: 0; stroke-linejoin: miter; stroke-miterlimit: 4; fill: rgb(255,247,199); fill-rule: nonzero; opacity: 1;" vector-effect="non-scaling-stroke"  transform=" translate(-181.61, -295.14)" d="M 255.324 301.978 C 259.606 302.223 259.63 308.529 255.351 308.818 C 221.572 311.096 177.62900000000002 311.573 142.952 303.385 C 127.285 299.686 115.854 295.056 107.58099999999999 290.537 C 101.80799999999999 287.383 105.35499999999999 278.577 111.71999999999998 280.236 C 139.678 287.521 190.081 298.25 255.324 301.978 z" stroke-linecap="round" />
</g>
		<g transform="matrix(1 0 0 1 49.11 -3.92)"  >
<path style="stroke: none; stroke-width: 1; stroke-dasharray: none; stroke-linecap: butt; stroke-dashoffset: 0; stroke-linejoin: miter; stroke-miterlimit: 4; fill: rgb(255,199,81); fill-rule: nonzero; opacity: 1;" vector-effect="non-scaling-stroke"  transform=" translate(-305.11, -252.08)" d="M 324.005 245.932 C 317.085 248.97199999999998 308.073 253.539 298.897 259.848 C 291.138 259.608 286.212 259.576 286.212 259.576 L 300.89099999999996 244.30800000000002 C 300.89099999999996 244.30800000000002 311.46099999999996 244.919 324.00499999999994 245.93200000000002 z" stroke-linecap="round" />
</g>
		<g transform="matrix(1 0 0 1 44.91 -102.49)"  >
<path style="stroke: none; stroke-width: 1; stroke-dasharray: none; stroke-linecap: butt; stroke-dashoffset: 0; stroke-linejoin: miter; stroke-miterlimit: 4; fill: rgb(255,199,81); fill-rule: nonzero; opacity: 1;" vector-effect="non-scaling-stroke"  transform=" translate(-300.91, -153.51)" d="M 317.75 147.264 L 308.313 160.014 C 300.717 159.894 292.5 159.872 284.07599999999996 159.97 C 296.02 156.57 302.05699999999996 151.481 305.09799999999996 147.002 C 309.40199999999993 147.068 313.62999999999994 147.155 317.74999999999994 147.264 z" stroke-linecap="round" />
</g>
		<g transform="matrix(1 0 0 1 -162.43 189.54)"  >
<path style="stroke: none; stroke-width: 1; stroke-dasharray: none; stroke-linecap: butt; stroke-dashoffset: 0; stroke-linejoin: miter; stroke-miterlimit: 4; fill: rgb(255,175,64); fill-rule: nonzero; opacity: 1;" vector-effect="non-scaling-stroke"  transform=" translate(-93.57, -445.54)" d="M 73.996 477.31 L 64.681 469.16 C 61.653999999999996 466.512 61.346999999999994 461.91200000000003 63.995 458.88500000000005 L 102.86099999999999 414.46000000000004 C 105.50899999999999 411.43300000000005 110.109 411.12600000000003 113.136 413.77400000000006 L 122.451 421.92400000000004 C 125.478 424.57200000000006 125.785 429.172 123.137 432.199 L 84.271 476.624 C 81.623 479.651 77.023 479.958 73.996 477.31 z" stroke-linecap="round" />
</g>
		<g transform="matrix(1 0 0 1 -159.91 189.54)"  >
<path style="stroke: none; stroke-width: 1; stroke-dasharray: none; stroke-linecap: butt; stroke-dashoffset: 0; stroke-linejoin: miter; stroke-miterlimit: 4; fill: rgb(255,153,58); fill-rule: nonzero; opacity: 1;" vector-effect="non-scaling-stroke"  transform=" translate(-96.09, -445.54)" d="M 123.141 432.195 L 84.268 476.62 C 81.625 479.647 77.024 479.959 73.996 477.306 L 67.237 471.388 C 87.37799999999999 464.94899999999996 101.96699999999998 446.07899999999995 101.96699999999998 423.798 C 101.96699999999998 421.2 101.76599999999999 418.648 101.38199999999999 416.151 L 102.86399999999999 414.459 C 105.50699999999999 411.431 110.10799999999999 411.121 113.136 413.773 L 122.45599999999999 421.923 C 125.48199999999999 424.576 125.78399999999999 429.168 123.14099999999999 432.195 z" stroke-linecap="round" />
</g>
</g>
</g>
</svg>