<svg height="512pt" viewBox="-85 0 512 512" width="512pt" xmlns="http://www.w3.org/2000/svg"><path d="m223.640625 123.011719 106.300781 184.121093c2.480469 4.292969 1.007813 9.78125-3.285156 12.261719l-17.628906 10.179688c-4.296875 2.480469-9.785156 1.007812-12.265625-3.285157l-106.300781-184.121093c-3.796876-6.570313-1.546876-14.988281 5.035156-18.789063l9.355468-5.402344c6.578126-3.796874 14.992188-1.542968 18.789063 5.035157zm0 0" fill="#e6eff5"/><path d="m314.046875 279.601562c-1.109375.632813-2.070313 1.554688-2.757813 2.742188l-19.945312 34.558594 5.417969 9.386718c.957031 1.652344 2.359375 2.882813 3.96875 3.636719.550781-.507812 1.046875-1.09375 1.441406-1.777343l19.949219-34.5625zm0 0" fill="#b4cbdb"/><path d="m279.011719 288.039062 19.957031-34.554687-8.074219-13.984375c-1.109375.636719-2.070312 1.558594-2.753906 2.742188l-19.957031 34.550781 8.078125 13.988281c1.105469-.632812 2.066406-1.558594 2.75-2.742188zm0 0" fill="#b4cbdb"/><path d="m206.800781 170.46875c1.105469-.632812 2.0625-1.558594 2.746094-2.742188l19.960937-34.554687-5.867187-10.160156c-.765625-1.328125-1.730469-2.472657-2.820313-3.433594-.847656.601563-1.589843 1.390625-2.144531 2.351563l-19.953125 34.546874zm0 0" fill="#b4cbdb"/><path d="m232.707031 207.835938 19.949219-34.5625-8.074219-13.988282c-1.105469.636719-2.070312 1.558594-2.753906 2.746094l-19.949219 34.558594 8.078125 13.992187c1.105469-.636719 2.066407-1.5625 2.75-2.746093zm0 0" fill="#b4cbdb"/><path d="m255.859375 247.9375 19.957031-34.554688-8.074218-13.984374c-1.105469.632812-2.070313 1.554687-2.753907 2.742187l-19.957031 34.550781 8.078125 13.992188c1.105469-.636719 2.066406-1.5625 2.75-2.746094zm0 0" fill="#b4cbdb"/><path d="m159.378906 0h23.691406c64.183594 0 116.214844 52.03125 116.214844 116.214844v64.6875h-256.121094v-64.6875c0-64.183594 52.03125-116.214844 116.214844-116.214844zm0 0" fill="#52668e"/><path d="m183.070312 0h-23.691406c-.742187 0-1.480468.015625-2.222656.0273438 58.746094 1.1835942 106.003906 49.1679682 106.003906 108.1992182v72.675782h36.125v-64.6875c0-64.183594-52.03125-116.214844-116.214844-116.214844zm0 0" fill="#233b5e"/><path d="m336.785156 391.414062v72.90625c0 5.789063-3.320312 11.046876-8.523437 13.578126-44.074219 21.449218-98.347657 34.101562-157.035157 34.101562-58.691406 0-112.960937-12.652344-157.035156-34.101562-5.203125-2.53125-8.527344-7.789063-8.527344-13.578126v-72.90625c0-9.605468 5.679688-18.300781 14.46875-22.179687l73.742188-32.503906c8.628906-3.796875 14.199219-12.355469 14.199219-21.785157v-79.464843h126.300781v79.464843c0 9.429688 5.574219 17.988282 14.203125 21.785157l73.738281 32.503906c8.792969 3.878906 14.46875 12.578125 14.46875 22.179687zm0 0" fill="#f7bc94"/><path d="m322.316406 369.234375-73.738281-32.503906c-8.628906-3.796875-14.203125-12.355469-14.203125-21.785157v-79.464843h-126.300781v13h100.25v79.464843c0 9.429688 5.574219 17.988282 14.199219 21.785157l73.742187 32.503906c8.789063 3.878906 14.46875 12.578125 14.46875 22.179687v72.90625c0 3.726563-1.382813 7.230469-3.753906 9.929688 7.324219-2.894531 14.425781-6.015625 21.277343-9.351562 5.207032-2.53125 8.527344-7.789063 8.527344-13.578126v-72.90625c0-9.601562-5.675781-18.300781-14.46875-22.179687zm0 0" fill="#e59876"/><path d="m234.375 310.199219v-74.71875h-126.300781v56.535156c18.6875 20.84375 41.492187 36.011719 58.738281 36.011719h28c11.644531 0 25.828125-6.917969 39.5625-17.828125zm0 0" fill="#e59876"/><path d="m285.542969 156.585938h-30.546875v63.148437h30.546875c13.378906 0 24.21875-10.839844 24.21875-24.21875v-14.710937c0-13.375-10.839844-24.21875-24.21875-24.21875zm0 0" fill="#f7bc94"/><path d="m56.90625 156.585938h30.550781v63.148437h-30.550781c-13.375 0-24.21875-10.839844-24.21875-24.21875v-14.710937c0-13.375 10.84375-24.21875 24.21875-24.21875zm0 0" fill="#f7bc94"/><path d="m277.96875 196.285156c0 45.636719-57.800781 107.894532-92.742188 107.894532h-28c-34.941406 0-92.742187-62.257813-92.742187-107.894532l.042969-68.632812c.03125-55.332032 44.898437-23.519532 100.230468-23.519532h12.9375c55.332032 0 100.199219-31.8125 100.234376 23.519532zm0 0" fill="#f7bc94"/><path d="m277.925781 127.652344c-.019531-32.945313-15.933593-34.996094-40.488281-31.261719 8.476562 3.03125 13.386719 11.691406 13.398438 31.261719l.035156 68.632812c0 45.636719-50.464844 107.894532-80.96875 107.894532h15.324218c34.941407 0 92.742188-62.257813 92.742188-107.894532zm0 0" fill="#e59876"/><path d="m124.667969 183.234375c-4.140625 0-7.5-3.355469-7.5-7.5v-3.351563c0-4.140624 3.359375-7.5 7.5-7.5 4.144531 0 7.5 3.359376 7.5 7.5v3.351563c0 4.144531-3.355469 7.5-7.5 7.5zm0 0" fill="#233b5e"/><path d="m217.78125 183.234375c-4.140625 0-7.5-3.355469-7.5-7.5v-3.351563c0-4.140624 3.359375-7.5 7.5-7.5 4.144531 0 7.5 3.359376 7.5 7.5v3.351563c0 4.144531-3.355469 7.5-7.5 7.5zm0 0" fill="#233b5e"/><path d="m234.847656 152.324219c-1.113281 0-2.238281-.25-3.300781-.769531-9.808594-4.816407-19.339844-4.8125-29.144531 0-3.71875 1.824218-8.214844.289062-10.039063-3.429688s-.289062-8.210938 3.429688-10.035156c14.054687-6.902344 28.308593-6.902344 42.363281 0 3.71875 1.824218 5.253906 6.316406 3.429688 10.035156-1.304688 2.65625-3.96875 4.199219-6.738282 4.199219zm0 0" fill="#233b5e"/><path d="m143.351562 152.324219c-1.113281 0-2.238281-.25-3.300781-.769531-9.804687-4.8125-19.335937-4.8125-29.144531 0-3.71875 1.824218-8.214844.289062-10.039062-3.429688-1.824219-3.71875-.289063-8.210938 3.429687-10.035156 14.054687-6.902344 28.308594-6.902344 42.363281 0 3.71875 1.824218 5.253906 6.316406 3.429688 10.035156-1.304688 2.65625-3.96875 4.199219-6.738282 4.199219zm0 0" fill="#233b5e"/><path d="m171.226562 230.953125c-9.902343 0-19.511718-3.03125-27.792968-8.773437-3.40625-2.359376-4.25-7.03125-1.890625-10.4375 2.359375-3.402344 7.03125-4.25 10.4375-1.890626 5.757812 3.992188 12.414062 6.101563 19.246093 6.101563 6.832032 0 13.488282-2.109375 19.25-6.101563 3.402344-2.359374 8.078126-1.511718 10.433594 1.890626 2.359375 3.40625 1.515625 8.078124-1.890625 10.4375-8.28125 5.742187-17.890625 8.773437-27.792969 8.773437zm0 0" fill="#b26344"/><path d="m27.574219 91.851562v10.804688c0 7.59375 6.15625 13.75 13.75 13.75h259.804687c7.59375 0 13.75-6.15625 13.75-13.75v-10.804688c0-7.59375-6.15625-13.75-13.75-13.75h-259.804687c-7.59375 0-13.75 6.15625-13.75 13.75zm0 0" fill="#e6eff5"/><g fill="#b4cbdb"><path d="m119.316406 112.65625-19.953125-34.554688h-16.152343c-.003907 1.273438.3125 2.566407.996093 3.753907l19.953125 34.550781h16.15625c0-1.273438-.316406-2.566406-1-3.75zm0 0"/><path d="m165.621094 112.65625-19.945313-34.554688h-16.148437c-.003906 1.273438.3125 2.566407.996094 3.75l19.945312 34.554688h16.152344c0-1.273438-.316406-2.566406-1-3.75zm0 0"/><path d="m36.9375 78.824219c.101562 1.035156.410156 2.066406.964844 3.027343l19.945312 34.554688h16.152344c0-1.273438-.316406-2.566406-1-3.75l-19.945312-34.554688h-11.730469c-1.535157 0-3.007813.261719-4.386719.722657zm0 0"/><path d="m211.925781 112.65625-19.945312-34.554688h-16.148438c-.003906 1.273438.3125 2.566407.996094 3.75l19.945313 34.554688h16.152343c0-1.273438-.316406-2.566406-1-3.75zm0 0"/><path d="m305.511719 115.679688c-.101563-1.035157-.410157-2.066407-.964844-3.023438l-19.945313-34.554688h-16.152343c0 1.273438.316406 2.566407 1 3.75l19.945312 34.554688h11.734375c1.53125 0 3.003906-.261719 4.382813-.726562zm0 0"/><path d="m258.242188 112.65625-19.953126-34.554688h-16.152343c-.003907 1.273438.3125 2.566407 1 3.753907l19.953125 34.550781h16.152344c0-1.273438-.316407-2.566406-1-3.75zm0 0"/></g><path d="m287.554688 433.992188v22.417968l51.242187-13.667968c2.152344-.578126 3.65625-2.527344 3.65625-4.761719v-12.21875c0-3.238281-3.070313-5.597657-6.199219-4.761719zm0 0" fill="#e6eff5"/><path d="m342.457031 425.761719v12.21875c0 2.230469-1.5 4.191406-3.660156 4.757812l-2.011719.542969-26.050781 6.949219v-22.421875l25.523437-6.808594c.179688-.050781.359376-.078125.527344-.109375 2.941406-.449219 5.671875 1.808594 5.671875 4.871094zm0 0" fill="#b4cbdb"/><path d="m54.898438 433.992188v22.417968l-51.242188-13.667968c-2.15625-.578126-3.65625-2.527344-3.65625-4.761719v-12.21875c0-3.238281 3.070312-5.597657 6.195312-4.761719zm0 0" fill="#e6eff5"/><path d="m295.054688 418.605469c0-4.144531-3.359376-7.5-7.5-7.5-4.140626 0-7.5 3.355469-7.5 7.5v75.613281c0 .777344.117187 1.523438.339843 2.230469 4.96875-1.488281 9.859375-3.082031 14.660157-4.761719zm0 0" fill="#e59876"/><path d="m62.058594 496.449219c.21875-.703125.339844-1.453125.339844-2.230469v-75.613281c0-4.140625-3.359376-7.5-7.5-7.5-4.144532 0-7.5 3.359375-7.5 7.5v73.082031c4.800781 1.683594 9.691406 3.273438 14.660156 4.761719zm0 0" fill="#e59876"/></svg>