<?xml version="1.0" encoding="UTF-8" standalone="no" ?>
<!DOCTYPE svg PUBLIC "-//W3C//DTD SVG 1.1//EN" "http://www.w3.org/Graphics/SVG/1.1/DTD/svg11.dtd">
<svg xmlns="http://www.w3.org/2000/svg" xmlns:xlink="http://www.w3.org/1999/xlink" version="1.1" width="1080" height="1080" viewBox="0 0 1080 1080" xml:space="preserve">
<desc>Created with Fabric.js 4.2.0</desc>
<defs>
</defs>
<rect x="0" y="0" width="100%" height="100%" fill="transparent"></rect>
<g transform="matrix(1 0 0 1 540 540)" id="088ff5e9-cec8-4b99-9d85-4d7f1d684ffe"  >
<rect style="stroke: none; stroke-width: 1; stroke-dasharray: none; stroke-linecap: butt; stroke-dashoffset: 0; stroke-linejoin: miter; stroke-miterlimit: 4; fill: rgb(255,255,255); fill-opacity: 0; fill-rule: nonzero; opacity: 1;" vector-effect="non-scaling-stroke"  x="-540" y="-540" rx="0" ry="0" width="1080" height="1080" />
</g>
<g transform="matrix(1 0 0 1 540 540)" id="10e72e25-f349-42f5-adff-9246252ebd1e"  >
</g>
<g transform="matrix(2.53 0 0 2.53 -566.36 810.67)" style="" id="b2afa9d8-36c5-4db4-8d49-c4d1a799d296"  >
		<text xml:space="preserve" font-family="Lato" font-size="40" font-style="normal" font-weight="400" style="stroke: none; stroke-width: 1; stroke-dasharray: none; stroke-linecap: butt; stroke-dashoffset: 0; stroke-linejoin: miter; stroke-miterlimit: 4; fill: rgb(0,0,0); fill-rule: nonzero; opacity: 1; white-space: pre;" ><tspan x="-14.68" y="12.57" >G</tspan></text>
</g>
<g transform="matrix(2.01 0 0 2.01 539.82 539.78)"  >
<g style="" vector-effect="non-scaling-stroke"   >
		<g transform="matrix(1 0 0 1 5.6 21.03)"  >
<path style="stroke: none; stroke-width: 1; stroke-dasharray: none; stroke-linecap: butt; stroke-dashoffset: 0; stroke-linejoin: miter; stroke-miterlimit: 4; fill: rgb(237,105,74); fill-rule: nonzero; opacity: 1;" vector-effect="non-scaling-stroke"  transform=" translate(-261.6, -277.03)" d="M 373.499 163.809 C 362.829 152.16 346.24100000000004 136.437 339.184 171.939 C 336.78400000000005 184.01 331.177 193.315 326.372 200.807 C 321.19300000000004 174.595 305.611 147.464 290.92900000000003 129.171 C 285.43500000000006 122.327 265.94100000000003 95.11999999999999 262.196 49.604 C 261.637 42.811 253.56800000000004 39.620999999999995 248.52100000000002 44.203 C 200.28900000000002 87.987 173.815 148.20499999999998 172.83200000000002 215.998 C 172.83200000000002 215.998 152.74800000000002 199.069 141.83700000000002 167.575 C 138.89900000000003 159.094 127.52900000000002 157.476 122.59600000000002 164.975 C 121.64900000000002 166.415 120.77100000000002 167.857 119.97900000000001 169.257 C 82.76600000000002 235.05700000000002 64.86500000000001 314.962 81.41400000000002 389.302 C 109.08400000000002 513.799 292.11800000000005 548.605 389.01700000000005 470.356 C 483.822 393.8 453.686 251.311 373.499 163.809 z" stroke-linecap="round" />
</g>
		<g transform="matrix(1 0 0 1 -121.72 74.82)"  >
<path style="stroke: none; stroke-width: 1; stroke-dasharray: none; stroke-linecap: butt; stroke-dashoffset: 0; stroke-linejoin: miter; stroke-miterlimit: 4; fill: rgb(216,85,58); fill-rule: nonzero; opacity: 1;" vector-effect="non-scaling-stroke"  transform=" translate(-134.28, -330.82)" d="M 107.171 397.118 C 90.81400000000001 321.983 108.128 241.29999999999998 144.467 174.47 C 143.548 172.253 142.66400000000002 169.96 141.83800000000002 167.576 C 138.90000000000003 159.095 127.53000000000003 157.477 122.59700000000002 164.976 C 121.65000000000002 166.416 120.77300000000002 167.858 119.98100000000002 169.258 C 82.76800000000003 235.058 64.86700000000002 314.963 81.41600000000003 389.303 C 94.03700000000002 446.089 138.985 484.203 193.336 501.452 C 150.936 480.913 117.732 445.704 107.171 397.118 z" stroke-linecap="round" />
</g>
		<g transform="matrix(1 0 0 1 -38.18 -122.45)"  >
<path style="stroke: none; stroke-width: 1; stroke-dasharray: none; stroke-linecap: butt; stroke-dashoffset: 0; stroke-linejoin: miter; stroke-miterlimit: 4; fill: rgb(216,85,58); fill-rule: nonzero; opacity: 1;" vector-effect="non-scaling-stroke"  transform=" translate(-217.82, -133.55)" d="M 198.716 214.75 C 200.725 153.223 222.979 98.053 262.809 55.67099999999999 C 262.535 53.33699999999999 262.33200000000005 51.24999999999999 262.201 49.66599999999999 C 261.63 42.81499999999999 253.85600000000002 39.37899999999999 248.83100000000002 43.92099999999999 C 202.246 86.03899999999999 173.85200000000003 145.648 172.83300000000003 215.99599999999998 L 181.55200000000002 222.76699999999997 C 185.84600000000003 226.10199999999998 191.66400000000002 225.95699999999997 195.76500000000001 222.90199999999996 C 198.212 220.828 198.563 217.698 198.716 214.75 z" stroke-linecap="round" />
</g>
		<g transform="matrix(1 0 0 1 5.59 82.44)"  >
<path style="stroke: none; stroke-width: 1; stroke-dasharray: none; stroke-linecap: butt; stroke-dashoffset: 0; stroke-linejoin: miter; stroke-miterlimit: 4; fill: rgb(244,163,44); fill-rule: nonzero; opacity: 1;" vector-effect="non-scaling-stroke"  transform=" translate(-261.59, -338.44)" d="M 344.242 254.818 C 336.362 246.214 324.10900000000004 234.60000000000002 318.89700000000005 260.82300000000004 C 317.12500000000006 269.73800000000006 312.982 276.612 309.43500000000006 282.146 C 305.61000000000007 262.785 294.1000000000001 242.745 283.2560000000001 229.234 C 279.1980000000001 224.179 264.80000000000007 204.084 262.0330000000001 170.46300000000002 C 261.62000000000006 165.44500000000002 255.66100000000006 163.09000000000003 251.93300000000008 166.47400000000002 C 216.30800000000008 198.81300000000002 196.75300000000007 243.293 196.02800000000008 293.365 C 196.02800000000008 293.365 181.19300000000007 280.861 173.13500000000008 257.599 C 170.9650000000001 251.33499999999998 162.5660000000001 250.14 158.9230000000001 255.679 C 158.22400000000007 256.742 157.57500000000007 257.808 156.9900000000001 258.842 C 129.5030000000001 307.443 116.28100000000009 366.462 128.5040000000001 421.37199999999996 C 148.9420000000001 513.328 284.1340000000001 539.0369999999999 355.70600000000013 481.23999999999995 C 425.73 424.695 403.471 319.45 344.242 254.818 z" stroke-linecap="round" />
</g>
		<g transform="matrix(1 0 0 1 -87.26 122.54)"  >
<path style="stroke: none; stroke-width: 1; stroke-dasharray: none; stroke-linecap: butt; stroke-dashoffset: 0; stroke-linejoin: miter; stroke-miterlimit: 4; fill: rgb(232,149,40); fill-rule: nonzero; opacity: 1;" vector-effect="non-scaling-stroke"  transform=" translate(-168.74, -378.54)" d="M 153.994 428.585 C 143.172 374.909 154.381 317.31399999999996 178.14600000000002 269.354 C 176.335 265.808 174.61900000000003 261.888 173.133 257.59999999999997 C 170.96300000000002 251.33599999999996 162.56400000000002 250.13999999999996 158.92100000000002 255.67899999999997 C 158.222 256.74199999999996 157.573 257.808 156.98800000000003 258.84299999999996 C 129.50200000000004 307.44399999999996 116.28100000000003 366.46299999999997 128.50200000000004 421.37199999999996 C 138.00800000000004 464.14 172.33900000000006 492.568 213.54300000000003 504.93899999999996 C 184.268 490.258 161.218 464.464 153.994 428.585 z" stroke-linecap="round" />
</g>
		<g transform="matrix(1 0 0 1 5.57 138.51)"  >
<path style="stroke: none; stroke-width: 1; stroke-dasharray: none; stroke-linecap: butt; stroke-dashoffset: 0; stroke-linejoin: miter; stroke-miterlimit: 4; fill: rgb(244,212,78); fill-rule: nonzero; opacity: 1;" vector-effect="non-scaling-stroke"  transform=" translate(-261.57, -394.51)" d="M 317.534 337.904 C 312.2 332.08 303.904 324.217 300.376 341.969 C 299.17699999999996 348.005 296.37199999999996 352.657 293.96999999999997 356.403 C 291.38 343.29600000000005 283.59 329.731 276.248 320.58500000000004 C 273.502 317.163 263.755 303.56000000000006 261.881 280.80100000000004 C 261.601 277.40400000000005 257.568 275.809 255.04399999999998 278.10100000000006 C 230.928 299.99300000000005 217.69099999999997 330.10300000000007 217.2 363.99800000000005 C 217.2 363.99800000000005 207.15699999999998 355.5330000000001 201.70299999999997 339.78700000000003 C 200.23399999999998 335.547 194.54899999999998 334.73800000000006 192.08299999999997 338.487 C 191.60899999999998 339.206 191.17099999999996 339.928 190.77399999999997 340.62800000000004 C 172.16799999999998 373.528 163.21699999999998 413.48 171.49099999999999 450.65100000000007 C 185.326 512.9000000000001 276.84299999999996 530.3030000000001 325.292 491.17800000000005 C 341.883 477.78000000000003 352.16999999999996 458.90100000000007 354.256 438.01800000000003 C 357.405 406.388 345.232 368.129 317.534 337.904 z" stroke-linecap="round" />
</g>
		<g transform="matrix(1 0 0 1 5.57 190.49)"  >
<path style="stroke: none; stroke-width: 1; stroke-dasharray: none; stroke-linecap: butt; stroke-dashoffset: 0; stroke-linejoin: miter; stroke-miterlimit: 4; fill: rgb(234,233,232); fill-rule: nonzero; opacity: 1;" vector-effect="non-scaling-stroke"  transform=" translate(-261.57, -446.49)" d="M 292.749 415.006 C 289.77700000000004 411.76099999999997 285.156 407.381 283.19 417.27 C 282.522 420.633 280.96 423.22499999999997 279.621 425.31199999999995 C 278.178 418.00999999999993 273.83799999999997 410.45199999999994 269.748 405.35699999999997 C 268.218 403.45 262.787 395.871 261.743 383.19199999999995 C 261.587 381.299 259.339 380.412 257.93399999999997 381.68699999999995 C 244.49899999999997 393.88399999999996 237.12299999999996 410.65899999999993 236.84999999999997 429.54299999999995 C 236.84999999999997 429.54299999999995 231.25499999999997 424.82699999999994 228.21599999999995 416.054 C 227.39699999999996 413.691 224.22999999999996 413.23999999999995 222.85699999999994 415.33 C 222.59299999999993 415.731 222.34899999999993 416.133 222.12899999999993 416.52299999999997 C 211.76299999999992 434.85299999999995 206.77599999999993 457.111 211.38599999999994 477.81999999999994 C 221.88399999999993 525.0509999999999 307.93199999999996 523.6189999999999 313.2099999999999 470.78099999999995 C 314.962 453.16 308.18 431.844 292.749 415.006 z" stroke-linecap="round" />
</g>
		<g transform="matrix(1 0 0 1 -15.51 190.21)"  >
<path style="stroke: none; stroke-width: 1; stroke-dasharray: none; stroke-linecap: butt; stroke-dashoffset: 0; stroke-linejoin: miter; stroke-miterlimit: 4; fill: rgb(247,231,161); fill-rule: nonzero; opacity: 1;" vector-effect="non-scaling-stroke"  transform=" translate(-240.49, -446.21)" d="M 231.364 487.194 C 226.754 468.66900000000004 231.741 448.75800000000004 242.107 432.362 C 242.327 432.01300000000003 242.572 431.654 242.835 431.295 C 244.209 429.426 247.376 429.829 248.19400000000002 431.942 C 251.233 439.79 256.82800000000003 444.009 256.82800000000003 444.009 C 257.05300000000005 430.129 262.081 417.529 271.31600000000003 407.423 C 269.25100000000003 404.563 262.93300000000005 397.66700000000003 261.742 383.194 C 261.586 381.30100000000004 259.338 380.41400000000004 257.933 381.689 C 244.498 393.886 237.12199999999999 410.661 236.849 429.545 C 236.849 429.545 231.254 424.829 228.21499999999997 416.057 C 227.39699999999996 413.694 224.22899999999998 413.243 222.85599999999997 415.333 C 222.59199999999996 415.73400000000004 222.34799999999996 416.136 222.12799999999996 416.526 C 211.76199999999994 434.855 206.77499999999995 457.11400000000003 211.38499999999996 477.823 C 215.65099999999995 497.018 233.17699999999996 508.554 252.55299999999997 511.33799999999997 C 242.101 506.205 234.068 498.077 231.364 487.194 z" stroke-linecap="round" />
</g>
		<g transform="matrix(1 0 0 1 -71.4 -221.98)"  >
<path style="stroke: none; stroke-width: 1; stroke-dasharray: none; stroke-linecap: butt; stroke-dashoffset: 0; stroke-linejoin: miter; stroke-miterlimit: 4; fill: rgb(216,85,58); fill-rule: nonzero; opacity: 1;" vector-effect="non-scaling-stroke"  transform=" translate(-184.6, -34.02)" d="M 184.598 68.045 C 206.223 50.456 206.175 17.549 184.598 0 C 162.973 17.588 163.02 50.496 184.598 68.045 z" stroke-linecap="round" />
</g>
		<g transform="matrix(1 0 0 1 189.8 -80.81)"  >
<path style="stroke: none; stroke-width: 1; stroke-dasharray: none; stroke-linecap: butt; stroke-dashoffset: 0; stroke-linejoin: miter; stroke-miterlimit: 4; fill: rgb(216,85,58); fill-rule: nonzero; opacity: 1;" vector-effect="non-scaling-stroke"  transform=" translate(-445.8, -175.19)" d="M 443.793 209.213 C 465.418 191.624 465.37 158.71699999999998 443.793 141.168 C 433.909 149.206 422.216 191.664 443.793 209.213 z" stroke-linecap="round" />
</g>
		<g transform="matrix(1 0 0 1 -193.77 -57.91)"  >
<path style="stroke: none; stroke-width: 1; stroke-dasharray: none; stroke-linecap: butt; stroke-dashoffset: 0; stroke-linejoin: miter; stroke-miterlimit: 4; fill: rgb(216,85,58); fill-rule: nonzero; opacity: 1;" vector-effect="non-scaling-stroke"  transform=" translate(-62.23, -198.09)" d="M 60.785 222.606 C 76.37 209.929 76.336 186.214 60.785 173.565 C 53.662 179.358 45.234 209.958 60.785 222.606 z" stroke-linecap="round" />
</g>
		<g transform="matrix(1 0 0 1 74.71 -163.43)"  >
<path style="stroke: none; stroke-width: 1; stroke-dasharray: none; stroke-linecap: butt; stroke-dashoffset: 0; stroke-linejoin: miter; stroke-miterlimit: 4; fill: rgb(216,85,58); fill-rule: nonzero; opacity: 1;" vector-effect="non-scaling-stroke"  transform=" translate(-330.71, -92.57)" d="M 330.709 117.086 C 346.294 104.40899999999999 346.26 80.69399999999999 330.709 68.045 C 315.124 80.721 315.159 104.438 330.709 117.086 z" stroke-linecap="round" />
</g>
		<g transform="matrix(1 0 0 1 -26.63 -25.67)"  >
<path style="stroke: none; stroke-width: 1; stroke-dasharray: none; stroke-linecap: butt; stroke-dashoffset: 0; stroke-linejoin: miter; stroke-miterlimit: 4; fill: rgb(232,149,40); fill-rule: nonzero; opacity: 1;" vector-effect="non-scaling-stroke"  transform=" translate(-229.37, -230.33)" d="M 215.911 285.324 C 219.49 243.072 235.625 205.50300000000001 262.717 176.86200000000002 C 262.443 174.78600000000003 262.212 172.65500000000003 262.032 170.46400000000003 C 261.61899999999997 165.44600000000003 255.65999999999997 163.09100000000004 251.932 166.47500000000002 C 223.702 192.10100000000003 205.584 225.35700000000003 198.91 262.97200000000004 L 198.9 262.96900000000005 C 198.405 265.75900000000007 197.791 269.82300000000004 197.403 273.0160000000001 C 197.404 273.01900000000006 197.405 273.0210000000001 197.40699999999998 273.02400000000006 C 196.59599999999998 279.68800000000005 196.12599999999998 286.47200000000004 196.02599999999998 293.3670000000001 C 196.78 293.514 213.848 302.287 215.911 285.324 z" stroke-linecap="round" />
</g>
		<g transform="matrix(1 0 0 1 -56.98 165.74)"  >
<path style="stroke: none; stroke-width: 1; stroke-dasharray: none; stroke-linecap: butt; stroke-dashoffset: 0; stroke-linejoin: miter; stroke-miterlimit: 4; fill: rgb(232,200,66); fill-rule: nonzero; opacity: 1;" vector-effect="non-scaling-stroke"  transform=" translate(-199.02, -421.74)" d="M 196.43 459.481 C 189.07500000000002 424.756 195.339 387.726 209.89100000000002 355.64099999999996 C 207.07200000000003 351.688 203.98700000000002 346.378 201.704 339.78599999999994 C 200.234 335.54599999999994 194.55 334.73699999999997 192.083 338.48599999999993 C 191.60999999999999 339.2049999999999 191.17 339.9269999999999 190.774 340.62699999999995 C 172.168 373.52699999999993 163.217 413.4789999999999 171.49099999999999 450.65 C 177.97099999999998 479.80199999999996 201.488 499.118 229.63899999999998 507.399 C 213.253 496.521 200.858 480.42 196.43 459.481 z" stroke-linecap="round" />
</g>
		<g transform="matrix(1 0 0 1 -15.13 64.71)"  >
<path style="stroke: none; stroke-width: 1; stroke-dasharray: none; stroke-linecap: butt; stroke-dashoffset: 0; stroke-linejoin: miter; stroke-miterlimit: 4; fill: rgb(232,200,66); fill-rule: nonzero; opacity: 1;" vector-effect="non-scaling-stroke"  transform=" translate(-240.87, -320.71)" d="M 243.751 348.824 C 246.189 331.399 253.316 312.2 264.535 296.149 C 263.31300000000005 291.617 262.35200000000003 286.496 261.88300000000004 280.801 C 261.60300000000007 277.404 257.569 275.80899999999997 255.04600000000005 278.101 C 240.02000000000004 291.742 229.23500000000004 308.58 223.10800000000006 327.529 L 223.09200000000007 327.525 C 222.12800000000007 330.50199999999995 220.76500000000007 335.43399999999997 219.93900000000008 339.327 C 219.94600000000008 339.325 219.9530000000001 339.325 219.96000000000006 339.322 C 218.26800000000006 347.266 217.32700000000006 355.51 217.20400000000006 363.997 C 230.696 365.681 241.857 362.34 243.751 348.824 z" stroke-linecap="round" />
</g>
</g>
</g>
<g transform="matrix(5.41 0 0 5.41 942.46 951.24)" style="filter: url(#SVGID_1009);" id="f42727bd-bc40-4e3b-832d-5e77afda711c"  >
<filter id="SVGID_1009" y="-30%" height="160%" x="-33%" width="166%" >
	<feGaussianBlur in="SourceAlpha" stdDeviation="3"></feGaussianBlur>
	<feOffset dx="0" dy="0" result="oBlur" ></feOffset>
	<feFlood flood-color="rgb(0,0,0)" flood-opacity="1"/>
	<feComposite in2="oBlur" operator="in" />
	<feMerge>
		<feMergeNode></feMergeNode>
		<feMergeNode in="SourceGraphic"></feMergeNode>
	</feMerge>
</filter>
		<text xml:space="preserve" font-family="Lato" font-size="51" font-style="normal" font-weight="400" style="stroke: none; stroke-width: 1; stroke-dasharray: none; stroke-linecap: butt; stroke-dashoffset: 0; stroke-linejoin: miter; stroke-miterlimit: 4; fill: rgb(0,204,0); fill-rule: nonzero; opacity: 1; white-space: pre;" ><tspan x="-19.28" y="16.02" >H</tspan></text>
</g>
</svg>