<svg height="512pt" viewBox="0 -7 512.00219 512" width="512pt" xmlns="http://www.w3.org/2000/svg"><path d="m124.082031 488.992188h93.269531c-1.617187-5.085938-4.421874-9.871094-8.4375-13.886719l-114.972656-114.972657c-13.4375-13.433593-35.421875-13.433593-48.859375 0-13.433593 13.4375-13.433593 35.421876-1 48.859376zm0 0" fill="#f0bca6"/><path d="m459.980469 141.367188c0 73.925781-59.929688 133.855468-133.855469 133.855468s-133.855469-59.929687-133.855469-133.855468c0-73.925782 59.929688-133.855469 133.855469-133.855469s133.855469 59.929687 133.855469 133.855469zm0 0" fill="#d47a3d"/><path d="m436.945312 141.367188c0 .460937-.011718.917968-.015624 1.378906h23.03125c.007812-.460938.019531-.917969.019531-1.378906 0-73.925782-59.929688-133.855469-133.855469-133.855469-3.882812 0-7.722656.175781-11.515625.5 68.53125 5.839843 122.335937 63.308593 122.335937 133.355469zm0 0" fill="#b7692e"/><g fill="#00bf9e"><path d="m469.65625 82.613281c-11.957031-4.402343-27.464844 7.832031-34.636719 27.316407-7.167969 19.488281-3.285156 38.851562 8.671875 43.253906 11.957032 4.398437 27.464844-7.832032 34.632813-27.320313 7.171875-19.488281 3.289062-38.851562-8.667969-43.25zm0 0"/><path d="m405.25 68.328125c-12.738281-.394531-23.582031 16.109375-24.222656 36.863281s9.164062 37.898438 21.898437 38.292969 23.578125-16.113281 24.222657-36.867187c.640624-20.753907-9.164063-37.894532-21.898438-38.289063zm0 0"/><path d="m353.503906 68.328125c-12.738281-.394531-23.582031 16.109375-24.222656 36.863281s9.160156 37.898438 21.898438 38.292969c12.734374.394531 23.578124-16.113281 24.21875-36.867187.644531-20.753907-9.160157-37.898438-21.894532-38.289063zm0 0"/><path d="m217.875 109.957031c-7.167969-19.488281-22.675781-31.71875-34.632812-27.316406-11.957032 4.398437-15.839844 23.761719-8.671876 43.25 7.171876 19.488281 22.679688 31.71875 34.636719 27.320313 11.957031-4.402344 15.839844-23.765626 8.667969-43.253907zm0 0"/><path d="m271.886719 105.175781c-.640625-20.753906-11.488281-37.257812-24.222657-36.863281-12.734374.394531-22.539062 17.535156-21.898437 38.289062.644531 20.753907 11.488281 37.261719 24.222656 36.867188s22.539063-17.539062 21.898438-38.292969zm0 0"/><path d="m323.628906 105.175781c-.640625-20.753906-11.484375-37.257812-24.21875-36.863281-12.738281.394531-22.539062 17.535156-21.898437 38.289062.640625 20.753907 11.484375 37.261719 24.222656 36.867188 12.734375-.394531 22.539063-17.539062 21.894531-38.292969zm0 0"/></g><path d="m498.664062 289.292969c0 37.550781-30.4375 67.988281-67.988281 67.988281s-67.992187-30.4375-67.992187-67.988281 30.441406-67.992188 67.992187-67.992188 67.988281 30.441407 67.988281 67.992188zm0 0" fill="#d47a3d"/><path d="m504.488281 488.992188-.0625-21.289063c-.257812-85.089844-70.082031-154.5-155.171875-154.242187l-53.09375.160156c-85.085937.253906-154.496094 70.078125-154.242187 155.167968l.0625 20.203126zm0 0" fill="#f0bca6"/><path d="m504.425781 467.703125c-.257812-85.089844-70.082031-154.496094-155.171875-154.242187l-18.582031.054687c83.058594 2.128906 150.46875 70.589844 150.71875 154.1875l.0625 21.289063h23.035156zm0 0" fill="#e4aa9b"/><path d="m406.804688 488.992188c-57.722657-16.820313-112.0625-78.863282-112.230469-134.273438-.042969-14.214844 1.800781-27.992188 5.273437-41.109375l-3.683594.011719c-85.089843.253906-154.496093 70.078125-154.242187 155.167968l.058594 20.203126zm0 0" fill="#fff4f1"/><path d="m294.574219 354.71875c-.042969-14.214844 1.800781-27.992188 5.269531-41.109375l-3.683594.011719c-6.660156.019531-13.230468.464844-19.675781 1.3125-3.25 12.722656-4.984375 26.046875-4.945313 39.785156.167969 55.410156 54.507813 117.453125 112.234376 134.273438h23.03125c-57.722657-16.820313-112.066407-78.863282-112.230469-134.273438zm0 0" fill="#ecedef"/><path d="m242.234375 204.964844c-.074219-23.65625-19.304687-42.773438-42.957031-42.703125-23.65625.074219-42.773438 19.304687-42.703125 42.957031.070312 23.65625 19.304687 42.773438 42.957031 42.703125 23.65625-.070313 42.773438-19.304687 42.703125-42.957031zm0 0" fill="#f0bca6"/><path d="m494.808594 204.128906c-.070313-23.65625-19.304688-42.773437-42.957032-42.703125-23.652343.074219-42.769531 19.304688-42.699218 42.960938.070312 23.652343 19.300781 42.769531 42.957031 42.699219 23.652344-.070313 42.769531-19.304688 42.699219-42.957032zm0 0" fill="#f0bca6"/><path d="m239.519531 112.164062c-21.742187 0-39.351562 17.65625-39.296875 39.398438l.226563 90.875c.207031 68.679688 56.566406 124.703125 125.246093 124.496094 68.679688-.207032 124.703126-56.566406 124.496094-125.246094l-.226562-90.324219c-.054688-21.664062-17.632813-39.199219-39.300782-39.199219zm0 0" fill="#f0bca6"/><path d="m449.964844 151.367188c-.054688-21.667969-17.632813-39.203126-39.296875-39.203126h-23.035157c21.667969 0 39.246094 17.535157 39.296876 39.203126l.230468 90.324218c.191406 64.925782-49.871094 118.835938-113.367187 124.703125 3.917969.363281 7.890625.550781 11.902343.539063 68.679688-.207032 124.703126-56.566406 124.496094-125.246094zm0 0" fill="#e4aa9b"/><path d="m449.988281 161.066406-.023437-9.703125c-.054688-21.664062-17.632813-39.199219-39.296875-39.199219h-171.148438c-21.742187 0-39.351562 17.65625-39.296875 39.398438l.023438 9.503906zm0 0" fill="#fff4f1"/><path d="m294.144531 214.933594c-.019531-6.902344-5.636719-12.484375-12.539062-12.460938-6.90625.019532-12.484375 5.632813-12.464844 12.539063.019531 6.902343 5.632813 12.484375 12.539063 12.464843 6.90625-.023437 12.484374-5.636718 12.464843-12.542968zm0 0"/><path d="m382.457031 214.671875c-.023437-6.90625-5.636719-12.484375-12.542969-12.464844-6.902343.019531-12.484374 5.632813-12.464843 12.539063.023437 6.90625 5.636719 12.484375 12.542969 12.464844 6.902343-.019532 12.484374-5.636719 12.464843-12.539063zm0 0"/><path d="m495.371094 382.054688c-18.132813 37.195312-58.101563 32.890624-58.101563 32.890624s-28.011719-28.835937-9.882812-66.027343c8.46875-17.375 30.554687-24.042969 49.328125-14.890625 18.773437 9.152344 27.125 30.65625 18.65625 48.027344zm0 0" fill="#d47a3d"/><path d="m26.3125 188.125 20.839844 32.515625-19.582032 13.074219c-20.425781 13.640625-26.207031 41.859375-12.84375 62.710937l88.234376 137.671875c13.363281 20.847656 41.007812 26.75 61.4375 13.109375l19.582031-13.074219 27.621093 43.09375 23.332032-15.578124-27.621094-43.097657-5.601562-8.742187-9.945313-15.519532-11.5625 7.71875c-17.957031 11.992188-42.257813 6.804688-54.003906-11.523437l-63.015625-98.320313c-11.746094-18.328124-6.664063-43.132812 11.289062-55.125l11.5625-7.71875-15.550781-24.257812-20.839844-32.519531zm0 0" fill="#d47a3d"/><path d="m80.394531 441.691406-36.808593 34.167969 47.996093 14.792969-11.1875-48.960938-36.808593 34.167969 47.996093 14.792969zm0 0" fill="#2970d6"/><path d="m110.554688 301.613281c4.605468 1.421875 9.339843.910157 13.34375-1.0625 2.363281 4.175781 6.378906 7.433594 11.484374 8.683594 10.832032 2.648437 21.550782-5.324219 22.410157-16.445313.109375-1.433593.03125-2.851562-.269531-4.21875-2.4375-11.035156-12.089844-22.582031-18.878907-35.355468-.054687-.105469-.183593-.152344-.296875-.101563-14.988281 6.546875-31.496094 12.027344-37.277344 20.757813-1.023437 1.546875-1.917968 3.222656-2.492187 5.09375-2.945313 9.5625 2.414063 19.703125 11.976563 22.648437zm0 0" fill="#4890e3"/><path d="m157.523438 288.570312c-2.4375-11.039062-12.089844-22.585937-18.878907-35.355468-.054687-.109375-.183593-.152344-.292969-.105469-6.125 2.675781-12.503906 5.175781-18.300781 7.789063 6 9.785156 12.503907 18.890624 14.441407 27.671874.300781 1.367188.378906 2.785157.269531 4.21875-.402344 5.195313-2.953125 9.699219-6.664063 12.757813 2.046875 1.707031 4.496094 3.003906 7.285156 3.6875 10.835938 2.648437 21.550782-5.324219 22.410157-16.445313.109375-1.433593.03125-2.851562-.269531-4.21875zm0 0" fill="#2970d6"/><path d="m90.644531 414.890625h-34.546875c-20.242187 0-36.800781-16.5625-36.800781-36.800781 0-20.242188 16.558594-36.800782 36.800781-36.800782h34.546875c20.238281 0 36.800781 16.558594 36.800781 36.800782 0 20.242187-16.558593 36.800781-36.800781 36.800781zm0 0" fill="#f0bca6"/><path d="m92.542969 341.289062h-24.929688c20.238281 0 36.800781 16.558594 36.800781 36.800782 0 20.242187-16.5625 36.800781-36.800781 36.800781h-9.617187 34.546875c20.242187 0 36.800781-16.5625 36.800781-36.800781 0-20.242188-16.558594-36.800782-36.800781-36.800782zm0 0" fill="#e4aa9b"/><path d="m511.933594 467.679688c-.074219-24.917969-5.714844-48.800782-16.734375-71.039063 2.539062-3.355469 4.875-7.097656 6.921875-11.292969 8.394531-17.222656 3.296875-37.765625-11.113282-50.679687 9.792969-13.015625 15.171876-29.027344 15.171876-45.375 0-18.398438-6.554688-35.78125-18.53125-49.515625.011718-.011719.023437-.023438.03125-.03125 9.480468-9.535156 14.679687-22.195313 14.640624-35.640625-.070312-22.996094-15.632812-42.378907-36.753906-48.308594 8.300782-5.804687 15.488282-15.535156 19.828125-27.320313 8.390625-22.808593-8.734375-48.910156-9.46875-50.011718-1.808593-2.714844-5.171875-3.953125-8.308593-3.058594-.546876.15625-6.441407 1.886719-13.632813 5.625-23.308594-49.453125-72.714844-81.03125-127.859375-81.03125-54.679688 0-104.363281 31.570312-127.730469 80.753906-6.945312-3.546875-12.558593-5.195312-13.09375-5.347656-3.140625-.894531-6.5.339844-8.308593 3.058594-.734376 1.097656-17.859376 27.203125-9.46875 50.007812 4.453124 12.101563 11.789062 21.914063 20.269531 27.644532-22.234375 5.269531-38.804688 25.308593-38.730469 49.125.074219 25.734374 19.558594 46.953124 44.519531 49.839843.679688 6.867188 1.890625 13.664063 3.632813 20.320313 1.050781 4.011718 5.152344 6.414062 9.167968 5.363281 4.011719-1.050781 6.414063-5.152344 5.363282-9.167969-2.480469-9.488281-3.757813-19.308594-3.785156-29.179687l-.1875-73.839844h234.722656l.183594 73.132813c.195312 64.710937-52.296876 117.519531-117.007813 117.710937-.121094 0-.234375 0-.355469 0-32.769531 0-63.417968-13.648437-85.324218-36.941406-.3125-.421875-13.578126-16.628907-18.371094-25.636719-1.949219-3.660156-6.496094-5.046875-10.160156-3.101562-3.660157 1.949218-5.046876 6.5-3.097657 10.160156 3.910157 7.351562 8.453125 14.214844 13.511719 20.570312-16.664062 8.707032-31.613281 20.179688-44.246094 33.839844l-27.734375-43.269531c1.640625-.726563 3.226563-1.617188 4.710938-2.695313 6.199219-4.488281 10.089843-11.40625 10.675781-18.980468.167969-2.214844.027344-4.371094-.421875-6.417969-1.878906-8.5-6.902344-16.476563-12.21875-24.917969-2.53125-4.019531-5.148437-8.175781-7.359375-12.332031-1.890625-3.570313-6.265625-5.089844-9.9375-3.472657-2.644531 1.15625-5.398438 2.300782-8.0625 3.410157-5.246094 2.183593-10.375 4.324219-15.046875 6.644531l-19.875-31.011719-36.390625-56.78125c-1.085938-1.695312-2.8125-2.886719-4.785156-3.296875-1.972656-.414062-4.03125-.015625-5.707032 1.105469l-23.335937 15.582031c-3.402344 2.273438-4.359375 6.851563-2.152344 10.296875l16.863281 26.3125-13.449218 8.980469c-23.863282 15.933594-30.589844 48.683594-15 73.007812l25.265625 39.417969c-13.082031 7.714844-21.882813 21.941407-21.882813 38.195313 0 20.816406 14.433594 38.320312 33.820313 43.046875l22.09375 22.09375-29.222657 27.125c-1.550781 1.4375-2.402343 3.445312-2.402343 5.507812 0 .554688.0625 1.117188.191406 1.671875.597656 2.613282 2.542969 4.714844 5.109375 5.503906l47.996094 14.792969c.726562.222657 1.472656.332031 2.214844.332031 1.867187 0 3.699218-.695312 5.109374-2.003906 1.546876-1.441406 2.402344-3.445312 2.398438-5.511718 0-.554688-.0625-1.113282-.1875-1.667969l-4.308594-18.851563 24.175782 24.175782c1.40625 1.40625 3.320312 2.199218 5.3125 2.199218h282.699218.027344.023438 97.65625c1.996093 0 3.910156-.792968 5.316406-2.207031 1.410156-1.414063 2.199218-3.332031 2.195312-5.328125zm-453.703125 4.835937 17.738281-16.46875 5.394531 23.597656zm430.390625-93.75c-13.117188 26.90625-39.183594 28.9375-47.773438 28.84375-5.390625-6.734375-19.816406-28.511719-6.707031-55.402344 6.640625-13.625 24.261719-18.75 39.28125-11.429687 15.019531 7.324218 21.839844 24.363281 15.199219 37.988281zm-1.324219-174.617187c.050781 17.566406-12.792969 32.210937-29.601563 34.957031l-.171874-69.730469c16.777343 2.652344 29.71875 17.226562 29.773437 34.773438zm-76.628906-99.496094h-22.082031c.550781-8.054688 5.777343-15.515625 10.15625-20.414063 2.179687-2.441406 4.371093-4.511719 6.203124-6.105469 1.730469 1.703126 3.789063 3.90625 5.8125 6.476563 4.050782 5.140625 8.789063 12.875 8.875 20.917969-2.90625-.566406-5.902343-.875-8.964843-.875zm-73.828125 0c.550781-8.054688 5.777344-15.515625 10.152344-20.414063 2.175781-2.4375 4.363281-4.5 6.191406-6.09375 5.429687 5.367188 14.132812 15.613281 14.683594 26.507813zm-51.792969 0c.402344-7.726563 4.953125-15.089844 8.855469-20.046875 2.019531-2.5625 4.078125-4.757813 5.804687-6.457031 5.917969 5.167968 15.601563 15.28125 16.359375 26.503906zm-45.527344 0c-2.101562 0-4.183593.152344-6.234375.421875.253906-7.882813 4.898438-15.421875 8.871094-20.46875 2.019531-2.5625 4.074219-4.757813 5.800781-6.457031 5.921875 5.167968 15.601563 15.28125 16.363281 26.503906zm226.746094-12.800782c3.636719 7.167969 9.011719 20.609376 5.027344 31.433594-3.625 9.859375-9.277344 16.703125-14.492188 20.304688-.09375-.550782-.183593-1.097656-.296875-1.640625-2.152344-10.355469-7.746094-19.460938-15.511718-26.089844.328124-1.113281.691406-2.222656 1.097656-3.320313 2.882812-7.835937 10.496094-13.496093 16.378906-16.863281 2.832031-1.625 5.558594-2.890625 7.796875-3.824219zm-140.140625-76.828124c50 0 94.734375 29.035156 115.175781 74.339843-2.753906 2.296875-5.367187 4.90625-7.636719 7.859375-4.515624-19.597656-22.90625-34.132812-23.804687-34.835937-2.578125-2.003907-6.15625-2.113281-8.851563-.273438-.804687.550781-14.9375 10.367188-22.621093 25.214844-6.953125-14.421875-19.535157-24.363281-20.273438-24.941406-2.578125-2.003907-6.15625-2.113281-8.851562-.273438-.8125.554688-15.164063 10.523438-22.804688 25.566407-7.640625-15.042969-21.996093-25.011719-22.804687-25.566407-2.699219-1.839843-6.273438-1.730469-8.851563.273438-.738281.578125-13.320312 10.519531-20.273437 24.9375-7.6875-14.84375-21.816406-24.660157-22.621094-25.210938-2.695312-1.839843-6.273438-1.730469-8.851562.273438-.898438.703125-19.285157 15.238281-23.800782 34.835937-2.402344-3.121094-5.1875-5.859375-8.113281-8.25 20.523437-44.972656 65.457031-73.949218 114.984375-73.949218zm-144.503906 108.261718c-2.882813-7.835937-.753906-17.082031 1.542968-23.460937 1.105469-3.070313 2.359376-5.800781 3.460938-7.960938 7.414062 3.101563 20.21875 9.851563 24.203125 20.675781.1875.507813.351563 1.023438.523437 1.535157-1.738281 1.316406-3.402343 2.757812-4.972656 4.332031-6.484375 6.5-10.816406 14.574219-12.65625 23.355469-4.488281-3.863281-8.996094-10.035157-12.101562-18.476563zm-17.535156 81.910156c-.050782-17.238281 12.324218-31.660156 28.671874-34.785156l.175782 69.394532c-16.351563-3.039063-28.796875-17.382813-28.847656-34.609376zm278.375-51.640624h-234.722657l-.003906-2.011719c-.003906-1.0625.042969-2.117188.144531-3.164063.699219-7.308594 3.878906-14.09375 9.136719-19.363281.375-.378906.757813-.742187 1.148437-1.097656 3.117188-2.835938 6.710938-4.988281 10.589844-6.382813.15625-.046875.3125-.09375.460938-.152344 3.273437-1.121093 6.742187-1.707031 10.304687-1.707031h32.320313.015625 51.589843.019532.011718 87.1875c17.484376 0 31.746094 14.222657 31.789063 31.707031v.035157zm14.675781 100.78125c6.503906-.65625 12.734375-2.5625 18.421875-5.582032 10.078125 11.132813 15.597656 25.410156 15.597656 40.539063 0 13.664062-4.4375 26.507812-12.820312 37.21875-15.066407-6.65625-31.75-4.90625-44.019532 3.398437-2.226562-1.367187-4.496094-2.671875-6.785156-3.933594 16.9375-20.515624 27.175781-45.292968 29.605469-71.640624zm-307.707031 214.429687c-.003907-1.601563-.027344-2.75-.050782-3.699219-.035156-1.488281-.050781-2.324218.054688-3.828125 6.753906-1.242187 13.246094-3.851562 19.136718-7.785156l13.214844-8.824219 23.492188 36.652344c.042968.066406.097656.128906.144531.199219h-55.953125zm40.875-38.6875c-1.089844-1.695313-2.8125-2.882813-4.789063-3.296875-1.972656-.414062-4.03125-.015625-5.707031 1.105469l-19.582032 13.074219c-8.128906 5.429687-17.886718 7.316406-27.476562 5.3125-9.730469-2.03125-18.0625-7.796876-23.464844-16.226563l-6.070312-9.472656c9.789062-2.902344 18.171875-9.097657 23.863281-17.304688 6.183594 5.882813 13.871094 9.945313 22.417969 11.734375 12.167968 2.542969 24.554687.148438 34.878906-6.746094l5.195312-3.46875 35.0625 54.707032-10.839843 7.238281zm-114.265626.25-7.925781-7.925781h10.367188zm99.996094-34.566406c-3.011718 2.015625-6.289062 3.453125-9.699218 4.300781 2.957031-5.605469 6.25-10.992188 9.867187-16.136719l5.261719 8.210938zm-26.242187 3.820312c-6.425781-1.960937-11.988281-5.902343-16.023438-11.351562.765625-3.257813 1.1875-6.652344 1.1875-10.140625 0-13.898438-6.4375-26.316406-16.480469-34.449219l9.070313-29.433594c1.722656.917969 3.558594 1.644531 5.496094 2.164063.164062.390625.359375.773437.59375 1.140625l33.878906 52.859375c-6.867187 9.035156-12.820313 18.8125-17.722656 29.210937zm-16.738281-136.074219c.746093-.3125 1.5-.625 2.257812-.941406 1.519531 2.554688 3.085938 5.035156 4.617188 7.472656 4.601562 7.304688 8.945312 14.203126 10.261718 20.148438.132813.605469.167969 1.285156.113282 2.023438-.246094 3.171874-1.886719 6.074218-4.507813 7.972656-2.574219 1.863281-5.640625 2.488281-8.628906 1.753906-2.886719-.707031-5.277344-2.511719-6.734375-5.085938-.023438-.042968-.054688-.082031-.082032-.125-.125-.210937-.257812-.414062-.398437-.609374-.046875-.0625-.09375-.128907-.140625-.191407-.183594-.234375-.375-.457031-.585938-.667969-.042968-.042968-.085937-.078124-.128906-.121093-.175781-.164063-.355468-.324219-.546875-.476563-.070312-.054687-.140625-.109375-.210937-.160156-.1875-.136719-.382813-.265625-.585938-.386719-.058594-.035156-.113281-.074219-.167968-.105469-.257813-.144531-.523438-.273437-.800782-.390624-.058594-.023438-.117187-.039063-.175781-.0625-.164063-.066407-.328125-.132813-.5-.183594-.054687-.015625-.109375-.027344-.164063-.042969-.097656-.027344-.191406-.050781-.289062-.074219-.207031-.046875-.414062-.089844-.621094-.121094-.089844-.011718-.175781-.027343-.261718-.039062-.289063-.035156-.582032-.054688-.867188-.058594-.003906 0-.007812 0-.011719 0-.003906 0-.003906 0-.003906 0-.269531 0-.535156.015625-.800781.046875-.070313.007813-.140625.019531-.210938.03125-.191406.023438-.382812.054688-.570312.097657-.09375.019531-.183594.046874-.277344.070312-.171875.042969-.339844.089844-.503906.144531-.09375.03125-.183594.066407-.277344.097657-.171875.066406-.34375.140624-.511719.21875-.054687.023437-.109375.042968-.160156.070312-2.441406 1.203125-5.214844 1.421875-7.808594.621094-2.707031-.832032-4.929687-2.671875-6.253906-5.175782-1.324219-2.503906-1.59375-5.375-.757813-8.085937.300782-.972656.816407-2.007813 1.574219-3.15625 3.476563-5.25 15.292969-10.167969 25.722657-14.507813zm-39.816407 32.773438c3.199219 6.050781 8.5625 10.496094 15.105469 12.511719 1.59375.492187 3.214844.820312 4.84375.996093l-8.136719 26.40625c-1.859375-.640624-3.765625-1.167968-5.726562-1.558593l-29.816407-46.523438c-9.585937-14.953125-5.484374-35.0625 9.136719-44.828125l5.195313-3.46875 15.734375 24.550782c-1.859375 1.644531-3.480469 3.414062-4.769531 5.359374-1.5625 2.363282-2.679688 4.660157-3.40625 7.023438-2.011719 6.542969-1.363282 13.480469 1.839843 19.53125zm-72.1875-3.90625c-11.207031-17.484375-6.410156-40.996094 10.691407-52.410156l19.578124-13.078125c3.40625-2.273438 4.363282-6.851563 2.15625-10.296875l-16.867187-26.3125 10.839844-7.238282 28.285156 44.128907-5.429687 3.625c-21.382813 14.277343-27.414063 43.625-13.445313 65.425781l24.074219 37.558594h-24.835938c-2.746094 0-5.425781.261718-8.035156.742187zm5.753907 85.714844c0-16.152344 13.140624-29.289063 29.292968-29.289063h34.546875c16.152344 0 29.289063 13.136719 29.289063 29.289063s-13.136719 29.289062-29.289063 29.289062h-1.972656c-.023437 0-.046875 0-.070313 0h-32.503906c-16.152344 0-29.292968-13.136718-29.292968-29.289062zm61.5 64.503906-.136719-.613281 3.546875-11.511719 4.921875 7.679688c7.597656 11.855468 19.332031 19.964843 33.039062 22.828124 1.558594.328126 3.125.570313 4.6875.753907-.050781 1.269531-.035156 2.308593-.003906 3.675781.019531.875.046875 1.929688.050781 3.40625l.035156 12.667969h-7.253906zm319.644531 38.886719c-24.035157-7.226563-48.089844-22.835938-67.839844-44.070313-2.824219-3.039062-7.574219-3.210937-10.613281-.386718-3.039063 2.824218-3.210938 7.578124-.386719 10.613281 12.625 13.574219 26.929687 25.050781 41.949219 33.84375h-152.300782l20.347657-13.585938c3.40625-2.273437 4.363281-6.855469 2.152343-10.300781l-33.222656-51.835938-22-34.328124c12.839844-14.640626 28.515625-26.695313 46.210938-35.367188 15.636718 15.519531 34.859375 26.878906 55.953125 33.054688 2.523437 16.695312 9.273437 34.195312 19.722656 50.957031 1.425781 2.28125 3.875 3.535156 6.378906 3.535156 1.359375 0 2.730469-.367187 3.96875-1.136719 3.519531-2.195312 4.59375-6.828125 2.398438-10.347656-8.136719-13.050781-13.753907-26.484375-16.542969-39.398438 6.941406 1.125 14.019531 1.71875 21.191406 1.71875h.402344c34.234375-.101562 66.527344-13.246093 91.261719-37.078124 2.160156 1.117187 4.292969 2.289062 6.398437 3.515624-1.003906 1.5-1.929687 3.078126-2.742187 4.742188-16.167969 33.171875.285156 63.273438 11.246093 74.558594 1.21875 1.253906 2.839844 2.046875 4.582032 2.230468 1.585937.171876 3.359375.269532 5.285156.269532 11.417969 0 28.113281-3.394532 42.261719-14.589844 8.496093 18.789062 12.839843 38.8125 12.902343 59.632812l.042969 13.753907zm0 0" fill="#18191b"/><path d="m325.207031 297.445312c9.730469-.03125 19.015625-3.6875 26.152344-10.292968 3.042969-2.820313 3.226563-7.570313.40625-10.617188-2.820313-3.042968-7.570313-3.226562-10.613281-.40625-4.363282 4.042969-10.042969 6.273438-15.992188 6.292969-.023437 0-.046875 0-.070312 0-5.925782 0-11.589844-2.199219-15.960938-6.199219-3.058594-2.796875-7.808594-2.589844-10.609375.46875-2.800781 3.0625-2.59375 7.8125.46875 10.613282 7.144531 6.539062 16.410157 10.140624 26.101563 10.140624zm0 0" fill="#18191b"/></svg>