<svg height="511pt" viewBox="-7 0 511 511.99697" width="511pt" xmlns="http://www.w3.org/2000/svg"><path d="m284.882812 235.804688c-.019531-6.753907-5.511718-12.210938-12.265624-12.191407-6.75.019531-12.210938 5.511719-12.191407 12.265625.023438 6.75 5.511719 12.210938 12.265625 12.191406 6.753906-.023437 12.210938-5.511718 12.191406-12.265624zm0 0"/><path d="m371.261719 235.542969c-.019531-6.75-5.511719-12.210938-12.265625-12.191407-6.753906.023438-12.210938 5.511719-12.191406 12.265626.019531 6.753906 5.511718 12.210937 12.265624 12.191406 6.753907-.019532 12.210938-5.511719 12.191407-12.265625zm0 0"/><path d="m498.136719 483.015625c-.042969-15.167969-2.25-30.1875-6.558594-44.636719-1.195313-4.011718-5.414063-6.296875-9.429687-5.097656-4.011719 1.195312-6.292969 5.417969-5.097657 9.425781 3.894531 13.0625 5.890625 26.636719 5.929688 40.355469l.039062 13.222656h-86.820312c-47.515625-14.3125-91.417969-60.976562-101.261719-105.84375 6.699219 1.066406 13.527344 1.617188 20.433594 1.617188h.394531c33.492187-.101563 65.082031-12.9375 89.304687-36.214844 25.53125 13.277344 47.078126 34.445312 60.761719 59.777344 1.371094 2.535156 3.980469 3.976562 6.675781 3.976562 1.214844 0 2.449219-.292968 3.59375-.914062 3.683594-1.988282 5.054688-6.585938 3.066407-10.269532-14.675781-27.164062-36.542969-49.214843-63.449219-64.074218 3.578125-4.355469 6.847656-8.90625 9.800781-13.625h2.027344c27.320313 0 49.546875-22.226563 49.546875-49.546875v-23.984375c7.285156-8.648438 11.671875-19.804688 11.636719-31.96875-.027344-9.03125-2.457031-17.679688-6.980469-25.226563 2.875-.066406 4.726562-.277343 4.871094-.292969 3.273437-.386718 5.917968-2.84375 6.546875-6.078124.058593-.28125 1.339843-6.984376.960937-15.425782-.527344-11.800781-4.074218-21.5625-10.257812-28.230468-2.386719-2.570313-4.960938-4.882813-7.65625-6.917969.367187-.363281.742187-.71875 1.101562-1.089844 6.308594-6.546875 10.042969-16.234375 10.804688-28.027344.539062-8.429687-.613282-15.15625-.664063-15.441406-.566406-3.242187-3.167969-5.75-6.429687-6.199219-.285156-.039062-7.046875-.949218-15.453125-.105468-1.773438.179687-3.488281.429687-5.152344.738281-27.6875-56.628907-85.28125-92.917969-148.308594-92.917969-62.753906 0-120.492187 36.285156-148.199219 92.75-1.378906-.234375-2.789062-.425781-4.238281-.570312-8.402343-.84375-15.167969.0625-15.453125.101562-3.261718.453125-5.863281 2.957031-6.429687 6.203125-.050781.28125-1.203125 7.011719-.660157 15.441406.757813 11.789063 4.492188 21.480469 10.804688 28.023438.355469.371093.722656.71875 1.089844 1.078125-2.695313 2.035156-5.253906 4.351562-7.648438 6.933594-6.183594 6.664062-9.730468 16.425781-10.257812 28.230468-.378906 8.4375.90625 15.140625.960937 15.421875.628907 3.234375 3.277344 5.691407 6.546875 6.078125.175782.019532 2.765625.316406 6.667969.316406 1.839844 0 3.972656-.066406 6.28125-.261718-5.105469 7.808594-8.070313 17.132812-8.042969 27.136718.023438 6.644532 1.34375 13.085938 3.84375 19.035157-.152344.605469-.246094 1.234375-.246094 1.890625v33.355468c0 27.324219 22.226563 49.546876 49.546876 49.546876h8.554687c2.625 4.195312 5.5 8.257812 8.621094 12.167968-10.996094 5.777344-21.316407 12.816406-30.730469 21.027344-3.15625 2.75-3.484375 7.539062-.734375 10.695312 1.5 1.71875 3.601563 2.597657 5.714844 2.597657 1.765625 0 3.542969-.617188 4.976562-1.867188 9.507813-8.289062 20.023438-15.257812 31.273438-20.789062 15.535156 15.339843 34.195312 26.300781 54.496093 32.269531 3.789063 24.972656 17.050782 51.121094 37.730469 74.207031 12.71875 14.191407 27.257813 26.164063 42.617188 35.261719h-215.59375l-.035157-12.207031c-.085937-28.761719 8.398438-56.597657 24.535157-80.496094 2.34375-3.46875 1.429687-8.179687-2.039063-10.519531-3.46875-2.34375-8.179687-1.429688-10.523437 2.039062-6.894531 10.210938-12.511719 21.078125-16.820313 32.398438l-17.070312-17.066406c2.011718-5.082032 3.132812-10.613282 3.132812-16.402344 0-10.949219-3.964844-20.988282-10.523437-28.769532 6.8125-9.003906 10.523437-19.925781 10.523437-31.28125v-57.667968c0-.289063-.007812-.574219-.019531-.863282l-.007813-.273437c-.089843-4.121094-3.457031-7.417969-7.578124-7.417969h-88.867188c-4.121094 0-7.488281 3.296875-7.578125 7.417969l-.007813.273437c-.011718.289063-.019531.574219-.019531.863282v57.667968c0 6.988282 1.421875 13.878907 4.136719 20.265626-14.4375 7.421874-24.34375 22.464843-24.34375 39.785156 0 17.445312 10.050781 32.582031 24.660156 39.945312l32.121094 32.121094h-20.933594c-4.1875 0-7.578125 3.390625-7.578125 7.578125 0 4.183594 3.390625 7.578125 7.578125 7.578125h36.089844l28.527344 28.527344c1.421875 1.421875 3.347656 2.21875 5.359375 2.21875h29.726562c1.007813 0 1.964844-.199219 2.847657-.558594h256.15625c.007812 0 .019531.003906.027343.003906.007813 0 .015625-.003906.023438-.003906h95.519531c2.011719 0 3.941406-.800781 5.367188-2.226562 1.421874-1.425782 2.214843-3.359376 2.210937-5.375zm-93.632813-342.105469c-2.351562-2.027344-4.289062-4.886718-5.757812-8.484375 0-.003906 0-.003906-.003906-.003906-2.152344-5.28125-2.882813-11.078125-3.101563-15.265625 7.394531-.683594 18.320313-.269531 24.78125 5.304688.851563.734374 1.660156 1.503906 2.445313 2.292968-.808594.472656-1.601563.988282-2.367188 1.554688-5.300781 3.949218-8.746094 9.722656-9.703125 16.261718-.132813.914063-.210937 1.816407-.242187 2.71875-2.082032-1.25-4.121094-2.714843-6.050782-4.378906zm21.289063 3.855469c.371093-2.53125 1.707031-4.769531 3.757812-6.300781 1.675781-1.242188 3.660157-1.898438 5.707031-1.898438.46875 0 .9375.035156 1.40625.105469 5.230469.761719 8.863282 5.640625 8.097657 10.867187-.371094 2.535157-1.707031 4.769532-3.757813 6.296876-2.054687 1.53125-4.582031 2.167968-7.113281 1.796874-5.230469-.761718-8.859375-5.640624-8.097656-10.867187zm31.199219 51.207031c2.320312 1.40625 4.488281 3.089844 6.457031 5.050782 6.503906 6.460937 10.097656 15.066406 10.125 24.234374.050781 16.96875-12.292969 31.128907-28.488281 33.910157l-.167969-67.652344c2.296875.378906 4.53125.988281 6.683593 1.816406 1.683594.984375 3.480469 1.867188 5.390626 2.640625zm-23.066407 118.980469c5.6875-12.722656 9.28125-26.332031 10.597657-40.402344 6.222656-.660156 12.097656-2.492187 17.414062-5.246093v11.863281c0 16.78125-12.089844 30.789062-28.011719 33.785156zm45.03125-130.089844c-4.511719-.085937-10.273437-.722656-15.40625-2.609375-1.691406-.957031-3.429687-1.816406-5.21875-2.566406-1.261719-.820312-2.429687-1.757812-3.4375-2.84375-2.777343-2.992188-5.0625-6.253906-6.734375-9.578125.644532-.394531 1.28125-.8125 1.894532-1.273437 5.039062-3.75 8.394531-9.15625 9.535156-15.292969.144531.074219.28125.148437.429687.214843 4.488281 1.976563 8.894531 5.210938 12.738281 9.355469 5.8125 6.265625 6.617188 17.183594 6.199219 24.59375zm-5.910156-77.902343h.03125c.273437 7.421874-.742187 18.320312-6.671875 24.46875-1.941406 2.011718-4.03125 3.8125-6.210938 5.351562-.207031.144531-.40625.300781-.59375.464844-.355468.183594-.691406.394531-1.015624.632812-2.558594-7.164062-8.351563-12.949218-15.859376-15.316406 1.636719-2.800781 3.707032-5.527344 6.140626-8.046875 5.921874-6.144531 16.757812-7.554687 24.179687-7.554687zm-160.933594-91.804688c56.609375 0 108.394531 32.265625 133.851563 82.761719-3.054688 1.695312-5.742188 3.722656-8.011719 6.074219-2.433594 2.523437-4.605469 5.226562-6.492187 8.035156-.382813-.347656-.746094-.707032-1.140626-1.046875-6.882812-5.9375-16.765624-9.128907-28.582031-9.230469-8.425781-.070312-15.097656 1.453125-15.378906 1.519531-3.210937.746094-5.570313 3.480469-5.835937 6.761719-.035157.445312-.636719 8.335938 1.152343 17.671875h-138.097656c.140625-.734375.273437-1.480469.390625-2.234375 1.3125-8.34375.78125-15.152344.757812-15.4375-.269531-3.28125-2.628906-6.015625-5.835937-6.761719-.277344-.066406-6.96875-1.589843-15.378906-1.519531-11.816407.101562-21.699219 3.292969-28.582031 9.230469-.394532.339843-.761719.695312-1.144532 1.042969-1.886718-2.804688-4.054687-5.507813-6.492187-8.03125-2.464844-2.558594-5.429688-4.734376-8.824219-6.511719 25.535156-50.191407 77.378906-82.324219 133.644531-82.324219zm-123.527343 121.515625c.46875-.070313.933593-.105469 1.390624-.105469 4.675782 0 8.78125 3.4375 9.476563 8.199219.371094 2.53125-.265625 5.058594-1.796875 7.109375-1.527344 2.054688-3.765625 3.386719-6.296875 3.757812-2.527344.371094-5.058594-.265624-7.109375-1.796874-2.054688-1.527344-3.386719-3.765626-3.757812-6.296876-.765626-5.226562 2.863281-10.105468 8.09375-10.867187zm-29.894532 90.167969c-.046875-16.371094 11.441406-30.128906 26.792969-33.578125l.167969 66.992187c-6.324219-1.375-12.136719-4.511718-16.835938-9.183594-6.5-6.460937-10.097656-15.066406-10.125-24.230468zm55.972656-82.152344c-.039062-.703125-.109374-1.410156-.210937-2.117188-1.136719-7.757812-5.777344-14.144531-12.078125-17.808593.785156-.789063 1.59375-1.5625 2.453125-2.300781 6.464844-5.574219 17.382813-5.988282 24.773437-5.308594-.355468 6.820312-2.039062 17.878906-8.855468 23.757812-1.785156 1.539063-3.90625 2.757813-6.082032 3.777344zm-62.492187-37.699219h.203125c6.851562 0 17.824219 1.109375 24.011719 7.527344 2.429687 2.519531 4.5 5.246094 6.136719 8.046875-7.503907 2.363281-13.292969 8.144531-15.851563 15.300781-2.738281-1.734375-5.382813-3.902343-7.824219-6.433593-5.925781-6.144532-6.945312-17.023438-6.675781-24.441407zm.316406 53.28125c2.855469-3.074219 5.988281-5.628906 9.3125-7.589843.039063-.023438.074219-.050782.109375-.074219 1.429688.761719 2.878906 1.457031 4.335938 2.050781.1875.078125.375.140625.566406.199219 1.644531 4.410156 4.519531 8.261719 8.378906 11.136719.617188.460937 1.25.878906 1.898438 1.273437-1.667969 3.3125-3.960938 6.585937-6.738282 9.578125-5.8125 6.261719-16.640624 7.878906-24.058593 8.019531-.414063-7.417969.386719-18.332031 6.195312-24.59375zm44.191407 155.289063c-18.960938 0-34.390626-15.429688-34.390626-34.390625v-15.660157c6.980469 5.550782 15.242188 9.066407 24.058594 10.246094 1.433594 13.867188 5.074219 27.273438 10.75 39.804688zm19.679687 4.257812c-.175781-.359375-.375-.703125-.601563-1.027344-9.691406-16.953124-14.878906-36.148437-14.941406-56.101562l-.222656-88.886719c-.003906-1.867187.171875-3.71875.5-5.542969 2.808594-1.40625 5.328125-3.347656 7.4375-5.75.136719.007813.273438.03125.410156.03125.789063 0 1.589844-.125 2.378906-.382812 5.160157-1.703125 12.960938-4.277344 19.324219-9.769531 2.996094-2.582031 5.558594-5.800781 7.648438-9.578125.285156.035156.574219.054687.867187.054687h147.820313c2.085937 3.742188 4.632812 6.941407 7.625 9.523438 6.667969 5.753906 14.175781 9.769531 21.707031 11.613281.605469.148438 1.210938.21875 1.804688.21875.085937 0 .171874-.019531.253906-.019531 3.054687 2.867187 6.851562 4.984375 11.140625 6.007812.128906 1.140625.199219 2.289063.203125 3.4375l.222656 88.351563c.058594 20.195312-5.140625 39.644531-14.957031 56.804687-.230469.332031-.433594.683594-.609375 1.050781-4.882813 8.328126-10.851563 16.105469-17.851563 23.148438-21.640625 21.769531-50.335937 33.808594-80.800781 33.898438-9.410156.035156-18.660156-1.082032-27.589844-3.269532-.34375-.113281-.695312-.203125-1.054687-.269531-19.570313-4.996094-37.578125-15.183594-52.355469-29.875-7.21875-7.175781-13.363281-15.132813-18.359375-23.667969zm-180.492187 14.160156v-51.0625h73.757812v51.0625c0 7.761719-2.453125 15.234376-6.96875 21.488282-6.632812-3.902344-14.351562-6.148438-22.585938-6.148438h-34.859374c-1.957032 0-3.882813.140625-5.773438.386719-2.332031-4.90625-3.570312-10.269531-3.570312-15.726563zm9.34375 30.496094h34.859374c16.296876 0 29.554688 13.261719 29.554688 29.554688 0 5.003906-1.25 9.71875-3.453125 13.851562-.175781.265625-.324219.542969-.460937.824219-5.105469 8.882813-14.683594 14.882813-25.640626 14.882813h-34.859374c-4.28125 0-8.351563-.925782-12.03125-2.570313-.277344-.152344-.5625-.28125-.851563-.390625-9.859375-4.796875-16.671875-14.914062-16.671875-26.597656 0-16.296875 13.257812-29.554688 29.554688-29.554688zm22.789062 90.90625-16.636719-16.636718h16.636719zm25.875 25.875h23.332031c4.1875 0 7.578125-3.394531 7.578125-7.578125 0-4.1875-3.390625-7.578125-7.578125-7.578125h-34.050781v-27.476562c12.035156-.824219 22.773438-6.425782 30.328125-14.921875l20.039063 20.039062c-3.417969 13.089844-5.152344 26.640625-5.109376 40.386719l.035157 12.71875h-18.984375zm0 0"/><path d="m315.152344 316.738281h.113281c9.574219-.027343 18.714844-3.625 25.738281-10.128906 3.070313-2.84375 3.253906-7.636719.410156-10.707031-2.84375-3.074219-7.640624-3.257813-10.710937-.414063-4.222656 3.914063-9.722656 6.074219-15.484375 6.09375-.019531 0-.042969 0-.066406 0-5.738282 0-11.226563-2.128906-15.457032-6.003906-3.085937-2.824219-7.882812-2.613281-10.707031.476563-2.824219 3.085937-2.613281 7.878906.476563 10.707031 7.03125 6.4375 16.148437 9.976562 25.6875 9.976562zm0 0"/><path d="m358.550781 213.429688c.179688-.042969 18.332031-3.976563 34.4375 1.0625.753907.238281 1.515625.347656 2.265625.347656 3.226563 0 6.21875-2.074219 7.230469-5.316406 1.25-3.996094-.976563-8.246094-4.96875-9.496094-19.925781-6.234375-41.351563-1.59375-42.253906-1.394532-4.085938.90625-6.660157 4.957032-5.753907 9.042969.910157 4.085938 4.960938 6.664063 9.042969 5.753907zm0 0"/><path d="m284.515625 207.675781c.90625-4.085937-1.667969-8.136719-5.753906-9.042969-.902344-.199218-22.328125-4.839843-42.253907 1.394532-3.992187 1.25-6.21875 5.5-4.96875 9.496094 1.011719 3.242187 4.003907 5.316406 7.230469 5.316406.75 0 1.511719-.109375 2.265625-.347656 15.9375-4.984376 34.160156-1.121094 34.449219-1.058594 4.078125.898437 8.121094-1.675782 9.03125-5.757813zm0 0"/></svg>