<?xml version="1.0" encoding="iso-8859-1"?>
<!-- Generator: Adobe Illustrator 19.0.0, SVG Export Plug-In . SVG Version: 6.00 Build 0)  -->
<svg version="1.1" id="Capa_1" xmlns="http://www.w3.org/2000/svg" xmlns:xlink="http://www.w3.org/1999/xlink" x="0px" y="0px"
	 viewBox="0 0 512 512" style="enable-background:new 0 0 512 512;" xml:space="preserve">
<path style="fill:#9EBECC;" d="M418.314,237.861c3.124,0.539,5.518,3.271,5.518,6.537v26.679c0,1.785-0.698,3.46-1.967,4.717
	c-1.245,1.234-2.888,1.913-4.636,1.922l-7.872,0.863l22.003,7.753l3.274-2.482c2.711-3.686,4.197-8.107,4.197-12.772v-26.679
	c0-6.006-2.49-11.459-6.482-15.392c-1.37-1.294-2.694-2.397-3.968-3.335l-15.755,10.711L418.314,237.861z"/>
<path style="fill:#D0EFEF;" d="M379.204,40.833V7.5c0-4.142-3.357-7.5-7.499-7.5s-7.5,3.357-7.5,7.5v33.334L379.204,40.833
	L379.204,40.833z"/>
<path style="fill:#FFE7CF;" d="M388.936,323.01l-80.979-15.043c-10.395-2.089-17.873-14.147-17.873-24.75V235.97h-50.366h-0.001
	h-50.366v47.248c0,10.603-7.478,22.661-17.873,24.75L90.497,323.01c-38.518,11.341-64.964,46.697-64.964,86.849v90.16
	c0,6.605,5.354,11.959,11.959,11.959H441.94c6.605,0,11.959-5.354,11.959-11.959v-90.16
	C453.899,369.707,427.453,334.351,388.936,323.01z"/>
<path style="fill:#EDEDED;" d="M232.907,477.993L232.907,477.993L232.907,477.993z"/>
<path style="fill:#423E38;" d="M388.936,323.01l-80.979-15.042l0,0c-38.049,36.804-98.43,36.804-136.479,0l0,0L90.497,323.01
	c-38.518,11.341-64.964,46.697-64.964,86.85v90.16c0,6.605,5.354,11.959,11.959,11.959H441.94c6.605,0,11.959-5.354,11.959-11.959
	v-90.16C453.899,369.707,427.453,334.351,388.936,323.01z"/>
<path style="fill:#332F2A;" d="M388.936,323.01l-80.979-15.043l0,0c-14.01,13.551-31.049,22.094-48.884,25.667l88.047,17.723
	c38.518,11.341,64.964,26.897,64.964,67.05v93.571h29.858c6.605,0,11.959-5.354,11.959-11.959v-90.16
	C453.899,369.707,427.453,334.351,388.936,323.01z"/>
<path style="fill:#423E38;" d="M311.424,27.477C294.601,12.992,270.954,0.349,239.716,0c-31.237,0.349-54.884,12.992-71.707,27.477
	c-21.457,18.476-33.082,45.914-33.082,74.229v53.085c0,28.316,35.589,119.063,104.789,119.063s104.789-90.747,104.789-119.063
	v-53.085C344.506,73.391,332.881,45.953,311.424,27.477z M296.833,146.418l-27.943,4.254c-21.2,3.228-42.776,3.107-63.939-0.357
	l-22.387-3.665c-11.994-1.963-20.799-12.327-20.799-24.481c0-13.7,11.106-24.807,24.807-24.807h106.291
	c13.701,0,24.807,11.106,24.807,24.807C317.669,134.29,308.815,144.594,296.833,146.418z"/>
<path style="fill:#332F2A;" d="M311.424,27.477C294.601,12.992,270.954,0.349,239.716,0c-7.426,0.083-14.417,0.867-20.995,2.199
	c21.094,4.271,37.888,14.236,50.712,25.278c21.457,18.476,33.082,45.914,33.082,74.229v53.085
	c0,25.295-28.404,100.402-83.794,116.142c6.615,1.88,13.612,2.921,20.995,2.921c69.2,0,104.789-90.747,104.789-119.063v-53.085
	C344.506,73.391,332.881,45.953,311.424,27.477z"/>
<path style="fill:#FFE7CF;" d="M296.833,146.418l-27.943,4.254c-21.201,3.228-42.776,3.107-63.939-0.357l-22.387-3.665
	c-11.994-1.963-20.799-12.327-20.799-24.481l0,0c0-13.701,11.106-24.807,24.807-24.807h106.291
	c13.701,0,24.807,11.106,24.807,24.807l0,0C317.669,134.29,308.815,144.594,296.833,146.418z"/>
<path style="fill:#332F2A;" d="M376.24,279.313c-12.315-16.108-53.825-27.872-70.812-38.003c-4.694,5.246-9.813,10.109-15.341,14.4
	v27.508c0,10.603,7.478,22.661,17.873,24.75c-18.407,17.805-42.04,26.967-65.842,27.542c-0.8,0.02-1.599,0.006-2.399,0.006
	s-1.6,0.013-2.399-0.006c-23.803-0.575-47.435-9.738-65.842-27.542c10.395-2.089,17.873-14.147,17.873-24.75V255.71
	c-5.528-4.291-10.647-9.154-15.341-14.4c-16.987,10.132-58.497,21.896-70.812,38.003c-8.176,10.693-8.621,26.197-2.62,37.528
	c4.008,7.567,16.768,15.4,33.039,22.751c67.369,30.436,144.832,30.436,212.201,0.001c16.273-7.351,29.034-15.185,33.042-22.752
	C384.861,305.51,384.416,290.006,376.24,279.313z"/>
<path style="fill:#28231E;" d="M376.24,279.313c-12.315-16.108-53.825-27.872-70.812-38.004c-4.222,4.718-8.805,9.101-13.703,13.063
	c16.843,7.136,34.813,15.252,42.22,24.941c8.176,10.693,8.622,26.197,2.62,37.528c-4.008,7.567-16.769,15.401-33.042,22.752
	c-27.121,12.252-55.878,19.562-84.953,21.95c43.149,3.543,86.999-3.767,127.248-21.95c16.273-7.351,29.034-15.185,33.042-22.752
	C384.861,305.51,384.416,290.006,376.24,279.313z"/>
<g>
	<path style="fill:#82ADBC;" d="M461.034,370.651l4.807-13.641c1.06-3.007-0.519-6.304-3.526-7.363l-61.633-21.717v27.577
		l52.989,18.671C456.678,375.237,459.975,373.658,461.034,370.651z"/>
	<path style="fill:#82ADBC;" d="M380.384,274.393c28.461-12.528,54.027-30.56,76.46-53.998c2.404-2.512,6.349-2.71,8.974-0.43
		c6.135,5.328,12.271,10.655,18.406,15.983c2.795,2.427,3.012,6.704,0.464,9.39c-29.884,31.513-64.921,54.77-104.305,69.365v-40.31
		H380.384z"/>
</g>
<path style="fill:#9EBECC;" d="M391.062,152.924V32.1c0-5.235-4.243-9.478-9.478-9.478h-13.699v130.301h23.177V152.924z"/>
<path style="fill:#BF834C;" d="M392.767,506.466l-17.4-130.37h-2.895c-5.385,0-9.751-4.366-9.751-9.751V141.48
	c0-2.737,2.219-4.955,4.955-4.955h18.43c2.737,0,4.955,2.219,4.955,4.955v40.358c0,9.132,2.998,18.102,8.891,25.078
	c6.069,7.185,9.395,16.284,9.395,25.681v143.498l37.309,116.442c1.103,3.487-0.926,7.19-4.459,8.137l-41.41,11.104
	C397.061,512.778,393.301,510.287,392.767,506.466z"/>
<path style="fill:#E8B287;" d="M409.347,376.096l37.309,116.441c1.103,3.487-0.926,7.19-4.459,8.137l-41.409,11.104
	c-3.727,0.999-7.488-1.491-8.022-5.313l-17.4-130.37L409.347,376.096L409.347,376.096z"/>
<path style="fill:#BF834C;" d="M389.711,484.588l50.177-13.455l6.769,21.405c1.103,3.487-0.926,7.19-4.459,8.137l-41.409,11.104
	c-3.727,0.999-7.488-1.491-8.022-5.313L389.711,484.588z"/>
<g>
	<path style="fill:#F4D3A6;" d="M290.083,283.218v-27.49c-12.223,9.49-26.482,16.132-42.737,17.737v38.013
		c0,8.342,4.64,17.563,11.677,22.143c17.854-3.556,34.913-12.089,48.937-25.653l-0.003-0.001
		C297.561,305.878,290.083,293.82,290.083,283.218z"/>
	<path style="fill:#F4D3A6;" d="M292.862,97.363h-16.944v52.24l20.915-3.184c11.983-1.825,20.836-12.128,20.836-24.249
		C317.669,108.469,306.562,97.363,292.862,97.363z"/>
</g>
<g>
	<path style="fill:#423E38;" d="M191.608,132.939h14.31c4.283,0,7.755-3.471,7.755-7.754s-3.472-7.755-7.755-7.755h-14.31
		c-4.283,0-7.755,3.471-7.755,7.755S187.326,132.939,191.608,132.939z"/>
	<path style="fill:#423E38;" d="M273.514,132.939h14.31c4.283,0,7.755-3.471,7.755-7.754s-3.471-7.755-7.755-7.755h-14.31
		c-4.283,0-7.754,3.471-7.754,7.755S269.231,132.939,273.514,132.939z"/>
</g>
<g>
</g>
<g>
</g>
<g>
</g>
<g>
</g>
<g>
</g>
<g>
</g>
<g>
</g>
<g>
</g>
<g>
</g>
<g>
</g>
<g>
</g>
<g>
</g>
<g>
</g>
<g>
</g>
<g>
</g>
</svg>
