<svg height="512" viewBox="0 0 512 512" width="512" xmlns="http://www.w3.org/2000/svg"><g id="Flat"><path d="m424 329.88v158.12h-208l-.69-40a61.159 61.159 0 0 1 -11.77-56.63l-56.76 82.36a26.965 26.965 0 0 1 -48.83-22.7l66.27-138.42a47.988 47.988 0 0 1 38.95-27.08l53.55-4.87a8 8 0 0 0 7.28-7.97v-56.69h64v57.22a8 8 0 0 0 6.68 7.89l55.9 9.32a40 40 0 0 1 33.42 39.45z" fill="#fdc8a2"/><path d="m328 216v32.51a72.1 72.1 0 0 1 -64 0v-32.51z" fill="#fdb683"/><path d="m216 488v-40h-.688c-19.793-23.557-18.457-57.276.688-80l14-85 26-1.667v38.667a40 40 0 0 0 40 40 40 40 0 0 0 40-40v-38.667l26.286 4.381 13.714 82.286a62.086 62.086 0 0 1 0 80v40" fill="#d26699"/><path d="m376 64h-24v32h8a16 16 0 0 1 16 16v88a48 48 0 0 0 48 48v-136a48 48 0 0 0 -48-48z" fill="#663723"/><path d="m216 128h8a0 0 0 0 1 0 0v48a0 0 0 0 1 0 0h-8a24 24 0 0 1 -24-24 24 24 0 0 1 24-24z" fill="#fdb683"/><path d="m296 240a72 72 0 0 1 -72-72v-56a64 64 0 0 1 64-64h16a64 64 0 0 1 64 64v56a72 72 0 0 1 -72 72z" fill="#fdc8a2"/><g fill="#7a432a"><path d="m260 128a12 12 0 1 0 12 12 12.013 12.013 0 0 0 -12-12z"/><path d="m332 128a12 12 0 1 0 12 12 12.013 12.013 0 0 0 -12-12z"/><path d="m288 24a80 80 0 0 0 -80 80v24c48 0 128-64 128-64l32 64 16 8v-32a80 80 0 0 0 -80-80z"/></g><path d="m368 128h8a24 24 0 0 1 24 24 24 24 0 0 1 -24 24h-8a0 0 0 0 1 0 0v-48a0 0 0 0 1 0 0z" fill="#fdb683"/><path d="m296 200a24.028 24.028 0 0 1 -24-24h16a8 8 0 0 0 16 0h16a24.028 24.028 0 0 1 -24 24z" fill="#fdb683"/><path d="m264 488h-144v-96l32.727-72h78.546l32.727 72z" fill="#f9a40f"/><path d="m220.468 352h-56.936a16 16 0 0 1 -15.179-10.94l-12.353-37.06v-72l16-8h80l16 8v72l-12.353 37.06a16 16 0 0 1 -15.179 10.94z" fill="#ffb431"/><path d="m136 232-48 32 16 40h32z" fill="#f9a40f"/><path d="m248 232 48 32-16 40h-32z" fill="#f9a40f"/><path d="m184 320h16v32h-16z" fill="#f9a40f"/><path d="m160 264h16v16h-16z" fill="#7a432a"/><path d="m208 264h16v16h-16z" fill="#7a432a"/><path d="m208 320-16 8-16-8v-16h32z" fill="#7a432a"/><path d="m124 488h20l80-8 64 8 16-32 7.068-3.534a16.158 16.158 0 0 0 8.932-14.452 16.159 16.159 0 0 0 -13.873-16l-42.127-6.014-40 16h-100a28 28 0 0 0 -28 28 28 28 0 0 0 28 28z" fill="#fdc8a2"/><path d="m88 408v36a20 20 0 0 0 20 20h20v-32h16v-40h-40a16 16 0 0 0 -16 16z" fill="#f99e0c"/><path d="m184 392a16 16 0 0 0 -16 16v36a20 20 0 0 0 20 20h20v-32h16v-40z" fill="#f99e0c"/><rect fill="#ef9116" height="16" rx="8" width="24" x="120" y="384"/><path d="m168 432a8 8 0 0 1 -8-8v-16a24 24 0 0 1 24-24h32a8 8 0 0 1 8 8 8 8 0 0 1 -8 8h-32a8 8 0 0 0 -8 8v16a8 8 0 0 1 -8 8z" fill="#ef9116"/></g></svg>