<svg height="511pt" viewBox="0 -8 511.99977 511" width="511pt" xmlns="http://www.w3.org/2000/svg"><path d="m367.730469 201.914062c-10.703125 16.882813-16.925781 36.878907-16.925781 58.34375 0 18.660157 4.707031 36.21875 12.96875 51.578126 1.125 2.089843.394531 4.679687-1.652344 5.890624-34.722656 20.457032-53.566406 60.148438-46.878906 100.199219.480468 2.914063-1.953126 5.449219-4.875 5.074219-24.75-3.199219-50.847657 3.203125-72 19.523438-1.578126 1.210937-3.757813 1.210937-5.324219 0-21.03125-16.226563-47.066407-22.746094-72-19.523438-2.925781.375-5.359375-2.160156-4.878907-5.074219 6.945313-41.582031-13.699218-82.800781-50.855468-102.425781-2.234375-1.179688-2.984375-4.027344-1.640625-6.148438 10.714843-16.882812 16.925781-36.878906 16.925781-58.34375 0-18.667968-4.699219-36.21875-12.957031-51.578124-1.128907-2.085938-.398438-4.675782 1.648437-5.886719 34.90625-20.578125 53.527344-60.40625 46.878906-100.203125-.480468-2.914063 1.953126-5.449219 4.878907-5.074219 24.757812 3.199219 50.828125-3.191406 72-19.523437 1.566406-1.210938 3.746093-1.210938 5.324219 0 21.03125 16.226562 47.066406 22.746093 72 19.523437 2.921874-.375 5.355468 2.160156 4.875 5.074219-6.976563 41.78125 13.84375 82.882812 50.859374 102.425781 2.222657 1.179687 2.984376 4.03125 1.628907 6.148437zm0 0" fill="#91aee2"/><g fill="#bacbec"><path d="m135.347656 70.871094c1.675782 3.984375 6.269532 5.859375 10.257813 4.179687 3.984375-1.679687 5.855469-6.269531 4.175781-10.257812l-25.058594-59.5c-1.675781-3.984375-6.265625-5.855469-10.253906-4.175781-3.984375 1.675781-5.855469 6.269531-4.179688 10.253906zm0 0"/><path d="m5.476562 177.488281 76.21875 24.039063c9.988282 3.148437 14.484376-11.855469 4.710938-14.9375l-76.21875-24.039063c-4.128906-1.304687-8.523438.988281-9.824219 5.113281-1.300781 4.121094.988281 8.519532 5.113281 9.824219zm0 0"/><path d="m75.328125 312.550781-72.042969 51.378907c-3.519531 2.511718-4.339844 7.402343-1.828125 10.921874 2.511719 3.519532 7.402344 4.339844 10.921875 1.828126l72.042969-51.375c3.519531-2.511719 4.339844-7.402344 1.828125-10.921876-2.511719-3.519531-7.398438-4.34375-10.921875-1.832031zm0 0"/><path d="m150.882812 435.886719c-4.171874-1.160157-8.484374 1.28125-9.644531 5.445312l-12.527343 45.03125c-1.160157 4.167969 1.277343 8.484375 5.445312 9.644531 4.175781 1.160157 8.484375-1.285156 9.640625-5.445312l12.53125-45.03125c1.160156-4.167969-1.277344-8.484375-5.445313-9.644531zm0 0"/><path d="m130.507812 134.503906-46.464843-30.277344c-3.621094-2.363281-8.472657-1.339843-10.832031 2.285157-2.363282 3.621093-1.339844 8.476562 2.28125 10.835937 50.375 32.828125 47.539062 31.546875 50.730468 31.546875 7.757813 0 10.800782-10.140625 4.285156-14.390625zm0 0"/><path d="m45.941406 247.800781c-4.324218 0-7.832031 3.507813-7.832031 7.832031 0 4.324219 3.507813 7.832032 7.832031 7.832032h40.875c4.324219 0 7.832032-3.507813 7.832032-7.832032 0-4.324218-3.507813-7.832031-7.832032-7.832031zm0 0"/><path d="m122.132812 357.902344c-3.484374-2.554688-8.386718-1.800782-10.941406 1.6875l-19.886718 27.148437c-2.554688 3.488281-1.796876 8.386719 1.691406 10.941407 3.488281 2.554687 8.386718 1.800781 10.945312-1.6875l19.882813-27.148438c2.554687-3.488281 1.800781-8.386719-1.691407-10.941406zm0 0"/></g><path d="m317.582031 191.359375h178.230469c8.90625 0 16.1875 7.28125 16.1875 16.183594v95.824219c0 8.90625-7.28125 16.179687-16.1875 16.179687h-178.230469c-8.902343 0-16.183593-7.273437-16.183593-16.179687v-95.824219c0-8.902344 7.28125-16.183594 16.183593-16.183594zm0 0" fill="#f2bb88"/><path d="m317.585938 191.355469h178.226562c8.902344 0 16.183594 7.28125 16.183594 16.183593v71.109376c0 8.90625-7.28125 16.183593-16.183594 16.183593h-178.226562c-8.90625 0-16.183594-7.277343-16.183594-16.183593v-71.109376c-.003906-8.902343 7.277344-16.183593 16.183594-16.183593zm0 0" fill="#f2d1a5"/><path d="m281.929688 202.039062h68.878906c34.1875 0 62.160156 27.972657 62.160156 62.160157v18.585937c0 40.3125-32.984375 73.292969-73.296875 73.292969h-57.742187zm0 0" fill="#f2d1a5"/><path d="m299.175781 202.039062h51.636719c34.1875 0 62.15625 27.96875 62.15625 62.152344v5.859375c-.007812.0625-.007812.09375-.007812.09375v11.921875c0 5.335938-4.835938 9.371094-10.085938 8.417969l-49.558594-9.007813c-9.238281-1.679687-18.035156-5.375-25.480468-11.09375-24.210938-18.589843-26.015626-49.636718-26.015626-49.636718s-1.226562-7.6875-2.644531-18.707032zm0 0" fill="#f2bb88"/><path d="m252.101562 315.621094h33.367188c9.058594 0 16.464844 7.410156 16.464844 16.464844v7.535156c0 9.054687-7.410156 16.464844-16.464844 16.464844h-33.367188c-6.316406 0-11.832031-3.609376-14.582031-8.867188-2.304687-4.363281-1.882812-7.363281-1.882812-15.132812 0-9.058594 7.410156-16.464844 16.464843-16.464844zm0 0" fill="#f2bb88"/><path d="m240.390625 275.066406h45.5625c10.085937 0 18.332031 8.246094 18.332031 18.332032v3.792968c0 10.085938-8.246094 18.335938-18.332031 18.335938h-45.5625c-6.621094 0-12.453125-3.558594-15.675781-8.859375-3.007813-4.949219-2.65625-8.960938-2.65625-13.269531 0-10.085938 8.246094-18.332032 18.332031-18.332032zm0 0" fill="#f2bb88"/><path d="m232.003906 234.585938h52.925782c10.652343 0 19.355468 8.710937 19.355468 19.355468v1.753906c0 10.644532-8.703125 19.359376-19.355468 19.359376h-52.925782c-10.671875 0-19.355468-8.742188-19.355468-19.359376v-1.753906c0-10.640625 8.710937-19.355468 19.355468-19.355468zm0 0" fill="#f2bb88"/><path d="m226.773438 194.121094h57.554687c10.980469 0 19.957031 8.984375 19.957031 19.964844v.535156c0 10.980468-8.976562 19.964844-19.957031 19.964844h-57.554687c-10.34375 0-19.964844-8.15625-19.964844-20.5 0-10.980469 8.984375-19.964844 19.964844-19.964844zm0 0" fill="#f2bb88"/><path d="m252.101562 315.621094h25.488282c1.203125 2.273437 1.882812 4.859375 1.882812 7.597656v7.539062c0 9.054688-7.410156 16.460938-16.457031 16.460938h-25.496094c-2.304687-4.363281-1.882812-7.363281-1.882812-15.132812 0-9.058594 7.410156-16.464844 16.464843-16.464844zm0 0" fill="#f2d1a5"/><path d="m240.390625 275.066406h38.777344c1.683593 2.769532 2.65625 6.011719 2.65625 9.472656v3.789063c0 10.082031-8.25 18.339844-18.335938 18.339844h-38.773437c-3.007813-4.953125-2.65625-8.964844-2.65625-13.269531 0-10.085938 8.246094-18.332032 18.332031-18.332032zm0 0" fill="#f2d1a5"/><path d="m232.003906 234.585938h46.710938c1.964844 3.03125 3.109375 6.636718 3.109375 10.492187v1.753906c0 10.644531-8.707031 19.355469-19.359375 19.355469h-46.703125c-7.761719-11.914062-.855469-31.601562 16.242187-31.601562zm0 0" fill="#f2d1a5"/><path d="m226.773438 194.121094h51.65625c2.140624 3.175781 3.394531 7.003906 3.394531 11.101562v.539063c0 10.976562-8.980469 19.960937-19.960938 19.960937h-51.664062c-8.589844-12.746094-.097657-31.601562 16.574219-31.601562zm0 0" fill="#f2d1a5"/><path d="m248.441406 194.121094h29.988282c2.140624 3.175781 3.394531 7.003906 3.394531 11.101562v.539063c0 10.976562-8.980469 19.960937-19.960938 19.960937h-19.285156c-3.289063-2.542968-5.046875-6.410156-5.046875-10.332031 0-2.566406.75-5.148437 2.3125-7.402344l3.914062-5.628906zm0 0" fill="#f2bb88"/><path d="m294.679688 154.910156c-11.929688 0-23.105469 5.84375-29.914063 15.640625-21.402344 30.804688-21.621094 30.015625-21.621094 34.882813 0 3.8125 1.800781 7.574218 5.15625 9.910156 11.332031 7.871094 27.046875 5.042969 34.917969-6.285156 9.910156-10.902344 5.683594-6.242188 7.179688-7.96875 3.09375-3.5625 9.027343-1.582032 9.710937 3.085937 1.335937 9.125 9.039063 28.957031 31.273437 43.578125 6.621094 4.355469 14.140626 7.15625 21.9375 8.574219l37.828126 6.875c11.355468 2.0625 21.808593-6.660156 21.808593-18.203125 0-49.558594-40.546875-90.109375-90.105469-90.109375h-13.128906s-15.042968.019531-15.042968.019531zm0 0" fill="#f2d1a5"/><path d="m412.96875 271.664062v11.121094c0 40.3125-32.984375 73.292969-73.296875 73.292969h-46.621094c-6.140625 0-11.121093-4.976563-11.121093-11.117187 0-6.144532 4.980468-11.121094 11.121093-11.121094h57.734375c34.203125 0 62.183594-27.980469 62.183594-62.175782zm0 0" fill="#f2bb88"/></svg>