<?xml version="1.0" encoding="UTF-8" standalone="no" ?>
<!DOCTYPE svg PUBLIC "-//W3C//DTD SVG 1.1//EN" "http://www.w3.org/Graphics/SVG/1.1/DTD/svg11.dtd">
<svg xmlns="http://www.w3.org/2000/svg" xmlns:xlink="http://www.w3.org/1999/xlink" version="1.1" width="720" height="720" viewBox="0 0 720 720" xml:space="preserve">
<desc>Created with Fabric.js 4.2.0</desc>
<defs>
</defs>
<rect x="0" y="0" width="100%" height="100%" fill="transparent"></rect>
<g transform="matrix(1 0 0 1 360 360)" id="088ff5e9-cec8-4b99-9d85-4d7f1d684ffe"  >
<rect style="stroke: none; stroke-width: 1; stroke-dasharray: none; stroke-linecap: butt; stroke-dashoffset: 0; stroke-linejoin: miter; stroke-miterlimit: 4; fill: rgb(255,255,255); fill-opacity: 0; fill-rule: nonzero; opacity: 1;" vector-effect="non-scaling-stroke"  x="-360" y="-360" rx="0" ry="0" width="720" height="720" />
</g>
<g transform="matrix(0 0 0 0 0 0)" id="10e72e25-f349-42f5-adff-9246252ebd1e"  >
</g>
<g transform="matrix(3.61 0 0 3.61 624 600.86)" style="filter: url(#SVGID_1503);" id="f42727bd-bc40-4e3b-832d-5e77afda711c"  >
<filter id="SVGID_1503" y="-46%" height="192%" x="-54%" width="208%" >
	<feGaussianBlur in="SourceAlpha" stdDeviation="7.5"></feGaussianBlur>
	<feOffset dx="0" dy="0" result="oBlur" ></feOffset>
	<feFlood flood-color="rgb(255,255,0)" flood-opacity="1"/>
	<feComposite in2="oBlur" operator="in" />
	<feMerge>
		<feMergeNode></feMergeNode>
		<feMergeNode in="SourceGraphic"></feMergeNode>
	</feMerge>
</filter>
		<rect opacity="0" fill="rgb(0,0,0)" x="-22.39" y="-28.81" width="44.77" height="57.63"></rect>
		<text xml:space="preserve" font-family="Lato" font-size="51" font-style="normal" font-weight="400" style="stroke: none; stroke-width: 1; stroke-dasharray: none; stroke-linecap: butt; stroke-dashoffset: 0; stroke-linejoin: miter; stroke-miterlimit: 4; fill: rgb(85,85,255); fill-rule: nonzero; opacity: 1; white-space: pre;" ><tspan x="-17.47" y="16.02" >C</tspan></text>
</g>
<g transform="matrix(1.35 0 0 1.35 358.68 358.68)"  >
<g style="" vector-effect="non-scaling-stroke"   >
		<g transform="matrix(1 0 0 1 -50.77 50.78)"  >
<path style="stroke: none; stroke-width: 1; stroke-dasharray: none; stroke-linecap: butt; stroke-dashoffset: 0; stroke-linejoin: miter; stroke-miterlimit: 4; fill: rgb(255,243,108); fill-rule: nonzero; opacity: 1;" vector-effect="non-scaling-stroke"  transform=" translate(-205.27, -306.83)" d="M 359.91 194.614 L 317.483 152.188 C 311.626 146.32999999999998 302.128 146.32999999999998 296.27 152.188 L 46.232999999999976 402.225 L 109.87199999999999 465.86400000000003 L 359.90999999999997 215.82700000000003 C 362.72299999999996 213.01400000000004 364.304 209.199 364.304 205.22100000000003 C 364.304 201.24200000000002 362.72299999999996 197.42700000000002 359.90999999999997 194.61400000000003 z" stroke-linecap="round" />
</g>
		<g transform="matrix(1 0 0 1 -34.86 63.58)"  >
<path style="stroke: none; stroke-width: 1; stroke-dasharray: none; stroke-linecap: butt; stroke-dashoffset: 0; stroke-linejoin: miter; stroke-miterlimit: 4; fill: rgb(255,222,70); fill-rule: nonzero; opacity: 1;" vector-effect="non-scaling-stroke"  transform=" translate(-221.18, -319.63)" d="M 338.697 173.402 L 78.053 434.046 L 109.872 465.865 L 359.91 215.827 C 362.723 213.014 364.30400000000003 209.199 364.30400000000003 205.221 C 364.30400000000003 201.242 362.723 197.428 359.91 194.615 z" stroke-linecap="round" />
</g>
		<g transform="matrix(1 0 0 1 142.85 -142.83)"  >
<path style="stroke: none; stroke-width: 1; stroke-dasharray: none; stroke-linecap: butt; stroke-dashoffset: 0; stroke-linejoin: miter; stroke-miterlimit: 4; fill: rgb(255,99,123); fill-rule: nonzero; opacity: 1;" vector-effect="non-scaling-stroke"  transform=" translate(-398.92, -113.19)" d="M 401.158 207.427 C 390.00300000000004 207.427 378.848 203.18099999999998 370.357 194.689 L 317.41 141.742 C 309.204 133.53699999999998 304.685 122.597 304.685 110.94 C 304.685 99.283 309.204 88.34299999999999 317.41 80.138 L 365.87800000000004 31.67 C 374.083 23.464000000000002 385.02200000000005 18.945 396.68000000000006 18.945 C 408.3380000000001 18.945 419.27700000000004 23.464 427.4820000000001 31.67 L 443.34800000000007 47.536 L 437.13700000000006 75.938 L 464.56100000000004 68.749 L 480.42900000000003 84.61699999999999 C 488.63500000000005 92.82199999999999 493.15400000000005 103.761 493.15400000000005 115.41899999999998 C 493.15400000000005 127.07599999999998 488.63500000000005 138.016 480.42900000000003 146.22099999999998 L 431.96000000000004 194.68999999999997 C 423.468 203.18099999999998 412.31300000000005 207.42699999999996 401.158 207.42699999999996 z" stroke-linecap="round" />
</g>
		<g transform="matrix(1 0 0 1 162.44 -117.94)"  >
<path style="stroke: none; stroke-width: 1; stroke-dasharray: none; stroke-linecap: butt; stroke-dashoffset: 0; stroke-linejoin: miter; stroke-miterlimit: 4; fill: rgb(255,0,89); fill-rule: nonzero; opacity: 1;" vector-effect="non-scaling-stroke"  transform=" translate(-418.52, -138.09)" d="M 464.561 68.749 L 437.137 75.93799999999999 L 437.41 74.689 L 343.88300000000004 168.216 L 370.35600000000005 194.68900000000002 C 378.84800000000007 203.181 390.00200000000007 207.42700000000002 401.15700000000004 207.42700000000002 C 412.312 207.42700000000002 423.46700000000004 203.181 431.95900000000006 194.68900000000002 L 480.42800000000005 146.22000000000003 C 488.63400000000007 138.01500000000001 493.1530000000001 127.07500000000003 493.1530000000001 115.41800000000003 C 493.1530000000001 103.76000000000003 488.63400000000007 92.82100000000003 480.42800000000005 84.61600000000004 z" stroke-linecap="round" />
</g>
		<g transform="matrix(1 0 0 1 216.26 -216.25)"  >
<path style="stroke: none; stroke-width: 1; stroke-dasharray: none; stroke-linecap: butt; stroke-dashoffset: 0; stroke-linejoin: miter; stroke-miterlimit: 4; fill: rgb(253,191,0); fill-rule: nonzero; opacity: 1;" vector-effect="non-scaling-stroke"  transform=" translate(-472.34, -39.76)" d="M 501.331 31.98 L 507.696 25.615000000000002 C 513.554 19.757 513.554 10.260000000000002 507.696 4.402000000000001 C 501.839 -1.4559999999999986 492.341 -1.4559999999999986 486.483 4.402000000000001 L 480.118 10.767000000000001 L 475.875 6.524000000000001 C 470.018 0.6660000000000013 460.52 0.6660000000000013 454.662 6.524000000000001 C 448.804 12.382000000000001 448.804 21.879 454.662 27.737000000000002 L 458.905 31.980000000000004 L 436.98499999999996 53.900000000000006 C 431.12699999999995 59.758 431.12699999999995 69.25500000000001 436.98499999999996 75.113 C 439.91399999999993 78.042 443.75299999999993 79.507 447.59099999999995 79.507 C 451.429 79.507 455.26899999999995 78.043 458.19699999999995 75.113 L 480.11699999999996 53.193 L 484.35999999999996 57.436 C 487.28899999999993 60.365 491.12799999999993 61.83 494.96599999999995 61.83 C 498.804 61.83 502.64399999999995 60.366 505.57199999999995 57.436 C 511.42999999999995 51.578 511.42999999999995 42.081 505.57199999999995 36.223 z" stroke-linecap="round" />
</g>
		<g transform="matrix(1 0 0 1 -199.21 199.21)"  >
<path style="stroke: none; stroke-width: 1; stroke-dasharray: none; stroke-linecap: butt; stroke-dashoffset: 0; stroke-linejoin: miter; stroke-miterlimit: 4; fill: rgb(253,191,0); fill-rule: nonzero; opacity: 1;" vector-effect="non-scaling-stroke"  transform=" translate(-56.8, -455.28)" d="M 49.969 398.489 L 13.158999999999999 435.299 C -4.386000000000003 452.844 -4.386000000000003 481.392 13.158999999999999 498.938 C 21.634999999999998 507.414 32.936 512.081 44.983000000000004 512.08 C 57.026 512.0790000000001 68.32600000000001 507.41200000000003 76.799 498.93800000000005 L 113.608 462.129 z" stroke-linecap="round" />
</g>
		<g transform="matrix(1 0 0 1 45.17 -45.16)"  >
<path style="stroke: none; stroke-width: 1; stroke-dasharray: none; stroke-linecap: butt; stroke-dashoffset: 0; stroke-linejoin: miter; stroke-miterlimit: 4; fill: rgb(253,191,0); fill-rule: nonzero; opacity: 1;" vector-effect="non-scaling-stroke"  transform=" translate(-301.22, -210.88)" d="M 310.412 277.497 C 306.573 277.497 302.73499999999996 276.033 299.806 273.103 L 238.99499999999998 212.291 C 233.13699999999997 206.433 233.13699999999997 196.936 238.99499999999998 191.078 L 281.421 148.652 C 287.278 142.79399999999998 296.776 142.79399999999998 302.634 148.652 L 363.446 209.464 C 366.259 212.277 367.84000000000003 216.09199999999998 367.84000000000003 220.07 C 367.84000000000003 224.049 366.259 227.863 363.446 230.676 L 321.019 273.102 C 318.09000000000003 276.032 314.25100000000003 277.49699999999996 310.41200000000003 277.49699999999996 z" stroke-linecap="round" />
</g>
		<g transform="matrix(1 0 0 1 112.82 -112.81)"  >
<path style="stroke: none; stroke-width: 1; stroke-dasharray: none; stroke-linecap: butt; stroke-dashoffset: 0; stroke-linejoin: miter; stroke-miterlimit: 4; fill: rgb(255,222,70); fill-rule: nonzero; opacity: 1;" vector-effect="non-scaling-stroke"  transform=" translate(-368.89, -143.21)" d="M 428.611 165.059 L 419.807 163.298 C 415.769 162.49 412.333 160.182 410.13100000000003 156.798 C 407.93 153.41400000000002 407.21200000000005 149.336 408.11 145.318 L 413.902 119.40800000000002 L 464.561 68.74900000000002 L 443.34799999999996 47.53600000000002 L 392.60699999999997 98.27700000000002 L 367.195 104.32700000000001 C 363.185 105.28200000000001 359.09999999999997 104.61900000000001 355.687 102.46500000000002 C 352.272 100.31000000000002 349.916 96.90500000000002 349.05400000000003 92.87900000000002 L 346.99800000000005 83.28700000000002 C 345.84700000000004 77.91400000000002 341.84900000000005 73.60000000000002 336.57900000000006 72.04400000000003 C 331.3090000000001 70.48500000000003 325.60900000000004 71.93800000000003 321.72400000000005 75.82300000000002 L 286.37100000000004 111.17700000000002 C 268.826 128.72200000000004 268.826 157.27000000000004 286.37100000000004 174.81600000000003 L 337.283 225.72800000000004 C 346.055 234.50000000000003 357.579 238.88600000000002 369.10200000000003 238.88600000000002 C 380.62500000000006 238.88600000000002 392.14900000000006 234.50000000000003 400.922 225.72700000000003 L 436.27500000000003 190.37400000000002 C 440.187 186.46200000000002 441.62800000000004 180.71600000000004 440.02500000000003 175.42100000000002 C 438.422 170.126 434.03600000000006 166.14400000000003 428.61100000000005 165.05900000000003 z" stroke-linecap="round" />
</g>
		<g transform="matrix(1 0 0 1 218.45 -214.05)"  >
<path style="stroke: none; stroke-width: 1; stroke-dasharray: none; stroke-linecap: butt; stroke-dashoffset: 0; stroke-linejoin: miter; stroke-miterlimit: 4; fill: rgb(255,145,0); fill-rule: nonzero; opacity: 1;" vector-effect="non-scaling-stroke"  transform=" translate(-474.54, -41.96)" d="M 507.696 4.404 L 436.98600000000005 75.11399999999999 C 439.915 78.04299999999999 443.75300000000004 79.50699999999999 447.59200000000004 79.50699999999999 C 451.43100000000004 79.50699999999999 455.27000000000004 78.04299999999999 458.19800000000004 75.11299999999999 L 480.11800000000005 53.192999999999984 L 484.36100000000005 57.435999999999986 C 487.29 60.36499999999999 491.129 61.829999999999984 494.96700000000004 61.829999999999984 C 498.80500000000006 61.829999999999984 502.64500000000004 60.365999999999985 505.57300000000004 57.435999999999986 C 511.43100000000004 51.57799999999999 511.43100000000004 42.08099999999999 505.57300000000004 36.222999999999985 L 501.33000000000004 31.979999999999983 L 507.69500000000005 25.61499999999998 C 513.553 19.75799999999998 513.553 10.260999999999981 507.696 4.403999999999982 z" stroke-linecap="round" />
</g>
		<g transform="matrix(1 0 0 1 62.57 -27.76)"  >
<path style="stroke: none; stroke-width: 1; stroke-dasharray: none; stroke-linecap: butt; stroke-dashoffset: 0; stroke-linejoin: miter; stroke-miterlimit: 4; fill: rgb(255,145,0); fill-rule: nonzero; opacity: 1;" vector-effect="non-scaling-stroke"  transform=" translate(-318.62, -228.28)" d="M 333.041 179.059 L 269.402 242.698 L 299.807 273.103 C 302.736 276.032 306.574 277.497 310.413 277.497 C 314.25100000000003 277.497 318.091 276.03200000000004 321.019 273.103 L 363.446 230.67700000000002 C 366.259 227.86400000000003 367.84000000000003 224.04900000000004 367.84000000000003 220.07100000000003 C 367.84000000000003 216.09300000000002 366.259 212.27800000000002 363.446 209.46500000000003 z" stroke-linecap="round" />
</g>
		<g transform="matrix(1 0 0 1 132.13 -107.51)"  >
<path style="stroke: none; stroke-width: 1; stroke-dasharray: none; stroke-linecap: butt; stroke-dashoffset: 0; stroke-linejoin: miter; stroke-miterlimit: 4; fill: rgb(255,205,0); fill-rule: nonzero; opacity: 1;" vector-effect="non-scaling-stroke"  transform=" translate(-388.19, -148.51)" d="M 413.902 119.407 L 464.561 68.74799999999999 L 453.95599999999996 58.14299999999999 L 311.827 200.272 L 337.283 225.72799999999998 C 346.055 234.49999999999997 357.579 238.88599999999997 369.10200000000003 238.88599999999997 C 380.62500000000006 238.88599999999997 392.14900000000006 234.49999999999997 400.922 225.72699999999998 L 436.27500000000003 190.37399999999997 C 440.187 186.46199999999996 441.62800000000004 180.71599999999998 440.02500000000003 175.42099999999996 C 438.422 170.12599999999995 434.035 166.14399999999998 428.61100000000005 165.05899999999997 L 419.8070000000001 163.29799999999997 C 415.76900000000006 162.48999999999998 412.3330000000001 160.18199999999996 410.1310000000001 156.79799999999997 C 407.93000000000006 153.414 407.2120000000001 149.33599999999998 408.11000000000007 145.31799999999998 z" stroke-linecap="round" />
</g>
		<g transform="matrix(1 0 0 1 -192.63 215.11)"  >
<path style="stroke: none; stroke-width: 1; stroke-dasharray: none; stroke-linecap: butt; stroke-dashoffset: 0; stroke-linejoin: miter; stroke-miterlimit: 4; fill: rgb(255,145,0); fill-rule: nonzero; opacity: 1;" vector-effect="non-scaling-stroke"  transform=" translate(-63.38, -471.2)" d="M 13.16 498.939 C 21.634999999999998 507.41400000000004 32.937 512.08 44.983000000000004 512.08 C 57.026 512.0790000000001 68.32600000000001 507.41200000000003 76.799 498.93800000000005 L 113.608 462.129 L 81.789 430.31 z" stroke-linecap="round" />
</g>
</g>
</g>
</svg>