<?xml version="1.0" encoding="iso-8859-1"?>
<!-- Generator: Adobe Illustrator 19.0.0, SVG Export Plug-In . SVG Version: 6.00 Build 0)  -->
<svg version="1.1" id="Capa_1" xmlns="http://www.w3.org/2000/svg" xmlns:xlink="http://www.w3.org/1999/xlink" x="0px" y="0px"
	 viewBox="0 0 455.111 455.111" style="enable-background:new 0 0 455.111 455.111;" xml:space="preserve">
<path style="fill:#E24C4B;" d="M455.111,164.089c0,137.956-163.556,228.978-213.333,253.156c-8.533,4.267-19.911,4.267-28.444,0
	C163.556,393.067,0,304.889,0,164.089C0,92.978,52.622,34.667,116.622,34.667c51.2,0,93.867,35.556,109.511,85.333
	c15.644-49.778,59.733-85.333,109.511-85.333C402.489,34.667,455.111,92.978,455.111,164.089z"/>
<path style="fill:#D1403F;" d="M455.111,164.089c0,137.956-163.556,228.978-213.333,253.156c-8.533,4.267-19.911,4.267-29.867,0
	c-22.756-9.956-65.422-34.133-108.089-68.267h1.422c135.111,0,243.2-109.511,243.2-243.2c0-24.178-4.267-48.356-11.378-71.111
	C403.911,36.089,455.111,92.978,455.111,164.089z"/>
<g style="opacity:0.2;">
	<path style="fill:#FFFFFF;" d="M109.511,142.756c-22.756,5.689-44.089-2.844-48.356-18.489
		C58.311,107.2,72.533,90.133,95.289,84.444s44.089,2.844,48.356,18.489C147.911,120,132.267,137.067,109.511,142.756z"/>
</g>
<g>
</g>
<g>
</g>
<g>
</g>
<g>
</g>
<g>
</g>
<g>
</g>
<g>
</g>
<g>
</g>
<g>
</g>
<g>
</g>
<g>
</g>
<g>
</g>
<g>
</g>
<g>
</g>
<g>
</g>
</svg>
