<?xml version="1.0" encoding="UTF-8" standalone="no" ?>
<!DOCTYPE svg PUBLIC "-//W3C//DTD SVG 1.1//EN" "http://www.w3.org/Graphics/SVG/1.1/DTD/svg11.dtd">
<svg xmlns="http://www.w3.org/2000/svg" xmlns:xlink="http://www.w3.org/1999/xlink" version="1.1" width="720" height="720" viewBox="0 0 720 720" xml:space="preserve">
<desc>Created with Fabric.js 4.2.0</desc>
<defs>
</defs>
<rect x="0" y="0" width="100%" height="100%" fill="transparent"></rect>
<g transform="matrix(1 0 0 1 360 360)" id="088ff5e9-cec8-4b99-9d85-4d7f1d684ffe"  >
<rect style="stroke: none; stroke-width: 1; stroke-dasharray: none; stroke-linecap: butt; stroke-dashoffset: 0; stroke-linejoin: miter; stroke-miterlimit: 4; fill: rgb(255,255,255); fill-opacity: 0; fill-rule: nonzero; opacity: 1;" vector-effect="non-scaling-stroke"  x="-360" y="-360" rx="0" ry="0" width="720" height="720" />
</g>
<g transform="matrix(0 0 0 0 0 0)" id="10e72e25-f349-42f5-adff-9246252ebd1e"  >
</g>
<g transform="matrix(1.35 0 0 1.35 360.87 360.87)"  >
<g style="" vector-effect="non-scaling-stroke"   >
		<g transform="matrix(1 0 0 1 -100.03 -60.8)"  >
<path style="stroke: none; stroke-width: 1; stroke-dasharray: none; stroke-linecap: butt; stroke-dashoffset: 0; stroke-linejoin: miter; stroke-miterlimit: 4; fill: rgb(128,222,234); fill-rule: nonzero; opacity: 1;" vector-effect="non-scaling-stroke"  transform=" translate(-155.97, -195.2)" d="M 180.931 219 C 179.4186930202313 219.00025126588832 177.93759070398409 218.56979506577994 176.661 217.759 L 126.723 186.164 C 122.98900280639401 183.80187812497368 121.8768781249737 178.85999719360598 124.239 175.126 C 126.6011218750263 171.392002806394 131.543002806394 170.2798781249737 135.277 172.642 L 185.21599999999998 204.242 C 188.22375396486882 206.14745404099614 189.610223966025 209.81137292451587 188.61742365999424 213.23068375681495 C 187.6246233539635 216.64999458911407 184.49152472055863 219.00165221778258 180.93099999999998 219 z" stroke-linecap="round" />
</g>
		<g transform="matrix(1 0 0 1 -100.03 58.7)"  >
<path style="stroke: none; stroke-width: 1; stroke-dasharray: none; stroke-linecap: butt; stroke-dashoffset: 0; stroke-linejoin: miter; stroke-miterlimit: 4; fill: rgb(128,222,234); fill-rule: nonzero; opacity: 1;" vector-effect="non-scaling-stroke"  transform=" translate(-155.97, -314.7)" d="M 131.007 337.4 C 127.39349527085409 337.40748573490947 124.22357098308345 334.9917189532932 123.27249599840157 331.5056138433891 C 122.32142101371967 328.019508733485 123.82533772981867 324.3286302954439 126.94200000000001 322.5 L 176.88 293.1 C 179.34513257036633 291.64950170497286 182.39684062928993 291.6243185785151 184.8855752861126 293.0339368606352 C 187.3743099429353 294.4435551427553 188.92197319965626 297.073820283488 188.94557528611264 299.9339368606352 C 188.969177372569 302.79405343778245 187.46513257036634 305.4495017049729 185 306.90000000000003 L 135.061 336.3 C 133.8324392895128 337.0228138949596 132.43241716743984 337.4026916291185 131.007 337.40000000000003 z" stroke-linecap="round" />
</g>
		<g transform="matrix(1 0 0 1 0 -104)"  >
<path style="stroke: none; stroke-width: 1; stroke-dasharray: none; stroke-linecap: butt; stroke-dashoffset: 0; stroke-linejoin: miter; stroke-miterlimit: 4; fill: rgb(128,222,234); fill-rule: nonzero; opacity: 1;" vector-effect="non-scaling-stroke"  transform=" translate(-256, -152)" d="M 256 184 C 251.58172200135365 184 248 180.41827799864635 248 176 L 248 128 C 248 123.58172200135365 251.58172200135365 120 256 120 C 260.4182779986464 120 264 123.58172200135365 264 128 L 264 176 C 264 180.41827799864635 260.4182779986464 184 256 184 z" stroke-linecap="round" />
</g>
		<g transform="matrix(1 0 0 1 109.74 73.81)"  >
<path style="stroke: none; stroke-width: 1; stroke-dasharray: none; stroke-linecap: butt; stroke-dashoffset: 0; stroke-linejoin: miter; stroke-miterlimit: 4; fill: rgb(128,222,234); fill-rule: nonzero; opacity: 1;" vector-effect="non-scaling-stroke"  transform=" translate(-365.73, -329.81)" d="M 358.678 374.194 C 355.4959777311885 374.1951449959106 352.6158087839225 372.31037186068545 351.343 369.394 L 322.44300000000004 303.207 C 321.4147923216326 300.8524030996893 321.5800576814563 298.147244433 322.8872461405413 295.9353231131422 C 324.19443459962633 293.72340179328444 326.48445534202443 292.2739187645778 329.04300000000006 292.039 L 400.96400000000006 285.45 C 405.364052601902 285.04683213262354 409.2578321326236 288.28694739809805 409.66100000000006 292.687 C 410.0641678673765 297.087052601902 406.824052601902 300.98083213262356 402.42400000000004 301.384 L 341.54 306.96000000000004 L 366.00600000000003 362.99100000000004 C 367.0818098321199 365.4636954973465 366.8405549681224 368.31184382412636 365.3641538467181 370.5683520882813 C 363.8877527253139 372.82486035243625 361.3745848443369 374.1865284481067 358.67800000000005 374.19100000000003 z" stroke-linecap="round" />
</g>
		<g transform="matrix(1 0 0 1 -111.02 73.81)"  >
<path style="stroke: none; stroke-width: 1; stroke-dasharray: none; stroke-linecap: butt; stroke-dashoffset: 0; stroke-linejoin: miter; stroke-miterlimit: 4; fill: rgb(128,222,234); fill-rule: nonzero; opacity: 1;" vector-effect="non-scaling-stroke"  transform=" translate(-144.98, -329.81)" d="M 152.033 374.194 C 149.33536694434656 374.192273380701 146.82026991382747 372.8311142203352 145.34343775935946 370.5736391104619 C 143.86660560489142 368.31616400058857 143.62694600415315 365.46642180022246 144.706 362.994 L 169.172 306.963 L 108.288 301.386 C 103.88794739809806 300.98283213262357 100.6478321326235 297.0890526019019 101.05099999999999 292.689 C 101.45416786737646 288.28894739809806 105.34794739809806 285.04883213262355 109.74799999999999 285.452 L 181.668 292.041 C 184.22654465797564 292.27591876457785 186.5165654003737 293.72540179328445 187.82375385945872 295.93732311314227 C 189.13094231854373 298.14924443300004 189.29620767836747 300.85440309968936 188.268 303.209 L 159.368 369.396 C 158.0945860180621 372.31158921140025 155.21454701252162 374.19549202647636 152.033 374.194 z" stroke-linecap="round" />
</g>
		<g transform="matrix(1 0 0 1 109.74 -74.76)"  >
<path style="stroke: none; stroke-width: 1; stroke-dasharray: none; stroke-linecap: butt; stroke-dashoffset: 0; stroke-linejoin: miter; stroke-miterlimit: 4; fill: rgb(128,222,234); fill-rule: nonzero; opacity: 1;" vector-effect="non-scaling-stroke"  transform=" translate(-365.73, -181.24)" d="M 401.7 225.584 Q 401.33299999999997 225.584 400.961 225.55100000000002 L 329.04 218.96200000000002 C 326.4814553420244 218.7270812354222 324.1914345996263 217.27759820671557 322.8842461405413 215.06567688685777 C 321.57705768145627 212.853755567 321.41179232163256 210.14859690031068 322.44 207.794 L 351.34 141.60700000000003 C 353.14032055206854 137.6129449728264 357.8183037718486 135.80989818463627 361.83355118852074 137.56244428480005 C 365.8487986051929 139.31499038496383 367.70752223701436 143.97113161837322 366.003 148.00700000000003 L 341.53999999999996 204.04000000000002 L 402.424 209.61700000000002 C 406.68242624451085 210.0049833870179 409.8828780744697 213.67316745918865 409.6899862419772 217.9448788175904 C 409.4970944094847 222.21659017599217 405.9790634247417 225.58139690054594 401.703 225.58400000000003 z" stroke-linecap="round" />
</g>
		<g transform="matrix(1 0 0 1 -111.02 -74.76)"  >
<path style="stroke: none; stroke-width: 1; stroke-dasharray: none; stroke-linecap: butt; stroke-dashoffset: 0; stroke-linejoin: miter; stroke-miterlimit: 4; fill: rgb(128,222,234); fill-rule: nonzero; opacity: 1;" vector-effect="non-scaling-stroke"  transform=" translate(-144.98, -181.24)" d="M 109.008 225.584 C 104.73212754727862 225.58086643884062 101.21460016456473 222.2159129600596 101.02198390927954 217.944379976534 C 100.82936765399437 213.67284699300845 104.02976322946124 210.00496218524324 108.288 209.617 L 169.172 204.04 L 144.706 148.009 C 143.00147776298564 143.97313161837317 144.86020139480712 139.3169903849638 148.87544881147923 137.5644442848 C 152.89069622815134 135.81189818463622 157.56867944793143 137.61494497282635 159.369 141.60899999999998 L 188.269 207.796 C 189.29720767836747 210.15059690031066 189.13194231854374 212.85575556699996 187.82475385945872 215.06767688685775 C 186.5175654003737 217.27959820671555 184.22754465797564 218.72908123542217 181.669 218.964 L 109.74900000000001 225.553 C 109.50000000000001 225.573 109.25300000000001 225.584 109.00800000000001 225.584 z" stroke-linecap="round" />
</g>
		<g transform="matrix(1 0 0 1 -108 0.33)"  >
<path style="stroke: none; stroke-width: 1; stroke-dasharray: none; stroke-linecap: butt; stroke-dashoffset: 0; stroke-linejoin: miter; stroke-miterlimit: 4; fill: rgb(128,222,234); fill-rule: nonzero; opacity: 1;" vector-effect="non-scaling-stroke"  transform=" translate(-148, -256.33)" d="M 168 264.333 L 128 264.333 C 123.58172200135365 264.333 120 260.7512779986464 120 256.333 C 120 251.91472200135368 123.58172200135365 248.33300000000003 128 248.33300000000003 L 168 248.33300000000003 C 172.41827799864635 248.33300000000003 176 251.91472200135368 176 256.333 C 176 260.7512779986464 172.41827799864635 264.333 168 264.333 z" stroke-linecap="round" />
</g>
		<g transform="matrix(1 0 0 1 108 0.33)"  >
<path style="stroke: none; stroke-width: 1; stroke-dasharray: none; stroke-linecap: butt; stroke-dashoffset: 0; stroke-linejoin: miter; stroke-miterlimit: 4; fill: rgb(128,222,234); fill-rule: nonzero; opacity: 1;" vector-effect="non-scaling-stroke"  transform=" translate(-364, -256.33)" d="M 384 264.333 L 344 264.333 C 339.5817220013536 264.333 336 260.7512779986464 336 256.333 C 336 251.91472200135368 339.5817220013536 248.33300000000003 344 248.33300000000003 L 384 248.33300000000003 C 388.4182779986464 248.33300000000003 392 251.91472200135368 392 256.333 C 392 260.7512779986464 388.4182779986464 264.333 384 264.333 z" stroke-linecap="round" />
</g>
		<g transform="matrix(1 0 0 1 -58.78 -105.55)"  >
<path style="stroke: none; stroke-width: 1; stroke-dasharray: none; stroke-linecap: butt; stroke-dashoffset: 0; stroke-linejoin: miter; stroke-miterlimit: 4; fill: rgb(128,222,234); fill-rule: nonzero; opacity: 1;" vector-effect="non-scaling-stroke"  transform=" translate(-197.22, -150.45)" d="M 212.224 184 C 209.38350952298256 184.00259796934486 206.75464265591884 182.49881152200612 205.31699999999998 180.049 L 175.31699999999998 128.949 C 173.08024676318527 125.13823522616754 174.3562352261675 120.23575323681473 178.16699999999997 117.99900000000001 C 181.97776477383246 115.7622467631853 186.88024676318528 117.03823522616754 189.117 120.84900000000002 L 219.117 171.949 C 220.5691251288108 174.42184351593718 220.58658798355327 177.48277875038076 219.16277195915754 179.9720297165773 C 217.73895593476183 182.46128068277386 215.09168522483665 183.99802635110225 212.224 184 z" stroke-linecap="round" />
</g>
		<g transform="matrix(1 0 0 1 58.79 105.55)"  >
<path style="stroke: none; stroke-width: 1; stroke-dasharray: none; stroke-linecap: butt; stroke-dashoffset: 0; stroke-linejoin: miter; stroke-miterlimit: 4; fill: rgb(128,222,234); fill-rule: nonzero; opacity: 1;" vector-effect="non-scaling-stroke"  transform=" translate(-314.79, -361.55)" d="M 329.791 395.1 C 326.9508663629208 395.1022428033263 324.32246219971523 393.59850332333417 322.885 391.149 L 292.885 340.049 C 290.6482467631853 336.2382352261675 291.9242352261675 331.3357532368147 295.735 329.09899999999993 C 299.54576477383245 326.8622467631852 304.4482467631853 328.13823522616747 306.685 331.94899999999996 L 336.685 383.049 C 338.1375513632564 385.52174811519035 338.1553874986867 388.5828406026004 336.73174981651414 391.0723474722382 C 335.30811213434157 393.561854341876 332.66081871861417 395.09887838698785 329.793 395.101 z" stroke-linecap="round" />
</g>
		<g transform="matrix(1 0 0 1 58.79 -105.55)"  >
<path style="stroke: none; stroke-width: 1; stroke-dasharray: none; stroke-linecap: butt; stroke-dashoffset: 0; stroke-linejoin: miter; stroke-miterlimit: 4; fill: rgb(128,222,234); fill-rule: nonzero; opacity: 1;" vector-effect="non-scaling-stroke"  transform=" translate(-314.79, -150.45)" d="M 299.776 184 C 296.9086722733189 183.99731010663749 294.26205794682613 182.46028204150204 292.8387304059047 179.97116287220237 C 291.41540286498326 177.4820437029027 291.43305502177964 174.42153540074582 292.885 171.949 L 322.885 120.84900000000002 C 325.1217532368147 117.03823522616754 330.0242352261675 115.7622467631853 333.835 117.99900000000001 C 337.64576477383247 120.23575323681472 338.9217532368147 125.13823522616754 336.685 128.949 L 306.685 180.049 C 305.24699651703145 182.4994280790101 302.6172041182071 184.00330849119058 299.776 184 z" stroke-linecap="round" />
</g>
		<g transform="matrix(1 0 0 1 -58.78 105.55)"  >
<path style="stroke: none; stroke-width: 1; stroke-dasharray: none; stroke-linecap: butt; stroke-dashoffset: 0; stroke-linejoin: miter; stroke-miterlimit: 4; fill: rgb(128,222,234); fill-rule: nonzero; opacity: 1;" vector-effect="non-scaling-stroke"  transform=" translate(-197.22, -361.55)" d="M 182.209 395.1 C 179.34118128138587 395.0978783869879 176.69388786565844 393.56085434187605 175.27025018348587 391.07134747223824 C 173.8466125013133 388.58184060260044 173.86444863674362 385.5207481151904 175.317 383.048 L 205.317 331.948 C 206.76392563912808 329.48286742963364 209.4160726361293 327.9769166381986 212.274402885327 327.99742471388737 C 215.1327331345247 328.01793278957615 217.76299827525736 329.56178406783226 219.174402885327 332.0474247138874 C 220.58580749539664 334.53306535994244 220.5639256391281 337.58286742963367 219.11700000000002 340.048 L 189.11700000000002 391.148 C 187.67942842998713 393.5985042356238 185.05005182842504 395.10274516344276 182.20900000000003 395.1 z" stroke-linecap="round" />
</g>
		<g transform="matrix(1 0 0 1 0 104)"  >
<path style="stroke: none; stroke-width: 1; stroke-dasharray: none; stroke-linecap: butt; stroke-dashoffset: 0; stroke-linejoin: miter; stroke-miterlimit: 4; fill: rgb(128,222,234); fill-rule: nonzero; opacity: 1;" vector-effect="non-scaling-stroke"  transform=" translate(-256, -360)" d="M 256 392 C 251.58172200135365 392 248 388.4182779986464 248 384 L 248 336 C 248 331.5817220013536 251.58172200135365 328 256 328 C 260.4182779986464 328 264 331.5817220013536 264 336 L 264 384 C 264 388.4182779986464 260.4182779986464 392 256 392 z" stroke-linecap="round" />
</g>
		<g transform="matrix(1 0 0 1 -100 172)"  >
<circle style="stroke: none; stroke-width: 1; stroke-dasharray: none; stroke-linecap: butt; stroke-dashoffset: 0; stroke-linejoin: miter; stroke-miterlimit: 4; fill: rgb(178,235,242); fill-rule: nonzero; opacity: 1;" vector-effect="non-scaling-stroke"  cx="0" cy="0" r="28" />
</g>
		<g transform="matrix(1 0 0 1 100 172)"  >
<circle style="stroke: none; stroke-width: 1; stroke-dasharray: none; stroke-linecap: butt; stroke-dashoffset: 0; stroke-linejoin: miter; stroke-miterlimit: 4; fill: rgb(178,235,242); fill-rule: nonzero; opacity: 1;" vector-effect="non-scaling-stroke"  cx="0" cy="0" r="28" />
</g>
		<g transform="matrix(1 0 0 1 99.41 58.71)"  >
<path style="stroke: none; stroke-width: 1; stroke-dasharray: none; stroke-linecap: butt; stroke-dashoffset: 0; stroke-linejoin: miter; stroke-miterlimit: 4; fill: rgb(128,222,234); fill-rule: nonzero; opacity: 1;" vector-effect="non-scaling-stroke"  transform=" translate(-355.41, -314.71)" d="M 380.993 337.4 C 379.5981655537478 337.40029720355824 378.2277396955555 337.0340686526271 377.019 336.33799999999997 L 325.79200000000003 306.938 C 321.98651233410783 304.72696191280437 320.68171095799835 299.8572688356526 322.8718832583776 296.03973414780245 C 325.0620555587568 292.22219945995226 329.9245326977918 290.8907591236551 333.754 293.06 L 384.981 322.46 C 388.12727414590574 324.2641148348859 389.66624813326933 327.95910480024895 388.730874500331 331.4632377180268 C 387.7955008673927 334.9673706358046 384.61982456877473 337.40385823567266 380.993 337.4 z" stroke-linecap="round" />
</g>
		<g transform="matrix(1 0 0 1 99.39 -60.8)"  >
<path style="stroke: none; stroke-width: 1; stroke-dasharray: none; stroke-linecap: butt; stroke-dashoffset: 0; stroke-linejoin: miter; stroke-miterlimit: 4; fill: rgb(128,222,234); fill-rule: nonzero; opacity: 1;" vector-effect="non-scaling-stroke"  transform=" translate(-355.39, -195.2)" d="M 329.781 219 C 326.2011387109968 219.00444220652594 323.0541007217343 216.63007820825285 322.07567386811354 213.18651791782435 C 321.0972470144928 209.7429576273958 322.52563797543354 206.06856628121892 325.573 204.19 L 376.79999999999995 172.59 C 380.56050686159784 170.27040405071068 385.4894040507106 171.43849313840212 387.8089999999999 175.199 C 390.12859594928926 178.95950686159787 388.9605068615978 183.88840405071068 385.19999999999993 186.208 L 333.97299999999996 217.808 C 332.71361484068103 218.58722988970555 331.2619625925203 219.0000088686673 329.78099999999995 219 z" stroke-linecap="round" />
</g>
		<g transform="matrix(1 0 0 1 160.39 93.3)"  >
<path style="stroke: none; stroke-width: 1; stroke-dasharray: none; stroke-linecap: butt; stroke-dashoffset: 0; stroke-linejoin: miter; stroke-miterlimit: 4; fill: rgb(178,235,242); fill-rule: nonzero; opacity: 1;" vector-effect="non-scaling-stroke"  transform=" translate(-416.39, -349.3)" d="M 455.94 382.584 C 455.5824846099322 382.58412139253613 455.225359011784 382.56040210584905 454.871 382.513 L 392.525 374.11899999999997 C 389.75452343447967 373.74598447853595 387.3797002216595 371.9538725170096 386.26099999999997 369.392 L 369.51 331.029 C 368.48179232163255 328.6744030996893 368.64705768145626 325.96924443300003 369.9542461405413 323.7573231131422 C 371.2614345996263 321.54540179328444 373.5514553420244 320.0959187645778 376.11 319.861 L 417.795 316.042 C 420.57905090327563 315.7867470811628 423.2943853784258 317.0033776774706 424.957 319.251 L 462.368 369.82599999999996 C 464.16445084815996 372.25422368570696 464.4401063272554 375.4872336967711 463.0806722474389 378.18453696120326 C 461.7212381676224 380.8818402256355 458.95851414200587 382.5835145872798 455.938 382.58399999999995 z" stroke-linecap="round" />
</g>
		<g transform="matrix(1 0 0 1 -161.68 93.3)"  >
<path style="stroke: none; stroke-width: 1; stroke-dasharray: none; stroke-linecap: butt; stroke-dashoffset: 0; stroke-linejoin: miter; stroke-miterlimit: 4; fill: rgb(178,235,242); fill-rule: nonzero; opacity: 1;" vector-effect="non-scaling-stroke"  transform=" translate(-94.32, -349.3)" d="M 54.771 382.584 C 51.75048585799411 382.58351458727986 48.987761832377615 380.88184022563553 47.628327752561106 378.1845369612033 C 46.268893672744596 375.48723369677117 46.544549151840044 372.254223685707 48.341 369.826 L 85.75200000000001 319.25100000000003 C 87.41461462157424 317.00337767747067 90.1299490967244 315.78674708116284 92.91400000000002 316.04200000000003 L 134.59900000000002 319.86100000000005 C 137.15754465797565 320.0959187645779 139.44756540037372 321.5454017932845 140.75475385945873 323.7573231131423 C 142.06194231854374 325.9692444330001 142.22720767836748 328.6744030996894 141.199 331.02900000000005 L 124.45000000000002 369.39200000000005 C 123.33129977834051 371.95387251700964 120.9564765655203 373.745984478536 118.18600000000002 374.119 L 55.840000000000025 382.51300000000003 C 55.485640988215984 382.5604021058491 55.12851539006783 382.5841213925362 54.77100000000002 382.58400000000006 z" stroke-linecap="round" />
</g>
		<g transform="matrix(1 0 0 1 160.39 -94.3)"  >
<path style="stroke: none; stroke-width: 1; stroke-dasharray: none; stroke-linecap: butt; stroke-dashoffset: 0; stroke-linejoin: miter; stroke-miterlimit: 4; fill: rgb(178,235,242); fill-rule: nonzero; opacity: 1;" vector-effect="non-scaling-stroke"  transform=" translate(-416.39, -161.7)" d="M 418.528 194.991 Q 418.165 194.991 417.797 194.95800000000003 L 376.112 191.13900000000004 C 373.5534553420244 190.9040812354222 371.2634345996263 189.4545982067156 369.9562461405413 187.2426768868578 C 368.64905768145627 185.03075556700003 368.48379232163256 182.3255969003107 369.512 179.97100000000003 L 386.263 141.60800000000003 C 387.38170022165946 139.0461274829904 389.7565234344797 137.25401552146405 392.527 136.88100000000003 L 454.873 128.48700000000002 C 458.05910053748926 128.05728425251212 461.1929153294609 129.57658521980002 462.8289608133623 132.34411976036756 C 464.46500629726364 135.11165430093507 464.2854055205637 138.58970176188086 462.373 141.17400000000004 L 424.962 191.74900000000002 C 423.45285073665076 193.78888473272443 421.06545157212366 194.99186081158624 418.52799999999996 194.991 z" stroke-linecap="round" />
</g>
		<g transform="matrix(1 0 0 1 -161.68 -94.3)"  >
<path style="stroke: none; stroke-width: 1; stroke-dasharray: none; stroke-linecap: butt; stroke-dashoffset: 0; stroke-linejoin: miter; stroke-miterlimit: 4; fill: rgb(178,235,242); fill-rule: nonzero; opacity: 1;" vector-effect="non-scaling-stroke"  transform=" translate(-94.32, -161.7)" d="M 92.183 194.991 C 89.64660493055646 194.99090941175584 87.260520966896 193.78803517599354 85.75200000000001 191.74900000000002 L 48.34100000000001 141.17400000000004 C 46.42859447943631 138.58970176188086 46.24899370273637 135.1116543009351 47.88503918663773 132.34411976036756 C 49.521084670539075 129.57658521980002 52.65489946251077 128.05728425251212 55.84100000000001 128.48700000000002 L 118.18700000000001 136.88100000000003 C 120.9574765655203 137.25401552146405 123.33229977834051 139.0461274829904 124.45100000000001 141.60800000000003 L 141.20000000000002 179.97100000000003 C 142.22820767836748 182.3255969003107 142.06294231854375 185.030755567 140.75575385945874 187.2426768868578 C 139.44856540037372 189.4545982067156 137.15854465797565 190.9040812354222 134.60000000000002 191.13900000000004 L 92.91500000000002 194.95800000000003 Q 92.54700000000003 194.991 92.18300000000002 194.991 z" stroke-linecap="round" />
</g>
		<g transform="matrix(1 0 0 1 0 -188)"  >
<path style="stroke: none; stroke-width: 1; stroke-dasharray: none; stroke-linecap: butt; stroke-dashoffset: 0; stroke-linejoin: miter; stroke-miterlimit: 4; fill: rgb(178,235,242); fill-rule: nonzero; opacity: 1;" vector-effect="non-scaling-stroke"  transform=" translate(-256, -68)" d="M 256 136 C 252.63572354999093 136.00028292814324 249.6307414689595 133.89571641149058 248.481 130.734 L 216.481 42.73400000000001 C 215.41883751178563 39.812782051172725 216.14491487279753 36.54075458809483 218.343 34.34300000000001 L 250.343 2.3430000000000106 C 251.843302876328 0.8426198091973014 253.8781966543359 -0.0002915047706268936 256 -0.0002915047706268936 C 258.12180334566403 -0.0002915047706268936 260.15669712367196 0.842619809197299 261.657 2.343000000000007 L 293.657 34.34300000000001 C 295.8550851272024 36.54075458809482 296.5811624882144 39.81278205117272 295.519 42.73400000000001 L 263.519 130.734 C 262.3692585310405 133.89571641149058 259.3642764500091 136.00028292814324 256 136 z" stroke-linecap="round" />
</g>
		<g transform="matrix(1 0 0 1 0 188)"  >
<path style="stroke: none; stroke-width: 1; stroke-dasharray: none; stroke-linecap: butt; stroke-dashoffset: 0; stroke-linejoin: miter; stroke-miterlimit: 4; fill: rgb(178,235,242); fill-rule: nonzero; opacity: 1;" vector-effect="non-scaling-stroke"  transform=" translate(-256, -444)" d="M 256 512 C 253.87771313992096 512.0027232315109 251.84185127748353 511.15951581703484 250.343 509.657 L 218.343 477.657 C 216.14491487279753 475.45924541190516 215.4188375117856 472.18721794882725 216.481 469.26599999999996 L 248.481 381.26599999999996 C 249.63012541628748 378.103554058041 252.63524836604984 375.9981491540543 256 375.9981491540543 C 259.36475163395016 375.9981491540543 262.3698745837125 378.103554058041 263.519 381.26599999999996 L 295.519 469.26599999999996 C 296.5811624882144 472.18721794882725 295.85508512720247 475.45924541190516 293.657 477.657 L 261.657 509.657 C 260.15814872251644 511.15951581703484 258.12228686007904 512.0027232315109 255.99999999999997 512 z" stroke-linecap="round" />
</g>
		<g transform="matrix(1 0 0 1 -100 -172)"  >
<circle style="stroke: none; stroke-width: 1; stroke-dasharray: none; stroke-linecap: butt; stroke-dashoffset: 0; stroke-linejoin: miter; stroke-miterlimit: 4; fill: rgb(178,235,242); fill-rule: nonzero; opacity: 1;" vector-effect="non-scaling-stroke"  cx="0" cy="0" r="28" />
</g>
		<g transform="matrix(1 0 0 1 100 -172)"  >
<circle style="stroke: none; stroke-width: 1; stroke-dasharray: none; stroke-linecap: butt; stroke-dashoffset: 0; stroke-linejoin: miter; stroke-miterlimit: 4; fill: rgb(178,235,242); fill-rule: nonzero; opacity: 1;" vector-effect="non-scaling-stroke"  cx="0" cy="0" r="28" />
</g>
		<g transform="matrix(1 0 0 1 -188 0)"  >
<path style="stroke: none; stroke-width: 1; stroke-dasharray: none; stroke-linecap: butt; stroke-dashoffset: 0; stroke-linejoin: miter; stroke-miterlimit: 4; fill: rgb(178,235,242); fill-rule: nonzero; opacity: 1;" vector-effect="non-scaling-stroke"  transform=" translate(-68, -256)" d="M 40 296 C 37.87754548179851 296.00060786480685 35.84184062568981 295.15776346157963 34.341 293.657 L 2.341000000000001 261.657 C 0.8406198091972921 260.15669712367196 -0.0022915047706364433 258.12180334566403 -0.0022915047706364433 256 C -0.0022915047706364433 253.8781966543359 0.8406198091972923 251.84330287632798 2.341000000000001 250.343 L 34.341 218.343 C 36.539373992084 216.14604379512747 39.8106982974859 215.4201224679128 42.732 216.481 L 130.732 248.481 C 133.8944459419589 249.63012541628748 135.99985084594564 252.63524836604984 135.99985084594564 256 C 135.99985084594564 259.36475163395016 133.89444594195894 262.3698745837125 130.732 263.519 L 42.732 295.519 C 41.85629175276918 295.83720262676735 40.93172841839665 295.9999826281704 40 296 z" stroke-linecap="round" />
</g>
		<g transform="matrix(1 0 0 1 188 0)"  >
<path style="stroke: none; stroke-width: 1; stroke-dasharray: none; stroke-linecap: butt; stroke-dashoffset: 0; stroke-linejoin: miter; stroke-miterlimit: 4; fill: rgb(178,235,242); fill-rule: nonzero; opacity: 1;" vector-effect="non-scaling-stroke"  transform=" translate(-444, -256)" d="M 472 296 C 471.06793570655407 296.0000991158879 470.1430239274856 295.8373173501609 469.267 295.519 L 381.267 263.519 C 378.10455405804106 262.3698745837125 375.99914915405435 259.36475163395016 375.99914915405435 256 C 375.99914915405435 252.63524836604984 378.10455405804106 249.63012541628748 381.267 248.481 L 469.267 216.481 C 472.1882179488273 215.4188375117856 475.4602454119052 216.14491487279753 477.658 218.343 L 509.658 250.343 C 511.15838019080275 251.843302876328 512.0012915047706 253.8781966543359 512.0012915047706 255.99999999999997 C 512.0012915047706 258.12180334566403 511.15838019080275 260.15669712367196 509.658 261.657 L 477.658 293.657 C 476.1574043768712 295.1575183528509 474.12210801658335 296.00034256143243 472 296 z" stroke-linecap="round" />
</g>
		<g transform="matrix(1 0 0 1 0 0)"  >
<path style="stroke: none; stroke-width: 1; stroke-dasharray: none; stroke-linecap: butt; stroke-dashoffset: 0; stroke-linejoin: miter; stroke-miterlimit: 4; fill: rgb(224,247,250); fill-rule: nonzero; opacity: 1;" vector-effect="non-scaling-stroke"  transform=" translate(-256, -256)" d="M 300 344 L 212 344 C 209.08229830459086 344.0000292655505 206.39596750439924 342.4116068451804 204.99 339.855 L 160.99 259.855 C 159.6698930093734 257.4545216407297 159.6698930093734 254.5454783592703 160.99 252.145 L 204.99 172.145 C 206.39596750439924 169.5883931548196 209.08229830459086 167.99997073444953 212 168 L 300 168 C 302.91770169540916 167.99997073444953 305.60403249560073 169.5883931548196 307.01 172.145 L 351.01 252.145 C 352.33010699062663 254.5454783592703 352.33010699062663 257.4545216407297 351.01 259.855 L 307.01 339.855 C 305.60403249560073 342.4116068451804 302.91770169540916 344.0000292655505 300 344 z" stroke-linecap="round" />
</g>
		<g transform="matrix(1 0 0 1 20.97 11.07)"  >
<path style="stroke: none; stroke-width: 1; stroke-dasharray: none; stroke-linecap: butt; stroke-dashoffset: 0; stroke-linejoin: miter; stroke-miterlimit: 4; fill: rgb(178,235,242); fill-rule: nonzero; opacity: 1;" vector-effect="non-scaling-stroke"  transform=" translate(-276.97, -267.07)" d="M 351.01 252.145 L 316.90999999999997 190.145 C 298.1191494805473 250.9691562199448 257.059231003454 302.45762542011863 201.94199999999998 334.313 L 204.98999999999995 339.85499999999996 C 206.39596750439918 342.41160684518036 209.0822983045908 344.00002926555044 211.99999999999994 343.99999999999994 L 299.99999999999994 343.99999999999994 C 302.9177016954091 344.00002926555044 305.6040324956007 342.41160684518036 307.00999999999993 339.85499999999996 L 351.00999999999993 259.85499999999996 C 352.3301069906266 257.45452164072964 352.3301069906266 254.54547835927025 351.00999999999993 252.14499999999995 z" stroke-linecap="round" />
</g>
		<g transform="matrix(1 0 0 1 0 0)"  >
<path style="stroke: none; stroke-width: 1; stroke-dasharray: none; stroke-linecap: butt; stroke-dashoffset: 0; stroke-linejoin: miter; stroke-miterlimit: 4; fill: rgb(128,222,234); fill-rule: nonzero; opacity: 1;" vector-effect="non-scaling-stroke"  transform=" translate(-256, -256)" d="M 282.262 312 L 229.738 312 C 226.96864957416852 311.99972941026175 224.3964091617457 310.5672184629316 222.938 308.213 L 193.19899999999998 260.213 C 191.60004219500286 257.63190270748726 191.60004219500286 254.36809729251277 193.19899999999998 251.78700000000003 L 222.938 203.78700000000003 C 224.3964091617457 201.43278153706845 226.96864957416852 200.00027058973828 229.738 200.00000000000003 L 282.262 200.00000000000003 C 285.0313504258315 200.00027058973828 287.60359083825426 201.43278153706845 289.062 203.78700000000003 L 318.8 251.78700000000003 C 320.39895780499717 254.36809729251277 320.39895780499717 257.63190270748726 318.8 260.213 L 289.062 308.213 C 287.60359083825426 310.5672184629316 285.0313504258315 311.99972941026175 282.262 312 z" stroke-linecap="round" />
</g>
		<g transform="matrix(1 0 0 1 21.19 12.97)"  >
<path style="stroke: none; stroke-width: 1; stroke-dasharray: none; stroke-linecap: butt; stroke-dashoffset: 0; stroke-linejoin: miter; stroke-miterlimit: 4; fill: rgb(77,208,225); fill-rule: nonzero; opacity: 1;" vector-effect="non-scaling-stroke"  transform=" translate(-277.19, -268.97)" d="M 302.788 225.941 C 286.5682980752515 259.2965790699527 263.2112857784643 288.67685738568605 234.37200000000004 312 L 282.262 312 C 285.0313504258315 311.99972941026175 287.60359083825426 310.5672184629316 289.062 308.213 L 318.8 260.213 C 320.39895780499717 257.63190270748726 320.39895780499717 254.36809729251277 318.8 251.78700000000003 z" stroke-linecap="round" />
</g>
		<g transform="matrix(1 0 0 1 -16 -24)"  >
<circle style="stroke: none; stroke-width: 1; stroke-dasharray: none; stroke-linecap: butt; stroke-dashoffset: 0; stroke-linejoin: miter; stroke-miterlimit: 4; fill: rgb(224,247,250); fill-rule: nonzero; opacity: 1;" vector-effect="non-scaling-stroke"  cx="0" cy="0" r="16" />
</g>
		<g transform="matrix(1 0 0 1 -12 20)"  >
<circle style="stroke: none; stroke-width: 1; stroke-dasharray: none; stroke-linecap: butt; stroke-dashoffset: 0; stroke-linejoin: miter; stroke-miterlimit: 4; fill: rgb(224,247,250); fill-rule: nonzero; opacity: 1;" vector-effect="non-scaling-stroke"  cx="0" cy="0" r="12" />
</g>
		<g transform="matrix(1 0 0 1 -12 -220)"  >
<circle style="stroke: none; stroke-width: 1; stroke-dasharray: none; stroke-linecap: butt; stroke-dashoffset: 0; stroke-linejoin: miter; stroke-miterlimit: 4; fill: rgb(224,247,250); fill-rule: nonzero; opacity: 1;" vector-effect="non-scaling-stroke"  cx="0" cy="0" r="12" />
</g>
		<g transform="matrix(1 0 0 1 -220 -12)"  >
<circle style="stroke: none; stroke-width: 1; stroke-dasharray: none; stroke-linecap: butt; stroke-dashoffset: 0; stroke-linejoin: miter; stroke-miterlimit: 4; fill: rgb(224,247,250); fill-rule: nonzero; opacity: 1;" vector-effect="non-scaling-stroke"  cx="0" cy="0" r="12" />
</g>
		<g transform="matrix(1 0 0 1 172 -4)"  >
<circle style="stroke: none; stroke-width: 1; stroke-dasharray: none; stroke-linecap: butt; stroke-dashoffset: 0; stroke-linejoin: miter; stroke-miterlimit: 4; fill: rgb(224,247,250); fill-rule: nonzero; opacity: 1;" vector-effect="non-scaling-stroke"  cx="0" cy="0" r="12" />
</g>
		<g transform="matrix(1 0 0 1 215.18 4.13)"  >
<path style="stroke: none; stroke-width: 1; stroke-dasharray: none; stroke-linecap: butt; stroke-dashoffset: 0; stroke-linejoin: miter; stroke-miterlimit: 4; fill: rgb(128,222,234); fill-rule: nonzero; opacity: 1;" vector-effect="non-scaling-stroke"  transform=" translate(-471.18, -260.13)" d="M 509.657 250.343 L 483.572 224.25799999999998 C 475.157027128806 250.23255018923288 455.66796214778793 271.1449738486399 430.35 281.36699999999996 L 469.266 295.51899999999995 C 472.1872179488273 296.5811624882143 475.4592454119052 295.8550851272024 477.65700000000004 293.6569999999999 L 509.65700000000004 261.6569999999999 C 511.15738019080277 260.1566971236719 512.0002915047706 258.121803345664 512.0002915047706 255.99999999999994 C 512.0002915047706 253.87819665433585 511.15738019080277 251.84330287632793 509.65700000000004 250.34299999999993 z" stroke-linecap="round" />
</g>
		<g transform="matrix(1 0 0 1 -174.99 8.51)"  >
<path style="stroke: none; stroke-width: 1; stroke-dasharray: none; stroke-linecap: butt; stroke-dashoffset: 0; stroke-linejoin: miter; stroke-miterlimit: 4; fill: rgb(128,222,234); fill-rule: nonzero; opacity: 1;" vector-effect="non-scaling-stroke"  transform=" translate(-81.01, -264.51)" d="M 130.734 248.481 L 88.23400000000001 233.028 C 76.71767261189748 259.15914780044346 53.74191765640498 278.47832605346167 26.022000000000006 285.339 L 34.339000000000006 293.657 C 36.536754588094816 295.8550851272024 39.80878205117272 296.5811624882144 42.730000000000004 295.519 L 130.73000000000002 263.519 C 133.89244594195893 262.3698745837125 135.99785084594566 259.36475163395016 135.99785084594566 256 C 135.99785084594566 252.63524836604984 133.89244594195895 249.63012541628748 130.73000000000002 248.481 z" stroke-linecap="round" />
</g>
		<g transform="matrix(1 0 0 1 -149.48 -89.17)"  >
<path style="stroke: none; stroke-width: 1; stroke-dasharray: none; stroke-linecap: butt; stroke-dashoffset: 0; stroke-linejoin: miter; stroke-miterlimit: 4; fill: rgb(128,222,234); fill-rule: nonzero; opacity: 1;" vector-effect="non-scaling-stroke"  transform=" translate(-106.52, -166.83)" d="M 141.2 179.971 L 124.44999999999999 141.608 C 123.94652654747927 140.46586890512856 123.18202869365643 139.4578414930315 122.21799999999999 138.665 C 111.78255970249309 157.55787606267364 92.66956553616369 170.0580888029997 71.178 172.046 L 85.752 191.74599999999998 C 87.26052096689598 193.78503517599353 89.64660493055645 194.9879094117558 92.18299999999999 194.98799999999997 Q 92.54599999999999 194.98799999999997 92.91399999999999 194.95499999999998 L 134.599 191.136 C 137.15754465797562 190.90108123542217 139.4475654003737 189.45159820671554 140.7547538594587 187.23967688685775 C 142.06194231854371 185.02775556699999 142.22720767836745 182.32259690031066 141.19899999999998 179.968 z" stroke-linecap="round" />
</g>
		<g transform="matrix(1 0 0 1 173.47 -94.3)"  >
<path style="stroke: none; stroke-width: 1; stroke-dasharray: none; stroke-linecap: butt; stroke-dashoffset: 0; stroke-linejoin: miter; stroke-miterlimit: 4; fill: rgb(128,222,234); fill-rule: nonzero; opacity: 1;" vector-effect="non-scaling-stroke"  transform=" translate(-429.47, -161.7)" d="M 462.825 132.345 C 461.18798494358344 129.57948320301972 458.0562761532904 128.06048238419262 454.871 128.487 L 426.138 132.356 C 426.25399999999996 133.946 426.33799999999997 135.547 426.33799999999997 137.167 C 426.3470490025151 159.9357825867636 414.46469963951904 181.05616755764902 394.99999999999994 192.869 L 417.79299999999995 194.958 Q 418.15999999999997 194.99099999999999 418.52399999999994 194.99099999999999 C 421.0603950694435 194.9909094117558 423.44647903310397 193.7880351759935 424.9549999999999 191.749 L 462.36599999999993 141.17399999999998 C 464.2789786406978 138.59051779325003 464.4597710931874 135.1129217953617 462.82499999999993 132.34499999999997 z" stroke-linecap="round" />
</g>
		<g transform="matrix(1 0 0 1 -148.96 93.12)"  >
<path style="stroke: none; stroke-width: 1; stroke-dasharray: none; stroke-linecap: butt; stroke-dashoffset: 0; stroke-linejoin: miter; stroke-miterlimit: 4; fill: rgb(128,222,234); fill-rule: nonzero; opacity: 1;" vector-effect="non-scaling-stroke"  transform=" translate(-107.04, -349.12)" d="M 140.756 323.757 C 139.4494132141425 321.5433339548484 137.15870706619828 320.09234256667514 134.599 319.857 L 113.58899999999998 317.93300000000005 C 110.16369974281318 343.99456305039445 94.896312519938 367.01429468584223 72.21999999999997 380.30800000000005 L 118.18599999999998 374.119 C 120.95647656552026 373.745984478536 123.33129977834047 371.95387251700964 124.44999999999997 369.39200000000005 L 141.2 331.02900000000005 C 142.22839302784266 328.67435112536515 142.06321760706402 325.96904558504497 140.756 323.75700000000006 z" stroke-linecap="round" />
</g>
		<g transform="matrix(1 0 0 1 168.78 99.13)"  >
<path style="stroke: none; stroke-width: 1; stroke-dasharray: none; stroke-linecap: butt; stroke-dashoffset: 0; stroke-linejoin: miter; stroke-miterlimit: 4; fill: rgb(128,222,234); fill-rule: nonzero; opacity: 1;" vector-effect="non-scaling-stroke"  transform=" translate(-424.78, -355.13)" d="M 462.37 369.826 L 431.19100000000003 327.677 C 427.10509259203775 349.9996313302988 408.2737909365836 366.6269095726184 385.617 367.91700000000003 L 386.261 369.39200000000005 C 387.37970022165956 371.95387251700964 389.7545234344798 373.745984478536 392.52500000000003 374.119 L 454.87100000000004 382.51300000000003 C 458.0571005374893 382.94271574748797 461.19091532946095 381.4234147802 462.82696081336235 378.6558802396325 C 464.4630062972637 375.888345699065 464.28340552056375 372.4102982381192 462.37100000000004 369.826 z" stroke-linecap="round" />
</g>
		<g transform="matrix(1 0 0 1 8.8 -175.6)"  >
<path style="stroke: none; stroke-width: 1; stroke-dasharray: none; stroke-linecap: butt; stroke-dashoffset: 0; stroke-linejoin: miter; stroke-miterlimit: 4; fill: rgb(128,222,234); fill-rule: nonzero; opacity: 1;" vector-effect="non-scaling-stroke"  transform=" translate(-264.8, -80.4)" d="M 293.657 34.343 L 284.111 24.800000000000004 C 276.4865034189356 52.270434729265965 258.3322711459712 75.62370565079033 233.59099999999998 89.78800000000001 L 248.481 130.73700000000002 C 249.63012541628748 133.89944594195893 252.63524836604984 136.00485084594567 256 136.00485084594567 C 259.36475163395016 136.00485084594567 262.3698745837125 133.89944594195893 263.519 130.73700000000002 L 295.519 42.73700000000002 C 296.58244675525515 39.81491285101276 295.85628419845193 36.54133148591812 293.657 34.343000000000025 z" stroke-linecap="round" />
</g>
		<g transform="matrix(1 0 0 1 1.18 217.81)"  >
<path style="stroke: none; stroke-width: 1; stroke-dasharray: none; stroke-linecap: butt; stroke-dashoffset: 0; stroke-linejoin: miter; stroke-miterlimit: 4; fill: rgb(128,222,234); fill-rule: nonzero; opacity: 1;" vector-effect="non-scaling-stroke"  transform=" translate(-257.18, -473.81)" d="M 283.28 435.61 C 267.57444049545853 457.1634983521589 244.45216018762048 472.14665905628135 218.36299999999997 477.67600000000004 L 250.34299999999996 509.65700000000004 C 251.84330287632798 511.15738019080277 253.87819665433588 512.0002915047706 255.99999999999997 512.0002915047706 C 258.12180334566403 512.0002915047706 260.15669712367196 511.15738019080277 261.657 509.65700000000004 L 293.657 477.65700000000004 C 295.85508512720247 475.4592454119052 296.5811624882144 472.1872179488273 295.519 469.266 z" stroke-linecap="round" />
</g>
		<g transform="matrix(1 0 0 1 -99.04 -171.04)"  >
<path style="stroke: none; stroke-width: 1; stroke-dasharray: none; stroke-linecap: butt; stroke-dashoffset: 0; stroke-linejoin: miter; stroke-miterlimit: 4; fill: rgb(128,222,234); fill-rule: nonzero; opacity: 1;" vector-effect="non-scaling-stroke"  transform=" translate(-156.95, -84.96)" d="M 166.105 57.9 C 170.11572338882644 68.23749187176654 167.64425451224625 79.96807851677202 159.80366651450913 87.80866651450914 C 151.96307851677204 95.64925451224626 140.2324918717665 98.12072338882643 129.89499999999998 94.10999999999999 C 134.5227155237896 106.08656650132906 146.70314300367028 113.38094392422447 159.44582904161763 111.80682554615316 C 172.188515079565 110.23270716808184 182.22770716808185 100.19351507956502 183.80182554615314 87.45082904161764 C 185.37594392422443 74.70814300367027 178.08156650132904 62.52771552378962 166.10499999999996 57.89999999999999 z" stroke-linecap="round" />
</g>
		<g transform="matrix(1 0 0 1 100.96 -171.04)"  >
<path style="stroke: none; stroke-width: 1; stroke-dasharray: none; stroke-linecap: butt; stroke-dashoffset: 0; stroke-linejoin: miter; stroke-miterlimit: 4; fill: rgb(128,222,234); fill-rule: nonzero; opacity: 1;" vector-effect="non-scaling-stroke"  transform=" translate(-356.95, -84.96)" d="M 366.105 57.9 C 370.11572338882644 68.23749187176652 367.6442545122463 79.96807851677201 359.8036665145092 87.80866651450913 C 351.96307851677204 95.64925451224624 340.23249187176657 98.1207233888264 329.89500000000004 94.11 C 334.52271552378966 106.08656650132906 346.70314300367033 113.38094392422448 359.4458290416177 111.80682554615316 C 372.1885150795651 110.23270716808186 382.2277071680819 100.19351507956502 383.8018255461532 87.45082904161764 C 385.3759439242245 74.70814300367026 378.08156650132906 62.52771552378961 366.105 57.89999999999999 z" stroke-linecap="round" />
</g>
		<g transform="matrix(1 0 0 1 -99.04 172.96)"  >
<path style="stroke: none; stroke-width: 1; stroke-dasharray: none; stroke-linecap: butt; stroke-dashoffset: 0; stroke-linejoin: miter; stroke-miterlimit: 4; fill: rgb(128,222,234); fill-rule: nonzero; opacity: 1;" vector-effect="non-scaling-stroke"  transform=" translate(-156.95, -428.96)" d="M 166.105 401.9 C 170.1157233888264 412.2374918717665 167.64425451224622 423.96807851677204 159.80366651450913 431.8086665145091 C 151.96307851677201 439.6492545122462 140.23249187176648 442.1207233888264 129.89499999999998 438.10999999999996 C 134.5227155237896 450.086566501329 146.70314300367025 457.3809439242244 159.44582904161763 455.80682554615316 C 172.188515079565 454.23270716808184 182.22770716808185 444.19351507956503 183.80182554615317 431.4508290416176 C 185.37594392422446 418.7081430036703 178.08156650132904 406.5277155237896 166.105 401.9 z" stroke-linecap="round" />
</g>
		<g transform="matrix(1 0 0 1 100.96 172.96)"  >
<path style="stroke: none; stroke-width: 1; stroke-dasharray: none; stroke-linecap: butt; stroke-dashoffset: 0; stroke-linejoin: miter; stroke-miterlimit: 4; fill: rgb(128,222,234); fill-rule: nonzero; opacity: 1;" vector-effect="non-scaling-stroke"  transform=" translate(-356.95, -428.96)" d="M 366.105 401.9 C 370.11572338882644 412.2374918717665 367.6442545122463 423.9680785167719 359.8036665145092 431.80866651450907 C 351.9630785167721 439.64925451224616 340.2324918717666 442.1207233888264 329.8950000000001 438.10999999999996 C 334.52271552378966 450.086566501329 346.7031430036703 457.3809439242244 359.4458290416177 455.80682554615316 C 372.1885150795651 454.23270716808184 382.2277071680819 444.19351507956503 383.8018255461532 431.4508290416176 C 385.3759439242245 418.7081430036702 378.08156650132906 406.5277155237896 366.105 401.9 z" stroke-linecap="round" />
</g>
</g>
</g>
<g transform="matrix(3.61 0 0 3.61 624 600.86)" style="filter: url(#SVGID_1426);" id="f42727bd-bc40-4e3b-832d-5e77afda711c"  >
<filter id="SVGID_1426" y="-46%" height="192%" x="-54%" width="208%" >
	<feGaussianBlur in="SourceAlpha" stdDeviation="7.5"></feGaussianBlur>
	<feOffset dx="0" dy="0" result="oBlur" ></feOffset>
	<feFlood flood-color="rgb(255,255,0)" flood-opacity="1"/>
	<feComposite in2="oBlur" operator="in" />
	<feMerge>
		<feMergeNode></feMergeNode>
		<feMergeNode in="SourceGraphic"></feMergeNode>
	</feMerge>
</filter>
		<rect opacity="0" fill="rgb(0,0,0)" x="-22.39" y="-28.81" width="44.77" height="57.63"></rect>
		<text xml:space="preserve" font-family="Lato" font-size="51" font-style="normal" font-weight="400" style="stroke: none; stroke-width: 1; stroke-dasharray: none; stroke-linecap: butt; stroke-dashoffset: 0; stroke-linejoin: miter; stroke-miterlimit: 4; fill: rgb(153,255,153); fill-rule: nonzero; opacity: 1; white-space: pre;" ><tspan x="-14.43" y="16.02" >F</tspan></text>
</g>
</svg>