<svg id="Capa_1" enable-background="new 0 0 59 59" height="512" viewBox="0 0 59 59" width="512" xmlns="http://www.w3.org/2000/svg"><g><path id="Shape_1_" d="m52.84 21.46c-.872.715-1.993 1.052-3.114.935-1.121-.116-2.05-.752-2.856-1.555-.03-.03-1.682-1.64-2.52-1.73s-1.677.158-2.33.69l-.82.67-3.99-4.96.82-.67c1.365-1.108 1.575-3.112.47-4.48-1.472-1.827-1.19-4.5.63-5.98.87-.711 1.989-1.045 3.106-.926 1.118.118 2.142.679 2.844 1.556.347.424.606.914.76 1.44 1.211.569 2.641.394 3.68-.45.309-.249.573-.551.78-.89-.51 1.15 2.68 4.89 3.7 4.89-.1.06-.71.13-.81.21-1.267 1.11-1.534 2.979-.63 4.4.352.238.665.528.93.86 1.469 1.835 1.179 4.513-.65 5.99z" fill="#f19b1f"/><path id="Shape_6_" d="m58.779 10.3c-.76-.954-1.855-1.583-3.063-1.756.874-1.167.849-2.776-.061-3.915-.912-1.134-2.482-1.497-3.8-.879.094-1.219-.284-2.428-1.055-3.377-.346-.431-.976-.499-1.407-.153s-.499.976-.153 1.407c.896.963.859 2.464-.083 3.382-.417.327-.947.475-1.473.412-.72-.092-1.375-.465-1.822-1.037-.869-1.085-2.136-1.777-3.518-1.925-1.382-.147-2.766.264-3.844 1.141-1.372 1.121-2.086 2.858-1.9 4.62-.043-.006-.083-.021-.126-.026-1.102-.12-2.206.208-3.064.911-.277.225-.414.581-.357.934.056.353.297.649.631.776.334.128.71.067.988-.158.444-.367 1.019-.538 1.592-.474.575.059 1.102.348 1.462.8.756.942.611 2.318-.325 3.082l-.822.669c-.277.225-.414.581-.357.934.056.353.297.649.631.777s.71.067.988-.158l.823-.669c.894-.731 1.446-1.799 1.524-2.951.239.083.484.148.733.194.055.01.112.015.168.015.518-.003.948-.4.991-.916s-.314-.98-.824-1.069c-.778-.133-1.48-.546-1.974-1.162-1.122-1.4-.907-3.442.482-4.577.665-.541 1.519-.795 2.372-.704s1.634.519 2.17 1.189c.496.617.751 1.394.717 2.185-.024.552.404 1.018.956 1.042.266.017.528-.076.724-.256.197-.18.311-.433.318-.7.002-.2-.007-.401-.028-.6.159.043.32.076.483.1.149.017.3.025.45.025.743 0 1.471-.211 2.1-.607.074 1.349.999 2.502 2.3 2.866-.836.889-1.236 2.098-1.095 3.308-.051-.01-.1-.031-.152-.04-.356-.069-.722.059-.956.337s-.299.66-.17.999.431.582.79.635c.777.132 1.478.545 1.971 1.16 1.122 1.4.907 3.442-.482 4.577-.665.541-1.518.795-2.371.704s-1.634-.518-2.17-1.187c-.497-.617-.752-1.394-.717-2.185.024-.552-.405-1.019-.957-1.043s-1.019.405-1.043.957c-.005.1.013.208.014.313-.176-.049-.356-.086-.537-.111-1.102-.119-2.206.209-3.065.911l-.823.669c-.277.225-.413.582-.357.935.057.353.297.649.631.776.334.128.711.067.988-.158l.822-.669c.447-.366 1.021-.537 1.595-.476s1.099.35 1.459.802c.757.942.612 2.318-.324 3.082-.277.225-.414.581-.357.934.056.353.297.649.63.776.334.128.71.067.988-.158.8-.655 1.327-1.584 1.48-2.607 1.78.81 3.865.534 5.373-.711 2.241-1.831 2.589-5.126.779-7.384-.1-.124-.389-.474-.429-.534-.902-.963-.869-2.471.074-3.394.414-.327.942-.475 1.466-.409.727.093 1.387.469 1.838 1.047.352.405.961.46 1.38.125s.498-.941.18-1.373z" fill="#efc319"/><path id="Shape" d="m13.71 42.311 2.82 3.671c.156.188.241.425.24.67 0 .318-.143.619-.39.82-.221.177-.361.435-.391.717-.03.281.053.563.231.783l1.33 1.65c.174.222.431.364.711.394s.561-.054.779-.234c.216-.178.495-.262.774-.231.279.03.533.171.706.391l1.33 1.65c.369.457.302 1.125-.15 1.5l-5.76 4.67c-.453.369-1.119.302-1.49-.15l-1.33-1.66c-.18-.217-.264-.498-.234-.779.03-.28.172-.537.394-.711.452-.375.519-1.043.15-1.5l-1.33-1.65c-.172-.222-.427-.364-.706-.394s-.558.054-.774.234c-.218.178-.498.261-.778.231s-.536-.171-.712-.391l-2.82-3.67 1.69-5.322z" fill="#f19b1f"/><path id="Shape_3_" d="m34.38 25.531-30.057 24.401c-.768.705-1.962.656-2.67-.11l-1.3-1.62c-.598-.86-.393-2.042.461-2.65l30.045-24.391 3.141.839z" fill="#efc319"/><path id="Shape_4_" d="m34.687 25.91-4.136-5.142c-.693-.865-.559-2.127.3-2.827l.18-.146c.412-.335.941-.492 1.469-.435.528.056 1.012.321 1.344.735l4.136 5.142c.694.865.56 2.127-.3 2.827l-.18.147c-.413.333-.941.489-1.469.432-.527-.056-1.011-.32-1.344-.733z" fill="#f19b1f"/><path id="Shape_5_" d="m37.978 23.236-4.136-5.142c-.694-.864-.56-2.127.3-2.826l.18-.147c.412-.335.941-.492 1.469-.435.528.056 1.012.321 1.344.735l4.136 5.142c.694.864.56 2.127-.3 2.826l-.181.147c-.412.335-.94.492-1.468.436s-1.012-.322-1.344-.736z" fill="#f2d45b"/></g></svg>