<?xml version="1.0" encoding="UTF-8" standalone="no" ?>
<!DOCTYPE svg PUBLIC "-//W3C//DTD SVG 1.1//EN" "http://www.w3.org/Graphics/SVG/1.1/DTD/svg11.dtd">
<svg xmlns="http://www.w3.org/2000/svg" xmlns:xlink="http://www.w3.org/1999/xlink" version="1.1" width="720" height="720" viewBox="0 0 720 720" xml:space="preserve">
<desc>Created with Fabric.js 4.2.0</desc>
<defs>
</defs>
<rect x="0" y="0" width="100%" height="100%" fill="transparent"></rect>
<g transform="matrix(1 0 0 1 360 360)" id="1b611884-6b14-41d1-85aa-cb9b3af04acb"  >
<rect style="stroke: none; stroke-width: 1; stroke-dasharray: none; stroke-linecap: butt; stroke-dashoffset: 0; stroke-linejoin: miter; stroke-miterlimit: 4; fill: rgb(255,255,255); fill-opacity: 0; fill-rule: nonzero; opacity: 1;" vector-effect="non-scaling-stroke"  x="-360" y="-360" rx="0" ry="0" width="720" height="720" />
</g>
<g transform="matrix(0 0 0 0 0 0)" id="099a0cde-e345-4787-9a8d-dbca54d07a07"  >
</g>
<g transform="matrix(-1.02 0 0 -1.02 361.59 361.59)"  >
<g style="" vector-effect="non-scaling-stroke"   >
		<g transform="matrix(1.33 0 0 1.33 0.06 0.12)"  >
<path style="stroke: none; stroke-width: 1; stroke-dasharray: none; stroke-linecap: butt; stroke-dashoffset: 0; stroke-linejoin: miter; stroke-miterlimit: 4; fill: rgb(159,201,211); fill-rule: nonzero; opacity: 1;" vector-effect="non-scaling-stroke"  transform=" translate(-256.04, -256.55)" d="M 451.742188 91.53125 L 423.66796899999997 63.109375 C 322.14843799999994 -24.675781 170.07031199999997 -19.15625 75.18359399999997 75.757812 C -19.70312500000003 170.667969 -25.18750000000003 322.74609399999997 62.62109399999997 424.246094 L 91.13281199999997 452.31640600000003 C 192.82812499999997 537.7929690000001 343.003906 531.28125 436.91796899999997 437.324219 C 530.828125 343.36328100000003 537.265625 193.18359400000003 451.74218799999994 91.53125 z M 451.742188 91.53125" stroke-linecap="round" />
</g>
		<g transform="matrix(1.33 0 0 1.33 -0.13 -0.1)"  >
<path style="stroke: none; stroke-width: 1; stroke-dasharray: none; stroke-linecap: butt; stroke-dashoffset: 0; stroke-linejoin: miter; stroke-miterlimit: 4; fill: rgb(68,130,195); fill-rule: nonzero; opacity: 1;" vector-effect="non-scaling-stroke"  transform=" translate(-255.89, -256.38)" d="M 430.113281 228.007812 L 430.113281 227.917969 L 402.304688 157.738281 C 362.507812 98.628906 291.08203100000003 69.238281 221.207031 83.222656 C 151.335938 97.207031 96.71875 151.824219 82.734375 221.695312 C 68.75 291.56640600000003 98.144531 362.99609399999997 157.253906 402.79296899999997 L 227.433594 430.6875 C 236.859375 432.214844 246.394531 432.984375 255.945312 432.984375 C 353.4375 432.949219 432.460938 353.92578100000003 432.49609399999997 256.43359399999997 C 432.51171899999997 246.90624999999997 431.71484399999997 237.39843799999997 430.113281 228.00781199999997 z M 368.58593799999994 278.765625 C 359.41406199999994 324.304688 323.82031199999994 359.90234399999997 278.27734399999997 369.070312 L 238.11328099999997 369.777344 C 180.05468799999997 360.65625 138.26953099999997 309.14453100000003 141.32031199999997 250.45312500000003 C 144.37109399999997 191.75781200000003 191.27343799999997 144.85546900000003 249.96484399999997 141.80468800000003 C 308.65625 138.75390600000003 360.171875 180.53906200000003 369.29296899999997 238.60156200000003 z M 368.58593799999994 278.765625" stroke-linecap="round" />
</g>
		<g transform="matrix(1.33 0 0 1.33 -0.93 -0.97)"  >
<path style="stroke: none; stroke-width: 1; stroke-dasharray: none; stroke-linecap: butt; stroke-dashoffset: 0; stroke-linejoin: miter; stroke-miterlimit: 4; fill: rgb(230,76,60); fill-rule: nonzero; opacity: 1;" vector-effect="non-scaling-stroke"  transform=" translate(-255.3, -255.72)" d="M 255.945312 141.671875 C 196.078125 141.734375 146.316406 187.804688 141.652344 247.488281 C 136.988281 307.171875 178.984375 360.414062 238.113281 369.77734399999997 L 278.27734399999997 369.07031199999994 C 323.82031199999994 359.90234399999997 359.41406199999994 324.30468799999994 368.58593799999994 278.76562499999994 L 369.2929689999999 238.60156199999994 C 360.4531249999999 182.83203099999994 312.4101559999999 141.74999999999994 255.94531199999992 141.67187499999994 z M 255.945312 300.570312 C 231.566406 300.570312 211.808594 280.808594 211.808594 256.43359399999997 C 211.808594 232.05468799999997 231.566406 212.29296899999997 255.945312 212.29296899999997 C 280.320312 212.29296899999997 300.08203100000003 232.05468799999997 300.08203100000003 256.43359399999997 C 300.08203100000003 280.80859399999997 280.32031200000006 300.57031199999994 255.94531200000003 300.57031199999994 z M 255.945312 300.570312" stroke-linecap="round" />
</g>
		<g transform="matrix(1.33 0 0 1.33 -0.06 -0.03)"  >
<path style="stroke: none; stroke-width: 1; stroke-dasharray: none; stroke-linecap: butt; stroke-dashoffset: 0; stroke-linejoin: miter; stroke-miterlimit: 4; fill: rgb(240,196,25); fill-rule: nonzero; opacity: 1;" vector-effect="non-scaling-stroke"  transform=" translate(-255.95, -256.43)" d="M 300.082031 256.433594 C 300.082031 280.808594 280.32031199999994 300.57031200000006 255.94531199999997 300.57031200000006 C 231.56640599999997 300.57031200000006 211.80859399999997 280.8085940000001 211.80859399999997 256.4335940000001 C 211.80859399999997 232.05468800000008 231.56640599999997 212.29296900000008 255.94531199999997 212.29296900000008 C 280.32031199999994 212.29296900000008 300.082031 232.05468800000008 300.082031 256.4335940000001 z M 300.082031 256.433594" stroke-linecap="round" />
</g>
		<g transform="matrix(1.33 0 0 1.33 -281.99 -281.94)"  >
<path style="stroke: none; stroke-width: 1; stroke-dasharray: none; stroke-linecap: butt; stroke-dashoffset: 0; stroke-linejoin: miter; stroke-miterlimit: 4; fill: rgb(240,196,25); fill-rule: nonzero; opacity: 1;" vector-effect="non-scaling-stroke"  transform=" translate(-44.1, -44.59)" d="M 41.300781 79.246094 L 2.59375 40.519531 C 1.34375 39.25 0.9765619999999999 37.359375 1.664062 35.714844 C 2.351562 34.074219 3.9570309999999997 33.007812 5.734375 33.003906 L 28.027344 32.917969 C 30.464844 32.917969 32.4375 30.941406 32.4375 28.503906 L 32.527344 6.207031000000001 C 32.539062 4.433594000000001 33.609375 2.8398440000000007 35.246094 2.156250000000001 C 36.878906 1.4765620000000008 38.765625 1.839844000000001 40.03125 3.0820310000000006 L 78.757812 41.796875 C 80.101562 43.136719 80.964844 44.878906 81.21875 46.757812 L 86.871094 87.367188 L 46.261719 81.726562 C 44.382812 81.460938 42.640625 80.589844 41.300781 79.246094 z M 41.300781 79.246094" stroke-linecap="round" />
</g>
		<g transform="matrix(1.33 0 0 1.33 295.28 295.31)"  >
<path style="stroke: none; stroke-width: 1; stroke-dasharray: none; stroke-linecap: butt; stroke-dashoffset: 0; stroke-linejoin: miter; stroke-miterlimit: 4; fill: rgb(240,196,25); fill-rule: nonzero; opacity: 1;" vector-effect="non-scaling-stroke"  transform=" translate(-477.88, -478.37)" d="M 511.785156 506.3125 C 512.2070309999999 507.988281 511.71875 509.761719 510.49609399999997 510.984375 C 509.27734399999997 512.207031 507.503906 512.695312 505.82812499999994 512.273438 L 470.1289059999999 502.86328100000003 L 447.3281249999999 496.83203100000003 C 445.6796879999999 496.382812 444.3984379999999 495.08203100000003 443.97265599999986 493.42578100000003 C 443.5468749999999 491.77343800000006 444.04296899999986 490.01562500000006 445.26953099999986 488.82812500000006 L 488.33984399999986 445.75781200000006 C 489.52734399999986 444.53125000000006 491.28515599999986 444.0351560000001 492.94140599999986 444.46093800000006 C 494.59765599999986 444.886719 495.89453099999986 446.16406200000006 496.34765599999986 447.81250000000006 L 502.3749999999999 470.61718800000006 z M 511.785156 506.3125" stroke-linecap="round" />
</g>
		<g transform="matrix(1.33 0 0 1.33 -20.91 -20.96)"  >
<path style="stroke: none; stroke-width: 1; stroke-dasharray: none; stroke-linecap: butt; stroke-dashoffset: 0; stroke-linejoin: miter; stroke-miterlimit: 4; fill: rgb(53,73,94); fill-rule: nonzero; opacity: 1;" vector-effect="non-scaling-stroke"  transform=" translate(-240.28, -240.7)" d="M 237.582031 225.648438 C 298.234375 164.828125 363.890625 109.207031 433.85546899999997 59.382812 C 436.58984399999997 57.628906 438.14062499999994 54.511719 437.88671899999997 51.273438 C 437.63671899999997 48.035156 435.628906 45.195312 432.65624999999994 43.878906 C 429.68749999999994 42.566406 426.23437499999994 42.992188 423.66796899999997 44.984375 C 352.88281199999994 95.386719 286.46093799999994 151.648438 225.10156199999997 213.175781 L 93.13671899999997 81.140625 C 89.67578099999997 77.796875 84.16796899999997 77.84375 80.76171899999997 81.25 C 77.35937499999997 84.65625 77.30859399999997 90.160156 80.65624999999997 93.625 L 212.76171899999997 225.738281 C 155.24999999999997 284.62109399999997 102.08984399999997 347.601562 53.69531199999997 414.179688 L 45.74999999999997 422.726562 C 42.91796899999997 425.132812 41.89843799999997 429.054688 43.19531199999997 432.53515600000003 C 44.49609399999997 436.01953100000003 47.83593799999997 438.31640600000003 51.55078099999997 438.28125000000006 C 54.02343799999997 438.28125000000006 56.38671899999997 437.25390600000003 58.07421899999997 435.44531200000006 L 67.03515599999997 425.8085940000001 C 67.26562499999997 425.5507810000001 67.48437499999997 425.2773440000001 67.69531199999997 424.9960940000001 C 115.61718799999997 359.0039060000001 168.27343799999997 296.5781250000001 225.24218799999997 238.21875000000009 L 274.675781 287.6562500000001 L 281.472656 294.5390620000001 C 283.16796899999997 296.2265620000001 285.457031 297.1796880000001 287.847656 297.1875000000001 C 291.488281 297.1601560000001 294.738281 294.8945310000001 296.02734399999997 291.4921880000001 C 297.32031199999994 288.0859380000001 296.38671899999997 284.2382810000001 293.68359399999997 281.8007810000001 z M 237.582031 225.648438" stroke-linecap="round" />
</g>
		<g transform="matrix(1.33 0 0 1.33 178.06 178.09)"  >
<path style="stroke: none; stroke-width: 1; stroke-dasharray: none; stroke-linecap: butt; stroke-dashoffset: 0; stroke-linejoin: miter; stroke-miterlimit: 4; fill: rgb(53,73,94); fill-rule: nonzero; opacity: 1;" vector-effect="non-scaling-stroke"  transform=" translate(-389.79, -390.28)" d="M 472.546875 460.550781 L 319.742188 307.74609399999997 C 317.52734399999997 305.45312499999994 314.242188 304.53124999999994 311.15625 305.33984399999997 C 308.070312 306.148438 305.660156 308.55859399999997 304.851562 311.644531 C 304.042969 314.73046899999997 304.964844 318.01171899999997 307.257812 320.23046899999997 L 460.06640600000003 473.035156 C 463.527344 476.378906 469.03515600000003 476.332031 472.44140600000003 472.925781 C 475.84375000000006 469.523438 475.89453100000003 464.015625 472.54687500000006 460.550781 z M 472.546875 460.550781" stroke-linecap="round" />
</g>
		<g transform="matrix(1.33 0 0 1.33 0 -0.05)"  >
<path style="stroke: none; stroke-width: 1; stroke-dasharray: none; stroke-linecap: butt; stroke-dashoffset: 0; stroke-linejoin: miter; stroke-miterlimit: 4; fill: rgb(128,83,51); fill-rule: nonzero; opacity: 1;" vector-effect="non-scaling-stroke"  transform=" translate(-255.99, -256.42)" d="M 498.367188 36.261719 C 487.976562 39.871094 478.57421899999997 45.855469 470.90625 53.742188 C 460.046875 64.597656 436.56640600000003 113.953125 437.71484399999997 189.96875 C 438.98046899999997 224.332031 419.28906199999994 256.03515600000003 387.925781 270.132812 L 385.01171899999997 271.367188 C 362.0625 281.52734399999997 333.363281 294.15234399999997 313.50781199999994 314.015625 C 293.65624999999994 333.875 280.93749999999994 362.56640600000003 270.87109399999997 385.61328100000003 L 269.63671899999997 388.44140600000003 C 255.60937499999997 419.87890600000003 223.86328099999997 439.61328100000003 189.46484399999997 438.28125 C 113.45703099999997 437.222656 64.11328099999997 460.61328100000003 53.24609399999997 471.47265600000003 C 45.30078099999997 479.21093800000006 39.28515599999997 488.703125 35.67968799999997 499.19140600000003 C 32.92968799999997 508.72265600000003 23.05468799999997 514.2929690000001 13.472655999999969 511.71875 C 3.8945309999999687 509.144531 -1.8554690000000313 499.37109399999997 0.546874999999968 489.74609399999997 C 5.710937999999968 473.07031199999994 14.964843999999967 457.957031 27.468749999999968 445.77343799999994 C 45.83203099999997 427.41406199999994 104.19140599999997 400.65624999999994 189.99218799999997 401.8945309999999 C 209.76953099999997 403.0429689999999 228.20703099999997 391.8789059999999 236.34765599999997 373.82031199999994 L 237.58203099999997 370.99609399999997 C 248.26562499999997 346.54296899999997 263.00781199999994 313.078125 287.722656 288.359375 C 312.441406 263.64453100000003 345.984375 248.894531 370.44921899999997 238.125 L 373.273438 236.886719 C 391.3125 228.726562 402.46875 210.300781 401.34375 190.535156 C 400.109375 104.722656 426.85546899999997 46.363281 445.12890600000003 28.105469 C 457.339844 15.582030999999999 472.480469 6.296875 489.17968800000006 1.0859379999999987 C 498.90625000000006 -1.4531250000000013 508.85156200000006 4.378905999999999 511.39062500000006 14.105469 C 513.925781 23.835938 508.09765600000003 33.777344 498.36718800000006 36.316406 z M 498.367188 36.261719" stroke-linecap="round" />
</g>
</g>
</g>
<g transform="matrix(1 0 0 1 533.76 583.64)" style="filter: url(#SVGID_1674);" id="849eb907-2d71-462c-903c-5d20216c3171"  >
<filter id="SVGID_1674" y="-32%" height="164%" x="-28%" width="156%" >
	<feGaussianBlur in="SourceAlpha" stdDeviation="7"></feGaussianBlur>
	<feOffset dx="11" dy="11" result="oBlur" ></feOffset>
	<feFlood flood-color="rgb(255,153,255)" flood-opacity="1"/>
	<feComposite in2="oBlur" operator="in" />
	<feMerge>
		<feMergeNode></feMergeNode>
		<feMergeNode in="SourceGraphic"></feMergeNode>
	</feMerge>
</filter>
		<text xml:space="preserve" font-family="Lato" font-size="186" font-style="normal" font-weight="400" style="stroke: none; stroke-width: 1; stroke-dasharray: none; stroke-linecap: butt; stroke-dashoffset: 0; stroke-linejoin: miter; stroke-miterlimit: 4; fill: rgb(255,0,255); fill-rule: nonzero; opacity: 1; white-space: pre;" ><tspan x="-132.71" y="58.43" >Set</tspan></text>
</g>
</svg>