<svg id="Capa_1" enable-background="new 0 0 512 512" height="512" viewBox="0 0 512 512" width="512" xmlns="http://www.w3.org/2000/svg"><g><path d="m337.579 321.059c-4.646-4.646-7.257-10.948-7.257-17.518l.091-14.746-128.92 5.221-48.427 72.193 102.934 79.726 114.988-91.833z" fill="#fbbd80"/><path d="m181.333 247.742.344 55.799c0 6.571-2.61 12.872-7.257 17.518l-46.178 45.99 12.145 11.211 45.718-45.527c3.952-3.953 7.598-9.993 10.236-16.438 3.185-7.782 12.08-11.753 20.04-9.044 12.435 4.232 25.748 6.554 39.618 6.554 27.967 0 53.68-9.379 74.413-25.011l.254-41.053h-149.333z" fill="#f4aa73"/><path d="m380.743 338.581c-35.537 26.053-78.517 41.29-124.815 41.29-45.858 0-88.46-14.949-123.799-40.549l-33.032 139.646 16.516 33.032h280.774l16.516-33.032z" fill="#a46a5a"/><path d="m280.774 487.226v-109.006c-8.172.98-16.43 1.651-24.846 1.651-8.366 0-16.577-.663-24.702-1.632v108.986c0 13.683 11.092 24.775 24.774 24.775s24.774-11.092 24.774-24.774z" fill="#e29a6c"/><path d="m404.645 437.677v66.065c0 4.561 3.697 8.258 8.258 8.258h66.065c4.561 0 8.258-3.697 8.258-8.258v-49.548l-33.032-27.026z" fill="#c9c5c9"/><path d="m33.032 445.935v57.806c0 4.561 3.697 8.258 8.258 8.258h74.323v-74.323z" fill="#c9c5c9"/><path d="m24.774 371.613v132.129c0 4.561 3.697 8.258 8.258 8.258h8.258v-41.29c0-9.122 7.395-16.516 16.516-16.516h41.29c18.243 0 33.032-14.789 33.032-33.032v-49.548h-107.354z" fill="#b8b2b8"/><path d="m346.838 0h-33.032l-9.406 7.713-7.11-7.713h-33.032l-8.284 7.713-8.232-7.713h-16.516l-8.21 7.713-8.306-7.713h-33.032c-18.243 0-33.032 14.789-33.032 33.032v140.387h231.224v-140.387c0-18.243-14.789-33.032-33.032-33.032z" fill="#e29a6c"/><g fill="#d48c64"><path d="m132.129 33.032v140.387h49.549v-173.419h-16.517c-18.244 0-33.032 14.789-33.032 33.032z"/><path d="m214.71 0h16.516v90.839h-16.516z"/><path d="m247.742 0h16.516v90.839h-16.516z"/></g><path d="m297.29 0h16.516v90.839h-16.516z" fill="#f4aa73"/><path d="m375.742 156.903h-12.387c-9.121 0-16.516-7.395-16.516-16.516v-24.774c0-18.243-14.789-33.032-33.032-33.032h-115.613c-6.01 0-11.645 1.605-16.5 4.41l-11.813 35.905 1.569 75.298c4.23 55.419 28.047 97.953 84.55 97.953 5.742 0 11.377.693 16.873-.176 48.585-7.679 86.258-47.99 90.059-97.777h11.632c10.799 0 20.641-7.771 21.716-18.516 1.237-12.359-8.434-22.775-20.538-22.775z" fill="#ffd18d"/><path d="m206.452 181.677c-4.565 0-8.258-3.698-8.258-8.258v-8.258c0-4.56 3.694-8.258 8.258-8.258s8.258 3.698 8.258 8.258v8.258c0 4.561-3.694 8.258-8.258 8.258z" fill="#7a4646"/><path d="m305.548 181.677c-4.565 0-8.258-3.698-8.258-8.258v-8.258c0-4.56 3.694-8.258 8.258-8.258 4.565 0 8.258 3.698 8.258 8.258v8.258c0 4.561-3.693 8.258-8.258 8.258z" fill="#7a4646"/><path d="m256 239.484c-12.387 0-23.823-3.976-30.573-10.637-3.25-3.202-3.282-8.431-.081-11.677s8.444-3.282 11.677-.081c2.75 2.714 9.371 5.879 18.976 5.879s16.226-3.165 18.976-5.879c3.234-3.202 8.476-3.165 11.677.081 3.202 3.246 3.169 8.476-.081 11.677-6.748 6.661-18.184 10.637-30.571 10.637z" fill="#f4aa73"/><path d="m214.718 152.085c-.556 0-1.121-.056-1.694-.173l-16.516-3.44c-4.46-.931-7.331-5.302-6.395-9.77.919-4.464 5.242-7.335 9.766-6.399l16.516 3.44c4.46.931 7.331 5.302 6.395 9.77-.806 3.894-4.242 6.572-8.072 6.572z" fill="#c6805d"/><path d="m297.282 152.085c-3.831 0-7.266-2.677-8.073-6.573-.935-4.468 1.935-8.839 6.395-9.77l16.516-3.44c4.484-.935 8.839 1.935 9.766 6.399.935 4.468-1.935 8.839-6.395 9.77l-16.516 3.44c-.572.117-1.136.174-1.693.174z" fill="#c6805d"/><path d="m140.387 305.548h-24.774l-115.613 82.581v24.774c0 4.56 3.697 8.258 8.258 8.258h66.065c41.047 0 74.323-33.276 74.323-74.323v-33.032c-.001-4.561-3.698-8.258-8.259-8.258z" fill="#dbd8db"/><circle cx="181.677" cy="421.161" fill="#845252" r="16.516"/><circle cx="330.323" cy="421.161" fill="#845252" r="16.516"/><path d="m379.871 379.871v41.29c0 12.196 6.684 22.729 16.516 28.451v62.388h16.516v-41.29c0-9.122 7.395-16.516 16.516-16.516h57.806v-74.323z" fill="#b8b2b8"/><path d="m181.677 189.935v-102.945c-9.832 5.722-16.516 16.427-16.516 28.623v24.774c0 9.121-7.395 16.516-16.516 16.516h-11.207c-10.799 0-20.641 7.77-21.718 18.515-1.238 12.358 8.433 22.775 20.538 22.775h12.804c4.23 55.419 50.435 99.097 106.938 99.097 5.649 0 11.462-.478 16.873-1.32-51.453-7.94-91.196-52.358-91.196-106.035z" fill="#fbbd80"/><path d="m82.581 305.548c-45.608 0-82.581 36.973-82.581 82.581h74.323c22.804 0 41.29-18.486 41.29-41.29v-41.29h-33.032z" fill="#c9c5c9"/><path d="m503.742 421.161h-66.065c-41.047 0-74.323-33.275-74.323-74.323v-33.032c0-4.561 3.697-8.258 8.258-8.258h24.774l115.614 82.581v24.774c0 4.561-3.697 8.258-8.258 8.258z" fill="#dbd8db"/><path d="m429.419 305.548c45.608 0 82.581 36.972 82.581 82.581h-74.323c-22.804 0-41.29-18.486-41.29-41.29v-41.29h33.032z" fill="#c9c5c9"/></g></svg>