<?xml version="1.0" encoding="UTF-8" standalone="no" ?>
<!DOCTYPE svg PUBLIC "-//W3C//DTD SVG 1.1//EN" "http://www.w3.org/Graphics/SVG/1.1/DTD/svg11.dtd">
<svg xmlns="http://www.w3.org/2000/svg" xmlns:xlink="http://www.w3.org/1999/xlink" version="1.1" width="720" height="720" viewBox="0 0 720 720" xml:space="preserve">
<desc>Created with Fabric.js 4.2.0</desc>
<defs>
</defs>
<rect x="0" y="0" width="100%" height="100%" fill="transparent"></rect>
<g transform="matrix(1 0 0 1 360 360)" id="088ff5e9-cec8-4b99-9d85-4d7f1d684ffe"  >
<rect style="stroke: none; stroke-width: 1; stroke-dasharray: none; stroke-linecap: butt; stroke-dashoffset: 0; stroke-linejoin: miter; stroke-miterlimit: 4; fill: rgb(255,255,255); fill-opacity: 0; fill-rule: nonzero; opacity: 1;" vector-effect="non-scaling-stroke"  x="-360" y="-360" rx="0" ry="0" width="720" height="720" />
</g>
<g transform="matrix(0 0 0 0 0 0)" id="10e72e25-f349-42f5-adff-9246252ebd1e"  >
</g>
<g transform="matrix(0 -1.35 1.35 0 359.98 359.98)"  >
<g style="" vector-effect="non-scaling-stroke"   >
		<g transform="matrix(1 0 0 1 1.13 0.89)"  >
<path style="stroke: none; stroke-width: 1; stroke-dasharray: none; stroke-linecap: butt; stroke-dashoffset: 0; stroke-linejoin: miter; stroke-miterlimit: 4; fill: rgb(201,202,202); fill-rule: nonzero; opacity: 1;" vector-effect="non-scaling-stroke"  transform=" translate(-257.13, -257.38)" d="M 503.148438 510.902344 C 501.226562 510.902344 499.30859399999997 510.171875 497.84375 508.70703100000003 L 5.804687999999999 16.664062 C 2.8749999999999987 13.734375000000002 2.8749999999999987 8.988281 5.804687999999999 6.058594000000001 C 8.734374999999998 3.128906000000001 13.480469 3.128906000000001 16.410156 6.058594000000001 L 508.453125 498.09765600000003 C 511.378906 501.03125000000006 511.378906 505.777344 508.453125 508.70703100000003 C 506.984375 510.17187500000006 505.066406 510.902344 503.148438 510.902344 z M 503.148438 510.902344" stroke-linecap="round" />
</g>
		<g transform="matrix(1 0 0 1 -134.98 134.97)"  >
<path style="stroke: none; stroke-width: 1; stroke-dasharray: none; stroke-linecap: butt; stroke-dashoffset: 0; stroke-linejoin: miter; stroke-miterlimit: 4; fill: rgb(225,95,118); fill-rule: nonzero; opacity: 1;" vector-effect="non-scaling-stroke"  transform=" translate(-121.02, -391.46)" d="M 161.421875 337.960938 L 129.253906 331.875 C 124.140625 330.910156 118.882812 332.53125 115.203125 336.210938 L 63.433594 387.98046899999997 C 59.035156 392.378906 61.359375 399.910156 67.472656 401.066406 L 104.429688 408.05859399999997 L 111.421875 445.015625 C 112.578125 451.128906 120.105469 453.453125 124.507812 449.050781 L 176.277344 397.28125 C 179.957031 393.601562 181.578125 388.34375 180.609375 383.234375 L 174.523438 351.06640600000003 C 173.265625 344.417969 168.066406 339.21875 161.421875 337.96093800000006 z M 161.421875 337.960938" stroke-linecap="round" />
</g>
		<g transform="matrix(1 0 0 1 -140.42 113.34)"  >
<path style="stroke: none; stroke-width: 1; stroke-dasharray: none; stroke-linecap: butt; stroke-dashoffset: 0; stroke-linejoin: miter; stroke-miterlimit: 4; fill: rgb(203,85,106); fill-rule: nonzero; opacity: 1;" vector-effect="non-scaling-stroke"  transform=" translate(-115.58, -369.83)" d="M 129.253906 331.878906 C 124.140625 330.910156 118.882812 332.53125 115.203125 336.210938 L 63.433594 387.98046899999997 C 59.035156 392.378906 61.359375 399.910156 67.472656 401.066406 L 104.429688 408.05859399999997 L 169.992188 342.49218799999994 C 167.703125 340.2070309999999 164.742188 338.5898439999999 161.417969 337.96093799999994 z M 129.253906 331.878906" stroke-linecap="round" />
</g>
		<g transform="matrix(1 0 0 1 18.62 -18.63)"  >
<path style="stroke: none; stroke-width: 1; stroke-dasharray: none; stroke-linecap: butt; stroke-dashoffset: 0; stroke-linejoin: miter; stroke-miterlimit: 4; fill: rgb(122,79,66); fill-rule: nonzero; opacity: 1;" vector-effect="non-scaling-stroke"  transform=" translate(-274.62, -237.86)" d="M 104.429688 415.558594 C 102.507812 415.558594 100.589844 414.828125 99.125 413.36328100000003 C 96.195312 410.433594 96.195312 405.683594 99.125 402.75390600000003 L 439.511719 62.367188000000056 C 442.44140600000003 59.43750000000006 447.19140600000003 59.433594000000056 450.121094 62.367188000000056 C 453.05078100000003 65.29687500000006 453.05078100000003 70.04296900000006 450.121094 72.97265600000006 L 109.73046900000003 413.36328100000003 C 108.26562500000003 414.82812500000006 106.34765600000003 415.558594 104.42968800000003 415.558594 z M 104.429688 415.558594" stroke-linecap="round" />
</g>
		<g transform="matrix(1 0 0 1 0 0)"  >
<path style="stroke: none; stroke-width: 1; stroke-dasharray: none; stroke-linecap: butt; stroke-dashoffset: 0; stroke-linejoin: miter; stroke-miterlimit: 4; fill: rgb(155,106,87); fill-rule: nonzero; opacity: 1;" vector-effect="non-scaling-stroke"  transform=" translate(-256, -256.49)" d="M 199.398438 35.660156 L 113.820312 35.660156 C 79.164062 35.660156 45.476562 24.234375 17.96875 3.1484379999999987 L 17.527344 2.8124999999999987 C 13.09375 -0.5859380000000014 7.0078119999999995 -0.18359400000000115 3.171875 3.6562499999999987 C -1.0585940000000003 7.8828119999999995 -1.0585940000000003 14.738280999999999 3.171875 18.964844 L 8.128906 23.925781 C 37.675781 53.472656 77.746094 70.070312 119.53125 70.070312 L 194.292969 70.070312 C 201.683594 70.070312 208.773438 73.007812 214.003906 78.234375 L 434.25390600000003 298.484375 C 439.480469 303.710938 442.417969 310.80078100000003 442.417969 318.195312 L 442.417969 392.95703100000003 C 442.417969 434.73828100000003 459.015625 474.808594 488.558594 504.355469 L 493.51953100000003 509.31640600000003 C 497.746094 513.5429690000001 504.60156200000006 513.5429690000001 508.828125 509.31640600000003 C 512.667969 505.476562 513.070312 499.386719 509.765625 495.078125 L 509.332031 494.511719 C 488.253906 467.007812 476.828125 433.324219 476.828125 398.671875 L 476.828125 313.085938 C 476.828125 299.83984399999997 471.5625 287.132812 462.195312 277.765625 L 348.45703100000003 164.027344 L 234.72265600000003 50.289062 C 225.35546900000003 40.921875 212.64843800000003 35.660156 199.39843800000003 35.660156 z M 199.398438 35.660156" stroke-linecap="round" />
</g>
		<g transform="matrix(1 0 0 1 0 0)"  >
<path style="stroke: none; stroke-width: 1; stroke-dasharray: none; stroke-linecap: butt; stroke-dashoffset: 0; stroke-linejoin: miter; stroke-miterlimit: 4; fill: rgb(139,95,78); fill-rule: nonzero; opacity: 1;" vector-effect="non-scaling-stroke"  transform=" translate(-256, -256.5)" d="M 507.398438 495.4375 L 502.4375 490.476562 C 472.89453100000003 460.929688 456.296875 420.859375 456.296875 379.07421899999997 L 456.296875 304.3125 C 456.296875 296.921875 453.359375 289.83203100000003 448.132812 284.601562 L 338.007812 174.480469 L 227.882812 64.355469 C 222.65625 59.128906 215.566406 56.191406 208.171875 56.191406 L 133.410156 56.191406 C 91.628906 56.191406 51.554688 39.59375 22.011719 10.046875 L 17.050781 5.085938 C 15.90625 3.9453119999999995 15.085938 2.605469 14.558594000000001 1.1835939999999998 C 10.640625000000002 -0.25781200000000015 6.207031000000001 0.6210939999999998 3.1718750000000018 3.65625 C -1.0585939999999985 7.882812 -1.0585939999999985 14.738281 3.1718750000000018 18.964844 L 8.128906 23.925781 C 37.675781 53.472656 77.746094 70.070312 119.53125 70.070312 L 194.292969 70.070312 C 201.683594 70.070312 208.773438 73.007812 214.003906 78.234375 L 434.25390600000003 298.484375 C 439.480469 303.710938 442.417969 310.80078100000003 442.417969 318.195312 L 442.417969 392.95703100000003 C 442.417969 434.73828100000003 459.015625 474.808594 488.558594 504.355469 L 493.51953100000003 509.31640600000003 C 497.746094 513.5429690000001 504.60156200000006 513.5429690000001 508.828125 509.31640600000003 C 511.878906 506.26953100000003 512.75 501.80468800000006 511.332031 497.9375 C 509.898438 497.414062 508.550781 496.585938 507.398438 495.4375 z M 507.398438 495.4375" stroke-linecap="round" />
</g>
		<g transform="matrix(1 0 0 1 80.29 -80.3)"  >
<path style="stroke: none; stroke-width: 1; stroke-dasharray: none; stroke-linecap: butt; stroke-dashoffset: 0; stroke-linejoin: miter; stroke-miterlimit: 4; fill: rgb(249,153,62); fill-rule: nonzero; opacity: 1;" vector-effect="non-scaling-stroke"  transform=" translate(-336.29, -176.19)" d="M 400.140625 215.054688 L 375.15625 240.039062 C 371.707031 243.492188 366.11328100000003 243.492188 362.664062 240.039062 L 272.445312 149.820312 C 268.996094 146.371094 268.996094 140.78125 272.445312 137.328125 L 297.429688 112.34375 C 300.878906 108.894531 306.472656 108.894531 309.921875 112.34375 L 400.140625 202.5625 C 403.589844 206.015625 403.589844 211.605469 400.140625 215.054688 z M 400.140625 215.054688" stroke-linecap="round" />
</g>
		<g transform="matrix(1 0 0 1 73.45 -73.45)"  >
<path style="stroke: none; stroke-width: 1; stroke-dasharray: none; stroke-linecap: butt; stroke-dashoffset: 0; stroke-linejoin: miter; stroke-miterlimit: 4; fill: rgb(229,141,57); fill-rule: nonzero; opacity: 1;" vector-effect="non-scaling-stroke"  transform=" translate(-329.45, -183.04)" d="M 376.542969 226.160156 L 286.324219 135.941406 C 282.875 132.492188 282.875 126.898438 286.324219 123.449219 L 272.445312 137.328125 C 268.996094 140.78125 268.996094 146.371094 272.445312 149.820312 L 362.664062 240.039062 C 366.11328100000003 243.492188 371.70703100000003 243.492188 375.15625 240.039062 L 389.03515600000003 226.160156 C 385.58593800000006 229.609375 379.996094 229.609375 376.542969 226.160156 z M 376.542969 226.160156" stroke-linecap="round" />
</g>
		<g transform="matrix(1 0 0 1 195.95 -195.96)"  >
<path style="stroke: none; stroke-width: 1; stroke-dasharray: none; stroke-linecap: butt; stroke-dashoffset: 0; stroke-linejoin: miter; stroke-miterlimit: 4; fill: rgb(201,202,202); fill-rule: nonzero; opacity: 1;" vector-effect="non-scaling-stroke"  transform=" translate(-451.95, -60.53)" d="M 489.9375 14.40625 L 409.48828100000003 44.855469 C 405.195312 46.480469 404.011719 51.988281 407.257812 55.230469 L 432.25390600000003 80.230469 L 457.25390600000003 105.230469 C 460.496094 108.472656 466.00781200000006 107.289062 467.62890600000003 103 L 498.08203100000003 22.550781 C 500.007812 17.460938 495.027344 12.476562000000001 489.9375 14.40625 z M 489.9375 14.40625" stroke-linecap="round" />
</g>
		<g transform="matrix(1 0 0 1 195.02 -209.39)"  >
<path style="stroke: none; stroke-width: 1; stroke-dasharray: none; stroke-linecap: butt; stroke-dashoffset: 0; stroke-linejoin: miter; stroke-miterlimit: 4; fill: rgb(183,183,183); fill-rule: nonzero; opacity: 1;" vector-effect="non-scaling-stroke"  transform=" translate(-451.02, -47.11)" d="M 489.9375 14.40625 L 409.48828100000003 44.855469 C 405.195312 46.480469 404.011719 51.988281 407.257812 55.230469 L 432.25390600000003 80.230469 L 496.640625 15.847656 C 495 14.203125 492.480469 13.441406 489.9375 14.40625 z M 489.9375 14.40625" stroke-linecap="round" />
</g>
		<g transform="matrix(1 0 0 1 111.88 -48.68)"  >
<path style="stroke: none; stroke-width: 1; stroke-dasharray: none; stroke-linecap: butt; stroke-dashoffset: 0; stroke-linejoin: miter; stroke-miterlimit: 4; fill: rgb(211,121,47); fill-rule: nonzero; opacity: 1;" vector-effect="non-scaling-stroke"  transform=" translate(-367.88, -207.81)" d="M 400.933594 203.480469 L 346.777344 224.15625 L 334.81640600000003 212.195312 L 389.046875 191.46875 L 400.140625 202.5625 C 400.429688 202.851562 400.699219 203.160156 400.933594 203.480469 z M 400.933594 203.480469" stroke-linecap="round" />
</g>
		<g transform="matrix(1 0 0 1 80.29 -80.3)"  >
<path style="stroke: none; stroke-width: 1; stroke-dasharray: none; stroke-linecap: butt; stroke-dashoffset: 0; stroke-linejoin: miter; stroke-miterlimit: 4; fill: rgb(211,121,47); fill-rule: nonzero; opacity: 1;" vector-effect="non-scaling-stroke"  transform=" translate(-336.29, -176.2)" d="M 369.390625 171.8125 L 315.164062 192.539062 L 303.19140600000003 180.570312 L 357.421875 159.851562 z M 369.390625 171.8125" stroke-linecap="round" />
</g>
		<g transform="matrix(1 0 0 1 48.71 -111.92)"  >
<path style="stroke: none; stroke-width: 1; stroke-dasharray: none; stroke-linecap: butt; stroke-dashoffset: 0; stroke-linejoin: miter; stroke-miterlimit: 4; fill: rgb(211,121,47); fill-rule: nonzero; opacity: 1;" vector-effect="non-scaling-stroke"  transform=" translate(-304.71, -144.57)" d="M 337.765625 140.195312 L 283.53515600000003 160.914062 L 272.44140600000003 149.820312 C 272.152344 149.53125 271.89453100000003 149.230469 271.66015600000003 148.914062 L 325.792969 128.226562 z M 337.765625 140.195312" stroke-linecap="round" />
</g>
</g>
</g>
<g transform="matrix(3.61 0 0 3.61 624 600.86)" style="filter: url(#SVGID_1457);" id="f42727bd-bc40-4e3b-832d-5e77afda711c"  >
<filter id="SVGID_1457" y="-46%" height="192%" x="-54%" width="208%" >
	<feGaussianBlur in="SourceAlpha" stdDeviation="7.5"></feGaussianBlur>
	<feOffset dx="0" dy="0" result="oBlur" ></feOffset>
	<feFlood flood-color="rgb(255,255,0)" flood-opacity="1"/>
	<feComposite in2="oBlur" operator="in" />
	<feMerge>
		<feMergeNode></feMergeNode>
		<feMergeNode in="SourceGraphic"></feMergeNode>
	</feMerge>
</filter>
		<rect opacity="0" fill="rgb(0,0,0)" x="-22.39" y="-28.81" width="44.77" height="57.63"></rect>
		<text xml:space="preserve" font-family="Lato" font-size="51" font-style="normal" font-weight="400" style="stroke: none; stroke-width: 1; stroke-dasharray: none; stroke-linecap: butt; stroke-dashoffset: 0; stroke-linejoin: miter; stroke-miterlimit: 4; fill: rgb(153,204,255); fill-rule: nonzero; opacity: 1; white-space: pre;" ><tspan x="-14.82" y="16.02" >E</tspan></text>
</g>
</svg>