<?xml version="1.0" encoding="UTF-8" standalone="no" ?>
<!DOCTYPE svg PUBLIC "-//W3C//DTD SVG 1.1//EN" "http://www.w3.org/Graphics/SVG/1.1/DTD/svg11.dtd">
<svg xmlns="http://www.w3.org/2000/svg" xmlns:xlink="http://www.w3.org/1999/xlink" version="1.1" width="720" height="720" viewBox="0 0 720 720" xml:space="preserve">
<desc>Created with Fabric.js 4.2.0</desc>
<defs>
</defs>
<rect x="0" y="0" width="100%" height="100%" fill="transparent"></rect>
<g transform="matrix(1 0 0 1 360 360)" id="088ff5e9-cec8-4b99-9d85-4d7f1d684ffe"  >
<rect style="stroke: none; stroke-width: 1; stroke-dasharray: none; stroke-linecap: butt; stroke-dashoffset: 0; stroke-linejoin: miter; stroke-miterlimit: 4; fill: rgb(255,255,255); fill-opacity: 0; fill-rule: nonzero; opacity: 1;" vector-effect="non-scaling-stroke"  x="-360" y="-360" rx="0" ry="0" width="720" height="720" />
</g>
<g transform="matrix(0 0 0 0 0 0)" id="10e72e25-f349-42f5-adff-9246252ebd1e"  >
</g>
<g transform="matrix(3.61 0 0 3.61 624 600.86)" style="filter: url(#SVGID_1546);" id="f42727bd-bc40-4e3b-832d-5e77afda711c"  >
<filter id="SVGID_1546" y="-46%" height="192%" x="-54%" width="208%" >
	<feGaussianBlur in="SourceAlpha" stdDeviation="7.5"></feGaussianBlur>
	<feOffset dx="0" dy="0" result="oBlur" ></feOffset>
	<feFlood flood-color="rgb(0,0,0)" flood-opacity="1"/>
	<feComposite in2="oBlur" operator="in" />
	<feMerge>
		<feMergeNode></feMergeNode>
		<feMergeNode in="SourceGraphic"></feMergeNode>
	</feMerge>
</filter>
		<rect opacity="0" fill="rgb(0,0,0)" x="-22.39" y="-28.81" width="44.77" height="57.63"></rect>
		<text xml:space="preserve" font-family="Lato" font-size="51" font-style="normal" font-weight="400" style="stroke: none; stroke-width: 1; stroke-dasharray: none; stroke-linecap: butt; stroke-dashoffset: 0; stroke-linejoin: miter; stroke-miterlimit: 4; fill: rgb(255,255,204); fill-rule: nonzero; opacity: 1; white-space: pre;" ><tspan x="-17.34" y="16.02" >A</tspan></text>
</g>
<g transform="matrix(1.35 0 0 1.35 359.76 359.76)"  >
<g style="" vector-effect="non-scaling-stroke"   >
		<g transform="matrix(0.71 -0.71 0.71 0.71 -160.35 160.27)"  >
<path style="stroke: none; stroke-width: 1; stroke-dasharray: none; stroke-linecap: butt; stroke-dashoffset: 0; stroke-linejoin: miter; stroke-miterlimit: 4; fill: rgb(251,106,59); fill-rule: nonzero; opacity: 1;" vector-effect="non-scaling-stroke"  transform=" translate(-95.7, -416.3)" d="M 11.368 390.816 L 180.039 390.816 L 180.039 441.78299999999996 L 11.367999999999995 441.78299999999996 z" stroke-linecap="round" />
</g>
		<g transform="matrix(0.71 -0.71 0.71 0.71 -152.2 168.42)"  >
<path style="stroke: none; stroke-width: 1; stroke-dasharray: none; stroke-linecap: butt; stroke-dashoffset: 0; stroke-linejoin: miter; stroke-miterlimit: 4; fill: rgb(251,85,50); fill-rule: nonzero; opacity: 1;" vector-effect="non-scaling-stroke"  transform=" translate(-103.85, -424.45)" d="M 19.519 410.493 L 188.19 410.493 L 188.19 438.409 L 19.519000000000005 438.409 z" stroke-linecap="round" />
</g>
		<g transform="matrix(1 0 0 1 -115.37 115.38)"  >
<path style="stroke: none; stroke-width: 1; stroke-dasharray: none; stroke-linecap: butt; stroke-dashoffset: 0; stroke-linejoin: miter; stroke-miterlimit: 4; fill: rgb(251,85,50); fill-rule: nonzero; opacity: 1;" vector-effect="non-scaling-stroke"  transform=" translate(-140.63, -371.38)" d="M 173.359 374.687 L 143.937 404.10900000000004 C 137.448 398.833 131.11800000000002 393.11 125.00300000000001 386.99500000000006 C 118.89700000000002 380.88900000000007 113.16600000000001 374.55100000000004 107.89700000000002 368.0690000000001 L 137.31900000000002 338.64700000000005 z" stroke-linecap="round" />
</g>
		<g transform="matrix(1 0 0 1 -145.93 145.93)"  >
<path style="stroke: none; stroke-width: 1; stroke-dasharray: none; stroke-linecap: butt; stroke-dashoffset: 0; stroke-linejoin: miter; stroke-miterlimit: 4; fill: rgb(236,70,46); fill-rule: nonzero; opacity: 1;" vector-effect="non-scaling-stroke"  transform=" translate(-110.07, -401.93)" d="M 126.455 421.591 L 114.608 433.438 L 93.685 382.269 L 105.532 370.422 z" stroke-linecap="round" />
</g>
		<g transform="matrix(1 0 0 1 -181.23 181.22)"  >
<path style="stroke: none; stroke-width: 1; stroke-dasharray: none; stroke-linecap: butt; stroke-dashoffset: 0; stroke-linejoin: miter; stroke-miterlimit: 4; fill: rgb(236,70,46); fill-rule: nonzero; opacity: 1;" vector-effect="non-scaling-stroke"  transform=" translate(-74.77, -437.22)" d="M 91.161 456.885 L 79.303 468.73199999999997 L 58.379999999999995 417.57399999999996 L 70.238 405.71599999999995 z" stroke-linecap="round" />
</g>
		<g transform="matrix(1 0 0 1 -222.71 222.71)"  >
<path style="stroke: none; stroke-width: 1; stroke-dasharray: none; stroke-linecap: butt; stroke-dashoffset: 0; stroke-linejoin: miter; stroke-miterlimit: 4; fill: rgb(252,166,47); fill-rule: nonzero; opacity: 1;" vector-effect="non-scaling-stroke"  transform=" translate(-33.29, -478.71)" d="M 38.314 507.202 L 4.802 473.689 C -1.596 467.291 -1.596 456.918 4.802 450.52000000000004 L 5.095 450.22700000000003 C 11.492999999999999 443.829 21.866 443.829 28.264 450.22700000000003 L 61.775999999999996 483.73900000000003 C 68.17399999999999 490.13700000000006 68.17399999999999 500.51000000000005 61.775999999999996 506.908 L 61.483 507.201 C 55.084999999999994 513.599 44.711999999999996 513.599 38.31399999999999 507.202 z" stroke-linecap="round" />
</g>
		<g transform="matrix(1 0 0 1 -213.54 231.88)"  >
<path style="stroke: none; stroke-width: 1; stroke-dasharray: none; stroke-linecap: butt; stroke-dashoffset: 0; stroke-linejoin: miter; stroke-miterlimit: 4; fill: rgb(249,136,36); fill-rule: nonzero; opacity: 1;" vector-effect="non-scaling-stroke"  transform=" translate(-42.46, -487.88)" d="M 61.634 507.054 C 58.393 510.29499999999996 54.155 511.91499999999996 49.908 511.91499999999996 C 45.661 511.91499999999996 41.407000000000004 510.29499999999996 38.166 507.054 L 18.426 487.31399999999996 C 21.666999999999998 490.55499999999995 25.912999999999997 492.167 30.159999999999997 492.167 C 34.406 492.167 38.653 490.55499999999995 41.894 487.31399999999996 C 48.367999999999995 480.84 48.367 470.33599999999996 41.885999999999996 463.85499999999996 L 61.62599999999999 483.59499999999997 C 68.10699999999999 490.07599999999996 68.10699999999999 500.58 61.63399999999999 507.054 z" stroke-linecap="round" />
</g>
		<g transform="matrix(1 0 0 1 65.81 -65.81)"  >
<path style="stroke: none; stroke-width: 1; stroke-dasharray: none; stroke-linecap: butt; stroke-dashoffset: 0; stroke-linejoin: miter; stroke-miterlimit: 4; fill: rgb(181,219,253); fill-rule: nonzero; opacity: 1;" vector-effect="non-scaling-stroke"  transform=" translate(-321.81, -190.19)" d="M 496.57 66.064 L 182.25 380.384 L 131.62 329.754 L 445.94 15.432000000000016 C 449.137 12.235000000000017 453.21999999999997 10.072000000000017 457.66 9.222000000000016 L 505.283 0.10800000000001475 C 509.199 -0.6409999999999852 512.6370000000001 2.796000000000015 511.88800000000003 6.712000000000015 L 502.78000000000003 54.34000000000002 C 501.93100000000004 58.78200000000002 499.76700000000005 62.866000000000014 496.57000000000005 66.06400000000002 z" stroke-linecap="round" />
</g>
		<g transform="matrix(1 0 0 1 81.25 -65.81)"  >
<path style="stroke: none; stroke-width: 1; stroke-dasharray: none; stroke-linecap: butt; stroke-dashoffset: 0; stroke-linejoin: miter; stroke-miterlimit: 4; fill: rgb(141,202,252); fill-rule: nonzero; opacity: 1;" vector-effect="non-scaling-stroke"  transform=" translate(-337.25, -190.19)" d="M 496.57 66.067 L 182.25099999999998 380.386 L 162.51099999999997 360.646 L 476.83 46.32800000000003 C 480.031 43.12700000000003 482.186 39.040000000000035 483.03999999999996 34.59500000000003 L 489.051 3.217000000000027 L 505.286 0.10400000000002718 C 509.197 -0.6459999999999728 512.638 2.794000000000027 511.895 6.713000000000028 L 502.779 54.33400000000003 C 501.926 58.78000000000003 499.77 62.86700000000003 496.57 66.06700000000004 z" stroke-linecap="round" />
</g>
		<g transform="matrix(1 0 0 1 79.25 -79.25)"  >
<path style="stroke: none; stroke-width: 1; stroke-dasharray: none; stroke-linecap: butt; stroke-dashoffset: 0; stroke-linejoin: miter; stroke-miterlimit: 4; fill: rgb(126,192,237); fill-rule: nonzero; opacity: 1;" vector-effect="non-scaling-stroke"  transform=" translate(-335.25, -176.75)" d="M 199.252 320.482 C 197.275 320.482 195.297 319.72700000000003 193.78900000000002 318.21900000000005 C 190.77100000000002 315.20200000000006 190.77100000000002 310.31000000000006 193.78900000000002 307.29200000000003 L 465.793 35.287000000000035 C 468.81 32.27000000000003 473.702 32.27000000000003 476.72 35.287000000000035 C 479.73800000000006 38.30400000000004 479.738 43.19600000000003 476.72 46.214000000000034 L 204.71500000000003 318.21900000000005 C 203.20600000000005 319.72700000000003 201.22900000000004 320.482 199.25200000000004 320.482 z" stroke-linecap="round" />
</g>
		<g transform="matrix(1 0 0 1 -77.05 77.05)"  >
<path style="stroke: none; stroke-width: 1; stroke-dasharray: none; stroke-linecap: butt; stroke-dashoffset: 0; stroke-linejoin: miter; stroke-miterlimit: 4; fill: rgb(252,166,47); fill-rule: nonzero; opacity: 1;" vector-effect="non-scaling-stroke"  transform=" translate(-178.95, -333.05)" d="M 266.544 393.814 C 248.404 396.24100000000004 223.45299999999997 387.67400000000004 198.378 370.47 C 196.40599999999998 369.117 195.47899999999998 366.67800000000005 196.08399999999997 364.36400000000003 L 210.807 308.08400000000006 C 211.899 303.90900000000005 208.093 300.10300000000007 203.91799999999998 301.19500000000005 L 147.63799999999998 315.91800000000006 C 145.32399999999998 316.5230000000001 142.88599999999997 315.59700000000004 141.53199999999998 313.6240000000001 C 124.32799999999997 288.5490000000001 115.76099999999998 263.59800000000007 118.18799999999999 245.45800000000008 C 110.92399999999999 246.43200000000007 104.76199999999999 249.1620000000001 100.11699999999999 253.80700000000007 C 79.02799999999999 274.8960000000001 97.31499999999998 327.37800000000004 140.969 371.03200000000004 C 184.623 414.68600000000004 237.105 432.97300000000007 258.19399999999996 411.884 C 262.84 407.24 265.56999999999994 401.07800000000003 266.544 393.814 z" stroke-linecap="round" />
</g>
		<g transform="matrix(1 0 0 1 -36.62 99.28)"  >
<path style="stroke: none; stroke-width: 1; stroke-dasharray: none; stroke-linecap: butt; stroke-dashoffset: 0; stroke-linejoin: miter; stroke-miterlimit: 4; fill: rgb(249,136,36); fill-rule: nonzero; opacity: 1;" vector-effect="non-scaling-stroke"  transform=" translate(-219.38, -355.28)" d="M 266.549 393.818 C 265.72499999999997 399.92699999999996 263.664 405.253 260.265 409.549 C 237.838 405.67499999999995 202.307 393.138 180.57 380.755 C 174.069 377.057 170.845 369.475 172.74099999999999 362.243 L 185.44299999999998 313.68 C 186.22599999999997 310.693 184.49499999999998 307.88 181.91 306.95300000000003 L 203.915 301.194 C 208.09799999999998 300.10200000000003 211.899 303.91400000000004 210.807 308.086 L 196.08599999999998 364.365 C 195.47799999999998 366.683 196.40499999999997 369.11400000000003 198.38299999999998 370.474 C 223.456 387.678 248.408 396.239 266.549 393.818 z" stroke-linecap="round" />
</g>
		<g transform="matrix(1 0 0 1 -149.33 -3.86)"  >
<circle style="stroke: none; stroke-width: 1; stroke-dasharray: none; stroke-linecap: butt; stroke-dashoffset: 0; stroke-linejoin: miter; stroke-miterlimit: 4; fill: rgb(188,234,115); fill-rule: nonzero; opacity: 1;" vector-effect="non-scaling-stroke"  cx="0" cy="0" r="25.641" />
</g>
		<g transform="matrix(1 0 0 1 -145.21 -3.85)"  >
<path style="stroke: none; stroke-width: 1; stroke-dasharray: none; stroke-linecap: butt; stroke-dashoffset: 0; stroke-linejoin: miter; stroke-miterlimit: 4; fill: rgb(153,213,59); fill-rule: nonzero; opacity: 1;" vector-effect="non-scaling-stroke"  transform=" translate(-110.79, -252.15)" d="M 124.798 270.276 C 115.022 280.052 99.304 280.286 89.26 270.956 C 95.21300000000001 270.555 101.054 268.08000000000004 105.602 263.53200000000004 C 115.61200000000001 253.52200000000005 115.61200000000001 237.28000000000003 105.602 227.26900000000003 C 105.36800000000001 227.03500000000003 105.123 226.80100000000004 104.878 226.57800000000003 C 112.023 226.06500000000003 119.336 228.54000000000002 124.798 234.01300000000003 C 134.82 244.02400000000003 134.82 260.254 124.798 270.276 z" stroke-linecap="round" />
</g>
		<g transform="matrix(1 0 0 1 3.86 149.33)"  >
<circle style="stroke: none; stroke-width: 1; stroke-dasharray: none; stroke-linecap: butt; stroke-dashoffset: 0; stroke-linejoin: miter; stroke-miterlimit: 4; fill: rgb(188,234,115); fill-rule: nonzero; opacity: 1;" vector-effect="non-scaling-stroke"  cx="0" cy="0" r="25.641" />
</g>
		<g transform="matrix(1 0 0 1 7.98 149.34)"  >
<path style="stroke: none; stroke-width: 1; stroke-dasharray: none; stroke-linecap: butt; stroke-dashoffset: 0; stroke-linejoin: miter; stroke-miterlimit: 4; fill: rgb(153,213,59); fill-rule: nonzero; opacity: 1;" vector-effect="non-scaling-stroke"  transform=" translate(-263.98, -405.34)" d="M 277.998 423.464 C 268.211 433.24 252.493 433.474 242.44899999999998 424.144 C 248.402 423.743 254.243 421.26800000000003 258.791 416.72 C 268.801 406.71000000000004 268.801 390.47900000000004 258.791 380.45700000000005 C 258.557 380.22300000000007 258.323 380.00000000000006 258.078 379.77700000000004 C 265.22299999999996 379.26400000000007 272.536 381.73900000000003 277.998 387.201 C 288.008 397.21200000000005 288.008 413.44300000000004 277.998 423.464 z" stroke-linecap="round" />
</g>
		<g transform="matrix(1 0 0 1 -87.7 87.71)"  >
<path style="stroke: none; stroke-width: 1; stroke-dasharray: none; stroke-linecap: butt; stroke-dashoffset: 0; stroke-linejoin: miter; stroke-miterlimit: 4; fill: rgb(251,85,50); fill-rule: nonzero; opacity: 1;" vector-effect="non-scaling-stroke"  transform=" translate(-168.3, -343.71)" d="M 168.197 351.545 C 166.34 351.545 164.477 350.88 162.996 349.53000000000003 C 159.842 346.65700000000004 159.614 341.77000000000004 162.48700000000002 338.615 L 162.693 338.389 C 165.566 335.23400000000004 170.453 335.007 173.608 337.88 C 176.762 340.753 176.99 345.64 174.117 348.795 L 173.911 349.021 C 172.386 350.695 170.295 351.545 168.197 351.545 z" stroke-linecap="round" />
</g>
</g>
</g>
</svg>