<?xml version="1.0" encoding="UTF-8" standalone="no" ?>
<!DOCTYPE svg PUBLIC "-//W3C//DTD SVG 1.1//EN" "http://www.w3.org/Graphics/SVG/1.1/DTD/svg11.dtd">
<svg xmlns="http://www.w3.org/2000/svg" xmlns:xlink="http://www.w3.org/1999/xlink" version="1.1" width="720" height="720" viewBox="0 0 720 720" xml:space="preserve">
<desc>Created with Fabric.js 4.2.0</desc>
<defs>
</defs>
<rect x="0" y="0" width="100%" height="100%" fill="transparent"></rect>
<g transform="matrix(0 0 0 0 0 0)" id="10e72e25-f349-42f5-adff-9246252ebd1e"  >
</g>
<g transform="matrix(1 0 0 1 360 360)" id="088ff5e9-cec8-4b99-9d85-4d7f1d684ffe"  >
<rect style="stroke: none; stroke-width: 1; stroke-dasharray: none; stroke-linecap: butt; stroke-dashoffset: 0; stroke-linejoin: miter; stroke-miterlimit: 4; fill: rgb(255,255,255); fill-opacity: 0; fill-rule: nonzero; opacity: 1;" vector-effect="non-scaling-stroke"  x="-360" y="-360" rx="0" ry="0" width="720" height="720" />
</g>
<g transform="matrix(3.61 0 0 3.61 624 600.86)" style="filter: url(#SVGID_1465);" id="f42727bd-bc40-4e3b-832d-5e77afda711c"  >
<filter id="SVGID_1465" y="-46%" height="192%" x="-54%" width="208%" >
	<feGaussianBlur in="SourceAlpha" stdDeviation="7.5"></feGaussianBlur>
	<feOffset dx="0" dy="0" result="oBlur" ></feOffset>
	<feFlood flood-color="rgb(255,255,0)" flood-opacity="1"/>
	<feComposite in2="oBlur" operator="in" />
	<feMerge>
		<feMergeNode></feMergeNode>
		<feMergeNode in="SourceGraphic"></feMergeNode>
	</feMerge>
</filter>
		<rect opacity="0" fill="rgb(0,0,0)" x="-22.39" y="-28.81" width="44.77" height="57.63"></rect>
		<text xml:space="preserve" font-family="Lato" font-size="51" font-style="normal" font-weight="400" style="stroke: none; stroke-width: 1; stroke-dasharray: none; stroke-linecap: butt; stroke-dashoffset: 0; stroke-linejoin: miter; stroke-miterlimit: 4; fill: rgb(153,153,255); fill-rule: nonzero; opacity: 1; white-space: pre;" ><tspan x="-19.2" y="16.02" >D</tspan></text>
</g>
<g transform="matrix(1.45 0 0 1.45 359.98 359.98)"  >
<g style="" vector-effect="non-scaling-stroke"   >
		<g transform="matrix(1 0 0 1 215.98 -92.95)"  >
<path style="stroke: none; stroke-width: 1; stroke-dasharray: none; stroke-linecap: butt; stroke-dashoffset: 0; stroke-linejoin: miter; stroke-miterlimit: 4; fill: rgb(109,116,134); fill-rule: nonzero; opacity: 1;" vector-effect="non-scaling-stroke"  transform=" translate(-471.99, -163.03)" d="M 494.12 160.53 C 494.66613245433365 160.85917305193857 495.00085086654514 161.44952537009956 495.0028946513688 162.08718623509176 C 495.0049384361925 162.72484710008396 494.6740111717889 163.3173328979777 494.13 163.65 L 448.99 191.39000000000001 L 448.98 191.39000000000001 C 454.9053906575399 173.04086292360518 455.6733625090538 153.41606871802784 451.20000000000005 134.66000000000005 L 451.21000000000004 134.66000000000003 z" stroke-linecap="round" />
</g>
		<g transform="matrix(1 0 0 1 171.2 -20.2)"  >
<path style="stroke: none; stroke-width: 1; stroke-dasharray: none; stroke-linecap: butt; stroke-dashoffset: 0; stroke-linejoin: miter; stroke-miterlimit: 4; fill: rgb(109,116,134); fill-rule: nonzero; opacity: 1;" vector-effect="non-scaling-stroke"  transform=" translate(-427.21, -235.78)" d="M 455.84 261.74 C 456.0001375650571 262.35737195258855 455.8278454557925 263.0136009975851 455.38508622005634 263.4726831544544 C 454.9423269843202 263.9317653113237 454.292762527379 264.12769169211657 453.66999999999996 263.99 L 398.53 251.49 C 417.1808961966441 241.57138584014757 432.3993335958743 226.2483783259433 442.18999999999994 207.52999999999997 L 442.19999999999993 207.54 z" stroke-linecap="round" />
</g>
		<g transform="matrix(1 0 0 1 172.24 -172.5)"  >
<path style="stroke: none; stroke-width: 1; stroke-dasharray: none; stroke-linecap: butt; stroke-dashoffset: 0; stroke-linejoin: miter; stroke-miterlimit: 4; fill: rgb(109,116,134); fill-rule: nonzero; opacity: 1;" vector-effect="non-scaling-stroke"  transform=" translate(-428.25, -83.48)" d="M 450.88 59.26 C 451.50382015588747 59.12949833513223 452.1506919934054 59.331840189878925 452.5889518307297 59.79456104137938 C 453.0272116680539 60.257281892879845 453.19415706379857 60.91417962860118 453.03 61.53 L 440.64 107.74000000000001 L 440.63 107.74000000000001 C 431.73564971327255 91.97057319567068 418.91375954664215 78.769744845717 403.41 69.42000000000004 z" stroke-linecap="round" />
</g>
		<g transform="matrix(1 0 0 1 95.59 27.1)"  >
<path style="stroke: none; stroke-width: 1; stroke-dasharray: none; stroke-linecap: butt; stroke-dashoffset: 0; stroke-linejoin: miter; stroke-miterlimit: 4; fill: rgb(109,116,134); fill-rule: nonzero; opacity: 1;" vector-effect="non-scaling-stroke"  transform=" translate(-351.61, -283.08)" d="M 382.6 258.32 L 355.03000000000003 306.90999999999997 C 354.71643138694935 307.46437376597555 354.137308833144 307.8159706329291 353.50079336768096 307.83841188331405 C 352.86427790221796 307.860853133699 352.2618319683608 307.55091413009245 351.91 307.02 L 320.61 259.56 C 340.9254739979741 265.40820675647007 362.5346495502064 264.97595352716263 382.6 258.32 z" stroke-linecap="round" />
</g>
		<g transform="matrix(1 0 0 1 94.97 -218.85)"  >
<path style="stroke: none; stroke-width: 1; stroke-dasharray: none; stroke-linecap: butt; stroke-dashoffset: 0; stroke-linejoin: miter; stroke-miterlimit: 4; fill: rgb(109,116,134); fill-rule: nonzero; opacity: 1;" vector-effect="non-scaling-stroke"  transform=" translate(-350.99, -37.13)" d="M 354.55 16.93 L 377.46000000000004 58.26 C 360.1643006831062 53.503535614595556 341.9386569705433 53.25566135178775 324.52 57.54000000000001 L 324.51000000000005 57.5 L 351.43000000000006 16.82 C 351.78183196836085 16.28908586990754 352.384277902218 15.979146866300994 353.020793367681 16.00158811668591 C 353.65730883314404 16.024029367070824 354.2364313869494 16.375626234024445 354.55000000000007 16.93 z" stroke-linecap="round" />
</g>
		<g transform="matrix(1 0 0 1 11.13 -169.06)"  >
<path style="stroke: none; stroke-width: 1; stroke-dasharray: none; stroke-linecap: butt; stroke-dashoffset: 0; stroke-linejoin: miter; stroke-miterlimit: 4; fill: rgb(109,116,134); fill-rule: nonzero; opacity: 1;" vector-effect="non-scaling-stroke"  transform=" translate(-267.14, -86.91)" d="M 241.58 61.25 L 294.74 70.07 C 278.11995534402286 80.35730208495703 264.70547582826043 95.08448176505564 256.00999999999993 112.59000000000009 L 256 112.59 L 239.66 63.720000000000006 C 239.4364723090959 63.122717317566234 239.53871664088624 62.4522393794041 239.9301094670919 61.948728816524905 C 240.32150229329758 61.445218253645706 240.94603410582735 61.18072896447941 241.57999999999998 61.25000000000001 z" stroke-linecap="round" />
</g>
		<g transform="matrix(1 0 0 1 -51.85 50.06)"  >
<path style="stroke: none; stroke-width: 1; stroke-dasharray: none; stroke-linecap: butt; stroke-dashoffset: 0; stroke-linejoin: miter; stroke-miterlimit: 4; fill: rgb(199,154,131); fill-rule: nonzero; opacity: 1;" vector-effect="non-scaling-stroke"  transform=" translate(-204.16, -306.03)" d="M 264.86 220.23 L 118.47000000000003 367.33 L 144.19000000000003 391.84 L 289.85 244.85999999999999 L 289.85 244.85 z" stroke-linecap="round" />
</g>
		<g transform="matrix(1 0 0 1 -29.39 -96.08)"  >
<path style="stroke: none; stroke-width: 1; stroke-dasharray: none; stroke-linecap: butt; stroke-dashoffset: 0; stroke-linejoin: miter; stroke-miterlimit: 4; fill: rgb(109,116,134); fill-rule: nonzero; opacity: 1;" vector-effect="non-scaling-stroke"  transform=" translate(-226.62, -159.9)" d="M 249.03 187.46 L 205.28 167.02 C 204.6997026855013 166.75266011727328 204.29999363633942 166.20300602953623 204.22451324414834 165.5685627330113 C 204.1490328519573 164.93411943648638 204.4086242280456 164.30602767757804 204.91 163.91 L 248.59 132.34 C 243.84522102864045 150.42714784577817 243.9970797453992 169.45090345428395 249.02999999999997 187.46000000000004 z" stroke-linecap="round" />
</g>
		<g transform="matrix(1 0 0 1 -141.25 140.8)"  >
<path style="stroke: none; stroke-width: 1; stroke-dasharray: none; stroke-linecap: butt; stroke-dashoffset: 0; stroke-linejoin: miter; stroke-miterlimit: 4; fill: rgb(109,116,134); fill-rule: nonzero; opacity: 1;" vector-effect="non-scaling-stroke"  transform=" translate(-114.76, -396.78)" d="M 151.76 399.05 L 110.44 359.69 C 109.67455044163542 358.9559600610014 108.64824877668647 358.5570394662937 107.58799761086053 358.5814346258614 C 106.52774644503458 358.6058297854291 105.52087856249545 359.0515312723798 104.78999999999999 359.82 L 76.52 389.34 L 122.1 434.96999999999997 L 151.85 404.75 C 152.60320872288227 403.98696889503344 153.0180088070009 402.9531468312721 153.00108198063938 401.88111449504254 C 152.98415515427786 400.809082158813 152.53692296871156 399.7888711308888 151.76 399.05 z" stroke-linecap="round" />
</g>
		<g transform="matrix(1 0 0 1 -167.7 167.51)"  >
<path style="stroke: none; stroke-width: 1; stroke-dasharray: none; stroke-linecap: butt; stroke-dashoffset: 0; stroke-linejoin: miter; stroke-miterlimit: 4; fill: rgb(74,81,96); fill-rule: nonzero; opacity: 1;" vector-effect="non-scaling-stroke"  transform=" translate(-88.31, -423.49)" d="M 76.52 389.34 L 122.1 434.96999999999997 L 99.78 457.63 L 54.52 412.32 z" stroke-linecap="round" />
</g>
		<g transform="matrix(1 0 0 1 -189.87 190.33)"  >
<path style="stroke: none; stroke-width: 1; stroke-dasharray: none; stroke-linecap: butt; stroke-dashoffset: 0; stroke-linejoin: miter; stroke-miterlimit: 4; fill: rgb(109,116,134); fill-rule: nonzero; opacity: 1;" vector-effect="non-scaling-stroke"  transform=" translate(-66.14, -446.31)" d="M 54.52 412.32 L 99.78 457.63 L 77.47 480.3 L 77.46 480.29 L 32.50999999999999 435.29 z" stroke-linecap="round" />
</g>
		<g transform="matrix(1 0 0 1 -208.77 209.64)"  >
<path style="stroke: none; stroke-width: 1; stroke-dasharray: none; stroke-linecap: butt; stroke-dashoffset: 0; stroke-linejoin: miter; stroke-miterlimit: 4; fill: rgb(74,81,96); fill-rule: nonzero; opacity: 1;" vector-effect="non-scaling-stroke"  transform=" translate(-47.25, -465.62)" d="M 77.47 480.3 L 71.32 486.54 C 59.06287743397583 498.9253434222208 39.11260518047641 499.1128232879441 26.624888808875006 486.96001599467536 C 14.137172437273605 474.80720870140664 13.782362979914751 454.85921075831044 25.829999999999984 442.27000000000004 L 32.50999999999999 435.29 L 77.46 480.29 z" stroke-linecap="round" />
</g>
		<g transform="matrix(1 0 0 1 93.59 -97.08)"  >
<circle style="stroke: none; stroke-width: 1; stroke-dasharray: none; stroke-linecap: butt; stroke-dashoffset: 0; stroke-linejoin: miter; stroke-miterlimit: 4; fill: rgb(176,181,202); fill-rule: nonzero; opacity: 1;" vector-effect="non-scaling-stroke"  cx="0" cy="0" r="105" />
</g>
		<g transform="matrix(1 0 0 1 93.63 -95.79)"  >
<path style="stroke: none; stroke-width: 1; stroke-dasharray: none; stroke-linecap: butt; stroke-dashoffset: 0; stroke-linejoin: miter; stroke-miterlimit: 4; fill: rgb(109,116,134); fill-rule: nonzero; opacity: 1;" vector-effect="non-scaling-stroke"  transform=" translate(-349.65, -160.19)" d="M 349.61 131.62 C 361.1661834602529 131.6058406572982 371.59243887674546 138.5559538684053 376.02508045066844 149.2282200443933 C 380.4577220245915 159.9004862203813 378.0233848725319 172.1921451111596 369.8576493695166 180.36932924439296 C 361.6919138665013 188.5465133776263 349.40367766794355 190.99806937037891 338.72521161355434 186.58038452656479 C 328.04674555916506 182.16269968275063 321.08203146319414 171.74619195614048 321.08000000000004 160.19 C 321.07115962413604 144.42318214627537 333.8431852351431 131.63324973455184 349.60999999999996 131.62 z" stroke-linecap="round" />
</g>
		<g transform="matrix(1 0 0 1 48.61 -97.08)"  >
<path style="stroke: none; stroke-width: 1; stroke-dasharray: none; stroke-linecap: butt; stroke-dashoffset: 0; stroke-linejoin: miter; stroke-miterlimit: 4; fill: rgb(157,162,178); fill-rule: nonzero; opacity: 1;" vector-effect="non-scaling-stroke"  transform=" translate(-304.63, -158.9)" d="M 274.605 158.9 C 274.61021937248444 106.70533228718591 312.94684498875705 62.43547491303485 364.60499999999996 54.971000000000004 C 325.7046445109471 49.372015778996875 286.93431347777755 65.96569265190351 264.12996247167644 97.97425176774416 C 241.32561146557524 129.98281088358482 238.3056480678233 172.04667306551266 256.3035929866263 206.9846217772139 C 274.30153790542926 241.92257048891514 310.30377811110486 263.8845235158391 349.605 263.9 C 354.62406844524725 263.8990842516665 359.63671590962326 263.54118122271007 364.60499999999996 262.82899999999995 C 312.9468449887571 255.36452508696513 274.6102193724845 211.09466771281407 274.605 158.89999999999998 z" stroke-linecap="round" />
</g>
		<g transform="matrix(1 0 0 1 32.52 -99.66)"  >
<path style="stroke: none; stroke-width: 1; stroke-dasharray: none; stroke-linecap: butt; stroke-dashoffset: 0; stroke-linejoin: miter; stroke-miterlimit: 4; fill: rgb(109,116,134); fill-rule: nonzero; opacity: 1;" vector-effect="non-scaling-stroke"  transform=" translate(-288.53, -156.32)" d="M 299.956 175.7 C 298.894785994244 175.69999146817045 297.8527278539746 175.41729997533153 296.937 174.881 L 274.03700000000003 161.508 C 272.1948289133563 160.43244199949257 271.0622368089127 158.4596711897834 271.0622368089127 156.3265 C 271.0622368089127 154.19332881021663 272.1948289133563 152.22055800050745 274.03700000000003 151.145 L 296.937 137.77200000000002 C 298.78911273709093 136.67499732107913 301.08696184967835 136.65423486239348 302.95859473954687 137.7175912438651 C 304.8302276294154 138.7809476253367 305.98879690218376 140.76545231520421 305.99466642940956 142.91805585907946 C 306.0005359566353 145.07065940295467 304.8528061716353 147.0614527032581 302.987 148.13500000000002 L 288.958 156.32600000000002 L 302.987 164.51800000000003 C 305.328944241383 165.8848294612819 306.4630676692518 168.65253827372885 305.7536519680273 171.2697228237427 C 305.04423626680284 173.88690737375657 302.6676261981871 175.70299454178888 299.956 175.70000000000002 z" stroke-linecap="round" />
</g>
		<g transform="matrix(1 0 0 1 154.67 -99.66)"  >
<path style="stroke: none; stroke-width: 1; stroke-dasharray: none; stroke-linecap: butt; stroke-dashoffset: 0; stroke-linejoin: miter; stroke-miterlimit: 4; fill: rgb(109,116,134); fill-rule: nonzero; opacity: 1;" vector-effect="non-scaling-stroke"  transform=" translate(-410.68, -156.32)" d="M 399.257 175.7 C 396.5453738018129 175.70299454178885 394.1687637331972 173.88690737375654 393.4593480319727 171.26972282374268 C 392.7499323307482 168.65253827372885 393.884055758617 165.88482946128187 396.226 164.518 L 410.255 156.326 L 396.226 148.135 C 394.36019382836474 147.06145270325808 393.2124640433647 145.07065940295465 393.21833357059046 142.91805585907943 C 393.22420309781626 140.7654523152042 394.38277237058463 138.78094762533667 396.25440526045315 137.71759124386506 C 398.1260381503217 136.65423486239345 400.4238872629091 136.6749973210791 402.276 137.772 L 425.176 151.14499999999998 C 427.01817108664375 152.22055800050742 428.1507631910873 154.1933288102166 428.1507631910873 156.32649999999998 C 428.1507631910873 158.45967118978334 427.01817108664375 160.43244199949254 425.176 161.50799999999998 L 402.276 174.88099999999997 C 401.3602721460254 175.4172999753315 400.31821400575603 175.69999146817042 399.257 175.69999999999996 z" stroke-linecap="round" />
</g>
		<g transform="matrix(1 0 0 1 94.88 -156.95)"  >
<path style="stroke: none; stroke-width: 1; stroke-dasharray: none; stroke-linecap: butt; stroke-dashoffset: 0; stroke-linejoin: miter; stroke-miterlimit: 4; fill: rgb(109,116,134); fill-rule: nonzero; opacity: 1;" vector-effect="non-scaling-stroke"  transform=" translate(-350.89, -99.03)" d="M 364.259 116.491 C 362.1211574498566 116.49308866591284 360.1436906028899 115.35750232979112 359.06800000000004 113.51 L 350.89400000000006 99.48 L 342.71900000000005 113.51 C 341.0508239131361 116.37332028549775 337.3773202854978 117.34217608686393 334.51400000000007 115.67400000000002 C 331.6506797145023 114.00582391313611 330.6818239131361 110.33232028549777 332.35 107.46900000000001 L 345.709 84.542 C 346.78379937283114 82.6969250460651 348.75820253185276 81.5620926724192 350.8935 81.5620926724192 C 353.0287974681472 81.5620926724192 355.00320062716884 82.6969250460651 356.078 84.542 L 369.438 107.469 C 370.51955121157135 109.32409466877832 370.52725664755366 111.61575235586275 369.4582048357806 113.47807818050403 C 368.38915302400744 115.3404040051453 366.40635343799113 116.48942973601926 364.259 116.491 z" stroke-linecap="round" />
</g>
		<g transform="matrix(1 0 0 1 94.88 -34.63)"  >
<path style="stroke: none; stroke-width: 1; stroke-dasharray: none; stroke-linecap: butt; stroke-dashoffset: 0; stroke-linejoin: miter; stroke-miterlimit: 4; fill: rgb(109,116,134); fill-rule: nonzero; opacity: 1;" vector-effect="non-scaling-stroke"  transform=" translate(-350.89, -221.34)" d="M 350.894 238.808 C 348.75871020594667 238.80836605790657 346.78411839572715 237.67388023290292 345.709 235.82899999999998 L 332.35 212.89999999999998 C 330.6818239131361 210.0366797145022 331.6506797145023 206.3631760868639 334.514 204.69499999999996 C 337.3773202854978 203.02682391313604 341.0508239131361 203.99567971450222 342.71900000000005 206.85899999999998 L 350.89400000000006 220.89 L 359.06800000000004 206.85899999999998 C 360.73617608686396 203.99540357212732 364.40990357212735 203.02632391313605 367.2735 204.69449999999998 C 370.13709642787273 206.36267608686387 371.10617608686397 210.0364035721273 369.43800000000005 212.89999999999998 L 356.07800000000003 235.82799999999997 C 355.0033139055218 237.67295633593565 353.02913794503036 238.80780285643417 350.894 238.80799999999996 z" stroke-linecap="round" />
</g>
		<g transform="matrix(1 0 0 1 -103.17 49.81)"  >
<path style="stroke: none; stroke-width: 1; stroke-dasharray: none; stroke-linecap: butt; stroke-dashoffset: 0; stroke-linejoin: miter; stroke-miterlimit: 4; fill: rgb(212,225,244); fill-rule: nonzero; opacity: 1;" vector-effect="non-scaling-stroke"  transform=" translate(-152.84, -305.79)" d="M 146.1 318.531 C 143.67300324221597 318.5312907134587 141.4848551622437 317.0694342178493 140.5560443785553 314.82719786212925 C 139.62723359486694 312.58496150640923 140.1407087630631 310.004000506067 141.857 308.288 L 155.287 294.85900000000004 C 156.7956660653295 293.3090026624412 159.02182636200047 292.6910062605758 161.1136016740074 293.2414979382554 C 163.2053769860144 293.79198961593494 164.83894365226928 295.4257488289445 165.3891887853386 297.51758900846346 C 165.9394339184079 299.60942918798236 165.32117514116746 301.8355166309095 163.77100000000002 303.34400000000005 L 150.342 316.773 C 149.21835649670842 317.9002588652829 147.69162915490094 318.5329761370645 146.10000000000002 318.531 z" stroke-linecap="round" />
</g>
		<g transform="matrix(1 0 0 1 -59.46 5.25)"  >
<path style="stroke: none; stroke-width: 1; stroke-dasharray: none; stroke-linecap: butt; stroke-dashoffset: 0; stroke-linejoin: miter; stroke-miterlimit: 4; fill: rgb(212,225,244); fill-rule: nonzero; opacity: 1;" vector-effect="non-scaling-stroke"  transform=" translate(-196.55, -261.23)" d="M 174.747 289.03 C 172.320185248364 289.02988620778524 170.1324073722656 287.56788146597745 169.20385308732656 285.3257358882711 C 168.27529880238757 283.08359031056466 168.78883749691366 280.5028718235076 170.50500000000002 278.787 L 214.07200000000003 235.21999999999997 C 215.58352045066525 233.6836579240184 217.80292228845195 233.07603740994384 219.88622670950298 233.62820019068857 C 221.969531130554 234.18036297143334 223.59663702856668 235.807468869446 224.1487998093114 237.89077329049704 C 224.70096259005618 239.9740777115481 224.0933420759816 242.19347954933477 222.55700000000002 243.70499999999998 L 178.98900000000003 287.272 C 177.86535649670844 288.3992588652829 176.33862915490096 289.0319761370645 174.74700000000004 289.03 z" stroke-linecap="round" />
</g>
		<g transform="matrix(1 0 0 1 -20.15 -34.06)"  >
<path style="stroke: none; stroke-width: 1; stroke-dasharray: none; stroke-linecap: butt; stroke-dashoffset: 0; stroke-linejoin: miter; stroke-miterlimit: 4; fill: rgb(212,225,244); fill-rule: nonzero; opacity: 1;" vector-effect="non-scaling-stroke"  transform=" translate(-235.86, -221.92)" d="M 234.144 229.633 C 231.71682122794175 229.6336953472869 229.5283028483543 228.17198713659792 228.5992355283108 225.9296599548813 C 227.6701682082673 223.68733277316466 228.1835799083208 221.1061291746014 229.9 219.39000000000001 L 233.3 215.99 C 234.8117019604337 214.45383823347768 237.0311743348597 213.84648093748663 239.11441233037178 214.39888952192302 C 241.1976503258838 214.95129810635942 242.8245634205233 216.57859472600944 243.37648094943333 218.66196287191786 C 243.92839847834333 220.74533101782632 243.32051804722832 222.96466017036343 241.78400000000002 224.476 L 238.38400000000001 227.876 C 237.2604931682601 229.00211930099192 235.73472637029454 229.6343769104319 234.144 229.633 z" stroke-linecap="round" />
</g>
</g>
</g>
</svg>