<?xml version="1.0" encoding="iso-8859-1"?>
<!-- Generator: Adobe Illustrator 19.0.0, SVG Export Plug-In . SVG Version: 6.00 Build 0)  -->
<svg version="1.1" id="Capa_1" xmlns="http://www.w3.org/2000/svg" xmlns:xlink="http://www.w3.org/1999/xlink" x="0px" y="0px"
	 viewBox="0 0 511.767 511.767" style="enable-background:new 0 0 511.767 511.767;" xml:space="preserve">
<g>
	<path style="fill:#94C1FF;" d="M91.958,375.828c0,0,87.96,7.996,163.925,7.996s163.925-7.996,163.925-7.996v15.992
		c0,0-87.96,7.996-163.925,7.996S91.958,391.82,91.958,391.82L91.958,375.828L91.958,375.828z"/>
	<path style="fill:#94C1FF;" d="M147.69,251.643c64.213,28.229,80.206-11.909,108.193-11.909s43.979,40.138,108.192,11.909
		c0,0,0.477,6.481-0.562,16.312c-63.729,27.831-79.721-12.072-107.63-12.072s-43.902,39.903-107.631,12.072
		C147.214,258.124,147.69,251.643,147.69,251.643z"/>
	<path style="fill:#94C1FF;" d="M483.779,247.887c0,2.639-0.242,5.278-0.641,7.84c-3.92-22.63-23.669-39.825-47.338-39.825
		c-23.668,0-43.417,17.195-47.337,39.825c-0.398-2.562-0.641-5.201-0.641-7.84c0-26.465,21.514-47.979,47.978-47.979
		C462.265,199.908,483.779,221.422,483.779,247.887z"/>
	<path style="fill:#94C1FF;" d="M323.852,151.931c-23.669,0-43.418,17.195-47.338,39.825c-0.398-2.562-0.64-5.123-0.64-7.84
		c0-26.465,21.513-47.979,47.978-47.979c26.464,0,47.978,21.514,47.978,47.979c0,2.639-0.242,5.278-0.64,7.84
		C367.269,169.126,347.521,151.931,323.852,151.931z"/>
	<path style="fill:#94C1FF;" d="M187.914,135.938c26.464,0,47.978,21.514,47.978,47.979c0,2.717-0.242,5.278-0.64,7.84
		c-3.92-22.63-23.669-39.825-47.337-39.825c-23.669,0-43.418,17.195-47.338,39.825c-0.398-2.562-0.641-5.201-0.641-7.84
		C139.936,157.451,161.449,135.938,187.914,135.938z"/>
	<path style="fill:#94C1FF;" d="M123.943,247.887c0,2.639-0.242,5.278-0.64,7.84c-3.92-22.63-23.669-39.825-47.338-39.825
		s-43.417,17.195-47.338,39.825c-0.398-2.562-0.64-5.201-0.64-7.84c0-26.465,21.514-47.979,47.978-47.979
		C102.43,199.908,123.943,221.422,123.943,247.887z"/>
</g>
<path style="fill:#D7E9FF;" d="M123.303,255.727c0.398-2.562,0.64-5.201,0.64-7.84c0-26.465-21.513-47.979-47.978-47.979
	c-26.464,0-47.978,21.514-47.978,47.979c0,2.639,0.242,5.278,0.64,7.84c3.756,22.787,23.505,40.138,47.338,40.138
	S119.547,278.514,123.303,255.727z M483.138,255.727c0.398-2.562,0.641-5.201,0.641-7.84c0-26.465-21.514-47.979-47.979-47.979
	c-26.464,0-47.978,21.514-47.978,47.979c0,2.639,0.242,5.278,0.641,7.84c3.756,22.787,23.505,40.138,47.337,40.138
	C459.633,295.864,479.382,278.514,483.138,255.727z M276.514,191.756c3.756,22.787,23.505,40.138,47.338,40.138
	s43.581-17.351,47.338-40.138c0.397-2.562,0.64-5.201,0.64-7.84c0-26.465-21.514-47.979-47.978-47.979
	c-26.465,0-47.978,21.514-47.978,47.979C275.874,186.633,276.115,189.195,276.514,191.756z M147.69,251.643
	c0,0-0.476,6.481,0.562,16.312c3.038,30.229,20.069,92.036,107.631,92.036s104.593-61.808,107.63-92.036
	c1.039-9.831,0.562-16.312,0.562-16.312c-64.213,28.229-80.205-11.909-108.192-11.909S211.903,279.872,147.69,251.643z
	 M187.914,135.938c-26.465,0-47.979,21.514-47.979,47.979c0,2.639,0.242,5.278,0.641,7.84c3.756,22.787,23.505,40.138,47.338,40.138
	s43.581-17.351,47.337-40.138c0.398-2.562,0.64-5.123,0.64-7.84C235.892,157.451,214.378,135.938,187.914,135.938z M187.914,111.949
	c31.509,0,58.215,20.311,67.969,48.455c9.753-28.144,36.46-48.455,67.969-48.455c39.739,0,71.967,32.228,71.967,71.967
	c0,1.437-0.156,2.881-0.242,4.24c11.519-7.677,25.349-12.237,40.224-12.237c39.74,0,71.968,32.228,71.968,71.967
	s-32.228,71.967-71.968,71.967c-11.518,0-21.271-8.395-31.984-7.52c0,0-31.986-0.477-31.986,23.512
	c0,24.146,42.457,22.467,42.457,22.467l5.521,17.516c0,0-87.96,7.996-163.925,7.996s-163.925-7.996-163.925-7.996l5.521-17.516
	c0,0,42.457,1.679,42.457-22.467c0-23.988-31.985-23.512-31.985-23.512c-10.714-0.875-20.467,7.52-31.985,7.52
	C36.228,319.853,4,287.625,4,247.886c0-39.74,32.228-71.967,71.967-71.967c14.876,0,28.706,4.56,40.224,12.237
	c-0.086-1.359-0.242-2.804-0.242-4.24C115.946,144.176,148.174,111.949,187.914,111.949z"/>
<g>
	<path style="fill:#FFFFFF;" d="M395.819,191.912c0,1.437-0.156,2.882-0.242,4.24c11.519-7.676,25.349-12.236,40.224-12.236
		c38.389,0,69.68,30.096,71.765,67.969c0.078-1.328,0.203-2.647,0.203-3.998c0-39.74-32.228-71.967-71.968-71.967
		c-14.852,0-28.666,4.553-40.169,12.206C395.694,189.39,395.819,190.632,395.819,191.912z"/>
	<path style="fill:#FFFFFF;" d="M139.936,343.843c0-1.569-0.148-3.022-0.406-4.389c-4.053,20.326-42.051,18.858-42.051,18.858
		l-5.521,17.516c0,0,0.867,0.078,2.452,0.219l3.069-9.738C97.479,366.309,139.936,367.988,139.936,343.843z"/>
	<path style="fill:#FFFFFF;" d="M372.236,339.454c-0.258,1.366-0.406,2.819-0.406,4.389c0,24.146,42.457,22.466,42.457,22.466
		l3.069,9.738c1.585-0.141,2.452-0.219,2.452-0.219l-5.521-17.516C414.286,358.313,376.288,359.78,372.236,339.454z"/>
	<path style="fill:#FFFFFF;" d="M75.965,183.916c14.876,0,28.706,4.561,40.224,12.236c-0.086-1.358-0.242-2.804-0.242-4.24
		c0-1.281,0.125-2.522,0.188-3.787c-11.502-7.653-25.316-12.206-40.169-12.206c-39.739,0-71.967,32.228-71.967,71.967
		c0,1.351,0.125,2.67,0.203,3.998C6.286,214.012,37.576,183.916,75.965,183.916z"/>
	<path style="fill:#FFFFFF;" d="M187.914,119.945c31.509,0,58.215,20.311,67.969,48.454c9.753-28.144,36.46-48.454,67.969-48.454
		c38.311,0,69.546,29.971,71.756,67.727c0.086-1.226,0.211-2.483,0.211-3.756c0-39.74-32.228-71.967-71.967-71.967
		c-31.509,0-58.216,20.311-67.969,48.455c-9.754-28.144-36.46-48.455-67.969-48.455c-39.74,0-71.968,32.228-71.968,71.967
		c0,1.272,0.125,2.53,0.211,3.756C118.367,149.916,149.603,119.945,187.914,119.945z"/>
</g>
<g>
	<path style="fill:#116FFF;" d="M75.965,299.863c-25.559,0-47.127-18.289-51.281-43.488c-0.461-2.968-0.695-5.81-0.695-8.488
		c0-28.659,23.317-51.977,51.976-51.977s51.977,23.317,51.977,51.977c0,2.678-0.234,5.521-0.688,8.457
		C123.092,281.574,101.524,299.863,75.965,299.863z M75.965,203.907c-24.247,0-43.979,19.733-43.979,43.98
		c0,2.265,0.203,4.693,0.593,7.223c3.506,21.287,21.755,36.756,43.386,36.756s39.88-15.47,43.395-36.788
		c0.382-2.499,0.585-4.927,0.585-7.192C119.945,223.64,100.212,203.907,75.965,203.907z"/>
	<path style="fill:#116FFF;" d="M435.8,299.863c-25.559,0-47.127-18.289-51.281-43.488c-0.46-2.968-0.694-5.81-0.694-8.488
		c0-28.659,23.317-51.977,51.976-51.977c28.659,0,51.977,23.317,51.977,51.977c0,2.678-0.234,5.521-0.688,8.457
		C482.927,281.574,461.359,299.863,435.8,299.863z M435.8,203.907c-24.246,0-43.979,19.733-43.979,43.98
		c0,2.265,0.203,4.693,0.594,7.223c3.506,21.287,21.755,36.756,43.386,36.756s39.881-15.47,43.395-36.788
		c0.383-2.499,0.586-4.927,0.586-7.192C479.78,223.64,460.047,203.907,435.8,203.907z"/>
	<path style="fill:#116FFF;" d="M323.852,235.892c-25.559,0-47.127-18.289-51.281-43.488c-0.469-3.007-0.695-5.779-0.695-8.488
		c0-28.659,23.317-51.977,51.977-51.977s51.976,23.317,51.976,51.977c0,2.678-0.233,5.521-0.687,8.457
		C370.979,217.604,349.41,235.892,323.852,235.892z M323.852,139.936c-24.247,0-43.979,19.733-43.979,43.98
		c0,2.327,0.188,4.623,0.593,7.223c3.507,21.287,21.756,36.756,43.387,36.756s39.88-15.469,43.394-36.788
		c0.383-2.499,0.586-4.927,0.586-7.192C367.831,159.669,348.099,139.936,323.852,139.936z"/>
	<path style="fill:#116FFF;" d="M187.914,235.892c-25.559,0-47.127-18.289-51.281-43.488c-0.461-2.968-0.695-5.81-0.695-8.488
		c0-28.659,23.317-51.977,51.977-51.977c28.658,0,51.976,23.317,51.976,51.977c0,2.709-0.226,5.481-0.687,8.457
		C235.041,217.604,213.473,235.892,187.914,235.892z M187.914,139.936c-24.247,0-43.98,19.733-43.98,43.98
		c0,2.265,0.203,4.693,0.594,7.223c3.506,21.287,21.756,36.756,43.387,36.756c21.63,0,39.88-15.469,43.394-36.788
		c0.398-2.569,0.586-4.865,0.586-7.192C231.894,159.669,212.16,139.936,187.914,139.936z"/>
	<path style="fill:#116FFF;" d="M32.563,256.406l-7.934-0.68c4.389-25.684,25.957-43.823,51.336-43.823s46.947,18.14,51.273,43.144
		l0.062,0.835h-7.996c-3.608-20.631-21.857-35.983-43.34-35.983S36.234,235.252,32.563,256.406z"/>
	<path style="fill:#116FFF;" d="M388.432,260.147c-2.21,0-3.968-2.054-3.968-4.264v-0.156c4.389-25.684,25.957-43.823,51.336-43.823
		s46.947,18.14,51.273,43.144c0.039,0.218,0.062,0.609,0.062,0.835c0,2.21-1.788,3.998-3.998,3.998s-3.998-1.788-3.998-3.998
		c-3.607-20.631-21.857-35.983-43.34-35.983s-39.731,15.353-43.401,36.507C392.399,258.616,390.642,260.147,388.432,260.147z"/>
	<path style="fill:#116FFF;" d="M276.483,196.176c-2.21,0-3.967-2.054-3.967-4.264v-0.156c4.389-25.684,25.957-43.823,51.336-43.823
		s46.947,18.14,51.273,43.144c0.039,0.218,0.062,0.609,0.062,0.835c0,2.21-1.788,3.998-3.998,3.998s-3.999-1.788-3.999-3.998
		c-3.607-20.631-21.856-35.983-43.339-35.983s-39.731,15.353-43.402,36.507C280.449,194.646,278.693,196.176,276.483,196.176z"/>
	<path style="fill:#116FFF;" d="M140.545,196.176c-2.21,0-3.967-2.054-3.967-4.264v-0.156c4.389-25.684,25.957-43.823,51.336-43.823
		s46.947,18.14,51.273,43.144c0.039,0.218,0.062,0.609,0.062,0.835c0,2.21-1.788,3.998-3.998,3.998s-3.999-1.788-3.999-3.998
		c-3.607-20.631-21.857-35.983-43.339-35.983s-39.732,15.353-43.402,36.507C144.512,194.646,142.755,196.176,140.545,196.176z"/>
	<path style="fill:#116FFF;" d="M255.883,387.822c-2.21,0-3.998-1.788-3.998-3.998s1.788-3.998,3.998-3.998
		c64.704,0,138.999-5.896,158.614-7.551l-3.139-9.941c-7.535-0.102-26.863-1.343-36.983-11.073
		c-4.342-4.17-6.544-9.362-6.544-15.415c0-7.027,2.366-12.924,7.028-17.522c10.308-10.151,28.214-9.987,29.019-9.987
		c2.201,0.031,3.959,1.842,3.936,4.053c-0.031,2.201-2.242,4.045-4.053,3.943c-0.109-0.008-15.415-0.102-23.303,7.707
		c-3.115,3.077-4.631,6.942-4.631,11.807c0,3.851,1.336,7.005,4.093,9.652c8.332,8.012,27.534,9.09,34.21,8.816
		c1.75,0.094,3.429,1.07,3.968,2.795l5.521,17.516c0.367,1.156,0.188,2.413-0.484,3.421c-0.671,1.007-1.757,1.655-2.967,1.765
		C419.284,379.889,331.161,387.822,255.883,387.822z"/>
	<path style="fill:#116FFF;" d="M255.883,387.822c-75.278,0-163.402-7.934-164.284-8.012c-1.211-0.109-2.296-0.758-2.968-1.765
		c-0.671-1.008-0.851-2.265-0.484-3.421l5.521-17.516c0.539-1.725,2.265-2.756,3.967-2.795c0.203,0.039,24.208,0.812,34.219-8.824
		c2.749-2.647,4.084-5.802,4.084-9.645c0-4.88-1.522-8.745-4.646-11.822c-6.599-6.505-19.319-7.598-23.278-7.691
		c-0.023,0-0.047,0-0.062,0c-2.179,0-3.967-1.75-3.998-3.936c-0.031-2.211,1.733-4.029,3.936-4.061
		c0.742,0.008,18.71-0.164,29.018,9.987c4.662,4.599,7.028,10.495,7.028,17.522c0,6.053-2.202,11.245-6.544,15.415
		c-10.12,9.73-29.447,10.972-36.982,11.073l-3.14,9.941c19.616,1.655,93.918,7.551,158.615,7.551c2.21,0,3.998,1.788,3.998,3.998
		S258.093,387.822,255.883,387.822z"/>
	<path style="fill:#116FFF;" d="M255.883,403.816c-2.21,0-3.998-1.788-3.998-3.999c0-2.209,1.788-3.998,3.998-3.998
		c74.919,0,162.683-7.902,163.565-7.98c1.999-0.172,4.139,1.422,4.342,3.623c0.203,2.195-1.421,4.139-3.623,4.342
		C419.284,395.881,331.161,403.816,255.883,403.816z"/>
	<path style="fill:#116FFF;" d="M255.883,403.816c-75.278,0-163.402-7.935-164.284-8.013c-2.202-0.203-3.819-2.146-3.624-4.342
		c0.203-2.201,2.335-3.779,4.342-3.623c0.882,0.078,88.663,7.98,163.566,7.98c2.21,0,3.998,1.789,3.998,3.998
		C259.881,402.028,258.093,403.816,255.883,403.816z"/>
	<path style="fill:#116FFF;" d="M255.883,363.989c-2.21,0-3.998-1.788-3.998-3.998s1.788-3.998,3.998-3.998
		c82.454,0,100.337-55.412,103.655-88.437c0.414-3.943,0.578-7.34,0.625-9.948c-41.192,16.376-62.792,4.467-80.26-5.161
		c-8.488-4.678-15.813-8.715-24.021-8.715c-2.21,0-3.998-1.789-3.998-3.999c0-2.209,1.788-3.998,3.998-3.998
		c10.261,0,18.819,4.716,27.878,9.707c17.555,9.683,37.459,20.678,78.706,2.538c1.194-0.531,2.546-0.422,3.67,0.234
		c1.108,0.671,1.827,1.843,1.929,3.131c0.016,0.281,0.484,6.958-0.578,17.031C364.599,297.107,347.943,363.989,255.883,363.989z"/>
	<path style="fill:#116FFF;" d="M255.883,363.989c-92.06,0-108.716-66.883-111.605-95.636c-1.062-10.05-0.594-16.727-0.578-17.008
		c0.102-1.288,0.82-2.46,1.929-3.131c1.109-0.656,2.483-0.758,3.67-0.234c41.239,18.124,61.144,7.145,78.706-2.538
		c9.058-4.99,17.617-9.707,27.878-9.707c2.21,0,3.998,1.789,3.998,3.998c0,2.21-1.788,3.999-3.998,3.999
		c-8.207,0-15.532,4.037-24.021,8.715c-17.484,9.628-39.1,21.521-80.26,5.161c0.047,2.608,0.21,5.989,0.624,9.925
		c3.319,33.048,21.202,88.46,103.656,88.46c2.21,0,3.998,1.788,3.998,3.998S258.093,363.989,255.883,363.989z"/>
	<path style="fill:#116FFF;" d="M322.571,281.832c-18.625,0-31.494-7.083-42.676-13.244c-8.48-4.67-15.813-8.707-24.013-8.707
		c-2.21,0-3.998-1.788-3.998-3.998c0-2.21,1.788-3.998,3.998-3.998c10.261,0,18.812,4.709,27.87,9.698
		c17.484,9.629,37.311,20.522,78.159,2.71c2.03-0.875,4.381,0.039,5.263,2.062c0.883,2.022-0.038,4.381-2.061,5.264
		C348.036,279.075,334.191,281.832,322.571,281.832z"/>
	<path style="fill:#116FFF;" d="M189.195,281.832c-11.62,0-25.465-2.757-42.543-10.214c-2.022-0.883-2.944-3.241-2.062-5.264
		c0.89-2.022,3.249-2.937,5.263-2.062c40.833,17.828,60.667,6.927,78.16-2.71c9.058-4.989,17.609-9.698,27.87-9.698
		c2.21,0,3.998,1.788,3.998,3.998c0,2.21-1.788,3.998-3.998,3.998c-8.2,0-15.532,4.037-24.013,8.707
		C220.688,274.741,207.811,281.832,189.195,281.832z"/>
	<path style="fill:#116FFF;" d="M435.8,323.852c-6.324,0-11.877-2.116-17.242-4.17c-5.044-1.921-9.784-3.701-14.415-3.365
		c-2.296,0.133-4.131-1.461-4.311-3.654c-0.179-2.203,1.46-4.132,3.655-4.311c6.457-0.547,12.268,1.702,17.921,3.857
		c4.904,1.874,9.543,3.646,14.392,3.646c37.476,0,67.969-30.494,67.969-67.969c0-37.476-30.493-67.969-67.969-67.969
		c-13.509,0-26.651,3.998-38.006,11.564c-1.257,0.852-2.881,0.891-4.217,0.141c-1.312-0.765-2.085-2.202-1.991-3.717l0.094-1.257
		c0.062-0.898,0.141-1.82,0.141-2.733c0-37.476-30.494-67.969-67.969-67.969c-28.909,0-54.702,18.39-64.189,45.768
		c-0.734,2.085-2.999,3.179-5.091,2.468c-2.085-0.727-3.186-2.999-2.468-5.091c10.605-30.587,39.435-51.141,71.749-51.141
		c40.911,0,74.364,32.501,75.91,73.037c11.104-5.95,23.427-9.066,36.038-9.066c41.888,0,75.966,34.078,75.966,75.965
		C511.766,289.774,477.688,323.852,435.8,323.852z"/>
	<path style="fill:#116FFF;" d="M75.965,323.852C34.078,323.852,0,289.774,0,247.887s34.078-75.965,75.965-75.965
		c12.611,0,24.934,3.116,36.038,9.066c1.546-40.536,35-73.037,75.911-73.037c32.313,0,61.144,20.554,71.748,51.141
		c0.719,2.093-0.383,4.365-2.468,5.091c-2.085,0.703-4.357-0.383-5.091-2.468c-9.488-27.378-35.281-45.768-64.189-45.768
		c-37.476,0-67.969,30.494-67.969,67.969c0,0.913,0.078,1.835,0.141,2.733l0.094,1.257c0.093,1.515-0.679,2.952-1.992,3.717
		c-1.327,0.75-2.936,0.711-4.217-0.141c-11.354-7.566-24.496-11.564-38.006-11.564c-37.475,0-67.969,30.493-67.969,67.969
		c0,37.475,30.494,67.969,67.969,67.969c4.85,0,9.488-1.772,14.392-3.646c5.654-2.155,11.433-4.404,17.922-3.857
		c2.194,0.179,3.834,2.107,3.654,4.311c-0.18,2.193-2.015,3.803-4.311,3.654c-4.646-0.344-9.378,1.444-14.415,3.365
		C87.842,321.736,82.29,323.852,75.965,323.852z"/>
	<path style="fill:#116FFF;" d="M91.958,395.819c-2.209,0-3.998-1.788-3.998-3.998v-15.992c0-2.21,1.789-3.998,3.998-3.998
		c2.21,0,3.999,1.788,3.999,3.998v15.992C95.956,394.03,94.168,395.819,91.958,395.819z"/>
	<path style="fill:#116FFF;" d="M419.808,395.819c-2.21,0-3.998-1.788-3.998-3.998v-15.992c0-2.21,1.788-3.998,3.998-3.998
		s3.998,1.788,3.998,3.998v15.992C423.806,394.03,422.018,395.819,419.808,395.819z"/>
</g>
<g>
</g>
<g>
</g>
<g>
</g>
<g>
</g>
<g>
</g>
<g>
</g>
<g>
</g>
<g>
</g>
<g>
</g>
<g>
</g>
<g>
</g>
<g>
</g>
<g>
</g>
<g>
</g>
<g>
</g>
</svg>
