<?xml version="1.0" encoding="UTF-8" standalone="no" ?>
<!DOCTYPE svg PUBLIC "-//W3C//DTD SVG 1.1//EN" "http://www.w3.org/Graphics/SVG/1.1/DTD/svg11.dtd">
<svg xmlns="http://www.w3.org/2000/svg" xmlns:xlink="http://www.w3.org/1999/xlink" version="1.1" width="720" height="720" viewBox="0 0 720 720" xml:space="preserve">
<desc>Created with Fabric.js 4.2.0</desc>
<defs>
</defs>
<rect x="0" y="0" width="100%" height="100%" fill="transparent"></rect>
<g transform="matrix(1 0 0 1 360 360)" id="1b611884-6b14-41d1-85aa-cb9b3af04acb"  >
<rect style="stroke: none; stroke-width: 1; stroke-dasharray: none; stroke-linecap: butt; stroke-dashoffset: 0; stroke-linejoin: miter; stroke-miterlimit: 4; fill: rgb(255,255,255); fill-opacity: 0; fill-rule: nonzero; opacity: 1;" vector-effect="non-scaling-stroke"  x="-360" y="-360" rx="0" ry="0" width="720" height="720" />
</g>
<g transform="matrix(Infinity NaN NaN Infinity 0 0)" id="099a0cde-e345-4787-9a8d-dbca54d07a07"  >
</g>
<g transform="matrix(1.35 0 0 1.35 359.81 360.19)"  >
<g style="" vector-effect="non-scaling-stroke"   >
		<g transform="matrix(8.83 0 0 8.83 -24.12 24.12)" id="Shape"  >
<path style="stroke: none; stroke-width: 1; stroke-dasharray: none; stroke-linecap: butt; stroke-dashoffset: 0; stroke-linejoin: miter; stroke-miterlimit: 4; fill: rgb(177,144,70); fill-rule: nonzero; opacity: 1;" vector-effect="non-scaling-stroke"  transform=" translate(-27.26, -31.73)" d="M 35.26 26.58 L 22.11 39.73 C 22.077401899999998 38.990364899999996 21.7666709 38.2903272 21.24 37.769999999999996 L 21.229999999999997 37.76 C 20.709672799999996 37.2333291 20.009635099999997 36.922598099999995 19.269999999999996 36.89 L 32.419999999999995 23.740000000000002 L 33.89999999999999 24.17 C 34.349351899999995 24.2993598 34.70064019999999 24.6506481 34.82999999999999 25.1 z" stroke-linecap="round" />
</g>
		<g transform="matrix(8.83 0 0 8.83 -160.59 160.6)" id="Shape"  >
<path style="stroke: none; stroke-width: 1; stroke-dasharray: none; stroke-linecap: butt; stroke-dashoffset: 0; stroke-linejoin: miter; stroke-miterlimit: 4; fill: rgb(41,128,186); fill-rule: nonzero; opacity: 1;" vector-effect="non-scaling-stroke"  transform=" translate(-11.81, -47.2)" d="M 22.61 39.23 C 22.6621483 40.079867 22.3450424 40.9109031 21.74 41.51 L 6.129999999999999 57.12 C 5.569865199999999 57.686245199999995 4.8064826799999985 58.004877199999996 4.009999999999999 58.004877199999996 C 3.2135173199999993 58.004877199999996 2.450134799999999 57.686245199999995 1.8899999999999988 57.12 L 1.8799999999999988 57.11 C 1.3137547699999987 56.5498652 0.9951227899999988 55.7864827 0.9951227899999988 54.99 C 0.9951227899999988 54.1935173 1.3137547699999987 53.430134800000005 1.8799999999999988 52.870000000000005 L 17.49 37.260000000000005 C 18.663083099999998 36.094575400000004 20.556916899999997 36.094575400000004 21.729999999999997 37.260000000000005 L 21.74 37.27 C 22.266670899999998 37.7903272 22.577401899999998 38.4903649 22.61 39.230000000000004 z" stroke-linecap="round" />
</g>
		<g transform="matrix(6.24 -6.24 6.24 6.24 -104.27 104.19)" id="Rectangle-path"  >
<path style="stroke: none; stroke-width: 1; stroke-dasharray: none; stroke-linecap: butt; stroke-dashoffset: 0; stroke-linejoin: miter; stroke-miterlimit: 4; fill: rgb(59,151,211); fill-rule: nonzero; opacity: 1;" vector-effect="non-scaling-stroke"  transform=" translate(-18.19, -40.81)" d="M 17.192 37.799 L 19.192 37.799 L 19.192 43.816 L 17.192 43.816 z" stroke-linecap="round" />
</g>
		<g transform="matrix(6.24 -6.24 6.24 6.24 -141.83 141.76)" id="Rectangle-path"  >
<path style="stroke: none; stroke-width: 1; stroke-dasharray: none; stroke-linecap: butt; stroke-dashoffset: 0; stroke-linejoin: miter; stroke-miterlimit: 4; fill: rgb(59,151,211); fill-rule: nonzero; opacity: 1;" vector-effect="non-scaling-stroke"  transform=" translate(-13.94, -45.06)" d="M 12.937 42.055 L 14.937 42.055 L 14.937 48.073 L 12.937 48.073 z" stroke-linecap="round" />
</g>
		<g transform="matrix(6.24 -6.24 6.24 6.24 -179.39 179.3)" id="Rectangle-path"  >
<path style="stroke: none; stroke-width: 1; stroke-dasharray: none; stroke-linecap: butt; stroke-dashoffset: 0; stroke-linejoin: miter; stroke-miterlimit: 4; fill: rgb(59,151,211); fill-rule: nonzero; opacity: 1;" vector-effect="non-scaling-stroke"  transform=" translate(-9.68, -49.32)" d="M 8.682 46.309 L 10.682 46.309 L 10.682 52.326 L 8.682 52.326 z" stroke-linecap="round" />
</g>
		<g transform="matrix(6.24 -6.24 6.24 6.24 -216.95 216.86)" id="Rectangle-path"  >
<path style="stroke: none; stroke-width: 1; stroke-dasharray: none; stroke-linecap: butt; stroke-dashoffset: 0; stroke-linejoin: miter; stroke-miterlimit: 4; fill: rgb(59,151,211); fill-rule: nonzero; opacity: 1;" vector-effect="non-scaling-stroke"  transform=" translate(-5.43, -53.57)" d="M 4.427 50.565 L 6.427 50.565 L 6.427 56.582 L 4.427 56.582 z" stroke-linecap="round" />
</g>
		<g transform="matrix(8.83 0 0 8.83 95.23 -95.23)" id="Shape"  >
<path style="stroke: none; stroke-width: 1; stroke-dasharray: none; stroke-linecap: butt; stroke-dashoffset: 0; stroke-linejoin: miter; stroke-miterlimit: 4; fill: rgb(243,213,91); fill-rule: nonzero; opacity: 1;" vector-effect="non-scaling-stroke"  transform=" translate(-40.79, -18.21)" d="M 57.54 26.4 L 47.1 26.52 C 46.6275363 26.5265736 46.1861126 26.756559 45.910000000000004 27.14 L 39.690000000000005 35.8 C 39.3856217 36.2493942 38.850868000000006 36.484898099999995 38.3138537 36.406050799999996 C 37.776839300000006 36.327203399999995 37.332351800000005 35.947922 37.17 35.42999999999999 L 34.760000000000005 27.07999999999999 L 34.330000000000005 25.59999999999999 C 34.2006402 25.15064809999999 33.8493519 24.79935979999999 33.400000000000006 24.66999999999999 L 31.920000000000005 24.23999999999999 L 23.570000000000007 21.82999999999999 C 23.05207800000001 21.66764819999999 22.67279660000001 21.22316069999999 22.593949200000008 20.68614629999999 C 22.51510190000001 20.14913199999999 22.75060580000001 19.61437829999999 23.200000000000006 19.30999999999999 L 31.860000000000007 13.089999999999993 C 32.243441000000004 12.813887399999993 32.47342640000001 12.372463699999992 32.480000000000004 11.899999999999993 L 32.6 1.4599999999999937 C 32.6050749 0.9173291999999937 32.9097261 0.42192379999999385 33.3917275 0.17254048999999383 C 33.8737288 -0.07684283000000616 34.4541015 -0.039341090000006185 34.9 0.2699999999999938 L 43.089999999999996 6.299999999999994 C 43.470119499999996 6.572721899999993 43.9604101 6.640090079999994 44.4 6.479999999999993 L 54.31 2.9099999999999935 C 54.8179901 2.7152248899999933 55.3930275 2.8375683999999937 55.7777296 3.2222704399999933 C 56.1624316 3.6069724899999933 56.2847751 4.182009859999994 56.09 4.689999999999993 L 52.52 14.599999999999994 C 52.359909900000005 15.039589899999994 52.4272781 15.529880499999994 52.7 15.909999999999995 L 58.730000000000004 24.099999999999994 C 59.0393411 24.545898499999993 59.0768428 25.126271199999994 58.8274595 25.608272499999995 C 58.578076200000005 26.090273899999996 58.0826708 26.394925099999995 57.540000000000006 26.399999999999995 z" stroke-linecap="round" />
</g>
		<g transform="matrix(8.83 0 0 8.83 105.95 -101.54)" id="Shape"  >
<path style="stroke: none; stroke-width: 1; stroke-dasharray: none; stroke-linecap: butt; stroke-dashoffset: 0; stroke-linejoin: miter; stroke-miterlimit: 4; fill: rgb(240,196,25); fill-rule: nonzero; opacity: 1;" vector-effect="non-scaling-stroke"  transform=" translate(-42, -17.5)" d="M 42 25 C 41.4477153 25 41 24.5522847 41 24 L 41 11 C 41 10.4477153 41.4477153 10 42 10 C 42.5522847 10 43 10.4477153 43 11 L 43 24 C 43 24.5522847 42.5522847 25 42 25 z" stroke-linecap="round" />
</g>
		<g transform="matrix(8.83 0 0 8.83 70.64 -101.54)" id="Shape"  >
<path style="stroke: none; stroke-width: 1; stroke-dasharray: none; stroke-linecap: butt; stroke-dashoffset: 0; stroke-linejoin: miter; stroke-miterlimit: 4; fill: rgb(240,196,25); fill-rule: nonzero; opacity: 1;" vector-effect="non-scaling-stroke"  transform=" translate(-38, -17.5)" d="M 38 22 C 37.4477153 22 37 21.5522847 37 21 L 37 14 C 37 13.4477153 37.4477153 13 38 13 C 38.5522847 13 39 13.4477153 39 14 L 39 21 C 39 21.5522847 38.5522847 22 38 22 z" stroke-linecap="round" />
</g>
		<g transform="matrix(8.83 0 0 8.83 141.26 -101.54)" id="Shape"  >
<path style="stroke: none; stroke-width: 1; stroke-dasharray: none; stroke-linecap: butt; stroke-dashoffset: 0; stroke-linejoin: miter; stroke-miterlimit: 4; fill: rgb(240,196,25); fill-rule: nonzero; opacity: 1;" vector-effect="non-scaling-stroke"  transform=" translate(-46, -17.5)" d="M 46 22 C 45.4477153 22 45 21.5522847 45 21 L 45 14 C 45 13.4477153 45.4477153 13 46 13 C 46.5522847 13 47 13.4477153 47 14 L 47 21 C 47 21.5522847 46.5522847 22 46 22 z" stroke-linecap="round" />
</g>
		<g transform="matrix(8.83 0 0 8.83 -70.6 -229.54)" id="Shape"  >
<path style="stroke: none; stroke-width: 1; stroke-dasharray: none; stroke-linecap: butt; stroke-dashoffset: 0; stroke-linejoin: miter; stroke-miterlimit: 4; fill: rgb(240,196,25); fill-rule: nonzero; opacity: 1;" vector-effect="non-scaling-stroke"  transform=" translate(-22, -3)" d="M 22 5 C 21.4477153 5 21 4.55228475 21 4 L 21 2 C 21 1.44771525 21.4477153 1 22 1 C 22.5522847 1 23 1.44771525 23 2 L 23 4 C 23 4.55228475 22.5522847 5 22 5 z" stroke-linecap="round" />
</g>
		<g transform="matrix(8.83 0 0 8.83 -70.6 -176.57)" id="Shape"  >
<path style="stroke: none; stroke-width: 1; stroke-dasharray: none; stroke-linecap: butt; stroke-dashoffset: 0; stroke-linejoin: miter; stroke-miterlimit: 4; fill: rgb(240,196,25); fill-rule: nonzero; opacity: 1;" vector-effect="non-scaling-stroke"  transform=" translate(-22, -9)" d="M 22 11 C 21.4477153 11 21 10.5522847 21 10 L 21 8 C 21 7.44771525 21.4477153 7 22 7 C 22.5522847 7 23 7.44771525 23 8 L 23 10 C 23 10.5522847 22.5522847 11 22 11 z" stroke-linecap="round" />
</g>
		<g transform="matrix(8.83 0 0 8.83 -92.67 -203.06)" id="Shape"  >
<path style="stroke: none; stroke-width: 1; stroke-dasharray: none; stroke-linecap: butt; stroke-dashoffset: 0; stroke-linejoin: miter; stroke-miterlimit: 4; fill: rgb(240,196,25); fill-rule: nonzero; opacity: 1;" vector-effect="non-scaling-stroke"  transform=" translate(-19.5, -6)" d="M 20 7 L 19 7 C 18.4477153 7 18 6.55228475 18 6 C 18 5.44771525 18.4477153 5 19 5 L 20 5 C 20.5522847 5 21 5.44771525 21 6 C 21 6.55228475 20.5522847 7 20 7 z" stroke-linecap="round" />
</g>
		<g transform="matrix(8.83 0 0 8.83 -48.53 -203.06)" id="Shape"  >
<path style="stroke: none; stroke-width: 1; stroke-dasharray: none; stroke-linecap: butt; stroke-dashoffset: 0; stroke-linejoin: miter; stroke-miterlimit: 4; fill: rgb(240,196,25); fill-rule: nonzero; opacity: 1;" vector-effect="non-scaling-stroke"  transform=" translate(-24.5, -6)" d="M 25 7 L 24 7 C 23.4477153 7 23 6.55228475 23 6 C 23 5.44771525 23.4477153 5 24 5 L 25 5 C 25.5522847 5 26 5.44771525 26 6 C 26 6.55228475 25.5522847 7 25 7 z" stroke-linecap="round" />
</g>
		<g transform="matrix(8.83 0 0 8.83 -123.56 -123.61)" id="Shape"  >
<path style="stroke: none; stroke-width: 1; stroke-dasharray: none; stroke-linecap: butt; stroke-dashoffset: 0; stroke-linejoin: miter; stroke-miterlimit: 4; fill: rgb(240,196,25); fill-rule: nonzero; opacity: 1;" vector-effect="non-scaling-stroke"  transform=" translate(-16, -15)" d="M 16 17 C 15.4477153 17 15 16.5522847 15 16 L 15 14 C 15 13.4477153 15.4477153 13 16 13 C 16.5522847 13 17 13.4477153 17 14 L 17 16 C 17 16.5522847 16.5522847 17 16 17 z" stroke-linecap="round" />
</g>
		<g transform="matrix(8.83 0 0 8.83 -123.56 -70.64)" id="Shape"  >
<path style="stroke: none; stroke-width: 1; stroke-dasharray: none; stroke-linecap: butt; stroke-dashoffset: 0; stroke-linejoin: miter; stroke-miterlimit: 4; fill: rgb(240,196,25); fill-rule: nonzero; opacity: 1;" vector-effect="non-scaling-stroke"  transform=" translate(-16, -21)" d="M 16 23 C 15.4477153 23 15 22.5522847 15 22 L 15 20 C 15 19.4477153 15.4477153 19 16 19 C 16.5522847 19 17 19.4477153 17 20 L 17 22 C 17 22.5522847 16.5522847 23 16 23 z" stroke-linecap="round" />
</g>
		<g transform="matrix(8.83 0 0 8.83 -145.63 -97.12)" id="Shape"  >
<path style="stroke: none; stroke-width: 1; stroke-dasharray: none; stroke-linecap: butt; stroke-dashoffset: 0; stroke-linejoin: miter; stroke-miterlimit: 4; fill: rgb(240,196,25); fill-rule: nonzero; opacity: 1;" vector-effect="non-scaling-stroke"  transform=" translate(-13.5, -18)" d="M 14 19 L 13 19 C 12.4477153 19 12 18.5522847 12 18 C 12 17.4477153 12.4477153 17 13 17 L 14 17 C 14.5522847 17 15 17.4477153 15 18 C 15 18.5522847 14.5522847 19 14 19 z" stroke-linecap="round" />
</g>
		<g transform="matrix(8.83 0 0 8.83 -101.5 -97.12)" id="Shape"  >
<path style="stroke: none; stroke-width: 1; stroke-dasharray: none; stroke-linecap: butt; stroke-dashoffset: 0; stroke-linejoin: miter; stroke-miterlimit: 4; fill: rgb(240,196,25); fill-rule: nonzero; opacity: 1;" vector-effect="non-scaling-stroke"  transform=" translate(-18.5, -18)" d="M 19 19 L 18 19 C 17.4477153 19 17 18.5522847 17 18 C 17 17.4477153 17.4477153 17 18 17 L 19 17 C 19.5522847 17 20 17.4477153 20 18 C 20 18.5522847 19.5522847 19 19 19 z" stroke-linecap="round" />
</g>
		<g transform="matrix(8.83 0 0 8.83 61.81 105.91)" id="Shape"  >
<path style="stroke: none; stroke-width: 1; stroke-dasharray: none; stroke-linecap: butt; stroke-dashoffset: 0; stroke-linejoin: miter; stroke-miterlimit: 4; fill: rgb(240,196,25); fill-rule: nonzero; opacity: 1;" vector-effect="non-scaling-stroke"  transform=" translate(-37, -41)" d="M 37 43 C 36.4477153 43 36 42.5522847 36 42 L 36 40 C 36 39.4477153 36.4477153 39 37 39 C 37.5522847 39 38 39.4477153 38 40 L 38 42 C 38 42.5522847 37.5522847 43 37 43 z" stroke-linecap="round" />
</g>
		<g transform="matrix(8.83 0 0 8.83 61.81 158.88)" id="Shape"  >
<path style="stroke: none; stroke-width: 1; stroke-dasharray: none; stroke-linecap: butt; stroke-dashoffset: 0; stroke-linejoin: miter; stroke-miterlimit: 4; fill: rgb(240,196,25); fill-rule: nonzero; opacity: 1;" vector-effect="non-scaling-stroke"  transform=" translate(-37, -47)" d="M 37 49 C 36.4477153 49 36 48.5522847 36 48 L 36 46 C 36 45.4477153 36.4477153 45 37 45 C 37.5522847 45 38 45.4477153 38 46 L 38 48 C 38 48.5522847 37.5522847 49 37 49 z" stroke-linecap="round" />
</g>
		<g transform="matrix(8.83 0 0 8.83 39.75 132.39)" id="Shape"  >
<path style="stroke: none; stroke-width: 1; stroke-dasharray: none; stroke-linecap: butt; stroke-dashoffset: 0; stroke-linejoin: miter; stroke-miterlimit: 4; fill: rgb(240,196,25); fill-rule: nonzero; opacity: 1;" vector-effect="non-scaling-stroke"  transform=" translate(-34.5, -44)" d="M 35 45 L 34 45 C 33.4477153 45 33 44.5522847 33 44 C 33 43.4477153 33.4477153 43 34 43 L 35 43 C 35.5522847 43 36 43.4477153 36 44 C 36 44.5522847 35.5522847 45 35 45 z" stroke-linecap="round" />
</g>
		<g transform="matrix(8.83 0 0 8.83 83.88 132.39)" id="Shape"  >
<path style="stroke: none; stroke-width: 1; stroke-dasharray: none; stroke-linecap: butt; stroke-dashoffset: 0; stroke-linejoin: miter; stroke-miterlimit: 4; fill: rgb(240,196,25); fill-rule: nonzero; opacity: 1;" vector-effect="non-scaling-stroke"  transform=" translate(-39.5, -44)" d="M 40 45 L 39 45 C 38.4477153 45 38 44.5522847 38 44 C 38 43.4477153 38.4477153 43 39 43 L 40 43 C 40.5522847 43 41 43.4477153 41 44 C 41 44.5522847 40.5522847 45 40 45 z" stroke-linecap="round" />
</g>
		<g transform="matrix(8.83 0 0 8.83 194.23 52.94)" id="Shape"  >
<path style="stroke: none; stroke-width: 1; stroke-dasharray: none; stroke-linecap: butt; stroke-dashoffset: 0; stroke-linejoin: miter; stroke-miterlimit: 4; fill: rgb(240,196,25); fill-rule: nonzero; opacity: 1;" vector-effect="non-scaling-stroke"  transform=" translate(-52, -35)" d="M 52 37 C 51.4477153 37 51 36.5522847 51 36 L 51 34 C 51 33.4477153 51.4477153 33 52 33 C 52.5522847 33 53 33.4477153 53 34 L 53 36 C 53 36.5522847 52.5522847 37 52 37 z" stroke-linecap="round" />
</g>
		<g transform="matrix(8.83 0 0 8.83 194.23 105.91)" id="Shape"  >
<path style="stroke: none; stroke-width: 1; stroke-dasharray: none; stroke-linecap: butt; stroke-dashoffset: 0; stroke-linejoin: miter; stroke-miterlimit: 4; fill: rgb(240,196,25); fill-rule: nonzero; opacity: 1;" vector-effect="non-scaling-stroke"  transform=" translate(-52, -41)" d="M 52 43 C 51.4477153 43 51 42.5522847 51 42 L 51 40 C 51 39.4477153 51.4477153 39 52 39 C 52.5522847 39 53 39.4477153 53 40 L 53 42 C 53 42.5522847 52.5522847 43 52 43 z" stroke-linecap="round" />
</g>
		<g transform="matrix(8.83 0 0 8.83 172.16 79.43)" id="Shape"  >
<path style="stroke: none; stroke-width: 1; stroke-dasharray: none; stroke-linecap: butt; stroke-dashoffset: 0; stroke-linejoin: miter; stroke-miterlimit: 4; fill: rgb(240,196,25); fill-rule: nonzero; opacity: 1;" vector-effect="non-scaling-stroke"  transform=" translate(-49.5, -38)" d="M 50 39 L 49 39 C 48.4477153 39 48 38.5522847 48 38 C 48 37.4477153 48.4477153 37 49 37 L 50 37 C 50.5522847 37 51 37.4477153 51 38 C 51 38.5522847 50.5522847 39 50 39 z" stroke-linecap="round" />
</g>
		<g transform="matrix(8.83 0 0 8.83 216.3 79.43)" id="Shape"  >
<path style="stroke: none; stroke-width: 1; stroke-dasharray: none; stroke-linecap: butt; stroke-dashoffset: 0; stroke-linejoin: miter; stroke-miterlimit: 4; fill: rgb(240,196,25); fill-rule: nonzero; opacity: 1;" vector-effect="non-scaling-stroke"  transform=" translate(-54.5, -38)" d="M 55 39 L 54 39 C 53.4477153 39 53 38.5522847 53 38 C 53 37.4477153 53.4477153 37 54 37 L 55 37 C 55.5522847 37 56 37.4477153 56 38 C 56 38.5522847 55.5522847 39 55 39 z" stroke-linecap="round" />
</g>
		<g transform="matrix(8.83 0 0 8.83 -17.63 -167.75)" id="Oval"  >
<circle style="stroke: none; stroke-width: 1; stroke-dasharray: none; stroke-linecap: butt; stroke-dashoffset: 0; stroke-linejoin: miter; stroke-miterlimit: 4; fill: rgb(242,156,31); fill-rule: nonzero; opacity: 1;" vector-effect="non-scaling-stroke"  cx="0" cy="0" r="1" />
</g>
		<g transform="matrix(8.83 0 0 8.83 -132.39 -247.19)" id="Oval"  >
<circle style="stroke: none; stroke-width: 1; stroke-dasharray: none; stroke-linecap: butt; stroke-dashoffset: 0; stroke-linejoin: miter; stroke-miterlimit: 4; fill: rgb(242,156,31); fill-rule: nonzero; opacity: 1;" vector-effect="non-scaling-stroke"  cx="0" cy="0" r="1" />
</g>
		<g transform="matrix(8.83 0 0 8.83 123.61 -247.19)" id="Oval"  >
<circle style="stroke: none; stroke-width: 1; stroke-dasharray: none; stroke-linecap: butt; stroke-dashoffset: 0; stroke-linejoin: miter; stroke-miterlimit: 4; fill: rgb(242,156,31); fill-rule: nonzero; opacity: 1;" vector-effect="non-scaling-stroke"  cx="0" cy="0" r="1" />
</g>
		<g transform="matrix(8.83 0 0 8.83 238.37 -132.44)" id="Oval"  >
<circle style="stroke: none; stroke-width: 1; stroke-dasharray: none; stroke-linecap: butt; stroke-dashoffset: 0; stroke-linejoin: miter; stroke-miterlimit: 4; fill: rgb(242,156,31); fill-rule: nonzero; opacity: 1;" vector-effect="non-scaling-stroke"  cx="0" cy="0" r="1" />
</g>
		<g transform="matrix(8.83 0 0 8.83 247.19 35.29)" id="Oval"  >
<circle style="stroke: none; stroke-width: 1; stroke-dasharray: none; stroke-linecap: butt; stroke-dashoffset: 0; stroke-linejoin: miter; stroke-miterlimit: 4; fill: rgb(242,156,31); fill-rule: nonzero; opacity: 1;" vector-effect="non-scaling-stroke"  cx="0" cy="0" r="1" />
</g>
		<g transform="matrix(8.83 0 0 8.83 123.61 97.08)" id="Oval"  >
<circle style="stroke: none; stroke-width: 1; stroke-dasharray: none; stroke-linecap: butt; stroke-dashoffset: 0; stroke-linejoin: miter; stroke-miterlimit: 4; fill: rgb(242,156,31); fill-rule: nonzero; opacity: 1;" vector-effect="non-scaling-stroke"  cx="0" cy="0" r="1" />
</g>
</g>
</g>
<g transform="matrix(1 0 0 1 625.57 583.64)" style="filter: url(#SVGID_224);" id="849eb907-2d71-462c-903c-5d20216c3171"  >
<filter id="SVGID_224" y="-30%" height="160%" x="-35%" width="170%" >
	<feGaussianBlur in="SourceAlpha" stdDeviation="10"></feGaussianBlur>
	<feOffset dx="0" dy="0" result="oBlur" ></feOffset>
	<feFlood flood-color="rgb(0,0,0)" flood-opacity="1"/>
	<feComposite in2="oBlur" operator="in" />
	<feMerge>
		<feMergeNode></feMergeNode>
		<feMergeNode in="SourceGraphic"></feMergeNode>
	</feMerge>
</filter>
		<text xml:space="preserve" font-family="Lato" font-size="186" font-style="normal" font-weight="400" style="stroke: none; stroke-width: 1; stroke-dasharray: none; stroke-linecap: butt; stroke-dashoffset: 0; stroke-linejoin: miter; stroke-miterlimit: 4; fill: rgb(255,255,204); fill-rule: nonzero; opacity: 1; white-space: pre;" ><tspan x="-63.24" y="58.43" >A</tspan></text>
</g>
</svg>