<?xml version="1.0" encoding="UTF-8" standalone="no" ?>
<!DOCTYPE svg PUBLIC "-//W3C//DTD SVG 1.1//EN" "http://www.w3.org/Graphics/SVG/1.1/DTD/svg11.dtd">
<svg xmlns="http://www.w3.org/2000/svg" xmlns:xlink="http://www.w3.org/1999/xlink" version="1.1" width="720" height="720" viewBox="0 0 720 720" xml:space="preserve">
<desc>Created with Fabric.js 4.2.0</desc>
<defs>
</defs>
<rect x="0" y="0" width="100%" height="100%" fill="transparent"></rect>
<g transform="matrix(1 0 0 1 360 360)" id="1b611884-6b14-41d1-85aa-cb9b3af04acb"  >
<rect style="stroke: none; stroke-width: 1; stroke-dasharray: none; stroke-linecap: butt; stroke-dashoffset: 0; stroke-linejoin: miter; stroke-miterlimit: 4; fill: rgb(255,255,255); fill-opacity: 0; fill-rule: nonzero; opacity: 1;" vector-effect="non-scaling-stroke"  x="-360" y="-360" rx="0" ry="0" width="720" height="720" />
</g>
<g transform="matrix(0 0 0 0 0 0)" id="099a0cde-e345-4787-9a8d-dbca54d07a07"  >
</g>
<g transform="matrix(0 -1.34 1.34 0 359.43 359.43)"  >
<g style="" vector-effect="non-scaling-stroke"   >
		<g transform="matrix(1 0 0 1 3.76 4.15)"  >
<path style="stroke: none; stroke-width: 1; stroke-dasharray: none; stroke-linecap: butt; stroke-dashoffset: 0; stroke-linejoin: miter; stroke-miterlimit: 4; fill: rgb(221,127,102); fill-rule: nonzero; opacity: 1;" vector-effect="non-scaling-stroke"  transform=" translate(-259.77, -260.15)" d="M 472.551 481.414 C 470.381 481.414 468.211 480.586 466.555 478.931 L 40.98399999999998 53.358000000000004 C 37.67199999999998 50.047000000000004 37.67199999999998 44.67700000000001 40.98399999999998 41.366 C 44.29499999999998 38.055 49.66499999999998 38.055 52.975999999999985 41.366 L 478.547 466.937 C 481.85900000000004 470.249 481.85900000000004 475.618 478.547 478.93 C 476.891 480.586 474.721 481.414 472.55100000000004 481.414 z" stroke-linecap="round" />
</g>
		<g transform="matrix(1 0 0 1 0 0)"  >
<path style="stroke: none; stroke-width: 1; stroke-dasharray: none; stroke-linecap: butt; stroke-dashoffset: 0; stroke-linejoin: miter; stroke-miterlimit: 4; fill: rgb(234,169,152); fill-rule: nonzero; opacity: 1;" vector-effect="non-scaling-stroke"  transform=" translate(-256, -256)" d="M 298.597 175.588 C 286.135 163.126 279.661 145.781 280.368 126.75 C 281.509 95.95 274.51099999999997 74.733 259.012 61.855999999999995 C 226.563 34.940999999999995 161.332 47.63399999999999 118.168 56.03399999999999 C 100.28200000000001 59.51499999999999 87.35900000000001 62.02899999999999 77.531 61.82899999999999 C 51.135000000000005 61.288999999999994 33.470000000000006 51.407 21.762000000000008 39.69999999999999 C 4.674000000000007 22.61099999999999 0.28700000000000614 1.6339999999999861 7.105427357601002e-15 0.1729999999999876 C 19.800000000000008 13.419999999999987 37.83500000000001 16.511999999999986 48.787000000000006 17.253999999999987 C 61.00800000000001 18.082999999999988 73.641 16.613999999999987 85.756 15.204999999999988 C 101.846 13.333999999999987 113.738 10.825999999999988 116.372 10.290999999999988 C 161.55700000000002 1.120999999999988 247.721 -12.588000000000013 291.959 24.10199999999999 C 316.812 44.71499999999999 328.593 77.36999999999999 326.968 121.151 C 326.694 128.54 329.211 135.279 334.058 140.126 L 371.874 177.942 C 376.72 182.788 383.459 185.306 390.84900000000005 185.032 C 434.629 183.407 467.2850000000001 195.18800000000002 487.898 220.041 C 524.588 264.278 510.88 350.443 501.709 395.628 C 501.175 398.262 498.666 410.154 496.795 426.24399999999997 C 495.386 438.359 493.91700000000003 450.99199999999996 494.74600000000004 463.21299999999997 C 495.48900000000003 474.164 498.58000000000004 492.19899999999996 511.82700000000006 511.99999999999994 C 510.36600000000004 511.71299999999997 489.38900000000007 507.32599999999996 472.30100000000004 490.23799999999994 C 460.59400000000005 478.53099999999995 450.71100000000007 460.86499999999995 450.172 434.46899999999994 C 449.971 424.64099999999996 452.48600000000005 411.71799999999996 455.96700000000004 393.83199999999994 C 464.367 350.66799999999995 477.06000000000006 285.43699999999995 450.14500000000004 252.98799999999994 C 437.26800000000003 237.48899999999995 416.05100000000004 230.49199999999993 385.25100000000003 231.63199999999995 C 366.22 232.33999999999995 348.87500000000006 225.86599999999996 336.413 213.40299999999996 z" stroke-linecap="round" />
</g>
		<g transform="matrix(1 0 0 1 0 0)"  >
<path style="stroke: none; stroke-width: 1; stroke-dasharray: none; stroke-linecap: butt; stroke-dashoffset: 0; stroke-linejoin: miter; stroke-miterlimit: 4; fill: rgb(228,146,128); fill-rule: nonzero; opacity: 1;" vector-effect="non-scaling-stroke"  transform=" translate(-256, -256)" d="M 496.794 426.244 C 498.66499999999996 410.15400000000005 501.174 398.26200000000006 501.70799999999997 395.62800000000004 C 510.878 350.44300000000004 524.587 264.27900000000005 487.897 220.04100000000005 C 467.284 195.18800000000005 434.629 183.40700000000004 390.84799999999996 185.03200000000004 C 383.45899999999995 185.30600000000004 376.71899999999994 182.78900000000004 371.87299999999993 177.94200000000004 L 334.0569999999999 140.12600000000003 C 329.2109999999999 135.28000000000003 326.6929999999999 128.54100000000003 326.9669999999999 121.15100000000004 C 328.5919999999999 77.37100000000004 316.8109999999999 44.71500000000003 291.9579999999999 24.102000000000032 C 247.72099999999992 -12.587999999999965 161.55599999999993 1.1210000000000306 116.37099999999992 10.291000000000032 C 113.73699999999992 10.826000000000032 101.84499999999993 13.334000000000032 85.75499999999992 15.205000000000032 C 73.63999999999993 16.61300000000003 61.00699999999992 18.083000000000034 48.78599999999992 17.254000000000033 C 37.83499999999992 16.511000000000035 19.799999999999923 13.420000000000034 -7.815970093361102e-14 0.1730000000000338 C 0.20099999999992185 1.1960000000000337 2.4199999999999218 11.794000000000034 9.597999999999923 23.923000000000034 C 20.342999999999922 27.896000000000033 29.668999999999926 29.239000000000033 36.348999999999926 29.692000000000036 C 48.56999999999992 30.521000000000036 61.202999999999925 29.052000000000035 73.31799999999993 27.643000000000036 C 89.40799999999993 25.772000000000038 101.29999999999993 23.26400000000004 103.93399999999993 22.729000000000035 C 149.11999999999992 13.559000000000035 235.28399999999993 -0.1499999999999666 279.52199999999993 36.540000000000035 C 304.37499999999994 57.153000000000034 316.15599999999995 89.80800000000004 314.53099999999995 133.58900000000006 C 314.25699999999995 140.97800000000007 316.77399999999994 147.71700000000004 321.6209999999999 152.56400000000005 L 359.4369999999999 190.38000000000005 C 364.2829999999999 195.22600000000006 371.0219999999999 197.74400000000006 378.4119999999999 197.47000000000006 C 422.1919999999999 195.84500000000006 454.84799999999996 207.62600000000006 475.4609999999999 232.47900000000004 C 512.1509999999998 276.71600000000007 498.4419999999999 362.88100000000003 489.2719999999999 408.06600000000003 C 488.7379999999999 410.70000000000005 486.22899999999987 422.59200000000004 484.3579999999999 438.682 C 482.9499999999999 450.797 481.4799999999999 463.43 482.3099999999999 475.651 C 482.76299999999986 482.332 484.1049999999999 491.65700000000004 488.0789999999999 502.402 C 500.2069999999999 509.58 510.8049999999999 511.8 511.8289999999999 512.001 C 498.5819999999999 492.20099999999996 495.4899999999999 474.166 494.7479999999999 463.214 C 493.9159999999999 450.992 495.38599999999985 438.359 496.79399999999987 426.244 z" stroke-linecap="round" />
</g>
		<g transform="matrix(1 0 0 1 4.77 -6.43)"  >
<path style="stroke: none; stroke-width: 1; stroke-dasharray: none; stroke-linecap: butt; stroke-dashoffset: 0; stroke-linejoin: miter; stroke-miterlimit: 4; fill: rgb(232,237,242); fill-rule: nonzero; opacity: 1;" vector-effect="non-scaling-stroke"  transform=" translate(-260.77, -249.57)" d="M 133.128 386.862 C 130.958 386.862 114.08899999999998 400.732 112.43399999999998 399.077 C 109.12199999999999 395.765 109.12199999999999 390.396 112.43399999999998 387.084 L 397.118 102.40100000000001 C 400.429 99.09 405.799 99.09 409.11 102.40100000000001 C 412.422 105.71200000000002 412.422 111.08200000000001 409.11 114.39300000000001 L 124.42500000000001 399.07700000000006 C 122.77000000000001 400.732 135.298 386.8620000000001 133.12800000000001 386.8620000000001 z" stroke-linecap="round" />
</g>
		<g transform="matrix(1 0 0 1 176.21 -177.23)"  >
<path style="stroke: none; stroke-width: 1; stroke-dasharray: none; stroke-linecap: butt; stroke-dashoffset: 0; stroke-linejoin: miter; stroke-miterlimit: 4; fill: rgb(254,223,48); fill-rule: nonzero; opacity: 1;" vector-effect="non-scaling-stroke"  transform=" translate(-432.21, -78.77)" d="M 402.843 108.134 L 381.598 86.889 L 432.21000000000004 57.521 L 482.82200000000006 28.154 L 453.45500000000004 78.766 L 424.08700000000005 129.37800000000001 z" stroke-linecap="round" />
</g>
		<g transform="matrix(1 0 0 1 -179.73 178.96)"  >
<path style="stroke: none; stroke-width: 1; stroke-dasharray: none; stroke-linecap: butt; stroke-dashoffset: 0; stroke-linejoin: miter; stroke-miterlimit: 4; fill: rgb(254,233,125); fill-rule: nonzero; opacity: 1;" vector-effect="non-scaling-stroke"  transform=" translate(-76.28, -434.96)" d="M 61.904 491.82 L 62.595000000000006 448.64 L 19.415000000000006 449.33 L 89.956 378.789 L 133.136 378.098 L 132.446 421.278 z" stroke-linecap="round" />
</g>
		<g transform="matrix(1 0 0 1 -226.3 192.99)"  >
<path style="stroke: none; stroke-width: 1; stroke-dasharray: none; stroke-linecap: butt; stroke-dashoffset: 0; stroke-linejoin: miter; stroke-miterlimit: 4; fill: rgb(254,223,48); fill-rule: nonzero; opacity: 1;" vector-effect="non-scaling-stroke"  transform=" translate(-29.7, -448.99)" d="M 39.982 448.64 L 19.782 448.96299999999997 L 19.415 449.33 L 39.976 449.002 z" stroke-linecap="round" />
</g>
		<g transform="matrix(1 0 0 1 -158.48 178.96)"  >
<path style="stroke: none; stroke-width: 1; stroke-dasharray: none; stroke-linecap: butt; stroke-dashoffset: 0; stroke-linejoin: miter; stroke-miterlimit: 4; fill: rgb(254,223,48); fill-rule: nonzero; opacity: 1;" vector-effect="non-scaling-stroke"  transform=" translate(-97.52, -434.96)" d="M 110.518 378.46 C 110.07900000000001 405.923 98.974 432.138 79.55199999999999 451.55899999999997 L 62.27199999999999 468.83899999999994 L 61.90399999999999 491.81899999999996 L 132.445 421.27799999999996 L 133.135 378.09799999999996 z" stroke-linecap="round" />
</g>
</g>
</g>
<g transform="matrix(1 0 0 1 625.57 583.64)" style="filter: url(#SVGID_839);" id="849eb907-2d71-462c-903c-5d20216c3171"  >
<filter id="SVGID_839" y="-26%" height="152%" x="-30%" width="160%" >
	<feGaussianBlur in="SourceAlpha" stdDeviation="6.5"></feGaussianBlur>
	<feOffset dx="0" dy="0" result="oBlur" ></feOffset>
	<feFlood flood-color="rgb(255,178,102)" flood-opacity="1"/>
	<feComposite in2="oBlur" operator="in" />
	<feMerge>
		<feMergeNode></feMergeNode>
		<feMergeNode in="SourceGraphic"></feMergeNode>
	</feMerge>
</filter>
		<text xml:space="preserve" font-family="Lato" font-size="186" font-style="normal" font-weight="400" style="stroke: none; stroke-width: 1; stroke-dasharray: none; stroke-linecap: butt; stroke-dashoffset: 0; stroke-linejoin: miter; stroke-miterlimit: 4; fill: rgb(255,255,153); fill-rule: nonzero; opacity: 1; white-space: pre;" ><tspan x="-49.29" y="58.43" >S</tspan></text>
</g>
</svg>