<?xml version="1.0" encoding="UTF-8" standalone="no" ?>
<!DOCTYPE svg PUBLIC "-//W3C//DTD SVG 1.1//EN" "http://www.w3.org/Graphics/SVG/1.1/DTD/svg11.dtd">
<svg xmlns="http://www.w3.org/2000/svg" xmlns:xlink="http://www.w3.org/1999/xlink" version="1.1" width="720" height="720" viewBox="0 0 720 720" xml:space="preserve">
<desc>Created with Fabric.js 4.2.0</desc>
<defs>
</defs>
<rect x="0" y="0" width="100%" height="100%" fill="transparent"></rect>
<g transform="matrix(1 0 0 1 360 360)" id="088ff5e9-cec8-4b99-9d85-4d7f1d684ffe"  >
<rect style="stroke: none; stroke-width: 1; stroke-dasharray: none; stroke-linecap: butt; stroke-dashoffset: 0; stroke-linejoin: miter; stroke-miterlimit: 4; fill: rgb(255,255,255); fill-opacity: 0; fill-rule: nonzero; opacity: 1;" vector-effect="non-scaling-stroke"  x="-360" y="-360" rx="0" ry="0" width="720" height="720" />
</g>
<g transform="matrix(0 0 0 0 0 0)" id="10e72e25-f349-42f5-adff-9246252ebd1e"  >
</g>
<g transform="matrix(3.61 0 0 3.61 624 600.86)" style="filter: url(#SVGID_1524);" id="f42727bd-bc40-4e3b-832d-5e77afda711c"  >
<filter id="SVGID_1524" y="-46%" height="192%" x="-54%" width="208%" >
	<feGaussianBlur in="SourceAlpha" stdDeviation="7.5"></feGaussianBlur>
	<feOffset dx="0" dy="0" result="oBlur" ></feOffset>
	<feFlood flood-color="rgb(0,0,0)" flood-opacity="1"/>
	<feComposite in2="oBlur" operator="in" />
	<feMerge>
		<feMergeNode></feMergeNode>
		<feMergeNode in="SourceGraphic"></feMergeNode>
	</feMerge>
</filter>
		<rect opacity="0" fill="rgb(0,0,0)" x="-22.39" y="-28.81" width="44.77" height="57.63"></rect>
		<text xml:space="preserve" font-family="Lato" font-size="51" font-style="normal" font-weight="400" style="stroke: none; stroke-width: 1; stroke-dasharray: none; stroke-linecap: butt; stroke-dashoffset: 0; stroke-linejoin: miter; stroke-miterlimit: 4; fill: rgb(0,0,255); fill-rule: nonzero; opacity: 1; white-space: pre;" ><tspan x="-16.5" y="16.02" >B</tspan></text>
</g>
<g transform="matrix(1.51 0 0 1.51 361.79 361.39)"  >
<g style="" vector-effect="non-scaling-stroke"   >
		<g transform="matrix(1 0 0 1 0 0)"  >
<path style="stroke: none; stroke-width: 1; stroke-dasharray: none; stroke-linecap: butt; stroke-dashoffset: 0; stroke-linejoin: miter; stroke-miterlimit: 4; fill: rgb(160,204,0); fill-rule: nonzero; opacity: 1;" vector-effect="non-scaling-stroke"  transform=" translate(-256.05, -259.6)" d="M 28.7845 431.98063 C 33.15922511119772 437.4490127450473 39.933877468925516 440.429369681781 46.921048385776885 439.95939923209176 C 53.90821930262825 439.4894287824025 60.22272516771592 435.6286700851803 63.82573000000001 429.62369 L 96 376 L 96.44787 375.73128 C 121.48672028851573 360.7079715468857 151.93921317667898 357.69257910741845 179.43813999999998 367.51362 L 179.43824999999998 367.51362 C 223.86000168316457 383.3785391331512 272.3179282768457 383.8940008214421 317.0671099999999 368.97762 L 317.06728 368.97756 C 378.9370596261856 348.3543083264342 426.54652608044285 298.38268634936753 444.152 235.58749999999995 L 488 79.19046999999998 L 437.84782 107.71825999999997 C 388.2101579820829 135.95337019644603 329.05175988245594 142.22686940718228 274.59627 125.03039999999994 L 274.59611 125.03034999999997 C 232.86657177842696 111.8526018086103 187.330745828941 119.89942801078078 152.6448900000001 146.58085999999992 L 152.64478 146.58093999999997 C 121.7599594221696 170.3384958142572 102.75711025465057 206.3720359373224 100.5957 245.27732999999998 L 97.1197 307.84460999999993 C 96.38103092789578 321.1406597308802 92.92763878076885 334.1446410841397 86.97229999999999 346.0553299999999 L 79.99999999999999 359.9999999999999 L 31.401619999999987 402.52357999999987 C 22.787901043913266 410.0606040743389 21.634470056492773 423.04307116335076 28.784499999999987 431.98062999999985 z" stroke-linecap="round" />
</g>
		<g transform="matrix(1 0 0 1 -58.97 44.12)"  >
<path style="stroke: none; stroke-width: 1; stroke-dasharray: none; stroke-linecap: butt; stroke-dashoffset: 0; stroke-linejoin: miter; stroke-miterlimit: 4; fill: rgb(133,178,0); fill-rule: nonzero; opacity: 1;" vector-effect="non-scaling-stroke"  transform=" translate(-197.07, -303.72)" d="M 271.61408 320.46307 C 269.02263262315853 323.5632217303028 264.4677734572295 324.11505799516254 261.21098 321.72344000000004 C 233.73345567675855 301.68534197171573 198.63771378030657 295.2225132083178 165.82470999999998 304.1582 L 130.15 313.87513 C 128.19165357237782 314.4085351738206 126.10160534137178 314.14185169425815 124.33994572108361 313.13378562882133 C 122.57828610079542 312.1257195633845 121.28942701234001 310.4589070555394 120.75709 308.50027 L 120.57374 307.82569 C 119.46602178098165 303.7500545443425 121.87065514941395 299.5478156671808 125.94569 298.43789 L 161.61475000000002 288.72265999999996 C 199.15259325922145 278.4988150879064 239.3029048173521 285.90762963494416 270.71968000000004 308.85545999999994 C 272.42116711996687 310.10603667344344 273.5302599902105 312.0041223284657 273.7844163719446 314.10040593742656 C 274.0385727536787 316.1966895463874 273.41519939987074 318.30482185020253 272.06186 319.92576999999994 z" stroke-linecap="round" />
</g>
		<g transform="matrix(1 0 0 1 7.66 -12.05)"  >
<path style="stroke: none; stroke-width: 1; stroke-dasharray: none; stroke-linecap: butt; stroke-dashoffset: 0; stroke-linejoin: miter; stroke-miterlimit: 4; fill: rgb(133,178,0); fill-rule: nonzero; opacity: 1;" vector-effect="non-scaling-stroke"  transform=" translate(-263.7, -247.55)" d="M 359.73216 264.42816 C 357.5744763234476 267.90132665374034 353.0615426031136 269.0547094804507 349.502 267.04271 C 311.37948641231935 245.21152191562538 266.62746938882407 237.9634427532401 223.5629999999999 246.64551000000003 L 199.25258000000002 251.508 Q 199.00934000000004 251.55664000000002 198.76964 251.621 L 175.96276 257.74323 C 171.88216780555692 258.8386064954124 167.68620648231754 256.41865340681795 166.59076 252.33808 L 166.40931999999998 251.66218999999998 C 165.88325546285063 249.70258830419374 166.15719442979758 247.6142680258287 167.17087229133605 245.856644659894 C 168.1845501528745 244.09902129395925 169.85492991461703 242.81607328480084 171.81453999999997 242.29003999999998 L 194.87216999999995 236.10049999999998 L 195.85829999999996 235.86978 L 220.42529999999996 230.95608 C 267.2467258361562 221.51558944324748 315.9032049644345 229.3856148682506 357.3611299999999 253.10499999999993 C 359.1810730554084 254.13329065818738 360.50264173645354 255.85965793452192 361.0202488570364 257.8849128003022 C 361.53785597761924 259.9101676660825 361.206680375261 262.05893719116443 360.1033 263.83436 z" stroke-linecap="round" />
</g>
		<g transform="matrix(1 0 0 1 97.52 -44.51)"  >
<path style="stroke: none; stroke-width: 1; stroke-dasharray: none; stroke-linecap: butt; stroke-dashoffset: 0; stroke-linejoin: miter; stroke-miterlimit: 4; fill: rgb(133,178,0); fill-rule: nonzero; opacity: 1;" vector-effect="non-scaling-stroke"  transform=" translate(-353.56, -215.09)" d="M 383.2417 229.041 C 374.86781220877145 229.0388187036914 366.504651389405 228.4419372516109 358.21533 227.25485999999998 L 334.86865 223.91986 L 289.37051 217.052 C 285.19280129306105 216.42137825827672 282.3172844860287 212.5235032313066 282.94781 208.34578 L 283.05214 207.65454 C 283.3549384219804 205.64827145571192 284.4423307178638 203.84446390409707 286.0750980044969 202.63994269471368 C 287.70786529113 201.43542148533027 289.7522566730053 200.92885701152326 291.75852000000003 201.23169 L 337.19385000000005 208.08984999999998 L 360.47800000000007 211.415 C 378.60585324186405 214.0234036533472 397.0475242340319 213.49025812920289 414.99441 209.83893999999998 C 418.9881642399431 209.0496967251644 422.8972191671975 211.5380692715787 423.87259000000006 215.49048999999997 L 424.04175000000004 216.16707999999997 C 424.54618730506314 218.20106994407487 424.19644385393553 220.35288522431162 423.07380398944116 222.12241957605085 C 421.9511641249468 223.89195392779007 420.15339552781967 225.1251033725252 418.09832000000006 225.53526999999997 C 406.6257076603152 227.86516507007772 394.9485032783412 229.03960842454003 383.24170000000004 229.041 z" stroke-linecap="round" />
</g>
		<g transform="matrix(1 0 0 1 -116.89 -23.04)"  >
<path style="stroke: none; stroke-width: 1; stroke-dasharray: none; stroke-linecap: butt; stroke-dashoffset: 0; stroke-linejoin: miter; stroke-miterlimit: 4; fill: rgb(133,178,0); fill-rule: nonzero; opacity: 1;" vector-effect="non-scaling-stroke"  transform=" translate(-139.15, -236.56)" d="M 148.94506 264.20013 C 145.41753746293145 266.51523020293996 140.68161620248773 265.5372027407938 138.35975000000002 262.01413 L 135.37695000000002 257.48824 C 126.80390276310521 244.72115498650743 123.52762163057233 229.122203473587 126.23984000000002 213.98485000000002 C 126.63146310518638 211.79580534962713 127.95511889101557 209.8850258946769 129.86686338385562 208.74901615354887 C 131.77860787669565 207.61300641242084 134.0896903645685 207.3639271096548 136.19959 208.06650000000002 L 136.86808 208.28938000000002 C 140.48847675064025 209.52363659056792 142.65626058014382 213.22598881801488 141.96080999999998 216.98724 C 140.04682338351307 228.0020058046898 142.45694002151632 239.3305193896802 148.68895999999995 248.61223999999999 L 150.65576 251.56146 L 151.74066 253.21446 C 152.8539784149338 254.9107349445942 153.24784557388824 256.97980279838634 152.83561308864412 258.9664811716512 C 152.42338060339998 260.95315954491605 151.2388173262619 262.6947056869849 149.54252 263.80799 z" stroke-linecap="round" />
</g>
		<g transform="matrix(1 0 0 1 -42.07 -70.7)"  >
<path style="stroke: none; stroke-width: 1; stroke-dasharray: none; stroke-linecap: butt; stroke-dashoffset: 0; stroke-linejoin: miter; stroke-miterlimit: 4; fill: rgb(133,178,0); fill-rule: nonzero; opacity: 1;" vector-effect="non-scaling-stroke"  transform=" translate(-213.97, -188.9)" d="M 208.34977 235.10938 L 207.65023 235.10938 C 203.42512463830198 235.10938 200 231.684255361698 200 227.45915 L 200 196.84473 C 199.98230174834703 179.2788991369069 204.4619617449638 162.00100779260464 213.01232999999993 146.65663000000006 C 214.0486386907923 144.78198480957548 215.82170145334422 143.42614492557718 217.90239024418136 142.91725942934238 C 219.9830790350185 142.40837393310758 222.1817729648517 142.79281944797725 223.96633 143.97755 L 224.55175 144.36783 C 227.8750895466688 146.59750807441492 228.92438628467258 151.00828322868438 226.96108999999998 154.49562 C 219.7583300618753 167.4473070622019 215.98524224097093 182.02495501209916 215.99999999999997 196.84472999999997 L 215.99999999999997 227.45915 C 215.99999999999997 231.684255361698 212.574875361698 235.10938 208.34976999999998 235.10938 z" stroke-linecap="round" />
</g>
		<g transform="matrix(1 0 0 1 27.5 -79.81)"  >
<path style="stroke: none; stroke-width: 1; stroke-dasharray: none; stroke-linecap: butt; stroke-dashoffset: 0; stroke-linejoin: miter; stroke-miterlimit: 4; fill: rgb(133,178,0); fill-rule: nonzero; opacity: 1;" vector-effect="non-scaling-stroke"  transform=" translate(-283.55, -179.79)" d="M 268.30718 204.18587 L 267.64386 203.9648 C 265.7189186344656 203.32327652377705 264.12767438490846 201.9433272727389 263.22020204530116 200.12854200055423 C 262.3127297056939 198.31375672836955 262.16336922198536 196.21280226834529 262.80498 194.28789 L 264.41064 189.4707 C 269.30081543318784 174.9208714679486 279.6754263089298 162.85348395547373 293.32708 155.83610000000002 C 295.3141259275343 154.8193329717032 297.6459748073308 154.72044626313127 299.71196801091105 155.56533607294207 C 301.7779612144913 156.41022588275288 303.3723098612629 158.11473466004858 304.07749 160.23248999999998 L 304.29849 160.8954 C 305.47593677207817 164.51724562280722 303.8347800517901 168.4564566311255 300.4341 170.17096 C 290.5944762466784 175.28616904327401 283.1222701968222 184.01825842581837 279.5894 194.53026999999997 L 277.98363 199.34739 C 276.6475467984575 203.3554777865552 272.31535647683 205.52168711201944 268.30718 204.18587 z" stroke-linecap="round" />
</g>
		<g transform="matrix(1 0 0 1 0 0)"  >
<path style="stroke: none; stroke-width: 1; stroke-dasharray: none; stroke-linecap: butt; stroke-dashoffset: 0; stroke-linejoin: miter; stroke-miterlimit: 4; fill: rgb(133,178,0); fill-rule: nonzero; opacity: 1;" vector-effect="non-scaling-stroke"  transform=" translate(-256.05, -259.6)" d="M 488 79.18994 L 438.57007 148.02 C 404.31473140490186 195.72347683828463 349.1786121579586 224.00622299404023 290.44999999999993 224 C 226.39353082186233 224.00028596328414 167.0344675821782 257.6106425485731 134.07999999999993 312.5400000000001 L 95.99999999999999 376 L 63.829999999999984 429.62012 C 59.48819172836039 436.86041227855975 51.29401988645029 440.8697449591133 42.912927171930235 439.8546507480823 C 34.531834457410184 438.8395565370513 27.53175078208279 432.98993866435893 25.04397557263428 424.92246657863694 C 22.556200363185773 416.85499449291495 25.046145147396714 408.0789261425836 31.399999999999977 402.52 L 79.99999999999999 360 L 113.14999999999998 296.71 C 146.87291602879765 232.3417030258364 213.53286385690436 192.0067527971103 286.19999999999993 192 C 333.7597072325545 191.99938756419417 379.6863189787658 174.6520206283913 415.37 143.21 z" stroke-linecap="round" />
</g>
		<g transform="matrix(1 0 0 1 -196 140.41)"  >
<path style="stroke: none; stroke-width: 1; stroke-dasharray: none; stroke-linecap: butt; stroke-dashoffset: 0; stroke-linejoin: miter; stroke-miterlimit: 4; fill: rgb(113,150,0); fill-rule: nonzero; opacity: 1;" vector-effect="non-scaling-stroke"  transform=" translate(-60.05, -400.01)" d="M 96 376 L 63.83 429.62012 C 59.488191728360405 436.86041227855975 51.29401988645031 440.8697449591133 42.91292717193025 439.8546507480823 C 34.5318344574102 438.8395565370513 27.531750782082803 432.98993866435893 25.043975572634295 424.92246657863694 C 22.556200363185788 416.85499449291495 25.04614514739673 408.0789261425836 31.39999999999999 402.52 L 80 360 z" stroke-linecap="round" />
</g>
</g>
</g>
</svg>