<?xml version="1.0" encoding="utf-8"?>
<!-- Generator: Adobe Illustrator 22.0.0, SVG Export Plug-In . SVG Version: 6.00 Build 0)  -->
<svg xmlns="http://www.w3.org/2000/svg" xmlns:xlink="http://www.w3.org/1999/xlink" version="1.1" id="Layer_2" x="0px" y="0px" viewBox="0 0 256 256" style="enable-background:new 0 0 256 256;" xml:space="preserve" width="512" height="512">
<style type="text/css">
	.st0{fill:#3A312A;}
	.st1{fill:#D7E057;}
	.st2{fill:#FCE8CB;}
	.st3{fill:#F16C7A;}
	.st4{fill:#87796F;}
	.st5{fill:#8AC6DD;}
	.st6{fill:#D34E5C;}
	.st7{fill:#6CA8BF;}
	.st8{fill-rule:evenodd;clip-rule:evenodd;fill:#FCE8CB;}
	.st9{fill:#695B51;}
	.st10{fill:#B9C239;}
	.st11{fill:#DECAAD;}
	.st12{fill:#FCE8CB;stroke:#3A312A;stroke-width:3;stroke-linecap:round;stroke-linejoin:round;stroke-miterlimit:10;}
	.st13{fill:#F5978A;}
</style>
<g>
	<g>
		<g>
			<path class="st0" d="M128,118.596c-0.828,0-1.5,0.672-1.5,1.5v15.809c0,0.828,0.672,1.5,1.5,1.5s1.5-0.672,1.5-1.5v-15.809     C129.5,119.268,128.828,118.596,128,118.596z"/>
		</g>
	</g>
	<g>
		<g>
			<path class="st0" d="M128,118.596c-0.828,0-1.5,0.672-1.5,1.5v15.809c0,0.828,0.672,1.5,1.5,1.5s1.5-0.672,1.5-1.5v-15.809     C129.5,119.268,128.828,118.596,128,118.596z"/>
		</g>
	</g>
	<g>
		<g>
			<path class="st1" d="M164.858,123.659H91.142c-1.034,0-1.872,0.838-1.872,1.872v4.938c0,1.034,0.838,1.872,1.872,1.872h73.715     c1.034,0,1.872-0.838,1.872-1.872v-4.938C166.73,124.497,165.891,123.659,164.858,123.659z"/>
		</g>
	</g>
	<g>
		<g>
			<path class="st0" d="M164.857,122.159H91.143c-1.859,0-3.372,1.513-3.372,3.372v4.938c0,1.859,1.513,3.372,3.372,3.372h73.715     c1.859,0,3.372-1.513,3.372-3.372v-4.938C168.229,123.672,166.717,122.159,164.857,122.159z M165.229,130.469     c0,0.205-0.167,0.372-0.372,0.372H91.143c-0.205,0-0.372-0.167-0.372-0.372v-4.938c0-0.205,0.167-0.372,0.372-0.372h73.715     c0.205,0,0.372,0.167,0.372,0.372V130.469z"/>
		</g>
	</g>
	<g>
		<g>
			<path class="st2" d="M150.008,138.42l-4.458-13.731c-1.456-4.48-5.63-7.512-10.334-7.512h-14.433     c-4.712,0-8.878,3.032-10.334,7.512l-4.458,13.731c-0.045,0.135-0.082,0.269-0.119,0.403h44.254     C150.09,138.688,150.053,138.554,150.008,138.42z"/>
		</g>
	</g>
	<g>
		<g>
			<path class="st0" d="M151.573,138.425c-0.044-0.16-0.089-0.319-0.139-0.468l-4.457-13.732c-1.662-5.112-6.389-8.548-11.761-8.548     h-14.434c-5.372,0-10.099,3.436-11.761,8.549l-4.453,13.72c-0.054,0.16-0.099,0.319-0.143,0.479     c-0.124,0.451-0.03,0.936,0.253,1.308c0.284,0.372,0.726,0.591,1.193,0.591h44.254c0.468,0,0.909-0.219,1.193-0.591     C151.604,139.36,151.697,138.876,151.573,138.425z M107.925,137.323l3.951-12.171c1.259-3.873,4.838-6.476,8.907-6.476h14.434     c4.069,0,7.648,2.603,8.907,6.475l3.951,12.172H107.925z"/>
		</g>
	</g>
	<g>
		<g>
			<path class="st1" d="M142.78,132.991l-1.702-5.234c-1.449-4.472-5.623-7.504-10.326-7.504h-5.503     c-4.704,0-8.878,3.031-10.326,7.504l-1.702,5.234c-0.291,0.904-0.463,1.829-0.515,2.755h30.591     C143.243,134.821,143.071,133.902,142.78,132.991z"/>
		</g>
	</g>
	<g>
		<g>
			<path class="st0" d="M144.207,132.527l-1.702-5.231c-1.655-5.11-6.379-8.543-11.753-8.543h-5.503     c-5.375,0-10.099,3.433-11.754,8.541l-1.703,5.237c-0.329,1.021-0.525,2.074-0.585,3.132c-0.022,0.412,0.125,0.815,0.408,1.114     c0.283,0.3,0.678,0.47,1.09,0.47h30.59c0.412,0,0.807-0.17,1.09-0.47c0.283-0.299,0.431-0.702,0.408-1.114     C144.734,134.616,144.538,133.563,144.207,132.527z M114.428,134.247c0.062-0.267,0.135-0.531,0.219-0.792l1.702-5.235     c1.254-3.868,4.83-6.467,8.9-6.467h5.503c4.069,0,7.646,2.599,8.899,6.469l1.7,5.226c0.085,0.266,0.157,0.532,0.219,0.8H114.428z     "/>
		</g>
	</g>
	<g>
		<g>
			<path class="st2" d="M154.839,146.384h-14.583v-9.477c-4.033,2.796-8.207,4.446-12.257,4.446c-3.885,0-7.984-1.666-12.001-4.495     h-0.247v9.527h-14.591c-12.19,0-22.072,9.881-22.072,22.072v20.001h97.821v-20.001     C176.911,156.266,167.029,146.384,154.839,146.384z"/>
		</g>
	</g>
	<g>
		<g>
			<path class="st0" d="M154.839,144.885h-13.082v-7.978c0-0.558-0.31-1.07-0.804-1.329c-0.494-0.258-1.092-0.222-1.551,0.097     c-4.001,2.772-7.838,4.179-11.402,4.179c-3.414,0-7.161-1.421-11.137-4.223c-0.253-0.178-0.555-0.273-0.864-0.273h-0.247     c-0.828,0-1.5,0.672-1.5,1.5v8.027H101.16c-12.997,0-23.571,10.574-23.571,23.571v20.001c0,0.828,0.672,1.5,1.5,1.5h97.821     c0.828,0,1.5-0.672,1.5-1.5v-20.001C178.41,155.459,167.836,144.885,154.839,144.885z M175.41,186.957H80.589v-18.501     c0-11.343,9.229-20.571,20.571-20.571h14.592c0.828,0,1.5-0.672,1.5-1.5v-6.918c3.736,2.249,7.343,3.387,10.748,3.387     c3.456,0,7.064-1.08,10.757-3.216v6.747c0,0.828,0.672,1.5,1.5,1.5h14.582c11.343,0,20.571,9.229,20.571,20.571V186.957z"/>
		</g>
	</g>
	<g>
		<g>
			<path class="st3" d="M79.086,168.453v20.01h13.201v-13.5c0-3.987,1.329-7.81,3.591-10.976c2.486-3.487,4.159-9.916,4.159-17.278     v-0.298C88.375,146.994,79.086,156.633,79.086,168.453z"/>
		</g>
	</g>
	<g>
		<g>
			<path class="st0" d="M101.072,145.324c-0.298-0.283-0.686-0.42-1.109-0.411c-12.548,0.627-22.377,10.967-22.377,23.54v20.01     c0,0.828,0.672,1.5,1.5,1.5h13.201c0.828,0,1.5-0.672,1.5-1.5v-13.499c0-3.579,1.146-7.072,3.313-10.104     c2.778-3.897,4.438-10.683,4.438-18.149v-0.299C101.538,146,101.369,145.607,101.072,145.324z M94.658,163.116     c-2.532,3.543-3.871,7.64-3.871,11.848v11.999H80.586v-18.51c0-10.435,7.756-19.106,17.933-20.402     C98.337,154.295,96.893,159.983,94.658,163.116z"/>
		</g>
	</g>
	<g>
		<g>
			<path class="st3" d="M156.866,146.479v0.231c0,7.362,1.673,13.791,4.159,17.278c2.262,3.166,3.592,6.989,3.592,10.976v13.5     h12.297v-20.01C176.914,156.947,168.103,147.494,156.866,146.479z"/>
		</g>
	</g>
	<g>
		<g>
			<path class="st0" d="M157.001,144.984c-0.416-0.034-0.836,0.103-1.146,0.387c-0.312,0.284-0.488,0.687-0.488,1.107v0.231     c0,7.468,1.658,14.252,4.438,18.15c2.167,3.031,3.312,6.524,3.312,10.104v13.499c0,0.828,0.672,1.5,1.5,1.5h12.298     c0.828,0,1.5-0.672,1.5-1.5v-20.01C178.414,156.177,169.209,146.088,157.001,144.984z M175.414,186.963h-9.298v-11.999     c0-4.208-1.339-8.305-3.87-11.847c-2.218-3.11-3.657-8.737-3.856-14.929c9.815,1.679,17.024,10.115,17.024,20.265V186.963z"/>
		</g>
	</g>
	<g>
		<g>
			<path class="st0" d="M159.479,171.15c-0.828,0-1.5,0.672-1.5,1.5v15.809c0,0.828,0.672,1.5,1.5,1.5s1.5-0.672,1.5-1.5V172.65     C160.979,171.822,160.307,171.15,159.479,171.15z"/>
		</g>
	</g>
	<g>
		<g>
			<path class="st2" d="M128.001,48.954c-21.263,0-38.5,17.237-38.5,38.5s21.298,53.9,38.5,53.9c18.022,0,38.5-32.637,38.5-53.9     S149.264,48.954,128.001,48.954z"/>
		</g>
	</g>
	<g>
		<g>
			<path class="st0" d="M128.001,47.454c-22.056,0-40,17.944-40,40c0,10.405,5.006,24.114,13.065,35.776     c8.49,12.288,18.56,19.624,26.935,19.624c8.813,0,18.745-7.155,27.248-19.632c7.865-11.541,12.752-25.247,12.752-35.769     C168.001,65.398,150.057,47.454,128.001,47.454z M152.77,121.533c-7.818,11.473-17.077,18.321-24.769,18.321     c-16.33,0-37-32.489-37-52.4c0-20.402,16.598-37,37-37s37,16.598,37,37C165.001,97.405,160.314,110.464,152.77,121.533z"/>
		</g>
	</g>
	<g>
		<g>
			<path class="st0" d="M97.412,171.15c-0.828,0-1.5,0.672-1.5,1.5v15.809c0,0.828,0.672,1.5,1.5,1.5s1.5-0.672,1.5-1.5V172.65     C98.912,171.822,98.24,171.15,97.412,171.15z"/>
		</g>
	</g>
	<g>
		<g>
			<path class="st4" d="M161.025,163.988c-2.486-3.487-4.159-9.916-4.159-17.278v-0.231c0.008-0.747,0.022-1.479,0.06-2.203     c0.112-2.158-1.501-3.972-3.517-3.972H150.4c-1.732,0-3.196,1.359-3.479,3.196c-1.456,9.512-9.169,16.778-18.472,16.778     c-9.296,0-17.009-7.265-18.465-16.778c-0.284-1.837-1.747-3.196-3.479-3.196h-3.009c-2.023,0-3.629,1.814-3.517,3.972     c0.03,0.702,0.052,1.411,0.06,2.136v0.298c0,7.362-1.672,13.791-4.159,17.278c-2.262,3.166-3.591,6.989-3.591,10.976v13.5h72.329     v-13.5C164.616,170.977,163.287,167.154,161.025,163.988z"/>
		</g>
	</g>
	<g>
		<g>
			<path class="st0" d="M162.246,163.117c-2.394-3.356-3.88-9.644-3.88-16.407v-0.218c0.007-0.726,0.021-1.437,0.058-2.138     c0.077-1.486-0.453-2.943-1.456-3.999c-0.949-1.001-2.213-1.552-3.559-1.552h-3.01c-2.475,0-4.562,1.878-4.962,4.469     c-1.374,8.983-8.52,15.504-16.989,15.504c-8.465,0-15.607-6.521-16.982-15.507c-0.4-2.588-2.487-4.466-4.962-4.466h-3.01     c-1.347,0-2.61,0.55-3.559,1.549c-1.002,1.055-1.533,2.514-1.457,3.988c0.03,0.686,0.052,1.378,0.06,2.07v0.299     c0,6.764-1.487,13.05-3.88,16.406c-2.532,3.543-3.871,7.64-3.871,11.848v13.499c0,0.828,0.672,1.5,1.5,1.5h72.329     c0.828,0,1.5-0.672,1.5-1.5v-13.499C166.116,170.756,164.777,166.659,162.246,163.117z M163.116,186.963H93.787v-11.999     c0-3.579,1.146-7.072,3.313-10.104c2.778-3.897,4.438-10.683,4.438-18.149v-0.315c-0.008-0.74-0.031-1.466-0.062-2.195     c-0.034-0.67,0.197-1.319,0.635-1.781c0.377-0.396,0.868-0.614,1.384-0.614h3.01c0.984,0,1.824,0.81,1.997,1.922     c1.601,10.46,9.99,18.051,19.947,18.051c9.963,0,18.354-7.592,19.954-18.048c0.173-1.115,1.013-1.925,1.997-1.925h3.01     c0.515,0,1.006,0.219,1.383,0.617c0.438,0.462,0.671,1.109,0.636,1.778c-0.038,0.745-0.055,1.497-0.062,2.279v0.231     c0,7.468,1.658,14.252,4.438,18.15c2.167,3.031,3.312,6.524,3.312,10.104V186.963z"/>
		</g>
	</g>
	<g>
		<g>
			<path class="st1" d="M165.309,174.962H91.593c-1.034,0-1.872,0.838-1.872,1.872v4.938c0,1.034,0.838,1.872,1.872,1.872h73.715     c1.034,0,1.872-0.838,1.872-1.872v-4.938C167.181,175.8,166.343,174.962,165.309,174.962z"/>
		</g>
	</g>
	<g>
		<g>
			<path class="st0" d="M165.309,173.462H91.594c-1.859,0-3.372,1.513-3.372,3.372v4.938c0,1.859,1.513,3.372,3.372,3.372h73.715     c1.859,0,3.372-1.513,3.372-3.372v-4.938C168.681,174.975,167.168,173.462,165.309,173.462z M165.681,181.771     c0,0.205-0.167,0.372-0.372,0.372H91.594c-0.205,0-0.372-0.167-0.372-0.372v-4.938c0-0.205,0.167-0.372,0.372-0.372h73.715     c0.205,0,0.372,0.167,0.372,0.372V181.771z"/>
		</g>
	</g>
	<g>
		<g>
			<path class="st2" d="M150.459,188.06l-4.458-13.731c-1.456-4.48-5.63-7.512-10.334-7.512h-14.433     c-4.712,0-8.878,3.032-10.334,7.512l-4.458,13.731c-0.045,0.134-0.082,0.269-0.119,0.403h44.255     C150.542,188.329,150.504,188.194,150.459,188.06z"/>
		</g>
	</g>
	<g>
		<g>
			<path class="st0" d="M152.024,188.062c-0.043-0.154-0.088-0.311-0.138-0.465l-4.458-13.731     c-1.662-5.112-6.388-8.548-11.761-8.548h-14.433c-5.373,0-10.099,3.436-11.761,8.549l-4.453,13.719     c-0.054,0.159-0.099,0.318-0.143,0.477c-0.125,0.452-0.032,0.937,0.251,1.31c0.284,0.373,0.726,0.592,1.194,0.592h44.255     c0.469,0,0.91-0.219,1.194-0.592C152.057,188.998,152.149,188.514,152.024,188.062z M108.377,186.963l3.951-12.17     c1.259-3.873,4.838-6.476,8.907-6.476h14.433c4.069,0,7.648,2.603,8.907,6.475l3.951,12.171H108.377z"/>
		</g>
	</g>
	<g>
		<g>
			<path class="st1" d="M143.232,185.708l-1.702-5.234c-1.449-4.473-5.622-7.504-10.326-7.504H125.7     c-4.704,0-8.878,3.031-10.326,7.504l-1.702,5.234c-0.291,0.903-0.463,1.829-0.515,2.755h30.591     C143.695,187.537,143.523,186.619,143.232,185.708z"/>
		</g>
	</g>
	<g>
		<g>
			<path class="st0" d="M144.658,185.244l-1.702-5.232c-1.654-5.109-6.378-8.542-11.753-8.542H125.7     c-5.375,0-10.099,3.433-11.753,8.54l-1.703,5.238c-0.328,1.019-0.525,2.071-0.586,3.13c-0.023,0.412,0.124,0.815,0.407,1.115     c0.284,0.3,0.678,0.47,1.091,0.47h30.591c0.413,0,0.807-0.17,1.091-0.47c0.283-0.3,0.431-0.703,0.407-1.115     C145.185,187.326,144.988,186.274,144.658,185.244z M114.88,186.963c0.062-0.267,0.135-0.53,0.219-0.791l1.702-5.236     c1.253-3.867,4.829-6.466,8.899-6.466h5.503c4.07,0,7.646,2.599,8.899,6.468l1.7,5.229c0.085,0.264,0.158,0.529,0.22,0.797     H114.88z"/>
		</g>
	</g>
	<g>
		<g>
			<path class="st3" d="M128,16.56c-25.95,0-46.994,21.458-47.067,47.957h94.134C174.994,38.018,153.95,16.56,128,16.56z"/>
		</g>
	</g>
	<g>
		<g>
			<path class="st0" d="M128,15.06c-26.705,0-48.492,22.185-48.567,49.453c-0.001,0.398,0.156,0.781,0.438,1.063     c0.282,0.282,0.664,0.44,1.062,0.44h94.135c0.398,0,0.78-0.158,1.062-0.44c0.281-0.282,0.438-0.665,0.438-1.063     C176.492,37.244,154.705,15.06,128,15.06z M82.46,63.017C83.309,38.092,103.438,18.06,128,18.06s44.691,20.032,45.54,44.957     H82.46z"/>
		</g>
	</g>
	<g>
		<g>
			<path class="st3" d="M174.914,64.517H81.086c-3.923,0-7.103,3.18-7.103,7.103v16.715c0,3.923,3.18,7.103,7.103,7.103h93.829     c3.923,0,7.103-3.18,7.103-7.103V71.619C182.017,67.697,178.837,64.517,174.914,64.517z"/>
		</g>
	</g>
	<g>
		<g>
			<path class="st0" d="M174.914,63.017H81.086c-4.743,0-8.603,3.859-8.603,8.603v16.716c0,4.743,3.859,8.603,8.603,8.603h93.828     c4.743,0,8.603-3.859,8.603-8.603V71.619C183.517,66.876,179.657,63.017,174.914,63.017z M180.517,88.335     c0,3.089-2.514,5.603-5.603,5.603H81.086c-3.089,0-5.603-2.514-5.603-5.603V71.619c0-3.089,2.514-5.603,5.603-5.603h93.828     c3.089,0,5.603,2.514,5.603,5.603V88.335z"/>
		</g>
	</g>
	<g>
		<g>
			<path class="st1" d="M158.757,76.098H97.243c-7.003,0-12.676,5.677-12.676,12.676v14.924c0,6.999,5.672,12.676,12.676,12.676     h19.416c4.526,0,8.71-2.419,10.978-6.34c0.224-0.39,0.624-0.59,1.024-0.59c0.395,0,0.79,0.2,1.019,0.59     c1.132,1.961,2.746,3.546,4.638,4.643c1.897,1.092,4.077,1.697,6.34,1.697h18.099c6.999,0,12.676-5.677,12.676-12.676V88.773     C171.433,81.775,165.756,76.098,158.757,76.098z"/>
		</g>
	</g>
	<g>
		<g>
			<path class="st0" d="M158.757,74.598H97.243c-7.816,0-14.176,6.359-14.176,14.176v14.924c0,7.816,6.359,14.176,14.176,14.176     h19.415c4.865,0,9.414-2.526,12-6.632c1.223,1.944,2.91,3.574,4.912,4.734c2.157,1.241,4.607,1.897,7.088,1.897h18.099     c7.816,0,14.176-6.359,14.176-14.176V88.773C172.933,80.957,166.573,74.598,158.757,74.598z M169.933,103.697     c0,6.162-5.014,11.176-11.176,11.176h-18.099c-1.956,0-3.89-0.518-5.587-1.495c-1.7-0.985-3.114-2.401-4.099-4.107     c-0.489-0.831-1.354-1.328-2.312-1.328c-0.957,0-1.848,0.514-2.323,1.339c-1.994,3.449-5.703,5.592-9.68,5.592H97.243     c-6.162,0-11.176-5.014-11.176-11.176V88.773c0-6.162,5.014-11.176,11.176-11.176h61.514c6.162,0,11.176,5.014,11.176,11.176     V103.697z"/>
		</g>
	</g>
	<g>
		<g>
			<path class="st5" d="M158.755,83.995H97.241c-2.635,0-4.778,2.144-4.778,4.779v14.923c0,2.635,2.144,4.779,4.778,4.779h19.417     c1.702,0,3.287-0.916,4.138-2.389l1.843-3.191c1.256-2.176,3.506-3.475,6.019-3.475s4.763,1.3,6.019,3.476l1.842,3.19     c0.851,1.474,2.437,2.39,4.139,2.39h18.098c2.635,0,4.779-2.144,4.779-4.779V88.773C163.534,86.138,161.39,83.995,158.755,83.995     z"/>
		</g>
	</g>
	<g>
		<g>
			<path class="st0" d="M158.755,82.495H97.241c-3.462,0-6.278,2.816-6.278,6.278v14.923c0,3.462,2.816,6.278,6.278,6.278h19.416     c2.236,0,4.32-1.203,5.438-3.139l1.843-3.192c0.985-1.706,2.749-2.725,4.72-2.725s3.735,1.019,4.721,2.726l1.842,3.19     c1.118,1.937,3.202,3.14,5.438,3.14h18.098c3.463,0,6.279-2.816,6.279-6.278V88.773     C165.034,85.312,162.218,82.495,158.755,82.495z M162.034,103.696c0,1.808-1.471,3.278-3.279,3.278h-18.098     c-1.168,0-2.256-0.628-2.84-1.64l-1.842-3.19c-1.526-2.646-4.263-4.226-7.318-4.226c-3.055,0-5.791,1.579-7.317,4.225     l-1.843,3.192c-0.584,1.011-1.672,1.639-2.84,1.639H97.241c-1.808,0-3.278-1.471-3.278-3.278V88.773     c0-1.808,1.471-3.278,3.278-3.278h61.514c1.809,0,3.279,1.471,3.279,3.278V103.696z"/>
		</g>
	</g>
	<g>
		<g>
			<circle class="st5" cx="128" cy="43.958" r="14.897"/>
		</g>
	</g>
	<g>
		<g>
			<path class="st0" d="M128,27.562c-9.041,0-16.396,7.355-16.396,16.396S118.959,60.354,128,60.354s16.396-7.355,16.396-16.396     S137.041,27.562,128,27.562z M128,57.354c-7.387,0-13.396-6.01-13.396-13.396s6.01-13.396,13.396-13.396     s13.396,6.01,13.396,13.396S135.387,57.354,128,57.354z"/>
		</g>
	</g>
	<g>
		<g>
			<circle class="st2" cx="128" cy="43.958" r="8.214"/>
		</g>
	</g>
	<g>
		<g>
			<path class="st0" d="M128,34.244c-5.356,0-9.714,4.357-9.714,9.714s4.357,9.714,9.714,9.714s9.714-4.357,9.714-9.714     S133.356,34.244,128,34.244z M128,50.672c-3.702,0-6.714-3.012-6.714-6.714s3.012-6.714,6.714-6.714s6.714,3.012,6.714,6.714     S131.702,50.672,128,50.672z"/>
		</g>
	</g>
	<g>
		<g>
			<path class="st2" d="M98.138,169.06H83.555v-9.477c-4.033,2.796-8.207,4.446-12.257,4.446c-3.885,0-7.984-1.666-12.001-4.496     H59.05v9.527H44.459c-12.19,0-22.072,9.881-22.072,22.072v20.001h97.821v-20.001C120.209,178.941,110.328,169.06,98.138,169.06z"/>
		</g>
	</g>
	<g>
		<g>
			<path class="st0" d="M98.138,167.56H85.056v-7.977c0-0.558-0.31-1.07-0.804-1.329c-0.494-0.258-1.092-0.223-1.551,0.097     c-4,2.772-7.837,4.178-11.402,4.178c-3.413,0-7.16-1.42-11.137-4.222c-0.253-0.178-0.555-0.273-0.864-0.273h-0.247     c-0.828,0-1.5,0.672-1.5,1.5v8.026H44.459c-12.997,0-23.571,10.574-23.571,23.571v20.002c0,0.828,0.672,1.5,1.5,1.5h97.821     c0.828,0,1.5-0.672,1.5-1.5v-20.002C121.709,178.134,111.135,167.56,98.138,167.56z M118.709,209.633H23.888v-18.502     c0-11.343,9.229-20.571,20.571-20.571h14.592c0.828,0,1.5-0.672,1.5-1.5v-6.917c3.736,2.248,7.343,3.386,10.748,3.386     c3.457,0,7.065-1.08,10.757-3.215v6.746c0,0.828,0.672,1.5,1.5,1.5h14.582c11.343,0,20.571,9.229,20.571,20.571V209.633z"/>
		</g>
	</g>
	<g>
		<g>
			<path class="st3" d="M22.385,191.128v20.01h13.201v-13.499c0-3.987,1.329-7.81,3.591-10.976     c2.486-3.487,4.159-9.916,4.159-17.278v-0.299C31.674,169.669,22.385,179.308,22.385,191.128z"/>
		</g>
	</g>
	<g>
		<g>
			<path class="st0" d="M44.37,168c-0.298-0.282-0.691-0.432-1.109-0.411c-12.547,0.626-22.376,10.966-22.376,23.539v20.011     c0,0.828,0.672,1.5,1.5,1.5h13.201c0.828,0,1.5-0.672,1.5-1.5v-13.5c0-3.578,1.146-7.071,3.313-10.104     c2.778-3.897,4.437-10.682,4.437-18.149v-0.298C44.836,168.676,44.667,168.283,44.37,168z M37.957,185.791     c-2.532,3.544-3.871,7.641-3.871,11.848v12H23.885v-18.511c0-10.435,7.756-19.106,17.932-20.402     C41.635,176.972,40.19,182.659,37.957,185.791z"/>
		</g>
	</g>
	<g>
		<g>
			<path class="st3" d="M100.165,169.154v0.231c0,7.362,1.673,13.791,4.159,17.278c2.262,3.166,3.591,6.989,3.591,10.976v13.499     h12.297v-20.01C120.212,179.622,111.402,170.169,100.165,169.154z"/>
		</g>
	</g>
	<g>
		<g>
			<path class="st0" d="M100.3,167.659c-0.418-0.034-0.836,0.103-1.146,0.387c-0.312,0.284-0.488,0.687-0.488,1.107v0.231     c0,7.468,1.658,14.252,4.438,18.15c2.167,3.032,3.312,6.525,3.312,10.104v13.5c0,0.828,0.672,1.5,1.5,1.5h12.297     c0.828,0,1.5-0.672,1.5-1.5v-20.011C121.712,178.852,112.507,168.763,100.3,167.659z M118.712,209.639h-9.297v-12     c0-4.207-1.339-8.304-3.87-11.847c-2.218-3.11-3.657-8.737-3.856-14.929c9.815,1.679,17.023,10.115,17.023,20.265V209.639z"/>
		</g>
	</g>
	<g>
		<g>
			<path class="st0" d="M102.777,193.826c-0.828,0-1.5,0.672-1.5,1.5v15.809c0,0.828,0.672,1.5,1.5,1.5s1.5-0.672,1.5-1.5v-15.809     C104.277,194.498,103.605,193.826,102.777,193.826z"/>
		</g>
	</g>
	<g>
		<g>
			<path class="st2" d="M71.3,71.629c-21.263,0-38.5,17.237-38.5,38.5c0,21.263,21.297,53.9,38.5,53.9     c18.022,0,38.5-32.637,38.5-53.9C109.8,88.866,92.563,71.629,71.3,71.629z"/>
		</g>
	</g>
	<g>
		<g>
			<path class="st0" d="M71.3,70.13c-22.056,0-40,17.944-40,40c0,10.405,5.006,24.114,13.065,35.776     c8.49,12.288,18.56,19.624,26.935,19.624c8.813,0,18.745-7.155,27.248-19.632c7.865-11.542,12.752-25.247,12.752-35.769     C111.3,88.074,93.355,70.13,71.3,70.13z M96.068,144.209C88.25,155.681,78.99,162.53,71.3,162.53c-16.33,0-37-32.489-37-52.4     c0-20.402,16.598-37,37-37s37,16.598,37,37C108.3,120.081,103.613,133.139,96.068,144.209z"/>
		</g>
	</g>
	<g>
		<g>
			<path class="st0" d="M40.711,193.826c-0.828,0-1.5,0.672-1.5,1.5v15.809c0,0.828,0.672,1.5,1.5,1.5s1.5-0.672,1.5-1.5v-15.809     C42.211,194.498,41.539,193.826,40.711,193.826z"/>
		</g>
	</g>
	<g>
		<g>
			<path class="st4" d="M104.323,186.663c-2.486-3.487-4.159-9.916-4.159-17.278v-0.231c0.008-0.747,0.022-1.479,0.06-2.203     c0.112-2.158-1.501-3.972-3.517-3.972h-3.009c-1.732,0-3.196,1.359-3.479,3.196c-1.456,9.512-9.169,16.777-18.472,16.777     c-9.296,0-17.009-7.265-18.465-16.777c-0.284-1.837-1.747-3.196-3.479-3.196h-3.009c-2.023,0-3.629,1.815-3.517,3.972     c0.03,0.702,0.052,1.411,0.06,2.135v0.299c0,7.362-1.673,13.791-4.159,17.278c-2.262,3.166-3.591,6.989-3.591,10.976v13.499     h72.329v-13.499C107.915,193.652,106.586,189.829,104.323,186.663z"/>
		</g>
	</g>
	<g>
		<g>
			<path class="st0" d="M105.545,185.792c-2.394-3.356-3.88-9.644-3.88-16.407v-0.218c0.007-0.724,0.021-1.434,0.058-2.139     c0.076-1.486-0.454-2.944-1.457-4c-0.949-0.999-2.213-1.55-3.558-1.55h-3.01c-2.475,0-4.562,1.879-4.962,4.47     c-1.376,8.983-8.521,15.504-16.989,15.504c-8.465,0-15.606-6.521-16.982-15.507c-0.4-2.588-2.487-4.467-4.962-4.467h-3.01     c-1.347,0-2.61,0.55-3.559,1.549c-1.002,1.055-1.533,2.513-1.457,3.988c0.03,0.686,0.052,1.378,0.059,2.071v0.298     c0,6.764-1.486,13.051-3.879,16.406c-2.532,3.544-3.871,7.641-3.871,11.848v13.5c0,0.828,0.672,1.5,1.5,1.5h72.329     c0.828,0,1.5-0.672,1.5-1.5v-13.5C109.415,193.432,108.076,189.335,105.545,185.792z M106.415,209.639H37.086v-12     c0-3.578,1.146-7.071,3.313-10.104c2.778-3.897,4.437-10.682,4.437-18.149v-0.312c-0.007-0.742-0.03-1.468-0.062-2.199     c-0.034-0.671,0.197-1.319,0.635-1.781c0.377-0.396,0.868-0.614,1.384-0.614h3.01c0.984,0,1.824,0.81,1.997,1.923     c1.601,10.46,9.99,18.051,19.947,18.051c9.961,0,18.354-7.591,19.954-18.048c0.173-1.116,1.013-1.926,1.997-1.926h3.01     c0.514,0,1.005,0.219,1.382,0.616c0.439,0.462,0.671,1.11,0.637,1.777c-0.039,0.746-0.055,1.499-0.062,2.281v0.231     c0,7.468,1.658,14.252,4.438,18.15c2.167,3.032,3.312,6.525,3.312,10.104V209.639z"/>
		</g>
	</g>
	<g>
		<g>
			<path class="st1" d="M108.607,197.637H34.892c-1.034,0-1.872,0.838-1.872,1.872v4.938c0,1.034,0.838,1.872,1.872,1.872h73.715     c1.034,0,1.872-0.838,1.872-1.872v-4.938C110.479,198.475,109.641,197.637,108.607,197.637z"/>
		</g>
	</g>
	<g>
		<g>
			<path class="st0" d="M108.607,196.137H34.893c-1.859,0-3.372,1.513-3.372,3.372v4.938c0,1.858,1.513,3.371,3.372,3.371h73.715     c1.859,0,3.372-1.513,3.372-3.371v-4.938C111.979,197.649,110.467,196.137,108.607,196.137z M108.979,204.447     c0,0.205-0.167,0.371-0.372,0.371H34.893c-0.205,0-0.372-0.166-0.372-0.371v-4.938c0-0.205,0.167-0.372,0.372-0.372h73.715     c0.205,0,0.372,0.167,0.372,0.372V204.447z"/>
		</g>
	</g>
	<g>
		<g>
			<path class="st2" d="M93.758,210.735l-4.458-13.731c-1.456-4.48-5.63-7.511-10.334-7.511H64.534     c-4.711,0-8.878,3.031-10.334,7.511l-4.458,13.731c-0.045,0.135-0.082,0.269-0.119,0.403h44.255     C93.84,211.004,93.803,210.87,93.758,210.735z"/>
		</g>
	</g>
	<g>
		<g>
			<path class="st0" d="M95.324,210.74c-0.045-0.161-0.091-0.322-0.14-0.468l-4.457-13.732c-1.662-5.112-6.388-8.547-11.761-8.547     H64.534c-5.373,0-10.099,3.435-11.761,8.548l-4.452,13.717c-0.054,0.16-0.1,0.321-0.145,0.482     c-0.124,0.451-0.03,0.936,0.253,1.308c0.284,0.372,0.726,0.591,1.193,0.591h44.255c0.468,0,0.909-0.219,1.193-0.591     C95.354,211.676,95.448,211.191,95.324,210.74z M51.676,209.639l3.951-12.171c1.259-3.873,4.838-6.475,8.907-6.475h14.433     c4.069,0,7.648,2.602,8.907,6.474l3.951,12.172H51.676z"/>
		</g>
	</g>
	<g>
		<g>
			<path class="st1" d="M86.531,208.383l-1.702-5.234c-1.448-4.472-5.622-7.504-10.326-7.504h-5.503     c-4.704,0-8.878,3.031-10.326,7.504l-1.702,5.234c-0.291,0.903-0.463,1.829-0.515,2.755h30.591     C86.994,210.212,86.822,209.294,86.531,208.383z"/>
		</g>
	</g>
	<g>
		<g>
			<path class="st0" d="M87.957,207.919l-1.702-5.231c-1.654-5.109-6.377-8.542-11.753-8.542h-5.503     c-5.376,0-10.099,3.433-11.753,8.54l-1.703,5.237c-0.328,1.019-0.525,2.072-0.586,3.131c-0.023,0.412,0.124,0.815,0.407,1.115     c0.284,0.3,0.678,0.47,1.091,0.47h30.591c0.413,0,0.807-0.17,1.091-0.47c0.283-0.3,0.431-0.703,0.407-1.115     C88.483,210.001,88.287,208.949,87.957,207.919z M58.179,209.639c0.062-0.267,0.135-0.531,0.219-0.792l1.702-5.235     c1.253-3.867,4.829-6.466,8.899-6.466h5.503c4.07,0,7.646,2.599,8.899,6.468l1.7,5.228c0.085,0.264,0.158,0.53,0.22,0.798H58.179     z"/>
		</g>
	</g>
	<g>
		<g>
			<path class="st3" d="M71.299,44.862c-25.95,0-46.994,21.458-47.067,47.957h94.134C118.293,66.32,97.249,44.862,71.299,44.862z"/>
		</g>
	</g>
	<g>
		<g>
			<path class="st0" d="M71.299,43.361c-26.705,0-48.492,22.185-48.567,49.453c-0.001,0.398,0.156,0.781,0.438,1.063     c0.282,0.282,0.664,0.44,1.062,0.44h94.135c0.398,0,0.78-0.158,1.062-0.44c0.281-0.282,0.438-0.665,0.438-1.063     C119.791,65.546,98.004,43.361,71.299,43.361z M25.759,91.318c0.849-24.925,20.978-44.957,45.54-44.957     s44.691,20.032,45.54,44.957H25.759z"/>
		</g>
	</g>
	<g>
		<g>
			<path class="st3" d="M118.213,92.819H24.385c-3.923,0-7.103,3.18-7.103,7.103v16.715c0,3.923,3.18,7.103,7.103,7.103h93.828     c3.923,0,7.102-3.18,7.102-7.103V99.921C125.315,95.999,122.136,92.819,118.213,92.819z"/>
		</g>
	</g>
	<g>
		<g>
			<path class="st0" d="M118.213,91.318H24.385c-4.743,0-8.603,3.859-8.603,8.603v16.716c0,4.743,3.859,8.603,8.603,8.603h93.828     c4.743,0,8.603-3.859,8.603-8.603V99.921C126.815,95.178,122.956,91.318,118.213,91.318z M123.815,116.637     c0,3.089-2.514,5.603-5.603,5.603H24.385c-3.089,0-5.603-2.514-5.603-5.603V99.921c0-3.089,2.514-5.603,5.603-5.603h93.828     c3.089,0,5.603,2.514,5.603,5.603V116.637z"/>
		</g>
	</g>
	<g>
		<g>
			<path class="st1" d="M102.056,104.4H40.542c-7.004,0-12.676,5.677-12.676,12.676v14.924c0,6.999,5.672,12.676,12.676,12.676     h19.416c4.526,0,8.711-2.419,10.978-6.34c0.224-0.39,0.624-0.59,1.024-0.59c0.395,0,0.79,0.2,1.019,0.59     c1.131,1.961,2.746,3.546,4.638,4.643c1.897,1.093,4.077,1.697,6.34,1.697h18.099c6.999,0,12.676-5.677,12.676-12.676v-14.924     C114.732,110.076,109.055,104.4,102.056,104.4z"/>
		</g>
	</g>
	<g>
		<g>
			<path class="st0" d="M102.056,102.899H40.541c-7.816,0-14.175,6.359-14.175,14.176v14.924c0,7.816,6.358,14.176,14.175,14.176     h19.416c4.864,0,9.413-2.526,12-6.631c1.223,1.944,2.911,3.573,4.912,4.733c2.157,1.241,4.607,1.897,7.088,1.897h18.099     c7.816,0,14.176-6.359,14.176-14.176v-14.924C116.231,109.259,109.872,102.899,102.056,102.899z M113.231,131.999     c0,6.162-5.014,11.176-11.176,11.176H83.957c-1.956,0-3.89-0.518-5.587-1.495c-1.7-0.985-3.115-2.401-4.098-4.104     c-0.489-0.833-1.354-1.331-2.312-1.331c-0.957,0-1.848,0.514-2.323,1.339c-1.994,3.449-5.703,5.592-9.68,5.592H40.541     c-6.162,0-11.175-5.014-11.175-11.176v-14.924c0-6.162,5.013-11.176,11.175-11.176h61.515c6.162,0,11.176,5.014,11.176,11.176     V131.999z"/>
		</g>
	</g>
	<g>
		<g>
			<path class="st5" d="M102.054,112.297H40.54c-2.635,0-4.778,2.144-4.778,4.779v14.923c0,2.635,2.144,4.779,4.778,4.779h19.417     c1.702,0,3.287-0.916,4.138-2.389l1.843-3.192c1.256-2.176,3.506-3.475,6.019-3.475c2.513,0,4.763,1.299,6.019,3.476l1.842,3.191     c0.851,1.474,2.437,2.39,4.139,2.39h18.098c2.635,0,4.779-2.144,4.779-4.779v-14.923     C106.833,114.44,104.689,112.297,102.054,112.297z"/>
		</g>
	</g>
	<g>
		<g>
			<path class="st0" d="M102.054,110.797H58.71c-0.828,0-1.5,0.672-1.5,1.5s0.672,1.5,1.5,1.5h43.344     c1.808,0,3.278,1.471,3.278,3.278v14.923c0,1.808-1.471,3.278-3.278,3.278H83.956c-1.168,0-2.256-0.628-2.84-1.64l-1.842-3.19     c-1.526-2.646-4.263-4.226-7.318-4.226c-3.055,0-5.791,1.579-7.317,4.225l-1.843,3.192c-0.584,1.011-1.672,1.639-2.84,1.639     H40.54c-1.808,0-3.278-1.471-3.278-3.278v-14.923c0-1.808,1.471-3.278,3.278-3.278h3.251c0.828,0,1.5-0.672,1.5-1.5     s-0.672-1.5-1.5-1.5H40.54c-3.462,0-6.278,2.816-6.278,6.278v14.923c0,3.462,2.816,6.278,6.278,6.278h19.416     c2.236,0,4.32-1.203,5.438-3.139l1.843-3.192c0.985-1.706,2.749-2.725,4.72-2.725s3.735,1.019,4.721,2.726l1.842,3.19     c1.118,1.937,3.202,3.14,5.438,3.14h18.098c3.462,0,6.278-2.816,6.278-6.278v-14.923     C108.332,113.613,105.516,110.797,102.054,110.797z"/>
		</g>
	</g>
	<g>
		<g>
			<path class="st5" d="M71.299,57.363c-8.227,0-14.897,6.669-14.897,14.896c0,8.227,6.669,14.897,14.897,14.897     c8.227,0,14.896-6.669,14.896-14.897C86.195,64.032,79.526,57.363,71.299,57.363z"/>
		</g>
	</g>
	<g>
		<g>
			<path class="st0" d="M71.299,55.863c-9.041,0-16.396,7.355-16.396,16.396s7.355,16.396,16.396,16.396s16.396-7.355,16.396-16.396     S80.34,55.863,71.299,55.863z M71.299,85.656c-7.387,0-13.396-6.01-13.396-13.396s6.01-13.396,13.396-13.396     s13.396,6.01,13.396,13.396S78.686,85.656,71.299,85.656z"/>
		</g>
	</g>
	<g>
		<g>
			<path class="st2" d="M71.299,64.046c-4.536,0-8.214,3.677-8.214,8.214s3.677,8.214,8.214,8.214c4.536,0,8.214-3.678,8.214-8.214     S75.835,64.046,71.299,64.046z"/>
		</g>
	</g>
	<g>
		<g>
			<path class="st0" d="M71.299,62.546c-5.356,0-9.714,4.357-9.714,9.714s4.357,9.714,9.714,9.714s9.714-4.357,9.714-9.714     S76.655,62.546,71.299,62.546z M71.299,78.974c-3.702,0-6.714-3.012-6.714-6.714s3.012-6.714,6.714-6.714     s6.714,3.012,6.714,6.714S75.001,78.974,71.299,78.974z"/>
		</g>
	</g>
	<g>
		<g>
			<path class="st2" d="M211.54,169.06h-14.583v-9.477c-4.033,2.796-8.207,4.446-12.256,4.446c-3.885,0-7.984-1.666-12.001-4.496     h-0.247v9.527h-14.591c-12.19,0-22.072,9.881-22.072,22.072v20.001h97.821v-20.001C233.612,178.941,223.731,169.06,211.54,169.06     z"/>
		</g>
	</g>
	<g>
		<g>
			<path class="st0" d="M211.54,167.56h-13.082v-7.977c0-0.558-0.31-1.07-0.804-1.329c-0.494-0.258-1.091-0.223-1.551,0.097     c-4,2.772-7.837,4.178-11.402,4.178c-3.413,0-7.16-1.42-11.137-4.222c-0.253-0.178-0.555-0.273-0.864-0.273h-0.247     c-0.828,0-1.5,0.672-1.5,1.5v8.026h-13.091c-12.998,0-23.572,10.574-23.572,23.571v20.002c0,0.828,0.672,1.5,1.5,1.5h97.821     c0.828,0,1.5-0.672,1.5-1.5v-20.002C235.111,178.134,224.537,167.56,211.54,167.56z M232.111,209.633H137.29v-18.502     c0-11.343,9.229-20.571,20.572-20.571h14.591c0.828,0,1.5-0.672,1.5-1.5v-6.917c3.736,2.248,7.343,3.386,10.748,3.386     c3.457,0,7.065-1.08,10.757-3.215v6.746c0,0.828,0.672,1.5,1.5,1.5h14.582c11.343,0,20.571,9.229,20.571,20.571V209.633z"/>
		</g>
	</g>
	<g>
		<g>
			<path class="st3" d="M135.788,191.128v20.01h13.201v-13.499c0-3.987,1.329-7.81,3.591-10.976     c2.486-3.487,4.159-9.916,4.159-17.278v-0.299C145.076,169.669,135.788,179.308,135.788,191.128z"/>
		</g>
	</g>
	<g>
		<g>
			<path class="st0" d="M157.773,168c-0.299-0.282-0.68-0.432-1.109-0.411c-12.547,0.626-22.376,10.966-22.376,23.539v20.011     c0,0.828,0.672,1.5,1.5,1.5h13.2c0.828,0,1.5-0.672,1.5-1.5v-13.5c0-3.578,1.146-7.071,3.313-10.104     c2.778-3.897,4.438-10.683,4.438-18.149v-0.298C158.239,168.676,158.07,168.283,157.773,168z M151.359,185.791     c-2.532,3.544-3.871,7.641-3.871,11.848v12h-10.2v-18.511c0-10.435,7.756-19.106,17.932-20.402     C155.038,176.971,153.594,182.658,151.359,185.791z"/>
		</g>
	</g>
	<g>
		<g>
			<path class="st3" d="M213.567,169.154v0.231c0,7.362,1.672,13.791,4.159,17.278c2.262,3.166,3.591,6.989,3.591,10.976v13.499     h12.298v-20.01C233.615,179.622,224.804,170.169,213.567,169.154z"/>
		</g>
	</g>
	<g>
		<g>
			<path class="st0" d="M213.702,167.659c-0.419-0.034-0.836,0.103-1.146,0.387c-0.312,0.284-0.488,0.687-0.488,1.107v0.231     c0,7.468,1.658,14.252,4.438,18.15c2.167,3.032,3.312,6.525,3.312,10.104v13.5c0,0.828,0.672,1.5,1.5,1.5h12.298     c0.828,0,1.5-0.672,1.5-1.5v-20.011C235.115,178.852,225.91,168.763,213.702,167.659z M232.115,209.639h-9.298v-12     c0-4.207-1.339-8.304-3.87-11.847c-2.218-3.11-3.657-8.737-3.856-14.929c9.815,1.679,17.024,10.115,17.024,20.265V209.639z"/>
		</g>
	</g>
	<g>
		<g>
			<path class="st0" d="M216.18,193.826c-0.828,0-1.5,0.672-1.5,1.5v15.809c0,0.828,0.672,1.5,1.5,1.5s1.5-0.672,1.5-1.5v-15.809     C217.68,194.498,217.008,193.826,216.18,193.826z"/>
		</g>
	</g>
	<g>
		<g>
			<path class="st2" d="M184.702,71.629c-21.263,0-38.5,17.237-38.5,38.5c0,21.263,21.298,53.9,38.5,53.9     c18.022,0,38.5-32.637,38.5-53.9C223.203,88.866,205.966,71.629,184.702,71.629z"/>
		</g>
	</g>
	<g>
		<g>
			<path class="st0" d="M184.702,70.13c-22.056,0-40,17.944-40,40c0,10.405,5.006,24.114,13.065,35.776     c8.49,12.288,18.56,19.624,26.935,19.624c8.813,0,18.745-7.155,27.248-19.632c7.865-11.542,12.752-25.247,12.752-35.769     C224.702,88.074,206.758,70.13,184.702,70.13z M209.471,144.209c-7.818,11.472-17.078,18.321-24.769,18.321     c-16.33,0-37-32.489-37-52.4c0-20.402,16.598-37,37-37s37,16.598,37,37C221.702,120.081,217.016,133.139,209.471,144.209z"/>
		</g>
	</g>
	<g>
		<g>
			<path class="st0" d="M154.113,193.826c-0.828,0-1.5,0.672-1.5,1.5v15.809c0,0.828,0.672,1.5,1.5,1.5s1.5-0.672,1.5-1.5v-15.809     C155.613,194.498,154.941,193.826,154.113,193.826z"/>
		</g>
	</g>
	<g>
		<g>
			<path class="st4" d="M217.726,186.663c-2.486-3.487-4.159-9.916-4.159-17.278v-0.231c0.007-0.747,0.022-1.479,0.06-2.203     c0.112-2.158-1.501-3.972-3.517-3.972h-3.009c-1.732,0-3.196,1.359-3.479,3.196c-1.456,9.512-9.169,16.777-18.472,16.777     c-9.296,0-17.009-7.265-18.465-16.777c-0.284-1.837-1.747-3.196-3.479-3.196h-3.009c-2.024,0-3.629,1.815-3.517,3.972     c0.03,0.702,0.052,1.411,0.06,2.135v0.299c0,7.362-1.672,13.791-4.159,17.278c-2.262,3.166-3.591,6.989-3.591,10.976v13.499     h72.329v-13.499C221.317,193.652,219.988,189.829,217.726,186.663z"/>
		</g>
	</g>
	<g>
		<g>
			<path class="st0" d="M218.947,185.792c-2.394-3.356-3.88-9.644-3.88-16.407v-0.218c0.007-0.725,0.021-1.436,0.058-2.138     c0.077-1.486-0.453-2.943-1.456-3.999c-0.949-1.001-2.213-1.552-3.559-1.552h-3.01c-2.476,0-4.562,1.879-4.961,4.47     c-1.376,8.983-8.521,15.504-16.99,15.504c-8.465,0-15.606-6.521-16.982-15.507c-0.4-2.588-2.487-4.467-4.962-4.467h-3.009     c-1.347,0-2.611,0.55-3.56,1.549c-1.002,1.055-1.533,2.514-1.457,3.988c0.03,0.687,0.052,1.379,0.06,2.071v0.298     c0,6.764-1.487,13.05-3.88,16.406c-2.532,3.544-3.871,7.641-3.871,11.848v13.5c0,0.828,0.672,1.5,1.5,1.5h72.329     c0.828,0,1.5-0.672,1.5-1.5v-13.5C222.817,193.432,221.479,189.335,218.947,185.792z M219.817,209.639h-69.329v-12     c0-3.578,1.146-7.071,3.313-10.104c2.778-3.897,4.438-10.683,4.438-18.149v-0.314c-0.008-0.74-0.031-1.466-0.062-2.196     c-0.034-0.67,0.197-1.319,0.635-1.78c0.377-0.396,0.868-0.615,1.385-0.615h3.009c0.984,0,1.824,0.81,1.997,1.923     c1.601,10.46,9.99,18.051,19.947,18.051c9.962,0,18.354-7.591,19.955-18.049c0.172-1.115,1.012-1.925,1.996-1.925h3.01     c0.515,0,1.006,0.219,1.383,0.617c0.438,0.462,0.671,1.109,0.636,1.778c-0.038,0.746-0.055,1.498-0.062,2.279v0.231     c0,7.468,1.658,14.252,4.438,18.15c2.167,3.032,3.312,6.525,3.312,10.104V209.639z"/>
		</g>
	</g>
	<g>
		<g>
			<path class="st1" d="M222.01,197.637h-73.715c-1.034,0-1.872,0.838-1.872,1.872v4.938c0,1.034,0.838,1.872,1.872,1.872h73.715     c1.034,0,1.872-0.838,1.872-1.872v-4.938C223.882,198.475,223.044,197.637,222.01,197.637z"/>
		</g>
	</g>
	<g>
		<g>
			<path class="st0" d="M222.01,196.137h-73.715c-1.859,0-3.372,1.513-3.372,3.372v4.938c0,1.858,1.513,3.371,3.372,3.371h73.715     c1.859,0,3.372-1.513,3.372-3.371v-4.938C225.382,197.649,223.869,196.137,222.01,196.137z M222.382,204.447     c0,0.205-0.167,0.371-0.372,0.371h-73.715c-0.205,0-0.372-0.166-0.372-0.371v-4.938c0-0.205,0.167-0.372,0.372-0.372h73.715     c0.205,0,0.372,0.167,0.372,0.372V204.447z"/>
		</g>
	</g>
	<g>
		<g>
			<path class="st2" d="M207.161,210.735l-4.458-13.731c-1.456-4.48-5.63-7.511-10.334-7.511h-14.433     c-4.711,0-8.878,3.031-10.334,7.511l-4.458,13.731c-0.045,0.135-0.082,0.269-0.12,0.403h44.255     C207.243,211.004,207.206,210.87,207.161,210.735z"/>
		</g>
	</g>
	<g>
		<g>
			<path class="st0" d="M208.727,210.74c-0.044-0.158-0.089-0.316-0.139-0.468l-4.458-13.732c-1.662-5.112-6.388-8.547-11.761-8.547     h-14.433c-5.373,0-10.099,3.435-11.761,8.548l-4.452,13.717c-0.048,0.143-0.089,0.286-0.142,0.473     c-0.128,0.452-0.036,0.938,0.247,1.313c0.283,0.374,0.727,0.595,1.196,0.595h44.255c0.468,0,0.909-0.219,1.193-0.591     C208.757,211.676,208.851,211.191,208.727,210.74z M165.078,209.639l3.951-12.171c1.259-3.873,4.838-6.475,8.907-6.475h14.433     c4.069,0,7.648,2.602,8.907,6.474l3.952,12.172H165.078z"/>
		</g>
	</g>
	<g>
		<g>
			<path class="st1" d="M199.933,208.383l-1.702-5.234c-1.448-4.472-5.622-7.504-10.326-7.504h-5.503     c-4.704,0-8.878,3.031-10.326,7.504l-1.702,5.234c-0.291,0.903-0.463,1.829-0.515,2.755h30.591     C200.396,210.212,200.224,209.294,199.933,208.383z"/>
		</g>
	</g>
	<g>
		<g>
			<path class="st0" d="M201.359,207.919l-1.702-5.231c-1.654-5.109-6.377-8.542-11.753-8.542h-5.503     c-5.376,0-10.099,3.433-11.753,8.54l-1.703,5.237c-0.328,1.019-0.525,2.072-0.586,3.131c-0.023,0.412,0.124,0.815,0.407,1.115     c0.284,0.3,0.678,0.47,1.091,0.47h30.591c0.412,0,0.807-0.17,1.09-0.47c0.283-0.299,0.431-0.702,0.408-1.114     C201.888,210.006,201.69,208.953,201.359,207.919z M171.581,209.639c0.062-0.267,0.135-0.531,0.219-0.792l1.702-5.235     c1.253-3.867,4.829-6.466,8.899-6.466h5.503c4.07,0,7.646,2.599,8.899,6.468l1.7,5.228c0.085,0.265,0.158,0.53,0.22,0.798     H171.581z"/>
		</g>
	</g>
	<g>
		<g>
			<path class="st3" d="M184.701,44.862c-25.95,0-46.994,21.458-47.067,47.957h94.134C231.695,66.32,210.651,44.862,184.701,44.862z     "/>
		</g>
	</g>
	<g>
		<g>
			<path class="st0" d="M184.701,43.361c-26.705,0-48.492,22.185-48.567,49.453c-0.001,0.398,0.156,0.781,0.438,1.063     c0.282,0.282,0.664,0.44,1.062,0.44h94.135c0.398,0,0.78-0.158,1.062-0.44c0.281-0.282,0.438-0.665,0.438-1.063     C233.193,65.546,211.406,43.361,184.701,43.361z M139.161,91.318c0.849-24.925,20.978-44.957,45.54-44.957     s44.691,20.032,45.54,44.957H139.161z"/>
		</g>
	</g>
	<g>
		<g>
			<path class="st3" d="M231.615,92.819h-93.828c-3.923,0-7.103,3.18-7.103,7.103v16.715c0,3.923,3.18,7.103,7.102,7.103h93.828     c3.923,0,7.103-3.18,7.103-7.103V99.921C238.718,95.999,235.538,92.819,231.615,92.819z"/>
		</g>
	</g>
	<g>
		<g>
			<path class="st0" d="M231.615,91.318h-93.828c-4.743,0-8.603,3.859-8.603,8.603v16.716c0,4.743,3.859,8.603,8.603,8.603h93.828     c4.743,0,8.603-3.859,8.603-8.603V99.921C240.218,95.178,236.358,91.318,231.615,91.318z M237.218,116.637     c0,3.089-2.514,5.603-5.603,5.603h-93.828c-3.089,0-5.603-2.514-5.603-5.603V99.921c0-3.089,2.514-5.603,5.603-5.603h93.828     c3.089,0,5.603,2.514,5.603,5.603V116.637z"/>
		</g>
	</g>
	<g>
		<g>
			<path class="st1" d="M215.458,104.4h-61.515c-7.003,0-12.676,5.677-12.676,12.676v14.924c0,6.999,5.672,12.676,12.676,12.676     h19.416c4.526,0,8.71-2.419,10.978-6.34c0.224-0.39,0.624-0.59,1.024-0.59c0.395,0,0.79,0.2,1.019,0.59     c1.132,1.961,2.746,3.546,4.638,4.643c1.897,1.093,4.077,1.697,6.34,1.697h18.099c6.999,0,12.676-5.677,12.676-12.676v-14.924     C228.134,110.076,222.457,104.4,215.458,104.4z"/>
		</g>
	</g>
	<g>
		<g>
			<path class="st0" d="M215.459,102.899h-61.515c-7.816,0-14.176,6.359-14.176,14.176v14.924c0,7.816,6.359,14.176,14.176,14.176     h19.415c4.865,0,9.414-2.526,12-6.632c1.223,1.944,2.91,3.574,4.912,4.734c2.157,1.241,4.607,1.897,7.088,1.897h18.1     c7.816,0,14.175-6.359,14.175-14.176v-14.924C229.634,109.259,223.275,102.899,215.459,102.899z M226.634,131.999     c0,6.162-5.013,11.176-11.175,11.176h-18.1c-1.956,0-3.89-0.518-5.587-1.495c-1.7-0.985-3.114-2.401-4.099-4.107     c-0.489-0.831-1.354-1.328-2.312-1.328c-0.957,0-1.848,0.514-2.323,1.339c-1.994,3.449-5.703,5.592-9.68,5.592h-19.415     c-6.162,0-11.176-5.014-11.176-11.176v-14.924c0-6.162,5.014-11.176,11.176-11.176h61.515c6.162,0,11.175,5.014,11.175,11.176     V131.999z"/>
		</g>
	</g>
	<g>
		<g>
			<path class="st5" d="M215.457,112.297h-61.514c-2.635,0-4.779,2.144-4.779,4.779v14.923c0,2.635,2.144,4.779,4.779,4.779h19.417     c1.702,0,3.288-0.916,4.138-2.389l1.843-3.192c1.256-2.176,3.506-3.475,6.019-3.475c2.513,0,4.763,1.299,6.019,3.476l1.842,3.191     c0.851,1.474,2.437,2.39,4.138,2.39h18.098c2.635,0,4.779-2.144,4.779-4.779v-14.923     C220.235,114.44,218.091,112.297,215.457,112.297z"/>
		</g>
	</g>
	<g>
		<g>
			<path class="st0" d="M215.456,110.797h-61.514c-3.462,0-6.278,2.816-6.278,6.278v14.923c0,3.462,2.816,6.278,6.278,6.278h19.417     c2.236,0,4.319-1.203,5.437-3.139l1.843-3.191c0.985-1.707,2.749-2.726,4.72-2.726s3.735,1.019,4.721,2.726l1.842,3.19     c1.118,1.937,3.202,3.14,5.438,3.14h18.098c3.463,0,6.279-2.816,6.279-6.278v-14.923     C221.735,113.613,218.919,110.797,215.456,110.797z M218.735,131.998c0,1.808-1.471,3.278-3.279,3.278h-18.098     c-1.168,0-2.256-0.628-2.84-1.64l-1.842-3.19c-1.526-2.646-4.263-4.226-7.318-4.226s-5.791,1.58-7.317,4.226l-1.843,3.191     c-0.584,1.011-1.671,1.639-2.839,1.639h-19.417c-1.808,0-3.278-1.471-3.278-3.278v-14.923c0-1.808,1.471-3.278,3.278-3.278     h61.514c1.809,0,3.279,1.471,3.279,3.278V131.998z"/>
		</g>
	</g>
	<g>
		<g>
			<path class="st5" d="M184.701,57.363c-8.227,0-14.896,6.669-14.896,14.896c0,8.227,6.669,14.897,14.896,14.897     c8.227,0,14.897-6.669,14.897-14.897C199.598,64.032,192.928,57.363,184.701,57.363z"/>
		</g>
	</g>
	<g>
		<g>
			<path class="st0" d="M184.701,55.863c-9.041,0-16.396,7.355-16.396,16.396s7.355,16.396,16.396,16.396     s16.396-7.355,16.396-16.396S193.742,55.863,184.701,55.863z M184.701,85.656c-7.387,0-13.396-6.01-13.396-13.396     s6.01-13.396,13.396-13.396s13.396,6.01,13.396,13.396S192.088,85.656,184.701,85.656z"/>
		</g>
	</g>
	<g>
		<g>
			<path class="st2" d="M184.701,64.046c-4.536,0-8.214,3.677-8.214,8.214s3.677,8.214,8.214,8.214s8.214-3.678,8.214-8.214     S189.238,64.046,184.701,64.046z"/>
		</g>
	</g>
	<g>
		<g>
			<path class="st0" d="M184.701,62.546c-5.356,0-9.714,4.357-9.714,9.714s4.357,9.714,9.714,9.714s9.714-4.357,9.714-9.714     S190.058,62.546,184.701,62.546z M184.701,78.974c-3.702,0-6.714-3.012-6.714-6.714s3.012-6.714,6.714-6.714     s6.714,3.012,6.714,6.714S188.403,78.974,184.701,78.974z"/>
		</g>
	</g>
	<g>
		<g>
			<path class="st2" d="M154.839,197.362h-14.583v-9.477c-4.033,2.796-8.207,4.446-12.257,4.446c-3.885,0-7.984-1.666-12.001-4.495     h-0.247v9.527h-14.591c-12.19,0-22.072,9.881-22.072,22.072v20.001h97.821v-20.001     C176.911,207.243,167.029,197.362,154.839,197.362z"/>
		</g>
	</g>
	<g>
		<g>
			<path class="st0" d="M154.839,195.861h-13.082v-7.977c0-0.558-0.31-1.07-0.804-1.329s-1.092-0.223-1.551,0.097     c-4,2.772-7.837,4.178-11.402,4.178c-3.413,0-7.16-1.42-11.137-4.222c-0.253-0.178-0.555-0.273-0.864-0.273h-0.247     c-0.828,0-1.5,0.672-1.5,1.5v8.026H101.16c-12.997,0-23.571,10.574-23.571,23.572v20.001c0,0.828,0.672,1.5,1.5,1.5h97.821     c0.828,0,1.5-0.672,1.5-1.5v-20.001C178.41,206.436,167.836,195.861,154.839,195.861z M175.41,237.935H80.589v-18.501     c0-11.344,9.229-20.572,20.571-20.572h14.592c0.828,0,1.5-0.672,1.5-1.5v-6.917c3.736,2.248,7.343,3.386,10.748,3.386     c3.457,0,7.065-1.08,10.757-3.215v6.746c0,0.828,0.672,1.5,1.5,1.5h14.582c11.343,0,20.571,9.229,20.571,20.572V237.935z"/>
		</g>
	</g>
	<g>
		<g>
			<path class="st3" d="M79.086,219.43v20.01h13.201v-13.5c0-3.987,1.329-7.81,3.591-10.976c2.486-3.487,4.159-9.916,4.159-17.278     v-0.299C88.375,197.971,79.086,207.61,79.086,219.43z"/>
		</g>
	</g>
	<g>
		<g>
			<path class="st0" d="M101.072,196.302c-0.298-0.283-0.686-0.421-1.109-0.411c-12.548,0.626-22.377,10.966-22.377,23.539v20.011     c0,0.828,0.672,1.5,1.5,1.5h13.201c0.828,0,1.5-0.672,1.5-1.5v-13.5c0-3.578,1.146-7.071,3.313-10.104     c2.778-3.897,4.438-10.683,4.438-18.148v-0.299C101.538,196.978,101.369,196.585,101.072,196.302z M94.658,214.093     c-2.532,3.544-3.871,7.641-3.871,11.848v12H80.586V219.43c0-10.435,7.756-19.106,17.933-20.402     C98.337,205.272,96.893,210.96,94.658,214.093z"/>
		</g>
	</g>
	<g>
		<g>
			<path class="st3" d="M156.866,197.456v0.231c0,7.362,1.673,13.791,4.159,17.278c2.262,3.166,3.592,6.989,3.592,10.976v13.5     h12.297v-20.01C176.914,207.924,168.103,198.471,156.866,197.456z"/>
		</g>
	</g>
	<g>
		<g>
			<path class="st0" d="M157.001,195.961c-0.416-0.037-0.836,0.103-1.146,0.387c-0.312,0.284-0.488,0.687-0.488,1.107v0.232     c0,7.467,1.658,14.251,4.438,18.149c2.167,3.032,3.312,6.525,3.312,10.104v13.5c0,0.828,0.672,1.5,1.5,1.5h12.298     c0.828,0,1.5-0.672,1.5-1.5V219.43C178.414,207.153,169.209,197.064,157.001,195.961z M175.414,237.94h-9.298v-12     c0-4.207-1.339-8.304-3.87-11.847c-2.218-3.11-3.657-8.737-3.856-14.929c9.815,1.679,17.024,10.115,17.024,20.265V237.94z"/>
		</g>
	</g>
	<g>
		<g>
			<path class="st2" d="M128.001,99.931c-21.263,0-38.5,17.237-38.5,38.5s21.298,53.9,38.5,53.9c18.022,0,38.5-32.637,38.5-53.9     S149.264,99.931,128.001,99.931z"/>
		</g>
	</g>
	<g>
		<g>
			<path class="st0" d="M128.001,98.432c-22.056,0-40,17.944-40,40c0,10.405,5.006,24.114,13.065,35.776     c8.49,12.288,18.56,19.624,26.935,19.624c8.813,0,18.745-7.155,27.248-19.632c7.865-11.542,12.752-25.247,12.752-35.769     C168.001,116.376,150.057,98.432,128.001,98.432z M152.77,172.511c-7.818,11.472-17.078,18.321-24.769,18.321     c-16.33,0-37-32.489-37-52.4c0-20.402,16.598-37,37-37s37,16.598,37,37C165.001,148.383,160.314,161.44,152.77,172.511z"/>
		</g>
	</g>
	<g>
		<g>
			<path class="st4" d="M160.573,214.965c-2.486-3.487-4.159-9.916-4.159-17.278v-0.231c0.008-0.747,0.022-1.479,0.06-2.203     c0.112-2.158-1.501-3.972-3.517-3.972h-3.009c-1.732,0-3.196,1.359-3.479,3.196c-1.456,9.512-9.169,16.778-18.472,16.778     c-9.296,0-17.009-7.265-18.465-16.778c-0.284-1.837-1.747-3.196-3.479-3.196h-3.009c-2.023,0-3.629,1.814-3.517,3.972     c0.03,0.702,0.052,1.411,0.06,2.135v0.299c0,7.362-1.673,13.791-4.159,17.278c-2.262,3.166-3.591,6.989-3.591,10.976v13.5h72.329     v-13.5C164.164,221.954,162.835,218.13,160.573,214.965z"/>
		</g>
	</g>
	<g>
		<g>
			<path class="st0" d="M161.795,214.094c-2.394-3.357-3.881-9.644-3.881-16.406v-0.217c0.008-0.726,0.021-1.437,0.058-2.14     c0.077-1.486-0.453-2.943-1.456-3.999c-0.949-1.001-2.213-1.552-3.559-1.552h-3.009c-2.476,0-4.562,1.879-4.962,4.47     c-1.375,8.983-8.521,15.504-16.99,15.504c-8.465,0-15.607-6.521-16.982-15.506c-0.399-2.589-2.486-4.468-4.962-4.468h-3.009     c-1.348,0-2.611,0.551-3.561,1.55c-1.001,1.055-1.531,2.514-1.455,3.985c0.029,0.687,0.051,1.381,0.059,2.073v0.299     c0,6.763-1.487,13.049-3.88,16.405c-2.532,3.543-3.87,7.64-3.87,11.848v13.5c0,0.828,0.672,1.5,1.5,1.5h72.328     c0.828,0,1.5-0.672,1.5-1.5v-13.5C165.664,221.734,164.326,217.638,161.795,214.094z M162.664,237.94H93.336v-12     c0-3.579,1.145-7.072,3.312-10.104c2.778-3.897,4.438-10.683,4.438-18.148v-0.315c-0.008-0.74-0.031-1.464-0.062-2.197     c-0.035-0.67,0.196-1.318,0.634-1.779c0.377-0.396,0.868-0.615,1.385-0.615h3.009c0.985,0,1.825,0.81,1.997,1.923     c1.601,10.46,9.99,18.051,19.947,18.051c9.962,0,18.354-7.591,19.955-18.049c0.172-1.115,1.012-1.925,1.997-1.925h3.009     c0.515,0,1.006,0.219,1.383,0.617c0.438,0.462,0.671,1.109,0.636,1.778c-0.038,0.745-0.054,1.497-0.062,2.279v0.232     c0,7.466,1.659,14.251,4.438,18.149c2.166,3.032,3.312,6.526,3.312,10.104V237.94z"/>
		</g>
	</g>
	<g>
		<g>
			<path class="st3" d="M128,73.164c-25.95,0-46.994,21.458-47.067,47.957h94.134C174.994,94.622,153.95,73.164,128,73.164z"/>
		</g>
	</g>
	<g>
		<g>
			<path class="st0" d="M128,71.663c-26.705,0-48.492,22.185-48.567,49.453c-0.001,0.398,0.156,0.781,0.438,1.063     c0.282,0.282,0.664,0.44,1.062,0.44h94.135c0.398,0,0.78-0.158,1.062-0.44c0.281-0.282,0.438-0.665,0.438-1.063     C176.492,93.848,154.705,71.663,128,71.663z M82.46,119.62c0.849-24.925,20.978-44.957,45.54-44.957s44.691,20.032,45.54,44.957     H82.46z"/>
		</g>
	</g>
	<g>
		<g>
			<path class="st3" d="M174.914,121.121H81.086c-3.923,0-7.103,3.18-7.103,7.103v16.715c0,3.923,3.18,7.103,7.103,7.103h93.829     c3.923,0,7.103-3.18,7.103-7.103v-16.715C182.017,124.301,178.837,121.121,174.914,121.121z"/>
		</g>
	</g>
	<g>
		<g>
			<path class="st0" d="M174.914,119.62H81.086c-4.743,0-8.603,3.859-8.603,8.604v16.715c0,4.743,3.859,8.603,8.603,8.603h93.828     c4.743,0,8.603-3.859,8.603-8.603v-16.716C183.517,123.479,179.657,119.62,174.914,119.62z M180.517,144.938     c0,3.089-2.514,5.603-5.603,5.603H81.086c-3.089,0-5.603-2.514-5.603-5.603v-16.715c0-3.09,2.514-5.604,5.603-5.604h93.828     c3.089,0,5.603,2.514,5.603,5.603V144.938z"/>
		</g>
	</g>
	<g>
		<g>
			<path class="st1" d="M158.757,132.701H97.243c-7.003,0-12.676,5.677-12.676,12.676v14.924c0,6.999,5.672,12.676,12.676,12.676     h19.416c4.526,0,8.71-2.419,10.978-6.34c0.224-0.39,0.624-0.59,1.024-0.59c0.395,0,0.79,0.2,1.019,0.59     c1.132,1.96,2.746,3.545,4.638,4.643c1.897,1.092,4.077,1.697,6.34,1.697h18.099c6.999,0,12.676-5.677,12.676-12.676v-14.924     C171.433,138.378,165.756,132.701,158.757,132.701z"/>
		</g>
	</g>
	<g>
		<g>
			<path class="st0" d="M158.757,131.201h-7.188c-0.828,0-1.5,0.672-1.5,1.5s0.672,1.5,1.5,1.5h7.188     c6.162,0,11.176,5.014,11.176,11.176v14.924c0,6.162-5.014,11.176-11.176,11.176h-18.099c-1.957,0-3.891-0.518-5.587-1.495     c-1.7-0.985-3.114-2.401-4.099-4.107c-0.489-0.831-1.354-1.328-2.312-1.328c-0.957,0-1.848,0.514-2.323,1.339     c-1.994,3.449-5.703,5.592-9.68,5.592H97.243c-6.162,0-11.176-5.014-11.176-11.176v-14.924c0-6.162,5.014-11.176,11.176-11.176     h39.188c0.828,0,1.5-0.672,1.5-1.5s-0.672-1.5-1.5-1.5H97.243c-7.816,0-14.176,6.359-14.176,14.176v14.924     c0,7.816,6.359,14.176,14.176,14.176h19.415c4.865,0,9.414-2.526,12-6.632c1.223,1.944,2.91,3.573,4.911,4.734     c2.156,1.241,4.607,1.897,7.089,1.897h18.099c7.816,0,14.176-6.359,14.176-14.176v-14.924     C172.933,137.561,166.573,131.201,158.757,131.201z"/>
		</g>
	</g>
	<g>
		<g>
			<path class="st5" d="M158.755,140.598H97.241c-2.635,0-4.778,2.144-4.778,4.779V160.3c0,2.635,2.144,4.779,4.778,4.779h19.417     c1.702,0,3.287-0.916,4.138-2.389l1.843-3.192c1.256-2.176,3.506-3.475,6.019-3.475s4.763,1.299,6.019,3.476l1.842,3.191     c0.851,1.474,2.437,2.39,4.139,2.39h18.098c2.635,0,4.779-2.144,4.779-4.779v-14.923     C163.534,142.742,161.39,140.598,158.755,140.598z"/>
		</g>
	</g>
	<g>
		<g>
			<path class="st0" d="M158.755,139.099H97.241c-3.462,0-6.278,2.816-6.278,6.278V160.3c0,3.462,2.816,6.278,6.278,6.278h19.416     c2.236,0,4.32-1.203,5.438-3.139l1.843-3.191c0.985-1.707,2.75-2.726,4.72-2.726c1.971,0,3.735,1.019,4.721,2.726l1.842,3.19     c1.118,1.937,3.202,3.14,5.438,3.14h18.098c3.463,0,6.279-2.816,6.279-6.278v-14.923     C165.034,141.915,162.218,139.099,158.755,139.099z M162.034,160.3c0,1.808-1.471,3.278-3.279,3.278h-18.098     c-1.168,0-2.256-0.628-2.84-1.64l-1.842-3.19c-1.527-2.646-4.263-4.226-7.318-4.226c-3.055,0-5.79,1.58-7.317,4.226l-1.843,3.191     c-0.584,1.011-1.672,1.639-2.84,1.639H97.241c-1.808,0-3.278-1.471-3.278-3.278v-14.923c0-1.808,1.471-3.278,3.278-3.278h61.514     c1.809,0,3.279,1.471,3.279,3.278V160.3z"/>
		</g>
	</g>
	<g>
		<g>
			<path class="st5" d="M128,85.665c-8.227,0-14.897,6.669-14.897,14.897c0,8.227,6.669,14.896,14.897,14.896     s14.897-6.669,14.897-14.896C142.897,92.334,136.227,85.665,128,85.665z"/>
		</g>
	</g>
	<g>
		<g>
			<path class="st0" d="M128,84.165c-9.041,0-16.396,7.355-16.396,16.396s7.355,16.396,16.396,16.396s16.396-7.355,16.396-16.396     S137.041,84.165,128,84.165z M128,113.958c-7.387,0-13.396-6.01-13.396-13.396s6.01-13.396,13.396-13.396     s13.396,6.01,13.396,13.396S135.387,113.958,128,113.958z"/>
		</g>
	</g>
	<g>
		<g>
			<circle class="st2" cx="128" cy="100.562" r="8.214"/>
		</g>
	</g>
	<g>
		<g>
			<path class="st0" d="M128,90.848c-5.356,0-9.714,4.357-9.714,9.714s4.357,9.714,9.714,9.714s9.714-4.357,9.714-9.714     S133.356,90.848,128,90.848z M128,107.275c-3.702,0-6.714-3.012-6.714-6.714s3.012-6.714,6.714-6.714s6.714,3.012,6.714,6.714     S131.702,107.275,128,107.275z"/>
		</g>
	</g>
	<g>
		<g>
			<path class="st6" d="M128,18.06c-2.55,0-5.06,0.22-7.5,0.64c13.749,2.338,25.444,11.015,32.112,22.971     c1.163,2.086,0.238,4.724-1.949,5.681c-2.984,1.306-5.815,2.906-8.452,4.778c-1.8,3.11-4.59,5.58-7.93,6.97     c-1.15,1.25-2.24,2.56-3.25,3.92h15c5.92-7.96,14.14-14.04,23.63-17.21C162.56,29.49,146.55,18.06,128,18.06z"/>
		</g>
	</g>
	<g>
		<g>
			<path class="st6" d="M128.97,66.02c-1.16,1.82-2.21,3.72-3.13,5.7c0.72-0.04,1.44-0.06,2.16-0.06c4.19,0,8.27,0.55,12.15,1.58     c1.08-2.52,2.36-4.94,3.82-7.22H128.97z"/>
		</g>
	</g>
	<g>
		<g>
			<path class="st6" d="M71.3,46.36c-2.55,0-5.06,0.22-7.5,0.64c13.749,2.338,25.444,11.015,32.111,22.97     c1.163,2.085,0.239,4.722-1.948,5.68c-2.976,1.304-5.801,2.906-8.443,4.77c-1.8,3.13-4.6,5.6-7.96,7     c-1.16,1.24-2.23,2.54-3.24,3.9h15c5.93-7.96,14.15-14.04,23.64-17.21C105.86,57.79,89.85,46.36,71.3,46.36z"/>
		</g>
	</g>
	<g>
		<g>
			<path class="st6" d="M72.27,94.32c-1.72,2.69-3.18,5.56-4.37,8.58h15c1.19-3.02,2.65-5.89,4.37-8.58H72.27z"/>
		</g>
	</g>
	<g>
		<g>
			<path class="st6" d="M184.7,46.36c-2.55,0-5.06,0.22-7.5,0.64c21.04,3.58,37.28,21.98,38.04,44.32h15     C229.39,66.39,209.26,46.36,184.7,46.36z"/>
		</g>
	</g>
	<g>
		<g>
			<path class="st6" d="M231.62,94.32h-15c3.08,0,5.6,2.51,5.6,5.6v4.7c4.41,2.4,7.41,7.09,7.41,12.46v5.16h1.99     c3.08,0,5.6-2.51,5.6-5.6V99.92C237.22,96.83,234.7,94.32,231.62,94.32z"/>
		</g>
	</g>
	<g>
		<g>
			<path class="st6" d="M128,74.66c-2.55,0-5.06,0.22-7.5,0.64c21.04,3.58,37.28,21.99,38.04,44.32h15     C172.69,94.7,152.56,74.66,128,74.66z"/>
		</g>
	</g>
	<g>
		<g>
			<path class="st6" d="M174.91,122.62h-15c3.09,0,5.61,2.51,5.61,5.6v4.7c4.41,2.4,7.41,7.09,7.41,12.46v5.16h1.98     c3.09,0,5.61-2.51,5.61-5.6v-16.72C180.52,125.13,178,122.62,174.91,122.62z"/>
		</g>
	</g>
	<g>
		<g>
			<path class="st1" d="M164.858,225.939H91.142c-1.034,0-1.872,0.838-1.872,1.872v4.938c0,1.034,0.838,1.872,1.872,1.872h73.715     c1.034,0,1.872-0.838,1.872-1.872v-4.938C166.729,226.777,165.891,225.939,164.858,225.939z"/>
		</g>
	</g>
	<g>
		<g>
			<path class="st0" d="M164.857,224.439H91.143c-1.859,0-3.372,1.513-3.372,3.371v4.938c0,1.859,1.513,3.372,3.372,3.372h73.715     c1.859,0,3.372-1.513,3.372-3.372v-4.938C168.229,225.952,166.717,224.439,164.857,224.439z M165.229,232.749     c0,0.205-0.167,0.372-0.372,0.372H91.143c-0.205,0-0.372-0.167-0.372-0.372v-4.938c0-0.205,0.167-0.371,0.372-0.371h73.715     c0.205,0,0.372,0.166,0.372,0.371V232.749z"/>
		</g>
	</g>
	<g>
		<g>
			<path class="st2" d="M150.008,239.037l-4.458-13.731c-1.456-4.48-5.63-7.512-10.334-7.512h-14.433     c-4.711,0-8.878,3.032-10.334,7.512l-4.458,13.731c-0.045,0.134-0.082,0.269-0.119,0.403h44.254     C150.09,239.306,150.052,239.171,150.008,239.037z"/>
		</g>
	</g>
	<g>
		<g>
			<path class="st0" d="M151.573,239.042c-0.044-0.16-0.089-0.319-0.139-0.468l-4.458-13.732c-1.662-5.112-6.388-8.547-11.76-8.547     h-14.434c-5.373,0-10.099,3.435-11.76,8.548l-4.454,13.72c-0.054,0.16-0.099,0.319-0.143,0.479     c-0.124,0.451-0.03,0.936,0.253,1.308c0.284,0.372,0.726,0.591,1.193,0.591h44.254c0.468,0,0.909-0.219,1.193-0.591     C151.604,239.978,151.697,239.493,151.573,239.042z M107.926,237.94l3.951-12.171c1.258-3.873,4.837-6.475,8.906-6.475h14.434     c4.068,0,7.647,2.602,8.906,6.474l3.952,12.172H107.926z"/>
		</g>
	</g>
	<g>
		<g>
			<path class="st1" d="M142.78,236.685l-1.702-5.234c-1.448-4.473-5.622-7.504-10.326-7.504h-5.503     c-4.704,0-8.878,3.031-10.326,7.504l-1.702,5.234c-0.291,0.903-0.463,1.829-0.515,2.755h30.591     C143.243,238.514,143.071,237.596,142.78,236.685z"/>
		</g>
	</g>
	<g>
		<g>
			<path class="st0" d="M144.207,236.222l-1.702-5.232c-1.655-5.109-6.379-8.542-11.754-8.542h-5.502     c-5.375,0-10.099,3.433-11.754,8.54l-1.703,5.238c-0.329,1.021-0.525,2.074-0.585,3.131c-0.022,0.412,0.125,0.815,0.408,1.114     c0.283,0.3,0.678,0.47,1.09,0.47h30.59c0.412,0,0.807-0.17,1.09-0.47c0.283-0.299,0.431-0.702,0.408-1.114     C144.734,238.309,144.538,237.257,144.207,236.222z M114.429,237.94c0.061-0.267,0.134-0.53,0.218-0.791l1.702-5.236     c1.253-3.867,4.83-6.466,8.9-6.466h5.502c4.07,0,7.647,2.599,8.9,6.468l1.7,5.228c0.085,0.265,0.157,0.53,0.219,0.798H114.429z"/>
		</g>
	</g>
</g>
</svg>
