<?xml version="1.0" encoding="utf-8"?>
<!-- Svg Vector Icons : http://www.onlinewebfonts.com/icon -->
<!DOCTYPE svg PUBLIC "-//W3C//DTD SVG 1.1//EN" "http://www.w3.org/Graphics/SVG/1.1/DTD/svg11.dtd">
<svg version="1.1" xmlns="http://www.w3.org/2000/svg" xmlns:xlink="http://www.w3.org/1999/xlink" x="0px" y="0px" viewBox="0 0 1000 1000" enable-background="new 0 0 1000 1000" xml:space="preserve">
<metadata> Svg Vector Icons : http://www.onlinewebfonts.com/icon </metadata>
<g><g><path d="M469.4,250.3c0,23.6-3.7,45.8-11.2,66.8c-7.5,21-19.8,39.2-37.1,54.5c-17.3,15.3-37.9,23-61.8,23c-29.8,0-56.9-11.3-81.3-33.9c-24.3-22.6-42.4-49.2-54.2-79.8c-11.8-30.6-17.7-60.3-17.7-88.9c0-23.6,3.7-45.8,11.2-66.8c7.5-21,19.8-39.2,37.1-54.5c17.3-15.3,37.9-23,61.8-23c30.2,0,57.4,11.3,81.6,33.9c24.1,22.6,42.1,49.1,53.9,79.5C463.5,191.5,469.4,221.2,469.4,250.3L469.4,250.3z M268,534.7c0,31.4-8.2,58.7-24.7,81.9c-16.5,23.2-39.9,34.7-70.1,34.7c-29.8,0-57.6-10.9-83.3-32.7s-45.4-48-59.2-78.6S10,479.6,10,450.5c0-31.4,8.2-58.8,24.7-82.2c16.5-23.4,39.9-35,70.1-35c29.8,0,57.6,10.9,83.3,32.7s45.4,48.1,59.2,78.9C261.1,475.8,268,505.7,268,534.7z M500,518.8c46.3,0,96.4,19.1,150.2,57.4c53.8,38.3,98.7,84.8,134.9,139.6c36.1,54.8,54.2,104.7,54.2,149.9c0,18.1-3.3,33.1-10,45.1c-6.7,12-16.2,20.8-28.6,26.5c-12.4,5.7-25,9.6-38,11.8c-13,2.2-27.9,3.2-44.8,3.2c-26.7,0-63.5-8.8-110.4-26.5c-46.9-17.7-82.7-26.5-107.5-26.5c-25.9,0-63.7,8.7-113.4,26.2s-89,26.2-118.1,26.2c-71.9,0-107.8-28.7-107.8-86c0-33.8,11-71.4,33-112.8s49.4-79.2,82.2-113.4c32.8-34.2,69.6-62.8,110.4-86C427.2,530.4,465.1,518.8,500,518.8L500,518.8z M640.8,394.6c-24,0-44.6-7.7-61.8-23s-29.6-33.5-37.1-54.5c-7.5-21-11.2-43.3-11.2-66.8c0-29.1,5.9-58.8,17.7-89.2c11.8-30.4,29.7-56.9,53.9-79.5c24.1-22.6,51.3-33.9,81.6-33.9c24,0,44.6,7.7,61.8,23c17.3,15.3,29.6,33.5,37.1,54.5c7.5,21,11.2,43.3,11.2,66.8c0,28.7-5.9,58.3-17.7,88.9c-11.8,30.6-29.8,57.2-54.2,79.8C697.7,383.3,670.6,394.6,640.8,394.6L640.8,394.6z M895.2,333.3c30.2,0,53.6,11.7,70.1,35c16.5,23.4,24.7,50.7,24.7,82.2c0,29.1-6.9,58.9-20.6,89.5c-13.7,30.6-33.5,56.8-59.2,78.6c-25.7,21.8-53.5,32.7-83.3,32.7c-30.2,0-53.6-11.6-70.1-34.7c-16.5-23.2-24.7-50.5-24.7-81.9c0-29.1,6.9-59,20.6-89.8c13.7-30.8,33.5-57.1,59.2-78.9C837.6,344.2,865.3,333.3,895.2,333.3z"/></g></g>
</svg>