<svg id="Layer_1" enable-background="new 0 0 256 256" height="512" viewBox="0 0 256 256" width="512" xmlns="http://www.w3.org/2000/svg"><g><g><g><g><g><g><path d="m155.434 157.461h-97.552c-13.469 0-24.388 10.919-24.388 24.388v43.151 23.236h146.328v-23.236-43.151c0-13.469-10.919-24.388-24.388-24.388z" fill="#e0ebfc"/></g></g></g></g><g><g><g><g><path d="m131.02 175.436h-22.453l-1.909 2.115-1.909-2.115h-22.477v72.801h48.748z" fill="#a4c9ff"/></g></g></g></g><g><g><g><g><path d="m82.272 139.613-.001 10.91 24.387 27.028 24.386-27.028-.047-10.91z" fill="#f9cfcf"/></g></g></g></g><g><g><g><g><path d="m179.822 250.237h-146.328c-1.104 0-2-.896-2-2v-66.387c0-14.551 11.838-26.389 26.388-26.389h22.39v-15.848c0-1.104.896-2 2-2h48.725c1.104 0 2 .896 2 2v15.848h22.437c14.55 0 26.388 11.838 26.388 26.389v66.388c0 1.104-.895 1.999-2 1.999zm-144.328-4h142.328v-64.387c0-12.345-10.043-22.389-22.388-22.389h-24.437c-1.104 0-2-.896-2-2v-15.848h-44.725v15.848c0 1.104-.896 2-2 2h-24.39c-12.345 0-22.388 10.044-22.388 22.389z" fill="#3762cc"/></g></g></g></g><g><g><g><g><path d="m131.021 248.237v-90.776h24.39l-7.975 43.738h5.419c1.319 0 2.304 1.212 2.035 2.503l-9.273 44.535z" fill="#e0ebfc"/></g></g></g></g><g><g><g><g><path d="m145.616 250.237h-14.596c-1.104 0-2-.896-2-2v-90.776c0-1.104.896-2 2-2h24.39c.593 0 1.156.264 1.536.719.38.456.539 1.057.432 1.64l-7.545 41.38h3.021c1.233 0 2.387.549 3.165 1.506s1.08 2.198.828 3.405l-9.273 44.534c-.193.927-1.011 1.592-1.958 1.592zm-12.595-4h10.969l8.941-42.942-.077-.096h-5.418c-.593 0-1.156-.264-1.536-.719-.38-.456-.539-1.057-.432-1.64l7.545-41.38h-19.993v86.777z" fill="#3762cc"/></g></g></g></g><g><g><g><g><path d="m106.658 131.681c-34.033 0-61.622-27.589-61.622-61.622v-18.159c0-7.463 6.05-13.514 13.514-13.514h109.73v31.673c0 34.033-27.589 61.622-61.622 61.622z" fill="#4671c6"/></g></g></g></g><g><g><g><g><path d="m106.658 133.682c-35.082 0-63.622-28.541-63.622-63.622v-18.16c0-8.555 6.959-15.514 15.514-15.514h109.73c1.104 0 2 .896 2 2v31.674c0 35.081-28.54 63.622-63.622 63.622zm-48.108-93.296c-6.349 0-11.514 5.165-11.514 11.514v18.16c0 32.876 26.747 59.622 59.622 59.622s59.622-26.746 59.622-59.622v-29.674z" fill="#3762cc"/></g></g></g></g><g><g><g><g><path d="m159.142 80.078v-4.914c0-28.725-23.498-52.011-52.484-52.011-28.986 0-52.484 23.286-52.484 52.011v4.914c-9.113-.185-16.344 7.075-16.344 15.851 0 9.371 8.181 16.783 17.73 15.774 5.416 23.011 26.231 40.155 51.098 40.155 24.868 0 45.682-17.146 51.098-40.155 9.536 1.008 17.73-6.39 17.73-15.774 0-8.78-7.236-16.036-16.344-15.851z" fill="#f9cfcf"/></g></g></g></g><g><g><g><g><path d="m106.651 126.926c-2.13 0-3.988-.25-5.679-.765-2.806-.853-5.267-2.289-7.115-4.152-.778-.784-.772-2.051.012-2.828.784-.778 2.05-.772 2.828.012 1.383 1.395 3.264 2.481 5.438 3.143 1.308.397 2.785.591 4.515.591s3.208-.193 4.515-.591c2.174-.661 4.055-1.748 5.439-3.143.778-.784 2.044-.79 2.829-.012s.789 2.044.011 2.828c-1.849 1.864-4.309 3.3-7.115 4.152-1.689.515-3.547.765-5.678.765z" fill="#3762cc"/></g></g></g></g><g><g><g><g><path d="m133.906 106.737c-3.664 0-6.634-2.97-6.634-6.634v-7.076c0-3.664 2.97-6.634 6.634-6.634 3.664 0 6.634 2.97 6.634 6.634v7.076c0 3.664-2.97 6.634-6.634 6.634z" fill="#3762cc"/></g></g></g></g><g><g><g><g><path d="m79.397 106.737c-3.664 0-6.634-2.97-6.634-6.634v-7.076c0-3.664 2.97-6.634 6.634-6.634 3.664 0 6.634 2.97 6.634 6.634v7.076c0 3.664-2.97 6.634-6.634 6.634z" fill="#3762cc"/></g></g></g></g><g><g><g><g><path d="m106.658 153.857c-24.886 0-46.292-16.39-52.634-40.066-4.491.052-8.916-1.598-12.28-4.626-3.758-3.381-5.913-8.206-5.913-13.236 0-4.815 1.903-9.332 5.357-12.717 2.995-2.935 6.838-4.693 10.986-5.063v-2.985c0-29.781 24.441-54.011 54.484-54.011s54.484 24.229 54.484 54.011v2.985c4.149.369 7.991 2.129 10.986 5.063 3.455 3.385 5.357 7.901 5.357 12.717 0 5.03-2.155 9.854-5.912 13.235-3.366 3.027-7.797 4.653-12.282 4.627-6.341 23.677-27.747 40.066-52.633 40.066zm-51.096-44.155c.918 0 1.731.631 1.945 1.542 5.352 22.734 25.563 38.613 49.151 38.613s43.799-15.879 49.151-38.613c.231-.98 1.153-1.627 2.157-1.531 3.994.425 7.975-.861 10.932-3.522 2.916-2.623 4.587-6.363 4.587-10.262 0-3.731-1.476-7.233-4.157-9.859-2.636-2.583-6.122-3.995-9.845-3.995-.101 0-.2.001-.301.004-.518-.004-1.056-.195-1.44-.571s-.6-.892-.6-1.429v-4.915c0-27.576-22.647-50.011-50.484-50.011s-50.484 22.434-50.484 50.01v4.915c0 .537-.216 1.053-.6 1.429s-.921.563-1.44.571c-3.854-.095-7.44 1.339-10.146 3.99-2.681 2.627-4.157 6.129-4.157 9.86 0 3.898 1.672 7.639 4.588 10.263 2.957 2.66 6.946 3.938 10.931 3.521.071-.006.142-.01.212-.01z" fill="#3762cc"/></g></g></g></g><g><g><g><g><path d="m82.272 248.237v-90.776h-24.39l7.975 43.738h-5.419c-1.319 0-2.304 1.212-2.035 2.503l9.273 44.535z" fill="#e0ebfc"/></g></g></g></g><g><g><g><g><path d="m113.155 201.199h-6.497-6.497l-4.883 47.038h11.38 11.381z" fill="#f9a7a7"/></g></g></g></g><g><g><g><g><path d="m82.271 150.523 24.386 27.027-10.315 13.41c-.925 1.203-2.756 1.148-3.608-.107l-22.658-33.392z" fill="#a4c9ff"/></g></g></g></g><g><g><g><g><path d="m94.576 193.83c-.042 0-.083 0-.125-.002-1.352-.04-2.613-.732-3.373-1.852l-22.658-33.392c-.313-.462-.419-1.033-.293-1.576.126-.544.474-1.01.958-1.285l12.195-6.938c.817-.466 1.846-.299 2.474.398l24.386 27.027c.647.717.689 1.794.101 2.56l-10.315 13.41c-.798 1.04-2.043 1.65-3.35 1.65zm-21.63-35.7 21.443 31.601c.017.024.065.097.181.1.138-.007.169-.065.187-.089l9.299-12.089-22.193-24.596z" fill="#3762cc"/></g></g></g></g><g><g><g><g><path d="m118.039 250.237h-22.761c-.566 0-1.106-.24-1.485-.661-.379-.42-.563-.982-.504-1.545l4.883-47.038c.106-1.02.965-1.794 1.989-1.794h12.994c1.024 0 1.883.774 1.989 1.794l4.883 47.038c.059.563-.125 1.125-.504 1.545-.378.421-.918.661-1.484.661zm-20.543-4h18.324l-4.468-43.038h-9.388z" fill="#3762cc"/></g></g></g></g><g><g><g><g><path d="m168.28 67.362h-81.979c-16.458 0-29.799-13.342-29.799-29.799 0-16.458 13.342-29.799 29.799-29.799h52.18c16.458 0 29.799 13.342 29.799 29.799z" fill="#4671c6"/></g></g></g></g><g><g><g><g><path d="m168.28 69.361h-81.979c-17.534 0-31.799-14.265-31.799-31.799s14.265-31.8 31.799-31.8h52.18c17.534 0 31.799 14.266 31.799 31.8v29.799c0 1.105-.895 2-2 2zm-81.979-59.598c-15.329 0-27.799 12.471-27.799 27.8 0 15.328 12.471 27.799 27.799 27.799h79.979v-27.799c0-15.329-12.471-27.8-27.799-27.8z" fill="#3762cc"/></g></g></g></g><g><g><g><g><path d="m90.182 112.209h-21.57c-4.542 0-8.237-3.695-8.237-8.237v-17.932c0-2.822 2.296-5.118 5.119-5.118h30.926c1.104 0 2 .896 2 2v21.05c-.001 4.542-3.696 8.237-8.238 8.237zm-24.688-27.287c-.617 0-1.119.502-1.119 1.118v17.932c0 2.337 1.901 4.237 4.237 4.237h21.57c2.336 0 4.237-1.9 4.237-4.237v-19.05z" fill="#3762cc"/></g></g></g></g><g><g><g><g><path d="m144.691 112.209h-21.57c-4.542 0-8.237-3.695-8.237-8.237v-21.05c0-1.104.896-2 2-2h30.926c2.822 0 5.118 2.296 5.118 5.118v17.932c0 4.542-3.695 8.237-8.237 8.237zm-25.807-27.287v19.05c0 2.337 1.901 4.237 4.237 4.237h21.57c2.336 0 4.237-1.9 4.237-4.237v-17.932c0-.616-.501-1.118-1.118-1.118z" fill="#3762cc"/></g></g></g></g><g><g><g><g><path d="m116.884 84.922h-20.465c-1.104 0-2-.896-2-2s.896-2 2-2h20.464c1.104 0 2 .896 2 2s-.895 2-1.999 2z" fill="#3762cc"/></g></g></g></g><g><g><g><g><path d="m131.044 150.523-24.386 27.027 10.315 13.41c.925 1.203 2.756 1.148 3.608-.107l22.658-33.392z" fill="#a4c9ff"/></g></g></g></g><g><g><g><g><path d="m118.738 193.83c-1.307 0-2.552-.61-3.351-1.65l-10.315-13.409c-.588-.766-.546-1.843.101-2.56l24.386-27.027c.628-.697 1.658-.864 2.474-.398l12.195 6.938c.485.275.832.741.958 1.285.126.543.021 1.114-.293 1.576l-22.658 33.392c-.759 1.119-2.021 1.812-3.373 1.852-.041.001-.082.001-.124.001zm-9.479-16.178 9.299 12.089c.018.024.103.104.186.089.116-.003.165-.075.181-.1l21.443-31.601-8.917-5.073z" fill="#3762cc"/></g></g></g></g><g><g><g><g><path d="m97.563 189.375 9.095-11.824 9.095 11.824-2.598 11.824h-12.994z" fill="#f9a7a7"/></g></g></g></g><g><g><g><g><path d="m113.155 203.199h-12.994c-.939 0-1.752-.653-1.954-1.57l-2.599-11.824c-.126-.577.008-1.181.368-1.649l9.096-11.824c.379-.492.964-.78 1.585-.78.621 0 1.207.288 1.585.78l9.095 11.824c.36.469.495 1.072.368 1.649l-2.599 11.824c-.199.917-1.012 1.57-1.951 1.57zm-11.385-4h9.777l2.054-9.344-6.942-9.024-6.942 9.024z" fill="#3762cc"/></g></g></g></g><path d="m82.272 155.461h-24.39c-.593 0-1.156.264-1.536.719-.38.456-.539 1.057-.432 1.64l7.545 41.38h-3.021c-1.233 0-2.386.549-3.165 1.505-.778.957-1.081 2.198-.829 3.405l9.273 44.535c.193.928 1.011 1.593 1.958 1.593h14.596c1.104 0 2-.896 2-2v-90.776c.001-1.106-.895-2.001-1.999-2.001zm-2 90.776h-10.969c-.023-.112-8.935-42.903-8.954-43.016.14-.035 5.364-.022 5.508-.022.593 0 1.156-.264 1.536-.719.38-.456.539-1.057.432-1.64l-7.545-41.38h19.992z" fill="#3762cc"/></g><g><g><g><g><g><g><path d="m154.387 181.785c-4.046 1.084-8.09 2.168-12.132 3.251l10.045 42.734c3.186-.854 11.532-3.09 14.755-3.954z" fill="#a4c9ff"/></g></g></g></g><g><g><g><g><path d="m152.3 229.771c-.358 0-.713-.097-1.026-.283-.465-.278-.797-.732-.92-1.259l-10.045-42.734c-.248-1.052.385-2.11 1.429-2.39l12.132-3.251c1.045-.282 2.12.319 2.433 1.354l12.668 42.031c.156.519.096 1.077-.168 1.551-.263.473-.707.818-1.229.958l-14.754 3.954c-.172.046-.346.069-.52.069zm-7.654-43.305 9.129 38.839 10.77-2.886-11.513-38.2z" fill="#3762cc"/></g></g></g></g><g><g><g><g><path d="m153.767 184.06-9.837 2.636c-2.037.546-4.131-.663-4.677-2.7-.546-2.037.663-4.131 2.7-4.677l9.837-2.636c2.037-.546 4.131.663 4.677 2.7.546 2.037-.663 4.131-2.7 4.677z" fill="#e0ebfc"/></g></g></g></g><g><g><g><g><path d="m142.943 188.826c-2.569 0-4.926-1.717-5.622-4.313-.831-3.099 1.015-6.296 4.114-7.126l9.837-2.636c3.099-.829 6.296 1.015 7.126 4.114.402 1.501.196 3.069-.581 4.415s-2.032 2.309-3.534 2.711l-9.836 2.636c-.502.135-1.007.199-1.504.199zm9.835-10.273c-.156 0-.313.02-.471.062l-9.837 2.636c-.969.26-1.545 1.259-1.286 2.228.26.969 1.261 1.547 2.228 1.286l9.836-2.636c.469-.126.862-.427 1.105-.848s.307-.91.182-1.38c-.217-.812-.954-1.348-1.757-1.348z" fill="#3762cc"/></g></g></g></g><g><g><g><g><path d="m180.09 201.156h-38.981l2.013 17.164c.775 6.609 3.474 12.934 7.84 18.372 2.561 3.189 5.877 5.859 9.723 7.828 4.757 2.435 10.169 3.718 15.681 3.718h3.725 3.725c5.512 0 10.924-1.283 15.681-3.718 3.846-1.969 7.162-4.639 9.723-7.828 4.366-5.437 7.065-11.762 7.84-18.372l2.013-17.164z" fill="#e0ebfc"/></g></g></g></g><g><g><g><g><path d="m193.1 219.764h-8.487v-8.487c0-.458-.372-.83-.83-.83h-7.386c-.459 0-.83.372-.83.83v8.487h-8.487c-.459 0-.83.372-.83.831v7.386c0 .458.372.83.83.83h8.487v8.487c0 .458.372.831.83.831h7.386c.459 0 .83-.372.83-.831v-8.487h8.487c.459 0 .83-.372.83-.83v-7.386c0-.46-.372-.831-.83-.831z" fill="#f9a7a7"/></g></g></g></g><g><g><g><g><path d="m183.814 250.237h-7.45c-5.822 0-11.56-1.362-16.592-3.938-4.125-2.112-7.614-4.923-10.371-8.355-4.591-5.718-7.45-12.424-8.267-19.392l-2.013-17.163c-.066-.567.112-1.136.492-1.563.379-.427.923-.671 1.494-.671h77.962c.571 0 1.115.244 1.494.671.38.427.559.995.492 1.563l-2.013 17.164c-.817 6.968-3.676 13.673-8.267 19.391-2.756 3.433-6.246 6.243-10.371 8.355-5.029 2.576-10.767 3.938-16.59 3.938zm-40.457-47.082 1.751 14.931c.729 6.221 3.293 12.222 7.413 17.354 2.367 2.947 5.505 5.472 9.075 7.299 4.471 2.289 9.578 3.499 14.769 3.499h7.45c5.191 0 10.298-1.21 14.769-3.499 3.569-1.827 6.708-4.352 9.075-7.299 4.12-5.132 6.684-11.133 7.414-17.354l1.751-14.931z" fill="#3762cc"/></g></g></g></g><g><g><g><g><path d="m221.068 204.75h-81.957c-.794 0-1.438-.644-1.438-1.438v-4.314c0-.794.644-1.438 1.438-1.438h81.957c.794 0 1.438.644 1.438 1.438v4.314c0 .795-.644 1.438-1.438 1.438z" fill="#e0ebfc"/></g></g></g></g><g><g><g><g><path d="m221.068 206.75h-81.957c-1.896 0-3.438-1.542-3.438-3.438v-4.313c0-1.896 1.542-3.438 3.438-3.438h81.957c1.896 0 3.438 1.542 3.438 3.438v4.313c0 1.896-1.543 3.438-3.438 3.438zm-81.395-4h80.833v-3.188h-80.833z" fill="#3762cc"/></g></g></g></g></g></g></g></svg>