<svg id="Capa_1" enable-background="new 0 0 495 495" height="512" viewBox="0 0 495 495" width="512" xmlns="http://www.w3.org/2000/svg"><g><path d="m403.108 17.751c-34.275-18.773-40.565 26.469-75.105 22.047-36.854-4.718-30.953-39.798-68.982-39.798s-32.129 35.08-68.983 39.798c-34.54 4.422-40.83-40.82-75.105-22.047-43.483 23.816 34.181 113.765 34.181 113.765l110.072 12.292 112.371-12.292c-.001 0 75.035-89.949 31.551-113.765z" fill="#d6694b"/><g><path d="m403.108 17.751c-12.974-7.106-21.937-5.037-29.941.035 43.352 23.867-31.611 113.73-31.611 113.73l-97.216 10.634 14.845 1.658 112.371-12.292s75.036-89.949 31.552-113.765z" fill="#c4573a"/></g><path d="m141.15 161.603c-39.059 34.417-66.178 89.428-66.178 145.58 0 103.728 84.089 187.817 187.817 187.817 103.729 0 187.817-84.089 187.817-187.817 0-56.152-29.934-111.163-68.993-145.58" fill="#d6694b"/><path d="m381.613 161.603h-30c39.059 34.417 68.993 89.428 68.993 145.58 0 98.679-76.103 179.578-172.817 187.221 4.949.391 9.95.596 15 .596 103.729 0 187.817-84.089 187.817-187.817.001-56.152-29.933-111.163-68.993-145.58z" fill="#c4573a"/><circle cx="257.08" cy="426.575" fill="#e8b800" r="68.425"/><circle cx="112.818" cy="426.575" fill="#e8b800" r="68.425"/><circle cx="257.08" cy="426.575" fill="#fed402" r="39.31"/><circle cx="112.818" cy="426.575" fill="#fed402" r="39.31"/><circle cx="181.244" cy="426.575" fill="#e8b800" r="68.425"/><circle cx="181.244" cy="426.575" fill="#fed402" r="39.31"/><g fill="#a74b30"><path d="m148.653 210.878c-.795 0-1.603-.127-2.398-.396-3.925-1.324-6.034-5.579-4.709-9.503 5.464-16.201 17.879-38.292 45.992-51.538 3.747-1.766 8.215-.159 9.981 3.588s.159 8.216-3.588 9.981c-23.337 10.995-33.639 29.323-38.172 42.762-1.056 3.131-3.976 5.106-7.106 5.106z"/><path d="m217.101 193.236c-.815 0-1.644-.134-2.457-.416-3.914-1.357-5.986-5.629-4.63-9.543 4.127-11.905 10.883-22.761 20.081-32.267 2.88-2.977 7.628-3.055 10.605-.175s3.055 7.628.175 10.605c-7.667 7.924-13.283 16.924-16.688 26.75-1.075 3.101-3.979 5.046-7.086 5.046z"/><path d="m376.925 210.878c-3.13 0-6.05-1.975-7.105-5.105-4.533-13.439-14.836-31.768-38.172-42.762-3.747-1.765-5.354-6.234-3.589-9.981 1.767-3.748 6.234-5.354 9.981-3.588 28.112 13.244 40.527 35.336 45.992 51.538 1.324 3.925-.784 8.18-4.709 9.503-.794.267-1.603.395-2.398.395z"/><path d="m308.478 193.236c-3.107 0-6.012-1.945-7.086-5.045-3.406-9.825-9.021-18.825-16.688-26.75-2.881-2.977-2.803-7.725.175-10.605 2.977-2.879 7.726-2.802 10.604.175 9.198 9.507 15.955 20.363 20.081 32.267 1.357 3.914-.716 8.186-4.629 9.543-.813.282-1.643.415-2.457.415z"/><path d="m207.381 139.226c-2.15 0-4.285-.92-5.768-2.702-.603-.724-14.903-17.982-27.196-39.537-2.052-3.598-.799-8.179 2.799-10.23 3.598-2.053 8.178-.799 10.231 2.799 11.645 20.418 25.556 37.205 25.695 37.372 2.65 3.184 2.218 7.913-.966 10.563-1.403 1.166-3.104 1.735-4.795 1.735z"/><path d="m259.015 135.235c-3.289 0-6.307-2.181-7.225-5.505-2.564-9.285-4.617-18.287-6.101-26.757-.714-4.08 2.014-7.967 6.094-8.682 4.084-.714 7.967 2.014 8.682 6.094 1.401 7.999 3.347 16.528 5.784 25.352 1.104 3.993-1.239 8.123-5.232 9.226-.669.184-1.341.272-2.002.272z"/><path d="m310.662 139.226c-1.691 0-3.392-.569-4.793-1.735-3.184-2.649-3.617-7.377-.97-10.562.14-.168 14.082-17.01 25.696-37.374 2.052-3.598 6.632-4.852 10.23-2.799 3.598 2.052 4.852 6.632 2.799 10.23-12.293 21.555-26.593 38.812-27.195 39.536-1.483 1.783-3.617 2.704-5.767 2.704z"/><path d="m371.881 166.226h-218.183c-10.698 0-19.45-8.753-19.45-19.45v-.6c0-10.698 8.753-19.45 19.45-19.45h218.184c10.698 0 19.45 8.753 19.45 19.45v.6c-.001 10.698-8.753 19.45-19.451 19.45z"/></g></g></svg>