<?xml version="1.0" encoding="UTF-8" standalone="no" ?>
<!DOCTYPE svg PUBLIC "-//W3C//DTD SVG 1.1//EN" "http://www.w3.org/Graphics/SVG/1.1/DTD/svg11.dtd">
<svg xmlns="http://www.w3.org/2000/svg" xmlns:xlink="http://www.w3.org/1999/xlink" version="1.1" width="720" height="720" viewBox="0 0 720 720" xml:space="preserve">
<desc>Created with Fabric.js 4.2.0</desc>
<defs>
</defs>
<rect x="0" y="0" width="100%" height="100%" fill="transparent"></rect>
<g transform="matrix(1 0 0 1 360 360)" id="1b611884-6b14-41d1-85aa-cb9b3af04acb"  >
<rect style="stroke: none; stroke-width: 1; stroke-dasharray: none; stroke-linecap: butt; stroke-dashoffset: 0; stroke-linejoin: miter; stroke-miterlimit: 4; fill: rgb(255,255,255); fill-opacity: 0; fill-rule: nonzero; opacity: 1;" vector-effect="non-scaling-stroke"  x="-360" y="-360" rx="0" ry="0" width="720" height="720" />
</g>
<g transform="matrix(0 0 0 0 0 0)" id="099a0cde-e345-4787-9a8d-dbca54d07a07"  >
</g>
<g transform="matrix(1.36 0 0 1.36 361.61 361.58)"  >
<g style="" vector-effect="non-scaling-stroke"   >
		<g transform="matrix(1 0 0 1 72.53 110.05)"  >
<path style="stroke: none; stroke-width: 1; stroke-dasharray: none; stroke-linecap: butt; stroke-dashoffset: 0; stroke-linejoin: miter; stroke-miterlimit: 4; fill: rgb(76,128,86); fill-rule: nonzero; opacity: 1;" vector-effect="non-scaling-stroke"  transform=" translate(-328.53, -366.05)" d="M 307.2 404.448 L 307.2 336.181 C 307.2 331.46799999999996 311.021 327.64799999999997 315.733 327.64799999999997 L 349.866 327.64799999999997 L 349.866 404.448 L 307.2 404.448 z" stroke-linecap="round" />
</g>
		<g transform="matrix(1 0 0 1 123.73 92.98)"  >
<path style="stroke: none; stroke-width: 1; stroke-dasharray: none; stroke-linecap: butt; stroke-dashoffset: 0; stroke-linejoin: miter; stroke-miterlimit: 4; fill: rgb(113,194,133); fill-rule: nonzero; opacity: 1;" vector-effect="non-scaling-stroke"  transform=" translate(-379.73, -348.98)" d="M 401.067 293.514 L 349.867 293.514 C 345.154 293.514 341.334 297.334 341.334 302.047 L 341.334 404.447 L 418.134 404.447 L 418.134 293.514 L 401.067 293.514 z" stroke-linecap="round" />
</g>
		<g transform="matrix(1 0 0 1 -51.2 169.78)"  >
<path style="stroke: none; stroke-width: 1; stroke-dasharray: none; stroke-linecap: butt; stroke-dashoffset: 0; stroke-linejoin: miter; stroke-miterlimit: 4; fill: rgb(189,195,199); fill-rule: nonzero; opacity: 1;" vector-effect="non-scaling-stroke"  transform=" translate(-204.8, -425.78)" d="M 186.965 455.648 L 401.06600000000003 455.648 L 401.06600000000003 395.915 L 17.06600000000003 395.915 C 12.35900000000003 395.92900000000003 8.546000000000031 399.74100000000004 8.533000000000031 404.44800000000004 L 8.533000000000031 421.51500000000004 C 8.54700000000003 426.22200000000004 12.359000000000032 430.035 17.06600000000003 430.04800000000006 L 29.52500000000003 430.04800000000006 C 32.40500000000003 430.05300000000005 35.09300000000003 431.49300000000005 36.69300000000003 433.88800000000003 L 48.64000000000003 451.80800000000005 C 50.24000000000003 454.20300000000003 52.928000000000026 455.64300000000003 55.80800000000003 455.648 L 186.965 455.648 z" stroke-linecap="round" />
</g>
		<g transform="matrix(1 0 0 1 54.6 -206.22)"  >
<path style="stroke: none; stroke-width: 1; stroke-dasharray: none; stroke-linecap: butt; stroke-dashoffset: 0; stroke-linejoin: miter; stroke-miterlimit: 4; fill: rgb(204,75,76); fill-rule: nonzero; opacity: 1;" vector-effect="non-scaling-stroke"  transform=" translate(-310.6, -49.78)" d="M 313.173 71.392 L 327.168 57.312 C 331.482 52.998 333.16700000000003 46.711 331.588 40.818 C 330.009 34.925 325.406 30.321999999999996 319.51300000000003 28.743 C 313.62000000000006 27.163999999999998 307.333 28.849 303.019 33.163 L 289.024 47.242999999999995 L 313.173 71.392 z" stroke-linecap="round" />
</g>
		<g transform="matrix(1 0 0 1 98.37 -162.75)"  >
<path style="stroke: none; stroke-width: 1; stroke-dasharray: none; stroke-linecap: butt; stroke-dashoffset: 0; stroke-linejoin: miter; stroke-miterlimit: 4; fill: rgb(204,75,76); fill-rule: nonzero; opacity: 1;" vector-effect="non-scaling-stroke"  transform=" translate(-354.37, -93.25)" d="M 356.949 114.869 L 370.944 100.789 C 377.613 94.12 377.613 83.30799999999999 370.944 76.64 C 364.27500000000003 69.971 353.463 69.971 346.795 76.64 L 332.8 90.72 L 356.949 114.869 z" stroke-linecap="round" />
</g>
		<g transform="matrix(1 0 0 1 -53 -55.47)"  >
<path style="stroke: none; stroke-width: 1; stroke-dasharray: none; stroke-linecap: butt; stroke-dashoffset: 0; stroke-linejoin: miter; stroke-miterlimit: 4; fill: rgb(113,194,133); fill-rule: nonzero; opacity: 1;" vector-effect="non-scaling-stroke"  transform=" translate(-203, -200.53)" d="M 394.991 105.981 C 393.39099999999996 104.38 391.221 103.481 388.95799999999997 103.481 C 386.69499999999994 103.481 384.52399999999994 104.38 382.92499999999995 105.981 L 370.55199999999996 118.359 L 286.08 33.888 L 300.24899999999997 19.718999999999998 C 303.58099999999996 16.386999999999997 303.58099999999996 10.983999999999998 300.24899999999997 7.6519999999999975 C 296.917 4.319999999999998 291.51399999999995 4.319999999999998 288.18199999999996 7.6519999999999975 L 274.014 21.82 L 274.005 21.812 L 195.072 99.721 L 122.11200000000001 171.572 L 49.23700000000001 243.508 L 11.00800000000001 281.225 C 7.68000000000001 284.579 7.68000000000001 289.98900000000003 11.00800000000001 293.34200000000004 L 117.16300000000001 395.913 L 119.46700000000001 393.60900000000004 L 119.46700000000001 395.913 L 204.8 395.913 L 204.8 308.276 L 231.851 281.31100000000004 L 304.214 208.86300000000006 L 382.635 130.44200000000006 L 382.618 130.42500000000007 L 394.991 118.04700000000007 C 396.592 116.44700000000007 397.491 114.27700000000007 397.491 112.01400000000007 C 397.491 109.75100000000006 396.592 107.581 394.991 105.981 z" stroke-linecap="round" />
</g>
		<g transform="matrix(1 0 0 1 -172.04 63.71)"  >
<path style="stroke: none; stroke-width: 1; stroke-dasharray: none; stroke-linecap: butt; stroke-dashoffset: 0; stroke-linejoin: miter; stroke-miterlimit: 4; fill: rgb(76,128,86); fill-rule: nonzero; opacity: 1;" vector-effect="non-scaling-stroke"  transform=" translate(-83.96, -319.71)" d="M 159.403 353.674 L 117.16299999999998 395.914 L 11.008 293.344 C 7.68 289.99 7.68 284.58 11.008 281.227 L 49.236999999999995 243.51 L 159.403 353.674 z" stroke-linecap="round" />
</g>
		<g transform="matrix(1 0 0 1 -42.84 -65.48)"  >
<polygon style="stroke: none; stroke-width: 1; stroke-dasharray: none; stroke-linecap: butt; stroke-dashoffset: 0; stroke-linejoin: miter; stroke-miterlimit: 4; fill: rgb(76,128,86); fill-rule: nonzero; opacity: 1;" vector-effect="non-scaling-stroke"  points="91.05,18.35 18.69,90.8 18.6,90.71 -89.94,-17.84 -91.05,-18.94 -18.09,-90.8 -17.58,-90.28 " />
</g>
		<g transform="matrix(1 0 0 1 196.27 101.51)"  >
<path style="stroke: none; stroke-width: 1; stroke-dasharray: none; stroke-linecap: butt; stroke-dashoffset: 0; stroke-linejoin: miter; stroke-miterlimit: 4; fill: rgb(76,128,86); fill-rule: nonzero; opacity: 1;" vector-effect="non-scaling-stroke"  transform=" translate(-452.27, -357.51)" d="M 401.067 395.914 L 401.067 276.448 C 401.067 271.73499999999996 404.88800000000003 267.91499999999996 409.6 267.91499999999996 L 474.332 267.91499999999996 C 476.59499999999997 267.91499999999996 478.766 268.81399999999996 480.366 270.414 L 503.467 293.515 L 503.467 438.582 C 503.467 443.295 499.64599999999996 447.115 494.93399999999997 447.115 L 401.06699999999995 447.115 L 401.06699999999995 395.914 z" stroke-linecap="round" />
</g>
		<g transform="matrix(1 0 0 1 162.13 191.11)"  >
<circle style="stroke: none; stroke-width: 1; stroke-dasharray: none; stroke-linecap: butt; stroke-dashoffset: 0; stroke-linejoin: miter; stroke-miterlimit: 4; fill: rgb(63,92,108); fill-rule: nonzero; opacity: 1;" vector-effect="non-scaling-stroke"  cx="0" cy="0" r="51.2" />
</g>
		<g transform="matrix(1 0 0 1 162.13 191.11)"  >
<circle style="stroke: none; stroke-width: 1; stroke-dasharray: none; stroke-linecap: butt; stroke-dashoffset: 0; stroke-linejoin: miter; stroke-miterlimit: 4; fill: rgb(230,231,232); fill-rule: nonzero; opacity: 1;" vector-effect="non-scaling-stroke"  cx="0" cy="0" r="17.067" />
</g>
		<g transform="matrix(1 0 0 1 -119.47 191.11)"  >
<circle style="stroke: none; stroke-width: 1; stroke-dasharray: none; stroke-linecap: butt; stroke-dashoffset: 0; stroke-linejoin: miter; stroke-miterlimit: 4; fill: rgb(63,92,108); fill-rule: nonzero; opacity: 1;" vector-effect="non-scaling-stroke"  cx="0" cy="0" r="51.2" />
</g>
		<g transform="matrix(1 0 0 1 -119.47 191.11)"  >
<circle style="stroke: none; stroke-width: 1; stroke-dasharray: none; stroke-linecap: butt; stroke-dashoffset: 0; stroke-linejoin: miter; stroke-miterlimit: 4; fill: rgb(230,231,232); fill-rule: nonzero; opacity: 1;" vector-effect="non-scaling-stroke"  cx="0" cy="0" r="17.067" />
</g>
		<g transform="matrix(1 0 0 1 196.27 67.38)"  >
<path style="stroke: none; stroke-width: 1; stroke-dasharray: none; stroke-linecap: butt; stroke-dashoffset: 0; stroke-linejoin: miter; stroke-miterlimit: 4; fill: rgb(144,186,225); fill-rule: nonzero; opacity: 1;" vector-effect="non-scaling-stroke"  transform=" translate(-452.27, -323.38)" d="M 469.333 302.048 L 469.333 344.71500000000003 L 443.733 344.71500000000003 C 439.026 344.701 435.214 340.889 435.2 336.182 L 435.2 310.582 C 435.214 305.875 439.026 302.063 443.733 302.049 L 469.333 302.049 z" stroke-linecap="round" />
</g>
		<g transform="matrix(1 0 0 1 230.4 67.38)"  >
<rect style="stroke: none; stroke-width: 1; stroke-dasharray: none; stroke-linecap: butt; stroke-dashoffset: 0; stroke-linejoin: miter; stroke-miterlimit: 4; fill: rgb(176,211,240); fill-rule: nonzero; opacity: 1;" vector-effect="non-scaling-stroke"  x="-17.0665" y="-21.3335" rx="0" ry="0" width="34.133" height="42.667" />
</g>
		<g transform="matrix(1 0 0 1 0 182.58)"  >
<path style="stroke: none; stroke-width: 1; stroke-dasharray: none; stroke-linecap: butt; stroke-dashoffset: 0; stroke-linejoin: miter; stroke-miterlimit: 4; fill: rgb(127,140,141); fill-rule: nonzero; opacity: 1;" vector-effect="non-scaling-stroke"  transform=" translate(-256, -438.58)" d="M 247.467 378.848 L 264.534 378.848 C 269.247 378.848 273.067 382.668 273.067 387.38100000000003 L 273.067 498.314 L 238.934 498.314 L 238.934 387.381 C 238.933 382.668 242.754 378.848 247.467 378.848 z" stroke-linecap="round" />
</g>
		<g transform="matrix(1 0 0 1 -93.87 88.71)"  >
<path style="stroke: none; stroke-width: 1; stroke-dasharray: none; stroke-linecap: butt; stroke-dashoffset: 0; stroke-linejoin: miter; stroke-miterlimit: 4; fill: rgb(126,208,158); fill-rule: nonzero; opacity: 1;" vector-effect="non-scaling-stroke"  transform=" translate(-162.13, -344.71)" d="M 119.467 395.914 L 119.467 302.04699999999997 C 119.467 297.33399999999995 123.288 293.51399999999995 128 293.51399999999995 L 196.267 293.51399999999995 C 200.98 293.51399999999995 204.79999999999998 297.33399999999995 204.79999999999998 302.04699999999997 L 204.79999999999998 395.914 L 119.467 395.914 z" stroke-linecap="round" />
</g>
		<g transform="matrix(1 0 0 1 166.4 242.31)"  >
<path style="stroke: none; stroke-width: 1; stroke-dasharray: none; stroke-linecap: butt; stroke-dashoffset: 0; stroke-linejoin: miter; stroke-miterlimit: 4; fill: rgb(127,91,83); fill-rule: nonzero; opacity: 1;" vector-effect="non-scaling-stroke"  transform=" translate(-422.4, -498.31)" d="M 503.467 489.781 L 341.333 489.781 C 336.62 489.781 332.8 493.60200000000003 332.8 498.314 C 332.8 503.026 336.62 506.84700000000004 341.333 506.84700000000004 L 503.466 506.84700000000004 C 508.17900000000003 506.84700000000004 511.999 503.02700000000004 511.999 498.314 C 511.999 493.601 508.18 489.781 503.467 489.781 z" stroke-linecap="round" />
</g>
		<g transform="matrix(1 0 0 1 -98.13 242.31)"  >
<path style="stroke: none; stroke-width: 1; stroke-dasharray: none; stroke-linecap: butt; stroke-dashoffset: 0; stroke-linejoin: miter; stroke-miterlimit: 4; fill: rgb(127,91,83); fill-rule: nonzero; opacity: 1;" vector-effect="non-scaling-stroke"  transform=" translate(-157.87, -498.31)" d="M 307.2 489.781 L 8.533 489.781 C 3.8199999999999994 489.781 0 493.60200000000003 0 498.314 C 0 503.026 3.821 506.84700000000004 8.533 506.84700000000004 L 307.2 506.84700000000004 C 311.913 506.84700000000004 315.733 503.02700000000004 315.733 498.314 C 315.733 493.601 311.913 489.781 307.2 489.781 z" stroke-linecap="round" />
</g>
</g>
</g>
<g transform="matrix(1 0 0 1 533.76 583.64)" style="filter: url(#SVGID_1674);" id="849eb907-2d71-462c-903c-5d20216c3171"  >
<filter id="SVGID_1674" y="-32%" height="164%" x="-28%" width="156%" >
	<feGaussianBlur in="SourceAlpha" stdDeviation="7"></feGaussianBlur>
	<feOffset dx="11" dy="11" result="oBlur" ></feOffset>
	<feFlood flood-color="rgb(255,153,255)" flood-opacity="1"/>
	<feComposite in2="oBlur" operator="in" />
	<feMerge>
		<feMergeNode></feMergeNode>
		<feMergeNode in="SourceGraphic"></feMergeNode>
	</feMerge>
</filter>
		<text xml:space="preserve" font-family="Lato" font-size="186" font-style="normal" font-weight="400" style="stroke: none; stroke-width: 1; stroke-dasharray: none; stroke-linecap: butt; stroke-dashoffset: 0; stroke-linejoin: miter; stroke-miterlimit: 4; fill: rgb(255,0,255); fill-rule: nonzero; opacity: 1; white-space: pre;" ><tspan x="-132.71" y="58.43" >Set</tspan></text>
</g>
</svg>