<svg id="Layer_1" enable-background="new 0 0 512 512" height="512" viewBox="0 0 512 512" width="512" xmlns="http://www.w3.org/2000/svg"><g><g><path d="m173.483 234.62h50.75c15.431 0 28.557-1.847 40.122-5.645 11.815-3.711 21.936-9.191 30.079-16.288 8.189-7.01 14.447-15.71 18.602-25.862 4.007-9.795 6.038-20.714 6.038-32.454 0-18.235-4.263-33.838-12.641-46.331-8.742-13.189-22.788-22.485-41.746-27.628-.044-.012-.089-.024-.134-.035-5.05-1.295-10.745-2.286-18.467-3.212-6.917-.831-16.051-1.234-27.922-1.234h-44.681c-5.523 0-10 4.477-10 10v138.69c0 5.522 4.477 9.999 10 9.999zm10-138.69h34.681c10.913 0 19.505.367 25.539 1.091 6.689.803 11.718 1.665 15.816 2.711 14.098 3.837 24.273 10.35 30.273 19.401 6.158 9.184 9.281 21.04 9.281 35.237 0 9.13-1.53 17.502-4.549 24.881-2.943 7.193-7.359 13.339-13.126 18.267-.026.022-.052.045-.078.067-6.152 5.37-13.682 9.401-23.016 12.326-.047.014-.092.029-.138.044-9.532 3.138-20.632 4.664-33.935 4.664h-40.75v-118.689z"/><path d="m445.395 473.77c-1.345-5.157-4.102-12.546-7.82-22.036-.038-.097-.078-.194-.119-.291l-41.424-96.654c-4.956-12.051-10.062-22.881-15.147-32.141-5.036-9.298-10.78-18.073-17.071-26.08-6.241-7.943-12.943-14.73-19.921-20.173-1.286-1.003-2.589-1.979-3.907-2.926 8.392-3.726 16.047-7.897 23.106-12.58 12.793-8.343 23.675-18.386 32.297-29.789 8.813-11.472 15.38-24.311 20.094-39.308 4.406-14.319 6.641-30.342 6.641-47.622 0-20.718-3.139-39.313-9.328-55.271-6.264-16.144-15.493-30.383-27.434-42.323-11.875-11.876-26.447-21.542-43.247-28.702-16.347-7.102-35.063-12.212-55.626-15.188-.164-.023-.328-.043-.493-.059-8.27-.781-15.807-1.38-23.044-1.833-8.436-.527-19.334-.794-32.391-.794h-126.81c-10.694 0-19.932 3.294-27.455 9.792-7.954 6.869-11.987 17.497-11.987 31.588v444.737c0 4.614 1.484 9.04 4.294 12.803 2.654 3.596 6.909 6.422 12.646 8.401.098.034.197.066.296.097 4.558 1.415 10.282 2.541 17.011 3.348 6.819.818 15.301 1.233 25.21 1.233 10.183 0 18.682-.417 25.234-1.236 6.663-.815 12.335-1.941 16.859-3.346.099-.031.197-.063.295-.097 5.455-1.881 9.672-4.593 12.536-8.061 3.136-3.675 4.793-8.216 4.793-13.144v-48.558c0-5.523-4.477-10-10-10s-10 4.477-10 10v48.558c0 .105-.009.158-.011.166-.069.08-.138.162-.204.244-.007.008-.725.864-3.493 1.838-2.356.72-6.528 1.73-13.23 2.55-5.758.72-13.421 1.085-22.778 1.085-9.116 0-16.796-.367-22.828-1.091-5.37-.644-9.967-1.523-13.311-2.544-1.999-.704-2.839-1.31-3.05-1.479-.248-.354-.27-.574-.27-.769v-444.736c0-8.017 1.702-13.552 5.059-16.451 3.841-3.316 8.546-4.928 14.384-4.928h126.809c12.644 0 23.122.254 31.143.755 6.95.435 14.203 1.011 22.163 1.76 18.709 2.727 35.624 7.337 50.342 13.73 14.5 6.18 26.951 14.414 37.01 24.473 9.964 9.963 17.678 21.878 22.93 35.415 5.292 13.641 7.975 29.803 7.975 48.037 0 15.285-1.937 29.328-5.738 41.682-3.981 12.666-9.495 23.481-16.902 33.124-7.271 9.617-16.462 18.082-27.38 25.203-10.795 7.159-23.262 12.983-38.11 17.806-3.897 1.266-6.628 4.78-6.891 8.869s1.995 7.925 5.698 9.679c6.646 3.149 12.794 6.954 18.792 11.632 5.703 4.449 11.253 10.087 16.495 16.76 5.595 7.12 10.713 14.942 15.24 23.3 4.765 8.676 9.555 18.849 14.236 30.238.019.046.038.092.058.138l41.391 96.577c3.002 7.664 5.927 15.342 7.059 19.744.028.111.059.221.091.331 1.381 4.698 1.53 6.907 1.53 7.639 0 .703-.063 1.213-.143 1.577-.33.166-.836.391-1.578.654-2.368.69-6.734 1.597-14.288 2.128-7.097.498-16.897.75-29.131.75-10.225 0-18.467-.25-24.496-.741-6.869-.562-10.393-1.497-12.137-2.182-2.255-.886-3.028-1.551-3.197-1.715-.992-1.587-1.835-3.37-2.509-5.306-.053-.151-.108-.302-.169-.45l-44.164-109.636c-.025-.064-.052-.128-.079-.191-5.648-13.224-10.831-24.278-15.82-33.745-5.355-10.298-11.605-19.2-18.574-26.459-6.971-7.261-15.371-12.951-25.041-16.941-9.27-3.738-19.957-5.633-31.762-5.633h-31.121c-5.523 0-10 4.477-10 10v48.558c0 5.523 4.477 10 10 10s10-4.477 10-10v-38.558h21.121c9.231 0 17.401 1.407 24.208 4.151 7.114 2.937 13.057 6.951 18.167 12.274 5.649 5.884 10.783 13.23 15.284 21.885 4.682 8.882 9.764 19.726 15.106 32.229l44.039 109.327c1.229 3.474 2.812 6.72 4.709 9.653.073.113.149.226.228.336 2.641 3.741 6.651 6.631 12.261 8.835 4.422 1.737 10.251 2.882 17.823 3.5 6.662.543 15.207.808 26.123.808 12.698 0 22.97-.269 30.531-.799 7.816-.549 13.977-1.524 18.83-2.98.13-.039.259-.08.387-.125 6.257-2.157 10.399-5.274 12.663-9.521 1.811-3.391 2.729-7.322 2.729-11.684-.001-3.54-.752-7.834-2.297-13.121z"/><path d="m173.491 382.559h-.007c-5.523 0-9.996 4.477-9.996 10s4.48 10 10.003 10 10-4.477 10-10-4.477-10-10-10z"/></g></g></svg>