<?xml version="1.0" encoding="UTF-8" standalone="no" ?>
<!DOCTYPE svg PUBLIC "-//W3C//DTD SVG 1.1//EN" "http://www.w3.org/Graphics/SVG/1.1/DTD/svg11.dtd">
<svg xmlns="http://www.w3.org/2000/svg" xmlns:xlink="http://www.w3.org/1999/xlink" version="1.1" width="720" height="720" viewBox="0 0 720 720" xml:space="preserve">
<desc>Created with Fabric.js 4.2.0</desc>
<defs>
</defs>
<rect x="0" y="0" width="100%" height="100%" fill="transparent"></rect>
<g transform="matrix(1 0 0 1 360 360)" id="088ff5e9-cec8-4b99-9d85-4d7f1d684ffe"  >
<rect style="stroke: none; stroke-width: 1; stroke-dasharray: none; stroke-linecap: butt; stroke-dashoffset: 0; stroke-linejoin: miter; stroke-miterlimit: 4; fill: rgb(255,255,255); fill-opacity: 0; fill-rule: nonzero; opacity: 1;" vector-effect="non-scaling-stroke"  x="-360" y="-360" rx="0" ry="0" width="720" height="720" />
</g>
<g transform="matrix(0 0 0 0 0 0)" id="10e72e25-f349-42f5-adff-9246252ebd1e"  >
</g>
<g transform="matrix(3.61 0 0 3.61 624 600.86)" style="filter: url(#SVGID_1503);" id="f42727bd-bc40-4e3b-832d-5e77afda711c"  >
<filter id="SVGID_1503" y="-46%" height="192%" x="-54%" width="208%" >
	<feGaussianBlur in="SourceAlpha" stdDeviation="7.5"></feGaussianBlur>
	<feOffset dx="0" dy="0" result="oBlur" ></feOffset>
	<feFlood flood-color="rgb(255,255,0)" flood-opacity="1"/>
	<feComposite in2="oBlur" operator="in" />
	<feMerge>
		<feMergeNode></feMergeNode>
		<feMergeNode in="SourceGraphic"></feMergeNode>
	</feMerge>
</filter>
		<rect opacity="0" fill="rgb(0,0,0)" x="-22.39" y="-28.81" width="44.77" height="57.63"></rect>
		<text xml:space="preserve" font-family="Lato" font-size="51" font-style="normal" font-weight="400" style="stroke: none; stroke-width: 1; stroke-dasharray: none; stroke-linecap: butt; stroke-dashoffset: 0; stroke-linejoin: miter; stroke-miterlimit: 4; fill: rgb(153,153,255); fill-rule: nonzero; opacity: 1; white-space: pre;" ><tspan x="-19.2" y="16.02" >D</tspan></text>
</g>
<g transform="matrix(1.38 0 0 1.38 358.22 361.84)"  >
<g style="" vector-effect="non-scaling-stroke"   >
		<g transform="matrix(1 0 0 1 218.93 -234.01)"  >
<path style="stroke: none; stroke-width: 1; stroke-dasharray: none; stroke-linecap: butt; stroke-dashoffset: 0; stroke-linejoin: miter; stroke-miterlimit: 4; fill: rgb(67,74,84); fill-rule: nonzero; opacity: 1;" vector-effect="non-scaling-stroke"  transform=" translate(-474.92, -21.99)" d="M 486.242 33.3 C 482.07 37.471999999999994 475.32 37.471999999999994 471.148 33.3 L 463.601 25.752999999999997 C 459.445 21.596999999999998 459.445 14.830999999999996 463.601 10.674999999999997 C 467.773 6.5029999999999974 474.523 6.5029999999999974 478.695 10.674999999999997 L 486.242 18.205999999999996 C 490.398 22.378 490.398 29.128 486.242 33.3 z" stroke-linecap="round" />
</g>
		<g transform="matrix(1 0 0 1 164.03 -171.58)"  >
<path style="stroke: none; stroke-width: 1; stroke-dasharray: none; stroke-linecap: butt; stroke-dashoffset: 0; stroke-linejoin: miter; stroke-miterlimit: 4; fill: rgb(101,109,120); fill-rule: nonzero; opacity: 1;" vector-effect="non-scaling-stroke"  transform=" translate(-420.03, -84.42)" d="M 501.32 18.206 L 353.822 165.719 C 349.65 169.875 342.901 169.891 338.729 165.719 C 334.573 161.548 334.573 154.798 338.729 150.626 L 486.242 3.128 C 490.398 -1.0430000000000001 497.16400000000004 -1.0430000000000001 501.32 3.128 C 505.492 7.3 505.492 14.05 501.32 18.206 z" stroke-linecap="round" />
</g>
		<g transform="matrix(1 0 0 1 119.54 -129.34)"  >
<path style="stroke: none; stroke-width: 1; stroke-dasharray: none; stroke-linecap: butt; stroke-dashoffset: 0; stroke-linejoin: miter; stroke-miterlimit: 4; fill: rgb(168,93,93); fill-rule: nonzero; opacity: 1;" vector-effect="non-scaling-stroke"  transform=" translate(-375.54, -126.66)" d="M 429.368 65.159 L 389.08799999999997 60.675000000000004 C 385.86899999999997 60.316 382.66599999999994 61.441 380.36899999999997 63.737 L 331.104 113.00200000000001 C 329.776 114.346 328.823 116.00200000000001 328.33799999999997 117.83000000000001 L 312.10499999999996 179.31300000000002 C 310.871 183.96900000000002 312.917 188.87500000000003 317.10499999999996 191.282 C 321.27599999999995 193.68800000000002 326.55699999999996 192.985 329.96299999999997 189.579 L 436.196 83.346 C 436.196 83.346 436.196 83.346 436.196 83.33 C 440.36800000000005 79.17399999999999 440.36800000000005 72.42399999999999 436.196 68.252 C 434.29 66.346 431.852 65.315 429.368 65.159 z" stroke-linecap="round" />
</g>
		<g transform="matrix(1 0 0 1 -18.95 64.21)"  >
<path style="stroke: none; stroke-width: 1; stroke-dasharray: none; stroke-linecap: butt; stroke-dashoffset: 0; stroke-linejoin: miter; stroke-miterlimit: 4; fill: rgb(237,85,100); fill-rule: nonzero; opacity: 1;" vector-effect="non-scaling-stroke"  transform=" translate(-237.05, -320.21)" d="M 260.855 334.106 C 257.949 337.028 253.48800000000003 338.106 249.41700000000003 336.512 L 216.90200000000004 323.763 C 211.41000000000005 321.62199999999996 208.70700000000005 315.435 210.85500000000005 309.95099999999996 C 213.00300000000004 304.4669999999999 219.19100000000006 301.748 224.68300000000005 303.90399999999994 L 257.19800000000004 316.6379999999999 C 262.682 318.7939999999999 265.386 324.9819999999999 263.237 330.4659999999999 C 262.691 331.872 261.863 333.106 260.855 334.106 z" stroke-linecap="round" />
</g>
		<g transform="matrix(1 0 0 1 -27.66 110.64)"  >
<path style="stroke: none; stroke-width: 1; stroke-dasharray: none; stroke-linecap: butt; stroke-dashoffset: 0; stroke-linejoin: miter; stroke-miterlimit: 4; fill: rgb(150,83,83); fill-rule: nonzero; opacity: 1;" vector-effect="non-scaling-stroke"  transform=" translate(-228.33, -366.64)" d="M 222.692 303.342 C 219.25400000000002 302.717 215.723 303.82599999999996 213.247 306.29499999999996 L 190.622 328.91999999999996 C 187.47400000000002 332.05999999999995 186.614 336.82499999999993 188.45000000000002 340.87199999999996 L 226.168 423.85499999999996 C 227.613 427.027 230.535 429.30799999999994 233.973 429.93299999999994 C 237.418 430.55799999999994 240.949 429.44899999999996 243.418 426.97999999999996 L 266.051 404.33899999999994 C 269.192 401.1979999999999 270.05899999999997 396.43299999999994 268.215 392.38599999999997 L 230.50499999999997 309.419 C 229.051 306.232 226.137 303.967 222.692 303.342 z" stroke-linecap="round" />
</g>
		<g transform="matrix(1 0 0 1 70.39 31.4)"  >
<path style="stroke: none; stroke-width: 1; stroke-dasharray: none; stroke-linecap: butt; stroke-dashoffset: 0; stroke-linejoin: miter; stroke-miterlimit: 4; fill: rgb(67,74,84); fill-rule: nonzero; opacity: 1;" vector-effect="non-scaling-stroke"  transform=" translate(-326.39, -287.39)" d="M 394.369 280.545 C 363.572 280.248 337.136 273.264 317.918 260.343 C 304.059 251.01500000000001 298.496 241.64000000000001 298.09000000000003 240.937 C 296.543 237.906 293.699 235.875 290.324 235.328 C 286.949 234.781 283.558 235.984 281.136 238.406 L 250.96400000000003 268.576 C 246.90200000000002 272.63800000000003 246.78400000000002 279.17 250.68300000000002 283.37300000000005 C 252.66000000000003 285.49800000000005 300.02700000000004 335.51300000000003 386.228 339.57500000000005 C 389.322 339.71600000000007 392.212 338.528 394.27500000000003 336.46600000000007 C 395.713 335.0130000000001 396.759 333.1380000000001 397.18100000000004 331.01400000000007 L 404.72800000000007 293.2950000000001 C 405.35300000000007 290.1860000000001 404.55600000000004 286.9510000000001 402.55600000000004 284.48300000000006 C 400.541 282.014 397.541 280.576 394.369 280.545 z" stroke-linecap="round" />
</g>
		<g transform="matrix(1 0 0 1 -159.12 154.41)"  >
<path style="stroke: none; stroke-width: 1; stroke-dasharray: none; stroke-linecap: butt; stroke-dashoffset: 0; stroke-linejoin: miter; stroke-miterlimit: 4; fill: rgb(168,93,93); fill-rule: nonzero; opacity: 1;" vector-effect="non-scaling-stroke"  transform=" translate(-96.87, -410.41)" d="M 150.576 308.826 C 147.599 308.951 144.803 310.326 142.881 312.607 L 123.155 335.91900000000004 L 81.562 362.872 C 80.937 363.29400000000004 80.351 363.76300000000003 79.828 364.29400000000004 L 10.673000000000002 433.44900000000007 C 6.501000000000002 437.6050000000001 6.501000000000002 444.3710000000001 10.673000000000002 448.52700000000004 L 71.015 508.869 C 73.32000000000001 511.18100000000004 76.554 512.307 79.796 511.91600000000005 C 82.20200000000001 511.63500000000005 84.41300000000001 510.5570000000001 86.101 508.869 C 86.679 508.29100000000005 87.195 507.63500000000005 87.632 506.93100000000004 L 184.614 349.60600000000005 C 187.208 345.4030000000001 186.57500000000002 339.96500000000003 183.07500000000002 336.46500000000003 L 158.56 311.95 C 156.451 309.842 153.56 308.717 150.576 308.826 z" stroke-linecap="round" />
</g>
		<g transform="matrix(1 0 0 1 -3.87 -19.95)"  >
<path style="stroke: none; stroke-width: 1; stroke-dasharray: none; stroke-linecap: butt; stroke-dashoffset: 0; stroke-linejoin: miter; stroke-miterlimit: 4; fill: rgb(101,109,120); fill-rule: nonzero; opacity: 1;" vector-effect="non-scaling-stroke"  transform=" translate(-252.13, -236.05)" d="M 358.9 190.797 L 190.622 359.091 C 188.622 361.091 185.90300000000002 362.216 183.07500000000002 362.216 C 180.247 362.216 177.53600000000003 361.091 175.53600000000003 359.091 L 145.36500000000004 328.92 C 142.50600000000003 326.06100000000004 141.50600000000003 321.84200000000004 142.78700000000003 317.998 L 150.32600000000002 295.373 C 150.84900000000002 293.811 151.73200000000003 292.373 152.90400000000002 291.20099999999996 L 331.105 113.00099999999998 C 333.886 110.21999999999997 337.964 109.20499999999997 341.73 110.32899999999998 C 345.49600000000004 111.46999999999998 348.32300000000004 114.57899999999998 349.10400000000004 118.42299999999997 L 361.807 181.14099999999996 C 362.525 184.641 361.432 188.282 358.9 190.797 z" stroke-linecap="round" />
</g>
		<g transform="matrix(1 0 0 1 -23.76 -41)"  >
<path style="stroke: none; stroke-width: 1; stroke-dasharray: none; stroke-linecap: butt; stroke-dashoffset: 0; stroke-linejoin: miter; stroke-miterlimit: 4; fill: rgb(67,74,84); fill-rule: nonzero; opacity: 1;" vector-effect="non-scaling-stroke"  transform=" translate(-232.24, -214.99)" d="M 192.966 266.232 L 283.481 175.71900000000002 C 287.637 171.54700000000003 287.637 164.79800000000003 283.481 160.62600000000003 L 177.881 266.232 C 182.044 270.404 188.802 270.404 192.966 266.232 z" stroke-linecap="round" />
</g>
</g>
</g>
</svg>