<?xml version="1.0" encoding="UTF-8" standalone="no" ?>
<!DOCTYPE svg PUBLIC "-//W3C//DTD SVG 1.1//EN" "http://www.w3.org/Graphics/SVG/1.1/DTD/svg11.dtd">
<svg xmlns="http://www.w3.org/2000/svg" xmlns:xlink="http://www.w3.org/1999/xlink" version="1.1" width="720" height="720" viewBox="0 0 720 720" xml:space="preserve">
<desc>Created with Fabric.js 4.2.0</desc>
<defs>
</defs>
<rect x="0" y="0" width="100%" height="100%" fill="transparent"></rect>
<g transform="matrix(0 0 0 0 0 0)" id="10e72e25-f349-42f5-adff-9246252ebd1e"  >
</g>
<g transform="matrix(1 0 0 1 360 360)" id="088ff5e9-cec8-4b99-9d85-4d7f1d684ffe"  >
<rect style="stroke: none; stroke-width: 1; stroke-dasharray: none; stroke-linecap: butt; stroke-dashoffset: 0; stroke-linejoin: miter; stroke-miterlimit: 4; fill: rgb(255,255,255); fill-opacity: 0; fill-rule: nonzero; opacity: 1;" vector-effect="non-scaling-stroke"  x="-360" y="-360" rx="0" ry="0" width="720" height="720" />
</g>
<g transform="matrix(1.35 0 0 1.35 360.39 360.39)"  >
<g style="" vector-effect="non-scaling-stroke"   >
		<g transform="matrix(8.83 0 0 8.83 0.07 0.07)"  >
<path style="stroke: none; stroke-width: 1; stroke-dasharray: none; stroke-linecap: butt; stroke-dashoffset: 0; stroke-linejoin: miter; stroke-miterlimit: 4; fill: rgb(229,126,37); fill-rule: nonzero; opacity: 1;" vector-effect="non-scaling-stroke"  transform=" translate(-29, -29)" d="M 53.82 2.5 C 44.64 8.18 34.129999999999995 15.82 26.46 23.18 C 25.7420948 22.848240699999998 24.8953596 22.9782048 24.310000000000002 23.509999999999998 L 22.820000000000004 24.839999999999996 C 22.287144100000003 25.316288799999995 22.047275200000005 26.039702899999995 22.190000000000005 26.739999999999995 C 18.860000000000007 29.809999999999995 6.150000000000006 41.739999999999995 1.6200000000000045 49.199999999999996 C 0.7417721500000045 50.441187 0.18515020000000448 51.880844999999994 4.440892098500626e-15 53.38999999999999 C 4.440892098500626e-15 59.99999999999999 12.000000000000004 59.059999999999995 14.000000000000004 53.38999999999999 C 14.376373900000004 52.353610499999995 14.837952200000004 51.350179499999996 15.380000000000003 50.38999999999999 C 18.941011800000002 44.388566899999994 23.915463700000004 39.34888749999999 29.870000000000005 35.709999999999994 L 30.020000000000003 35.879999999999995 C 30.371100900000002 36.277864599999994 30.866818600000002 36.51867969999999 31.396596400000004 36.54873799999999 C 31.926374300000003 36.57879629999999 32.4461494 36.39559779999999 32.84 36.03999999999999 L 34.330000000000005 34.69999999999999 C 34.94037720000001 34.15752599999999 35.1583017 33.29771509999999 34.88 32.52999999999999 C 36.92 31.03999999999999 39.57 29.099999999999987 43 26.579999999999988 C 53.12 19.15999999999999 58 8.24999999999999 58 -1.0658141036401503e-14 C 56.65 0.7799999999999894 55.25 1.6199999999999894 53.82 2.4999999999999893 z" stroke-linecap="round" />
</g>
		<g transform="matrix(8.83 0 0 8.83 98.37 -114.96)"  >
<path style="stroke: none; stroke-width: 1; stroke-dasharray: none; stroke-linecap: butt; stroke-dashoffset: 0; stroke-linejoin: miter; stroke-miterlimit: 4; fill: rgb(165,165,164); fill-rule: nonzero; opacity: 1;" vector-effect="non-scaling-stroke"  transform=" translate(-40.14, -15.98)" d="M 53.82 2.5 L 53.82 2.51 C 53.24 6.5 50.81 15.89 40.63 23.35 L 32.31 29.450000000000003 L 27.130000000000003 23.67 C 26.9461486 23.458586800000003 26.717187300000003 23.291137600000003 26.46 23.180000000000003 C 34.13 15.820000000000004 44.64 8.180000000000003 53.82 2.5000000000000036 z" stroke-linecap="round" />
</g>
		<g transform="matrix(8.83 0 0 8.83 142.64 -112.39)"  >
<path style="stroke: none; stroke-width: 1; stroke-dasharray: none; stroke-linecap: butt; stroke-dashoffset: 0; stroke-linejoin: miter; stroke-miterlimit: 4; fill: rgb(209,212,209); fill-rule: nonzero; opacity: 1;" vector-effect="non-scaling-stroke"  transform=" translate(-45.16, -16.27)" d="M 58 0 C 58 8.25 53.12 19.16 43 26.58 C 39.57 29.099999999999998 36.92 31.04 34.88 32.53 C 34.786944600000005 32.2932054 34.655145600000004 32.0735405 34.49 31.880000000000003 L 32.31 29.450000000000003 L 40.63 23.35 C 50.81 15.89 53.24 6.5 53.82 2.5100000000000016 L 53.82 2.5000000000000018 C 55.25 1.6200000000000019 56.65 0.7800000000000018 58 1.7763568394002505e-15 z" stroke-linecap="round" />
</g>
		<g transform="matrix(8.83 0 0 8.83 -3.74 6.85)"  >
<path style="stroke: none; stroke-width: 1; stroke-dasharray: none; stroke-linecap: butt; stroke-dashoffset: 0; stroke-linejoin: miter; stroke-miterlimit: 4; fill: rgb(242,156,31); fill-rule: nonzero; opacity: 1;" vector-effect="non-scaling-stroke"  transform=" translate(-28.57, -29.78)" d="M 34.33 34.7 L 32.839999999999996 36.040000000000006 C 32.446149399999996 36.395597800000004 31.926374299999996 36.57879630000001 31.396596399999996 36.54873800000001 C 30.866818599999995 36.51867970000001 30.371100899999995 36.27786460000001 30.019999999999996 35.88000000000001 L 29.869999999999997 35.71000000000001 L 22.659999999999997 27.67000000000001 C 22.304846799999996 27.27400370000001 22.122073999999998 26.75284120000001 22.152099699999997 26.22176180000001 C 22.182125399999997 25.69068240000001 22.422475699999996 25.19344210000001 22.819999999999997 24.84000000000001 L 24.309999999999995 23.510000000000012 C 24.895359599999995 22.97820480000001 25.742094799999997 22.848240700000012 26.459999999999994 23.180000000000014 C 26.717187299999992 23.291137600000013 26.946148599999994 23.458586800000013 27.129999999999995 23.670000000000012 L 32.309999999999995 29.450000000000014 L 34.489999999999995 31.880000000000013 C 34.6551456 32.073540500000014 34.7869446 32.29320540000001 34.879999999999995 32.530000000000015 C 35.158301699999996 33.29771510000001 34.94037719999999 34.15752600000002 34.33 34.70000000000002 z" stroke-linecap="round" />
</g>
		<g transform="matrix(8.83 0 0 8.83 -188.1 217.17)"  >
<path style="stroke: none; stroke-width: 1; stroke-dasharray: none; stroke-linecap: butt; stroke-dashoffset: 0; stroke-linejoin: miter; stroke-miterlimit: 4; fill: rgb(210,86,39); fill-rule: nonzero; opacity: 1;" vector-effect="non-scaling-stroke"  transform=" translate(-7.69, -53.6)" d="M 15.38 50.39 C 14.8379522 51.3501795 14.3763739 52.3536105 14 53.39 C 12 59.06 0 60 0 53.39 C 0.1851502 51.880845 0.74177215 50.441187 1.62 49.2 C 2.7 50.510000000000005 5.1899999999999995 51.6 8.17 51.910000000000004 C 11.36 52.24 14.18 51.6 15.379999999999999 50.39 z" stroke-linecap="round" />
</g>
		<g transform="matrix(8.83 0 0 8.83 -167.72 158.89)" id="Oval"  >
<circle style="stroke: none; stroke-width: 1; stroke-dasharray: none; stroke-linecap: butt; stroke-dashoffset: 0; stroke-linejoin: miter; stroke-miterlimit: 4; fill: rgb(128,83,51); fill-rule: nonzero; opacity: 1;" vector-effect="non-scaling-stroke"  cx="0" cy="0" r="1" />
</g>
		<g transform="matrix(8.83 0 0 8.83 -61.79 52.96)" id="Oval"  >
<circle style="stroke: none; stroke-width: 1; stroke-dasharray: none; stroke-linecap: butt; stroke-dashoffset: 0; stroke-linejoin: miter; stroke-miterlimit: 4; fill: rgb(128,83,51); fill-rule: nonzero; opacity: 1;" vector-effect="non-scaling-stroke"  cx="0" cy="0" r="1" />
</g>
</g>
</g>
<g transform="matrix(3.61 0 0 3.61 624 600.86)" style="filter: url(#SVGID_1426);" id="f42727bd-bc40-4e3b-832d-5e77afda711c"  >
<filter id="SVGID_1426" y="-46%" height="192%" x="-54%" width="208%" >
	<feGaussianBlur in="SourceAlpha" stdDeviation="7.5"></feGaussianBlur>
	<feOffset dx="0" dy="0" result="oBlur" ></feOffset>
	<feFlood flood-color="rgb(255,255,0)" flood-opacity="1"/>
	<feComposite in2="oBlur" operator="in" />
	<feMerge>
		<feMergeNode></feMergeNode>
		<feMergeNode in="SourceGraphic"></feMergeNode>
	</feMerge>
</filter>
		<rect opacity="0" fill="rgb(0,0,0)" x="-22.39" y="-28.81" width="44.77" height="57.63"></rect>
		<text xml:space="preserve" font-family="Lato" font-size="51" font-style="normal" font-weight="400" style="stroke: none; stroke-width: 1; stroke-dasharray: none; stroke-linecap: butt; stroke-dashoffset: 0; stroke-linejoin: miter; stroke-miterlimit: 4; fill: rgb(153,255,153); fill-rule: nonzero; opacity: 1; white-space: pre;" ><tspan x="-14.43" y="16.02" >F</tspan></text>
</g>
</svg>