<svg id="icons" enable-background="new 0 0 64 64" height="512" viewBox="0 0 64 64" width="512" xmlns="http://www.w3.org/2000/svg"><g><g><path d="m12 46v8l-.999 1-1.001 7h-7v-8c0-4.42 3.58-8 8-8z" fill="#da4453"/></g><g><path d="m39 46c4.42 0 8 3.58 8 8v8h-7l-1.001-7-.999-1v-8z" fill="#da4453"/></g><path d="m39 54h-28c-.55 0-1 .449-1 1v7h30v-7c0-.551-.45-1-1-1z" fill="#ffd2a6"/><g><path d="m40 22v2.99c-1.66 0-3 1.34-3 3 0 4.98-4.03 9-9 9l-1-1h-4l-1 1c-4.98 0-9-4.02-9-9 0-1.66-1.34-3-3-3v-4.721c13.26 1.551 18.34-3.52 23-3.26 2.17.12 4.24 1.381 7 4.991z" fill="#eac6bb"/></g><g><path d="m35.996 18.025v.962 8.013c0 5.75-3.24 10.75-8 13.27-1.528.805-3.214 1.355-4.998 1.594.655.087 1.322.136 2.002.136 2.53 0 4.91-.631 7-1.73 4.76-2.52 8-7.52 8-13.27v-2.01-2.99c-1.496-1.958-2.787-3.207-4.004-3.975z" fill="#d3b1a9"/></g><g><path d="m12 46h4v8h-4z" fill="#f7c292"/></g><g><path d="m40 27c0 5.75-3.24 10.75-8 13.27-2.09 1.1-4.47 1.73-7 1.73s-4.91-.631-7-1.73c-4.76-2.52-8-7.52-8-13.27v-2.01c1.66 0 3 1.34 3 3 0 4.98 4.02 9 9 9l1-1h4l1 1c4.97 0 9-4.02 9-9 0-1.66 1.34-3 3-3z" fill="#965353"/></g><g><path d="m58 34.08v9.92h-3-4-3v-9.92-.08h10z" fill="#656d78"/></g><g><path d="m32 40.27v5.73l-3 1.99-4-1-4 1-3-1.99v-5.73c2.09 1.1 4.47 1.73 7 1.73s4.91-.631 7-1.73z" fill="#ed5565"/></g><g><path d="m34 46v8h-18v-8h2l3 1.99 4-1 4 1 3-1.99z" fill="#da4453"/></g><g><path d="m16 60h18v2h-18z" fill="#656d78"/></g><g><path d="m40 18v4c-2.76-3.609-4.83-4.87-7-4.99l5.39-6.01c1.03 2.109 1.61 4.49 1.61 7z" fill="#844747"/></g><g><path d="m61 36v6c0 1.1-.9 2-2 2h-1v-9.92-.08h1c1.1 0 2 .9 2 2z" fill="#aab2bd"/></g><g><path d="m34 46h4v8h-4z" fill="#f7c292"/></g><g><path d="m10 20.269c-.65-.069-1.31-.16-2-.269v-2c0-8.84 7.17-16 16-16 6.33 0 11.8 3.67 14.39 9l-5.39 6.009c-4.66-.259-9.74 4.811-23 3.26z" fill="#965353"/></g><g><path d="m51 44h4v18h-4z" fill="#965353"/></g><g><path d="m48 34.08v9.92h-1c-1.1 0-2-.9-2-2v-6c0-1.1.9-2 2-2h1z" fill="#aab2bd"/></g><g><path d="m37 27.99c0 2.805-1.279 5.305-3.284 6.954-1.401 2.24-3.375 4.084-5.72 5.326-1.528.805-3.214 1.355-4.998 1.594.318.043.641.076.965.098.011.002.021.002.031.004.332.022.667.034 1.006.034 2.53 0 4.91-.631 7-1.73 4.76-2.52 8-7.52 8-13.27v-2.01c-1.66 0-3 1.34-3 3z" fill="#844747"/></g></g></svg>