<svg height="512" viewBox="0 0 128 128" width="512" xmlns="http://www.w3.org/2000/svg"><g><path d="m38.978 38v2.568a22.226 22.226 0 0 0 .5 4.674l1.509 6.891c.788 3.611 1.317 7.465 2.71 10.9a21.929 21.929 0 0 0 40.606 0c1.393-3.437 1.922-7.291 2.709-10.9l1.51-6.891a22.226 22.226 0 0 0 .5-4.674v-2.568z" fill="#f0d0b4"/><path d="m39.481 45.242a21.9 21.9 0 0 1 -.505-4.677v-1.307a6.9 6.9 0 0 0 -.926-.07 6.81 6.81 0 1 0 2.935 12.947z" fill="#ddb79b"/><g fill="#424242"><path d="m66.207 53.4h-1.958a3.43 3.43 0 0 1 -3.391-3.945l.709-4.687a1.75 1.75 0 1 1 3.461.524l-.7 4.608h1.877a1.75 1.75 0 0 1 0 3.5z"/><g><path d="m53 36.25a4.167 4.167 0 1 0 4.166 4.167 4.172 4.172 0 0 0 -4.166-4.167z"/><path d="m75 36.25a4.167 4.167 0 1 0 4.167 4.167 4.171 4.171 0 0 0 -4.167-4.167z"/></g><path d="m63.875 63.5a10.376 10.376 0 0 1 -8.028-3.346 1.75 1.75 0 0 1 2.7-2.224 6.987 6.987 0 0 0 5.328 2.07 6.987 6.987 0 0 0 5.325-2.069 1.75 1.75 0 1 1 2.7 2.225 10.371 10.371 0 0 1 -8.025 3.344z"/></g><path d="m89.7 39.188a6.058 6.058 0 0 0 -.678.052v1.328a22.226 22.226 0 0 1 -.5 4.674l-1.51 6.891-.021.1a6.732 6.732 0 0 0 2.709.578 6.81 6.81 0 0 0 0-13.619z" fill="#ddb79b"/><path d="m89.431 87.609c-.879-.069-1.76-.138-2.634-.235a22.825 22.825 0 0 1 -3.938-.722l-18.985 14.1 13.109 6.005z" fill="#424242"/><path d="m119.5 110.83v15.42h-111v-15.42a22.417 22.417 0 0 1 16.5-21.61c4.31-1.18 8.84-1.31 13.31-1.64l12.46 19.18 11.35-5.21 1.75-.8 1.75.8 11.36 5.21 12.45-19.15c1.28.1 2.55.19 3.81.3a55.319 55.319 0 0 1 9.76 1.31 22.417 22.417 0 0 1 16.5 21.61z" fill="#5e8569"/><path d="m63.874 100.752-18.891-14.031a9.806 9.806 0 0 1 -3.124.547c-1.175.135-2.359.23-3.546.315l12.452 19.174z" fill="#424242"/><path d="m65.62 100.75v25.5h-3.5v-25.5a1.75 1.75 0 0 1 3.5 0z" fill="#424242"/><path d="m103.25 111.62v14.63h-3.5v-14.63a1.75 1.75 0 0 1 3.5 0z" fill="#424242"/><path d="m26.5 116.467h10.337a2.142 2.142 0 0 1 2.141 2.141 2.14 2.14 0 0 0 2.141 2.141h7.834a2.142 2.142 0 0 1 2.141 2.141v1.219a2.142 2.142 0 0 1 -2.141 2.141h-22.453z" fill="#85bc94"/><path d="m115.585 98.207h-13.273a3 3 0 0 0 -3 3v.125a3 3 0 0 0 3 3h2.438a3 3 0 0 1 3 3 3 3 0 0 0 3 3h8.729a22.288 22.288 0 0 0 -3.894-12.125z" fill="#85bc94"/><path d="m76.676 84.352 2.514-.513c-.111-.173-.222-.347-.325-.54a6.741 6.741 0 0 1 -.769-2.332l-1.096-8.576a21.855 21.855 0 0 1 -26 0l-1.1 8.576a6.811 6.811 0 0 1 -1.13 2.864l2.549.521a63.358 63.358 0 0 0 25.357 0z" fill="#ddb79b"/><path d="m79.19 83.839-2.514.513a63.358 63.358 0 0 1 -25.352 0l-2.549-.521a7.577 7.577 0 0 1 -3.792 2.89l18.891 14.031 18.985-14.1a6.6 6.6 0 0 1 -3.669-2.813z" fill="#85bc94"/><path d="m9.2 105.247h21.227a2.141 2.141 0 0 0 2.141-2.141v-1.219a2.14 2.14 0 0 0 -2.141-2.141h-7.834a2.142 2.142 0 0 1 -2.141-2.141 2.14 2.14 0 0 0 -2.141-2.141h-3.686a22.373 22.373 0 0 0 -5.425 9.783z" fill="#85bc94"/><path d="m76.316 126.25v-4.875a3.063 3.063 0 0 1 3.063-3.062h.121a3.063 3.063 0 0 0 3.062-3.063 3.063 3.063 0 0 1 3.063-3.062h.125a3.062 3.062 0 0 1 3.062 3.062v11z" fill="#85bc94"/><path d="m91.75 26.88v9.12a2.006 2.006 0 0 1 -2 2h-51.5a2.006 2.006 0 0 1 -2-2v-9.12z" fill="#424242"/><path d="m75.337 1.748h-15.566a39.872 39.872 0 0 0 -27.458 10.96l-4.607 4.374a5.677 5.677 0 0 0 -1.769 4.118 5.677 5.677 0 0 0 5.677 5.676h60.125a7 7 0 0 0 6.5-9.59 24.655 24.655 0 0 0 -22.902-15.538z" fill="#5e8569"/><path d="m69.469 16.245-5.469 4.004-5.469-4.004v-7.871h10.938z" fill="#fbb540"/><g fill="#707070"><path d="m43.47 26.88h3.5v11.12h-3.5z"/><path d="m52.86 26.88h3.5v11.12h-3.5z"/><path d="m62.25 26.88h3.5v11.12h-3.5z"/><path d="m71.64 26.88h3.5v11.12h-3.5z"/><path d="m81.03 26.88h3.5v11.12h-3.5z"/></g><path d="m28.25 111.62v14.63h-3.5v-14.63a1.75 1.75 0 0 1 3.5 0z" fill="#424242"/></g></svg>