<?xml version="1.0" encoding="UTF-8" standalone="no" ?>
<!DOCTYPE svg PUBLIC "-//W3C//DTD SVG 1.1//EN" "http://www.w3.org/Graphics/SVG/1.1/DTD/svg11.dtd">
<svg xmlns="http://www.w3.org/2000/svg" xmlns:xlink="http://www.w3.org/1999/xlink" version="1.1" width="1080" height="1080" viewBox="0 0 1080 1080" xml:space="preserve">
<desc>Created with Fabric.js 4.2.0</desc>
<defs>
</defs>
<rect x="0" y="0" width="100%" height="100%" fill="transparent"></rect>
<g transform="matrix(1 0 0 1 540 540)" id="10e72e25-f349-42f5-adff-9246252ebd1e"  >
</g>
<g transform="matrix(1 0 0 1 540 540)" id="088ff5e9-cec8-4b99-9d85-4d7f1d684ffe"  >
<rect style="stroke: none; stroke-width: 1; stroke-dasharray: none; stroke-linecap: butt; stroke-dashoffset: 0; stroke-linejoin: miter; stroke-miterlimit: 4; fill: rgb(255,255,255); fill-opacity: 0; fill-rule: nonzero; opacity: 1;" vector-effect="non-scaling-stroke"  x="-540" y="-540" rx="0" ry="0" width="1080" height="1080" />
</g>
<g transform="matrix(2.53 0 0 2.53 -566.36 810.67)" style="" id="b2afa9d8-36c5-4db4-8d49-c4d1a799d296"  >
		<text xml:space="preserve" font-family="Lato" font-size="40" font-style="normal" font-weight="400" style="stroke: none; stroke-width: 1; stroke-dasharray: none; stroke-linecap: butt; stroke-dashoffset: 0; stroke-linejoin: miter; stroke-miterlimit: 4; fill: rgb(0,0,0); fill-rule: nonzero; opacity: 1; white-space: pre;" ><tspan x="-14.68" y="12.57" >G</tspan></text>
</g>
<g transform="matrix(5.41 0 0 5.41 942.46 951.24)" style="filter: url(#SVGID_752);" id="f42727bd-bc40-4e3b-832d-5e77afda711c"  >
<filter id="SVGID_752" y="-27%" height="154%" x="-29%" width="158%" >
	<feGaussianBlur in="SourceAlpha" stdDeviation="2"></feGaussianBlur>
	<feOffset dx="0" dy="0" result="oBlur" ></feOffset>
	<feFlood flood-color="rgb(0,0,0)" flood-opacity="1"/>
	<feComposite in2="oBlur" operator="in" />
	<feMerge>
		<feMergeNode></feMergeNode>
		<feMergeNode in="SourceGraphic"></feMergeNode>
	</feMerge>
</filter>
		<text xml:space="preserve" font-family="Lato" font-size="51" font-style="normal" font-weight="400" style="stroke: none; stroke-width: 1; stroke-dasharray: none; stroke-linecap: butt; stroke-dashoffset: 0; stroke-linejoin: miter; stroke-miterlimit: 4; fill: rgb(0,255,0); fill-rule: nonzero; opacity: 1; white-space: pre;" ><tspan x="-18.72" y="16.02" >G</tspan></text>
</g>
<g transform="matrix(2.01 0 0 2.01 542.34 542.34)"  >
<g style="" vector-effect="non-scaling-stroke"   >
		<g transform="matrix(1 0 0 1 -63.69 63.68)"  >
<path style="stroke: none; stroke-width: 1; stroke-dasharray: none; stroke-linecap: butt; stroke-dashoffset: 0; stroke-linejoin: miter; stroke-miterlimit: 4; fill: rgb(230,234,238); fill-rule: nonzero; opacity: 1;" vector-effect="non-scaling-stroke"  transform=" translate(-192.31, -319.68)" d="M 16.452 506.161 L 5.838 495.547 C -1.9459999999999997 487.76300000000003 -1.9459999999999997 475.144 5.838 467.36 L 345.827 127.37 L 384.629 166.172 L 44.64 506.161 C 36.857 513.944 24.237 513.944 16.452 506.161 z" stroke-linecap="round" />
</g>
		<g transform="matrix(1 0 0 1 -61.04 76.95)"  >
<path style="stroke: none; stroke-width: 1; stroke-dasharray: none; stroke-linecap: butt; stroke-dashoffset: 0; stroke-linejoin: miter; stroke-miterlimit: 4; fill: rgb(205,211,217); fill-rule: nonzero; opacity: 1;" vector-effect="non-scaling-stroke"  transform=" translate(-194.96, -332.95)" d="M 122.807 427.988 L 45.21300000000001 505.581 C 37.111000000000004 513.683 23.98400000000001 513.683 15.882000000000009 505.581 L 6.417000000000009 496.11600000000004 C 6.022000000000009 495.72 5.647000000000009 495.31600000000003 5.304000000000009 494.89900000000006 C 13.458000000000009 501.74300000000005 25.62700000000001 501.32700000000006 33.29200000000001 493.66200000000003 L 372.703 154.25 L 384.62199999999996 166.17 L 122.807 427.988" stroke-linecap="round" />
</g>
		<g transform="matrix(-0.71 -0.71 0.71 -0.71 75.36 -75.37)"  >
<rect style="stroke: none; stroke-width: 1; stroke-dasharray: none; stroke-linecap: butt; stroke-dashoffset: 0; stroke-linejoin: miter; stroke-miterlimit: 4; fill: rgb(92,109,125); fill-rule: nonzero; opacity: 1;" vector-effect="non-scaling-stroke"  x="-27.4365" y="-47.8845" rx="0" ry="0" width="54.873" height="95.769" />
</g>
		<g transform="matrix(-0.71 0.71 -0.71 -0.71 89.05 -61.68)"  >
<rect style="stroke: none; stroke-width: 1; stroke-dasharray: none; stroke-linecap: butt; stroke-dashoffset: 0; stroke-linejoin: miter; stroke-miterlimit: 4; fill: rgb(83,97,109); fill-rule: nonzero; opacity: 1;" vector-effect="non-scaling-stroke"  x="-47.883" y="-8.0905" rx="0" ry="0" width="95.766" height="16.181" />
</g>
		<g transform="matrix(1 0 0 1 146.29 -146.29)"  >
<path style="stroke: none; stroke-width: 1; stroke-dasharray: none; stroke-linecap: butt; stroke-dashoffset: 0; stroke-linejoin: miter; stroke-miterlimit: 4; fill: rgb(255,208,113); fill-rule: nonzero; opacity: 1;" vector-effect="non-scaling-stroke"  transform=" translate(-402.29, -109.71)" d="M 491.272 27.487 L 469.377 92.05399999999999 C 468.813 93.71499999999999 469.104 95.54799999999999 470.153 96.954 L 510.92900000000003 151.595 C 513.571 155.136 511.007 160.169 506.58900000000006 160.113 L 438.41600000000005 159.242 C 436.66200000000003 159.22 435.00900000000007 160.06099999999998 433.99600000000004 161.494 L 394.63000000000005 217.16 C 392.08000000000004 220.767 386.50000000000006 219.883 385.18800000000005 215.665 L 364.95000000000005 150.559 C 364.42900000000003 148.884 363.117 147.572 361.44200000000006 147.051 L 296.33600000000007 126.81299999999999 C 292.11800000000005 125.50199999999998 291.23300000000006 119.92199999999998 294.84100000000007 117.37099999999998 L 350.50700000000006 78.00499999999998 C 351.9390000000001 76.99199999999998 352.78200000000004 75.33999999999997 352.75900000000007 73.58499999999998 L 351.885 5.41 C 351.829 0.9930000000000003 356.86199999999997 -1.572 360.403 1.0700000000000003 L 415.045 41.846000000000004 C 416.451 42.895 418.283 43.185 419.945 42.623000000000005 L 484.512 20.728000000000005 C 488.696 19.308 492.691 23.303 491.272 27.487 z" stroke-linecap="round" />
</g>
		<g transform="matrix(1 0 0 1 190.04 -77.46)"  >
<path style="stroke: none; stroke-width: 1; stroke-dasharray: none; stroke-linecap: butt; stroke-dashoffset: 0; stroke-linejoin: miter; stroke-miterlimit: 4; fill: rgb(247,182,87); fill-rule: nonzero; opacity: 1;" vector-effect="non-scaling-stroke"  transform=" translate(-446.04, -178.54)" d="M 506.593 160.117 L 438.411 159.243 C 436.663 159.222 435.01 160.063 433.998 161.493 L 394.63 217.16 C 392.08299999999997 220.763 386.496 219.878 385.185 215.668 L 380.089 199.272 L 421.93 140.119 C 423.028 138.563 424.829 137.646 426.738 137.668 L 500.868 138.616 C 500.985 138.616 501.113 138.616 501.231 138.60500000000002 L 510.932 151.60000000000002 C 513.576 155.139 511.006 160.171 506.593 160.117 z" stroke-linecap="round" />
</g>
</g>
</g>
</svg>