<svg viewBox="0 0 512.00025 512" xmlns="http://www.w3.org/2000/svg"><path d="m284.019531 295.050781-30.996093 30.996094-67.070313-67.070313 30.996094-30.996093 13.132812-147.710938 281.917969-80.269531-80.269531 281.917969zm0 0" fill="#e4e4e4"/><path d="m219.488281 292.511719 33.535157 33.535156 30.996093-30.996094 147.710938-13.132812 80.269531-281.917969zm0 0" fill="#d9d9d9"/><path d="m284.019531 295.050781-67.070312-67.070312-108.757813 108.753906c-28.664062-6.417969-59.894531 1.5-82.207031 23.8125-34.644531 34.644531-34.644531 90.820313 0 125.46875 34.648437 34.644531 90.824219 34.644531 125.46875 0 22.3125-22.3125 30.230469-53.542969 23.808594-82.210937zm-171.097656 152.429688c-6.464844 6.464843-15.058594 10.023437-24.203125 10.023437-9.140625 0-17.734375-3.558594-24.199219-10.023437-6.464843-6.464844-10.023437-15.058594-10.023437-24.199219 0-9.144531 3.558594-17.738281 10.023437-24.199219 6.464844-6.464843 15.058594-10.027343 24.199219-10.027343 9.144531 0 17.738281 3.558593 24.203125 10.027343 6.464844 6.464844 10.023437 15.054688 10.023437 24.199219 0 9.140625-3.558593 17.734375-10.023437 24.199219zm0 0" fill="#ff9500"/><path d="m250.484375 261.515625-137.5625 137.5625c6.460937 6.464844 10.023437 15.058594 10.023437 24.199219 0 9.144531-3.5625 17.738281-10.023437 24.203125-6.464844 6.464843-15.058594 10.023437-24.203125 10.023437-9.140625 0-17.734375-3.558594-24.199219-10.023437l-38.535156 38.53125c34.648437 34.648437 90.824219 34.648437 125.46875 0 22.3125-22.308594 30.230469-53.539063 23.808594-82.207031l108.757812-108.753907zm0 0" fill="#fe6a16"/><path d="m123.136719 321.789062 21.210937-21.210937 67.070313 67.070313-21.214844 21.210937zm0 0" fill="#383838"/><path d="m164.738281 280.1875 21.214844-21.210938 67.066406 67.070313-21.210937 21.210937zm0 0" fill="#383838"/><g fill="#2c2c2c"><path d="m156.671875 355.324219 21.210937-21.210938 33.535157 33.535157-21.210938 21.210937zm0 0"/><path d="m198.273438 313.722656 21.210937-21.210937 33.535156 33.535156-21.210937 21.210937zm0 0"/></g></svg>