<svg id="Layer_1" enable-background="new 0 0 128 128" height="512" viewBox="0 0 128 128" width="512" xmlns="http://www.w3.org/2000/svg"><g><g><path d="m89.648 77.598c9.299-6.8 14.021-14.534 14.021-23.103 0-20.374-18.624-47.669-37.669-47.669s-37.669 27.295-37.669 47.669c0 10.244 7.05 18.013 13.938 23.163-7.539 5.468-12.455 14.34-12.455 24.344v20.172c0 1.654 1.346 3 3 3h66.373c1.654 0 3-1.346 3-3v-20.172c0-10.041-4.954-18.941-12.539-24.404z" fill="#e6e7e8"/></g><g><path d="m83.944 73.628c7.174-5.023 14.725-12.711 14.725-23.133 0-19.147-17.522-46.669-36.669-46.669s-36.669 27.522-36.669 46.669c0 10.33 7.647 18.143 14.691 23.155-7.949 5.186-13.208 14.152-13.208 24.352v20.173c0 1.105.896 2 2 2h66.373c1.105 0 2-.895 2-2v-20.173c-.001-10.214-5.274-19.191-13.243-24.374z" fill="#fa759e"/><g><path d="m62 6.826c18.58 0 35.628 25.915 36.621 44.947.025-.422.048-.846.048-1.277 0-19.148-17.522-46.67-36.669-46.67s-36.669 27.522-36.669 46.669c0 .402.028.794.051 1.189 1.041-19.023 18.067-44.858 36.618-44.858z" fill="#fff"/></g><g><path d="m62 69.541c-3.15 0-6.148-.646-8.872-1.809v.269c0 4.9 8.872 10.872 8.872 10.872s8.872-5.972 8.872-10.872v-.269c-2.724 1.163-5.722 1.809-8.872 1.809z" fill="#fff"/></g><g><path d="m62 18.166c-8.487 0-16.607 6.103-22.608 14.325v14.442c0 12.486 10.122 22.608 22.608 22.608s22.608-10.122 22.608-22.608v-14.442c-6.001-8.222-14.121-14.325-22.608-14.325z" fill="#fff"/><g><g fill="#ffd7e5"><path d="m74.894 49.323c-1.109 0-2.008.567-2.008 1.266s.899 1.266 2.008 1.266 2.008-.567 2.008-1.266-.899-1.266-2.008-1.266z"/><ellipse cx="49.106" cy="50.308" rx="2.008" ry="1.266"/></g><g><path d="m62 61.74c-3.442 0-5.195-2.373-5.268-2.474-.323-.448-.223-1.073.226-1.396.447-.322 1.068-.222 1.392.22.058.077 1.268 1.65 3.65 1.65 2.373 0 3.647-1.646 3.66-1.663.332-.439.959-.528 1.4-.193.44.333.527.961.193 1.401-.074.1-1.898 2.455-5.253 2.455z" fill="#fa759e"/></g></g></g><path d="m73.46 109.451c2.678-2.83 4.331-6.639 4.331-10.843 0-8.721-7.07-15.792-15.792-15.792s-15.792 7.07-15.792 15.792c0 4.204 1.653 8.013 4.332 10.843z" fill="#6dc9f7"/><path d="m73.821 109.451h-23.642l-2 10.723h27.642z" fill="#0089ef"/><g><path d="m66.853 87.519.312.922c.193.57.641 1.018 1.211 1.211l.922.312-.922.312c-.57.193-1.018.641-1.211 1.211l-.312.922-.312-.922c-.193-.57-.641-1.018-1.211-1.211l-.922-.312.922-.312c.57-.193 1.018-.641 1.211-1.211z" fill="#d4fbff"/></g><g><path d="m69.417 94.057.652 1.924c.403 1.19 1.337 2.124 2.527 2.527l1.924.652-1.924.652c-1.19.403-2.124 1.337-2.527 2.527l-.652 1.924-.652-1.924c-.403-1.19-1.337-2.124-2.527-2.527l-1.924-.652 1.924-.652c1.19-.403 2.124-1.337 2.527-2.527z" fill="#d4fbff"/></g><g><circle cx="38" cy="111.785" fill="#fff" r="8.39"/><g><circle cx="86" cy="111.785" fill="#fff" r="8.39"/><g fill="#3a2c60"><path d="m85.641 73.603c9.304-6.801 14.028-14.537 14.028-23.108 0-20.373-18.624-47.669-37.669-47.669s-37.669 27.296-37.669 47.669c0 10.247 7.054 18.017 13.944 23.168-7.54 5.467-12.461 14.334-12.461 24.339v20.173c0 1.654 1.346 3 3 3h66.373c1.654 0 3-1.346 3-3v-20.173c-.001-10.042-4.959-18.936-12.546-24.399zm-40.251 38.182c0 4.075-3.315 7.39-7.39 7.39s-7.39-3.315-7.39-7.39 3.315-7.39 7.39-7.39 7.39 3.315 7.39 7.39zm27.632-3.334h-22.044c-2.434-2.72-3.77-6.199-3.77-9.843 0-8.156 6.635-14.792 14.791-14.792s14.792 6.636 14.792 14.792c.001 3.644-1.335 7.122-3.769 9.843zm-23.638 10.723.627-3.362h8.239c.553 0 1-.448 1-1s-.447-1-1-1h-7.866l.627-3.361h21.979l.627 3.361h-3.45c-.553 0-1 .448-1 1s.447 1 1 1h3.823l.627 3.362zm36.616-14.779c4.074 0 7.39 3.315 7.39 7.39s-3.315 7.39-7.39 7.39-7.39-3.315-7.39-7.39 3.316-7.39 7.39-7.39zm10.186 13.779c0 .551-.448 1-1 1h-3.413c2.197-1.72 3.617-4.39 3.617-7.39 0-5.177-4.212-9.39-9.39-9.39-.612 0-1.209.063-1.789.176v-10.796c0-.552-.447-1-1-1s-1 .448-1 1v11.427c-3.294 1.46-5.601 4.755-5.601 8.584 0 3 1.42 5.669 3.617 7.39h-3.575l-1.824-9.78c2.553-3.03 3.964-6.816 3.964-10.786 0-9.259-7.533-16.792-16.792-16.792s-16.791 7.533-16.791 16.792c0 3.971 1.411 7.758 3.964 10.786l-1.824 9.78h-3.576c2.197-1.72 3.617-4.39 3.617-7.39 0-3.828-2.306-7.124-5.6-8.584v-11.427c0-.552-.447-1-1-1s-1 .448-1 1v10.797c-.58-.112-1.177-.176-1.79-.176-5.178 0-9.39 4.212-9.39 9.39 0 3 1.42 5.669 3.617 7.39h-3.413c-.552 0-1-.449-1-1v-20.173c0-9.578 4.835-18.035 12.18-23.1 5.647 3.906 10.767 6.001 11.244 6.191.122.049.248.072.372.072.396 0 .771-.238.929-.629.205-.513-.044-1.095-.557-1.3-.257-.103-25.65-10.482-25.65-28.741-.001-19.519 17.634-45.669 35.668-45.669s35.669 26.15 35.669 45.669c0 10.999-8.578 20.644-25.496 28.667l-.21.1c-.499.237-.712.833-.475 1.332.237.5.832.713 1.332.475l.209-.099c4.102-1.945 7.713-3.995 10.874-6.138 7.403 5.057 12.284 13.548 12.284 23.171v20.171z"/><path d="m85.608 46.933v-11.174c1.985 3.084 3.659 6.37 4.932 9.646.154.396.532.638.933.638.121 0 .243-.022.362-.068.515-.2.77-.779.57-1.294-4.94-12.715-15.923-26.353-28.771-27.437-.058-.005-.116-.012-.174-.017-.484-.036-.971-.06-1.46-.06-.49 0-.976.024-1.461.06-.057.005-.114.012-.172.017-12.849 1.081-23.832 14.72-28.772 27.436-.199.515.056 1.094.57 1.294s1.094-.055 1.295-.57c1.272-3.276 2.947-6.561 4.932-9.646v11.174c0 9.508 5.654 17.716 13.773 21.453.386 5.172 8.347 10.691 9.277 11.317.169.114.364.17.559.17s.39-.057.559-.17c.93-.626 8.891-6.144 9.277-11.317 8.118-3.736 13.771-11.944 13.771-21.452zm-45.216 0v-6.586c1.022-3.689 2.818-7.148 5.309-10.127.777-.929 1.686-1.714 2.676-2.367-.89 1.911-1.397 4.035-1.397 6.283 0 .711.067 1.405.162 2.09h5.874l1.462-4.415 1.153 4.415h1.711l.546-5.826.619 5.826h11.846l.922-2.33 1.02 2.33h4.521c.096-.685.162-1.379.162-2.09 0-2.265-.516-4.403-1.418-6.325 1.015.66 1.945 1.46 2.738 2.409 2.491 2.979 4.286 6.437 5.309 10.126v6.588c0 11.915-9.693 21.608-21.608 21.608s-21.607-9.695-21.607-21.609zm21.608 30.721c-2.307-1.653-6.63-5.281-7.65-8.393 2.401.825 4.973 1.279 7.65 1.279s5.249-.454 7.65-1.279c-1.022 3.109-5.343 6.739-7.65 8.393z"/><path d="m52.026 42.507c-1.249 0-2.261 1.012-2.261 2.261s1.012 2.261 2.261 2.261 2.261-1.012 2.261-2.261-1.013-2.261-2.261-2.261z"/><path d="m71.974 42.507c-1.249 0-2.261 1.012-2.261 2.261s1.012 2.261 2.261 2.261 2.261-1.012 2.261-2.261-1.012-2.261-2.261-2.261z"/><path d="m65.571 52.26v-1.507c0-.552-.447-1-1-1s-1 .448-1 1v1.507c0 .866-.705 1.571-1.571 1.571s-1.571-.705-1.571-1.571v-1.507c0-.552-.447-1-1-1s-1 .448-1 1v1.507c0 1.969 1.603 3.571 3.571 3.571s3.571-1.602 3.571-3.571z"/><path d="m70.254 40.389 4.427.771c.059.01.116.015.173.015.478 0 .899-.342.984-.828.095-.544-.27-1.062-.813-1.157l-4.427-.771c-.553-.091-1.063.27-1.157.813-.095.544.269 1.062.813 1.157z"/><path d="m53.402 38.419-4.427.771c-.544.095-.908.613-.813 1.157.085.486.507.828.984.828.057 0 .114-.005.173-.015l4.427-.771c.544-.095.908-.613.813-1.157-.095-.543-.605-.905-1.157-.813z"/><path d="m66.458 113.813h-4.166c-.553 0-1 .448-1 1s.447 1 1 1h4.166c.553 0 1-.448 1-1s-.447-1-1-1z"/></g></g></g></g></g></svg>