<svg height="512" viewBox="0 0 512 512" width="512" xmlns="http://www.w3.org/2000/svg"><path d="m208.587 24-102.793 288.322c-.57-.057-1.122-.18-1.7-.218-22-1.444-42.354 12.2-50.651 33.958l-25.619 67.172a56.821 56.821 0 0 0 4.058 49.394c8.835 14.972 23.426 24.178 40.018 25.272 22 1.443 42.355-12.2 50.652-33.958l25.621-67.173a56.812 56.812 0 0 0 -4.059-49.393 54.736 54.736 0 0 0 -6.525-8.8 78.031 78.031 0 0 1 31.986-29.938l39.81-125.825a242.272 242.272 0 0 0 -.798-148.813zm-88.508 350.7-25.62 67.16c-3.377 8.852-11.658 14.4-20.606 13.817a20.343 20.343 0 0 1 -16.285-10.284 23.117 23.117 0 0 1 -1.647-20.088l25.621-67.165c3.376-8.851 11.657-14.4 20.605-13.818a20.341 20.341 0 0 1 16.284 10.285 23.11 23.11 0 0 1 1.648 20.093z" fill="#f7a116"/><path d="m279.66 426.56c-3.25-28.98-28.9-50.23-58.32-49.33l-79.74-223.68-46.19-129.55a242.311 242.311 0 0 0 -.8 148.81l16.26 51.38 23.55 74.45a78.481 78.481 0 0 1 22.12 16.6 76.779 76.779 0 0 1 14.8 23.06l19.88 48.36a54.95 54.95 0 0 0 -24.93 49.76c2.2 30.46 30.83 54.18 62.05 51.35 29.61-2.69 51.66-26.91 51.66-55.12a54.572 54.572 0 0 0 -.34-6.09zm-53.93 29.63c-13.4 1.43-25.44-7.99-26.9-21.03s8.2-24.77 21.59-26.19 25.44 7.99 26.91 21.03-8.21 24.77-21.6 26.19z" fill="#ffb531"/><path d="m280 432.65c0 28.21-22.05 52.43-51.66 55.12-31.22 2.83-59.85-20.89-62.05-51.35a54.95 54.95 0 0 1 24.93-49.76l-19.88-48.36a76.779 76.779 0 0 0 -14.8-23.06 78.481 78.481 0 0 0 -22.12-16.6l-23.55-74.45c10.5-21.81 20.74-45.27 30.73-70.64l79.74 223.68c29.42-.9 55.07 20.35 58.32 49.33a54.572 54.572 0 0 1 .34 6.09z" fill="#ffa912"/><path d="m144 256h16v16h-16z" fill="#ffcb73"/><path d="m448.846 272.656-88.846-16.656v-72h-48-48v72l-88.846 16.659a48 48 0 0 0 -39.154 47.177v128.164h352v-128.167a48 48 0 0 0 -39.154-47.177z" fill="#fec9a3"/><path d="m360 240v-56h-96v56a90.2 90.2 0 0 0 96 0z" fill="#feb784"/><path d="m488 319.83v136.17a32 32 0 0 1 -32 32h-288a32.143 32.143 0 0 1 -5.67-.5h-.01a32.019 32.019 0 0 1 -26.32-31.5v-136.16a48 48 0 0 1 39.15-47.18l72.85-13.66 16-3 48 16.47 48-16.47 48 9 40.85 7.66c1.11.21 2.2.45 3.27.73a48 48 0 0 1 35.88 46.44z" fill="#e0e0de"/><path d="m280 408v-146.509l-16-5.491-16 3v149z" fill="#d6d6d4"/><path d="m488 319.83v136.17a32 32 0 0 1 -32 32h-288a32.143 32.143 0 0 1 -5.67-.5c96.53-18.28 245.24-69.93 289.79-214.11a48 48 0 0 1 35.88 46.44z" fill="#d6d6d4"/><path d="m296 272.473h32v215.527h-32z" fill="#3d4d63"/><path d="m296 280v20.8l16-12.8 16 12.8v-20.8l-16-7.527z" fill="#374559"/><path d="m440 368-48 24-256 16v48a32 32 0 0 0 32 32h40l191.839-41.123 48.161-6.877h40v-72z" fill="#feb784"/><path d="m232 392-48-24h-48v72h40l48.161 6.88 7.839 1.12 184 40h40a32 32 0 0 0 32-32v-48z" fill="#fec9a3"/><path d="m387.2 488h-22.4a4.8 4.8 0 0 1 -4.8-4.8v-251.2a32 32 0 0 1 32 32v219.2a4.8 4.8 0 0 1 -4.8 4.8z" fill="#ffb531"/><path d="m360 344v139.2a4.8 4.8 0 0 0 4.8 4.8h22.4a4.8 4.8 0 0 0 4.8-4.8v-171.2z" fill="#ffa912"/><path d="m360 472h32a0 0 0 0 1 0 0v11.2a4.8 4.8 0 0 1 -4.8 4.8h-22.4a4.8 4.8 0 0 1 -4.8-4.8v-11.2a0 0 0 0 1 0 0z" fill="#e0e0de"/><path d="m264 232a0 0 0 0 1 0 0v187.2a4.8 4.8 0 0 1 -4.8 4.8h-22.4a4.8 4.8 0 0 1 -4.8-4.8v-155.2a32 32 0 0 1 32-32z" fill="#ffb531"/><path d="m232 392v27.2a4.8 4.8 0 0 0 4.8 4.8h22.4a4.8 4.8 0 0 0 4.8-4.8v-59.2z" fill="#ffa912"/><path d="m232 408h32a0 0 0 0 1 0 0v11.2a4.8 4.8 0 0 1 -4.8 4.8h-22.4a4.8 4.8 0 0 1 -4.8-4.8v-11.2a0 0 0 0 1 0 0z" fill="#e0e0de"/><path d="m240 424h19.2a4.8 4.8 0 0 0 4.8-4.8v-11.2h-8z" fill="#d6d6d4"/><path d="m368 488h19.2a4.8 4.8 0 0 0 4.8-4.8v-11.2h-8z" fill="#d6d6d4"/><path d="m248 424v10.575a5.425 5.425 0 0 0 5.425 5.425h21.15a5.425 5.425 0 0 0 5.425-5.425v-39.575l-16-1v25.2a4.8 4.8 0 0 1 -4.8 4.8z" fill="#fec093"/><path d="m392.001 402v80.782l16 3.479v-83.261z" fill="#fec093"/><path d="m408 265v111h-16v-114z" fill="#d6d6d4"/><path d="m310.51 24 30.013 40h19.84l-30.013-40z" fill="#82462a"/><path d="m261.847 24 31.05 40h20.095l-31.051-40z" fill="#82462a"/><path d="m384 96v56a72 72 0 0 1 -144 0v-56a72.006 72.006 0 0 1 72-72c.89 0 1.79.02 2.67.05a72.005 72.005 0 0 1 69.33 71.95z" fill="#fec9a3"/><path d="m384 96v56a72.035 72.035 0 0 1 -58.26 70.69 87.683 87.683 0 0 0 26.26-62.69v-64a88.12 88.12 0 0 0 -37.33-71.95 72.005 72.005 0 0 1 69.33 71.95z" fill="#fec093"/><path d="m384 104v66.86a64.032 64.032 0 0 1 -5.17 25.21l-12.6 29.38a23.994 23.994 0 0 1 -22.06 14.55h-64.34a23.984 23.984 0 0 1 -22.06-14.55l-12.6-29.38a64.032 64.032 0 0 1 -5.17-25.21v-66.86l29.7 51.97a7.991 7.991 0 0 0 6.94 4.03h70.72a7.908 7.908 0 0 0 4.64-1.5 7.768 7.768 0 0 0 2.3-2.53z" fill="#82462a"/><path d="m384 104v66.86a64.032 64.032 0 0 1 -5.17 25.21l-12.6 29.38a23.994 23.994 0 0 1 -22.06 14.55h-43.47a88 88 0 0 0 51.3-80v-1.5a7.768 7.768 0 0 0 2.3-2.53z" fill="#743b20"/><circle cx="276" cy="116" fill="#7a432a" r="12"/><circle cx="348" cy="116" fill="#7a432a" r="12"/><path d="m282.459 115.999h43.081v16.002h-43.081z" fill="#f7a468" transform="matrix(.371 -.929 .929 .371 76.052 360.287)"/><path d="m240 120v-32c0-26.51 17.909-48 40-48l-1.407 5.068c-7.843 28.232-21.056 53.888-38.593 74.932z" fill="#82462a"/><path d="m384 120v-55.015a25.754 25.754 0 0 0 -32-24.985v24s14.463 34.956 32 56z" fill="#743b20"/><path d="m384 58.42v5.58h-104a40 40 0 0 1 -40-40h109.58a34.415 34.415 0 0 1 34.42 34.42z" fill="#82462a"/><path d="m384 58.42v5.58h-38a88.326 88.326 0 0 0 -31.41-40h34.99a34.415 34.415 0 0 1 34.42 34.42z" fill="#743b20"/><path d="m303.084 192h-15.084v-16h15.084c11.095 0 21.835-2.516 29.456-6.906l8.167 13.812c-10.177 5.867-23.536 9.094-37.623 9.094z" fill="#fec9a3"/><path d="m391.845 104h-7.845v48h7.845a24 24 0 0 0 24.155-23.845v-.309a24 24 0 0 0 -24.155-23.846z" fill="#feb784"/><path d="m232.087 104h-.395a24 24 0 0 0 0 48h8.308v-47.995z" fill="#feb784"/><g fill="#ebebe9"><path d="m360 255.997-48 16.476 36.258 29.864z"/><path d="m312 272.473-48-16.473 11.741 46.338z"/></g></svg>