<?xml version="1.0" encoding="iso-8859-1"?>
<!-- Generator: Adobe Illustrator 21.0.0, SVG Export Plug-In . SVG Version: 6.00 Build 0)  -->
<svg xmlns="http://www.w3.org/2000/svg" xmlns:xlink="http://www.w3.org/1999/xlink" version="1.1" id="Capa_1" x="0px" y="0px" viewBox="0 0 512 512" style="enable-background:new 0 0 512 512;" xml:space="preserve" width="512" height="512">
<g>
	<path d="M123.466,147.534h62.78c10.158,29.54,38.049,49.7,69.753,49.7s59.595-20.16,69.753-49.7h62.78c4.142,0,7.5-3.357,7.5-7.5   v-99.4c0-4.143-3.358-7.5-7.5-7.5h-42.2V15.002h9.066c4.142,0,7.5-3.358,7.5-7.5c0-4.143-3.358-7.5-7.5-7.5h-16.528   c-0.013,0-0.026-0.002-0.039-0.002c-0.013,0-0.026,0.002-0.039,0.002h-16.527c-4.142,0-7.5,3.357-7.5,7.5   c0,4.142,3.358,7.5,7.5,7.5h9.065v18.132H180.665V15.002h9.066c4.142,0,7.5-3.358,7.5-7.5c0-4.143-3.358-7.5-7.5-7.5h-16.528   c-0.013,0-0.026-0.002-0.039-0.002c-0.013,0-0.026,0.002-0.039,0.002H156.6c-4.142,0-7.5,3.357-7.5,7.5c0,4.142,3.358,7.5,7.5,7.5   h9.065v18.132h-42.2c-4.142,0-7.5,3.357-7.5,7.5v99.4C115.966,144.177,119.324,147.534,123.466,147.534z M130.966,48.134h34.7   v9.067c0,4.143,3.358,7.5,7.5,7.5c4.142,0,7.5-3.357,7.5-7.5v-9.067h150.667v9.067c0,4.143,3.358,7.5,7.5,7.5   c4.142,0,7.5-3.357,7.5-7.5v-9.067h34.7v84.4h-60.854c-3.422,0-6.41,2.316-7.263,5.631c-6.679,25.947-30.083,44.069-56.916,44.069   s-50.237-18.122-56.916-44.069c-0.853-3.314-3.841-5.631-7.263-5.631h-60.854V48.134z"/>
	<path d="M255.999,164.1c13.271,0,24.067-10.797,24.067-24.067c0-4.143-3.358-7.5-7.5-7.5c-4.142,0-7.5,3.357-7.5,7.5   c0,5-4.067,9.067-9.067,9.067c-4.999,0-9.066-4.067-9.066-9.067c0-4.143-3.358-7.5-7.5-7.5s-7.5,3.357-7.5,7.5   C231.933,153.303,242.73,164.1,255.999,164.1z"/>
	<path d="M487.932,497h-9.067v-25.633c0-4.143-3.358-7.5-7.5-7.5h-9.065V313.2h25.632c4.142,0,7.5-3.357,7.5-7.5v-33.134   c0-4.143-3.358-7.5-7.5-7.5h-42.198v-25.633c0-4.143-3.358-7.5-7.5-7.5h-0.782l0.001-42.199c0-13.271-10.796-24.066-24.067-24.066   h-49.704c-13.271,0-24.067,10.796-24.067,24.066v42.199h-0.781c-4.142,0-7.5,3.357-7.5,7.5v25.633H263.5v-25.632   c0-4.143-3.358-7.5-7.5-7.5h-33.132c-4.142,0-7.5,3.357-7.5,7.5v25.632h-51.27v-25.632c0-4.143-3.358-7.5-7.5-7.5h-33.132   c-4.142,0-7.5,3.357-7.5,7.5v25.632H97.833v-58.766c0-4.143-3.358-7.5-7.5-7.5H57.201c-4.142,0-7.5,3.357-7.5,7.5v58.766H24.069   c-4.142,0-7.5,3.357-7.5,7.5V305.7c0,4.143,3.358,7.5,7.5,7.5h25.632v150.667h-9.067c-4.142,0-7.5,3.357-7.5,7.5V497h-9.066   c-4.142,0-7.5,3.357-7.5,7.5s3.358,7.5,7.5,7.5h45.547c4.142,0,7.5-3.357,7.5-7.5s-3.358-7.5-7.5-7.5H48.134v-18.133h52.854   L99.855,497h-0.239c-4.142,0-7.5,3.357-7.5,7.5s3.358,7.5,7.5,7.5h388.316c4.142,0,7.5-3.357,7.5-7.5S492.074,497,487.932,497z    M354.614,189.734c0-4.999,4.067-9.066,9.067-9.066h49.704c5,0,9.067,4.067,9.067,9.066l-0.001,42.199h-67.837V189.734z    M346.333,246.934h84.4v18.133h-84.4V246.934z M230.368,246.935H248.5v18.132h-18.132V246.935z M130.966,246.935h18.132v18.132   h-18.132V246.935z M64.701,213.801h18.132v51.266H64.701V213.801z M57.182,298.2H31.569v-18.134h25.632h33.132h33.133h33.132h66.27   H256h82.833h99.4h42.198V298.2h-25.613c-0.007,0-0.013-0.001-0.019-0.001H57.201C57.195,298.199,57.188,298.2,57.182,298.2z    M114.884,497l1.133-18.133h48.032L165.183,497H114.884z M159.908,412.599l3.204,51.268h-46.157l3.204-51.268H159.908z    M121.096,397.599l1.133-18.129h35.609l1.133,18.129H121.096z M165.665,364.467h-0.782h-49.7h-0.785v-18.133h51.267V364.467z    M215.821,497h-35.609l-1.133-18.133h37.876L215.821,497z M230.85,497l1.133-18.133h48.032L281.148,497H230.85z M275.875,412.599   l3.203,51.268h-46.157l3.204-51.268H275.875z M237.063,397.599l1.133-18.129h35.609l1.133,18.129H237.063z M281.631,364.467h-0.781   h-49.7h-0.785v-18.133h51.266V364.467z M331.789,497h-35.611l-1.133-18.133h37.878L331.789,497z M346.818,497l1.133-18.133h48.032   L397.116,497H346.818z M391.842,412.599l3.204,51.268h-46.157l3.204-51.268H391.842z M353.03,397.599l1.133-18.129h35.609   l1.133,18.129H353.03z M397.599,364.467h-0.781h-49.7h-0.785v-18.133h51.266V364.467z M406.504,406.718   c0.115-0.522,0.18-1.063,0.18-1.62c0-0.88-0.159-1.721-0.438-2.505l-1.445-23.123h8.583c4.142,0,7.5-3.357,7.5-7.5   s-3.358-7.5-7.5-7.5h-0.785v-25.636c0-4.143-3.358-7.5-7.5-7.5h-66.266c-4.142,0-7.5,3.357-7.5,7.5v25.636h-0.782   c-4.142,0-7.5,3.357-7.5,7.5s3.358,7.5,7.5,7.5h8.583l-1.445,23.123c-0.279,0.785-0.438,1.626-0.438,2.506   c0,0.557,0.065,1.098,0.18,1.62l-3.572,57.148h-39.752l-3.571-57.148c0.115-0.522,0.18-1.063,0.18-1.62   c0-0.88-0.159-1.721-0.438-2.505l-1.445-23.123h8.584c4.142,0,7.5-3.357,7.5-7.5s-3.358-7.5-7.5-7.5h-0.786v-25.636   c0-4.143-3.358-7.5-7.5-7.5h-66.266c-4.142,0-7.5,3.357-7.5,7.5v25.636h-0.782c-4.142,0-7.5,3.357-7.5,7.5s3.358,7.5,7.5,7.5h8.583   l-1.445,23.125c-0.278,0.784-0.438,1.625-0.438,2.504c0,0.556,0.065,1.097,0.18,1.618l-3.572,57.149h-39.751l-3.571-57.148   c0.115-0.522,0.18-1.063,0.18-1.619c0-0.88-0.159-1.721-0.438-2.505l-1.445-23.124h8.583c4.142,0,7.5-3.357,7.5-7.5   s-3.358-7.5-7.5-7.5h-0.785v-25.636c0-4.143-3.358-7.5-7.5-7.5h-66.267c-4.142,0-7.5,3.357-7.5,7.5v25.636h-0.782   c-4.142,0-7.5,3.357-7.5,7.5s3.358,7.5,7.5,7.5h8.583l-1.445,23.125c-0.278,0.784-0.438,1.625-0.438,2.504   c0,0.556,0.065,1.097,0.18,1.618l-3.572,57.149H64.701V313.2h382.598v150.666h-37.224L406.504,406.718z M463.864,497h-51.719   l-1.133-18.133h52.852V497z"/>
</g>















</svg>
