<?xml version="1.0" encoding="iso-8859-1"?>
<!-- Generator: Adobe Illustrator 21.0.0, SVG Export Plug-In . SVG Version: 6.00 Build 0)  -->
<svg xmlns="http://www.w3.org/2000/svg" xmlns:xlink="http://www.w3.org/1999/xlink" version="1.1" id="Capa_1" x="0px" y="0px" viewBox="0 0 512 512" style="enable-background:new 0 0 512 512;" xml:space="preserve" width="512" height="512">
<g>
	<path style="fill:#787780;" d="M429.951,244.433l0.001-54.698c0-9.15-7.417-16.567-16.567-16.567h-49.704   c-9.15,0-16.567,7.417-16.567,16.567v54.698H429.951z"/>
	<path style="fill:#57555C;" d="M413.385,173.168h-22c9.15,0,16.567,7.417,16.567,16.567l-0.001,54.698h22l0.001-54.698   C429.952,180.585,422.535,173.168,413.385,173.168z"/>
	<rect x="57.201" y="297.667" style="fill:#787780;" width="397.598" height="181.732"/>
	<rect x="432.799" y="297.667" style="fill:#57555C;" width="22" height="181.732"/>
	<path style="fill:#CAE8F9;" d="M382.532,40.634H129.466c-3.314,0-6,2.686-6,6v87.4c0,3.314,2.686,6,6,6h57.862   c2.626,0,4.905,1.721,5.728,4.214c8.717,26.419,33.604,45.486,62.943,45.486s54.225-19.067,62.943-45.486   c0.823-2.493,3.102-4.214,5.728-4.214h57.863c3.314,0,6-2.686,6-6v-87.4C388.532,43.32,385.846,40.634,382.532,40.634z"/>
	<g>
		<g>
			<g>
				<path style="fill:#787780;" d="M173.165,64.701c-4.142,0-7.5-3.357-7.5-7.5V7.5c0-4.143,3.358-7.5,7.5-7.5      c4.142,0,7.5,3.357,7.5,7.5v49.701C180.665,61.344,177.308,64.701,173.165,64.701z"/>
			</g>
		</g>
		<g>
			<g>
				<path style="fill:#787780;" d="M338.832,64.701c-4.142,0-7.5-3.357-7.5-7.5V7.5c0-4.143,3.358-7.5,7.5-7.5      c4.142,0,7.5,3.357,7.5,7.5v49.701C346.332,61.344,342.975,64.701,338.832,64.701z"/>
			</g>
		</g>
	</g>
	<g>
		<g>
			<path style="fill:#18A7FC;" d="M255.999,164.1c-13.27,0-24.066-10.796-24.066-24.066c0-4.143,3.358-7.5,7.5-7.5     s7.5,3.357,7.5,7.5c0,4.999,4.067,9.066,9.066,9.066c5,0,9.067-4.067,9.067-9.066c0-4.143,3.358-7.5,7.5-7.5     c4.142,0,7.5,3.357,7.5,7.5C280.066,153.304,269.27,164.1,255.999,164.1z"/>
		</g>
	</g>
	<path style="fill:#CAE8F9;" d="M438.233,277.25h-99.4v-31.816c0-3.314,2.686-6,6-6h87.4c3.314,0,6,2.686,6,6V277.25z"/>
	<path style="fill:#AADBF6;" d="M432.233,239.434h-22c3.314,0,6,2.686,6,6v31.816h22v-31.816   C438.233,242.12,435.547,239.434,432.233,239.434z"/>
	<path style="fill:#32D736;" d="M90.333,277.25H57.201v-64.949c0-3.314,2.686-6,6-6h21.132c3.314,0,6,2.686,6,6V277.25z"/>
	<path style="fill:#18A7FC;" d="M156.598,277.25h-33.132v-31.816c0-3.314,2.686-6,6-6h21.132c3.314,0,6,2.686,6,6V277.25z"/>
	<path style="fill:#32D736;" d="M256,277.25h-33.132v-31.816c0-3.314,2.686-6,6-6H250c3.314,0,6,2.686,6,6V277.25z"/>
	<path style="fill:#CAE8F9;" d="M465.364,471.367H46.634c-3.314,0-6,2.686-6,6v27.132h430.73v-27.132   C471.364,474.053,468.678,471.367,465.364,471.367z"/>
	<path style="fill:#AADBF6;" d="M465.364,471.367h-22c3.314,0,6,2.686,6,6v27.132h22v-27.132   C471.364,474.053,468.678,471.367,465.364,471.367z"/>
	<path style="fill:#787780;" d="M487.932,497H24.068c-4.142,0-7.5,3.358-7.5,7.5s3.358,7.5,7.5,7.5h463.863   c4.142,0,7.5-3.358,7.5-7.5S492.074,497,487.932,497z"/>
	<g>
		<path style="fill:#AADBF6;" d="M296.942,144.248c-7.604,23.044-27.511,40.49-51.943,44.573c3.578,0.598,7.252,0.913,11,0.913    c29.339,0,54.225-19.067,62.943-45.486c0.823-2.494,3.102-4.214,5.728-4.214h-22C300.044,140.034,297.765,141.754,296.942,144.248    z"/>
		<path style="fill:#AADBF6;" d="M382.532,40.634h-22c3.314,0,6,2.686,6,6v87.4c0,3.314-2.686,6-6,6h22c3.314,0,6-2.686,6-6v-87.4    C388.532,43.32,385.846,40.634,382.532,40.634z"/>
	</g>
	<path style="fill:#FEDB41;" d="M481.931,305.699H30.066c-3.314,0-6-2.686-6-6v-21.13c0-3.314,2.686-6,6-6h451.866   c3.314,0,6,2.686,6,6v21.13C487.931,303.012,485.245,305.699,481.931,305.699z"/>
	<path style="fill:#FCBF29;" d="M481.931,272.568h-22c3.314,0,6,2.686,6,6v21.13c0,3.314-2.686,6-6,6h22c3.314,0,6-2.686,6-6v-21.13   C487.931,275.255,485.245,272.568,481.931,272.568z"/>
	<g>
		<g>
			<g>
				<path style="fill:#FCBF29;" d="M398.184,412.599h-52.433c-4.142,0-7.5-3.357-7.5-7.5c0-4.143,3.358-7.5,7.5-7.5h52.433      c4.142,0,7.5,3.357,7.5,7.5C405.684,409.241,402.326,412.599,398.184,412.599z"/>
			</g>
		</g>
		<g>
			<g>
				<path style="fill:#FEDB41;" d="M338.842,511.995c-0.158,0-0.315-0.005-0.475-0.015c-4.134-0.259-7.276-3.819-7.018-7.953      l8.283-132.528c0.247-3.953,3.525-7.032,7.485-7.032h49.7c3.96,0,7.238,3.079,7.485,7.032l8.281,132.528      c0.258,4.134-2.883,7.695-7.018,7.953c-4.135,0.252-7.695-2.885-7.953-7.018l-7.842-125.496h-35.608l-7.843,125.496      C346.072,508.938,342.771,511.995,338.842,511.995z"/>
			</g>
		</g>
		<g>
			<path style="fill:#32D736;" d="M405.099,371.967h-66.266v-27.133c0-3.314,2.686-6,6-6h54.266c3.314,0,6,2.686,6,6V371.967z"/>
			<path style="fill:#10BB67;" d="M399.099,338.834h-22c3.314,0,6,2.686,6,6v27.136h22v-27.136     C405.099,341.52,402.413,338.834,399.099,338.834z"/>
			<g>
				<g>
					<path style="fill:#CAE8F9;" d="M407.384,379.47h-69.833c-4.142,0-7.5-3.357-7.5-7.5s3.358-7.5,7.5-7.5h69.833       c4.142,0,7.5,3.357,7.5,7.5S411.526,379.47,407.384,379.47z"/>
				</g>
			</g>
		</g>
	</g>
	<g>
		<g>
			<g>
				<path style="fill:#FCBF29;" d="M281.716,412.599h-52.433c-4.142,0-7.5-3.357-7.5-7.5c0-4.143,3.358-7.5,7.5-7.5h52.433      c4.142,0,7.5,3.357,7.5,7.5C289.216,409.241,285.858,412.599,281.716,412.599z"/>
			</g>
		</g>
		<g>
			<g>
				<path style="fill:#FEDB41;" d="M222.374,511.995c-0.158,0-0.315-0.005-0.475-0.015c-4.134-0.259-7.276-3.819-7.018-7.953      l8.283-132.528c0.247-3.953,3.525-7.032,7.485-7.032h49.7c3.96,0,7.238,3.079,7.485,7.032l8.281,132.528      c0.258,4.134-2.883,7.695-7.018,7.953c-4.135,0.252-7.695-2.885-7.953-7.018l-7.842-125.496h-35.608l-7.843,125.496      C229.604,508.938,226.303,511.995,222.374,511.995z"/>
			</g>
		</g>
		<g>
			<path style="fill:#32D736;" d="M288.632,371.967h-66.266v-27.133c0-3.314,2.686-6,6-6h54.266c3.314,0,6,2.686,6,6V371.967z"/>
			<path style="fill:#10BB67;" d="M282.632,338.834h-22c3.314,0,6,2.686,6,6v27.136h22v-27.136     C288.632,341.52,285.945,338.834,282.632,338.834z"/>
			<g>
				<g>
					<path style="fill:#CAE8F9;" d="M290.917,379.47h-69.833c-4.142,0-7.5-3.357-7.5-7.5s3.358-7.5,7.5-7.5h69.833       c4.142,0,7.5,3.357,7.5,7.5S295.059,379.47,290.917,379.47z"/>
				</g>
			</g>
		</g>
	</g>
	<g>
		<g>
			<g>
				<path style="fill:#FCBF29;" d="M166.246,412.599h-52.433c-4.142,0-7.5-3.357-7.5-7.5c0-4.143,3.358-7.5,7.5-7.5h52.433      c4.142,0,7.5,3.357,7.5,7.5C173.746,409.241,170.388,412.599,166.246,412.599z"/>
			</g>
		</g>
		<g>
			<g>
				<path style="fill:#FEDB41;" d="M106.904,511.995c-0.158,0-0.315-0.005-0.475-0.015c-4.134-0.259-7.276-3.819-7.018-7.953      l8.283-132.528c0.247-3.953,3.525-7.032,7.485-7.032h49.7c3.96,0,7.238,3.079,7.485,7.032l8.281,132.528      c0.258,4.134-2.883,7.695-7.018,7.953c-4.135,0.252-7.695-2.885-7.953-7.018l-7.842-125.496h-35.608l-7.843,125.496      C114.134,508.938,110.832,511.995,106.904,511.995z"/>
			</g>
		</g>
		<g>
			<path style="fill:#32D736;" d="M173.161,371.967h-66.266v-27.133c0-3.314,2.686-6,6-6h54.266c3.314,0,6,2.686,6,6V371.967z"/>
			<path style="fill:#10BB67;" d="M167.161,338.834h-22c3.314,0,6,2.686,6,6v27.136h22v-27.136     C173.161,341.52,170.475,338.834,167.161,338.834z"/>
			<g>
				<g>
					<path style="fill:#CAE8F9;" d="M175.446,379.47h-69.833c-4.142,0-7.5-3.357-7.5-7.5s3.358-7.5,7.5-7.5h69.833       c4.142,0,7.5,3.357,7.5,7.5S179.588,379.47,175.446,379.47z"/>
				</g>
			</g>
		</g>
	</g>
	<g>
		<g>
			<path style="fill:#FEDB41;" d="M189.732,15.002H156.6c-4.142,0-7.5-3.358-7.5-7.5c0-4.143,3.358-7.5,7.5-7.5h33.132     c4.142,0,7.5,3.357,7.5,7.5C197.232,11.644,193.874,15.002,189.732,15.002z"/>
		</g>
	</g>
	<g>
		<g>
			<path style="fill:#FEDB41;" d="M355.399,15.002h-33.132c-4.142,0-7.5-3.358-7.5-7.5c0-4.143,3.358-7.5,7.5-7.5h33.132     c4.142,0,7.5,3.357,7.5,7.5C362.899,11.644,359.541,15.002,355.399,15.002z"/>
		</g>
	</g>
</g>















</svg>
