<svg id="Capa_1" enable-background="new 0 0 512 512" height="512" viewBox="0 0 512 512" width="512" xmlns="http://www.w3.org/2000/svg"><g><g fill="#dcd2cd"><path d="m111.279 212.649v25.04c0 6.391 5.181 11.572 11.572 11.572h28.301v-48.184h-28.301c-6.391 0-11.572 5.181-11.572 11.572z"/><path d="m360.848 201.077v48.184h28.301c6.391 0 11.572-5.181 11.572-11.572v-25.04c0-6.391-5.181-11.572-11.572-11.572z"/></g><path d="m360.867 60.751c10.163-9.185 16.882-21.951 19.506-35.448.333-1.712-1.397-3.091-2.976-2.349-17.701 8.321-39.432 3.776-57.939-3.537-19.807-7.826-39.197-18.652-60.481-19.381-15.81-.542-31.935 4.961-43.442 15.817-11.507 10.855-17.999 27.101-16.161 42.814 1.838 15.712 12.339 30.354 27.013 36.265l89.143 23.557c16.419 1.855 33.439-2.137 47.322-11.098 12.776-8.247 22.834-22.719 28.308-37.231.588-1.559-.797-3.132-2.431-2.804-8.929 1.795-18.806.412-27.289-3.075-1.436-.59-1.725-2.489-.573-3.53z" fill="#d97b7b"/><path d="m388.729 67.356c-4.339.872-8.902.989-13.42.483-3.759 4.206-7.934 7.918-12.458 10.838-13.883 8.961-30.902 12.953-47.322 11.098l-89.143-23.557c-11.891-4.79-21.04-15.315-25.061-27.496-1.992 6.439-2.736 13.239-1.952 19.945 1.838 15.712 12.339 30.354 27.013 36.265l89.143 23.557c16.419 1.854 33.439-2.137 47.322-11.098 12.777-8.247 22.834-22.719 28.308-37.231.589-1.56-.796-3.132-2.43-2.804z" fill="#d16161"/><path d="m235.759 58.119v41.494h40.482v-41.494c0-11.179-9.062-20.241-20.241-20.241s-20.241 9.062-20.241 20.241z" fill="#655e67"/><path d="m246.603 76.848h18.793c48.877 0 88.499 39.622 88.499 88.499v28.695h-195.79v-28.695c0-48.877 39.622-88.499 88.498-88.499z" fill="#dcd2cd"/><path d="m265.397 76.848s-21.498.042-22.841.102c46.996 2.117 84.451 40.878 84.451 88.396v28.695h26.889v-28.695c-.001-48.876-39.623-88.498-88.499-88.498z" fill="#c8beb9"/><path d="m275.979 310.657c-12.539-1.634-27.418-1.634-39.957 0-146.528 19.09-218.702 201.343-119.416 201.343h278.789c99.285 0 27.111-182.253-119.416-201.343z" fill="#f0e9e6"/><path d="m375.8 354.441-210.927 157.559h54.073l176.348-131.729-18.979-25.407c-.172-.141-.343-.283-.515-.423z" fill="#766d78"/><path d="m256 389.698c50.996 0 95.376-14.735 118.302-36.472-26.47-21.275-59.829-37.554-98.324-42.569-12.539-1.634-27.418-1.634-39.957 0-38.495 5.015-71.853 21.295-98.324 42.569 22.927 21.737 67.308 36.472 118.303 36.472z" fill="#dcd2cd"/><path d="m302.257 142.347h-92.514c-1.581 0-3.142.353-4.569 1.032l-54.182 25.808c-1.85.881-3.028 2.747-3.028 4.796v97.822c0 3.273 1.509 6.364 4.09 8.377l81.086 63.241c1.867 1.456 4.166 2.247 6.534 2.247h32.651c2.367 0 4.667-.791 6.534-2.247l81.086-63.241c2.581-2.013 4.09-5.104 4.09-8.377v-97.822c0-2.049-1.178-3.915-3.028-4.796l-54.182-25.808c-1.427-.68-2.987-1.032-4.568-1.032z" fill="#f0e9e6"/><g fill="#655e67"><path d="m186.992 245.392c-4.143 0-7.5-3.358-7.5-7.5v-23.371c0-4.142 3.357-7.5 7.5-7.5s7.5 3.358 7.5 7.5v23.371c0 4.142-3.357 7.5-7.5 7.5z"/><path d="m221.495 259.414c-4.143 0-7.5-3.358-7.5-7.5v-51.416c0-4.142 3.357-7.5 7.5-7.5s7.5 3.358 7.5 7.5v51.416c0 4.142-3.357 7.5-7.5 7.5z"/><path d="m255.999 280.816c-4.143 0-7.5-3.358-7.5-7.5v-94.221c0-4.142 3.357-7.5 7.5-7.5s7.5 3.358 7.5 7.5v94.221c0 4.142-3.357 7.5-7.5 7.5z"/><path d="m290.503 259.414c-4.143 0-7.5-3.358-7.5-7.5v-51.416c0-4.142 3.357-7.5 7.5-7.5s7.5 3.358 7.5 7.5v51.416c0 4.142-3.357 7.5-7.5 7.5z"/><path d="m325.009 245.392c-4.143 0-7.5-3.358-7.5-7.5v-23.371c0-4.142 3.357-7.5 7.5-7.5s7.5 3.358 7.5 7.5v23.371c0 4.142-3.358 7.5-7.5 7.5z"/></g><path d="m403.992 495.563 57.312-4.266c7.655-.57 13.494-7.068 13.244-14.74-.967-29.715-9.652-100.289-67.895-138.627-4.272-2.812-6.735-7.681-6.375-12.782.56-7.942 1.118-15.351 1.598-21.53.598-7.701-7.627-12.938-14.365-9.16-20.923 11.732-57.241 34.929-74.685 62.911-7.032 11.279-7.356 25.5-.981 37.164 1.75 3.201 3.391 6.128 4.923 8.798 7.969 13.891 25.603 18.817 39.612 11.058 3.859-2.138 8.715-1.024 11.236 2.597 8.629 12.392 26.245 41.089 24.915 67.188-.332 6.498 4.971 11.872 11.461 11.389z" fill="#f7f3f1"/><g fill="#ebe1dc"><path d="m406.653 337.929c-4.272-2.812-6.735-7.681-6.375-12.782.56-7.942 1.118-15.351 1.598-21.53.598-7.701-7.627-12.938-14.365-9.16-4.612 2.586-9.972 5.73-15.713 9.358-.001.012.001.024 0 .036-.48 6.318-1.038 13.893-1.598 22.014-.36 5.216 2.103 10.195 6.375 13.07 58.244 39.201 66.928 111.363 67.895 141.747.16 5.022-2.183 9.543-5.892 12.306l22.726-1.692c7.655-.57 13.494-7.068 13.244-14.74-.966-29.715-9.651-100.289-67.895-138.627z"/><path d="m331.63 416.088c.938.362 1.894.672 2.862.936-.895-.481-1.864-.799-2.862-.936z"/></g><path d="m473.99 466.53c-28.03 1.71-55.52 9.99-79.8 24.05-1.16-1.84-1.779-4.048-1.659-6.408.16-3.2.039-6.422-.321-9.662v-.01c24.67-13.22 52.13-21.08 80.11-22.89.78 5.38 1.31 10.4 1.67 14.92z" fill="#dcd2cd"/><path d="m460.27 405.74c-28.82 5.73-55.55 20.45-75.61 41.66-2.17-5.1-4.59-9.92-7-14.28 20.87-20.51 47.56-34.99 76.29-41.38 2.36 4.65 4.46 9.33 6.32 14z" fill="#dcd2cd"/><path d="m108.008 495.563-57.312-4.266c-7.655-.57-13.494-7.068-13.244-14.74.967-29.715 9.652-100.289 67.895-138.627 4.272-2.812 6.735-7.681 6.375-12.782-.56-7.942-1.118-15.351-1.598-21.53-.598-7.701 7.627-12.938 14.365-9.16 20.923 11.732 57.241 34.929 74.685 62.911 7.032 11.279 7.356 25.5.981 37.164-1.75 3.201-3.391 6.128-4.923 8.798-7.969 13.891-25.603 18.817-39.612 11.058-3.859-2.138-8.715-1.024-11.236 2.597-8.629 12.392-26.245 41.089-24.915 67.188.332 6.498-4.971 11.872-11.461 11.389z" fill="#f7f3f1"/><path d="m119.79 474.51c-.36 3.24-.481 6.462-.321 9.662.12 2.36-.499 4.568-1.659 6.408-24.28-14.06-51.77-22.34-79.8-24.05.36-4.52.89-9.54 1.67-14.92 27.98 1.81 55.44 9.67 80.11 22.89z" fill="#dcd2cd"/><path d="m134.34 433.12c-2.41 4.36-4.83 9.18-7 14.28-20.06-21.21-46.79-35.93-75.61-41.66 1.86-4.67 3.96-9.35 6.32-14 28.73 6.39 55.42 20.87 76.29 41.38z" fill="#dcd2cd"/><path d="m256.845 416.976-18.747 14.003c-1.88 1.405-2.266 4.068-.861 5.948l39.521 52.907c1.405 1.88 4.067 2.266 5.948.861l18.747-14.003c1.88-1.405 2.266-4.068.861-5.948l-39.521-52.907c-1.405-1.88-4.068-2.266-5.948-.861z" fill="#f3d69e"/></g></svg>