<?xml version="1.0" encoding="iso-8859-1"?>
<!-- Generator: Adobe Illustrator 19.0.0, SVG Export Plug-In . SVG Version: 6.00 Build 0)  -->
<svg version="1.1" id="Layer_1" xmlns="http://www.w3.org/2000/svg" xmlns:xlink="http://www.w3.org/1999/xlink" x="0px" y="0px"
	 viewBox="0 0 512 512" style="enable-background:new 0 0 512 512;" xml:space="preserve">
<path style="fill:#464655;" d="M344.276,264.828H256h-88.276c-8.828,0-26.483,8.875-26.483,26.483
	C141.241,345.553,256,423.724,256,476.69c0-52.966,114.759-131.137,114.759-185.379
	C370.759,273.703,353.103,264.828,344.276,264.828z"/>
<path style="fill:#E6B47D;" d="M149.734,325.715c17.079,41.937,58.193,71.527,106.266,71.527s89.187-29.59,106.267-71.527
	l-21.821-4.85c-8.078-1.795-13.825-8.96-13.825-17.235v-38.803H185.379v38.803c0,8.276-5.747,15.439-13.825,17.235L149.734,325.715z
	"/>
<path style="fill:#D2A073;" d="M171.554,320.865l-20.843,4.632l-0.601,1.052c0.015,0.035,0.032,0.07,0.047,0.105
	C256.04,370.7,326.621,273.66,326.621,273.66v-8.828H185.379v38.798C185.379,311.906,179.633,319.07,171.554,320.865z"/>
<path style="fill:#F0C891;" d="M132.407,167.724v22.073c0,10.676,7.582,19.581,17.655,21.625v16.235
	c0,17.709,8.17,34.247,21.771,44.07l39.249,28.346c8.031,5.801,17.468,8.896,27.121,8.896h35.582c9.652,0,19.089-3.095,27.119-8.896
	l39.249-28.346c13.601-9.823,21.771-26.36,21.771-44.07v-16.235c10.073-2.045,17.655-10.95,17.655-21.625v-22.073H132.407z"/>
<path style="fill:#E6B47D;" d="M361.924,194.207H353.1c-5.557,0-10.791,2.616-14.125,7.063l-15.886,21.184
	c-3.335,4.446-8.567,7.063-14.125,7.063H203.034c-5.557,0-10.79-2.616-14.124-7.062l-15.89-21.186
	c-3.335-4.446-8.567-7.062-14.124-7.062h-8.828l-0.007,33.451c0,17.709,8.17,34.247,21.771,44.07l39.249,28.346
	c8.031,5.8,17.468,8.896,27.121,8.896h35.601c9.651,0,19.086-3.095,27.116-8.896l39.243-28.346
	c13.6-9.823,21.769-26.361,21.769-44.07L361.924,194.207z"/>
<g>
	<path style="fill:#5A4137;" d="M211.855,194.211L211.855,194.211c-4.855,0-8.828-3.972-8.828-8.828v-8.828
		c0-4.855,3.972-8.828,8.828-8.828l0,0c4.855,0,8.828,3.972,8.828,8.828v8.828C220.683,190.239,216.711,194.211,211.855,194.211z"/>
	<path style="fill:#5A4137;" d="M300.131,194.211L300.131,194.211c-4.855,0-8.828-3.972-8.828-8.828v-8.828
		c0-4.855,3.972-8.828,8.828-8.828l0,0c4.855,0,8.828,3.972,8.828,8.828v8.828C308.959,190.239,304.986,194.211,300.131,194.211z"/>
</g>
<path style="fill:#D2A073;" d="M273.652,264.831h-35.31c-4.879,0-8.828-3.948-8.828-8.828c0-4.879,3.948-8.828,8.828-8.828h35.31
	c4.879,0,8.828,3.948,8.828,8.828C282.479,260.883,278.531,264.831,273.652,264.831z"/>
<path style="fill:#464655;" d="M141.241,141.241h229.517c4.875,0,8.828,3.953,8.828,8.828v17.655c0,4.875-3.953,8.828-8.828,8.828
	H141.241c-4.875,0-8.828-3.953-8.828-8.828v-17.655C132.414,145.194,136.366,141.241,141.241,141.241z"/>
<path style="fill:#5B5D6E;" d="M370.759,141.241H141.241v-26.483C141.241,51.379,192.62,0,256,0l0,0
	c63.38,0,114.759,51.379,114.759,114.759V141.241z"/>
<path style="fill:#707487;" d="M438.711,341.401l-60.983-15.245l-6.969-34.846c0,9.833-3.864,20.471-10.041,31.584
	C332.829,373.084,256,433.325,256,476.69c0-43.364-76.829-103.606-104.717-153.795c-6.176-11.113-10.041-21.751-10.041-31.584
	l-6.969,34.846l-60.983,15.245c-27.508,6.877-46.806,31.593-46.806,59.948v92.995c0,9.75,7.905,17.655,17.655,17.655h423.724
	c9.75,0,17.655-7.905,17.655-17.655V401.35C485.517,372.994,466.219,348.278,438.711,341.401z"/>
<g>
	<path style="fill:#5B5D6E;" d="M90.418,408.211L42.426,360.22c-9.907,11.049-15.944,25.468-15.944,41.13v92.995
		c0,9.75,7.905,17.655,17.655,17.655h61.793v-66.337C105.931,431.616,100.351,418.144,90.418,408.211z"/>
	<path style="fill:#5B5D6E;" d="M421.582,408.211l47.991-47.991c9.907,11.049,15.944,25.468,15.944,41.13v92.995
		c0,9.75-7.905,17.655-17.655,17.655h-61.793v-66.337C406.069,431.616,411.649,418.144,421.582,408.211z"/>
</g>
<g>
</g>
<g>
</g>
<g>
</g>
<g>
</g>
<g>
</g>
<g>
</g>
<g>
</g>
<g>
</g>
<g>
</g>
<g>
</g>
<g>
</g>
<g>
</g>
<g>
</g>
<g>
</g>
<g>
</g>
</svg>
