<svg height="512" viewBox="0 0 128 128" width="512" xmlns="http://www.w3.org/2000/svg"><g><circle cx="64" cy="63.997" fill="#ffc839" r="62.25" transform="matrix(.16 -.987 .987 .16 -9.422 116.919)"/><g fill="#ff9100"><path d="m62.25 1.791v14.956a1.75 1.75 0 0 0 3.5 0v-14.956c-.583-.016-1.163-.044-1.75-.044s-1.167.028-1.75.044z"/><path d="m64 109.5a1.751 1.751 0 0 0 -1.75 1.75v14.95c.583.016 1.163.044 1.75.044s1.167-.028 1.75-.044v-14.953a1.751 1.751 0 0 0 -1.75-1.747z"/><path d="m96.173 29.349a1.75 1.75 0 0 0 2.475 2.475l10.577-10.577q-1.2-1.272-2.474-2.475z"/><path d="m29.352 96.17-10.577 10.578q1.2 1.272 2.474 2.474l10.578-10.577a1.75 1.75 0 1 0 -2.475-2.475z"/><path d="m126.206 62.247h-14.956a1.75 1.75 0 0 0 0 3.5h14.956c.016-.583.044-1.163.044-1.75s-.028-1.167-.044-1.75z"/><path d="m16.75 62.247h-14.956c-.016.583-.044 1.163-.044 1.753s.028 1.167.044 1.75h14.956a1.75 1.75 0 0 0 0-3.5z"/><path d="m96.173 96.17a1.751 1.751 0 0 0 0 2.475l10.578 10.577q1.27-1.2 2.474-2.474l-10.577-10.578a1.751 1.751 0 0 0 -2.475 0z"/><path d="m21.249 18.772q-1.272 1.2-2.474 2.475l10.577 10.577a1.75 1.75 0 0 0 2.475-2.475z"/></g><circle cx="64" cy="63.997" fill="#2d3c6b" r="47.25"/><g fill="#73c3f9"><path d="m83.312 88.313h-38.625l-5.004-32.875 16.311 15.011 8.006-15.011 8.006 15.011 16.31-15.011z"/><circle cx="64" cy="44.75" r="5.063"/><circle cx="88.316" cy="44.75" r="5.062"/><circle cx="39.683" cy="44.75" r="5.063"/></g></g></svg>