<svg id="Solid" height="512" viewBox="0 0 512 512" width="512" xmlns="http://www.w3.org/2000/svg"><path d="m260 64h-7.792l-77 112h168.792zm12 80h-32a8 8 0 0 1 -8-8v-16a24 24 0 0 1 48 0v16a8 8 0 0 1 -8 8z"/><path d="m232 208v-8a23.889 23.889 0 0 1 1.376-8h-18.752a23.889 23.889 0 0 1 1.376 8v8z"/><path d="m248 200v8h16v-8a8 8 0 0 0 -16 0z"/><path d="m296 208v-8a23.889 23.889 0 0 1 1.376-8h-18.752a23.889 23.889 0 0 1 1.376 8v8z"/><path d="m312 200v8h16v-8a8 8 0 0 0 -16 0z"/><path d="m360 208v-16h-17.376a23.889 23.889 0 0 1 1.376 8v8z"/><path d="m328 424a8 8 0 0 0 -16 0v8h16z"/><path d="m264 424a8 8 0 0 0 -16 0v8h16z"/><path d="m200 424a8 8 0 0 0 -16 0v8h16z"/><path d="m152 480h208v-128h-208zm168-112a8 8 0 1 1 -8 8 8 8 0 0 1 8-8zm-24 56a24 24 0 0 1 48 0v16a8 8 0 0 1 -8 8h-32a8 8 0 0 1 -8-8zm-40-56a8 8 0 1 1 -8 8 8 8 0 0 1 8-8zm-24 56a24 24 0 0 1 48 0v16a8 8 0 0 1 -8 8h-32a8 8 0 0 1 -8-8zm-40-56a8 8 0 1 1 -8 8 8 8 0 0 1 8-8zm-24 56a24 24 0 0 1 48 0v16a8 8 0 0 1 -8 8h-32a8 8 0 0 1 -8-8z"/><path d="m168 200a23.889 23.889 0 0 1 1.376-8h-17.376v16h16z"/><path d="m136 320h240v16h-240z"/><path d="m184 296v8h16v-8a8 8 0 0 0 -16 0z"/><path d="m312 296v8h16v-8a8 8 0 0 0 -16 0z"/><path d="m136 224h240v16h-240z"/><path d="m184 200v8h16v-8a8 8 0 0 0 -16 0z"/><path d="m248 296v8h16v-8a8 8 0 0 0 -16 0z"/><path d="m360 304v-48h-208v48h16v-8a24 24 0 0 1 48 0v8h16v-8a24 24 0 0 1 48 0v8h16v-8a24 24 0 0 1 48 0v8z"/><path d="m256 112a8.009 8.009 0 0 0 -8 8v8h16v-8a8.009 8.009 0 0 0 -8-8z"/><path d="m368 176h-224a8 8 0 0 1 0-16h224a8 8 0 0 1 0 16z"/><path d="m264 24v24h-16v-24a8 8 0 0 1 16 0z"/></svg>