<?xml version="1.0" encoding="UTF-8" standalone="no" ?>
<!DOCTYPE svg PUBLIC "-//W3C//DTD SVG 1.1//EN" "http://www.w3.org/Graphics/SVG/1.1/DTD/svg11.dtd">
<svg xmlns="http://www.w3.org/2000/svg" xmlns:xlink="http://www.w3.org/1999/xlink" version="1.1" width="240" height="240" viewBox="0 0 240 240" xml:space="preserve">
<desc>Created with Fabric.js 4.2.0</desc>
<defs>
</defs>
<rect x="0" y="0" width="100%" height="100%" fill="transparent"></rect>
<g transform="matrix(1 0 0 1 120 120)" id="270bfea7-d04e-49ff-82f1-618e25929b9b"  >
<rect style="stroke: none; stroke-width: 1; stroke-dasharray: none; stroke-linecap: butt; stroke-dashoffset: 0; stroke-linejoin: miter; stroke-miterlimit: 4; fill: rgb(255,255,255); fill-opacity: 0; fill-rule: nonzero; opacity: 1;" vector-effect="non-scaling-stroke"  x="-120" y="-120" rx="0" ry="0" width="240" height="240" />
</g>
<g transform="matrix(Infinity NaN NaN Infinity 0 0)" id="de792c1d-a81b-4fa3-814a-837ca95bb92b"  >
</g>
<g transform="matrix(0.47 0 0 0.47 119.84 119.72)"  >
<g style="" vector-effect="non-scaling-stroke"   >
		<g transform="matrix(1 0 0 1 0 24)"  >
<path style="stroke: none; stroke-width: 1; stroke-dasharray: none; stroke-linecap: butt; stroke-dashoffset: 0; stroke-linejoin: miter; stroke-miterlimit: 4; fill: rgb(224,185,153); fill-rule: nonzero; opacity: 1;" vector-effect="non-scaling-stroke"  transform=" translate(-256, -280)" d="M 144 248 L 368 248 L 368 312 L 144 312 z" stroke-linecap="round" />
</g>
		<g transform="matrix(1 0 0 1 0 160)"  >
<path style="stroke: none; stroke-width: 1; stroke-dasharray: none; stroke-linecap: butt; stroke-dashoffset: 0; stroke-linejoin: miter; stroke-miterlimit: 4; fill: rgb(224,185,153); fill-rule: nonzero; opacity: 1;" vector-effect="non-scaling-stroke"  transform=" translate(-256, -416)" d="M 144 344 L 368 344 L 368 488 L 144 488 z" stroke-linecap="round" />
</g>
		<g transform="matrix(1 0 0 1 0 -24)"  >
<path style="stroke: none; stroke-width: 1; stroke-dasharray: none; stroke-linecap: butt; stroke-dashoffset: 0; stroke-linejoin: miter; stroke-miterlimit: 4; fill: rgb(247,204,169); fill-rule: nonzero; opacity: 1;" vector-effect="non-scaling-stroke"  transform=" translate(-256, -232)" d="M 128 216 L 384 216 L 384 248 L 128 248 z" stroke-linecap="round" />
</g>
		<g transform="matrix(1 0 0 1 0 72)"  >
<path style="stroke: none; stroke-width: 1; stroke-dasharray: none; stroke-linecap: butt; stroke-dashoffset: 0; stroke-linejoin: miter; stroke-miterlimit: 4; fill: rgb(247,204,169); fill-rule: nonzero; opacity: 1;" vector-effect="non-scaling-stroke"  transform=" translate(-256, -328)" d="M 128 312 L 384 312 L 384 344 L 128 344 z" stroke-linecap="round" />
</g>
		<g transform="matrix(1 0 0 1 0 -56)"  >
<path style="stroke: none; stroke-width: 1; stroke-dasharray: none; stroke-linecap: butt; stroke-dashoffset: 0; stroke-linejoin: miter; stroke-miterlimit: 4; fill: rgb(224,185,153); fill-rule: nonzero; opacity: 1;" vector-effect="non-scaling-stroke"  transform=" translate(-256, -200)" d="M 144 184 L 368 184 L 368 216 L 144 216 z" stroke-linecap="round" />
</g>
		<g transform="matrix(1 0 0 1 0 -208)"  >
<path style="stroke: none; stroke-width: 1; stroke-dasharray: none; stroke-linecap: butt; stroke-dashoffset: 0; stroke-linejoin: miter; stroke-miterlimit: 4; fill: rgb(106,112,115); fill-rule: nonzero; opacity: 1;" vector-effect="non-scaling-stroke"  transform=" translate(-256, -48)" d="M 256 72 C 251.58172200135365 72 248 68.41827799864635 248 64 L 248 32 C 248 27.581722001353654 251.58172200135365 24 256 24 C 260.4182779986464 24 264 27.58172200135365 264 31.999999999999996 L 264 64 C 264 68.41827799864635 260.4182779986464 72 256 72 z" stroke-linecap="round" />
</g>
		<g transform="matrix(1 0 0 1 4 -136)"  >
<path style="stroke: none; stroke-width: 1; stroke-dasharray: none; stroke-linecap: butt; stroke-dashoffset: 0; stroke-linejoin: miter; stroke-miterlimit: 4; fill: rgb(126,133,137); fill-rule: nonzero; opacity: 1;" vector-effect="non-scaling-stroke"  transform=" translate(-260, -120)" d="M 360 184 L 160 184 L 248 56 L 264 56 z" stroke-linecap="round" />
</g>
		<g transform="matrix(1 0 0 1 0 -136)"  >
<path style="stroke: none; stroke-width: 1; stroke-dasharray: none; stroke-linecap: butt; stroke-dashoffset: 0; stroke-linejoin: miter; stroke-miterlimit: 4; fill: rgb(106,112,115); fill-rule: nonzero; opacity: 1;" vector-effect="non-scaling-stroke"  transform=" translate(-256, -120)" d="M 256 104 C 247.1634440027073 104 240 111.16344400270731 240 120 L 240 136 L 272 136 L 272 120 C 272 111.16344400270731 264.8365559972927 104 256 104 z" stroke-linecap="round" />
</g>
		<g transform="matrix(1 0 0 1 0 -56)"  >
<path style="stroke: none; stroke-width: 1; stroke-dasharray: none; stroke-linecap: butt; stroke-dashoffset: 0; stroke-linejoin: miter; stroke-miterlimit: 4; fill: rgb(115,75,57); fill-rule: nonzero; opacity: 1;" vector-effect="non-scaling-stroke"  transform=" translate(-256, -200)" d="M 256 184 C 247.1634440027073 184 240 191.1634440027073 240 200 L 240 216 L 272 216 L 272 200 C 272 191.1634440027073 264.8365559972927 184 256 184 z" stroke-linecap="round" />
</g>
		<g transform="matrix(1 0 0 1 64 -56)"  >
<path style="stroke: none; stroke-width: 1; stroke-dasharray: none; stroke-linecap: butt; stroke-dashoffset: 0; stroke-linejoin: miter; stroke-miterlimit: 4; fill: rgb(115,75,57); fill-rule: nonzero; opacity: 1;" vector-effect="non-scaling-stroke"  transform=" translate(-320, -200)" d="M 320 184 C 311.1634440027073 184 304 191.1634440027073 304 200 L 304 216 L 336 216 L 336 200 C 336 191.1634440027073 328.8365559972927 184 320 184 z" stroke-linecap="round" />
</g>
		<g transform="matrix(1 0 0 1 -64 -56)"  >
<path style="stroke: none; stroke-width: 1; stroke-dasharray: none; stroke-linecap: butt; stroke-dashoffset: 0; stroke-linejoin: miter; stroke-miterlimit: 4; fill: rgb(115,75,57); fill-rule: nonzero; opacity: 1;" vector-effect="non-scaling-stroke"  transform=" translate(-192, -200)" d="M 192 184 C 183.1634440027073 184 176 191.1634440027073 176 200 L 176 216 L 208 216 L 208 200 C 208 191.1634440027073 200.8365559972927 184 192 184 z" stroke-linecap="round" />
</g>
		<g transform="matrix(1 0 0 1 -64 168)"  >
<path style="stroke: none; stroke-width: 1; stroke-dasharray: none; stroke-linecap: butt; stroke-dashoffset: 0; stroke-linejoin: miter; stroke-miterlimit: 4; fill: rgb(115,75,57); fill-rule: nonzero; opacity: 1;" vector-effect="non-scaling-stroke"  transform=" translate(-192, -424)" d="M 192 408 C 183.1634440027073 408 176 415.1634440027073 176 424 L 176 440 L 208 440 L 208 424 C 208 415.1634440027073 200.8365559972927 408 192 408 z" stroke-linecap="round" />
</g>
		<g transform="matrix(1 0 0 1 0 168)"  >
<path style="stroke: none; stroke-width: 1; stroke-dasharray: none; stroke-linecap: butt; stroke-dashoffset: 0; stroke-linejoin: miter; stroke-miterlimit: 4; fill: rgb(115,75,57); fill-rule: nonzero; opacity: 1;" vector-effect="non-scaling-stroke"  transform=" translate(-256, -424)" d="M 256 408 C 247.1634440027073 408 240 415.1634440027073 240 424 L 240 440 L 272 440 L 272 424 C 272 415.1634440027073 264.8365559972927 408 256 408 z" stroke-linecap="round" />
</g>
		<g transform="matrix(1 0 0 1 64 168)"  >
<path style="stroke: none; stroke-width: 1; stroke-dasharray: none; stroke-linecap: butt; stroke-dashoffset: 0; stroke-linejoin: miter; stroke-miterlimit: 4; fill: rgb(115,75,57); fill-rule: nonzero; opacity: 1;" vector-effect="non-scaling-stroke"  transform=" translate(-320, -424)" d="M 320 408 C 311.1634440027073 408 304 415.1634440027073 304 424 L 304 440 L 336 440 L 336 424 C 336 415.1634440027073 328.8365559972927 408 320 408 z" stroke-linecap="round" />
</g>
		<g transform="matrix(1 0 0 1 0 40)"  >
<path style="stroke: none; stroke-width: 1; stroke-dasharray: none; stroke-linecap: butt; stroke-dashoffset: 0; stroke-linejoin: miter; stroke-miterlimit: 4; fill: rgb(115,75,57); fill-rule: nonzero; opacity: 1;" vector-effect="non-scaling-stroke"  transform=" translate(-256, -296)" d="M 256 280 C 247.1634440027073 280 240 287.1634440027073 240 296 L 240 312 L 272 312 L 272 296 C 272 287.1634440027073 264.8365559972927 280 256 280 z" stroke-linecap="round" />
</g>
		<g transform="matrix(1 0 0 1 64 40)"  >
<path style="stroke: none; stroke-width: 1; stroke-dasharray: none; stroke-linecap: butt; stroke-dashoffset: 0; stroke-linejoin: miter; stroke-miterlimit: 4; fill: rgb(115,75,57); fill-rule: nonzero; opacity: 1;" vector-effect="non-scaling-stroke"  transform=" translate(-320, -296)" d="M 320 280 C 311.1634440027073 280 304 287.1634440027073 304 296 L 304 312 L 336 312 L 336 296 C 336 287.1634440027073 328.8365559972927 280 320 280 z" stroke-linecap="round" />
</g>
		<g transform="matrix(1 0 0 1 -64 40)"  >
<path style="stroke: none; stroke-width: 1; stroke-dasharray: none; stroke-linecap: butt; stroke-dashoffset: 0; stroke-linejoin: miter; stroke-miterlimit: 4; fill: rgb(115,75,57); fill-rule: nonzero; opacity: 1;" vector-effect="non-scaling-stroke"  transform=" translate(-192, -296)" d="M 192 280 C 183.1634440027073 280 176 287.1634440027073 176 296 L 176 312 L 208 312 L 208 296 C 208 287.1634440027073 200.8365559972927 280 192 280 z" stroke-linecap="round" />
</g>
		<g transform="matrix(1 0 0 1 -64 120)"  >
<circle style="stroke: none; stroke-width: 1; stroke-dasharray: none; stroke-linecap: butt; stroke-dashoffset: 0; stroke-linejoin: miter; stroke-miterlimit: 4; fill: rgb(115,75,57); fill-rule: nonzero; opacity: 1;" vector-effect="non-scaling-stroke"  cx="0" cy="0" r="8" />
</g>
		<g transform="matrix(1 0 0 1 0 120)"  >
<circle style="stroke: none; stroke-width: 1; stroke-dasharray: none; stroke-linecap: butt; stroke-dashoffset: 0; stroke-linejoin: miter; stroke-miterlimit: 4; fill: rgb(115,75,57); fill-rule: nonzero; opacity: 1;" vector-effect="non-scaling-stroke"  cx="0" cy="0" r="8" />
</g>
		<g transform="matrix(1 0 0 1 64 120)"  >
<circle style="stroke: none; stroke-width: 1; stroke-dasharray: none; stroke-linecap: butt; stroke-dashoffset: 0; stroke-linejoin: miter; stroke-miterlimit: 4; fill: rgb(115,75,57); fill-rule: nonzero; opacity: 1;" vector-effect="non-scaling-stroke"  cx="0" cy="0" r="8" />
</g>
		<g transform="matrix(1 0 0 1 0 -72)"  >
<path style="stroke: none; stroke-width: 1; stroke-dasharray: none; stroke-linecap: butt; stroke-dashoffset: 0; stroke-linejoin: miter; stroke-miterlimit: 4; fill: rgb(247,204,169); fill-rule: nonzero; opacity: 1;" vector-effect="non-scaling-stroke"  transform=" translate(-256, -184)" d="M 384 192 L 128 192 C 123.58172200135365 192 120 188.41827799864635 120 184 C 120 179.58172200135365 123.58172200135365 176 128 176 L 384 176 C 388.4182779986464 176 392 179.58172200135365 392 184 C 392 188.41827799864635 388.4182779986464 192 384 192 z" stroke-linecap="round" />
</g>
</g>
</g>
<g transform="matrix(0.11 0 0 0.11 58.6 200)"  >
<g style="" vector-effect="non-scaling-stroke"   >
		<g transform="matrix(8.83 0 0 8.83 -185.38 187.6)" id="Shape"  >
<path style="stroke: none; stroke-width: 1; stroke-dasharray: none; stroke-linecap: butt; stroke-dashoffset: 0; stroke-linejoin: miter; stroke-miterlimit: 4; fill: rgb(240,196,25); fill-rule: nonzero; opacity: 1;" vector-effect="non-scaling-stroke"  transform=" translate(-8, -51.25)" d="M 5 43.5 L 5 56 C 5 57.6568542 6.34314575 59 8 59 C 9.65685425 59 11 57.6568542 11 56 L 11 43.5 z" stroke-linecap="round" />
</g>
		<g transform="matrix(8.83 0 0 8.83 -185.38 -79.45)" id="Shape"  >
<path style="stroke: none; stroke-width: 1; stroke-dasharray: none; stroke-linecap: butt; stroke-dashoffset: 0; stroke-linejoin: miter; stroke-miterlimit: 4; fill: rgb(189,195,199); fill-rule: nonzero; opacity: 1;" vector-effect="non-scaling-stroke"  transform=" translate(-8, -21)" d="M 15.89 10.9 L 11 40 L 8 41 L 5 40 L 0.11000000000000032 10.899999999999999 C 0.038280550000000316 10.3449251 0.18928916000000032 9.784035979999999 0.5300000000000002 9.339999999999998 L 6.44 1.7699999999999978 C 6.810897430000001 1.2830624899999978 7.38789458 0.9972428199999978 8 0.9972428199999978 C 8.612105419999999 0.9972428199999978 9.18910257 1.2830624899999978 9.56 1.7699999999999978 L 15.47 9.339999999999998 C 15.8107108 9.784035979999999 15.9617194 10.344925099999998 15.89 10.899999999999999 z" stroke-linecap="round" />
</g>
		<g transform="matrix(8.83 0 0 8.83 -185.38 105.94)" id="Shape"  >
<path style="stroke: none; stroke-width: 1; stroke-dasharray: none; stroke-linecap: butt; stroke-dashoffset: 0; stroke-linejoin: miter; stroke-miterlimit: 4; fill: rgb(243,213,91); fill-rule: nonzero; opacity: 1;" vector-effect="non-scaling-stroke"  transform=" translate(-8, -42)" d="M 16 42 C 15.9918328 43.101168799999996 15.1011688 43.9918328 14 44 L 2 44 C 0.8967981300000001 43.9967052 0.003294799999999931 43.1032019 0 42 C -0.00282307 41.4694095 0.2101411 40.9604612 0.59 40.59 C 0.9604611999999999 40.2101411 1.46940947 39.99717690000001 2 40 L 14 40 C 15.1032019 40.0032948 15.996705200000001 40.8967981 16 42 z" stroke-linecap="round" />
</g>
		<g transform="matrix(8.83 0 0 8.83 -185.38 180.98)" id="Rectangle-path"  >
<path style="stroke: none; stroke-width: 1; stroke-dasharray: none; stroke-linecap: butt; stroke-dashoffset: 0; stroke-linejoin: miter; stroke-miterlimit: 4; fill: rgb(242,156,31); fill-rule: nonzero; opacity: 1;" vector-effect="non-scaling-stroke"  transform=" translate(-8, -50.5)" d="M 5 48 L 11 48 L 11 53 L 5 53 z" stroke-linecap="round" />
</g>
		<g transform="matrix(8.83 0 0 8.83 -185.38 -198.61)" id="Shape"  >
<path style="stroke: none; stroke-width: 1; stroke-dasharray: none; stroke-linecap: butt; stroke-dashoffset: 0; stroke-linejoin: miter; stroke-miterlimit: 4; fill: rgb(127,140,141); fill-rule: nonzero; opacity: 1;" vector-effect="non-scaling-stroke"  transform=" translate(-8, -7.5)" d="M 8 9 C 7.44771525 9 7 8.55228475 7 8 L 7 7 C 7 6.44771525 7.44771525 6 8 6 C 8.55228475 6 9 6.44771525 9 7 L 9 8 C 9 8.55228475 8.55228475 9 8 9 z" stroke-linecap="round" />
</g>
		<g transform="matrix(8.83 0 0 8.83 -185.38 -105.92)" id="Shape"  >
<path style="stroke: none; stroke-width: 1; stroke-dasharray: none; stroke-linecap: butt; stroke-dashoffset: 0; stroke-linejoin: miter; stroke-miterlimit: 4; fill: rgb(127,140,141); fill-rule: nonzero; opacity: 1;" vector-effect="non-scaling-stroke"  transform=" translate(-8, -18)" d="M 8 25 C 7.44771525 25 7 24.5522847 7 24 L 7 12 C 7 11.4477153 7.44771525 11 8 11 C 8.55228475 11 9 11.4477153 9 12 L 9 24 C 9 24.5522847 8.55228475 25 8 25 z" stroke-linecap="round" />
</g>
		<g transform="matrix(8.83 0 0 8.83 88.27 1.82)" id="Shape"  >
<path style="stroke: none; stroke-width: 1; stroke-dasharray: none; stroke-linecap: butt; stroke-dashoffset: 0; stroke-linejoin: miter; stroke-miterlimit: 4; fill: rgb(240,196,25); fill-rule: nonzero; opacity: 1;" vector-effect="non-scaling-stroke"  transform=" translate(-39, -30.21)" d="M 39 53 C 62.666 48.825 57.976 19.066000000000003 56.909 13.607999999999997 C 56.8158841 13.127362699999997 56.3851313 12.787182799999997 55.896 12.807999999999996 C 53.308 12.907999999999996 45.25 12.778999999999996 39.696 7.684999999999996 C 39.3034329 7.318927529999996 38.6945671 7.318927529999996 38.302 7.684999999999996 C 32.75 12.773999999999997 24.692 12.905999999999995 22.099999999999998 12.799999999999997 C 21.610868699999997 12.779182799999997 21.180115899999997 13.119362699999996 21.086999999999996 13.599999999999998 C 20.023999999999997 19.066 15.333999999999996 48.825 39 53 z" stroke-linecap="round" />
</g>
		<g transform="matrix(8.83 0 0 8.83 161.02 90.1)" id="Shape"  >
<path style="stroke: none; stroke-width: 1; stroke-dasharray: none; stroke-linecap: butt; stroke-dashoffset: 0; stroke-linejoin: miter; stroke-miterlimit: 4; fill: rgb(230,76,60); fill-rule: nonzero; opacity: 1;" vector-effect="non-scaling-stroke"  transform=" translate(-47.24, -40.2)" d="M 53.48 32 C 53.0081688 35.5940489 51.740738799999995 39.0376324 49.769999999999996 42.08 C 47.683258599999995 45.156878999999996 44.57751579999999 47.3985383 41 48.41 L 41 36.709999999999994 C 43.2642407 36.03544229999999 45.0354423 34.264240699999995 45.71 31.999999999999993 z" stroke-linecap="round" />
</g>
		<g transform="matrix(8.83 0 0 8.83 183.75 0.01)" id="Shape"  >
<path style="stroke: none; stroke-width: 1; stroke-dasharray: none; stroke-linecap: butt; stroke-dashoffset: 0; stroke-linejoin: miter; stroke-miterlimit: 4; fill: rgb(189,195,199); fill-rule: nonzero; opacity: 1;" vector-effect="non-scaling-stroke"  transform=" translate(-49.82, -30)" d="M 53.92 28 C 53.8415082 29.339953 53.6946503 30.675024399999998 53.480000000000004 32 L 45.71000000000001 32 C 46.096641000000005 30.6946963 46.096641000000005 29.3053037 45.71000000000001 28 z" stroke-linecap="round" />
</g>
		<g transform="matrix(8.83 0 0 8.83 163.29 -81.6)" id="Shape"  >
<path style="stroke: none; stroke-width: 1; stroke-dasharray: none; stroke-linecap: butt; stroke-dashoffset: 0; stroke-linejoin: miter; stroke-miterlimit: 4; fill: rgb(230,76,60); fill-rule: nonzero; opacity: 1;" vector-effect="non-scaling-stroke"  transform=" translate(-47.5, -20.75)" d="M 53.92 28 L 45.71 28 C 45.0354423 25.735759299999998 43.2642407 23.9645577 41 23.29 L 41 13.51 C 44.8294531 15.5245947 49.0653547 16.6459634 53.39 16.79 C 53.9336889 20.500260599999997 54.1112097 24.254994 53.92 28 z" stroke-linecap="round" />
</g>
		<g transform="matrix(8.83 0 0 8.83 88.28 -107.95)" id="Shape"  >
<path style="stroke: none; stroke-width: 1; stroke-dasharray: none; stroke-linecap: butt; stroke-dashoffset: 0; stroke-linejoin: miter; stroke-miterlimit: 4; fill: rgb(189,195,199); fill-rule: nonzero; opacity: 1;" vector-effect="non-scaling-stroke"  transform=" translate(-39, -17.77)" d="M 41 13.51 L 41 23.29 C 39.6946963 22.903359 38.3053037 22.903359 37 23.29 L 37 13.51 C 37.6884995 13.1256973 38.3561061 12.7051052 39 12.25 C 39.6438939 12.7051052 40.3115005 13.1256973 41 13.51 z" stroke-linecap="round" />
</g>
		<g transform="matrix(8.83 0 0 8.83 88.28 113.18)" id="Shape"  >
<path style="stroke: none; stroke-width: 1; stroke-dasharray: none; stroke-linecap: butt; stroke-dashoffset: 0; stroke-linejoin: miter; stroke-miterlimit: 4; fill: rgb(189,195,199); fill-rule: nonzero; opacity: 1;" vector-effect="non-scaling-stroke"  transform=" translate(-39, -42.82)" d="M 41 36.71 L 41 48.41 C 40.3440083 48.6220636 39.6762081 48.7956917 39 48.93 C 38.3237919 48.7956917 37.6559917 48.6220636 37 48.41 L 37 36.709999999999994 C 38.3053037 37.09664099999999 39.6946963 37.09664099999999 41 36.709999999999994 z" stroke-linecap="round" />
</g>
		<g transform="matrix(8.83 0 0 8.83 15.54 90.1)" id="Shape"  >
<path style="stroke: none; stroke-width: 1; stroke-dasharray: none; stroke-linecap: butt; stroke-dashoffset: 0; stroke-linejoin: miter; stroke-miterlimit: 4; fill: rgb(230,76,60); fill-rule: nonzero; opacity: 1;" vector-effect="non-scaling-stroke"  transform=" translate(-30.76, -40.2)" d="M 37 36.71 L 37 48.41 C 33.4224842 47.3985383 30.316741399999998 45.156878999999996 28.23 42.08 C 26.2592612 39.0376324 24.9918312 35.5940489 24.52 32 L 32.29 32 C 32.9645577 34.2642407 34.7357593 36.0354423 37 36.71 z" stroke-linecap="round" />
</g>
		<g transform="matrix(8.83 0 0 8.83 13.27 -81.6)" id="Shape"  >
<path style="stroke: none; stroke-width: 1; stroke-dasharray: none; stroke-linecap: butt; stroke-dashoffset: 0; stroke-linejoin: miter; stroke-miterlimit: 4; fill: rgb(230,76,60); fill-rule: nonzero; opacity: 1;" vector-effect="non-scaling-stroke"  transform=" translate(-30.5, -20.75)" d="M 37 13.51 L 37 23.29 C 34.7357593 23.9645577 32.9645577 25.735759299999998 32.29 28 L 24.08 28 C 23.888790299999997 24.254994 24.0663111 20.5002606 24.61 16.79 C 28.9346453 16.6459634 33.1705469 15.5245947 37 13.51 z" stroke-linecap="round" />
</g>
		<g transform="matrix(8.83 0 0 8.83 88.28 0.01)" id="Shape"  >
<path style="stroke: none; stroke-width: 1; stroke-dasharray: none; stroke-linecap: butt; stroke-dashoffset: 0; stroke-linejoin: miter; stroke-miterlimit: 4; fill: rgb(243,213,91); fill-rule: nonzero; opacity: 1;" vector-effect="non-scaling-stroke"  transform=" translate(-39, -30)" d="M 46 30 C 46.001899 30.6772782 45.904187 31.3511542 45.71 32 C 45.0354423 34.2642407 43.2642407 36.0354423 41 36.71 C 39.6946963 37.096641 38.3053037 37.096641 37 36.71 C 34.7357593 36.0354423 32.9645577 34.2642407 32.29 32 C 31.903359 30.6946963 31.903359 29.3053037 32.29 28 C 32.9645577 25.735759299999998 34.7357593 23.9645577 37 23.29 C 38.3053037 22.903359 39.6946963 22.903359 41 23.29 C 43.2642407 23.9645577 45.0354423 25.735759299999998 45.71 28 C 45.904187 28.6488458 46.001899 29.3227218 46 30 z" stroke-linecap="round" />
</g>
		<g transform="matrix(8.83 0 0 8.83 -7.19 0.01)" id="Shape"  >
<path style="stroke: none; stroke-width: 1; stroke-dasharray: none; stroke-linecap: butt; stroke-dashoffset: 0; stroke-linejoin: miter; stroke-miterlimit: 4; fill: rgb(189,195,199); fill-rule: nonzero; opacity: 1;" vector-effect="non-scaling-stroke"  transform=" translate(-28.18, -30)" d="M 32 30 C 31.998101 30.6772782 32.095813 31.3511542 32.29 32 L 24.52 32 C 24.3053497 30.6750244 24.1584918 29.339953 24.08 28 L 32.29 28 C 32.095813 28.6488458 31.998101 29.3227218 32 30 z" stroke-linecap="round" />
</g>
</g>
</g>
<g transform="matrix(0.11 0 0 0.11 172.81 199.61)"  >
<g style="" vector-effect="non-scaling-stroke"   >
		<g transform="matrix(8.83 0 0 8.83 -185.37 187.61)"  >
<path style="stroke: none; stroke-width: 1; stroke-dasharray: none; stroke-linecap: butt; stroke-dashoffset: 0; stroke-linejoin: miter; stroke-miterlimit: 4; fill: rgb(240,196,25); fill-rule: nonzero; opacity: 1;" vector-effect="non-scaling-stroke"  transform=" translate(-8, -51.25)" d="M 5 43.5 L 5 56 C 5 57.6568542 6.34314575 59 8 59 C 9.65685425 59 11 57.6568542 11 56 L 11 43.5 z" stroke-linecap="round" />
</g>
		<g transform="matrix(8.83 0 0 8.83 -185.36 -79.4)"  >
<path style="stroke: none; stroke-width: 1; stroke-dasharray: none; stroke-linecap: butt; stroke-dashoffset: 0; stroke-linejoin: miter; stroke-miterlimit: 4; fill: rgb(189,195,199); fill-rule: nonzero; opacity: 1;" vector-effect="non-scaling-stroke"  transform=" translate(-8, -21)" d="M 15.89 10.9 L 11 40 L 8 41 L 5 40 L 0.11000000000000032 10.899999999999999 C 0.038280550000000316 10.3449251 0.18928916000000032 9.784035979999999 0.5300000000000002 9.339999999999998 L 6.44 1.7699999999999978 C 6.810897430000001 1.2830624899999978 7.38789458 0.9972428199999978 8 0.9972428199999978 C 8.612105419999999 0.9972428199999978 9.18910257 1.2830624899999978 9.56 1.7699999999999978 L 15.47 9.339999999999998 C 15.8107108 9.784035979999999 15.9617194 10.344925099999998 15.89 10.899999999999999 z" stroke-linecap="round" />
</g>
		<g transform="matrix(8.83 0 0 8.83 -185.36 105.95)"  >
<path style="stroke: none; stroke-width: 1; stroke-dasharray: none; stroke-linecap: butt; stroke-dashoffset: 0; stroke-linejoin: miter; stroke-miterlimit: 4; fill: rgb(243,213,91); fill-rule: nonzero; opacity: 1;" vector-effect="non-scaling-stroke"  transform=" translate(-8, -42)" d="M 16 42 C 15.9918328 43.101168799999996 15.1011688 43.9918328 14 44 L 2 44 C 0.8967981300000001 43.9967052 0.003294799999999931 43.1032019 0 42 C -0.00282307 41.4694095 0.2101411 40.9604612 0.59 40.59 C 0.9604611999999999 40.2101411 1.46940947 39.99717690000001 2 40 L 14 40 C 15.1032019 40.0032948 15.996705200000001 40.8967981 16 42 z" stroke-linecap="round" />
</g>
		<g transform="matrix(8.83 0 0 8.83 -185.37 180.98)"  >
<path style="stroke: none; stroke-width: 1; stroke-dasharray: none; stroke-linecap: butt; stroke-dashoffset: 0; stroke-linejoin: miter; stroke-miterlimit: 4; fill: rgb(242,156,31); fill-rule: nonzero; opacity: 1;" vector-effect="non-scaling-stroke"  transform=" translate(-8, -50.5)" d="M 5 48 L 11 48 L 11 53 L 5 53 z" stroke-linecap="round" />
</g>
		<g transform="matrix(8.83 0 0 8.83 -185.38 -198.6)"  >
<path style="stroke: none; stroke-width: 1; stroke-dasharray: none; stroke-linecap: butt; stroke-dashoffset: 0; stroke-linejoin: miter; stroke-miterlimit: 4; fill: rgb(127,140,141); fill-rule: nonzero; opacity: 1;" vector-effect="non-scaling-stroke"  transform=" translate(-8, -7.5)" d="M 8 9 C 7.44771525 9 7 8.55228475 7 8 L 7 7 C 7 6.44771525 7.44771525 6 8 6 C 8.55228475 6 9 6.44771525 9 7 L 9 8 C 9 8.55228475 8.55228475 9 8 9 z" stroke-linecap="round" />
</g>
		<g transform="matrix(8.83 0 0 8.83 -185.38 -105.9)"  >
<path style="stroke: none; stroke-width: 1; stroke-dasharray: none; stroke-linecap: butt; stroke-dashoffset: 0; stroke-linejoin: miter; stroke-miterlimit: 4; fill: rgb(127,140,141); fill-rule: nonzero; opacity: 1;" vector-effect="non-scaling-stroke"  transform=" translate(-8, -18)" d="M 8 25 C 7.44771525 25 7 24.5522847 7 24 L 7 12 C 7 11.4477153 7.44771525 11 8 11 C 8.55228475 11 9 11.4477153 9 12 L 9 24 C 9 24.5522847 8.55228475 25 8 25 z" stroke-linecap="round" />
</g>
		<g transform="matrix(8.83 0 0 8.83 88.31 1.88)"  >
<path style="stroke: none; stroke-width: 1; stroke-dasharray: none; stroke-linecap: butt; stroke-dashoffset: 0; stroke-linejoin: miter; stroke-miterlimit: 4; fill: rgb(240,196,25); fill-rule: nonzero; opacity: 1;" vector-effect="non-scaling-stroke"  transform=" translate(-39, -30.21)" d="M 39 53 C 62.666 48.825 57.976 19.066000000000003 56.909 13.607999999999997 C 56.8158841 13.127362699999997 56.3851313 12.787182799999997 55.896 12.807999999999996 C 53.308 12.907999999999996 45.25 12.778999999999996 39.696 7.684999999999996 C 39.3034329 7.318927529999996 38.6945671 7.318927529999996 38.302 7.684999999999996 C 32.75 12.773999999999997 24.692 12.905999999999995 22.099999999999998 12.799999999999997 C 21.610868699999997 12.779182799999997 21.180115899999997 13.119362699999996 21.086999999999996 13.599999999999998 C 20.023999999999997 19.066 15.333999999999996 48.825 39 53 z" stroke-linecap="round" />
</g>
		<g transform="matrix(8.83 0 0 8.83 161.03 90.12)"  >
<path style="stroke: none; stroke-width: 1; stroke-dasharray: none; stroke-linecap: butt; stroke-dashoffset: 0; stroke-linejoin: miter; stroke-miterlimit: 4; fill: rgb(230,76,60); fill-rule: nonzero; opacity: 1;" vector-effect="non-scaling-stroke"  transform=" translate(-47.24, -40.2)" d="M 53.48 32 C 53.0081688 35.5940489 51.740738799999995 39.0376324 49.769999999999996 42.08 C 47.683258599999995 45.156878999999996 44.57751579999999 47.3985383 41 48.41 L 41 36.709999999999994 C 43.2642407 36.03544229999999 45.0354423 34.264240699999995 45.71 31.999999999999993 z" stroke-linecap="round" />
</g>
		<g transform="matrix(8.83 0 0 8.83 183.76 0.02)"  >
<path style="stroke: none; stroke-width: 1; stroke-dasharray: none; stroke-linecap: butt; stroke-dashoffset: 0; stroke-linejoin: miter; stroke-miterlimit: 4; fill: rgb(189,195,199); fill-rule: nonzero; opacity: 1;" vector-effect="non-scaling-stroke"  transform=" translate(-49.82, -30)" d="M 53.92 28 C 53.8415082 29.339953 53.6946503 30.675024399999998 53.480000000000004 32 L 45.71000000000001 32 C 46.096641000000005 30.6946963 46.096641000000005 29.3053037 45.71000000000001 28 z" stroke-linecap="round" />
</g>
		<g transform="matrix(8.83 0 0 8.83 163.3 -81.58)"  >
<path style="stroke: none; stroke-width: 1; stroke-dasharray: none; stroke-linecap: butt; stroke-dashoffset: 0; stroke-linejoin: miter; stroke-miterlimit: 4; fill: rgb(230,76,60); fill-rule: nonzero; opacity: 1;" vector-effect="non-scaling-stroke"  transform=" translate(-47.5, -20.75)" d="M 53.92 28 L 45.71 28 C 45.0354423 25.735759299999998 43.2642407 23.9645577 41 23.29 L 41 13.51 C 44.8294531 15.5245947 49.0653547 16.6459634 53.39 16.79 C 53.9336889 20.500260599999997 54.1112097 24.254994 53.92 28 z" stroke-linecap="round" />
</g>
		<g transform="matrix(8.83 0 0 8.83 88.28 -107.94)"  >
<path style="stroke: none; stroke-width: 1; stroke-dasharray: none; stroke-linecap: butt; stroke-dashoffset: 0; stroke-linejoin: miter; stroke-miterlimit: 4; fill: rgb(189,195,199); fill-rule: nonzero; opacity: 1;" vector-effect="non-scaling-stroke"  transform=" translate(-39, -17.77)" d="M 41 13.51 L 41 23.29 C 39.6946963 22.903359 38.3053037 22.903359 37 23.29 L 37 13.51 C 37.6884995 13.1256973 38.3561061 12.7051052 39 12.25 C 39.6438939 12.7051052 40.3115005 13.1256973 41 13.51 z" stroke-linecap="round" />
</g>
		<g transform="matrix(8.83 0 0 8.83 88.28 113.2)"  >
<path style="stroke: none; stroke-width: 1; stroke-dasharray: none; stroke-linecap: butt; stroke-dashoffset: 0; stroke-linejoin: miter; stroke-miterlimit: 4; fill: rgb(189,195,199); fill-rule: nonzero; opacity: 1;" vector-effect="non-scaling-stroke"  transform=" translate(-39, -42.82)" d="M 41 36.71 L 41 48.41 C 40.3440083 48.6220636 39.6762081 48.7956917 39 48.93 C 38.3237919 48.7956917 37.6559917 48.6220636 37 48.41 L 37 36.709999999999994 C 38.3053037 37.09664099999999 39.6946963 37.09664099999999 41 36.709999999999994 z" stroke-linecap="round" />
</g>
		<g transform="matrix(8.83 0 0 8.83 15.55 90.12)"  >
<path style="stroke: none; stroke-width: 1; stroke-dasharray: none; stroke-linecap: butt; stroke-dashoffset: 0; stroke-linejoin: miter; stroke-miterlimit: 4; fill: rgb(230,76,60); fill-rule: nonzero; opacity: 1;" vector-effect="non-scaling-stroke"  transform=" translate(-30.76, -40.2)" d="M 37 36.71 L 37 48.41 C 33.4224842 47.3985383 30.316741399999998 45.156878999999996 28.23 42.08 C 26.2592612 39.0376324 24.9918312 35.5940489 24.52 32 L 32.29 32 C 32.9645577 34.2642407 34.7357593 36.0354423 37 36.71 z" stroke-linecap="round" />
</g>
		<g transform="matrix(8.83 0 0 8.83 13.28 -81.58)"  >
<path style="stroke: none; stroke-width: 1; stroke-dasharray: none; stroke-linecap: butt; stroke-dashoffset: 0; stroke-linejoin: miter; stroke-miterlimit: 4; fill: rgb(230,76,60); fill-rule: nonzero; opacity: 1;" vector-effect="non-scaling-stroke"  transform=" translate(-30.5, -20.75)" d="M 37 13.51 L 37 23.29 C 34.7357593 23.9645577 32.9645577 25.735759299999998 32.29 28 L 24.08 28 C 23.888790299999997 24.254994 24.0663111 20.5002606 24.61 16.79 C 28.9346453 16.6459634 33.1705469 15.5245947 37 13.51 z" stroke-linecap="round" />
</g>
		<g transform="matrix(8.83 0 0 8.83 88.29 0.03)"  >
<path style="stroke: none; stroke-width: 1; stroke-dasharray: none; stroke-linecap: butt; stroke-dashoffset: 0; stroke-linejoin: miter; stroke-miterlimit: 4; fill: rgb(243,213,91); fill-rule: nonzero; opacity: 1;" vector-effect="non-scaling-stroke"  transform=" translate(-39, -30)" d="M 46 30 C 46.001899 30.6772782 45.904187 31.3511542 45.71 32 C 45.0354423 34.2642407 43.2642407 36.0354423 41 36.71 C 39.6946963 37.096641 38.3053037 37.096641 37 36.71 C 34.7357593 36.0354423 32.9645577 34.2642407 32.29 32 C 31.903359 30.6946963 31.903359 29.3053037 32.29 28 C 32.9645577 25.735759299999998 34.7357593 23.9645577 37 23.29 C 38.3053037 22.903359 39.6946963 22.903359 41 23.29 C 43.2642407 23.9645577 45.0354423 25.735759299999998 45.71 28 C 45.904187 28.6488458 46.001899 29.3227218 46 30 z" stroke-linecap="round" />
</g>
		<g transform="matrix(8.83 0 0 8.83 -7.18 0.02)"  >
<path style="stroke: none; stroke-width: 1; stroke-dasharray: none; stroke-linecap: butt; stroke-dashoffset: 0; stroke-linejoin: miter; stroke-miterlimit: 4; fill: rgb(189,195,199); fill-rule: nonzero; opacity: 1;" vector-effect="non-scaling-stroke"  transform=" translate(-28.18, -30)" d="M 32 30 C 31.998101 30.6772782 32.095813 31.3511542 32.29 32 L 24.52 32 C 24.3053497 30.6750244 24.1584918 29.339953 24.08 28 L 32.29 28 C 32.095813 28.6488458 31.998101 29.3227218 32 30 z" stroke-linecap="round" />
</g>
</g>
</g>
</svg>