<?xml version="1.0" encoding="UTF-8" standalone="no" ?>
<!DOCTYPE svg PUBLIC "-//W3C//DTD SVG 1.1//EN" "http://www.w3.org/Graphics/SVG/1.1/DTD/svg11.dtd">
<svg xmlns="http://www.w3.org/2000/svg" xmlns:xlink="http://www.w3.org/1999/xlink" version="1.1" width="240" height="240" viewBox="0 0 240 240" xml:space="preserve">
<desc>Created with Fabric.js 4.2.0</desc>
<defs>
</defs>
<rect x="0" y="0" width="100%" height="100%" fill="transparent"></rect>
<g transform="matrix(1 0 0 1 120 120)" id="270bfea7-d04e-49ff-82f1-618e25929b9b"  >
<rect style="stroke: none; stroke-width: 1; stroke-dasharray: none; stroke-linecap: butt; stroke-dashoffset: 0; stroke-linejoin: miter; stroke-miterlimit: 4; fill: rgb(255,255,255); fill-opacity: 0; fill-rule: nonzero; opacity: 1;" vector-effect="non-scaling-stroke"  x="-120" y="-120" rx="0" ry="0" width="240" height="240" />
</g>
<g transform="matrix(Infinity NaN NaN Infinity 0 0)" id="de792c1d-a81b-4fa3-814a-837ca95bb92b"  >
</g>
<g transform="matrix(0.47 0 0 0.47 119.84 119.72)"  >
<g style="" vector-effect="non-scaling-stroke"   >
		<g transform="matrix(1 0 0 1 0 24)"  >
<path style="stroke: none; stroke-width: 1; stroke-dasharray: none; stroke-linecap: butt; stroke-dashoffset: 0; stroke-linejoin: miter; stroke-miterlimit: 4; fill: rgb(224,185,153); fill-rule: nonzero; opacity: 1;" vector-effect="non-scaling-stroke"  transform=" translate(-256, -280)" d="M 144 248 L 368 248 L 368 312 L 144 312 z" stroke-linecap="round" />
</g>
		<g transform="matrix(1 0 0 1 0 160)"  >
<path style="stroke: none; stroke-width: 1; stroke-dasharray: none; stroke-linecap: butt; stroke-dashoffset: 0; stroke-linejoin: miter; stroke-miterlimit: 4; fill: rgb(224,185,153); fill-rule: nonzero; opacity: 1;" vector-effect="non-scaling-stroke"  transform=" translate(-256, -416)" d="M 144 344 L 368 344 L 368 488 L 144 488 z" stroke-linecap="round" />
</g>
		<g transform="matrix(1 0 0 1 0 -24)"  >
<path style="stroke: none; stroke-width: 1; stroke-dasharray: none; stroke-linecap: butt; stroke-dashoffset: 0; stroke-linejoin: miter; stroke-miterlimit: 4; fill: rgb(247,204,169); fill-rule: nonzero; opacity: 1;" vector-effect="non-scaling-stroke"  transform=" translate(-256, -232)" d="M 128 216 L 384 216 L 384 248 L 128 248 z" stroke-linecap="round" />
</g>
		<g transform="matrix(1 0 0 1 0 72)"  >
<path style="stroke: none; stroke-width: 1; stroke-dasharray: none; stroke-linecap: butt; stroke-dashoffset: 0; stroke-linejoin: miter; stroke-miterlimit: 4; fill: rgb(247,204,169); fill-rule: nonzero; opacity: 1;" vector-effect="non-scaling-stroke"  transform=" translate(-256, -328)" d="M 128 312 L 384 312 L 384 344 L 128 344 z" stroke-linecap="round" />
</g>
		<g transform="matrix(1 0 0 1 0 -56)"  >
<path style="stroke: none; stroke-width: 1; stroke-dasharray: none; stroke-linecap: butt; stroke-dashoffset: 0; stroke-linejoin: miter; stroke-miterlimit: 4; fill: rgb(224,185,153); fill-rule: nonzero; opacity: 1;" vector-effect="non-scaling-stroke"  transform=" translate(-256, -200)" d="M 144 184 L 368 184 L 368 216 L 144 216 z" stroke-linecap="round" />
</g>
		<g transform="matrix(1 0 0 1 0 -208)"  >
<path style="stroke: none; stroke-width: 1; stroke-dasharray: none; stroke-linecap: butt; stroke-dashoffset: 0; stroke-linejoin: miter; stroke-miterlimit: 4; fill: rgb(106,112,115); fill-rule: nonzero; opacity: 1;" vector-effect="non-scaling-stroke"  transform=" translate(-256, -48)" d="M 256 72 C 251.58172200135365 72 248 68.41827799864635 248 64 L 248 32 C 248 27.581722001353654 251.58172200135365 24 256 24 C 260.4182779986464 24 264 27.58172200135365 264 31.999999999999996 L 264 64 C 264 68.41827799864635 260.4182779986464 72 256 72 z" stroke-linecap="round" />
</g>
		<g transform="matrix(1 0 0 1 4 -136)"  >
<path style="stroke: none; stroke-width: 1; stroke-dasharray: none; stroke-linecap: butt; stroke-dashoffset: 0; stroke-linejoin: miter; stroke-miterlimit: 4; fill: rgb(126,133,137); fill-rule: nonzero; opacity: 1;" vector-effect="non-scaling-stroke"  transform=" translate(-260, -120)" d="M 360 184 L 160 184 L 248 56 L 264 56 z" stroke-linecap="round" />
</g>
		<g transform="matrix(1 0 0 1 0 -136)"  >
<path style="stroke: none; stroke-width: 1; stroke-dasharray: none; stroke-linecap: butt; stroke-dashoffset: 0; stroke-linejoin: miter; stroke-miterlimit: 4; fill: rgb(106,112,115); fill-rule: nonzero; opacity: 1;" vector-effect="non-scaling-stroke"  transform=" translate(-256, -120)" d="M 256 104 C 247.1634440027073 104 240 111.16344400270731 240 120 L 240 136 L 272 136 L 272 120 C 272 111.16344400270731 264.8365559972927 104 256 104 z" stroke-linecap="round" />
</g>
		<g transform="matrix(1 0 0 1 0 -56)"  >
<path style="stroke: none; stroke-width: 1; stroke-dasharray: none; stroke-linecap: butt; stroke-dashoffset: 0; stroke-linejoin: miter; stroke-miterlimit: 4; fill: rgb(115,75,57); fill-rule: nonzero; opacity: 1;" vector-effect="non-scaling-stroke"  transform=" translate(-256, -200)" d="M 256 184 C 247.1634440027073 184 240 191.1634440027073 240 200 L 240 216 L 272 216 L 272 200 C 272 191.1634440027073 264.8365559972927 184 256 184 z" stroke-linecap="round" />
</g>
		<g transform="matrix(1 0 0 1 64 -56)"  >
<path style="stroke: none; stroke-width: 1; stroke-dasharray: none; stroke-linecap: butt; stroke-dashoffset: 0; stroke-linejoin: miter; stroke-miterlimit: 4; fill: rgb(115,75,57); fill-rule: nonzero; opacity: 1;" vector-effect="non-scaling-stroke"  transform=" translate(-320, -200)" d="M 320 184 C 311.1634440027073 184 304 191.1634440027073 304 200 L 304 216 L 336 216 L 336 200 C 336 191.1634440027073 328.8365559972927 184 320 184 z" stroke-linecap="round" />
</g>
		<g transform="matrix(1 0 0 1 -64 -56)"  >
<path style="stroke: none; stroke-width: 1; stroke-dasharray: none; stroke-linecap: butt; stroke-dashoffset: 0; stroke-linejoin: miter; stroke-miterlimit: 4; fill: rgb(115,75,57); fill-rule: nonzero; opacity: 1;" vector-effect="non-scaling-stroke"  transform=" translate(-192, -200)" d="M 192 184 C 183.1634440027073 184 176 191.1634440027073 176 200 L 176 216 L 208 216 L 208 200 C 208 191.1634440027073 200.8365559972927 184 192 184 z" stroke-linecap="round" />
</g>
		<g transform="matrix(1 0 0 1 -64 168)"  >
<path style="stroke: none; stroke-width: 1; stroke-dasharray: none; stroke-linecap: butt; stroke-dashoffset: 0; stroke-linejoin: miter; stroke-miterlimit: 4; fill: rgb(115,75,57); fill-rule: nonzero; opacity: 1;" vector-effect="non-scaling-stroke"  transform=" translate(-192, -424)" d="M 192 408 C 183.1634440027073 408 176 415.1634440027073 176 424 L 176 440 L 208 440 L 208 424 C 208 415.1634440027073 200.8365559972927 408 192 408 z" stroke-linecap="round" />
</g>
		<g transform="matrix(1 0 0 1 0 168)"  >
<path style="stroke: none; stroke-width: 1; stroke-dasharray: none; stroke-linecap: butt; stroke-dashoffset: 0; stroke-linejoin: miter; stroke-miterlimit: 4; fill: rgb(115,75,57); fill-rule: nonzero; opacity: 1;" vector-effect="non-scaling-stroke"  transform=" translate(-256, -424)" d="M 256 408 C 247.1634440027073 408 240 415.1634440027073 240 424 L 240 440 L 272 440 L 272 424 C 272 415.1634440027073 264.8365559972927 408 256 408 z" stroke-linecap="round" />
</g>
		<g transform="matrix(1 0 0 1 64 168)"  >
<path style="stroke: none; stroke-width: 1; stroke-dasharray: none; stroke-linecap: butt; stroke-dashoffset: 0; stroke-linejoin: miter; stroke-miterlimit: 4; fill: rgb(115,75,57); fill-rule: nonzero; opacity: 1;" vector-effect="non-scaling-stroke"  transform=" translate(-320, -424)" d="M 320 408 C 311.1634440027073 408 304 415.1634440027073 304 424 L 304 440 L 336 440 L 336 424 C 336 415.1634440027073 328.8365559972927 408 320 408 z" stroke-linecap="round" />
</g>
		<g transform="matrix(1 0 0 1 0 40)"  >
<path style="stroke: none; stroke-width: 1; stroke-dasharray: none; stroke-linecap: butt; stroke-dashoffset: 0; stroke-linejoin: miter; stroke-miterlimit: 4; fill: rgb(115,75,57); fill-rule: nonzero; opacity: 1;" vector-effect="non-scaling-stroke"  transform=" translate(-256, -296)" d="M 256 280 C 247.1634440027073 280 240 287.1634440027073 240 296 L 240 312 L 272 312 L 272 296 C 272 287.1634440027073 264.8365559972927 280 256 280 z" stroke-linecap="round" />
</g>
		<g transform="matrix(1 0 0 1 64 40)"  >
<path style="stroke: none; stroke-width: 1; stroke-dasharray: none; stroke-linecap: butt; stroke-dashoffset: 0; stroke-linejoin: miter; stroke-miterlimit: 4; fill: rgb(115,75,57); fill-rule: nonzero; opacity: 1;" vector-effect="non-scaling-stroke"  transform=" translate(-320, -296)" d="M 320 280 C 311.1634440027073 280 304 287.1634440027073 304 296 L 304 312 L 336 312 L 336 296 C 336 287.1634440027073 328.8365559972927 280 320 280 z" stroke-linecap="round" />
</g>
		<g transform="matrix(1 0 0 1 -64 40)"  >
<path style="stroke: none; stroke-width: 1; stroke-dasharray: none; stroke-linecap: butt; stroke-dashoffset: 0; stroke-linejoin: miter; stroke-miterlimit: 4; fill: rgb(115,75,57); fill-rule: nonzero; opacity: 1;" vector-effect="non-scaling-stroke"  transform=" translate(-192, -296)" d="M 192 280 C 183.1634440027073 280 176 287.1634440027073 176 296 L 176 312 L 208 312 L 208 296 C 208 287.1634440027073 200.8365559972927 280 192 280 z" stroke-linecap="round" />
</g>
		<g transform="matrix(1 0 0 1 -64 120)"  >
<circle style="stroke: none; stroke-width: 1; stroke-dasharray: none; stroke-linecap: butt; stroke-dashoffset: 0; stroke-linejoin: miter; stroke-miterlimit: 4; fill: rgb(115,75,57); fill-rule: nonzero; opacity: 1;" vector-effect="non-scaling-stroke"  cx="0" cy="0" r="8" />
</g>
		<g transform="matrix(1 0 0 1 0 120)"  >
<circle style="stroke: none; stroke-width: 1; stroke-dasharray: none; stroke-linecap: butt; stroke-dashoffset: 0; stroke-linejoin: miter; stroke-miterlimit: 4; fill: rgb(115,75,57); fill-rule: nonzero; opacity: 1;" vector-effect="non-scaling-stroke"  cx="0" cy="0" r="8" />
</g>
		<g transform="matrix(1 0 0 1 64 120)"  >
<circle style="stroke: none; stroke-width: 1; stroke-dasharray: none; stroke-linecap: butt; stroke-dashoffset: 0; stroke-linejoin: miter; stroke-miterlimit: 4; fill: rgb(115,75,57); fill-rule: nonzero; opacity: 1;" vector-effect="non-scaling-stroke"  cx="0" cy="0" r="8" />
</g>
		<g transform="matrix(1 0 0 1 0 -72)"  >
<path style="stroke: none; stroke-width: 1; stroke-dasharray: none; stroke-linecap: butt; stroke-dashoffset: 0; stroke-linejoin: miter; stroke-miterlimit: 4; fill: rgb(247,204,169); fill-rule: nonzero; opacity: 1;" vector-effect="non-scaling-stroke"  transform=" translate(-256, -184)" d="M 384 192 L 128 192 C 123.58172200135365 192 120 188.41827799864635 120 184 C 120 179.58172200135365 123.58172200135365 176 128 176 L 384 176 C 388.4182779986464 176 392 179.58172200135365 392 184 C 392 188.41827799864635 388.4182779986464 192 384 192 z" stroke-linecap="round" />
</g>
</g>
</g>
<g transform="matrix(0.15 0 0 0.15 52.63 191.77)"  >
<g style="" vector-effect="non-scaling-stroke"   >
		<g transform="matrix(1 0 0 1 146.95 211.86)"  >
<path style="stroke: none; stroke-width: 1; stroke-dasharray: none; stroke-linecap: butt; stroke-dashoffset: 0; stroke-linejoin: miter; stroke-miterlimit: 4; fill: rgb(90,72,46); fill-rule: nonzero; opacity: 1;" vector-effect="non-scaling-stroke"  transform=" translate(-402.95, -467.86)" d="M 378.93 449.306 L 378.93 481.02 C 378.93 483.984 381.355 486.40999999999997 384.32 486.40999999999997 L 421.572 486.40999999999997 C 424.536 486.40999999999997 426.962 483.98499999999996 426.962 481.02 L 426.962 449.306 L 378.93 449.306 z" stroke-linecap="round" />
</g>
		<g transform="matrix(1 0 0 1 -173.94 211.86)"  >
<path style="stroke: none; stroke-width: 1; stroke-dasharray: none; stroke-linecap: butt; stroke-dashoffset: 0; stroke-linejoin: miter; stroke-miterlimit: 4; fill: rgb(90,72,46); fill-rule: nonzero; opacity: 1;" vector-effect="non-scaling-stroke"  transform=" translate(-82.06, -467.86)" d="M 58.041 481.02 C 58.041 483.984 60.465999999999994 486.40999999999997 63.431 486.40999999999997 L 100.685 486.40999999999997 C 103.649 486.40999999999997 106.075 483.98499999999996 106.075 481.02 L 106.075 449.306 L 58.041 449.306 L 58.041 481.02 z" stroke-linecap="round" />
</g>
		<g transform="matrix(1 0 0 1 -13.5 -173.12)"  >
<path style="stroke: none; stroke-width: 1; stroke-dasharray: none; stroke-linecap: butt; stroke-dashoffset: 0; stroke-linejoin: miter; stroke-miterlimit: 4; fill: rgb(191,149,62); fill-rule: nonzero; opacity: 1;" vector-effect="non-scaling-stroke"  transform=" translate(-242.5, -82.88)" d="M 290.763 64.821 L 194.24 64.821 C 191.27700000000002 64.821 188.85000000000002 67.246 188.85000000000002 70.211 L 188.85000000000002 95.544 C 188.85000000000002 98.50699999999999 191.27500000000003 100.934 194.24 100.934 L 290.762 100.934 C 293.726 100.934 296.152 98.509 296.152 95.544 L 296.152 70.211 C 296.152 67.246 293.726 64.821 290.763 64.821 z" stroke-linecap="round" />
</g>
		<g transform="matrix(1 0 0 1 136.92 211.86)"  >
<path style="stroke: none; stroke-width: 1; stroke-dasharray: none; stroke-linecap: butt; stroke-dashoffset: 0; stroke-linejoin: miter; stroke-miterlimit: 4; fill: rgb(0,0,0); fill-rule: nonzero; opacity: 0.1;" vector-effect="non-scaling-stroke"  transform=" translate(-392.92, -467.86)" d="M 401.517 481.02 L 401.517 449.306 L 378.932 449.306 L 378.932 481.02 C 378.932 483.984 381.357 486.40999999999997 384.322 486.40999999999997 L 406.906 486.40999999999997 C 403.941 486.409 401.517 483.984 401.517 481.02 z" stroke-linecap="round" />
</g>
		<g transform="matrix(1 0 0 1 -184.13 211.86)"  >
<path style="stroke: none; stroke-width: 1; stroke-dasharray: none; stroke-linecap: butt; stroke-dashoffset: 0; stroke-linejoin: miter; stroke-miterlimit: 4; fill: rgb(0,0,0); fill-rule: nonzero; opacity: 0.1;" vector-effect="non-scaling-stroke"  transform=" translate(-71.87, -467.86)" d="M 80.302 481.02 L 80.302 449.306 L 58.041 449.306 L 58.041 481.02 C 58.041 483.984 60.465999999999994 486.40999999999997 63.431 486.40999999999997 L 85.694 486.40999999999997 C 82.729 486.409 80.302 483.984 80.302 481.02 z" stroke-linecap="round" />
</g>
		<g transform="matrix(1 0 0 1 -53.27 -173.12)"  >
<path style="stroke: none; stroke-width: 1; stroke-dasharray: none; stroke-linecap: butt; stroke-dashoffset: 0; stroke-linejoin: miter; stroke-miterlimit: 4; fill: rgb(0,0,0); fill-rule: nonzero; opacity: 0.1;" vector-effect="non-scaling-stroke"  transform=" translate(-202.73, -82.88)" d="M 211.217 95.543 L 211.217 70.211 C 211.217 67.247 213.64200000000002 64.821 216.607 64.821 L 194.24 64.821 C 191.27700000000002 64.821 188.85000000000002 67.246 188.85000000000002 70.211 L 188.85000000000002 95.544 C 188.85000000000002 98.50699999999999 191.27500000000003 100.934 194.24 100.934 L 216.606 100.934 C 213.642 100.933 211.217 98.507 211.217 95.543 z" stroke-linecap="round" />
</g>
		<g transform="matrix(1 0 0 1 -13.5 -74.23)"  >
<path style="stroke: none; stroke-width: 1; stroke-dasharray: none; stroke-linecap: butt; stroke-dashoffset: 0; stroke-linejoin: miter; stroke-miterlimit: 4; fill: rgb(239,186,80); fill-rule: nonzero; opacity: 1;" vector-effect="non-scaling-stroke"  transform=" translate(-242.5, -181.77)" d="M 421.508 267.971 C 421.508 270.935 419.08299999999997 273.361 416.11899999999997 273.361 L 68.886 273.361 C 65.922 273.361 63.495999999999995 270.936 63.495999999999995 267.971 L 63.495999999999995 95.577 C 63.495999999999995 92.613 65.92099999999999 90.187 68.886 90.187 L 416.11800000000005 90.187 C 419.0810000000001 90.187 421.50700000000006 92.612 421.50700000000006 95.577 L 421.50700000000006 267.972 L 421.508 267.972 z" stroke-linecap="round" />
</g>
		<g transform="matrix(1 0 0 1 -172.86 -74.23)"  >
<path style="stroke: none; stroke-width: 1; stroke-dasharray: none; stroke-linecap: butt; stroke-dashoffset: 0; stroke-linejoin: miter; stroke-miterlimit: 4; fill: rgb(0,0,0); fill-rule: nonzero; opacity: 0.1;" vector-effect="non-scaling-stroke"  transform=" translate(-83.14, -181.77)" d="M 97.4 267.971 L 97.4 95.577 C 97.4 92.613 99.825 90.187 102.79 90.187 L 68.886 90.187 C 65.922 90.187 63.495999999999995 92.612 63.495999999999995 95.577 L 63.495999999999995 267.972 C 63.495999999999995 270.936 65.92099999999999 273.36199999999997 68.886 273.36199999999997 L 102.78899999999999 273.36199999999997 C 99.825 273.361 97.4 270.936 97.4 267.971 z" stroke-linecap="round" />
</g>
		<g transform="matrix(1 0 0 1 -158.22 -34.93)"  >
<path style="stroke: none; stroke-width: 1; stroke-dasharray: none; stroke-linecap: butt; stroke-dashoffset: 0; stroke-linejoin: miter; stroke-miterlimit: 4; fill: rgb(214,158,240); fill-rule: nonzero; opacity: 1;" vector-effect="non-scaling-stroke"  transform=" translate(-97.78, -221.07)" d="M 154.784 278.082 C 153.37 279.496 151.391 280.199 149.38899999999998 279.99899999999997 L 53.15599999999998 270.383 C 50.20699999999998 270.08799999999997 47.77799999999998 267.904 47.168999999999976 265.001 L 38.96299999999998 225.88199999999998 C 38.49699999999998 223.66199999999998 39.17699999999998 221.36499999999998 40.76999999999998 219.77199999999996 L 96.47399999999999 164.06699999999995 C 98.067 162.47399999999996 100.36299999999999 161.79399999999995 102.58599999999998 162.25899999999996 L 141.70399999999998 170.46599999999995 C 144.60799999999998 171.07499999999996 146.79099999999997 173.50499999999994 147.08499999999998 176.45299999999995 L 156.70199999999997 272.6859999999999 C 156.902 274.688 156.198 276.667 154.784 278.082 z" stroke-linecap="round" />
</g>
		<g transform="matrix(1 0 0 1 -159.19 -35.9)"  >
<path style="stroke: none; stroke-width: 1; stroke-dasharray: none; stroke-linecap: butt; stroke-dashoffset: 0; stroke-linejoin: miter; stroke-miterlimit: 4; fill: rgb(188,129,226); fill-rule: nonzero; opacity: 1;" vector-effect="non-scaling-stroke"  transform=" translate(-96.81, -220.1)" d="M 116.209 201.869 L 145.429 172.649 C 144.476 171.562 143.185 170.775 141.703 170.465 L 102.583 162.25900000000001 C 101.42399999999999 162.014 100.248 162.091 99.158 162.441 L 108.951 209.127 L 85.833 232.246 L 39.147 222.453 C 38.799 223.542 38.722 224.719 38.966 225.879 L 47.172 264.99899999999997 C 47.483 266.47999999999996 48.269 267.772 49.355999999999995 268.724 L 78.69 239.39 L 154.79500000000002 278.091 L 116.209 201.869 z" stroke-linecap="round" />
</g>
		<g transform="matrix(1 0 0 1 -163.6 -40.3)"  >
<polygon style="stroke: none; stroke-width: 1; stroke-dasharray: none; stroke-linecap: butt; stroke-dashoffset: 0; stroke-linejoin: miter; stroke-miterlimit: 4; fill: rgb(239,199,255); fill-rule: nonzero; opacity: 1;" vector-effect="non-scaling-stroke"  points="-23.81,-23.75 -13.83,23.81 23.81,-13.83 -23.75,-23.81 " />
</g>
		<g transform="matrix(1 0 0 1 -161.88 -12.43)"  >
<path style="stroke: none; stroke-width: 1; stroke-dasharray: none; stroke-linecap: butt; stroke-dashoffset: 0; stroke-linejoin: miter; stroke-miterlimit: 4; fill: rgb(0,0,0); fill-rule: nonzero; opacity: 0.1;" vector-effect="non-scaling-stroke"  transform=" translate(-94.12, -243.57)" d="M 65.785 257.753 C 62.836 257.45799999999997 60.407 255.27399999999997 59.797999999999995 252.37199999999999 L 51.592 213.253 C 51.126 211.034 51.806 208.736 53.399 207.14299999999997 L 40.771 219.77199999999996 C 39.178 221.36399999999998 38.497 223.66099999999997 38.964 225.88199999999998 L 47.17 265.001 C 47.779 267.904 50.209 270.089 53.157000000000004 270.383 L 149.39000000000001 279.99899999999997 C 151.391 280.199 65.785 257.753 65.785 257.753 z" stroke-linecap="round" />
</g>
		<g transform="matrix(1 0 0 1 3.22 -67.85)"  >
<path style="stroke: none; stroke-width: 1; stroke-dasharray: none; stroke-linecap: butt; stroke-dashoffset: 0; stroke-linejoin: miter; stroke-miterlimit: 4; fill: rgb(245,191,182); fill-rule: nonzero; opacity: 1;" vector-effect="non-scaling-stroke"  transform=" translate(-259.22, -188.15)" d="M 259.222 245.342 C 257.61199999999997 245.342 256.005 244.729 254.778 243.501 L 203.917 192.598 C 202.738 191.419 202.078 189.82000000000002 202.078 188.15300000000002 C 202.078 186.48600000000002 202.738 184.88800000000003 203.917 183.70800000000003 L 254.778 132.80500000000004 C 256.004 131.57800000000003 257.61199999999997 130.96500000000003 259.222 130.96500000000003 C 260.828 130.96500000000003 262.43399999999997 131.57700000000003 263.65999999999997 132.80500000000004 L 314.52399999999994 183.70800000000003 C 315.69999999999993 184.88800000000003 316.36299999999994 186.48600000000002 316.36299999999994 188.15300000000002 C 316.36299999999994 189.82000000000002 315.69899999999996 191.42000000000002 314.52399999999994 192.598 L 263.65999999999997 243.501 C 262.434 244.729 260.828 245.342 259.222 245.342 z" stroke-linecap="round" />
</g>
		<g transform="matrix(1 0 0 1 31.89 -96.54)"  >
<path style="stroke: none; stroke-width: 1; stroke-dasharray: none; stroke-linecap: butt; stroke-dashoffset: 0; stroke-linejoin: miter; stroke-miterlimit: 4; fill: rgb(232,160,156); fill-rule: nonzero; opacity: 1;" vector-effect="non-scaling-stroke"  transform=" translate(-287.89, -159.46)" d="M 314.524 183.708 L 263.66 132.805 C 262.49 131.633 260.968 131.02700000000002 259.434 130.97400000000002 L 259.434 187.93900000000002 L 316.35200000000003 187.93900000000002 C 316.298 186.35 315.649 184.837 314.524 183.708 z" stroke-linecap="round" />
</g>
		<g transform="matrix(1 0 0 1 -25.53 -39.07)"  >
<path style="stroke: none; stroke-width: 1; stroke-dasharray: none; stroke-linecap: butt; stroke-dashoffset: 0; stroke-linejoin: miter; stroke-miterlimit: 4; fill: rgb(232,160,156); fill-rule: nonzero; opacity: 1;" vector-effect="non-scaling-stroke"  transform=" translate(-230.47, -216.93)" d="M 203.918 192.598 L 254.779 243.501 C 255.911 244.632 257.364 245.23600000000002 258.843 245.324 L 258.843 188.531 L 202.097 188.531 C 202.188 190.061 202.83 191.508 203.918 192.598 z" stroke-linecap="round" />
</g>
		<g transform="matrix(1 0 0 1 3.22 -67.85)"  >
<path style="stroke: none; stroke-width: 1; stroke-dasharray: none; stroke-linecap: butt; stroke-dashoffset: 0; stroke-linejoin: miter; stroke-miterlimit: 4; fill: rgb(226,136,131); fill-rule: nonzero; opacity: 1;" vector-effect="non-scaling-stroke"  transform=" translate(-259.22, -188.15)" d="M 259.222 210.872 C 258.41499999999996 210.872 257.61199999999997 210.566 256.998 209.954 L 237.435 190.377 C 236.848 189.787 236.518 188.98600000000002 236.518 188.15300000000002 C 236.518 187.31900000000002 236.848 186.52 237.435 185.93200000000002 L 256.998 166.353 C 257.611 165.741 258.41499999999996 165.43300000000002 259.222 165.43300000000002 C 260.024 165.43300000000002 260.828 165.74 261.44 166.353 L 281.004 185.93200000000002 C 281.59000000000003 186.52100000000002 281.921 187.32100000000003 281.921 188.15300000000002 C 281.921 188.98600000000002 281.591 189.78600000000003 281.004 190.377 L 261.44 209.954 C 260.828 210.567 260.025 210.872 259.222 210.872 z" stroke-linecap="round" />
</g>
		<g transform="matrix(1 0 0 1 124.67 -36.42)"  >
<path style="stroke: none; stroke-width: 1; stroke-dasharray: none; stroke-linecap: butt; stroke-dashoffset: 0; stroke-linejoin: miter; stroke-miterlimit: 4; fill: rgb(55,196,179); fill-rule: nonzero; opacity: 1;" vector-effect="non-scaling-stroke"  transform=" translate(-380.67, -219.58)" d="M 463.447 210.829 L 436.384 169.185 C 434.845 166.821 432.24100000000004 165.398 429.449 165.398 L 331.9 165.398 C 329.10999999999996 165.398 326.50399999999996 166.821 324.96799999999996 169.185 L 297.90099999999995 210.829 C 295.893 213.92000000000002 296.10799999999995 217.979 298.43199999999996 220.834 L 341.52799999999996 273.76300000000003 L 419.81999999999994 273.76300000000003 L 462.91599999999994 220.83300000000003 C 465.241 217.978 465.457 213.919 463.447 210.829 z" stroke-linecap="round" />
</g>
		<g transform="matrix(1 0 0 1 72.48 -64.82)"  >
<path style="stroke: none; stroke-width: 1; stroke-dasharray: none; stroke-linecap: butt; stroke-dashoffset: 0; stroke-linejoin: miter; stroke-miterlimit: 4; fill: rgb(83,231,211); fill-rule: nonzero; opacity: 1;" vector-effect="non-scaling-stroke"  transform=" translate(-328.48, -191.18)" d="M 324.97 169.184 L 297.90200000000004 210.828 C 296.87800000000004 212.405 296.43500000000006 214.234 296.55400000000003 216.028 L 360.43300000000005 216.028 L 328.129 166.32799999999997 C 326.869 166.98 325.771 167.949 324.97 169.184 z" stroke-linecap="round" />
</g>
		<g transform="matrix(1 0 0 1 176.87 -64.82)"  >
<path style="stroke: none; stroke-width: 1; stroke-dasharray: none; stroke-linecap: butt; stroke-dashoffset: 0; stroke-linejoin: miter; stroke-miterlimit: 4; fill: rgb(83,231,211); fill-rule: nonzero; opacity: 1;" vector-effect="non-scaling-stroke"  transform=" translate(-432.87, -191.18)" d="M 463.447 210.829 L 436.38 169.185 C 435.578 167.95 434.48199999999997 166.981 433.222 166.33 L 400.917 216.03000000000003 L 464.799 216.03000000000003 C 464.917 214.234 464.474 212.405 463.447 210.829 z" stroke-linecap="round" />
</g>
		<g transform="matrix(1 0 0 1 72.89 -36.42)"  >
<path style="stroke: none; stroke-width: 1; stroke-dasharray: none; stroke-linecap: butt; stroke-dashoffset: 0; stroke-linejoin: miter; stroke-miterlimit: 4; fill: rgb(0,0,0); fill-rule: nonzero; opacity: 0.1;" vector-effect="non-scaling-stroke"  transform=" translate(-328.89, -219.58)" d="M 341.528 273.763 L 361.252 273.763 L 318.156 220.83299999999997 C 315.831 217.97799999999998 315.617 213.91899999999998 317.62600000000003 210.82799999999997 L 344.692 169.18399999999997 C 346.22700000000003 166.81999999999996 348.834 165.39699999999996 351.625 165.39699999999996 L 331.899 165.39699999999996 C 329.109 165.39699999999996 326.503 166.81999999999996 324.967 169.18399999999997 L 297.9 210.828 C 295.892 213.919 296.10699999999997 217.978 298.431 220.833 L 341.528 273.763 z" stroke-linecap="round" />
</g>
		<g transform="matrix(1 0 0 1 157.43 -40.39)"  >
<polygon style="stroke: none; stroke-width: 1; stroke-dasharray: none; stroke-linecap: butt; stroke-dashoffset: 0; stroke-linejoin: miter; stroke-miterlimit: 4; fill: rgb(83,231,211); fill-rule: nonzero; opacity: 1;" vector-effect="non-scaling-stroke"  points="0.2,-0.21 -0.2,-0.21 0.07,0.21 " />
</g>
		<g transform="matrix(1 0 0 1 91.92 -40.39)"  >
<polygon style="stroke: none; stroke-width: 1; stroke-dasharray: none; stroke-linecap: butt; stroke-dashoffset: 0; stroke-linejoin: miter; stroke-miterlimit: 4; fill: rgb(83,231,211); fill-rule: nonzero; opacity: 1;" vector-effect="non-scaling-stroke"  points="0.2,-0.21 -0.2,-0.21 -0.07,0.21 " />
</g>
		<g transform="matrix(1 0 0 1 124.67 -11.1)"  >
<polygon style="stroke: none; stroke-width: 1; stroke-dasharray: none; stroke-linecap: butt; stroke-dashoffset: 0; stroke-linejoin: miter; stroke-miterlimit: 4; fill: rgb(83,231,211); fill-rule: nonzero; opacity: 1;" vector-effect="non-scaling-stroke"  points="-32.75,-28.87 -14.04,28.87 14.04,28.87 32.75,-28.87 " />
</g>
		<g transform="matrix(1 0 0 1 124.67 -65.29)"  >
<polygon style="stroke: none; stroke-width: 1; stroke-dasharray: none; stroke-linecap: butt; stroke-dashoffset: 0; stroke-linejoin: miter; stroke-miterlimit: 4; fill: rgb(185,245,237); fill-rule: nonzero; opacity: 1;" vector-effect="non-scaling-stroke"  points="-0.05,-25.32 -32.96,25.32 32.96,25.32 0.05,-25.32 " />
</g>
		<g transform="matrix(1 0 0 1 -89.38 7.75)"  >
<circle style="stroke: none; stroke-width: 1; stroke-dasharray: none; stroke-linecap: butt; stroke-dashoffset: 0; stroke-linejoin: miter; stroke-miterlimit: 4; fill: rgb(255,255,255); fill-rule: nonzero; opacity: 1;" vector-effect="non-scaling-stroke"  cx="0" cy="0" r="25.339" />
</g>
		<g transform="matrix(1 0 0 1 6.84 -12.28)"  >
<path style="stroke: none; stroke-width: 1; stroke-dasharray: none; stroke-linecap: butt; stroke-dashoffset: 0; stroke-linejoin: miter; stroke-miterlimit: 4; fill: rgb(255,255,255); fill-rule: nonzero; opacity: 1;" vector-effect="non-scaling-stroke"  transform=" translate(-262.84, -243.72)" d="M 267.538 218.828 C 253.788 216.235 240.538 225.276 237.94400000000002 239.026 C 235.347 252.77300000000002 244.39000000000001 266.022 258.13800000000003 268.616 C 271.88700000000006 271.214 285.13800000000003 262.173 287.73300000000006 248.422 C 290.328 234.675 281.288 221.424 267.538 218.828 z" stroke-linecap="round" />
</g>
		<g transform="matrix(1 0 0 1 -43.22 -11.68)"  >
<circle style="stroke: none; stroke-width: 1; stroke-dasharray: none; stroke-linecap: butt; stroke-dashoffset: 0; stroke-linejoin: miter; stroke-miterlimit: 4; fill: rgb(255,255,255); fill-rule: nonzero; opacity: 1;" vector-effect="non-scaling-stroke"  cx="0" cy="0" r="25.339" />
</g>
		<g transform="matrix(1 0 0 1 53.45 6.05)"  >
<path style="stroke: none; stroke-width: 1; stroke-dasharray: none; stroke-linecap: butt; stroke-dashoffset: 0; stroke-linejoin: miter; stroke-miterlimit: 4; fill: rgb(255,255,255); fill-rule: nonzero; opacity: 1;" vector-effect="non-scaling-stroke"  transform=" translate(-309.45, -262.05)" d="M 323.158 240.748 C 311.392 233.176 295.71500000000003 236.57899999999998 288.14 248.345 C 280.572 260.111 283.972 275.789 295.738 283.358 C 307.506 290.931 323.181 287.53000000000003 330.754 275.763 C 338.324 263.996 334.926 248.317 323.158 240.748 z" stroke-linecap="round" />
</g>
		<g transform="matrix(1 0 0 1 -13.5 105.29)"  >
<path style="stroke: none; stroke-width: 1; stroke-dasharray: none; stroke-linecap: butt; stroke-dashoffset: 0; stroke-linejoin: miter; stroke-miterlimit: 4; fill: rgb(191,149,62); fill-rule: nonzero; opacity: 1;" vector-effect="non-scaling-stroke"  transform=" translate(-242.5, -361.29)" d="M 447.937 454.479 C 447.937 457.443 445.512 459.86899999999997 442.547 459.86899999999997 L 42.456 459.86899999999997 C 39.493 459.86899999999997 37.066 457.44399999999996 37.066 454.479 L 37.066 268.101 C 37.066 265.137 39.491 262.711 42.456 262.711 L 442.547 262.711 C 445.511 262.711 447.937 265.136 447.937 268.101 L 447.937 454.479 z" stroke-linecap="round" />
</g>
		<g transform="matrix(1 0 0 1 -199.47 105.29)"  >
<path style="stroke: none; stroke-width: 1; stroke-dasharray: none; stroke-linecap: butt; stroke-dashoffset: 0; stroke-linejoin: miter; stroke-miterlimit: 4; fill: rgb(0,0,0); fill-rule: nonzero; opacity: 0.1;" vector-effect="non-scaling-stroke"  transform=" translate(-56.53, -361.29)" d="M 70.602 454.479 L 70.602 268.101 C 70.602 265.137 73.027 262.711 75.992 262.711 L 42.455 262.711 C 39.492 262.711 37.065 265.136 37.065 268.101 L 37.065 454.479 C 37.065 457.443 39.489999999999995 459.86899999999997 42.455 459.86899999999997 L 75.991 459.86899999999997 C 73.028 459.868 70.602 457.444 70.602 454.479 z" stroke-linecap="round" />
</g>
		<g transform="matrix(1 0 0 1 -13.5 105.29)"  >
<path style="stroke: none; stroke-width: 1; stroke-dasharray: none; stroke-linecap: butt; stroke-dashoffset: 0; stroke-linejoin: miter; stroke-miterlimit: 4; fill: rgb(239,186,80); fill-rule: nonzero; opacity: 1;" vector-effect="non-scaling-stroke"  transform=" translate(-242.5, -361.29)" d="M 73.868 428.271 C 70.904 428.271 68.478 425.846 68.478 422.88100000000003 L 68.478 299.696 C 68.478 296.732 70.90299999999999 294.30600000000004 73.868 294.30600000000004 L 411.135 294.30600000000004 C 414.099 294.30600000000004 416.525 296.73100000000005 416.525 299.696 L 416.525 422.88200000000006 C 416.525 425.84600000000006 414.09999999999997 428.27200000000005 411.135 428.27200000000005 L 73.868 428.27200000000005 z" stroke-linecap="round" />
</g>
		<g transform="matrix(1 0 0 1 -168.08 105.29)"  >
<path style="stroke: none; stroke-width: 1; stroke-dasharray: none; stroke-linecap: butt; stroke-dashoffset: 0; stroke-linejoin: miter; stroke-miterlimit: 4; fill: rgb(0,0,0); fill-rule: nonzero; opacity: 0.1;" vector-effect="non-scaling-stroke"  transform=" translate(-87.92, -361.29)" d="M 101.976 422.882 L 101.976 299.696 C 101.976 296.732 104.401 294.30600000000004 107.366 294.30600000000004 L 73.868 294.30600000000004 C 70.904 294.30600000000004 68.478 296.73100000000005 68.478 299.696 L 68.478 422.88200000000006 C 68.478 425.84600000000006 70.90299999999999 428.27200000000005 73.868 428.27200000000005 L 107.365 428.27200000000005 C 104.401 428.271 101.976 425.846 101.976 422.882 z" stroke-linecap="round" />
</g>
		<g transform="matrix(1 0 0 1 -13.5 59.89)"  >
<path style="stroke: none; stroke-width: 1; stroke-dasharray: none; stroke-linecap: butt; stroke-dashoffset: 0; stroke-linejoin: miter; stroke-miterlimit: 4; fill: rgb(168,123,44); fill-rule: nonzero; opacity: 1;" vector-effect="non-scaling-stroke"  transform=" translate(-242.5, -315.89)" d="M 197.267 262.711 L 197.267 363.684 C 197.267 366.648 199.692 369.074 202.65699999999998 369.074 L 282.34499999999997 369.074 C 285.30899999999997 369.074 287.73499999999996 366.649 287.73499999999996 363.684 L 287.73499999999996 262.711 L 197.267 262.711 z" stroke-linecap="round" />
</g>
		<g transform="matrix(1 0 0 1 -80.13 -111.64)"  >
<path style="stroke: none; stroke-width: 1; stroke-dasharray: none; stroke-linecap: butt; stroke-dashoffset: 0; stroke-linejoin: miter; stroke-miterlimit: 4; fill: rgb(253,242,118); fill-rule: nonzero; opacity: 1;" vector-effect="non-scaling-stroke"  transform=" translate(-175.87, -144.36)" d="M 175.869 171.924 C 174.008 171.924 172.384 170.687 171.889 168.904 C 167.966 154.734 165.455 152.23499999999999 151.244 148.323 C 149.452 147.83 148.211 146.207 148.211 144.358 C 148.211 142.505 149.45200000000003 140.885 151.244 140.393 C 165.455 136.48 167.966 133.982 171.889 119.812 C 172.38400000000001 118.029 174.008 116.795 175.869 116.795 C 177.726 116.795 179.354 118.029 179.848 119.812 C 183.77100000000002 133.982 186.27800000000002 136.48 200.496 140.393 C 202.285 140.885 203.52100000000002 142.506 203.52100000000002 144.358 C 203.52100000000002 146.207 202.28500000000003 147.83 200.496 148.323 C 186.27800000000002 152.235 183.77 154.734 179.848 168.904 C 179.354 170.687 177.727 171.924 175.869 171.924 z" stroke-linecap="round" />
</g>
		<g transform="matrix(1 0 0 1 225.54 -115.31)"  >
<path style="stroke: none; stroke-width: 1; stroke-dasharray: none; stroke-linecap: butt; stroke-dashoffset: 0; stroke-linejoin: miter; stroke-miterlimit: 4; fill: rgb(255,199,83); fill-rule: nonzero; opacity: 1;" vector-effect="non-scaling-stroke"  transform=" translate(-481.54, -140.69)" d="M 508.667 136.319 C 493.008 132.011 490.246 129.25799999999998 485.926 113.65099999999998 C 485.381 111.68499999999999 483.589 110.32599999999998 481.543 110.32599999999998 C 479.493 110.32599999999998 477.70300000000003 111.68399999999998 477.16 113.65099999999998 C 472.83700000000005 129.25799999999998 470.07300000000004 132.01099999999997 454.41900000000004 136.319 C 452.44700000000006 136.862 451.07800000000003 138.648 451.07800000000003 140.688 C 451.07800000000003 142.72699999999998 452.44800000000004 144.512 454.41900000000004 145.057 C 470.07300000000004 149.36499999999998 472.83700000000005 152.118 477.16 167.724 C 477.70300000000003 169.688 479.49300000000005 171.051 481.543 171.051 C 483.589 171.051 485.382 169.688 485.926 167.724 C 490.247 152.117 493.007 149.36399999999998 508.667 145.057 C 510.638 144.51399999999998 512 142.72699999999998 512 140.688 C 512 138.649 510.637 136.863 508.667 136.319 z" stroke-linecap="round" />
</g>
		<g transform="matrix(1 0 0 1 -225.54 -200.05)"  >
<path style="stroke: none; stroke-width: 1; stroke-dasharray: none; stroke-linecap: butt; stroke-dashoffset: 0; stroke-linejoin: miter; stroke-miterlimit: 4; fill: rgb(255,199,83); fill-rule: nonzero; opacity: 1;" vector-effect="non-scaling-stroke"  transform=" translate(-30.46, -55.95)" d="M 57.59 51.583 C 41.931000000000004 47.275999999999996 39.172000000000004 44.522 34.849000000000004 28.915999999999997 C 34.304 26.949999999999996 32.512 25.589999999999996 30.466000000000005 25.589999999999996 C 28.416000000000004 25.589999999999996 26.626000000000005 26.948999999999998 26.081000000000003 28.915999999999997 C 21.760000000000005 44.522999999999996 18.996000000000002 47.275999999999996 3.3420000000000023 51.583 C 1.369 52.127 0 53.913 0 55.952 C 0 57.989999999999995 1.369 59.775 3.341 60.32 C 18.995 64.629 21.759 67.382 26.080000000000002 82.988 C 26.625000000000004 84.952 28.414 86.315 30.465000000000003 86.315 C 32.511 86.315 34.303000000000004 84.952 34.848000000000006 82.988 C 39.17000000000001 67.381 41.93000000000001 64.628 57.589000000000006 60.32 C 59.56 59.776 60.92100000000001 57.991 60.92100000000001 55.952 C 60.922 53.913 59.56 52.127 57.59 51.583 z" stroke-linecap="round" />
</g>
		<g transform="matrix(1 0 0 1 -13.5 59.95)"  >
<path style="stroke: none; stroke-width: 1; stroke-dasharray: none; stroke-linecap: butt; stroke-dashoffset: 0; stroke-linejoin: miter; stroke-miterlimit: 4; fill: rgb(90,72,46); fill-rule: nonzero; opacity: 1;" vector-effect="non-scaling-stroke"  transform=" translate(-242.5, -315.95)" d="M 258.999 300.534 C 258.999 291.36899999999997 251.615 283.94 242.50100000000003 283.94 C 233.39300000000003 283.94 226.00400000000002 291.36899999999997 226.00400000000002 300.534 C 226.00400000000002 306.84499999999997 229.50900000000001 312.332 234.66400000000002 315.13599999999997 L 234.66400000000002 340.114 C 234.66400000000002 344.44199999999995 238.173 347.95099999999996 242.501 347.95099999999996 C 246.829 347.95099999999996 250.338 344.44199999999995 250.338 340.114 L 250.338 315.138 C 255.495 312.333 258.999 306.846 258.999 300.534 z" stroke-linecap="round" />
</g>
		<g transform="matrix(1 0 0 1 -44.96 59.89)"  >
<path style="stroke: none; stroke-width: 1; stroke-dasharray: none; stroke-linecap: butt; stroke-dashoffset: 0; stroke-linejoin: miter; stroke-miterlimit: 4; fill: rgb(0,0,0); fill-rule: nonzero; opacity: 0.1;" vector-effect="non-scaling-stroke"  transform=" translate(-211.04, -315.89)" d="M 197.267 262.711 L 197.267 363.684 C 197.267 366.648 199.692 369.074 202.65699999999998 369.074 L 224.81699999999998 369.074 C 221.85299999999998 369.074 219.427 366.649 219.427 363.684 L 219.427 262.711 L 197.267 262.711 z" stroke-linecap="round" />
</g>
</g>
</g>
<g transform="matrix(0.15 0 0 0.15 189.34 193.16)"  >
<g style="" vector-effect="non-scaling-stroke"   >
		<g transform="matrix(1 0 0 1 146.95 211.86)"  >
<path style="stroke: none; stroke-width: 1; stroke-dasharray: none; stroke-linecap: butt; stroke-dashoffset: 0; stroke-linejoin: miter; stroke-miterlimit: 4; fill: rgb(90,72,46); fill-rule: nonzero; opacity: 1;" vector-effect="non-scaling-stroke"  transform=" translate(-402.95, -467.86)" d="M 378.93 449.306 L 378.93 481.02 C 378.93 483.984 381.355 486.40999999999997 384.32 486.40999999999997 L 421.572 486.40999999999997 C 424.536 486.40999999999997 426.962 483.98499999999996 426.962 481.02 L 426.962 449.306 L 378.93 449.306 z" stroke-linecap="round" />
</g>
		<g transform="matrix(1 0 0 1 -173.94 211.86)"  >
<path style="stroke: none; stroke-width: 1; stroke-dasharray: none; stroke-linecap: butt; stroke-dashoffset: 0; stroke-linejoin: miter; stroke-miterlimit: 4; fill: rgb(90,72,46); fill-rule: nonzero; opacity: 1;" vector-effect="non-scaling-stroke"  transform=" translate(-82.06, -467.86)" d="M 58.041 481.02 C 58.041 483.984 60.465999999999994 486.40999999999997 63.431 486.40999999999997 L 100.685 486.40999999999997 C 103.649 486.40999999999997 106.075 483.98499999999996 106.075 481.02 L 106.075 449.306 L 58.041 449.306 L 58.041 481.02 z" stroke-linecap="round" />
</g>
		<g transform="matrix(1 0 0 1 -13.5 -173.12)"  >
<path style="stroke: none; stroke-width: 1; stroke-dasharray: none; stroke-linecap: butt; stroke-dashoffset: 0; stroke-linejoin: miter; stroke-miterlimit: 4; fill: rgb(191,149,62); fill-rule: nonzero; opacity: 1;" vector-effect="non-scaling-stroke"  transform=" translate(-242.5, -82.88)" d="M 290.763 64.821 L 194.24 64.821 C 191.27700000000002 64.821 188.85000000000002 67.246 188.85000000000002 70.211 L 188.85000000000002 95.544 C 188.85000000000002 98.50699999999999 191.27500000000003 100.934 194.24 100.934 L 290.762 100.934 C 293.726 100.934 296.152 98.509 296.152 95.544 L 296.152 70.211 C 296.152 67.246 293.726 64.821 290.763 64.821 z" stroke-linecap="round" />
</g>
		<g transform="matrix(1 0 0 1 136.92 211.86)"  >
<path style="stroke: none; stroke-width: 1; stroke-dasharray: none; stroke-linecap: butt; stroke-dashoffset: 0; stroke-linejoin: miter; stroke-miterlimit: 4; fill: rgb(0,0,0); fill-rule: nonzero; opacity: 0.1;" vector-effect="non-scaling-stroke"  transform=" translate(-392.92, -467.86)" d="M 401.517 481.02 L 401.517 449.306 L 378.932 449.306 L 378.932 481.02 C 378.932 483.984 381.357 486.40999999999997 384.322 486.40999999999997 L 406.906 486.40999999999997 C 403.941 486.409 401.517 483.984 401.517 481.02 z" stroke-linecap="round" />
</g>
		<g transform="matrix(1 0 0 1 -184.13 211.86)"  >
<path style="stroke: none; stroke-width: 1; stroke-dasharray: none; stroke-linecap: butt; stroke-dashoffset: 0; stroke-linejoin: miter; stroke-miterlimit: 4; fill: rgb(0,0,0); fill-rule: nonzero; opacity: 0.1;" vector-effect="non-scaling-stroke"  transform=" translate(-71.87, -467.86)" d="M 80.302 481.02 L 80.302 449.306 L 58.041 449.306 L 58.041 481.02 C 58.041 483.984 60.465999999999994 486.40999999999997 63.431 486.40999999999997 L 85.694 486.40999999999997 C 82.729 486.409 80.302 483.984 80.302 481.02 z" stroke-linecap="round" />
</g>
		<g transform="matrix(1 0 0 1 -53.27 -173.12)"  >
<path style="stroke: none; stroke-width: 1; stroke-dasharray: none; stroke-linecap: butt; stroke-dashoffset: 0; stroke-linejoin: miter; stroke-miterlimit: 4; fill: rgb(0,0,0); fill-rule: nonzero; opacity: 0.1;" vector-effect="non-scaling-stroke"  transform=" translate(-202.73, -82.88)" d="M 211.217 95.543 L 211.217 70.211 C 211.217 67.247 213.64200000000002 64.821 216.607 64.821 L 194.24 64.821 C 191.27700000000002 64.821 188.85000000000002 67.246 188.85000000000002 70.211 L 188.85000000000002 95.544 C 188.85000000000002 98.50699999999999 191.27500000000003 100.934 194.24 100.934 L 216.606 100.934 C 213.642 100.933 211.217 98.507 211.217 95.543 z" stroke-linecap="round" />
</g>
		<g transform="matrix(1 0 0 1 -13.49 -74.22)"  >
<path style="stroke: none; stroke-width: 1; stroke-dasharray: none; stroke-linecap: butt; stroke-dashoffset: 0; stroke-linejoin: miter; stroke-miterlimit: 4; fill: rgb(239,186,80); fill-rule: nonzero; opacity: 1;" vector-effect="non-scaling-stroke"  transform=" translate(-242.5, -181.77)" d="M 421.508 267.971 C 421.508 270.935 419.08299999999997 273.361 416.11899999999997 273.361 L 68.886 273.361 C 65.922 273.361 63.495999999999995 270.936 63.495999999999995 267.971 L 63.495999999999995 95.577 C 63.495999999999995 92.613 65.92099999999999 90.187 68.886 90.187 L 416.11800000000005 90.187 C 419.0810000000001 90.187 421.50700000000006 92.612 421.50700000000006 95.577 L 421.50700000000006 267.972 L 421.508 267.972 z" stroke-linecap="round" />
</g>
		<g transform="matrix(1 0 0 1 -172.85 -74.22)"  >
<path style="stroke: none; stroke-width: 1; stroke-dasharray: none; stroke-linecap: butt; stroke-dashoffset: 0; stroke-linejoin: miter; stroke-miterlimit: 4; fill: rgb(0,0,0); fill-rule: nonzero; opacity: 0.1;" vector-effect="non-scaling-stroke"  transform=" translate(-83.14, -181.77)" d="M 97.4 267.971 L 97.4 95.577 C 97.4 92.613 99.825 90.187 102.79 90.187 L 68.886 90.187 C 65.922 90.187 63.495999999999995 92.612 63.495999999999995 95.577 L 63.495999999999995 267.972 C 63.495999999999995 270.936 65.92099999999999 273.36199999999997 68.886 273.36199999999997 L 102.78899999999999 273.36199999999997 C 99.825 273.361 97.4 270.936 97.4 267.971 z" stroke-linecap="round" />
</g>
		<g transform="matrix(1 0 0 1 -158.22 -34.92)"  >
<path style="stroke: none; stroke-width: 1; stroke-dasharray: none; stroke-linecap: butt; stroke-dashoffset: 0; stroke-linejoin: miter; stroke-miterlimit: 4; fill: rgb(214,158,240); fill-rule: nonzero; opacity: 1;" vector-effect="non-scaling-stroke"  transform=" translate(-97.78, -221.07)" d="M 154.784 278.082 C 153.37 279.496 151.391 280.199 149.38899999999998 279.99899999999997 L 53.15599999999998 270.383 C 50.20699999999998 270.08799999999997 47.77799999999998 267.904 47.168999999999976 265.001 L 38.96299999999998 225.88199999999998 C 38.49699999999998 223.66199999999998 39.17699999999998 221.36499999999998 40.76999999999998 219.77199999999996 L 96.47399999999999 164.06699999999995 C 98.067 162.47399999999996 100.36299999999999 161.79399999999995 102.58599999999998 162.25899999999996 L 141.70399999999998 170.46599999999995 C 144.60799999999998 171.07499999999996 146.79099999999997 173.50499999999994 147.08499999999998 176.45299999999995 L 156.70199999999997 272.6859999999999 C 156.902 274.688 156.198 276.667 154.784 278.082 z" stroke-linecap="round" />
</g>
		<g transform="matrix(1 0 0 1 -159.19 -35.89)"  >
<path style="stroke: none; stroke-width: 1; stroke-dasharray: none; stroke-linecap: butt; stroke-dashoffset: 0; stroke-linejoin: miter; stroke-miterlimit: 4; fill: rgb(188,129,226); fill-rule: nonzero; opacity: 1;" vector-effect="non-scaling-stroke"  transform=" translate(-96.81, -220.1)" d="M 116.209 201.869 L 145.429 172.649 C 144.476 171.562 143.185 170.775 141.703 170.465 L 102.583 162.25900000000001 C 101.42399999999999 162.014 100.248 162.091 99.158 162.441 L 108.951 209.127 L 85.833 232.246 L 39.147 222.453 C 38.799 223.542 38.722 224.719 38.966 225.879 L 47.172 264.99899999999997 C 47.483 266.47999999999996 48.269 267.772 49.355999999999995 268.724 L 78.69 239.39 L 154.79500000000002 278.091 L 116.209 201.869 z" stroke-linecap="round" />
</g>
		<g transform="matrix(1 0 0 1 -163.6 -40.3)"  >
<polygon style="stroke: none; stroke-width: 1; stroke-dasharray: none; stroke-linecap: butt; stroke-dashoffset: 0; stroke-linejoin: miter; stroke-miterlimit: 4; fill: rgb(239,199,255); fill-rule: nonzero; opacity: 1;" vector-effect="non-scaling-stroke"  points="-23.81,-23.75 -13.83,23.81 23.81,-13.83 -23.75,-23.81 " />
</g>
		<g transform="matrix(1 0 0 1 -161.88 -12.43)"  >
<path style="stroke: none; stroke-width: 1; stroke-dasharray: none; stroke-linecap: butt; stroke-dashoffset: 0; stroke-linejoin: miter; stroke-miterlimit: 4; fill: rgb(0,0,0); fill-rule: nonzero; opacity: 0.1;" vector-effect="non-scaling-stroke"  transform=" translate(-94.12, -243.57)" d="M 65.785 257.753 C 62.836 257.45799999999997 60.407 255.27399999999997 59.797999999999995 252.37199999999999 L 51.592 213.253 C 51.126 211.034 51.806 208.736 53.399 207.14299999999997 L 40.771 219.77199999999996 C 39.178 221.36399999999998 38.497 223.66099999999997 38.964 225.88199999999998 L 47.17 265.001 C 47.779 267.904 50.209 270.089 53.157000000000004 270.383 L 149.39000000000001 279.99899999999997 C 151.391 280.199 65.785 257.753 65.785 257.753 z" stroke-linecap="round" />
</g>
		<g transform="matrix(1 0 0 1 3.22 -67.84)"  >
<path style="stroke: none; stroke-width: 1; stroke-dasharray: none; stroke-linecap: butt; stroke-dashoffset: 0; stroke-linejoin: miter; stroke-miterlimit: 4; fill: rgb(245,191,182); fill-rule: nonzero; opacity: 1;" vector-effect="non-scaling-stroke"  transform=" translate(-259.22, -188.15)" d="M 259.222 245.342 C 257.61199999999997 245.342 256.005 244.729 254.778 243.501 L 203.917 192.598 C 202.738 191.419 202.078 189.82000000000002 202.078 188.15300000000002 C 202.078 186.48600000000002 202.738 184.88800000000003 203.917 183.70800000000003 L 254.778 132.80500000000004 C 256.004 131.57800000000003 257.61199999999997 130.96500000000003 259.222 130.96500000000003 C 260.828 130.96500000000003 262.43399999999997 131.57700000000003 263.65999999999997 132.80500000000004 L 314.52399999999994 183.70800000000003 C 315.69999999999993 184.88800000000003 316.36299999999994 186.48600000000002 316.36299999999994 188.15300000000002 C 316.36299999999994 189.82000000000002 315.69899999999996 191.42000000000002 314.52399999999994 192.598 L 263.65999999999997 243.501 C 262.434 244.729 260.828 245.342 259.222 245.342 z" stroke-linecap="round" />
</g>
		<g transform="matrix(1 0 0 1 31.89 -96.55)"  >
<path style="stroke: none; stroke-width: 1; stroke-dasharray: none; stroke-linecap: butt; stroke-dashoffset: 0; stroke-linejoin: miter; stroke-miterlimit: 4; fill: rgb(232,160,156); fill-rule: nonzero; opacity: 1;" vector-effect="non-scaling-stroke"  transform=" translate(-287.89, -159.46)" d="M 314.524 183.708 L 263.66 132.805 C 262.49 131.633 260.968 131.02700000000002 259.434 130.97400000000002 L 259.434 187.93900000000002 L 316.35200000000003 187.93900000000002 C 316.298 186.35 315.649 184.837 314.524 183.708 z" stroke-linecap="round" />
</g>
		<g transform="matrix(1 0 0 1 -25.53 -39.07)"  >
<path style="stroke: none; stroke-width: 1; stroke-dasharray: none; stroke-linecap: butt; stroke-dashoffset: 0; stroke-linejoin: miter; stroke-miterlimit: 4; fill: rgb(232,160,156); fill-rule: nonzero; opacity: 1;" vector-effect="non-scaling-stroke"  transform=" translate(-230.47, -216.93)" d="M 203.918 192.598 L 254.779 243.501 C 255.911 244.632 257.364 245.23600000000002 258.843 245.324 L 258.843 188.531 L 202.097 188.531 C 202.188 190.061 202.83 191.508 203.918 192.598 z" stroke-linecap="round" />
</g>
		<g transform="matrix(1 0 0 1 3.22 -67.85)"  >
<path style="stroke: none; stroke-width: 1; stroke-dasharray: none; stroke-linecap: butt; stroke-dashoffset: 0; stroke-linejoin: miter; stroke-miterlimit: 4; fill: rgb(226,136,131); fill-rule: nonzero; opacity: 1;" vector-effect="non-scaling-stroke"  transform=" translate(-259.22, -188.15)" d="M 259.222 210.872 C 258.41499999999996 210.872 257.61199999999997 210.566 256.998 209.954 L 237.435 190.377 C 236.848 189.787 236.518 188.98600000000002 236.518 188.15300000000002 C 236.518 187.31900000000002 236.848 186.52 237.435 185.93200000000002 L 256.998 166.353 C 257.611 165.741 258.41499999999996 165.43300000000002 259.222 165.43300000000002 C 260.024 165.43300000000002 260.828 165.74 261.44 166.353 L 281.004 185.93200000000002 C 281.59000000000003 186.52100000000002 281.921 187.32100000000003 281.921 188.15300000000002 C 281.921 188.98600000000002 281.591 189.78600000000003 281.004 190.377 L 261.44 209.954 C 260.828 210.567 260.025 210.872 259.222 210.872 z" stroke-linecap="round" />
</g>
		<g transform="matrix(1 0 0 1 124.67 -36.42)"  >
<path style="stroke: none; stroke-width: 1; stroke-dasharray: none; stroke-linecap: butt; stroke-dashoffset: 0; stroke-linejoin: miter; stroke-miterlimit: 4; fill: rgb(55,196,179); fill-rule: nonzero; opacity: 1;" vector-effect="non-scaling-stroke"  transform=" translate(-380.67, -219.58)" d="M 463.447 210.829 L 436.384 169.185 C 434.845 166.821 432.24100000000004 165.398 429.449 165.398 L 331.9 165.398 C 329.10999999999996 165.398 326.50399999999996 166.821 324.96799999999996 169.185 L 297.90099999999995 210.829 C 295.893 213.92000000000002 296.10799999999995 217.979 298.43199999999996 220.834 L 341.52799999999996 273.76300000000003 L 419.81999999999994 273.76300000000003 L 462.91599999999994 220.83300000000003 C 465.241 217.978 465.457 213.919 463.447 210.829 z" stroke-linecap="round" />
</g>
		<g transform="matrix(1 0 0 1 72.49 -64.82)"  >
<path style="stroke: none; stroke-width: 1; stroke-dasharray: none; stroke-linecap: butt; stroke-dashoffset: 0; stroke-linejoin: miter; stroke-miterlimit: 4; fill: rgb(83,231,211); fill-rule: nonzero; opacity: 1;" vector-effect="non-scaling-stroke"  transform=" translate(-328.48, -191.18)" d="M 324.97 169.184 L 297.90200000000004 210.828 C 296.87800000000004 212.405 296.43500000000006 214.234 296.55400000000003 216.028 L 360.43300000000005 216.028 L 328.129 166.32799999999997 C 326.869 166.98 325.771 167.949 324.97 169.184 z" stroke-linecap="round" />
</g>
		<g transform="matrix(1 0 0 1 176.87 -64.82)"  >
<path style="stroke: none; stroke-width: 1; stroke-dasharray: none; stroke-linecap: butt; stroke-dashoffset: 0; stroke-linejoin: miter; stroke-miterlimit: 4; fill: rgb(83,231,211); fill-rule: nonzero; opacity: 1;" vector-effect="non-scaling-stroke"  transform=" translate(-432.87, -191.18)" d="M 463.447 210.829 L 436.38 169.185 C 435.578 167.95 434.48199999999997 166.981 433.222 166.33 L 400.917 216.03000000000003 L 464.799 216.03000000000003 C 464.917 214.234 464.474 212.405 463.447 210.829 z" stroke-linecap="round" />
</g>
		<g transform="matrix(1 0 0 1 72.89 -36.42)"  >
<path style="stroke: none; stroke-width: 1; stroke-dasharray: none; stroke-linecap: butt; stroke-dashoffset: 0; stroke-linejoin: miter; stroke-miterlimit: 4; fill: rgb(0,0,0); fill-rule: nonzero; opacity: 0.1;" vector-effect="non-scaling-stroke"  transform=" translate(-328.89, -219.58)" d="M 341.528 273.763 L 361.252 273.763 L 318.156 220.83299999999997 C 315.831 217.97799999999998 315.617 213.91899999999998 317.62600000000003 210.82799999999997 L 344.692 169.18399999999997 C 346.22700000000003 166.81999999999996 348.834 165.39699999999996 351.625 165.39699999999996 L 331.899 165.39699999999996 C 329.109 165.39699999999996 326.503 166.81999999999996 324.967 169.18399999999997 L 297.9 210.828 C 295.892 213.919 296.10699999999997 217.978 298.431 220.833 L 341.528 273.763 z" stroke-linecap="round" />
</g>
		<g transform="matrix(1 0 0 1 157.42 -40.39)"  >
<polygon style="stroke: none; stroke-width: 1; stroke-dasharray: none; stroke-linecap: butt; stroke-dashoffset: 0; stroke-linejoin: miter; stroke-miterlimit: 4; fill: rgb(83,231,211); fill-rule: nonzero; opacity: 1;" vector-effect="non-scaling-stroke"  points="0.2,-0.21 -0.2,-0.21 0.07,0.21 " />
</g>
		<g transform="matrix(1 0 0 1 91.92 -40.39)"  >
<polygon style="stroke: none; stroke-width: 1; stroke-dasharray: none; stroke-linecap: butt; stroke-dashoffset: 0; stroke-linejoin: miter; stroke-miterlimit: 4; fill: rgb(83,231,211); fill-rule: nonzero; opacity: 1;" vector-effect="non-scaling-stroke"  points="0.2,-0.21 -0.2,-0.21 -0.07,0.21 " />
</g>
		<g transform="matrix(1 0 0 1 124.67 -11.1)"  >
<polygon style="stroke: none; stroke-width: 1; stroke-dasharray: none; stroke-linecap: butt; stroke-dashoffset: 0; stroke-linejoin: miter; stroke-miterlimit: 4; fill: rgb(83,231,211); fill-rule: nonzero; opacity: 1;" vector-effect="non-scaling-stroke"  points="-32.75,-28.87 -14.04,28.87 14.04,28.87 32.75,-28.87 " />
</g>
		<g transform="matrix(1 0 0 1 124.68 -65.28)"  >
<polygon style="stroke: none; stroke-width: 1; stroke-dasharray: none; stroke-linecap: butt; stroke-dashoffset: 0; stroke-linejoin: miter; stroke-miterlimit: 4; fill: rgb(185,245,237); fill-rule: nonzero; opacity: 1;" vector-effect="non-scaling-stroke"  points="-0.05,-25.32 -32.96,25.32 32.96,25.32 0.05,-25.32 " />
</g>
		<g transform="matrix(1 0 0 1 -89.38 7.75)"  >
<circle style="stroke: none; stroke-width: 1; stroke-dasharray: none; stroke-linecap: butt; stroke-dashoffset: 0; stroke-linejoin: miter; stroke-miterlimit: 4; fill: rgb(255,255,255); fill-rule: nonzero; opacity: 1;" vector-effect="non-scaling-stroke"  cx="0" cy="0" r="25.339" />
</g>
		<g transform="matrix(1 0 0 1 6.84 -12.28)"  >
<path style="stroke: none; stroke-width: 1; stroke-dasharray: none; stroke-linecap: butt; stroke-dashoffset: 0; stroke-linejoin: miter; stroke-miterlimit: 4; fill: rgb(255,255,255); fill-rule: nonzero; opacity: 1;" vector-effect="non-scaling-stroke"  transform=" translate(-262.84, -243.72)" d="M 267.538 218.828 C 253.788 216.235 240.538 225.276 237.94400000000002 239.026 C 235.347 252.77300000000002 244.39000000000001 266.022 258.13800000000003 268.616 C 271.88700000000006 271.214 285.13800000000003 262.173 287.73300000000006 248.422 C 290.328 234.675 281.288 221.424 267.538 218.828 z" stroke-linecap="round" />
</g>
		<g transform="matrix(1 0 0 1 -43.22 -11.68)"  >
<circle style="stroke: none; stroke-width: 1; stroke-dasharray: none; stroke-linecap: butt; stroke-dashoffset: 0; stroke-linejoin: miter; stroke-miterlimit: 4; fill: rgb(255,255,255); fill-rule: nonzero; opacity: 1;" vector-effect="non-scaling-stroke"  cx="0" cy="0" r="25.339" />
</g>
		<g transform="matrix(1 0 0 1 53.45 6.06)"  >
<path style="stroke: none; stroke-width: 1; stroke-dasharray: none; stroke-linecap: butt; stroke-dashoffset: 0; stroke-linejoin: miter; stroke-miterlimit: 4; fill: rgb(255,255,255); fill-rule: nonzero; opacity: 1;" vector-effect="non-scaling-stroke"  transform=" translate(-309.45, -262.05)" d="M 323.158 240.748 C 311.392 233.176 295.71500000000003 236.57899999999998 288.14 248.345 C 280.572 260.111 283.972 275.789 295.738 283.358 C 307.506 290.931 323.181 287.53000000000003 330.754 275.763 C 338.324 263.996 334.926 248.317 323.158 240.748 z" stroke-linecap="round" />
</g>
		<g transform="matrix(1 0 0 1 -13.49 105.29)"  >
<path style="stroke: none; stroke-width: 1; stroke-dasharray: none; stroke-linecap: butt; stroke-dashoffset: 0; stroke-linejoin: miter; stroke-miterlimit: 4; fill: rgb(191,149,62); fill-rule: nonzero; opacity: 1;" vector-effect="non-scaling-stroke"  transform=" translate(-242.5, -361.29)" d="M 447.937 454.479 C 447.937 457.443 445.512 459.86899999999997 442.547 459.86899999999997 L 42.456 459.86899999999997 C 39.493 459.86899999999997 37.066 457.44399999999996 37.066 454.479 L 37.066 268.101 C 37.066 265.137 39.491 262.711 42.456 262.711 L 442.547 262.711 C 445.511 262.711 447.937 265.136 447.937 268.101 L 447.937 454.479 z" stroke-linecap="round" />
</g>
		<g transform="matrix(1 0 0 1 -199.48 105.29)"  >
<path style="stroke: none; stroke-width: 1; stroke-dasharray: none; stroke-linecap: butt; stroke-dashoffset: 0; stroke-linejoin: miter; stroke-miterlimit: 4; fill: rgb(0,0,0); fill-rule: nonzero; opacity: 0.1;" vector-effect="non-scaling-stroke"  transform=" translate(-56.53, -361.29)" d="M 70.602 454.479 L 70.602 268.101 C 70.602 265.137 73.027 262.711 75.992 262.711 L 42.455 262.711 C 39.492 262.711 37.065 265.136 37.065 268.101 L 37.065 454.479 C 37.065 457.443 39.489999999999995 459.86899999999997 42.455 459.86899999999997 L 75.991 459.86899999999997 C 73.028 459.868 70.602 457.444 70.602 454.479 z" stroke-linecap="round" />
</g>
		<g transform="matrix(1 0 0 1 -13.5 105.29)"  >
<path style="stroke: none; stroke-width: 1; stroke-dasharray: none; stroke-linecap: butt; stroke-dashoffset: 0; stroke-linejoin: miter; stroke-miterlimit: 4; fill: rgb(239,186,80); fill-rule: nonzero; opacity: 1;" vector-effect="non-scaling-stroke"  transform=" translate(-242.5, -361.29)" d="M 73.868 428.271 C 70.904 428.271 68.478 425.846 68.478 422.88100000000003 L 68.478 299.696 C 68.478 296.732 70.90299999999999 294.30600000000004 73.868 294.30600000000004 L 411.135 294.30600000000004 C 414.099 294.30600000000004 416.525 296.73100000000005 416.525 299.696 L 416.525 422.88200000000006 C 416.525 425.84600000000006 414.09999999999997 428.27200000000005 411.135 428.27200000000005 L 73.868 428.27200000000005 z" stroke-linecap="round" />
</g>
		<g transform="matrix(1 0 0 1 -168.08 105.29)"  >
<path style="stroke: none; stroke-width: 1; stroke-dasharray: none; stroke-linecap: butt; stroke-dashoffset: 0; stroke-linejoin: miter; stroke-miterlimit: 4; fill: rgb(0,0,0); fill-rule: nonzero; opacity: 0.1;" vector-effect="non-scaling-stroke"  transform=" translate(-87.92, -361.29)" d="M 101.976 422.882 L 101.976 299.696 C 101.976 296.732 104.401 294.30600000000004 107.366 294.30600000000004 L 73.868 294.30600000000004 C 70.904 294.30600000000004 68.478 296.73100000000005 68.478 299.696 L 68.478 422.88200000000006 C 68.478 425.84600000000006 70.90299999999999 428.27200000000005 73.868 428.27200000000005 L 107.365 428.27200000000005 C 104.401 428.271 101.976 425.846 101.976 422.882 z" stroke-linecap="round" />
</g>
		<g transform="matrix(1 0 0 1 -13.5 59.89)"  >
<path style="stroke: none; stroke-width: 1; stroke-dasharray: none; stroke-linecap: butt; stroke-dashoffset: 0; stroke-linejoin: miter; stroke-miterlimit: 4; fill: rgb(168,123,44); fill-rule: nonzero; opacity: 1;" vector-effect="non-scaling-stroke"  transform=" translate(-242.5, -315.89)" d="M 197.267 262.711 L 197.267 363.684 C 197.267 366.648 199.692 369.074 202.65699999999998 369.074 L 282.34499999999997 369.074 C 285.30899999999997 369.074 287.73499999999996 366.649 287.73499999999996 363.684 L 287.73499999999996 262.711 L 197.267 262.711 z" stroke-linecap="round" />
</g>
		<g transform="matrix(1 0 0 1 -80.14 -111.65)"  >
<path style="stroke: none; stroke-width: 1; stroke-dasharray: none; stroke-linecap: butt; stroke-dashoffset: 0; stroke-linejoin: miter; stroke-miterlimit: 4; fill: rgb(253,242,118); fill-rule: nonzero; opacity: 1;" vector-effect="non-scaling-stroke"  transform=" translate(-175.87, -144.36)" d="M 175.869 171.924 C 174.008 171.924 172.384 170.687 171.889 168.904 C 167.966 154.734 165.455 152.23499999999999 151.244 148.323 C 149.452 147.83 148.211 146.207 148.211 144.358 C 148.211 142.505 149.45200000000003 140.885 151.244 140.393 C 165.455 136.48 167.966 133.982 171.889 119.812 C 172.38400000000001 118.029 174.008 116.795 175.869 116.795 C 177.726 116.795 179.354 118.029 179.848 119.812 C 183.77100000000002 133.982 186.27800000000002 136.48 200.496 140.393 C 202.285 140.885 203.52100000000002 142.506 203.52100000000002 144.358 C 203.52100000000002 146.207 202.28500000000003 147.83 200.496 148.323 C 186.27800000000002 152.235 183.77 154.734 179.848 168.904 C 179.354 170.687 177.727 171.924 175.869 171.924 z" stroke-linecap="round" />
</g>
		<g transform="matrix(1 0 0 1 225.54 -115.31)"  >
<path style="stroke: none; stroke-width: 1; stroke-dasharray: none; stroke-linecap: butt; stroke-dashoffset: 0; stroke-linejoin: miter; stroke-miterlimit: 4; fill: rgb(255,199,83); fill-rule: nonzero; opacity: 1;" vector-effect="non-scaling-stroke"  transform=" translate(-481.54, -140.69)" d="M 508.667 136.319 C 493.008 132.011 490.246 129.25799999999998 485.926 113.65099999999998 C 485.381 111.68499999999999 483.589 110.32599999999998 481.543 110.32599999999998 C 479.493 110.32599999999998 477.70300000000003 111.68399999999998 477.16 113.65099999999998 C 472.83700000000005 129.25799999999998 470.07300000000004 132.01099999999997 454.41900000000004 136.319 C 452.44700000000006 136.862 451.07800000000003 138.648 451.07800000000003 140.688 C 451.07800000000003 142.72699999999998 452.44800000000004 144.512 454.41900000000004 145.057 C 470.07300000000004 149.36499999999998 472.83700000000005 152.118 477.16 167.724 C 477.70300000000003 169.688 479.49300000000005 171.051 481.543 171.051 C 483.589 171.051 485.382 169.688 485.926 167.724 C 490.247 152.117 493.007 149.36399999999998 508.667 145.057 C 510.638 144.51399999999998 512 142.72699999999998 512 140.688 C 512 138.649 510.637 136.863 508.667 136.319 z" stroke-linecap="round" />
</g>
		<g transform="matrix(1 0 0 1 -225.54 -200.05)"  >
<path style="stroke: none; stroke-width: 1; stroke-dasharray: none; stroke-linecap: butt; stroke-dashoffset: 0; stroke-linejoin: miter; stroke-miterlimit: 4; fill: rgb(255,199,83); fill-rule: nonzero; opacity: 1;" vector-effect="non-scaling-stroke"  transform=" translate(-30.46, -55.95)" d="M 57.59 51.583 C 41.931000000000004 47.275999999999996 39.172000000000004 44.522 34.849000000000004 28.915999999999997 C 34.304 26.949999999999996 32.512 25.589999999999996 30.466000000000005 25.589999999999996 C 28.416000000000004 25.589999999999996 26.626000000000005 26.948999999999998 26.081000000000003 28.915999999999997 C 21.760000000000005 44.522999999999996 18.996000000000002 47.275999999999996 3.3420000000000023 51.583 C 1.369 52.127 0 53.913 0 55.952 C 0 57.989999999999995 1.369 59.775 3.341 60.32 C 18.995 64.629 21.759 67.382 26.080000000000002 82.988 C 26.625000000000004 84.952 28.414 86.315 30.465000000000003 86.315 C 32.511 86.315 34.303000000000004 84.952 34.848000000000006 82.988 C 39.17000000000001 67.381 41.93000000000001 64.628 57.589000000000006 60.32 C 59.56 59.776 60.92100000000001 57.991 60.92100000000001 55.952 C 60.922 53.913 59.56 52.127 57.59 51.583 z" stroke-linecap="round" />
</g>
		<g transform="matrix(1 0 0 1 -13.5 59.95)"  >
<path style="stroke: none; stroke-width: 1; stroke-dasharray: none; stroke-linecap: butt; stroke-dashoffset: 0; stroke-linejoin: miter; stroke-miterlimit: 4; fill: rgb(90,72,46); fill-rule: nonzero; opacity: 1;" vector-effect="non-scaling-stroke"  transform=" translate(-242.5, -315.95)" d="M 258.999 300.534 C 258.999 291.36899999999997 251.615 283.94 242.50100000000003 283.94 C 233.39300000000003 283.94 226.00400000000002 291.36899999999997 226.00400000000002 300.534 C 226.00400000000002 306.84499999999997 229.50900000000001 312.332 234.66400000000002 315.13599999999997 L 234.66400000000002 340.114 C 234.66400000000002 344.44199999999995 238.173 347.95099999999996 242.501 347.95099999999996 C 246.829 347.95099999999996 250.338 344.44199999999995 250.338 340.114 L 250.338 315.138 C 255.495 312.333 258.999 306.846 258.999 300.534 z" stroke-linecap="round" />
</g>
		<g transform="matrix(1 0 0 1 -44.96 59.89)"  >
<path style="stroke: none; stroke-width: 1; stroke-dasharray: none; stroke-linecap: butt; stroke-dashoffset: 0; stroke-linejoin: miter; stroke-miterlimit: 4; fill: rgb(0,0,0); fill-rule: nonzero; opacity: 0.1;" vector-effect="non-scaling-stroke"  transform=" translate(-211.04, -315.89)" d="M 197.267 262.711 L 197.267 363.684 C 197.267 366.648 199.692 369.074 202.65699999999998 369.074 L 224.81699999999998 369.074 C 221.85299999999998 369.074 219.427 366.649 219.427 363.684 L 219.427 262.711 L 197.267 262.711 z" stroke-linecap="round" />
</g>
</g>
</g>
</svg>