<svg height="512" viewBox="0 0 512 512" width="512" xmlns="http://www.w3.org/2000/svg"><g id="flat"><path d="m296 344 147.882 73.941a60 60 0 0 1 32.564 45.18l3.554 24.879h-448l3.554-24.879a60 60 0 0 1 32.564-45.18l147.882-73.941z" fill="#0a9acd"/><path d="m336 176h11.056a20.944 20.944 0 0 1 20.944 20.944v14.112a20.944 20.944 0 0 1 -2.211 9.366 20.944 20.944 0 0 1 -18.733 11.578h-16.056z" fill="#fdc9a6"/><path d="m152 128v58h53.931l-2.599-58z" fill="#683b0d"/><path d="m312 352-16-8v-32h-80v32l-16 8 56 24z" fill="#fdc9a6"/><path d="m296 312v19.62a70.858 70.858 0 0 1 -80 .02v-19.64z" fill="#e6af89"/><path d="m256 328a70.894 70.894 0 0 1 -65.824-44.567 198.192 198.192 0 0 1 -14.176-73.603v-49.83a35.1 35.1 0 0 0 24-33.3v-14.7l10.25 8.542a135.728 135.728 0 0 0 86.889 31.458 42.717 42.717 0 0 1 35.542 19.021l3.319 4.979.026 34.842a191.831 191.831 0 0 1 -13.721 71.4l-.406 1.015a70.966 70.966 0 0 1 -65.899 44.743z" fill="#fdc9a6"/><g fill="#683b0d"><circle cx="290" cy="202" r="10"/><path d="m240.006 192a8 8 0 0 1 -1.946-.241l-32-8a8 8 0 0 1 3.88-15.522l32 8a8 8 0 0 1 -1.934 15.763z"/><circle cx="222" cy="202" r="10"/><path d="m271.992 192a8.015 8.015 0 0 0 1.947-.241l32-8a8 8 0 0 0 -3.881-15.522l-32 8a8 8 0 0 0 1.934 15.763z"/></g><path d="m264 304h-16a8 8 0 0 1 0-16h16a8 8 0 0 1 0 16z" fill="#e6af89"/><path d="m264 248h-16a8 8 0 0 1 -8-8v-16a8 8 0 0 1 16 0v8h8a8 8 0 0 1 0 16z" fill="#e6af89"/><path d="m176 176h-11.056a20.944 20.944 0 0 0 -20.944 20.944v14.112a20.944 20.944 0 0 0 2.211 9.366 20.944 20.944 0 0 0 18.733 11.578h14.056z" fill="#fdc9a6"/><path d="m72 488v-32a8 8 0 0 1 16 0v32z" fill="#026ca2"/><path d="m424 488v-32a8 8 0 0 1 16 0v32z" fill="#026ca2"/><path d="m248 240h16a32 32 0 0 1 32 32 0 0 0 0 1 0 0h-80a0 0 0 0 1 0 0 32 32 0 0 1 32-32z" fill="#683b0d"/><path d="m256 448a7.988 7.988 0 0 1 -4.8-1.6l-12.8-9.6a56.268 56.268 0 0 1 -22.4-44.8 8 8 0 0 1 16 0 40.191 40.191 0 0 0 16 32l8 6 8-6a40.191 40.191 0 0 0 16-32 8 8 0 0 1 16 0 56.268 56.268 0 0 1 -22.4 44.8l-12.8 9.6a7.988 7.988 0 0 1 -4.8 1.6z" fill="#a8a8a8"/><path d="m264 440h-8a24 24 0 1 0 24 24l32-8v-16z" fill="#fbb540"/><path d="m207 128 56.59 44.472a89.116 89.116 0 0 0 55.67 19.528 24 24 0 0 0 15.433-5.62 23.507 23.507 0 0 1 26.49-2.57l9.4 5.194a24 24 0 0 0 11.611 3h1.806a24 24 0 0 0 24-24l-48-40-24-32.004h-80z" fill="#026ca2"/><path d="m360 128-.395-.2a148 148 0 0 0 -99.466-11.835l-52.139 12.035h-56a104 104 0 0 1 104-104 104 104 0 0 1 104 104z" fill="#eaeae8"/><path d="m256 24-8.4 8.4a135.182 135.182 0 0 0 -39.6 95.6h-56a104 104 0 0 1 104-104z" fill="#0a9acd"/><path d="m208 344 48 32-56 40-16-56z" fill="#cbcbcb"/><path d="m304 344-48 32 56 40 16-56z" fill="#cbcbcb"/></g></svg>