<?xml version="1.0" encoding="UTF-8" standalone="no" ?>
<!DOCTYPE svg PUBLIC "-//W3C//DTD SVG 1.1//EN" "http://www.w3.org/Graphics/SVG/1.1/DTD/svg11.dtd">
<svg xmlns="http://www.w3.org/2000/svg" xmlns:xlink="http://www.w3.org/1999/xlink" version="1.1" width="720" height="720" viewBox="0 0 720 720" xml:space="preserve">
<desc>Created with Fabric.js 4.2.0</desc>
<defs>
</defs>
<rect x="0" y="0" width="100%" height="100%" fill="transparent"></rect>
<g transform="matrix(1 0 0 1 360 360)" id="1b611884-6b14-41d1-85aa-cb9b3af04acb"  >
<rect style="stroke: none; stroke-width: 1; stroke-dasharray: none; stroke-linecap: butt; stroke-dashoffset: 0; stroke-linejoin: miter; stroke-miterlimit: 4; fill: rgb(255,255,255); fill-opacity: 0; fill-rule: nonzero; opacity: 1;" vector-effect="non-scaling-stroke"  x="-360" y="-360" rx="0" ry="0" width="720" height="720" />
</g>
<g transform="matrix(Infinity NaN NaN Infinity 0 0)" id="099a0cde-e345-4787-9a8d-dbca54d07a07"  >
</g>
<g transform="matrix(1.37 0 0 1.37 360.9 359.12)"  >
<g style="" vector-effect="non-scaling-stroke"   >
		<g transform="matrix(1 0 0 1 -4.34 -87.78)"  >
<polygon style="stroke: none; stroke-width: 1; stroke-dasharray: none; stroke-linecap: butt; stroke-dashoffset: 0; stroke-linejoin: miter; stroke-miterlimit: 4; fill: rgb(127,140,141); fill-rule: nonzero; opacity: 1;" vector-effect="non-scaling-stroke"  points="-17.36,35.71 -17.36,-35.71 17.36,-35.71 17.36,19.13 " />
</g>
		<g transform="matrix(1 0 0 1 -4.34 -216.95)"  >
<path style="stroke: none; stroke-width: 1; stroke-dasharray: none; stroke-linecap: butt; stroke-dashoffset: 0; stroke-linejoin: miter; stroke-miterlimit: 4; fill: rgb(127,140,141); fill-rule: nonzero; opacity: 1;" vector-effect="non-scaling-stroke"  transform=" translate(-252.67, -39.05)" d="M 235.31 4.342 L 252.666 4.342 C 262.251 4.342 270.022 12.113 270.022 21.698 L 270.022 73.76599999999999 L 235.31 73.76599999999999 L 235.31 4.342 z" stroke-linecap="round" />
</g>
		<g transform="matrix(1 0 0 1 147.53 -190.92)"  >
<path style="stroke: none; stroke-width: 1; stroke-dasharray: none; stroke-linecap: butt; stroke-dashoffset: 0; stroke-linejoin: miter; stroke-miterlimit: 4; fill: rgb(149,165,165); fill-rule: nonzero; opacity: 1;" vector-effect="non-scaling-stroke"  transform=" translate(-404.53, -65.09)" d="M 504.327 73.765 L 304.734 73.765 C 299.941 73.765 296.056 69.88 296.056 65.087 C 296.056 60.29400000000001 299.941 56.409000000000006 304.734 56.409000000000006 L 504.327 56.409000000000006 C 509.12 56.409000000000006 513.005 60.294000000000004 513.005 65.087 C 513.005 69.88 509.12 73.765 504.327 73.765 z" stroke-linecap="round" />
</g>
		<g transform="matrix(1 0 0 1 147.53 -121.49)"  >
<path style="stroke: none; stroke-width: 1; stroke-dasharray: none; stroke-linecap: butt; stroke-dashoffset: 0; stroke-linejoin: miter; stroke-miterlimit: 4; fill: rgb(149,165,165); fill-rule: nonzero; opacity: 1;" vector-effect="non-scaling-stroke"  transform=" translate(-404.53, -134.51)" d="M 504.327 143.189 L 304.734 143.189 C 299.941 143.189 296.056 139.304 296.056 134.511 C 296.056 129.718 299.941 125.833 304.734 125.833 L 504.327 125.833 C 509.12 125.833 513.005 129.718 513.005 134.511 C 513.005 139.304 509.12 143.189 504.327 143.189 z" stroke-linecap="round" />
</g>
		<g transform="matrix(1 0 0 1 147.53 -156.2)"  >
<path style="stroke: none; stroke-width: 1; stroke-dasharray: none; stroke-linecap: butt; stroke-dashoffset: 0; stroke-linejoin: miter; stroke-miterlimit: 4; fill: rgb(149,165,165); fill-rule: nonzero; opacity: 1;" vector-effect="non-scaling-stroke"  transform=" translate(-404.53, -99.8)" d="M 504.327 108.477 L 304.734 108.477 C 299.941 108.477 296.056 104.592 296.056 99.799 C 296.056 95.006 299.941 91.12100000000001 304.734 91.12100000000001 L 504.327 91.12100000000001 C 509.12 91.12100000000001 513.005 95.00600000000001 513.005 99.799 C 513.005 104.592 509.12 108.477 504.327 108.477 z" stroke-linecap="round" />
</g>
		<g transform="matrix(1 0 0 1 -78.1 -95.46)"  >
<path style="stroke: none; stroke-width: 1; stroke-dasharray: none; stroke-linecap: butt; stroke-dashoffset: 0; stroke-linejoin: miter; stroke-miterlimit: 4; fill: rgb(127,140,141); fill-rule: nonzero; opacity: 1;" vector-effect="non-scaling-stroke"  transform=" translate(-178.9, -160.55)" d="M 191.92 186.579 L 165.886 186.579 C 161.093 186.579 157.208 182.69400000000002 157.208 177.901 C 157.208 173.108 161.093 169.223 165.886 169.223 L 183.242 169.223 L 183.242 143.18900000000002 C 183.242 138.39600000000002 187.12699999999998 134.51100000000002 191.92 134.51100000000002 C 196.713 134.51100000000002 200.59799999999998 138.39600000000002 200.59799999999998 143.18900000000002 L 200.59799999999998 177.901 C 200.599 180.203 199.68499999999997 182.411 198.058 184.03900000000002 C 196.431 185.66700000000003 194.222 186.58 191.92 186.579 z" stroke-linecap="round" />
</g>
		<g transform="matrix(1 0 0 1 -160.59 197.51)"  >
<path style="stroke: none; stroke-width: 1; stroke-dasharray: none; stroke-linecap: butt; stroke-dashoffset: 0; stroke-linejoin: miter; stroke-miterlimit: 4; fill: rgb(128,83,51); fill-rule: nonzero; opacity: 1;" vector-effect="non-scaling-stroke"  transform=" translate(-96.42, -453.51)" d="M 191.834 429.562 L 25.563999999999993 506.10200000000003 C 23.299999999999994 507.12300000000005 20.84499999999999 507.656 18.360999999999994 507.66400000000004 C 10.193999999999994 507.665 3.130999999999993 501.97300000000007 1.396999999999995 493.992 C -0.3370000000000051 486.011 3.726999999999995 477.90200000000004 11.157999999999994 474.514 L 174.564 399.363 L 191.834 429.562 z" stroke-linecap="round" />
</g>
		<g transform="matrix(1 0 0 1 47.73 8.68)"  >
<path style="stroke: none; stroke-width: 1; stroke-dasharray: none; stroke-linecap: butt; stroke-dashoffset: 0; stroke-linejoin: miter; stroke-miterlimit: 4; fill: rgb(128,83,51); fill-rule: nonzero; opacity: 1;" vector-effect="non-scaling-stroke"  transform=" translate(-304.73, -264.68)" d="M 304.734 325.426 C 302.43199999999996 325.42699999999996 300.224 324.513 298.596 322.88599999999997 C 296.968 321.258 296.05400000000003 319.04999999999995 296.056 316.748 L 296.056 212.613 C 296.056 207.82 299.941 203.935 304.734 203.935 C 309.527 203.935 313.412 207.82 313.412 212.613 L 313.412 316.749 C 313.41299999999995 319.05100000000004 312.49899999999997 321.259 310.87199999999996 322.887 C 309.244 324.514 307.036 325.428 304.734 325.426 z" stroke-linecap="round" />
</g>
		<g transform="matrix(1 0 0 1 -7.5 31.55)"  >
<path style="stroke: none; stroke-width: 1; stroke-dasharray: none; stroke-linecap: butt; stroke-dashoffset: 0; stroke-linejoin: miter; stroke-miterlimit: 4; fill: rgb(128,83,51); fill-rule: nonzero; opacity: 1;" vector-effect="non-scaling-stroke"  transform=" translate(-249.5, -287.55)" d="M 286.327 333.053 C 284.025 333.056 281.817 332.141 280.192 330.51 L 206.556 256.874 C 204.358 254.68300000000002 203.497 251.485 204.298 248.48700000000002 C 205.1 245.48900000000003 207.441 243.14700000000002 210.44 242.34500000000003 C 213.439 241.54300000000003 216.636 242.40400000000002 218.827 244.60300000000004 L 292.46299999999997 318.23900000000003 C 294.94399999999996 320.72100000000006 295.686 324.45300000000003 294.34299999999996 327.69500000000005 C 293 330.938 289.837 333.052 286.327 333.053 L 286.327 333.053 z" stroke-linecap="round" />
</g>
		<g transform="matrix(1 0 0 1 -30.37 86.78)"  >
<path style="stroke: none; stroke-width: 1; stroke-dasharray: none; stroke-linecap: butt; stroke-dashoffset: 0; stroke-linejoin: miter; stroke-miterlimit: 4; fill: rgb(128,83,51); fill-rule: nonzero; opacity: 1;" vector-effect="non-scaling-stroke"  transform=" translate(-226.63, -342.78)" d="M 278.7 351.46 L 174.564 351.46 C 169.771 351.46 165.886 347.575 165.886 342.782 C 165.886 337.989 169.771 334.104 174.564 334.104 L 278.7 334.104 C 283.493 334.104 287.378 337.989 287.378 342.782 C 287.378 347.575 283.493 351.46 278.7 351.46 z" stroke-linecap="round" />
</g>
		<g transform="matrix(1 0 0 1 -7.49 142)"  >
<path style="stroke: none; stroke-width: 1; stroke-dasharray: none; stroke-linecap: butt; stroke-dashoffset: 0; stroke-linejoin: miter; stroke-miterlimit: 4; fill: rgb(128,83,51); fill-rule: nonzero; opacity: 1;" vector-effect="non-scaling-stroke"  transform=" translate(-249.51, -398.01)" d="M 212.691 443.503 C 209.18200000000002 443.502 206.018 441.388 204.675 438.14599999999996 C 203.33200000000002 434.90399999999994 204.074 431.17199999999997 206.555 428.68999999999994 L 280.19100000000003 355.054 C 282.38300000000004 352.86199999999997 285.57800000000003 352.006 288.572 352.808 C 291.56600000000003 353.61 293.90500000000003 355.949 294.708 358.944 C 295.51000000000005 361.93800000000005 294.65400000000005 365.13300000000004 292.46200000000005 367.32500000000005 L 218.82600000000005 440.961 C 217.202 442.591 214.994 443.505 212.691 443.503 z" stroke-linecap="round" />
</g>
		<g transform="matrix(1 0 0 1 47.73 164.88)"  >
<path style="stroke: none; stroke-width: 1; stroke-dasharray: none; stroke-linecap: butt; stroke-dashoffset: 0; stroke-linejoin: miter; stroke-miterlimit: 4; fill: rgb(128,83,51); fill-rule: nonzero; opacity: 1;" vector-effect="non-scaling-stroke"  transform=" translate(-304.73, -420.88)" d="M 304.734 481.63 C 302.43199999999996 481.631 300.224 480.717 298.596 479.09 C 296.968 477.462 296.05400000000003 475.25399999999996 296.056 472.952 L 296.056 368.816 C 296.056 364.02299999999997 299.941 360.138 304.734 360.138 C 309.527 360.138 313.412 364.02299999999997 313.412 368.816 L 313.412 472.952 C 313.41299999999995 475.254 312.49899999999997 477.462 310.87199999999996 479.09 C 309.244 480.717 307.036 481.631 304.734 481.63 z" stroke-linecap="round" />
</g>
		<g transform="matrix(1 0 0 1 102.95 142)"  >
<path style="stroke: none; stroke-width: 1; stroke-dasharray: none; stroke-linecap: butt; stroke-dashoffset: 0; stroke-linejoin: miter; stroke-miterlimit: 4; fill: rgb(128,83,51); fill-rule: nonzero; opacity: 1;" vector-effect="non-scaling-stroke"  transform=" translate(-359.95, -398)" d="M 396.776 443.503 C 394.474 443.506 392.266 442.59 390.641 440.96 L 317.005 367.32399999999996 C 314.807 365.133 313.94599999999997 361.93499999999995 314.747 358.93699999999995 C 315.548 355.93899999999996 317.89 353.597 320.889 352.79499999999996 C 323.887 351.99299999999994 327.08500000000004 352.854 329.276 355.05299999999994 L 402.91200000000003 428.68899999999996 C 405.39300000000003 431.171 406.13500000000005 434.90299999999996 404.79200000000003 438.145 C 403.45 441.387 400.286 443.501 396.776 443.503 L 396.776 443.503 z" stroke-linecap="round" />
</g>
		<g transform="matrix(1 0 0 1 125.83 86.78)"  >
<path style="stroke: none; stroke-width: 1; stroke-dasharray: none; stroke-linecap: butt; stroke-dashoffset: 0; stroke-linejoin: miter; stroke-miterlimit: 4; fill: rgb(128,83,51); fill-rule: nonzero; opacity: 1;" vector-effect="non-scaling-stroke"  transform=" translate(-382.84, -342.78)" d="M 434.903 351.46 L 330.768 351.46 C 325.97499999999997 351.46 322.09 347.575 322.09 342.782 C 322.09 337.989 325.97499999999997 334.104 330.768 334.104 L 434.904 334.104 C 439.697 334.104 443.582 337.989 443.582 342.782 C 443.581 347.575 439.696 351.46 434.903 351.46 z" stroke-linecap="round" />
</g>
		<g transform="matrix(1 0 0 1 102.96 31.55)"  >
<path style="stroke: none; stroke-width: 1; stroke-dasharray: none; stroke-linecap: butt; stroke-dashoffset: 0; stroke-linejoin: miter; stroke-miterlimit: 4; fill: rgb(128,83,51); fill-rule: nonzero; opacity: 1;" vector-effect="non-scaling-stroke"  transform=" translate(-359.96, -287.55)" d="M 323.141 333.053 C 319.632 333.052 316.468 330.938 315.125 327.69599999999997 C 313.782 324.45399999999995 314.524 320.722 317.005 318.23999999999995 L 390.64099999999996 244.60399999999996 C 392.83199999999994 242.40599999999995 396.03 241.54499999999996 399.02799999999996 242.34599999999995 C 402.02599999999995 243.14799999999994 404.36799999999994 245.48899999999995 405.16999999999996 248.48799999999994 C 405.972 251.48699999999994 405.11099999999993 254.68399999999994 402.912 256.87499999999994 L 329.27599999999995 330.51099999999997 C 327.651 332.141 325.443 333.056 323.141 333.053 z" stroke-linecap="round" />
</g>
		<g transform="matrix(1 0 0 1 47.73 86.78)"  >
<path style="stroke: none; stroke-width: 1; stroke-dasharray: none; stroke-linecap: butt; stroke-dashoffset: 0; stroke-linejoin: miter; stroke-miterlimit: 4; fill: rgb(203,130,82); fill-rule: nonzero; opacity: 1;" vector-effect="non-scaling-stroke"  transform=" translate(-304.73, -342.78)" d="M 304.734 177.901 C 213.67299999999997 177.901 139.85299999999998 251.721 139.85299999999998 342.78200000000004 C 139.85299999999998 433.8430000000001 213.67299999999997 507.663 304.734 507.663 C 395.79499999999996 507.663 469.615 433.843 469.615 342.78200000000004 C 469.594 251.729 395.787 177.922 304.734 177.901 z M 304.734 472.952 C 232.84299999999996 472.952 174.56499999999997 414.673 174.56499999999997 342.783 C 174.56499999999997 270.89300000000003 232.84399999999997 212.614 304.734 212.614 C 376.624 212.614 434.903 270.89300000000003 434.903 342.783 C 434.816 414.637 376.588 472.864 304.734 472.952 z" stroke-linecap="round" />
</g>
		<g transform="matrix(1 0 0 1 47.73 86.78)"  >
<circle style="stroke: none; stroke-width: 1; stroke-dasharray: none; stroke-linecap: butt; stroke-dashoffset: 0; stroke-linejoin: miter; stroke-miterlimit: 4; fill: rgb(203,130,82); fill-rule: nonzero; opacity: 1;" vector-effect="non-scaling-stroke"  cx="0" cy="0" r="34.712" />
</g>
		<g transform="matrix(1 0 0 1 -13.01 -156.2)"  >
<path style="stroke: none; stroke-width: 1; stroke-dasharray: none; stroke-linecap: butt; stroke-dashoffset: 0; stroke-linejoin: miter; stroke-miterlimit: 4; fill: rgb(189,195,199); fill-rule: nonzero; opacity: 1;" vector-effect="non-scaling-stroke"  transform=" translate(-243.99, -99.8)" d="M 209.276 56.409 L 304.73400000000004 56.409 L 304.73400000000004 143.189 L 183.242 143.189 L 183.242 82.443 C 183.242 68.065 194.898 56.409 209.276 56.409 z" stroke-linecap="round" />
</g>
		<g transform="matrix(1 0 0 1 212.61 -156.2)"  >
<path style="stroke: none; stroke-width: 1; stroke-dasharray: none; stroke-linecap: butt; stroke-dashoffset: 0; stroke-linejoin: miter; stroke-miterlimit: 4; fill: rgb(127,140,141); fill-rule: nonzero; opacity: 1;" vector-effect="non-scaling-stroke"  transform=" translate(-469.61, -99.8)" d="M 469.615 160.545 C 467.313 160.546 465.105 159.63199999999998 463.47700000000003 158.005 C 461.84900000000005 156.377 460.93500000000006 154.16899999999998 460.937 151.867 L 460.937 47.731 C 460.937 42.938 464.822 39.053 469.615 39.053 C 474.408 39.053 478.293 42.937999999999995 478.293 47.730999999999995 L 478.293 151.867 C 478.294 154.16899999999998 477.38 156.37699999999998 475.753 158.005 C 474.125 159.632 471.917 160.546 469.615 160.545 z" stroke-linecap="round" />
</g>
</g>
</g>
<g transform="matrix(1 0 0 1 625.57 583.64)" style="filter: url(#SVGID_224);" id="849eb907-2d71-462c-903c-5d20216c3171"  >
<filter id="SVGID_224" y="-30%" height="160%" x="-35%" width="170%" >
	<feGaussianBlur in="SourceAlpha" stdDeviation="10"></feGaussianBlur>
	<feOffset dx="0" dy="0" result="oBlur" ></feOffset>
	<feFlood flood-color="rgb(0,0,0)" flood-opacity="1"/>
	<feComposite in2="oBlur" operator="in" />
	<feMerge>
		<feMergeNode></feMergeNode>
		<feMergeNode in="SourceGraphic"></feMergeNode>
	</feMerge>
</filter>
		<text xml:space="preserve" font-family="Lato" font-size="186" font-style="normal" font-weight="400" style="stroke: none; stroke-width: 1; stroke-dasharray: none; stroke-linecap: butt; stroke-dashoffset: 0; stroke-linejoin: miter; stroke-miterlimit: 4; fill: rgb(255,255,204); fill-rule: nonzero; opacity: 1; white-space: pre;" ><tspan x="-63.24" y="58.43" >A</tspan></text>
</g>
</svg>