<?xml version="1.0" encoding="UTF-8" standalone="no" ?>
<!DOCTYPE svg PUBLIC "-//W3C//DTD SVG 1.1//EN" "http://www.w3.org/Graphics/SVG/1.1/DTD/svg11.dtd">
<svg xmlns="http://www.w3.org/2000/svg" xmlns:xlink="http://www.w3.org/1999/xlink" version="1.1" width="720" height="720" viewBox="0 0 720 720" xml:space="preserve">
<desc>Created with Fabric.js 4.2.0</desc>
<defs>
</defs>
<rect x="0" y="0" width="100%" height="100%" fill="transparent"></rect>
<g transform="matrix(1 0 0 1 360 360)" id="088ff5e9-cec8-4b99-9d85-4d7f1d684ffe"  >
<rect style="stroke: none; stroke-width: 1; stroke-dasharray: none; stroke-linecap: butt; stroke-dashoffset: 0; stroke-linejoin: miter; stroke-miterlimit: 4; fill: rgb(255,255,255); fill-opacity: 0; fill-rule: nonzero; opacity: 1;" vector-effect="non-scaling-stroke"  x="-360" y="-360" rx="0" ry="0" width="720" height="720" />
</g>
<g transform="matrix(0 0 0 0 0 0)" id="10e72e25-f349-42f5-adff-9246252ebd1e"  >
</g>
<g transform="matrix(3.61 0 0 3.61 624 600.86)" style="filter: url(#SVGID_1426);" id="f42727bd-bc40-4e3b-832d-5e77afda711c"  >
<filter id="SVGID_1426" y="-46%" height="192%" x="-54%" width="208%" >
	<feGaussianBlur in="SourceAlpha" stdDeviation="7.5"></feGaussianBlur>
	<feOffset dx="0" dy="0" result="oBlur" ></feOffset>
	<feFlood flood-color="rgb(255,255,0)" flood-opacity="1"/>
	<feComposite in2="oBlur" operator="in" />
	<feMerge>
		<feMergeNode></feMergeNode>
		<feMergeNode in="SourceGraphic"></feMergeNode>
	</feMerge>
</filter>
		<rect opacity="0" fill="rgb(0,0,0)" x="-22.39" y="-28.81" width="44.77" height="57.63"></rect>
		<text xml:space="preserve" font-family="Lato" font-size="51" font-style="normal" font-weight="400" style="stroke: none; stroke-width: 1; stroke-dasharray: none; stroke-linecap: butt; stroke-dashoffset: 0; stroke-linejoin: miter; stroke-miterlimit: 4; fill: rgb(153,255,153); fill-rule: nonzero; opacity: 1; white-space: pre;" ><tspan x="-14.43" y="16.02" >F</tspan></text>
</g>
<g transform="matrix(1.36 0 0 1.36 360.4 360.44)"  >
<g style="" vector-effect="non-scaling-stroke"   >
		<g transform="matrix(1 0 0 1 0 21.46)"  >
<path style="stroke: none; stroke-width: 1; stroke-dasharray: none; stroke-linecap: butt; stroke-dashoffset: 0; stroke-linejoin: miter; stroke-miterlimit: 4; fill: rgb(112,108,100); fill-rule: nonzero; opacity: 1;" vector-effect="non-scaling-stroke"  transform=" translate(-256, -277.46)" d="M 45.748 508.481 L 24.976 487.709 C 20.285 483.01800000000003 20.285 475.413 24.976 470.722 L 449.266 46.43299999999999 C 453.957 41.74199999999999 461.562 41.74199999999999 466.25300000000004 46.43299999999999 L 487.02500000000003 67.20499999999998 C 491.716 71.89599999999999 491.716 79.50099999999998 487.02500000000003 84.19199999999998 L 62.735000000000014 508.481 C 58.04400000000001 513.171 50.439000000000014 513.171 45.74800000000002 508.481 z" stroke-linecap="round" />
</g>
		<g transform="matrix(1 0 0 1 52.02 -30.56)"  >
<path style="stroke: none; stroke-width: 1; stroke-dasharray: none; stroke-linecap: butt; stroke-dashoffset: 0; stroke-linejoin: miter; stroke-miterlimit: 4; fill: rgb(143,139,129); fill-rule: nonzero; opacity: 1;" vector-effect="non-scaling-stroke"  transform=" translate(-308.02, -225.44)" d="M 289.67 281.545 L 364.12600000000003 207.089 C 374.55300000000005 196.662 374.55300000000005 179.757 364.12600000000003 169.32999999999998 C 353.699 158.903 336.79400000000004 158.903 326.367 169.32999999999998 L 251.911 243.786 C 241.484 254.213 241.484 271.118 251.911 281.545 C 262.339 291.97200000000004 279.244 291.97200000000004 289.67 281.545 z" stroke-linecap="round" />
</g>
		<g transform="matrix(1 0 0 1 61.76 -40.31)"  >
<path style="stroke: none; stroke-width: 1; stroke-dasharray: none; stroke-linecap: butt; stroke-dashoffset: 0; stroke-linejoin: miter; stroke-miterlimit: 4; fill: rgb(181,177,164); fill-rule: nonzero; opacity: 1;" vector-effect="non-scaling-stroke"  transform=" translate(-317.76, -215.69)" d="M 307.306 188.392 L 290.462 205.236 C 280.03499999999997 215.66299999999998 280.03499999999997 232.56799999999998 290.462 242.995 C 300.889 253.422 317.794 253.422 328.221 242.995 L 345.065 226.151 C 355.492 215.72400000000002 355.492 198.81900000000002 345.065 188.392 C 334.638 177.966 317.733 177.966 307.306 188.392 z" stroke-linecap="round" />
</g>
		<g transform="matrix(1 0 0 1 183.77 -162.31)"  >
<path style="stroke: none; stroke-width: 1; stroke-dasharray: none; stroke-linecap: butt; stroke-dashoffset: 0; stroke-linejoin: miter; stroke-miterlimit: 4; fill: rgb(254,37,95); fill-rule: nonzero; opacity: 1;" vector-effect="non-scaling-stroke"  transform=" translate(-439.77, -93.69)" d="M 426.751 144.465 L 487.024 84.19200000000001 C 491.715 79.501 491.715 71.89600000000002 487.024 67.20500000000001 L 466.252 46.433000000000014 C 461.56100000000004 41.74200000000001 453.956 41.74200000000001 449.265 46.433000000000014 L 388.99199999999996 106.70600000000002 z" stroke-linecap="round" />
</g>
		<g transform="matrix(0.71 -0.71 0.71 0.71 140.37 -118.94)"  >
<path style="stroke: none; stroke-width: 1; stroke-dasharray: none; stroke-linecap: butt; stroke-dashoffset: 0; stroke-linejoin: miter; stroke-miterlimit: 4; fill: rgb(255,199,81); fill-rule: nonzero; opacity: 1;" vector-effect="non-scaling-stroke"  transform=" translate(-396.43, -137.03)" d="M 380.249 110.327 L 412.61 110.327 L 412.61 163.726 L 380.249 163.726 z" stroke-linecap="round" />
</g>
		<g transform="matrix(1 0 0 1 -127.52 167.86)"  >
<path style="stroke: none; stroke-width: 1; stroke-dasharray: none; stroke-linecap: butt; stroke-dashoffset: 0; stroke-linejoin: miter; stroke-miterlimit: 4; fill: rgb(89,87,81); fill-rule: nonzero; opacity: 1;" vector-effect="non-scaling-stroke"  transform=" translate(-128.48, -423.86)" d="M 235.509 335.71 L 62.73599999999999 508.484 C 58.04799999999999 513.172 50.43699999999999 513.172 45.748999999999995 508.484 L 24.973999999999997 487.709 C 20.285999999999998 483.021 20.285999999999998 475.411 24.973999999999997 470.722 L 123.25999999999999 372.436 C 162.321 368.57099999999997 200.712 356.32399999999996 235.509 335.71 z" stroke-linecap="round" />
</g>
		<g transform="matrix(1 0 0 1 -164.89 205.23)"  >
<path style="stroke: none; stroke-width: 1; stroke-dasharray: none; stroke-linecap: butt; stroke-dashoffset: 0; stroke-linejoin: miter; stroke-miterlimit: 4; fill: rgb(68,67,63); fill-rule: nonzero; opacity: 1;" vector-effect="non-scaling-stroke"  transform=" translate(-91.11, -461.23)" d="M 160.758 410.461 L 62.735000000000014 508.48400000000004 C 58.04700000000001 513.172 50.436000000000014 513.172 45.74800000000002 508.48400000000004 L 24.97300000000002 487.70900000000006 C 20.28500000000002 483.0210000000001 20.28500000000002 475.41100000000006 24.97300000000002 470.72200000000004 L 48.508000000000024 447.187 C 87.57000000000002 443.322 125.96100000000003 431.075 160.75800000000004 410.461 z" stroke-linecap="round" />
</g>
		<g transform="matrix(1 0 0 1 176.84 -136.5)"  >
<path style="stroke: none; stroke-width: 1; stroke-dasharray: none; stroke-linecap: butt; stroke-dashoffset: 0; stroke-linejoin: miter; stroke-miterlimit: 4; fill: rgb(224,17,82); fill-rule: nonzero; opacity: 1;" vector-effect="non-scaling-stroke"  transform=" translate(-432.84, -119.5)" d="M 476.688 94.531 L 426.755 144.464 L 388.993 106.702 L 400.247 95.448 C 423.63 109.913 453.569 109.61599999999999 476.688 94.53099999999999 z" stroke-linecap="round" />
</g>
		<g transform="matrix(1 0 0 1 71.2 -196.25)"  >
<path style="stroke: none; stroke-width: 1; stroke-dasharray: none; stroke-linecap: butt; stroke-dashoffset: 0; stroke-linejoin: miter; stroke-miterlimit: 4; fill: rgb(218,210,255); fill-rule: nonzero; opacity: 1;" vector-effect="non-scaling-stroke"  transform=" translate(-327.2, -59.75)" d="M 384.868 56.926 L 372.20799999999997 53.001000000000005 C 353.92699999999996 47.333000000000006 339.61299999999994 33.02 333.945 14.738000000000007 L 330.02 2.0780000000000065 C 329.637 0.8420000000000065 328.49399999999997 6.661338147750939e-15 327.20099999999996 6.661338147750939e-15 C 325.907 6.661338147750939e-15 324.76399999999995 0.8420000000000066 324.381 2.0780000000000065 L 320.45599999999996 14.738000000000007 C 314.78799999999995 33.019000000000005 300.47399999999993 47.333000000000006 282.193 53.001000000000005 L 269.53299999999996 56.926 C 268.29699999999997 57.309000000000005 267.455 58.452000000000005 267.455 59.746 C 267.455 61.04 268.29699999999997 62.183 269.53299999999996 62.566 L 282.193 66.491 C 300.474 72.159 314.788 86.47200000000001 320.45599999999996 104.75399999999999 L 324.381 117.41399999999999 C 324.76399999999995 118.64999999999999 325.907 119.49199999999999 327.20099999999996 119.49199999999999 C 328.49499999999995 119.49199999999999 329.638 118.64999999999999 330.02099999999996 117.41399999999999 L 333.94599999999997 104.75399999999999 C 339.614 86.47299999999998 353.92699999999996 72.15899999999999 372.20899999999995 66.49099999999999 L 384.86899999999997 62.56599999999999 C 386.10499999999996 62.182999999999986 386.94699999999995 61.039999999999985 386.94699999999995 59.74599999999999 C 386.94599999999997 58.45199999999999 386.1039999999999 57.30899999999999 384.86799999999994 56.92599999999999 z" stroke-linecap="round" />
</g>
		<g transform="matrix(1 0 0 1 93.4 -178.4)"  >
<path style="stroke: none; stroke-width: 1; stroke-dasharray: none; stroke-linecap: butt; stroke-dashoffset: 0; stroke-linejoin: miter; stroke-miterlimit: 4; fill: rgb(195,185,249); fill-rule: nonzero; opacity: 1;" vector-effect="non-scaling-stroke"  transform=" translate(-349.4, -77.6)" d="M 386.943 59.741 C 386.943 61.036 386.102 62.18 384.86199999999997 62.565 L 372.21399999999994 66.492 C 353.9309999999999 72.155 339.61499999999995 86.47 333.95199999999994 104.754 L 330.0249999999999 117.41600000000001 C 329.6389999999999 118.656 328.4959999999999 119.49600000000001 327.19999999999993 119.49600000000001 C 325.90399999999994 119.49600000000001 324.7609999999999 118.656 324.3759999999999 117.41600000000001 L 320.4489999999999 104.754 C 318.5339999999999 98.554 315.6129999999999 92.809 311.8649999999999 87.697 C 331.7739999999999 84.156 346.8749999999999 66.754 346.8749999999999 45.839000000000006 C 346.8749999999999 42.35300000000001 346.4619999999999 38.964000000000006 345.6629999999999 35.712 C 352.6349999999999 43.703 361.7689999999999 49.766000000000005 372.2129999999999 53.003 L 384.86099999999993 56.93 C 386.1019999999999 57.316 386.9429999999999 58.446 386.9429999999999 59.741 z" stroke-linecap="round" />
</g>
		<g transform="matrix(1 0 0 1 160.39 -176.98)"  >
<path style="stroke: none; stroke-width: 1; stroke-dasharray: none; stroke-linecap: butt; stroke-dashoffset: 0; stroke-linejoin: miter; stroke-miterlimit: 4; fill: rgb(255,224,89); fill-rule: nonzero; opacity: 1;" vector-effect="non-scaling-stroke"  transform=" translate(-416.39, -79.02)" d="M 439.485 81.206 C 441.057 80.17 441.057 77.87100000000001 439.485 76.83500000000001 C 435.427 74.162 431.576 71.052 427.999 67.50300000000001 C 424.422 63.95400000000002 421.28900000000004 60.131000000000014 418.595 56.10500000000002 C 417.55100000000004 54.545000000000016 415.23400000000004 54.545000000000016 414.19100000000003 56.10500000000002 C 411.49800000000005 60.13200000000002 408.36400000000003 63.95400000000002 404.78700000000003 67.50300000000001 C 401.21000000000004 71.052 397.35900000000004 74.16200000000002 393.30100000000004 76.83500000000001 C 391.72900000000004 77.87100000000001 391.72900000000004 80.17 393.30100000000004 81.206 C 397.35900000000004 83.879 401.21000000000004 86.989 404.78700000000003 90.53800000000001 C 408.36400000000003 94.08700000000002 411.497 97.91000000000001 414.19100000000003 101.936 C 415.23400000000004 103.49600000000001 417.552 103.49600000000001 418.595 101.936 C 421.288 97.909 424.422 94.087 427.999 90.53800000000001 C 431.576 86.98900000000002 435.427 83.879 439.485 81.20600000000002 z" stroke-linecap="round" />
</g>
		<g transform="matrix(1 0 0 1 166.02 -170.7)"  >
<path style="stroke: none; stroke-width: 1; stroke-dasharray: none; stroke-linecap: butt; stroke-dashoffset: 0; stroke-linejoin: miter; stroke-miterlimit: 4; fill: rgb(255,199,81); fill-rule: nonzero; opacity: 1;" vector-effect="non-scaling-stroke"  transform=" translate(-422.02, -85.3)" d="M 439.486 81.204 C 435.429 83.877 431.578 86.98599999999999 428 90.53699999999999 C 424.422 94.088 421.289 97.90899999999999 418.596 101.93599999999999 C 417.552 103.494 415.237 103.494 414.193 101.93599999999999 C 411.49899999999997 97.91 408.36699999999996 94.088 404.789 90.53699999999999 C 404.323 90.07499999999999 403.851 89.61999999999999 403.372 89.17099999999999 C 404.004 89.22399999999999 404.642 89.24999999999999 405.28700000000003 89.24999999999999 C 417.564 89.24999999999999 427.574 79.57399999999998 427.98600000000005 67.48899999999999 C 427.99300000000005 67.496 427.99300000000005 67.496 427.999 67.502 C 431.577 71.053 435.428 74.16199999999999 439.485 76.835 C 441.055 77.871 441.055 80.16799999999999 439.486 81.204 z" stroke-linecap="round" />
</g>
		<g transform="matrix(1 0 0 1 183.77 -57.11)"  >
<path style="stroke: none; stroke-width: 1; stroke-dasharray: none; stroke-linecap: butt; stroke-dashoffset: 0; stroke-linejoin: miter; stroke-miterlimit: 4; fill: rgb(218,210,255); fill-rule: nonzero; opacity: 1;" vector-effect="non-scaling-stroke"  transform=" translate(-439.77, -198.89)" d="M 462.859 201.08 C 464.431 200.044 464.431 197.745 462.859 196.709 C 458.801 194.036 454.95 190.92600000000002 451.373 187.377 C 447.796 183.828 444.663 180.005 441.969 175.979 C 440.925 174.419 438.608 174.419 437.565 175.979 C 434.872 180.006 431.738 183.828 428.161 187.377 C 424.584 190.92600000000002 420.733 194.036 416.675 196.709 C 415.103 197.745 415.103 200.044 416.675 201.08 C 420.733 203.75300000000001 424.584 206.863 428.161 210.412 C 431.738 213.961 434.871 217.784 437.565 221.81 C 438.608 223.37 440.926 223.37 441.969 221.81 C 444.662 217.78300000000002 447.796 213.961 451.373 210.412 C 454.95 206.863 458.801 203.75300000000001 462.859 201.08 z" stroke-linecap="round" />
</g>
		<g transform="matrix(1 0 0 1 189.39 -50.83)"  >
<path style="stroke: none; stroke-width: 1; stroke-dasharray: none; stroke-linecap: butt; stroke-dashoffset: 0; stroke-linejoin: miter; stroke-miterlimit: 4; fill: rgb(195,185,249); fill-rule: nonzero; opacity: 1;" vector-effect="non-scaling-stroke"  transform=" translate(-445.39, -205.17)" d="M 462.86 201.078 C 458.803 203.751 454.952 206.86 451.374 210.411 C 447.79600000000005 213.962 444.663 217.78300000000002 441.97 221.81 C 440.92600000000004 223.368 438.61100000000005 223.368 437.567 221.81 C 434.873 217.784 431.741 213.962 428.163 210.411 C 427.697 209.949 427.225 209.494 426.74600000000004 209.045 C 427.37800000000004 209.09799999999998 428.016 209.124 428.66100000000006 209.124 C 440.93800000000005 209.124 450.94800000000004 199.448 451.36000000000007 187.363 L 451.37300000000005 187.376 C 454.951 190.927 458.802 194.036 462.85900000000004 196.709 C 464.42900000000003 197.745 464.42900000000003 200.042 462.86 201.078 z" stroke-linecap="round" />
</g>
		<g transform="matrix(1 0 0 1 24.51 -125.12)"  >
<path style="stroke: none; stroke-width: 1; stroke-dasharray: none; stroke-linecap: butt; stroke-dashoffset: 0; stroke-linejoin: miter; stroke-miterlimit: 4; fill: rgb(255,224,89); fill-rule: nonzero; opacity: 1;" vector-effect="non-scaling-stroke"  transform=" translate(-280.51, -130.88)" d="M 303.601 133.065 C 305.173 132.029 305.173 129.73 303.601 128.694 C 299.543 126.02099999999999 295.692 122.91099999999999 292.115 119.362 C 288.538 115.813 285.40500000000003 111.99 282.711 107.964 C 281.66700000000003 106.404 279.35 106.404 278.307 107.964 C 275.61400000000003 111.991 272.48 115.813 268.903 119.362 C 265.326 122.91099999999999 261.475 126.021 257.41700000000003 128.694 C 255.84500000000003 129.73 255.84500000000003 132.029 257.41700000000003 133.065 C 261.475 135.738 265.326 138.84799999999998 268.903 142.397 C 272.48 145.946 275.613 149.769 278.307 153.795 C 279.35 155.355 281.668 155.355 282.711 153.795 C 285.404 149.768 288.538 145.946 292.115 142.397 C 295.692 138.84799999999998 299.543 135.738 303.601 133.065 z" stroke-linecap="round" />
</g>
		<g transform="matrix(1 0 0 1 30.13 -118.84)"  >
<path style="stroke: none; stroke-width: 1; stroke-dasharray: none; stroke-linecap: butt; stroke-dashoffset: 0; stroke-linejoin: miter; stroke-miterlimit: 4; fill: rgb(255,199,81); fill-rule: nonzero; opacity: 1;" vector-effect="non-scaling-stroke"  transform=" translate(-286.13, -137.16)" d="M 303.602 133.063 C 299.54499999999996 135.736 295.69399999999996 138.845 292.116 142.396 C 288.538 145.94699999999997 285.405 149.76799999999997 282.712 153.795 C 281.668 155.35299999999998 279.353 155.35299999999998 278.30899999999997 153.795 C 275.61499999999995 149.76899999999998 272.48299999999995 145.94699999999997 268.905 142.396 C 268.43899999999996 141.934 267.967 141.47899999999998 267.488 141.02999999999997 C 268.12 141.08299999999997 268.758 141.10899999999998 269.403 141.10899999999998 C 281.68 141.10899999999998 291.69 131.433 292.10200000000003 119.34799999999998 L 292.115 119.36099999999999 C 295.693 122.91199999999999 299.544 126.02099999999999 303.601 128.694 C 305.171 129.73 305.171 132.027 303.602 133.063 z" stroke-linecap="round" />
</g>
</g>
</g>
</svg>