<svg id="Layer_3" enable-background="new 0 0 64 64" height="512" viewBox="0 0 64 64" width="512" xmlns="http://www.w3.org/2000/svg"><g><path d="m62.732 14.373c-7.92-8.499-19.121-13.373-30.732-13.373s-22.813 4.874-30.732 13.373c-.173.185-.269.429-.269.682l.001 46.945c0 .552.448 1 1 1h10 12 12 26c.552 0 1-.448 1-1l.001-46.945c0-.253-.096-.497-.269-.682zm-3.129-.318h-55.207c7.406-7.052 17.336-11.055 27.604-11.055s20.198 4.003 27.603 11.055zm-48.603 9.945v-3c0-.551.449-1 1-1h40c.551 0 1 .449 1 1v3zm40 2v2h-38v-2zm-15 23h-11v-11c0-.552-.448-1-1-1h-11v-3h38v27h-14v-11c0-.552-.448-1-1-1zm-7 2h2v2h-2zm-12 0h2v2h-2zm-4-2v-10h2v3c0 .552.448 1 1 1h4c.552 0 1-.448 1-1v-3h2v10zm38-17h-38v-2h38zm-34 7h2v2h-2zm-4 12h2v3c0 .552.448 1 1 1h4c.552 0 1-.448 1-1v-3h2v10h-10zm12 10v-10h2v3c0 .552.448 1 1 1h4c.552 0 1-.448 1-1v-3h2v10zm28 0v-32-3h1c.552 0 1-.448 1-1v-4c0-1.654-1.346-3-3-3h-40c-1.654 0-3 1.346-3 3v4c0 .552.448 1 1 1h1v3 9 12 11h-8l-.001-44.946h58.002v17.945h-5.001c-.552 0-1 .448-1 1v10c0 .552.448 1 1 1h5v15h-8zm8-20v3h-4v-8h4.001v3h-2v2z"/><path d="m22 10h20v2h-20z"/><path d="m22 6h20v2h-20z"/><path d="m15 57h6v2h-6z"/><path d="m15 45h6v2h-6z"/><path d="m27 57h6v2h-6z"/><path d="m6 35h2v2h-2z"/><path d="m6 39h2v2h-2z"/><path d="m6 43h2v2h-2z"/></g></svg>