<svg id="Capa_1" enable-background="new 0 0 512.011 512.011" height="512" viewBox="0 0 512.011 512.011" width="512" xmlns="http://www.w3.org/2000/svg"><g><path d="m496.646 15.377c-9.916-9.916-23.1-15.377-37.123-15.377s-27.207 5.461-37.123 15.377c-9.787 9.787-15.223 22.758-15.364 36.577l-22.681 22.681c-2.989-1.429-6.274-2.208-9.685-2.208-6.01 0-11.66 2.341-15.91 6.59l-53.033 53.033c-1.406 1.406-2.196 3.314-2.196 5.303s.79 3.897 2.196 5.303l117.582 117.583c7.228 7.227 16.007 12.338 25.586 15.021l-21.17 21.171c-2.685-9.58-7.795-18.359-15.021-25.585l-171.526-171.526c-7.227-7.227-16.006-12.338-25.585-15.021l21.17-21.17c2.684 9.579 7.794 18.358 15.021 25.585l32.73 32.73c2.93 2.929 7.678 2.927 10.607 0 2.929-2.929 2.929-7.678 0-10.606l-32.73-32.73c-8.256-8.256-12.803-19.233-12.803-30.91 0-3.034-1.827-5.768-4.63-6.929-2.801-1.16-6.029-.52-8.173 1.626l-42.427 42.425c-2.145 2.145-2.787 5.371-1.626 8.173 1.161 2.803 3.896 4.63 6.929 4.63 11.676 0 22.654 4.547 30.91 12.803l53.943 53.943-253.028 253.028c-23.201 23.2-34.429 55.209-30.805 87.819.387 3.486 3.14 6.239 6.626 6.626 4.026.447 8.043.668 12.036.668 28.343 0 55.447-11.138 75.783-31.474l253.028-253.028 53.942 53.942c8.257 8.256 12.804 19.234 12.804 30.91 0 3.034 1.827 5.768 4.63 6.929.928.384 1.902.571 2.868.571 1.952 0 3.87-.762 5.306-2.197l42.427-42.427c2.145-2.145 2.786-5.371 1.625-8.173-1.16-2.803-3.896-4.63-6.929-4.63-11.677 0-22.654-4.547-30.91-12.803l-48.64-48.64 47.73-47.729c6.91-6.911 8.352-17.228 4.375-25.588l22.688-22.688c13.818-.141 26.79-5.577 36.577-15.364 20.469-20.468 20.469-53.774-.001-74.244zm-454.554 412.127 177.125-177.124c-2.85 11.212-3.885 22.939-2.968 34.787l-200.996 200.997c1.555-21.986 10.915-42.736 26.839-58.66zm42.427 42.427c-15.925 15.925-36.676 25.285-58.66 26.84l200.997-200.997c2.806.217 5.605.332 8.392.332 8.981 0 17.837-1.122 26.393-3.297zm215.905-215.905c-18.5 18.501-43.51 28.153-69.409 26.983-1.168-25.891 8.478-50.896 26.968-69.394l37.139-37.139 42.426 42.427zm95.46-169.706 14.168-14.168c2.578 7.24 6.753 13.876 12.348 19.471s12.231 9.771 19.471 12.348l-14.168 14.168zm-42.427 21.213 53.033 53.033-10.606 10.606-53.033-53.033zm-31.82 31.82 10.606-10.606 53.033 53.033-10.606 10.606zm100.763 5.303-5.303 5.303-53.033-53.033 5.304-5.304c1.416-1.417 3.3-2.197 5.303-2.197s3.887.78 5.303 2.197l42.427 42.426c2.924 2.926 2.924 7.684-.001 10.608zm63.641-63.639c-7.084 7.083-16.501 10.983-26.518 10.983s-19.434-3.9-26.516-10.983c-7.084-7.083-10.984-16.5-10.984-26.517s3.9-19.434 10.984-26.517c7.082-7.083 16.499-10.983 26.516-10.983s19.434 3.9 26.517 10.983c14.621 14.621 14.621 38.413.001 53.034z"/><path d="m459.523 30c-6.01 0-11.66 2.341-15.909 6.59-4.25 4.25-6.591 9.9-6.591 15.91s2.341 11.66 6.59 15.91c4.25 4.25 9.9 6.59 15.91 6.59s11.66-2.341 15.909-6.59c4.25-4.25 6.591-9.9 6.591-15.91s-2.341-11.661-6.59-15.91c-4.25-4.249-9.9-6.59-15.91-6.59zm5.304 27.803c-1.417 1.417-3.301 2.197-5.304 2.197s-3.887-.78-5.304-2.197c-1.416-1.417-2.196-3.3-2.196-5.303s.78-3.886 2.197-5.303c1.416-1.417 3.3-2.197 5.303-2.197s3.887.78 5.304 2.197c1.416 1.417 2.196 3.299 2.196 5.303 0 2.003-.78 3.886-2.196 5.303z"/></g></svg>